<?xml version="1.0" encoding="utf-8"?>
<!-- Generator: Adobe Illustrator 19.1.0, SVG Export Plug-In . SVG Version: 6.00 Build 0)  -->
<svg version="1.1" id="Layer_1" xmlns="http://www.w3.org/2000/svg" xmlns:xlink="http://www.w3.org/1999/xlink" x="0px" y="0px"
	 viewBox="-181 304.9 233 233" enable-background="new -181 304.9 233 233" xml:space="preserve">
<g id="Space_Awareness_button">
	<g id="on_2_">
		<circle fill="#FFFFFF" cx="-64.5" cy="421.4" r="116.1"/>
		<g>
			<g>
				<g>
					<polygon fill="#03709C" points="18.9,368.4 19.9,367.7 20.8,368.4 20.5,367.2 21.4,366.5 20.2,366.5 19.9,365.4 19.5,366.5 
						18.3,366.5 19.3,367.2 					"/>
					<polygon fill="#03709C" points="13.9,369.7 14.9,369 15.8,369.7 15.5,368.6 16.4,367.9 15.2,367.9 14.9,366.7 14.5,367.9 
						13.3,367.9 14.3,368.6 					"/>
					<polygon fill="#03709C" points="11.2,370.4 10.8,371.5 9.6,371.5 10.6,372.2 10.2,373.4 11.2,372.7 12.2,373.4 11.8,372.2 
						12.8,371.5 11.6,371.5 					"/>
					<polygon fill="#03709C" points="9.9,377.7 10.8,378.4 10.5,377.2 11.4,376.5 10.2,376.5 9.9,375.4 9.5,376.5 8.3,376.5 
						9.3,377.2 8.9,378.4 					"/>
					<polygon fill="#03709C" points="11.6,381.5 11.2,380.4 10.8,381.5 9.6,381.5 10.6,382.2 10.2,383.4 11.2,382.7 12.2,383.4 
						11.8,382.2 12.8,381.5 					"/>
					<polygon fill="#03709C" points="15.2,385.2 14.9,384 14.5,385.2 13.3,385.2 14.3,385.9 13.9,387 14.9,386.3 15.8,387 
						15.5,385.9 16.4,385.2 					"/>
					<polygon fill="#03709C" points="20.2,386.5 19.9,385.4 19.5,386.5 18.3,386.5 19.3,387.2 18.9,388.4 19.9,387.7 20.8,388.4 
						20.5,387.2 21.4,386.5 					"/>
					<polygon fill="#03709C" points="25.2,385.2 24.8,384 24.5,385.2 23.3,385.2 24.2,385.9 23.9,387 24.8,386.3 25.8,387 
						25.4,385.9 26.4,385.2 					"/>
					<polygon fill="#03709C" points="28.9,381.5 28.5,380.4 28.1,381.5 26.9,381.5 27.9,382.2 27.5,383.4 28.5,382.7 29.5,383.4 
						29.1,382.2 30.1,381.5 					"/>
					<polygon fill="#03709C" points="31.4,376.5 30.2,376.5 29.8,375.4 29.5,376.5 28.3,376.5 29.2,377.2 28.9,378.4 29.8,377.7 
						30.8,378.4 30.4,377.2 					"/>
					<polygon fill="#03709C" points="27.5,373.4 28.5,372.7 29.5,373.4 29.1,372.2 30.1,371.5 28.9,371.5 28.5,370.4 28.1,371.5 
						26.9,371.5 27.9,372.2 					"/>
					<polygon fill="#03709C" points="24.9,366.7 24.5,367.9 23.3,367.9 24.3,368.6 23.9,369.7 24.9,369 25.8,369.7 25.5,368.6 
						26.4,367.9 25.2,367.9 					"/>
				</g>
			</g>
			<path fill="#03709C" d="M-119.9,413c0.1-1.3-0.3-2.5-1.2-3.4l-9.2-9.4c-2-2-2.9-4.7-2.7-7.5s1.6-5.3,3.8-6.9
				c2.2-1.7,5.1-2.3,7.7-1.8c2.7,0.6,5.1,2.2,6.4,4.7c0.7,1.3,0.3,3-1,3.8c-1.3,0.7-3,0.3-3.7-1c-0.6-1-1.6-1.7-2.8-2
				c-1.2-0.2-2.4,0.1-3.3,0.8c-1,0.7-1.6,1.8-1.6,3c-0.1,1.1,0.3,2.3,1.1,3.2l9.1,9.4c2,2.1,3,4.9,2.8,7.7c-0.2,2.9-1.7,5.5-3.9,7.2
				c-2.3,1.7-5.2,2.4-8,1.8s-5.2-2.4-6.6-4.8c-0.8-1.3-0.3-3,1-3.8c1.3-0.7,3-0.3,3.8,1c0.6,1.1,1.7,1.8,2.9,2.1
				c1.3,0.2,2.5-0.1,3.6-0.9C-120.5,415.4-120,414.2-119.9,413z"/>
			<path fill="#03709C" d="M-100.6,384h6.9c5.3,0,9.6,4.3,9.6,9.6v3.2c0,5.3-4.3,9.6-9.6,9.6h-4.1v13.3c0,1.6-1.3,2.8-2.8,2.8
				s-2.8-1.2-2.8-2.8v-33C-103.4,385.2-102.2,384-100.6,384z M-93.7,389.5h-4.1V401h4.1c2.3,0,4.1-1.8,4.1-4.1v-3.3
				C-89.6,391.3-91.4,389.5-93.7,389.5z"/>
			<path fill="#03709C" d="M-45.8,412.9v-19.5c0-4.4,2.9-8.2,7.1-9.3c4.2-1.1,8.7,0.7,10.9,4.5c0.8,1.3,0.3,3-1,3.8
				c-1.3,0.7-3,0.3-3.8-1c-0.9-1.6-2.8-2.4-4.7-1.9c-1.8,0.5-3,2.1-3,4V413c0,1.9,1.3,3.5,3,4c1.8,0.5,3.7-0.3,4.7-2
				c0.8-1.3,2.5-1.8,3.8-1s1.8,2.5,1,3.8c-2.2,3.8-6.6,5.6-10.9,4.5C-42.9,421.1-45.8,417.3-45.8,412.9z"/>
			<path fill="#03709C" d="M-14.2,384h11.5c1.5,0,2.8,1.3,2.8,2.8c0,1.6-1.2,2.8-2.8,2.8h-8.8v10.3h7.6c1.6,0,2.8,1.3,2.8,2.8
				c0,1.6-1.2,2.8-2.8,2.8h-7.6V417h8.7c1.5,0,2.8,1.3,2.8,2.8c0,1.6-1.2,2.8-2.8,2.8h-11.5c-1.5,0-2.8-1.2-2.8-2.8v-33.1
				C-17,385.2-15.7,384-14.2,384z"/>
			<path fill="#03709C" d="M-54.8,412.2l-9.2-33.3c-0.3-1.2-1.4-2-2.6-2c-1.3,0-2.4,0.8-2.6,2l-9.2,33.3c-0.4,1.5,0.5,3,1.9,3.4
				c1.5,0.4,3-0.5,3.4-1.9c0,0,0.7-2.5,1.7-6l0,0l4.3-15.6l0,0c0.2-0.7,0.4-1.3,0.5-2c0.2,0.8,0.4,1.6,0.7,2.4l0,0l4.2,15.2l0,0
				c0.3,0.9,0.5,1.8,0.7,2.6l0.6,2.3l0,0c0.2,0.8,0.3,1.2,0.3,1.2c0.4,1.4,1.9,2.3,3.4,1.9C-55.2,415.2-54.4,413.7-54.8,412.2z"/>
			<g>
				<path fill="#03709C" d="M-146.9,431c-0.6-0.2-1.2-0.4-1.9-0.4c-1.3,0-2.6,0.5-3.5,1.4c-0.2,0.2-0.3,0.4-0.3,0.6s0.1,0.5,0.3,0.6
					c0.3,0.4,0.9,0.4,1.3,0c0.6-0.6,1.4-0.9,2.2-0.9c0.4,0,0.8,0.1,1.2,0.2c1.2,0.5,2,1.6,2,2.9v3.1h-3.2c-2.8,0-5,2.2-5,5
					s2.2,5,5,5h4.1c0.5,0,0.9-0.4,0.9-0.9v-12.2C-143.9,433.5-145.1,431.7-146.9,431z M-148.9,440.4h3.2v6.4h-3.2
					c-1.8,0-3.2-1.4-3.2-3.2C-152.1,441.9-150.7,440.4-148.9,440.4z"/>
				<path fill="#03709C" d="M-102.2,431c-0.6-0.2-1.2-0.4-1.9-0.4c-1.3,0-2.6,0.5-3.5,1.4c-0.2,0.2-0.3,0.4-0.3,0.6s0.1,0.5,0.3,0.6
					c0.3,0.4,0.9,0.4,1.3,0c0.6-0.6,1.4-0.9,2.2-0.9c0.4,0,0.8,0.1,1.2,0.2c1.2,0.5,2,1.6,2,2.9v3.1h-3.2c-2.8,0-5,2.2-5,5
					s2.2,5,5,5h4.1c0.5,0,0.9-0.4,0.9-0.9v-12.2C-99.1,433.5-100.3,431.7-102.2,431z M-104.1,440.4h3.2v6.4h-3.2
					c-1.8,0-3.2-1.4-3.2-3.2C-107.3,441.9-105.9,440.4-104.1,440.4z"/>
				<path fill="#03709C" d="M-80.5,431.4c-0.8-0.5-1.6-0.7-2.5-0.7h-4.1c-0.5,0-0.9,0.4-0.9,0.9v16.2c0,0.5,0.4,0.9,0.9,0.9
					s0.9-0.4,0.9-0.9v-15.2h3.2c0.5,0,1.1,0.2,1.6,0.4c0.4,0.2,1,0.1,1.2-0.3c0.1-0.2,0.2-0.4,0.1-0.7
					C-80.1,431.8-80.2,431.6-80.5,431.4z"/>
				<path fill="#03709C" d="M-66.6,430.6c-2.8,0-5,2.2-5,5v8.2c0,2,1.2,3.9,3.1,4.6c0.6,0.2,1.2,0.4,1.9,0.4c1.3,0,2.6-0.5,3.5-1.5
					c0.2-0.2,0.3-0.4,0.3-0.6s-0.1-0.5-0.3-0.6c-0.3-0.3-0.9-0.3-1.3,0c-0.6,0.6-1.4,1-2.3,1c-0.4,0-0.8-0.1-1.2-0.3
					c-1.2-0.5-2-1.7-2-3v-3.2h7.3c0.5,0,0.9-0.4,0.9-0.9v-4.1C-61.6,432.8-63.9,430.6-66.6,430.6z M-66.6,432.4
					c1.8,0,3.2,1.4,3.2,3.2v3.2h-6.4v-3.2C-69.8,433.8-68.4,432.4-66.6,432.4z"/>
				<path fill="#03709C" d="M-45.9,430.8H-50c-0.5,0-0.9,0.4-0.9,0.9v16.2c0,0.5,0.4,0.9,0.9,0.9s0.9-0.4,0.9-0.9v-15.3h3.2
					c1.8,0,3.2,1.4,3.2,3.2v12.1c0,0.5,0.4,0.9,0.9,0.9s0.9-0.4,0.9-0.9v-12.1C-40.9,433-43.2,430.8-45.9,430.8z"/>
				<path fill="#03709C" d="M-24.1,430.6c-2.8,0-5,2.2-5,5v8.2c0,2,1.2,3.9,3.1,4.6c0.6,0.2,1.2,0.4,1.9,0.4c1.3,0,2.6-0.5,3.5-1.5
					c0.2-0.2,0.3-0.4,0.3-0.6s-0.1-0.5-0.3-0.6c-0.3-0.3-0.9-0.3-1.3,0c-0.6,0.6-1.4,1-2.3,1c-0.4,0-0.8-0.1-1.2-0.3
					c-1.2-0.5-2-1.7-2-3v-3.2h7.3c0.5,0,0.9-0.4,0.9-0.9v-4.1C-19.1,432.8-21.3,430.6-24.1,430.6z M-24.1,432.4
					c1.8,0,3.2,1.4,3.2,3.2v3.2h-6.4v-3.2C-27.3,433.8-25.9,432.4-24.1,432.4z"/>
				<path fill="#03709C" d="M-1.2,440.1l-3.8-2.7c-0.7-0.5-1.1-1.2-1.2-2.1c0-0.9,0.3-1.7,0.9-2.2c0.6-0.6,1.5-0.8,2.3-0.7
					s1.5,0.6,2,1.4c0.2,0.4,0.8,0.6,1.2,0.4c0.2-0.1,0.3-0.3,0.4-0.5s0-0.5-0.1-0.7c-0.7-1.2-1.9-2-3.3-2.3
					c-1.4-0.2-2.8,0.2-3.8,1.2s-1.6,2.3-1.5,3.7s0.8,2.7,2,3.4l3.8,2.7c0.7,0.5,1.2,1.3,1.2,2.2c0.1,0.9-0.3,1.7-0.9,2.4
					c-0.7,0.6-1.5,0.9-2.5,0.7c-0.9-0.1-1.7-0.7-2.1-1.4c-0.2-0.4-0.8-0.6-1.2-0.3c-0.2,0.1-0.4,0.3-0.4,0.5c-0.1,0.2,0,0.5,0.1,0.7
					c0.7,1.2,1.9,2.1,3.4,2.3c0.2,0,0.5,0.1,0.7,0.1c1.2,0,2.3-0.4,3.2-1.2c1.1-1,1.6-2.4,1.5-3.8C0.7,442.3,0,441-1.2,440.1z"/>
				<path fill="#03709C" d="M20,443.7c-0.1-1.5-0.8-2.8-2-3.6l-3.8-2.7c-0.7-0.5-1.1-1.2-1.2-2.1c0-0.9,0.3-1.7,0.9-2.2
					c0.6-0.6,1.5-0.8,2.3-0.7c0.8,0.1,1.5,0.6,2,1.4c0.2,0.3,0.5,0.5,0.8,0.5c0.2,0,0.3,0,0.5-0.1s0.3-0.3,0.4-0.5s0-0.5-0.1-0.7
					c-0.7-1.2-1.9-2-3.3-2.3c-1.4-0.2-2.8,0.2-3.8,1.2s-1.6,2.3-1.5,3.7s0.8,2.7,2,3.4l3.8,2.7c0.7,0.5,1.2,1.3,1.2,2.2
					c0.1,0.9-0.3,1.7-0.9,2.4c-0.7,0.6-1.5,0.9-2.5,0.7c-0.9-0.1-1.7-0.7-2.1-1.4c-0.2-0.4-0.8-0.6-1.2-0.3
					c-0.2,0.1-0.4,0.3-0.4,0.5c-0.1,0.2,0,0.5,0.1,0.7c0.7,1.2,1.9,2.1,3.4,2.3c0.2,0,0.5,0.1,0.7,0.1c1.2,0,2.3-0.4,3.2-1.2
					C19.5,446.6,20.1,445.2,20,443.7z"/>
				<path fill="#03709C" d="M-117.1,430.6c-0.5-0.1-1,0.2-1.1,0.7c0,0-2.1,8.7-3.1,12.9c-1-4.2-3.1-12.8-3.1-12.9
					c-0.1-0.4-0.5-0.7-0.9-0.7c-0.4,0-0.7,0.3-0.8,0.7c0,0-2.1,8.7-3.1,12.9c-1-4.2-3.1-12.8-3.1-12.9c-0.1-0.4-0.4-0.7-0.8-0.7
					c-0.1,0-0.2,0-0.2,0c-0.2,0.1-0.4,0.2-0.6,0.4c-0.1,0.2-0.1,0.4-0.1,0.7l4,16.4c0.1,0.4,0.4,0.7,0.8,0.7c0.4,0,0.8-0.3,0.9-0.7
					c0-0.1,2.1-8.7,3.1-12.9c1,4.2,3.1,12.9,3.1,12.9c0.1,0.4,0.4,0.7,0.8,0.7c0.4,0,0.8-0.3,0.9-0.7l4-16.4
					C-116.4,431.2-116.7,430.7-117.1,430.6z"/>
			</g>
		</g>
	</g>
</g>
</svg>
