<?xml version="1.0" encoding="utf-8"?>
<!-- Generator: Adobe Illustrator 19.1.0, SVG Export Plug-In . SVG Version: 6.00 Build 0)  -->
<svg version="1.1" id="Layer_1" xmlns="http://www.w3.org/2000/svg" xmlns:xlink="http://www.w3.org/1999/xlink" x="0px" y="0px"
	 viewBox="-181 304.9 233 233" enable-background="new -181 304.9 233 233" xml:space="preserve">
<g id="ESA_Kids_button">
	<g id="on_1_">
		<circle fill="#FFFFFF" cx="-64.5" cy="421.4" r="116.1"/>
		<g>
			<path fill="#0E9CC9" d="M-13.5,412.3c0.9-1.3,0.6-2.6,0.6-3.8c-0.7-0.7-1.3-1.3-1.9-1.9c-2.4-0.8-4.9-0.8-7.3-0.1
				c-1.7,0.9-2,2.8-2.7,4.4c-2.2,0-4.4,0-6.6,0c-0.1-2.2,0.7-4.1,1.6-5.9c1.1-2,3.1-2.8,4.9-4c1.1,0.3,2.1-0.8,3.2-0.5
				c1,0.3,1.8-0.6,2.7-0.5c0.9,0.1,1.8,0,2.7,0c3,0.2,5.9,1,8.2,2.9c1.6,1.4,2.5,3.3,2.8,5.6c0.8,6.8,0.3,13.6,0.4,20.3
				c0,1.2,0.6,2.3,0.8,3.5c-1.8,0-3.6,0-5.4,0c-0.8,0.7-1.3,1.6-2.4,1.8c-1.7,0-3.7,0.6-4.5-1.7c-1.4,0.4-2.7,0.9-4.1,1
				c-0.5,0.3-0.5,0.8-0.8,1.2c-0.7,1.2-1.4,2.3-2.4,3.3c-1.5,1.5-3.1,2.9-4.3,4.9c1.6,1.9,3.8,3.2,5.9,4.4c1.9,1.1,3.9,1.8,5.7,3.1
				c1.3,0.9,2.1,2.1,3.3,2.9c0,0.6,0,1.2,0,1.9c-0.7,0.8-1.5,1.6-2.7,2.1c-0.5,0-1.3,0-1.8,0c-3.3-1.4-5.8-3.4-8.4-5.4
				c-0.3,0.4-0.2,0.8,0.1,1.4c0.6,1.2,1.1,2.4,1.8,3.5s1.1,2.4,2,3.5c0.5,0.5,0.7,1.4,0.8,2.1c0.1,0.9,0,1.8,0,2.8
				c-0.7,1.1-1.9,1.7-3.4,2c-1.5-0.5-2.4-1.4-2.9-3.2c-0.5-2-1.4-3.9-2.4-5.8c-0.6-1.2-1.1-2.4-1.6-3.6c-0.5-1.2-1.5-2.1-1.4-3.5
				c-1.3-1.8-1.9-4-2.7-6.1s-1.7-4.3-2.2-6.5c-0.1-0.6-0.8-1.1-0.5-1.8c-1-1.3-0.9-2.9-0.9-4.5c0.9-0.8,1.6-1.9,3.3-2.5
				c0.3,0,0.9,0,1.3,0c2,1.1,2.2,3,2.6,4.8c0.3,1.2,0.6,2.3,1.2,3.3c1.6-1,3-3.3,3.4-5.2c-0.3-0.4-0.8-0.6-1.2-0.8
				c-2-1.2-3.6-2.8-4.3-5.1c-0.9-3-0.2-6.2,1.8-8.4c2.3-2.6,5.3-3.4,8.6-3.9c2.3-0.4,4.7-0.4,6.9-1.3
				C-14.6,413.6-14.4,412.2-13.5,412.3z M-38.2,433c-0.1,2,0.9,3.7,1.5,5.3c0.6,1.8,1.1,3.7,2.2,5.4c-0.1,1.5,0.7,2.5,1.4,3.7
				c0.1,0.2,0.3,0.5,0.4,0.7c0.9,3.5,2.9,6.5,4.2,9.8c0.7,1.8,1.7,3.5,2.2,5.4c0.3,1.1,0.8,2,1.6,2.7c0.7,0,1.3,0,2,0
				c1.3-1.9,1.4-2.2,0.4-3.9c-0.8-1.4-1.6-2.8-2.4-4.2c-1.1-2-2-4.1-2.7-6.3c-0.2-0.6-0.3-1.2,0-1.8c0.3,0,0.5,0,0.5,0.1
				c2.1,1.8,4.6,3.1,6.8,4.8c0.8,0.6,1.8,1.1,2.7,1.6c1,0.5,1.6,0.2,2.4-0.2c0.8-0.4,1.5-0.9,1.3-2c-2.7-3-6.5-4.5-10-6.2
				c-0.9-0.6-1.7-1.3-2.5-2c-1.1-0.8-2.6-1.3-2.8-3.1c1.2-1.1,1.9-2.6,3.1-3.6c1.3-1.1,2.3-2.5,3.3-3.8c0.7-1,1.6-2.1,1.1-3.5
				c-1,0-1.8-0.9-2.8-0.5c-0.7,0.5-1.2,1.2-1.5,1.9c-0.4,1-1,1.9-1.4,2.8c-0.6,1.3-1.8,1.9-2.5,2.9c-0.6,0-1,0-1.5,0
				c-0.7-1.1-1.4-2.1-1.5-3.4c-0.1-1.2-0.7-2.4-1-3.7C-35.5,430.7-36.8,431.5-38.2,433z M-25.1,425.8c0.1,0.1,0.3,0.2,0.5,0.4
				c0.8,1.1,2.1,1.4,3.3,1.9c0.8,0.3,1.7,0.3,2.5-0.3c0.1-0.1,0.4,0,0.7,0c1.7,0,3-0.9,4.2-1.8c0.9-0.7,1.4-1.9,1.5-2.9
				c0.2-2,0.1-4,0.1-5.9c-0.5-0.2-0.7-0.1-0.9,0.1c-1.4,0.9-3.1,1.2-4.8,1.5c-1.2,0.3-2.5,0.5-3.7,0.9c-1.7,0.5-3.1,1.3-3.3,3.3
				c-0.8,0.7-0.5,1.4,0,2.1C-25,425.2-25.1,425.5-25.1,425.8z M-11.3,428.6c-0.7,0.1-1.5,0.1-2.3,0.2c-0.4,0.1-0.8,0.3-1.1,0.6
				c-0.4,0.5-0.6,1.1-0.9,1.6c0.3,1.1,0.9,1.9,1.7,2.6c0.6,0,1.2,0,1.7,0c0.6-0.5,1.1-1.1,1.6-1.6c0-0.9,0-1.8,0-2.7
				C-10.9,429.1-11.1,428.9-11.3,428.6z"/>
			<path fill="#0E9CC9" d="M-68.4,419.1c-6.6,0-13.1,0-19.7,0c0-1.7,0-3.5,0-5.3c3.8,0,7.7,0,11.6,0c0.3-1.9-0.7-3.3-1.7-4.7
				c-1.9-2.6-5.7-3.4-8.9-1.7c-2,1.1-3.2,2.9-3.7,5c-0.2,0.8-0.6,1.4-0.5,2.3c0.1,1.3,0,2.7,0,4.1c0.1,1,0.7,1.9,0.5,2.9
				c0.9,3.1,3,5,5.9,5.6c3,0.6,6.1,0.1,8-3.1c0-0.1,0-0.4,0-0.7c0.2-0.2,0.4-0.4,0.6-0.6c2.6,0,5.3,0,7.9,0
				c-0.7,1.9-1.5,3.6-2.6,5.2c-1.5,2.2-3.6,3.6-6,4.6c-3,1.3-6.2,1.1-9.3,0.8c-2.3-0.2-4.6-1.4-6.4-2.9c-2.6-2.1-4.6-4.7-5.5-8.1
				c-0.3-1.3-0.7-2.6-0.8-3.9c-0.1-1.2,0-2.4,0-3.6c0-1.5,0.4-2.8,1-4.1c0.6-1.5,1.2-3,2.2-4.3c1.7-2.3,3.9-4.1,6.4-5.3
				c0.6-0.3,1.4,0.3,1.8-0.5c1.9,0.3,3.7-1.3,5.7-0.1c0.5,0.3,1.3-0.2,1.9,0.3c0.4,0.4,1.3-0.2,1.5,0.6c1,0,1.7,0.6,2.5,1.1
				c3.3,1.9,4.9,5.1,6.2,8.4C-68.7,413.6-68.2,416.3-68.4,419.1z"/>
			<path fill="#0E9CC9" d="M-64.2,422.8c2.2,0,4.4,0,6.7,0c0.5,2.6,1.8,4.5,4.6,5.3c0.7-0.2,1.6,0.4,2.6,0.5c1,0,1.9-1,2.6-0.5
				c1.5-0.5,2.3-1.6,3.2-2.5c-0.3-1,0.3-2.1-0.4-3.2c-0.3-0.5-0.5-0.9-1.1-1.1c-0.9-0.4-1.8-0.7-2.8-0.9c-2.8-0.5-5.6-0.9-8.3-1.8
				c-2.8-1-5.2-2.6-6.4-6c0.1-2.2-0.5-4.9,0.9-7.4c0.9-0.8,1.7-1.7,2.6-2.4c2.3-1.6,4.8-2.5,7.6-2.3c0.8,0.1,1.7,0,2.5,0
				c3.2-0.1,6,1.2,8.4,3c1.4,1.1,2.4,2.8,2.7,4.7c0.1,0.8,0.8,1.6,0.4,2.6c-2.1,0-4.3,0-6.6,0c0.3-1.6-0.8-2.8-1.7-3.9
				c-0.6-0.8-1.9-1.4-3-1.4c-2.8-0.1-5.6-0.2-7.1,2.9c0,0.7,0,1.4,0,2.3c0.5,0.4,1.1,0.9,1.9,1.5c-0.1,0,0.3,0,0.6,0.1
				c1,0.4,1.9,0.9,3.1,0.8c0.6,0,7.8,1.6,8.5,1.8c3,1.1,5.2,4.3,5.3,7.6c0,2.1-0.2,4-1.3,5.8c-1.6,2.4-3.7,3.9-6.4,4.7
				c-1.2,0.3-2.3,0.5-3.4,0.4c-0.7-0.1-1,0.4-1.6,0.5c-1,0.2-1.8-0.6-2.8-0.5c-0.9,0.1-1.7-0.2-2.5-0.4c-0.9-0.2-1.7-0.6-2.5-1
				c-0.7-0.4-1.6-0.6-2.3-1.1c-1.7-1.4-2.9-3.3-3.7-5.4C-64.2,424.9-64.4,424-64.2,422.8z"/>
			<path fill="#0E9CC9" d="M19.1,446.5c0-0.9,0-1.7,0-2.7c0.5-0.4,1.1-0.9,1.9-1.6c0.2,0,0.8,0,1.5,0c0.1,0,0.2,0.1,0.3,0.2
				c2,2.3,3.4,1.6,5.7,0.1c0.6-0.4,1-0.9,1.5-1.4c0-0.6,0-1.2,0-1.9c-0.3-0.2-0.7-0.6-1.3-1c-1.2,0-2.5-0.7-4-0.5
				c-1.8,0.2-3.5-0.4-5.2-0.9c-2.1-0.6-3.7-1.8-4.7-4.1c-0.2-3.4,1.8-5.9,4.5-8.1c1.4-1.1,2.9-1.5,4.6-1.4c1.1,0.1,2.3,0.1,3.4,0
				c1.7-0.1,3.1,0.8,4.5,1.5c0.4,0.2,0.7,0.9,1,1.4c0.2,1.3,0.1,2.5-1.1,3.4c-2.1,0-4.2,0-6.3-0.8c-1.6-0.6-3.3,0-4.4,1.7
				c0.8,1,1.7,1.5,3,1.8c1.2,0.3,2.5,0.2,3.7,0.4c1.6,0.3,3.2,0.4,4.7,1.1c0.4,0.2,0.7,0.1,1.2,0.3c0.8,0.8,1.9,1.6,2.4,3.1
				c0,0.7-0.1,1.7,0,2.7c0.1,1.9-0.8,3.5-1.9,4.8c-0.9,1.1-2,2.1-3.3,2.9c-0.9,0.5-4,1.7-4.9,1.8C23.1,449.4,21,448.4,19.1,446.5z
				 M31.3,425.6c-0.4-0.1-0.6-0.2-0.9-0.4c-1.4-0.8-2.9-1.2-4.5-1.1c-1.4,0.1-2.9,0-4.3,0c-0.1,0.1-0.2,0.3-0.3,0.3
				c-2.9,1.2-4.5,3.5-5.5,6.4c-0.3,0.7-0.2,1.3,0.1,2c1,2.1,2.7,3,4.7,3.3c1.9,0.3,3.7,0.7,5.7,0.6c1.8-0.1,3.5,0.6,4.6,1.9
				c0,1.1,0,2,0,2.8c-0.7,0.7-1.2,1.5-2,1.9c-1.4,0.8-2.8,2.1-4.6,1c-0.2-0.1-0.4,0-0.7,0c-0.5-0.5-1-1-1.3-1.3
				c-1.3-0.3-1.5,0.7-2.1,1.1c0,0.6,0,1.2,0,1.7c0.5,1.1,1.4,1.5,2.2,1.8c1.2,0.5,2.5,1.1,3.9,0.7c1.7-0.5,3.3-1.1,4.7-2.2
				c1.7-1.3,3.1-2.8,3.7-4.9c0.4-1.3,0.1-2.6,0.2-3.4c-0.3-1.7-1.3-2.2-2-3c-0.3,0-0.5,0-0.6,0c-2.3-1-4.8-1.5-7.3-1.3
				c-1.2,0.1-2.2-0.5-3.2-0.9c-0.7-0.3-1.2-1-1.7-1.5c0-0.8,0-1.4,0-1.9c0.7-0.9,1.8-0.9,2.5-1.6c1.1,0,2.2-0.1,3.1,0.2
				c1.8,0.6,3.6,0.9,5.5,0.7C31.8,427.1,31.8,427.1,31.3,425.6z"/>
			<path fill="#0E9CC9" d="M-161.9,405.3c1,0.2,0.4,1.5,1.1,1.9c-0.2,1.2,0.7,2.1,1,3.2c0.3,1,0.9,1.9,1.3,2.8c1.2,2.5,2.5,5,4,7.3
				c0.6,0.9,1.8,1.4,1.9,2.6c2.1,2,3.7,4.5,6.1,6.3c2,1.5,3.8,3.3,6,4.5c2.1,1.2,4.1,2.7,6.5,3.4c1.6,0.5,3,1.3,4.6,1.9
				c0.8,0.3,1.6,0.3,2.4,0.6c0.7,0.3,1.7,0.4,2.5,0.6c0.9,0.2,1.8,0.3,2.7,0.4c0.2,0.3,0.4,0.5,0.6,0.7c-0.2,0.5-1.1-0.1-1,0.6
				c-2.7,0.3-5-0.7-7.4-1.5c-2.8-0.9-5.6-2-8.2-3.5c-2.5-1.4-4.8-2.9-7.1-4.5c-1.8-1.3-3.4-2.7-5-4.2c-4.4-4.4-8-9.5-10.5-15.2
				c-0.7-1.5-1.2-3-1.8-4.4C-162.8,407.5-162.8,406.4-161.9,405.3z"/>
			<path fill="#0E9CC9" d="M17.8,449.9c-0.8,1-1.7,1.8-2.8,2.2c-1.6-0.2-2.3-1.4-3.3-2.2c-1.2-0.3-2.2,0-3.2,0.8
				c-0.5,0-1.1-0.1-1.7,0c-3,0.3-5.5-1-8.1-2.3c-1.4-0.7-2-2.2-2.6-3.6c-0.8-2.1-0.6-2.9,0.4-5.3c0.6-1.5,1.4-2.8,2.6-3.9
				c2-1.9,3.9-3.9,6-6c-0.1-1.3,0-2.6-0.4-4c-0.5-1.6,0-3.2,1.5-4.3c0.3-0.2,0.5-0.5,0.9-0.9c0.6,0,1.2,0,1.8,0
				c1.8,0.6,2.3,1.9,2.1,3.6c-0.1,0.7,0,1.5,0,2.2c0,3.3,0.5,5.1,1.7,10.1c0.7,2.9,1.9,5.7,3,8.4c0.6,1.4,1.2,2.8,1.9,4.2
				C17.8,449.3,17.8,449.7,17.8,449.9z M6.1,430.2c-0.5,0.5-1.1,0.8-1.3,1.3c-0.4,1-1.3,1.4-2,2.1c-2.2,1.9-4.4,3.9-5.5,6.7
				c-0.3,0.7-0.7,1.5-0.6,2.2c0.1,1,0.4,2.1,0.9,3c0.6,1,1.5,2,2.5,2.5c2,1,4.1,2,6.4,1.9c0.5,0,1.1,0,1.5,0c0.9-0.8,2.1-0.8,3-1.3
				c1.7,0.4,2.3,2.4,3.9,2.7c0.6-0.6,1.2-1.2,1.7-1.7c-1-2-2.1-4.1-2.9-6.3c-0.8-2.2-1.6-4.3-2.2-6.5c-0.6-2.3-1.1-4.7-1.4-7.1
				c-0.3-2.5-0.7-4.9-0.4-7.4c-0.7-0.3-1.3-0.8-2.1-0.7c-0.5,0.6-1.2,1-1.6,1.8c-0.1,0.3-0.3,0.6-0.4,0.9c-0.3,0.8,0.5,1.3,0.4,2.1
				c0,0.3,0,0.6,0,0.9C6.1,428.1,6.1,429.1,6.1,430.2z"/>
			<path fill="#0E9CC9" d="M-164,411.1c0.3,0,0.5,0,0.6,0c5.6,15,18.8,28.2,37.2,32.7c-1.5,1.1-3.1,1-4.6,0.2
				c-1.4-0.7-2.9-1.1-4.3-1.7c-2.4-1-4.6-2.2-6.9-3.4c-2.1-1.1-3.9-2.7-6-3.9c-0.3-0.1-0.4-0.4-0.6-0.6c-1.1-1-2-2.1-3.3-2.9
				c-1-0.6-1.5-1.8-2.3-2.6c-3.1-3.2-5.5-6.7-7.6-10.6c-0.6-1-1-2.1-1.7-3.2c-0.2-0.3-0.5-0.8-0.5-1.3
				C-164,412.9-164,412.1-164,411.1z"/>
			<path fill="#0E9CC9" d="M-133.3,445.2c-2,0.3-3.9,0.1-5.7-0.8c-2.7-1.4-5.4-2.8-7.8-4.5c-1.8-1.3-3.6-2.4-5.1-3.9
				c-2-2-4.1-4-6-6.1c-2.2-2.3-3.9-4.9-5.6-7.6c-0.8-1.3-1.2-2.8-0.8-4.4c0.6,1,1.2,1.9,1.8,2.8c1.3,2.1,2.6,4.2,4.2,6.2
				c1.8,2.3,4,4.2,5.9,6.3c2.7,2.9,5.9,5,9.2,7.2c2.8,1.9,5.9,3,9,4.5C-134,445-133.6,444.7-133.3,445.2z"/>
			<path fill="#0E9CC9" d="M-152,420.9c0.7-0.5,1.3-0.2,1.8-0.4c2.6,3.7,5.9,6.7,9.6,9.3c3.5,2.4,7.3,4.3,11.3,5.8
				c4.1,1.5,8.3,2.1,12.7,2.8c-1.1,1-2,1.6-3.5,0.8c-0.9-0.4-2.1-0.2-3.2-0.5c-2.1-0.5-4.2-1-6.3-1.7c-1.9-0.6-3.8-1.5-5.6-2.2
				c-2.6-1-4.7-2.7-7-4.3c-2.5-1.7-5-3.7-6.9-6.1C-149.9,423.2-151,422.2-152,420.9z"/>
			<path fill="#0E9CC9" d="M-136.4,425.5c-1.1-0.2-1.8-0.9-2.6-1.5c-5.6-4.2-9.6-9.8-12.3-16.2c-1.7-3.9-2.7-8-3.2-12.3
				c0.4-0.3,0.8-0.6,1.3-1c0,0,0.1,0.1,0.3,0.2c0.3,0.2,0.3,0.5,0.3,0.8c-0.3,1.7,0.5,3.3,0.5,5c0,0.9,0.6,1.7,0.8,2.6
				c0.7,2.4,1.5,4.8,2.7,7c1,2,2.4,3.8,3.6,5.7c1.2,1.9,3,3.5,4.6,5.1c0.6,0.6,1.2,1.2,2,1.7C-137.4,423.1-136.5,424.1-136.4,425.5z
				"/>
			<path fill="#0E9CC9" d="M-9,456.2c-1.8-1.5-2.3-3.6-3-5.8c-0.6-1.9-1.1-3.8-1.6-5.6c-0.4-1.7-1-3.5-0.6-5.6c0.4-0.9,1-1.9,3-2.4
				c0.8,0,2.4-0.3,3.7,1.1c-0.2,0.8,0.4,1.8-0.4,2.6c-0.2,0.2-0.2,0.7-0.1,0.8c0.8,1,0.4,2.2,0.8,3.3c0.3,1,0.7,2.2,0.6,3.4
				c0,0.9,0.5,1.9,1.1,2.7c0.5,0.8,0.4,1.8,1,2.5c0.5,0.6-0.5,1.1-0.4,1.8c-0.7,0.3-1.4,0.7-2.2,1.1C-7.5,456.2-8.3,456.2-9,456.2z
				 M-12.9,438.7c0.3,0.8-0.4,1.4-0.5,2.2c-0.1,0.9,0.8,1.5,0.5,2.3c-0.2,0.6,0.5,0.8,0.5,1.4c-0.1,1.4,0.9,2.5,0.9,3.9
				c0,1.3,0.9,2.5,1.2,3.8c0.3,1.2,0.8,2.3,1.8,3c1.2,0.1,2.1-0.3,2.8-1.1c0.2-1.1-0.1-2.1-0.6-3.1c-1-1.7-1.7-3.5-1.6-5.7
				c0.1-0.9-0.3-1.9-0.7-2.9c-0.3-0.9-0.4-1.8,0-2.5s0.2-1.2,0.2-1.7C-10,437.3-11.3,437.5-12.9,438.7z"/>
			<path fill="#0E9CC9" d="M-150.9,392.8c0.3-0.3,0.5-0.8,1.2-0.6c0.5,10,3.8,18.9,11.3,25.8c0.2,0.6-0.2,1.4,0.6,2
				c-0.4,0-0.7,0.1-0.8,0c-4-3.7-7.2-7.9-9.4-13C-149.9,402.5-151.2,397.8-150.9,392.8z"/>
			<path fill="#0E9CC9" d="M-138.4,413.2c0,0.5,0,1.2,0,2c-1.8-1.8-3.1-3.6-4.2-5.6c-0.3-0.6-0.8-1.1-1.2-1.8
				c-1.2-2.3-2.5-6.3-3.2-9.3c-0.3-1.4-0.4-2.7-0.4-4.1c0-0.8-0.3-1.4-0.6-2.1c0.5-0.7,0.5-1.8,1.8-2.1c0.3,2.2-0.2,4.4,0.2,6.5
				c0.4,2,0.8,4,1.5,5.9c0.7,1.8,1.7,3.5,2.5,5.3C-141.1,409.8-139.5,411.2-138.4,413.2z"/>
			<path fill="#0E9CC9" d="M-127.5,433.7c-0.8-0.1-1.2,0-1.6-0.2c-3.8-1.4-7.2-3.3-10.5-5.6c-2.6-1.8-4.9-3.9-7.1-6.2
				c-0.5-0.5-0.5-1.2-1.1-1.6c-0.7-0.5-0.3-1.2,0.3-1.7c1,0.3,1.1,1.5,1.8,2.1c1.7,1.5,3.2,3.2,5,4.7c1.8,1.4,3.7,2.7,5.6,3.9
				c1.6,0.9,3.3,1.8,4.8,3C-129.5,432.6-128.5,432.9-127.5,433.7z"/>
			<path fill="#0E9CC9" d="M-144.1,389.5c0.7,0.1,1-0.7,1.8-0.4c-1.1,7.5,1.2,14.1,5.4,20.2c-0.2,0.4-0.4,0.9-0.7,1.3
				c-1-0.7-1.5-1.7-2-2.7c-1.4-2.4-2.6-4.9-3.4-7.6c-0.3-1.2-0.7-2.4-0.8-3.7c-0.1-2-0.6-3.9-0.4-5.9
				C-144.1,390.3-144.1,389.9-144.1,389.5z"/>
			<path fill="#0E9CC9" d="M-109.5,423.7c0.2,0.8-0.3,0.9-0.6,1.4c-1.2-0.4-2.3,0.6-3.5,0.4c-3.5-0.4-7.2-0.2-10.5-1.8
				c-1.4,0.3-2.4-0.9-3.6-1c-0.8-0.1-1.5-0.8-2-1.5c0-0.3,0-0.6,0-0.9c0.2-0.3,0.3,0,0.5,0.1c2,1.1,4.3,1.7,6.4,2.4
				c1.8,0.6,3.6,1,5.5,0.9C-114.7,423.6-112.1,423.7-109.5,423.7z"/>
			<path fill="#0E9CC9" d="M-161.6,428.7c2.5,3.2,5.5,5.9,8.5,8.7c2.8,2.6,6,4.8,9.4,6.8c-2.7-0.8-5.5-1.7-7.7-3.4
				C-157.7,435.7-160,433.2-161.6,428.7z"/>
			<path fill="#0E9CC9" d="M-140.6,388.5c0.7,0,1.2,0,2,0c-0.8,1.3-0.5,2.7-0.6,4.1c-0.1,2.8,0.7,5.5,1.6,8.1
				c0.5,1.6,1.1,3.1,2.2,4.5c0.4,0.6,0.4,0.6-0.4,1.9c-0.5-0.6-1.1-1-1.3-1.8c-0.5-1.2-1.1-2.2-1.6-3.4c-0.6-1.6-1-3.2-1.4-4.8
				C-140.8,394.3-140.3,391.5-140.6,388.5z"/>
			<path fill="#0E9CC9" d="M-125.6,419.6c2.3,0,4.2-0.3,6,0.1c3.2,0.7,6.3,0.1,9.5,0.4c1,0.1,1.7-0.9,2.8-0.3c0.2,0.4,0.1,1,0,1.5
				c-2,0.2-4.1,1.1-6,0.5c-2.1-0.6-4.2,0.1-6.1-0.4C-121.3,420.9-123.3,420.8-125.6,419.6z"/>
			<path fill="#0E9CC9" d="M-156.5,397.1c0.4,0.8,0.6,1.5,0.7,2.4c0.3,2.1,0.8,4.1,1.5,6.1c0.8,2.3,1.6,4.6,2.9,6.7
				c0.1,0.1,0,0.3,0,0.4c-0.2,0.3-0.6,0.1-0.8,0.2c-1.1-0.3-1.5-1.3-1.8-2.1c-1-2.3-2.2-4.7-2.6-7.2c-0.3-1.8-1.1-3.6-1.1-5.4
				C-157.3,397.8-156.9,397.4-156.5,397.1z"/>
			<path fill="#0E9CC9" d="M-132.7,403.5c-0.4,0.3-0.6,0.5-0.8,0.7c-0.1-0.1-0.2-0.1-0.3-0.2c-1.7-2.4-2.5-5.2-3-8
				c-0.4-2.4-0.1-4.9-0.1-7.4c0.4-0.2,0.5-0.7,0.9-0.7s0.5,0.3,0.7,0.5C-136.4,393.9-134.9,398.8-132.7,403.5z"/>
			<path fill="#0E9CC9" d="M-159.2,400.6c1,4.6,2.4,9.1,4.7,13c0.2,0.9-0.5,1.3-0.6,2.1c-1.4-2.2-2.5-4.4-3.3-6.7
				c-0.5-1.6-1-3.2-1.5-4.8C-160.6,402.8-160.2,401.7-159.2,400.6z"/>
			<path fill="#0E9CC9" d="M-122.8,391.1c0.4,0.4,0.8,0.8,1.1,1.1c0,2.3,0.9,4.2,2.6,5.8c1.8,1.7,4,1.8,6.2,1.7
				c0.3,0.4,0.8,0.6,0.7,1.1C-118.7,402.6-124,396.9-122.8,391.1z"/>
			<path fill="#0E9CC9" d="M-129.7,401.2c-0.2,0.4-0.4,0.7-0.9,0.9c-1.3-0.5-1.1-2-1.7-3s-0.9-2.3-0.9-3.4c0-1.2-0.5-2.2-0.6-3.4
				c0-1.3,0.7-2.4,0.6-3.6c0.3-0.3,0.7-0.1,1.1-0.2c0.1,0.1,0.2,0.2,0.2,0.4c0,1.7,0,3.4,0,5.2C-132,396.6-131,399-129.7,401.2z"/>
			<path fill="#0E9CC9" d="M-126.7,400.7c-0.3,0-0.6,0-0.9,0c-2.1-3.4-2.9-7.1-2.4-11.2c0.4-0.5,0.9-0.8,1.6-0.4
				c-0.4,1.7-0.4,3.4,0,5.2s0.8,3.4,1.7,4.9C-126.5,399.8-126.4,400.2-126.7,400.7z"/>
			<path fill="#0E9CC9" d="M-122.4,399.8c-0.6-0.1-0.9,0.1-1.2,0.5c-2.6-3-3.2-6.6-2.8-10.4c0.2,0,0.4-0.1,0.5,0
				c0.2,0.2,0.5,0.4,0.7,0.6c0.1,1.6,0,3.2,0.4,4.9C-124.3,397-123.2,398.2-122.4,399.8z"/>
			<path fill="#0E9CC9" d="M-125.2,407.7c0.5-0.5,1.1-0.2,1.6-0.3c1.9,1.8,4.5,2.1,6.9,2.8c0.2,0.3,0.3,0.7,0.5,1.1
				c-0.1,0-0.2,0.2-0.3,0.2c-2.5,0-4.6-1.1-6.8-2C-124.2,409.2-125,408.7-125.2,407.7z"/>
			<path fill="#0E9CC9" d="M-123.5,413.3c-1.6-0.9-3.3-1.6-4.4-3c0.1-0.4-0.1-0.8,0.3-1.2c2.4,1.6,4.8,3.3,8.2,3.9
				C-121.1,413.5-122.3,413.2-123.5,413.3z"/>
			<path fill="#0E9CC9" d="M-125.7,426c1.5-0.3,2.7,0.6,3.9,0.9c1.3,0.4,2.6,0,3.8,0.6c1.3,0.6,2.8-0.1,4.1,0.5
				c-1.4-0.1-2.7,1-4,0.5c-1.7-0.6-3.6-0.2-5.1-1.2C-123.9,426.9-125,427-125.7,426z"/>
			<path fill="#0E9CC9" d="M-119.1,393.5c1.7,1.3,3.4,2.6,4.9,4.5c-1,0-1.8-0.4-2.4-0.8c-0.6-0.5-1.6-0.5-1.8-1.4
				C-118.5,395-120,394.6-119.1,393.5z"/>
			<path fill="#0E9CC9" d="M-129.6,417.6c0-0.3,0-0.6,0-1.2c0.8,0.2,1.5,0.5,1.9,0.8c0.5,0.6,0.2,1,0.5,1.8
				C-128.3,418.5-129.1,418.4-129.6,417.6z"/>
			<path fill="#0E9CC9" d="M-127.5,414.6c-0.9,0.3-0.9-0.9-1.7-0.3c0-0.7,0-1.2,0-1.7c0.2-0.1,0.3-0.2,0.4-0.1
				C-127.9,412.9-127.2,413.4-127.5,414.6z"/>
			<path fill="#0E9CC9" d="M-111.5,405.1c-0.7-0.7-1.1-1.1-1.5-1.4c0.1-0.2,0.4-0.2,0.6-0.2c0.5,0,1.1,0.2,1.4-0.4
				c0.3,0.3,0.8,0.4,0.7,1C-110.6,404.6-111.4,404.1-111.5,405.1z"/>
			<path fill="#0E9CC9" d="M-109.2,406.1c0.5,0.5,0.1,0.9,0.2,1.3c-0.7,0.2-0.9-0.3-1.2-0.5C-110,406.4-109.7,406.1-109.2,406.1z"/>
			<path fill="#0E9CC9" d="M-113.9,435.5c-0.4,0.8-0.9,1-1.7,0.6C-115.3,435.4-114.7,435.2-113.9,435.5z"/>
			<path fill="#0E9CC9" d="M-118.8,407.5c-1.2,0-2,0.1-2.3-1C-120.4,406.8-119.8,407-118.8,407.5z"/>
			<path fill="#0E9CC9" d="M-107.7,410.6c-0.2,0-0.4,0-0.6,0c-0.3-0.3-0.2-0.5,0.1-1C-108,409.9-107.9,410.2-107.7,410.6z"/>
			<path fill="#0E9CC9" d="M-127,433.9c-0.3,0.3-0.8,0.3-0.8-0.1c-0.1-0.5,0.4-0.1,0.6-0.2C-127.2,433.6-127.1,433.8-127,433.9z"/>
			<path fill="#0E9CC9" d="M-118.4,407.7c-0.3,0.3-0.8,0.3-0.8-0.1c-0.1-0.5,0.4-0.1,0.6-0.2C-118.7,407.5-118.5,407.6-118.4,407.7z
				"/>
			<path fill="#0E9CC9" d="M-136.5,425.5c0.2,0,0.4,0.1,0.4,0.3l-0.1,0.1C-136.4,425.8-136.5,425.7-136.5,425.5z"/>
			<path fill="#0E9CC9" d="M0.7,441.2c0.7-3.9,3.3-5.4,6.5-6.4c1.1,3.3,1.1,6.7,2.3,9.9c-0.5,0.3-1.2,0.6-2.1,1.1
				c-1.4,0.4-2.9-0.1-4.3-0.9C1.8,444.1,1.2,442.6,0.7,441.2z M7,437c-0.5-0.7-1.1-1-1.7-0.6c-2,1.3-3.9,2.7-3.2,5.5
				c0.4,1.8,2.1,2.2,3.3,2.9c0.8,0,1.6,0,2.2,0c0.2-0.3,0.4-0.5,0.5-0.6C7.8,441.8,6.8,439.5,7,437z"/>
		</g>
	</g>
</g>
</svg>
