<svg xmlns="http://www.w3.org/2000/svg" viewBox="-181 304.9 233 233"><circle cx="-64.5" cy="421.4" r="116.1" fill="#fff"/><g fill="#c12f0f"><path d="M-27.6 373.1s-.1 0-.1-.1l-.1-.1v.1l.1.2.1-.1c.1.1.2 0 .2 0 0 .1-.1.1-.2 0zM-27.7 372.6c0-.4-.2-.6-.5-.6h-.2c.1-.1.2-.3.1-.4-.1-.2-.5-.3-.7-.4h-.1c.1 0 .1-.1.1-.1h.1l-.1-.1c-.2-.3-.3-.4-.4-.4h-.1c-.1 0-.1 0-.2.1-.1-.1 0-.2.1-.3h.1v-.1c-.1-.1-.3-.1-.6-.1s-.7 0-.9-.2v-.1l-.1.1c-.1-.1-.2-.2-.1-.3.1 0 .3.1.4.1.3.1.5.2.8.2h.2l-.1-.1c-.1-.1-.4-.2-.6-.4-.2-.1-.6-.3-.6-.4v-.1h.1v-.2h-.2-.2c-.3-.5-.4-.6-.6-.6h-.5c-.2 0-.4 0-.6-.1 0-.2.1-.2.3-.2.2 0 .5.1.7.2 0-.1 0-.1-.3-.6 0 0 0-.1-.1-.1h.2c0 .1.1.1.2.1h.1v-.1c0-.1-.1-.1-.2-.1 0-.1.1-.2 0-.4H-32.5c-.2 0-.3 0-.4-.1h-.1v.1c-.1-.2-.2-.3-.2-.4v-.1l-.3.4v-.2c.1-.1.1-.1-.1-.3.1 0 .1 0 .1-.1s0-.2-.1-.3c-.1-.1-.2-.1-.3-.2l-.1-.1h-.1l-.1-.2c-.1-.2-.2-.4 0-.7v-.1h-.1c-.2 0-.3.1-.5.2v-.1h.1l-.1-.1c-.2-.1-.8-.5-1.2-.6h.2l-.2-.1s-.4-.3-.5-.4h.1c.4.2.8.3 1.1.5h.1v-.1.1l.1.1c.1.1.3.3.6.3H-34.2l-.1-.1c-.2-.2-.5-.3-.8-.4l-.1-.1c-.6-.9-1.5-1.3-2.2-1.6-.2-.1-.4-.2-.6-.2 0-.2-.2-.3-.3-.3l-.2-.1v.1c-.3-.2-.5-.5-.7-.8h-.1c0 .1 0 .3-.1.4l-.1.1s-.1 0-.1-.1c.1-.1.2-.2.1-.3h-.2c-.1 0-.2-.1-.3-.2v-.2h.1v.1-.1s.1-.1.1-.2 0-.1-.1-.1v-.1V359.9h-.1c-.4 0-.8-.1-1.2-.1.1-.1.1-.2.2-.3-.1-.1-.4-.1-.9-.2-.1-.1-.3-.2-.4-.4-.7-.7-1.6-1.6-2.2-1.6-.1 0-.2 0-.3.1-.6-1.3-2.9-1.8-4.3-2.1-.2 0-.3-.1-.4-.1.1-.1.1-.1.1-.2s0-.2-.1-.3l-.1-.1v.1c0 .1-.1.1-.2.1-.1-.5-1.6-.6-2.1-.6h-.5c.1-.1.2-.1.3-.1.1 0 .2 0 .3-.1l.1-.1.1-.1-.2.1h-.1c-.2 0-.3-.1-.4-.2-.1-.1-.3-.2-.5-.2-.1 0-.2 0-.3.1v.1h.1v.1c-.7-.5-1.9-.9-3.1-1.2 1.6-.7 3-1.6 3.3-2.4.2-.2.4-.4.7-.5v.2h.1c.5-.1.8-.7 1-1.2.1-.2.2-.4.3-.5.3-.5.7-1.1 1.1-1.7 1-1.4 1.9-2.8 2.6-4.4h.1c.1-.8.4-1.7.6-2.5.4-1.4.9-2.7.5-4v-.1l-.1.1c-.6.5-1.2 1.2-1.2 2 .1.1.1.4 0 .8s-.3.6-.3.6v-.1l-.1.1c-.4.4-.7 2.1-.8 2.4h.1c.6.2.7.2.7.2v.5H-47.8v.1h-.1c0-.3 0-.5-.2-.5-.1 0-.2.3-.4.6h-.1c-.4.2-.4.6-.5.9-.1.2-.1.4-.2.6-.2 0-1.1 1-1.2 1.4v.2c-.1.1-.1.2-.2.2-.1.1-.1.1-.1.2v.5h-.1c-.1 0-.3-.1-.4-.1-.1 0-.1-.1-.2-.1h-.1l-.1.1c-.1.2-.2.4-.3.4 0 0-.1 0-.1-.1l-.1-.2-.1.2c-.2.6-.9.9-1.6 1.2-.5.2-.9.4-1.2.7l-.1.2h.1c-.2.2-.8.6-1.2.8 0 0 .1-.1.1-.2v-.1h-.1c-.2 0-.3.1-.4.1l.1-.2-.2.1c-.1.1-.2.1-.2.2-.1.1-.3.1-.5.2v.1-.1.1c0 .1-.1.1-.1.2l.1.1-.1.1c-.2.2-.4.3-.7.4 0-.1-.1-.1-.9-.1h-.4-.2c-.6.1-2.3.2-2.8.3v.1h.5c.1 0 .1.1.1.1 0 .1-.7.3-1.1.3h-.1v.1c-.2-.1-.4-.1-.6-.2h.1v-.1c-.1 0-.5-.2-.4-.3l.2-.1-.2-.1c-.4-.1-1-.2-1.5-.2s-1 0-1.2-.2c-.4-.2-.9-.3-1.3-.3-.5-.1-1-.1-1.4-.4H-69.2v-.1c0-.2-2.3-.9-2.3-.9h-.1v.2h-.1c-.2 0-.5-.2-.7-.4-.1-.1-.2-.3-.2-.5l.4.4.1.1.1.1-.1-.1c-.1-.2-.2-.4-.3-.5l.3.1h.1s0-.1-.1-.1v-.1c0-.1-.1-.1-.2-.1-.4-.4-1.2-1.2-1.3-1.2-.3-.3-.5-.4-.7-.6-.3-.3-.5-.5-1-.9-.2-.2-.3-.3-.3-.4l.3.3.1-.1c-.1-.4-.3-.5-.5-.7-.2-.2-.3-.3-.4-.6.1.1.5.3.6.3h-.2l.2.3.3.3c.2.4.4.6.8.9l.2.1-.1-.2c-.3-.7-.9-1.4-1.3-2.1l-.4-.5v.2c0 .1 0 .1-.1.2.2-.5-.3-1-.5-1.2l-.1-.1-.1-.1-.1-.1v.1c-.1-.1-.1-.2-.1-.4.2.2.4.4.6.7v.1h.1c.1-.1 0-.1-.5-1.2-.1-.3-.3-.5-.4-.8.1.2.2.4.4.4.1 0 .1 0 .2-.1-.3-.7-.4-1.2-.5-2h-.2c-.1-.3-.1-1 0-1.5v-.7l-.1-.2v.2h.1-.1c0 .2-.1.8-.1.9-.1-.6-.1-1.1-.1-1.7h-.1c-.1-.3 0-.5.2-.7 0 .1 0 .2.1.3.1.4.1.6.2.6.2-.3.4-.7.4-1.2v-.2l-.2.2c0-.1 0-.1.1-.2l-.1-.1c-.1.1-.1.2-.1.3 0 .1-.1.3-.2.4v-.3c0-.2-.1-.3 0-.5h.1c0-.2 0-.3.1-.5H-76.8v-.1c0-.3 0-.6.1-1 0-.2.1-.4.1-.6h-.1v.1c0-.3.1-1.1.5-1.4v-.1c0 .1 0 .3.1.3h.1l.1-.1v.1h.1c.1-.2.1-.4.1-.6 0-.3 0-.5.3-.8.1.1.1.1.2.1s.2-.1.2-.2.1-.1.1-.2l-.1-.1c.1-.2.2-.4.5-.7h-.1c.2-.2.3-.4.4-.4l.1-.1h-.1c-.1 0-.1-.1-.1-.1h-.1c.4-.6.9-1.4 1-1.4v.1c0 .2-.3.6-.5.8-.1.1-.2.2-.2.3l.1.1c.3-.3.6-.5.9-.8.5-.4 1-.9 1.4-1.3v-.1H-72c.1-.1.3-.2.5-.3.3-.1.6-.3.8-.7v-.1h-.1c-.1-.1-.2-.1-.2-.1s0-.1.3-.3c-.1.1-.2.2-.3.2l.1.1.4-.3s.1 0 .1-.1.1-.2.2-.3c0 0 .2-.1.3-.3.3-.3.8-.6 1-.7v-.1c.1 0 .2-.1.2-.1l.1.1H-68.3c-.2.2-.4.4-.7.4v.1c.3 0 .5-.2.7-.3.1-.1.3-.3.5-.3v.2h.1v-.1c.1 0 .2-.1.5-.1v-.1s.1-.2 1-.7l.2-.1h-.3c.1-.1.2-.2.3-.2.4-.1.7-.1.7-.1 0 .1-.1.2-.2.3-.2.1-.4.3-.2.6 0 0 .4-.2.6-.2.5-.2 1.3-.5 1.7-.6v.1h.4c.7 0 1.4-.1 1.5-.4v-.2h.3c.2 0 .4.1.6.1.1 0 .2.1.3.1h-.3v.1-.1.1h.1c.2 0 .4.1.6.2.2.1.2.1.3.1h.1c.7.3 3.5 1.2 4.1 1.2 0 0 .2 0 .2-.1-.2-.2-.7-.3-1.5-.5-.3-.1-.5-.1-.7-.2.1 0 .2 0 .2-.1.1 0 .1-.1.2-.1s.2 0 .3.1h.1v-.1c0-.1-.3-.3-.9-.7h.2c.5 0 1.3.2 1.9.5v.2l.2.1c.2.1.5.2.6.4v.1h.1s0-.1-.1-.1c-.1-.1-.2-.3-.4-.4.4.2 1 .6 1.3.8h-.5v.1l.2.1c-.2 0-.4.1-.6.1h-.2l.2.1c.7.4 1.9 1.4 2.3 2.1 0 .1 0 .2.2.3l.2.2-.1-.2c0-.1-.1-.2-.1-.2.1.2.3.3.4.4l.1-.1-.4-.4c.4.2.7.6.8.9h-.1s0-.1-.1-.1l-.1.1s0 .1.1.1l-.1.1c0 .1.1.1.1.2.1.2.2.3.3.4l-.1.1c.3.6.7.9 1.1 1.2.3.3.6.5.9.9l.1.2c-.1.1-.1.1-.1.2 0 .3.4.6.6.6h.1c.2.3.6 1 .8 1.4 0-.1-.1-.1-.1-.1l-.2-.1.1.2c.1.1.1.4.1.8.1.8.2 1.5.4 1.6l.2.1-.1-.2c-.1-.2-.1-.3-.1-.5l.1.1v.1-.1c.1.1.2.2.3.2h.1v-.1c0-.2-.1-.2-.2-.3-.1-.1-.1-.1-.1-.2.1 0 .2.2.3.3.1.2.2.3.3.3v.1c.1.4.2.7.3 1-.1 0-.1.1-.2.1s-.1 0-.2-.1l-.1-.1v.2c.1.2.2.6.2.8v.5s0 .2.1.2c0 0 .1 0 .1-.1.1.2.1.4.2.6h.1v-.7c.1 0 .1.1.2.1h.1v-.1c0-.1-.1-.2 0-.3 0 .1.1.2.2.3l.1.1v-.1-.4.1h.1v-.3c0 .1.1.1.1.1.1.3.2.5.1.8v.2l.1-.1.1-.1c.1 0 .1.1.3.1.2-.1-.1-1.2-.2-1.8h.1c0-.1 0-.2-.1-.2-.2-.9-.3-1.2-.3-1.4v-.1c-.1-.4-.4-.7-.7-1.1-.2-.2-.4-.4-.5-.6h-.1c-.1-.2-.2-.4-.2-.6l.3.3h.2c.1-.5-.4-1-.8-1.5s-.9-1-.9-1.5v-.1h-.2c-.2 0-.2-.2-.4-.4 0-.1-.1-.1-.1-.2l.2.2h.2c-.2-.3-.4-.6-.7-.9h.1c.2.3.6.7.7.8.1 0 .4.1.4.1l-.1-.1c.2.1.3.2.5.4l.1-.1c-.2-.3-.5-.5-.8-.7-.5-.3-.9-.6-1-1.3 0 0 .2.2.3.2.2.2.2.2.3.2h.1l-.1-.1c-.4-.4-.8-.7-1.2-1l-.9-.6H-50.2v-.1c-.2 0-1.2-.9-1.5-1.3.5.3.7.5.9.7l.4.4.1-.1c-.7-1-1.6-1.9-2.6-2.5-.4-.1-.8-.3-1.2-.3 0-.1.1-.2-.8-.8l-.1.1.1.1h-.1c-.3 0-.7-.1-.9-.1.1 0 .3 0 .4.1H-55.2v-.1c0-.1-.4-.3-.5-.3h-.1c-.1 0-.1-.1-.2-.1-.5-.3-1-.5-1.5-.6.2-1-.7-1.8-.8-2.5-.4.1-.7.5-.6.7-.1 0-.1-.1-.2-.1.4.3-1.2.4-1 .9-.1.1-1.1-1-1.2-.6 0-.5-.5-.2-.5.3 0 .1.8.1.3.5-.1.1-.1.2-.1.4h-.1v-.2l-.1-.1c-.1-.1-.4-.1-.6-.2.1-.1.1-.6.3-.6-.2-.5-.5.3-.6-.2-.2 0 .2.6.2.8h-.1c-.4.1 0 .4.2.5h-.1c-.1 0-.2 0-.3.1l.1-.1v-.1h-.1c-.1 0-.3 0-.6.1v-.1c0 .1-.1.1-.2.2-.4.1-.8.2-1.3.3-.3-.1-.5-.2-.4-.8-.4.3-2.2.2-1.8.9-1.4.5-3.1 1.7-3.3 2.1v.1h.1c.2 0 .3 0 .5-.1-.1.1-.2.2-.2.3-.1.1-.2.2-.3.4-.2.1-.4.2-.6.4 0 0-.1 0-.1.1.1-.1.2-.3.3-.3v-.2H-71c0-.1.2-.4.3-.5.1-.1.1-.2.2-.2v-.3c-.4.3-.8.6-1.2.8-.7.4-1.4.8-1.9 1.4-.9.9-1.6 1.8-2.4 2.7-.3.4-.6.7-.9 1.1l-.1-.1c-1.3 1.5-2.3 3.6-2.9 5.9-.5 2-.7 3.7-.6 4.9 0 .3.2 1.1.4 1.9.2.7.3 1.3.4 1.6V341.1l.1-.2v-.1c0-.1.1-.1.1-.2.1.3.1.5.1.6 0 .2-.1.3 0 .6 0 0-.1-.1-.1-.2-.1-.1-.2-.2-.3-.2h-.1v.1l.3.6c.2.4.4.9.6 1.4 0-.1-.1-.1-.1-.2-.1-.2-.3-.4-.4-.7h-.2c1.3 2.9 3.9 7.8 7.1 8.6v-.1c-.1-.1-.3-.2-.4-.3.2 0 .9.5 1 .6h-.2v.1c0 .1 0 .2.2.3.3.3 1.2.7 1.7.9v.1c.4.2.8.3 1.3.4h-.1c-.2 0-.7.6-.7.9 0 .1 0 .1.1.1-.1.1-.2.1-.4.1-.1 0-.2 0-.3.1-.1.1-.1.1 0 .3 0 0 .1 0 .1.1-.1 0-.2 0-.3.1l.1-.1-.1-.1h-.1l-.3.3s-.1 0-.1.1h-.1.1c-.2.1-.5.2-.7.2h-.1l.1.2v.1c-.1 0-.2-.1-.2-.2.1-.2.2-.2.4-.2h.1v.1l.1-.1c.2-.1.2-.2.2-.3 0-.1 0-.1.1-.3v-.1l-.2-.2h-.1V355.1c-.2-.1-.4-.1-.5-.1h-.2l.3-.3-.1-.1c-.2.1-.4.2-.7.3v-.4c.1 0 .2-.1.2-.2s0-.2-.1-.2c-.1-.1-.1-.1 0-.2h.1l-.1-.1s-.1 0-.1.1c-.2.1-.3.1-.5.2h-.1v-.1l-.1.1-.3.3c.2.6-.3.9-.9 1.2-.3.2-.7.4-.9.7 0-.1-.1-.3-.1-.4-.1-.4-.1-.6-.1-.7v-.1h-.1c-.4.2-.3.5-.3.6l-.3-.3-.1-.1c-.1 0-.2.1-.3.3-.3.3-.8.7-1.1.7-.1 0-.1-.1-.2-.1h-.1l.1.1c.1.1.1.1.2.1-.1.1-.2.2-.4.2.2-.1.2-.1.2-.2l-.1-.1c-.1 0-.2-.1-.2-.2v-.1h-.1c-.4 0-.4.3-.5.5 0 .2-.1.3-.2.3.1-.2.1-.3 0-.5v-.1l-.1.1c-.2.4-1 1-1.7 1h-.3c-.3.2-.6.4-.9.5-.3.1-.7.3-1 .6l-.1.1c0 .1 0 .1.1.2l.1.1v.1s-.1-.1-.2-.1c-.9 0-4.3 1.8-4.7 2.3l-.2.2h-.2c-.1 0-.1.1-.2.1v.1l.2-.1c-.2.1-.4.3-.6.4-.3.2-.7.4-1 .8-.1.1-.3.1-.5.2s-.4.1-.7.3c-.1.2-.2.4-.2.6 0-.1-.1-.1-.2-.1h-.2c-.1 0-.1.1-.1.2v.1c0 .1-.1.2-.2.3 0-.1-.1-.2-.2-.3-.2 0-.2.3-.2.5s.1.4.2.4c-.1.2-.3.4-.5.6l-.1.1.1.1.1-.1h.1c.1 0 .1 0 .2.1-.2.3-.3.6-.3.9-.1-.1-.7-.8-.7-.9v-.1l-.1.1c-.3.2-.5.7-.6 1.1-.2.5-.3.9-.8 1.1v.1h.1c0 .1-.1.2-.1.3-.1 0-.3-.1-.4-.2l-.1.1c.1.3 0 .5-.1.8-.1.1-.2.4-.1.7h-.2c0-.1.1-.3.2-.4.1-.2.1-.2.1-.3v-.1h-.1l-.2.2c-.3.3-.7.6-.3 1.3h-.2c-.1 0-.2 0-.3-.1l-.1-.1v.1c-.1.1-.1.3 0 .4.1.1.2.2.3.2.1 0 .2.1.2.1s0 .1-.1.2c0 0-.1-.1-.2-.1-.1-.1-.3-.2-.4-.2-.1 0-.1 0-.2.1-.1.2 0 .3.2.4.1.1.2.2.2.3-.1-.2-.2-.2-.4-.2h-.1c-.3.2-.4.5-.4.7h-.1V372.4c-.2.5-.4 1-1 1.2h-.1v.1c0 .1.1.1.1.2h.1c.3-.1.5-.3.6-.6.1.1.2.1.3.1h.3c.1 0 .2 0 .3.1v.1h.1c.1-.1.3-.2.6-.4.9-.6 2.2-1.4 2.4-2.5-.1-.1-.1-.1-.1-.2s.3-.2.6-.3c.4-.1.8-.3.9-.6h.1c.4 0 2.2-2.3 2.4-2.7l.3-.2c.5-.5 1.5-1.4 2.2-1.8.4-.2.7-.4 1.1-.5.4-.2.8-.3 1.1-.6.8-.4.9-.6.9-.7 0-.1-.1-.1-.2-.2 0 0-.1 0-.1-.1 0 0 0-.1.3-.3h0v-.2l.6-.3c.1-.1.2-.1.3-.1-.3.4-.3.4-.4.5l-.1.1.1.1.2-.2c.1-.1.2-.3.4-.3 0 0 0 .1-.1.1v.1l.5.1v-.1c0-.2.1-.2.2-.3.1-.1.2-.1.3-.2.1-.1 3.3-1.6 3.9-1.8v.2l.1.1c.2 0 .3 0 .3-.1.1-.2-.1-.5-.3-.9.2 0 .4-.2.5-.3l.1-.1c.1 0 .2.1.2.1v.3c-.1 0-.2.1-.2.1l-.2.6.2-.1c.2-.1.4-.3.6-.5v-.1h-.1-.1c.4-.2 1.4-.6 1.5-.6 0 .1 0 .2-.1.3v.2h.2c.1 0 .4-.1.6-.1.7-.1 1.2-.2 1.4-.3v.1h.1l.2-.3h.2c.6 0 1.4-.5 2-.9.2-.1.3-.2.4-.3.9-.5 2.6-.5 4.2-.5 1.2 0 2.3 0 3.1-.2h.6c2.1 0 5 .3 7.4.8.2 0 .5.1 1 .1.7.1 1.9.2 2 .3l-.1.1h-.2v.1H-52.6c.4.2.8.3 1.2.3h.1l-.2-.3h.2c.1 0 .1 0 .1.1.1.1-.1.4-.1.4l.1.1c.1 0 .2-.1.3-.1.1 0 .2.1.3.1.1.1.2.1.4.1.1 0 .3 0 .5-.1.4-.2.7-.3 1-.3.1 0 .2 0 .3.1l-.1.1c0 .1-.1.1-.1.1h-.1l-.1.1c.2.2.4.3.6.3.1 0 .3 0 .4-.1.1 0 .2-.1.2-.1.1.2.1.3.2.5h-.3v.1c0 .1.1.2.2.3h-.7c-.1 0-.2 0-.2.1s.4.1.4.1h.4c.1 0 .2 0 .3-.1.3.2.8.4 1.1.4h.1l-.1-.1-.1-.1h.1c.1 0 .2 0 .3-.2v-.1l-.5-.1c.4.1.7.2 1.1.2v-.1c-.1 0-.1 0 0-.1l.1-.1c.1.2.2.5.3.7v.1h-.6c-.3 0-1.1 0-1.2-.1l-.1-.1.1.1c.2.3.4.4.6.4.2 0 .3-.1.4-.2.1-.1.1-.1.2-.1h.2c0 .1-.1.1 0 .2 0 .1.1.2.2.2h.1v-.1s.1-.1.3-.1c.2 0 .4 0 .5.1l.2.1-.1-.2c-.2-.2-.3-.5-.4-.7l.1-.1c.2 0 .3.4.5.7.2.4.3.6.4.6h.1c.2.1.3.1.5.2.8.2 1.4.4 1.2 1.4.3.1.6.2.9.2.3.1.7.1 1.1.3l.1.1-.1-.2c.1 0 .1 0 .2.1.1 0 .2.1.3.1v.1c0 .1.3.3.4.3.2.3.5.5.8.8.1.1.2.1.3.2v.1c.4.3.7.6.9 1.2v.1h.1v.1h.8v-.1c0-.1 0-.1-.6-.1h.3c.2 0 .5 0 .6.4-.1.3 0 .4 0 .4 0 .1-.1.2-.1.3l.1.1s0-.1.1-.1v-.1-.2c0-.2.1-.3 0-.5.1-.1.1-.1.1-.2v.5H-35.1c.3 0 .6-.1.9-.2 0 .2-.1.4-.3.5l-.1.1.1.1c.1.1.1.1.2.1 0 0 0 .1-.1.2v.1l.1.1s-.1 0-.1.1l-.1.1h-.1l-.1-.1v.2c0 .2.1.4.2.6l.1.1.1-.1c0-.1.1-.2.1-.2-.1.2 0 .3.1.3l.1.1v.1l.1-.1v-.1s0-.1-.1-.2h.1s.1 0 .1.1v.1l.1-.1c.1-.1.1-.1.1-.2 0 0 0-.1-.1-.1h.1c.1 0 .2.1.3.2-.1 0-.1.1-.1.1v.3l.1.1h.1c.2 0 .3.2.4.4l.1.1.1-.1c-.1-.1-.1-.3 0-.3l.1-.1c.1 0 .2.1.4.2l.1-.1v-.1c.1 0 .2.1.2.2s-.1.2-.4.3v.1c.1 0 .5.3.7.5.1.1.3.2.3.3v.1h-.6v.1c.1.2.3.2.4.3.1 0 .2 0 .2.2l-.4.1.2.1.3.3v.1l.1-.1c.1-.1.2-.1.4-.2h.1c0 .1.1.5.1.6 0 0 0 .1.1.2s.1.1.3.1c.1 0 .2 0 .4-.1l.1-.1v-.4c-.3-.1-.6-.3-.7-.6l-.1-.2c.2-.1.3-.1.3-.2.3 0 .5.1.7.3-.1.1-.2.2-.3.2h-.2l-.2-.1.1.2c.1.1.2.2.3.2.2 0 .4-.1.6-.2v.1c0 .1-.1.2-.1.4l-.1-.1v.2c.1.1.1.1.2.1H-28.7s.1 0 .2.1v.1l-.1.1h.2c.1 0 .2.1.3.2.1 0 .2.2.4.2zm-7.1-8.5zM-60.3 321c0-.1 0-.1 0 0zm15 13.7c0-.2-.1-.4-.1-.6v-.1s0 .1.1.2c0 .2.1.3.1.4l-.1.1zm-.2-1.6c.2.2.3.6.4.8-.1-.1-.1-.1-.2-.1v-.1l-.1.1c-.1-.2-.1-.4-.1-.7zm-1.8-3.1c.6.4 1.1.9 1.3 1.8h.1v-.1c.1.3 0 .7-.1 1-.1.2-.1.2-.2.2 0 0-.1 0-.1-.1l-.1-.1v-.1c0-.1-.2-.4-.5-.8l-.1-.1h.1c-.1-.3-.2-.6-.2-.9-.1-.2-.1-.5-.2-.8zm-.2-.2c0 .1-.1.2-.1.2s-.1-.1-.3-.4c.2.1.3.1.4.2zm-1.2-1.3s.1 0 .1.1c-.1 0-.2 0-.3.1v-.2h.2zm-.9-3.5c.3.3.6.6.7.8-.2-.2-.4-.3-.6-.5l-.1-.1.1.2c.1.2.1.4.2.6-.1-.1-.2-.2-.2-.4-.1-.1-.1-.3-.2-.4-.1 0 0-.1.1-.2zm-.1-.1c-.3-.2-.5-.3-.7-.5.1 0 .4.2.7.5zm-2.3-.4c.1 0 .1 0 .2-.1h.1l-.2-.2.3.3c-.1 0-.4.1-.4 0 0 0-.1 0 0 0-.1 0 0 0 0 0zm-5.6-6l.2.2h-.4l.2-.2zm-.8-.1s0 .1 0 0c0 .1-.1.1 0 0-.1.1-.1 0 0 0zm-.1.2h.2s0 .1.1.1c-.1 0-.2 0-.3-.1 0 .1 0 0 0 0-.1 0 0 0 0 0zm-7.7.2c.1 0 .2.1.3.1-.2 0-.3.1-.4.1v-.1c-.1 0-.1-.1.1-.1-.1.1-.1.1-.1.2 0-.1 0-.1.1-.2zm-.2-.4s0 .1.1.1h-.2l.1-.1zm-.3.6s0 .1 0 0c0 .1 0 .1 0 0-.1.1 0 .1 0 0zm-2.5 1.5c.3-.2.6-.4.9-.4-.1.1-.3.3-.3.4v.1h.1c-.2.2-.9.6-1 .6.2-.2.3-.4.5-.5l-.1-.1c-.2.1-.4.1-.5.2.2-.2.3-.3.4-.3zm-1.5.9zm-3.9 6.9s0 .1 0 0c0 .1-.1.2-.1.2h.1-.1l.1-.2zm38.7 36s.1 0 0 0c.1-.1.1-.1.1-.2.1.2.1.3.1.3s-.1-.1-.2-.1zm1.7 1zm.3.3c0 .1-.1.2-.1.3 0-.1-.1-.2-.1-.4.1 0 .1 0 .2.1zm.2.1c-.1 0-.1 0-.1-.1l.1.1zm-6.9-3.3s0 .1.1.1c-.1 0-.2-.1-.1-.1zm.1 0l.4.4c-.1-.1-.2-.1-.3-.2h-.1v-.2zm-31.2-7l.1-.1H-71.3v.1h-.4zm2.8-.7c-.1-.1-.1-.2-.1-.2 0-.3.5-.7 1-1 .2 0 .4.1.7.1-.5.2-1 .5-1.6 1.1zm-1.2.1zm0 0zm.7-.1c0-.1-.1-.1-.2-.1 0-.1 0-.1 0 0h-.2l.2-.2c.1-.1.1-.2.1-.2.2.1.3.3.3.5v.1c-.3 0-.3.1-.3.1 0 .1.1.1.2.1v.1c-.1.1-.3.2-.5.2-.3 0-.6-.1-.7-.2l.4-.2v.1l.7-.3zm-.7 0c-.1 0-.1 0 0 0-.1 0-.1 0 0 0-.1 0-.1 0 0 0zm1.2-1.6l-.3.3.2-.3h.1zm-4.1.6c.2.1.3.3.2.5h-.3c0-.2 0-.4.1-.5zm-12.1 9.3c0-.2.1-.3.2-.4h.2c-.1.1-.1.2-.2.2 0 .1-.1.1-.2.2zm-6.5 1.4c-.2-.1-.1-.2 0-.3.1-.1.1-.2.1-.3h.1v-.1h-.1c.1 0 .2 0 .2-.1 0 .4-.1.6-.3.8zm8.3-2.2c-.1-.1-.1-.2-.1-.2.1 0 .2-.1.2-.1 0 .1-.1.2-.1.3zm49.1 5.9c0-.1.1-.2.1-.2v-.2l.4.4h-.1l.1.1h-.1v.1-.1h-.1c0-.1-.1-.1-.3-.1zm.4.1z"/><path d="M-28.3 372.5c-.2-.4.1.1 0 0zM-28.6 372.4l-.1.1.4.3v-.2s-.2-.1-.3-.2zM-47.7 359.3c-.2-.3-.2-.1 0 0zM-76.2 359c-.2 0-.4.2-.4.4v.1l.5-.2c0-.3 0-.3-.1-.3zM-29.1 370.3c.1-.2.1-.3 0-.3h-.1s-.1.2 0 .3h.1zM-31.6 367c.1 0 .1-.1.1-.2s-.1-.3-.2-.3h-.2l.3.5zM-32.3 369.2c-.1-.1-.1-.1-.2-.1h-.1v.4-.1H-32.3c.2.1.2 0 0-.2zM-32.7 365.9c.1.1.1.2.2.2s.1 0 .2-.1h-.2l-.2-.1c.1-.1 0-.2-.1-.2h-.1l-.2.1.4.1c-.1-.1-.1-.1 0 0zM-34.8 366.8l-.2-.1v.1c-.1.1-.1.2-.1.2v.1s.3-.1.3-.2c.1 0 .1-.1 0-.1zM-35.9 366.5H-36.2c-.1.1-.1.2 0 .4h.1c.2 0 .4-.1.4-.4l-.1-.1-.1.1zM-40.6 363.2v.1c.1 0 .2.1.3.2.2.1.3.2.4.2.1 0 .1 0 .1-.1-.1-.3-.7-.4-.8-.4zM-49.4 358.8c-.1 0-.2 0-.2.1v.1l.1.1h.1c.1 0 .1 0 .2-.2l-.2-.1zM-70.3 353.7c-.2-.1-.2-.1-.3 0l-.1.1h.2c.1 0 .2 0 .2-.1zM-70.3 355c.1.2.2.2.2.2.1 0 .1 0 .2-.1.1 0 .1-.1.2-.1h.1v-.1h-.2c-.2 0-.3 0-.5.1zM-70.8 353.2c-.1 0-.3.1-.3.2h.1l.1-.1h.2l-.1-.1c.1 0 .1 0 0 0zM-72.3 354.4l.1-.1c.6-.3.8-.5 1-1.1l.1-.2-.2.1c-.2.1-.3.2-.3.4h-.1c-.2-.1-.3-.2-.4-.2h-.1c-.1.1 0 .2 0 .3v.5l-.1.3zM-73.8 354.6l.1-.1-.1-.1-.4.2v.1c.2 0 .3 0 .4-.1zM-74 354.4c-.7.3-.1 0 0 0zM-74.6 354.4l.1.1c.3-.2.3-.2.2-.3l-.3.2zM-75.4 354.7c.1 0 .2.1.3.1.1 0 .1 0 .1-.1V354.4l-.1.1c-.1.1-.1.1-.2.1H-75.6v.2l.2-.1zM-77 359.4c-.1.1-.1.2 0 .3l.1.1v-.1-.2c-.1 0-.1-.1-.1-.1zM-60.4 317.1v-.1c0-.1-.1-.2-.3-.2 0 0 .1.4.3.3zM-63.3 318s0 .1.1.1c0 0 0-.1-.1-.1zM-62.7 317.8v-.2c0-.2-.1-.3-.2-.4 0 0 0 .6.2.6zM-63.3 317.1c-.1 0-.2.3-.2.4.1 0 .2-.2.2-.4zM-63.5 317.1c-.1 0-.1.1 0 0zM-63.6 318c.1 0 0-.3 0-.2 0 .1-.1.3 0 .2zM-59.6 316.6c.1.1 0 0 0 0zM-59.6 316.6s.3-.3 0 0zM-59.7 316.5c-.2-.1-.4-.1-.6 0h-.1v.1c.1.6.5.3.7-.1zM-58.1 316.2c0-.1-.2 0 0 0zM-45.9 331.9v.1c.1 0 0-.1 0-.1zM-45.9 331.9s-.1-.2 0 0zM-56.2 332.4l.1-.1c.1-.1.1-.1.1-.2l-.1-.1c-.1 0-.3.1-.3.2 0 .2.1.2.2.2z"/><path d="M-56.5 332.2v.2c0 .1 0 .1-.1.2l.1.1c.2-.1.2-.3.2-.3l-.2-.2zM-59.1 332.3c-.1.1.1.1 0 0z"/><path d="M-59 331.8l.1.1c-.1.1-.1.3-.1.4v.1l.1.1h.1c.2 0 .9-.1 1.5-.2.4 0 .7-.1.8-.1h.1v-.1c0-.4 0-.5-.1-.5.1-.1.1-.2.2-.2s.1-.1.2-.1v.6l.1-.1s0-.1.1-.1c.1.2.2.3.3.5 0 .2 0 .4.1.8v.1h.2c.1 0 .1.1.2.1h.1v-.1-.2s0-.1-.1-.1h.1v-.1c0-.1 0-.3-.1-.5h.1c.1 0 .2.1.2.1.2 0 .4-.1.5-.3.1-.2 0-.4-.5-.7v-.1c-.1-.1-.3-.1-.5-.2-.4-.1-.9-.2-1-.5-.1-.2 0-.5.3-.8l-.1-.1-.4.4-.5.5v-.1h-.1c-.1.1-.8.4-.9.5-.2.1-.8.9-.7 1.1-.3-.5-.4-.4-.3-.2zm2.1-.8c0 .1.1.3.1.7 0-.3 0-.3-.1-.5v-.2zM-58.9 332.6c-.1 0-.1 0 0 0-.3.1-.1.1 0 0z"/><path d="M-57.1 332.9c.1 0 .2-.4.2-.4h-.1l-.1.4zM-59 332.8c-.3.2-.1.1 0 0zM-59.2 333c.3-.1.1 0 0 0zM-68.1 333.6c.1-.1.1 0 0 0zM-69.6 332.3h-.7v.1c0 .1 0 .1 1.1.1h-.2c.1-.1-.2 0-.1 0h-.1v.1h.4-.1v.2h.4v.1c-.1 0-.1 0-.1.1-.1 0-.1 0-.1.1v.1h.5-.1.1-.1v.1s.2 0 .3-.1c0 0 .1 0 0 0h.2l.2-.1v-.1h-.1v-.1c.1 0 .2 0 .2-.1v-.1h.1c.1 0 .2 0 .2-.1s-.1-.1-.1-.1h-.1v-.1h.2v-.1h-.1l.1-.1.1-.1h-.2.1v-.2-.2H-67.3v-.1h.1-.1s.1 0 .1-.1v-.1h-.2H-67.1l-.1-.1h-.1.1v-.2h-.2v-.1c0-.1-.1-.1-.1-.1l.1-.1c.1-.1.1-.1.1-.2h.2v-.1h-.2-.1s-.1 0-.1-.1c0 0-.1 0-.2-.1h-.2v-.1H-68.8v.1c-.1 0-.2 0-.3.1l-.1.1h.2v.1h.1s-.1.1-.1.2l-.1.1h-.2l.1.1h-.3l.1.1V331.4h.4s-.1 0-.1.1h-.1.1c-.1 0-.1.1-.2.1h-.2v.1s0 .1.1.1c0 0 .1.1.2.1 0 0-.1 0-.1.1v.1c0 .1-.1.3-.1.4 0 .2 0 .3.1.4-.2-.7-.2-.6-.3-.6zm2.2-.8zm.1 0zm-.9 2.1zm.9-2.3zM-56.3 342.2c.7-.3 1.1-.4 1.2-.5l1.2-1.2c.7-.6 1.4-1.2 1.8-2.2.1-.2.2-.9.2-1.6 0-.4.1-.8.1-.8l-.1-.1c-.5.3-.8.9-1.2 1.5-.3.5-.7 1-1.1 1.4-1.2 1.1-2.4 1.8-4 2.5-.3.1-.7.2-1 .3-.3.1-.7.2-1 .3-.2.1-.5.1-.9.1h-1c-.4 0-.8 0-1.1.3-.1-.1-.3-.1-.4-.1-.2 0-.5.1-.8.1-.3.1-.6.1-.9.1-.2 0-.4 0-.6-.1-.4-.2-1-.4-1.5-.5l-1.2-.3v.1c-.6-.3-2.3-1.2-2.4-1.3l-.1.1c0 .1.1.1.1.2-.1-.1-.1-.2-.1-.2.1-.1 0-.2-.1-.3v-.1h.2l-.2-.1h-.1l-.1-.1v.2h-.4v.1h-.1c-.2 0-.2 0-.3.1v.3l.1.2v-.1c.1.1.3.4.4.5 0 0-.1 0-.1.1 0 .3.5.6.8.8.5.3.8.4.9.5H-70.4l.1.1c.2.1.6.3 1.1.6.4.2.9.4 1.2.6-.2-.1-.4-.1-.7-.2l-.1.1c.6.4 1.1.5 1.7.5.4 0 .7.1 1 .2.2.1.5.2.6.2h.1v-.1c1.1-.2 2.2-.2 3.3-.3 1.1 0 2.3-.1 3.5-.3v-.1c.2-.1.5-.3.7-.4l.1-.1h-.1c.1-.4 1-.8 1.6-1z"/></g><g fill="#008ccb"><path d="M-116.5 429.1c0 .1.1.3.2.3h.1v-.2l-.1-.1h-.2zM-115.8 429.4c-.1 0-.2-.1-.2-.1-.1 0-.1 0-.1.1l-.1.1.2-.1h.2zM-115.6 431.9c-.1 0-.1 0-.1.1h-.1v.1h.1s.1 0 .1-.1c.1.1.1 0 0-.1z"/><path d="M-116.2 429.6l-.1-.2c-.4.1-.4.1-.5.2-.1 0-.2-.1-.3-.2l-.1-.1c.1 0 .3 0 .4-.1l.1-.1h-.2c.1-.1.2-.2.5-.6v-.1l-.1-.1v-.1l-.1.1v.2H-116.9c0-.1-.1-.5-.3-.7l-.1-.1c-.1 0-.3.2-.3.7.1.1 0 .9-.3 1.3-.1.1-.1.2-.2.2 0 0-.2-.1-.4-.6h-.1c.1.4.3.8.4 1.1h-.1c-.1 0-.1.1-.1.1 0 .3.5.7.6.7 0 .1-.1.1-.2.1h-.1v.1c.2.5 1 .7 1.5.7.2 0 .4 0 .4-.1 0 .1 0 0 0 0h.2c.1 0 .3-.1.4-.1.1 0 .1-.1.2-.1h.1c-.1-.2-.3-.8-.9-2.2zm-1 .5c-.1 0-.1-.1-.2-.1.2-.1.4-.1.5-.2h.1c-.2.1-.2.2-.4.3z"/><path d="M-115.1 431.9c0-.1 0-.2-.1-.3l-.1.1v.2l-.1.1v.2c.2-.2.3-.2.3-.3zM-115.5 429.7c-.1-.1-.2-.1-.3-.1-.1 0-.2 0-.2.2h.1v.1h.1l.4-.1-.1-.1zM-114.9 431.6c0 .1.2.3 0 0zM-114.5 431.7c-.3-.2-.1 0 0 0zM-114.3 431.4c.1.1.2-.1 0 0zM-98.9 374.6l.1-.2c-.2-.2-.1.1-.1.2zM-98.9 374.6c-.1.1 0 .1 0 0zM-99.4 375.8l.3-.4h-.1c-.1 0-.2.2-.2.2v.2z"/><path d="M-99.1 375.8l.2-.5h-.2c0 .1-.1.3 0 .5zM-102.2 399.2c.1 0 .2-.2.2-.2h-.1l-.1.2c-.1 0 0 0 0 0zM-102.4 394.3c.1-.1 0-.2 0 0zM-96.9 420c0-.3-.1-.3 0 0zM-88.8 424.5c.1.2.3.2.4.2h.2l-.4-.3c-.2 0-.2.1-.2.1z"/><path d="M-64.7 437.1c-.2-.2-.4-.3-.6-.3h-.2c0-.1-.1-.3-.1-.4-.1-.1-.2-.3-.1-.4v-.1h-.1l-.6-.3c-.9-.4-1.8-.8-2.8-.8-.2 0-.5 0-.7.1-.1 0-.3-.2-.5-.4-.3-.3-.7-.6-1-.6v-.1c-.1-.5-1.1-.5-2-.5-.5 0-1.1 0-1.2-.1-.3-.4-1-.6-1.8-.8-.6-.1-1.1-.3-1.6-.6-.4-.2-.7-.5-1-.7-.3-.3-.7-.5-1-.7-.7-.4-.9-.5-1-.5h-.1V430.2c-.1 0-.2 0-.4-.1v.1h-.1.1v.1h-.1c-.1-.1-.3-.2-.6-.4-.1-.1-.2-.1-.3-.2.5.1.5.1.6.1h.2v-.1c-.1 0-.2-.1-.3-.1-.2 0-.3-.1-.5-.2h-.1v.1c0 .1-.1.1-.1.1l-.2-.2h.5l.1-.1-.1-.4H-82.7c-.1 0-.1 0-.2-.1-.1 0-.2-.1-.3-.1-.1-.1-3-2.2-3.5-2.7l.2-.2c-.1-.2-.2-.3-.3-.3-.2 0-.4.3-.6.7-.1-.2-.4-.3-.6-.3h-.1v-.2c0-.1.1-.1.3-.1l.1.1.6-.1-.2-.1c-.2-.1-.5-.2-.8-.3h-.1v.2c-.3-.2-1-.8-1.2-1.1l.3-.1h.1-.1v-.1c-.1-.1-.2-.3-.4-.5-.5-.6-.8-1-1-1.1.1 0 .1 0 .1-.1v-.1h-.1-.3c-.2-.3-1.5-1.7-2-1.7-.6 0-2-2.4-2.9-3.9-.4-.7-.7-1.2-.9-1.5-1.3-1.8-2.4-4.6-3.3-7.1-.1-.1-.1-.4-.2-.8-.3-1.4-.7-2.7-1.1-2.7-.2 0-.3-.1-.3-.2s.1-.2.2-.2.1 0 .2.1c0 .1 0 .1.1.2h.1c0-.1 0-.2-.1-.2 0-.4-.1-.8-.3-1.2l-.1-.1-.2.4c.1-.4.1-.5.1-.6 0-.1.2-.1.4-.1l.1-.1c-.3-.3-.3-.4-.3-.6 0-.2 0-.5-.4-.8-.4-.3-.7-.6-.8-1.1h.1c.1 0 .1 0 .1.2h.1c.2-.6-.1-.8-.3-1l-.2-.2c.1-.1.2-.3.3-.4l.2.2.1-.1c.1-.1.1-.2.2-.3.1.2.1.4.2.4.2.4.2.4.3.4h.1v-.1s-.1-.3-.1-.4v-.2h-.1c0-.2-.1-.3-.3-.4.1-.4 0-.9-.1-1.2l-.1-.1-.1.1-.1.1-.1-.1c0-.1-.1-.2-.3-.2h-.1l.1.5c-.1-.4-.2-.7-.3-1.1h-.1v.1h-.1c.1-.2.3-.5.4-.8h.2c0 .1.1.2.2.4 0 .1 0 .1.1.2.1.3.5 1 .5 1.1h.1v0h.1c.3-.8 0-.9-.3-1-.1 0-.1-.1-.2-.1l-.1-.1v-.1c.1 0 .1 0 .2-.1s.1-.1.1-.3l-.1-.1-.1.1c-.1 0-.3-.5-.4-.7v-.2l-.1.4c-.1.1-.1.3-.2.4 0-.2 0-.4.1-.7.1-1 .2-2.5.8-2.8 0-.3-.1-.6-.2-.9-.1-.3-.2-.7-.2-1.1v-.2l-.1.1v-.5c.1 0 .2 0 .2-.3v-.3c.2-.3.2-.7.3-1.1 0-.1 0-.2.1-.4.1-.5.2-1 .6-1.3h.1-.1.1c0-.2-.1-.4-.2-.5l-.3-.2v-.1l-.1.1c.1.2.2.3.2.4-.2-.2-.3-.4-.3-.6 0-.1 0-.3.1-.3.3-.1.4-.1.4-.2h.3v-.1.1-.1H-101.2c-.2 0-.3.1-.4.2h-.2s.1-.1.4-.2h.1v-.1c-.1-.3-.4-.6-.7-.8.1 0 .2-.1.3-.1.1 0 .2 0 .3.1h.1v-.1-.2H-101v-.1-.2c0 .1.1.1.1.1.1 0 .2.1.1.1l-.1.2.1-.1c.2-.1.3-.3.4-.4v-.1h-.1c-.2 0-.4.1-.5.1h-.1l-.1.1c0-.2.1-.4.2-.5h.1v-.1l.1.1s0 .1.1.1l-.1.1s0 .1.1.1c.2 0 .2-.2.2-.3v-.2l-.1-.1v.1l-.1.1v-.1s0-.1.1-.2l.1-.1h-.2c-.1 0-.2 0-.2.1-.1-.2-.1-.3-.1-.5h.1c.3 0 .3-.2.3-.5 0-.1 0-.3.1-.4l-.1-.1c-.1.1-.2.2-.3.2-.1 0-.1 0-.1-.1-.1-.1 0-.3 0-.5l-.1-.1-.1.1v-.2s.1-.1.2-.1.2.1.3.2l.1-.1c0-.1.1-.5.1-.9 0-.2.1-.4.1-.5h.1s.1.2.1.3c0 .1 0 .2.1.3.2-.2.1-.3.1-.4 0-.1-.1-.2.1-.3l.2.3v-.2c0-.1.1-.3.1-.4l.1-.1h-.1c-.1 0-.2-.2-.4-.3 0 0-.1 0-.1-.1l.5-.4c.1 0 .1-.1.1-.2.1-.1 0-.4-.3-.7l.3.5v.2c0 .3 0 .6-.2.9l-.1.2c-.1-.1-.2-.2-.3-.2-.1-.3-.1-.5 0-.7.2 0 .3.1.3.3v.2l.1-.2c.2-.4-.2-.6-.4-.8h-.1.2c.1 0 .2-.1.4-.1v.1l.2-.1c.1-.2-.1-.3-.1-.4-.1-.1-.2-.1-.1-.3v-.1l.1.1v-.2c0-.1 0-.3.1-.4.1-.2.2-.3 0-.5-.2.1-.3.3-.3.6 0 .2.1.3.2.4H-99.8c-.1 0-.2 0-.3.1-.1.2-.1.6 0 .7v.1c-.1 0-.1-.1-.1-.1l-.1-.1-.1.1c-.2.4-.2.5-.1.6l.2.2c0 .1-.1.1-.2.1 0 0-.1 0-.1-.1h-.1v.1c-.1.1 0 .3.1.6s.3.6.3.9h-.1.1c0 .1-.1.3-.2.3 0 0-.1-.3-.1-.5 0-.3-.1-.7-.3-.9l-.1-.1v.1c0 .2 0 .5-.1.8v.7H-101.4l.1.1v.1s0 .1.1.2c-.4.6-.4.7-.2 1l.4.8h-.1c-.2 0-.4-.3-.4-.9v-.1c-.1 0-.1 0-.4.6v.1c0-.1 0-.2-.1-.2.1 0 .1-.1 0-.3v-.1l-.1.1c-.1.1-.1.1-.1.2-.1 0-.2.1-.4.2 0 0 0 .1.1.2s.2.3.2.5v.1h.1c-.1.2-.2.3-.3.4l-.1.1.5.1c-.1.1-.1.1-.2.1s-.1.1-.2.2c0-.1-.1-.1-.1-.1-.1 0-.1.1-.2.2 0 .1 0 .2-.1.3v.2l-.1.2c-.1.2-.3.3-.6.4h-.1v.1c.1.2.2.3.4.4l-.1.1h-.1v.1c0 .2-.1 1 0 1.4l-.1-.1v.2s-.1.5-.2.6h-.1c0-.4 0-.8-.1-1.3v-.1l.1.2V385.4c.1-.2.2-.6-.1-.8l-.1-.1v.1c-.1.3 0 .6 0 .9l-.1.1c-.6 1-.5 1.9-.4 2.8 0 .2 0 .5.1.6-.1.1-.1.3-.1.4v.2-.1c0 .4-.2.7-.4 1l.1.1c.1-.1.2-.1.4-.1.1 0 .1 0 .2.1v.1h-.1c-.1 0-.1 0-.2.1h.1v.2c0 .1-.1.2-.2.3l-.1-.1c.1 0 .1-.1.1-.1v-.1h-.2c-.1 0-.2.1-.3.2h-.1s-.1 0-.2.1h-.1v.1c.2.4.3.8.5 1.1h-.2-.2c-.1.1.1.6.3.9 0 .1-.1.3-.2.6-.3 1-.8 2.6-.2 3-.9 1.3-.3 3.3.1 4.8.1.2.1.4.2.5h-.1c-.1 0-.2.1-.3.2v.1h.1c.1 0 .2.1.2.1-.2.1-.2.5 0 1.1.2.5.5 1.2.7 1.5-.1 0-.2-.1-.3-.2-.1-.1-.1-.2-.3-.2 0-.1-.1-.1-.1-.1l-.1.1c0 .1.1.1.1.2.1.2.1.3.1.5s-.1.5.3.8l.1-.1v-.1h.1c-.1.8 0 2.1.4 3.2-1.1-.8-2.3-1.4-3-1.4h-.2c-.3-.1-.5-.2-.8-.3h.2l-.1-.1c-.2-.2-.5-.3-.9-.3h-1.2c-.6 0-1.3-.1-2-.2-1.3-.1-2.6-.3-3.9-.3h-1.2v-.1c-.8.3-1.6.5-2.5.6-1.4.3-2.8.5-3.7 1.4l-.1.1h.1c.4.2.9.3 1.4.3.3 0 .6-.1.9-.2.1-.2.7-.4 1.1-.4h.3l-.1.1h.4c.7 0 1.9-.4 2.2-.5v-.1h-.2s.2-.2.4-.2c0 .1 0 .2.1.2l.1-.1v-.1l.1.1c-.3.2-.4.3-.4.3 0 .1.1.1.2.1s.3 0 .5-.1h.1c.2.1.3.1.5.1s.4 0 .5-.1c.2 0 .4-.1.5-.1h.1c.1.2 1.2.4 1.7.4.1 0 .3 0 .3-.1.2 0 .2.1.3.1 0 0 .1 0 .2-.1l.2-.1c.1-.1.2-.1.3-.1.1 0 .2.2.2.5 0 .2 0 .2.1.3h.2c.2 0 .4 0 .5.1l-.1.1-.1.1h.4c.6 0 1.1.4 1.7.8.4.3.8.6 1.2.7h.2c.3.1.9.4 1.3.7H-106.7l.1.1.3.3h-.2l.2.1c.1.1.2.1.2.1l.4.4.1-.1v-.2l.1.1h.2v-.1h.1c.3.1.5.2.7.4-.1.2.5 1.2.5 1.2s0 .1.1.2c.3.5 1.3 2 1.6 2.4l.1-.1c-.1-.3-.1-.3-.2-.4 0 0 0-.1-.1-.1v-.1c.2 0 .6.5.8.8 0 0 0 .1.1.1h.1c0 .2.1.4.1.6l-.1-.1-.1.1c0 .1.1.4 0 .5h-.1l-.1-.1v.2c.1.6.4 1.2.8 2 .5 1.1 1.1 2.4.9 3.4-.1-.2-.1-.3-.2-.3h-.1c-.1.2.3 2.3.3 2.5v.1l.1-.1.1-.1c.1 0 .1.1.2.3.1.3 0 .9-.4 1 0 0 0-.2.2-.6V425.7l-.1.1c-.1.1-.2.3-.3.5 0-.3 0-.4-.1-.4v.2l-.1.1h-.1v.2c-.2.5-.5 1.7-.5 1.8-.1.4-.2.7-.2.9-.1.4-.2.7-.3 1.2-.1.2-.2.4-.2.5 0-.1.1-.3.1-.4l-.1-.1c-.3.3-.3.5-.4.8-.1.2-.1.4-.3.6v-.6l.1.1c.1 0 .1 0 .2-.3 0-.1.1-.3.2-.4.2-.3.4-.7.4-1.1v-.2l-.1.2c-.5.6-.9 1.5-1.2 2.2l-.2.5.2-.1h.1l.1.1c-.6 0-.7.7-.8 1V433.4h.1l-.3.3c.1-.3.2-.6.3-.8v-.1h-.1c-.1 0-.2.1-.7 1-.2.2-.3.5-.5.7.1-.2.2-.4.2-.5 0 0-.1-.1-.2-.1-.5.6-.9 1-1.5 1.4v.1h.1c-.3.2-.8.5-1.3.7l-.6.3h-.1v.1h.2c.2-.1.6-.2.8-.3-.5.3-.9.6-1.4.9v.1c-.2.1-.3.2-.5.2h-.2c.1-.1.2-.1.2-.2.3-.2.5-.4.4-.5v-.1h-.5c-.3 0-.6.1-.9.2l-.2.1h.3-.2v.1h.1c.1 0 .1 0 .2-.1.1 0 .3 0 .4-.1-.1.1-.2.1-.2.2-.1.1-.2.2-.4.3v-.1c-.1.1-.3.1-.4.2 0-.1 0-.1-.1-.2-.3.2-.6.3-.9.4-.2.1-.4.1-.6.2v.1s.1 0 .1-.1c0 .1-.6.4-1.1.4-.1 0-.3 0-.4-.1h-.1c.1 0 .2-.1.2-.2v-.1H-113.6l.1-.1v-.1c-.2 0-.4.1-.5.2-.2.1-.4.2-.7.2h-.2c0-.1.1-.2 0-.2 0-.1-.2-.1-.3-.1H-115.5V438h-.1c-.2 0-.5-.1-.8-.1v.1-.1c-.3-.1-.5-.1-.5-.1h-.1v.1c0 .1 0 .1.1.2-.7 0-1.6-.2-1.7-.3 0 0 0-.1.2-.1s.5.1.7.1c.1 0 .3.1.3.1v-.1c-.4-.1-.8-.3-1.2-.4-.6-.2-1.3-.5-1.8-.6h-.1v.1c0 .1 0 .1.1.2-.2-.1-.4-.2-.5-.3-.3-.2-.5-.4-1-.4h.4V436.7c-.1 0-.2 0-.4-.2.1 0 .2.1.3.1l.1-.1-.2-.1-.2-.1s-.1-.1-.2-.1h-.3c-.1 0-.2-.1-.4-.2-.4-.2-.9-.4-1.1-.5-.1 0-.2-.1-.3-.2 0 0 0-.1-.1-.2l-.1-.1c.3.1.5.2.7.4l.1-.1c-.2-.3-.4-.4-.6-.5-.2-.1-.4-.1-.5-.3.1 0 .1-.1.1-.1v-.1h-.2c-.1 0-.2-.1-.3-.3h-.1c-.1 0-.3-.1-1.1-.6l-.2-.1.1.3c-.1-.1-.3-.1-.4-.2-.2-.3-.4-.6-.5-.6h.1c.1 0 .2 0 .3.1.1 0 .2.1.3.1.1 0 .2-.1.3-.2l-.5-.5c-.4-.3-1.1-.9-1.4-1.2v-.1c0-.1-.1-.2-.2-.3-.4-.6-.8-1.2-1.1-1.2 0 0-.1 0-.2.1-.2-.3-.3-.5-.3-.8v-.2c0 .1.2.4.2.4v-.2c-.1-.2-.1-.4-.1-.6 0-.2 0-.3-.1-.3 0-.8-.6-3.8-.9-4.2l-.1-.1h-.1c-.1.2.1.8.3 1.6.1.3.1.5.2.7l-.2-.2c-.1-.1-.2-.2-.2-.4v-.1l-.1.1c-.1.1-.1.3-.2 1.1-.3-.4-.5-1.3-.6-2.1h.1v-.2c0-.3-.1-.6.1-.9l-.1-.1c-.1.2-.2.4-.2.6 0-.5.1-1.2.1-1.5.1.1.2.3.2.4h.1v-.2c.1.2.3.3.4.5l.1.2v-.2c0-.8.5-2.7.9-3.3-.1.1-.1.1-.1.2v-.1c0-.1.1-.3.1-.4h-.1c0 .2-.1.4-.2.5 0-.4.2-.8.4-1.2v.2l.1.1v-.1l.1.1c0-.1.1-.1.1-.2.1-.2.1-.3.2-.5l.1.1c.4-.5.5-1.1.6-1.6.1-.4.1-.8.4-1.2l.1-.2h.1c.3 0 .4-.5.4-.7v-.1s0-.1-.1-.1c.1-.3.6-1 .9-1.4v.4l.1-.1c.1-.1.4-.3.7-.5.7-.5 1.2-.9 1.2-1.1v-.2l-.1.2c-.1.2-.2.3-.4.3v-.1-.1-.4h-.1c-.2.1-.2.2-.2.3 0 .1 0 .2-.2.2 0-.1.1-.3.1-.4.1-.2.1-.3.1-.4.3-.2.6-.5.7-.8.1.1.2.2.2.4v.2l.1-.1c.2-.1.5-.5.6-.6.1 0 .5-.2.5-.4 0-.1 0-.1-.1-.1.2-.2.3-.3.4-.5l-.1-.1c-.2.1-.4.2-.6.4l.1-.1-.1-.1c-.1.1-.3.1-.5.2.1-.1.1-.1.1-.2v-.1l-.1.1c-.4.2-.7.4-1 .7l-.1.1.2-.2c.5-.5.5-.5.4-.6.2-.2.4-.4.7-.5l.2-.1-.2-.1h-.2v-.2l-.1-.1c-.2 0-1 .7-1.5 1.1v-.1c-.1 0-.1.1-.2.2-.6.5-.9.8-1 .9l-.1.1c-.3.2-.5.7-.6 1.1-.1.3-.2.5-.3.7-.1.2-.3.4-.4.5v-.1c0-.1.1-.4.1-.4v-.1c-.5.1-.7.8-.9 1.4-.2.6-.4 1.3-.9 1.5h-.1l.1.1c.2.2.1.3-.1.6 0 .1-.1.1-.1.2 0-.1.1-.2.1-.3l-.1-.1c-.2.3-.4.7-.5 1.1l-.1-.1c.1-.3.3-.8.4-1 0 0 0-.2-.1-.3l-.1-.1v.1c0-.2 0-.4.1-.6h-.1c-.2.3-.2.7-.2 1-.1.6-.1 1.1-.7 1.5 0 0 0-.2.1-.3.1-.3.1-.4 0-.4h-.1v.1c-.2.5-.2 1-.3 1.5 0 .3 0 .7-.1 1.1 0-.1-.1-.2-.2-.3l-.1.1c.1.2-.2 1.5-.5 1.9 0-.6.1-.9.2-1.2 0-.2.1-.3.1-.5h-.1c-.6 1.1-.9 2.4-1 3.4l.3 1.2c-.1 0-.2.2-.3 1h.1v-.1c.1.1.4 1 .4 1-.1 0-.2-.4-.2-.5 0-.1 0-.2-.1-.2l-.1-.1c-.1 0-.1.1-.1.2 0 0 0 .4.1.5v.3c0 .8 0 1.6.6 2.2 0 .1.1.3.1.4v.2c-.2-.5-.3-.5-.4-.5h-.1v.1c.3.3.4.8.5 1.3.1.6.3 1.3.8 1.6v.1c0 .1.3.4.6.8l.3.3c-.1 0-.1 0-.2-.1h-.1c-.1.2 2.4 2.8 2.8 3.3-.2 0-.8-.5-.9-.7l-.1.1c.3 1.2 3.5 2.9 4.1 2.9h.1l-.1-.1c-.1-.2-.2-.3-.3-.4.1 0 .2.1.4.1.1 0 .3 0 .5.1s.3.2.5.3c-.1 0-.2-.1-.3-.1h-.2l.2.2.2.2h-.1c-.1 0-.3 0-.5-.1h-.3v.1c.5.2.9.5 1.3.7.7.4 1.4.8 2.1 1 1.2.4 2.3.6 3.5.8.5.1.9.2 1.4.3v.1c.8.2 1.7.3 2.6.3 1.6 0 3.2-.3 4.9-.8 1.7-.5 2.9-.9 4.2-1.9.2-.1.7-.7 1.3-1.2l.9-.9v-.1h.1l.2-.1h-.5c.2-.3.4-.3.5-.3.1 0 .3-.1.5-.3 0 0 0 .1-.1.2s-.1.3-.1.4v.1-.1c.1-.2.2-.3.4-.5l.9-1.2c0 .1-.1.1-.1.2-.1.2-.2.5-.4.7l.1.1c1.9-2.5 5-7.1 4.3-10.3h-.1c0 .2 0 .3-.1.5-.1-.1 0-1 0-1.2v.2h.1c.1 0 .2-.1.2-.3.1-.5.1-1.4 0-2h.1c0-.4-.1-.8-.2-1.1.2 0 .3.1.5.1s.3 0 .3-.1v-.1l.3.3c.1.1.1.2.3.2.1 0 .1 0 .2-.1v-.1c0 .1.1.2.2.3h-.2v.1c.1.1.3.1.4.1v.2h-.1.1c.2.2.4.3.4.4v.1l.2-.2s.1 0 .1-.1c0 .1 0 .2-.1.3-.2 0-.4-.1-.5-.3h.1l-.2-.1c-.1 0-.2-.1-.2-.1-.1 0-.1 0-.1.1 0 0-.1.1-.3.1 0 0-.1 0-.1.1 0 0-.1.1 0 .3v.1l1.1-.5c.2-.2.4-.3.7-.3 0 .2.1.5.2.7-.2-.1-.3-.1-.5-.1l-.1.1c.2.1.4.3.6.5-.1.1-.3.2-.4.2-.1-.1-.2-.1-.2-.1-.1 0-.2.1-.2.2s-.1.1-.1.1h-.1l-.1.1s.1 0 .1.1c.1.1.3.2.4.4l.1.1-.1.1H-94.9c.1 0 .1 0 .2-.1l.2-.1c.1 0 .2.1.4.2v.1l.4.3.1-.1-.1-.1c.2.1.3.1.5.2.5.2.9.4 1.1.5-.1.1-.2.2-.4.3-.3.2-.5.4-.5.4v.1h.1c.1.1.2.1.4.1s.3-.1.3-.2c0 0 0 .2-.1.4v.1l.4.2c.4.2 1 .4 1.1.6v.4l.1-.1v-.3c.2 0 .3.1.4.3-.1-.1-.1-.1-.2-.1h-.1v.1c0 .1 0 .2-.1.2h-.1v.1c.1.2.2.2.4.2.1 0 .2 0 .3-.1h.2c.1 0 .1 0 .2.1-.2 0-.3.1-.4.2l-.1.1h.1c.5 0 1.6.5 1.9 1.3.3.1.6.3.9.6.3.2.6.5 1 .6h.1c.1 0 .1-.1.2-.2 0-.1.1-.1.1-.1h.1v.1c.2.7 3.7 3 4.3 3.1.1 0 .2.1.3.1l.1.1c0 .1.1.1.1.1h.2l-.2-.2.6.3c.3.2.7.4 1.2.6.1 0 .3.2.4.3.1.1.3.3.6.4.2 0 .4 0 .6-.1 0 .1-.1.2 0 .2l.1.1.1.1h.2l.1-.1h.1c.1 0 .2 0 .2.1-.1.1-.1.2-.2.3 0 0 .1.1.2.1.3 0 .7-.3.7-.4v-.1c.3 0 .5 0 .8.1 0 0 .1.1.2.1v-.1s-.1 0-.1-.1c-.1 0-.1-.1-.1-.3h.3c.2 0 .5-.1.7-.2 0 .1-.4 1-.4 1h-.1l.1.1c.2.1.4.1.6.1.2 0 .5 0 .7-.1.2 0 .5-.1.7-.1.3 0 .5.1.7.2l.1-.1-.1-.1c.1 0 .2 0 .3-.1 0 .1.1.3 0 .4h.1c.2-.2.5-.2.8-.2.3 0 .6 0 .8-.2v.2s-.1.1-.3.1h-.5l-.1.1h.1c.1 0 .2 0 .3.1.2.1.4.1.6.1.3 0 .5-.1.7-.4.1.1.2.3.1.5v.1h.1c.2 0 .3 0 .3-.1.1-.1.1-.3 0-.4v-.2h.2v.2c0 .2 0 .4.1.5 0 0 .1.1.2.1.2 0 .2-.2.3-.3.1-.2.1-.3.3-.4 0 .1 0 .2-.1.2-.1.1-.1.2.1.4.3 0 .5-.1.8-.1h.1-.1v.1h.1s.1 0 .1-.1c.2 0 .4-.1.6-.1.4 0 .7.1 1 .3h.1l.2-.2zm-16.6-6.7c.1 0 .2 0 .4.1-.1 0-.2.1-.2.1h-.2v-.2c-.2 0-.1 0 0 0zm-21.8-46.3c0-.1 0-.1 0 0 .1-.1.1-.1 0 0 .1-.1 0 0 0 0zm.5 7c0 .1 0 .1 0 0 0 .1 0 0 0 0zm.1-.2c-.1.1-.1.1-.2.1 0-.2.1-.5.2-.6v.5zm-.9-4.9c.1-.2.2-.2.2-.3v.2l-.2.1c.1 0 .1 0 0 0zm.5-2.3c.1 0 .2 0 .3-.1l-.3.3v-.2zm5.7 37.3c.1 0 .1 0 0 0zm-.3-1.5c.4.2.8.4 1.3.6-.1.1-.2.2-.3.2-.2 0-.5-.1-.8-.2 0-.3-.1-.4-.2-.6zm1.7 1l-.1.1s0 .1.1.2c-.1 0-.1 0 0 0 0 .1.1.1.1.2-.1 0-.2-.1-.3-.1h-.2c-.1-.2.1-.4.4-.4v-.2l.2.2s0-.1-.1-.2l.1-.1c.2 0 .4.2.5.5.1.2.1.4 0 .6l-.3-.2h.1l-.5-.6zm-5-36zm-2.1-.9c0-.1-.1-.1 0 0v-.2.2zm-1.5 6.8zm-22.2 45.6c.1 0 .3.1.4.1h.1v-.1c.3 0 1 .5 1.1.6-.2-.1-.5-.1-.7-.2l-.1.1c.2.1.3.3.4.4-.1-.1-.2-.1-.3-.2-.4-.2-.7-.4-.9-.7zm-.2-25.2c.1-.2.6-.4.9-.4.1 0 .2 0 .2.1V410.8h-.1c-.1.1-.3.4-.5.9 0 .1 0 .1-.1.2l-.1-.1-.6.6c-.2.2-.5.4-.7.7.2-1 .3-1.7 1-2.3zm-1 2.3h.2c0 .1-.1.3-.3.5.1-.3.1-.4.1-.5zm2-3.3c.1-.2.4-.6.6-.8V409.3c-.2.2-.4.4-.6.5zm-.5-.3l-.2.2h-.1c.1-.1.2-.1.3-.2zm-4 10.2c0-.1-.1-.1-.2-.2h-.1l-.1.2c0-.1 0-.3.1-.4.1.1.3.3.3.4 0-.1 0-.1 0 0zm-.9-1.5c-.1-.1 0-.5.1-.9 0 .4 0 .7-.1.9zm2.9-3.2v-.2-.2c.1.1.1.2.2.2l-.2.2zm-2.4 2v.2l.1-.1c.1-.2.3-.3.4-.5 0 .1-.1.3-.2.4-.1.1-.2.2-.2.4-.1-.1-.2-.1-.3-.1.1-.4.3-.9.4-1-.2.2-.2.4-.2.7zm27.9 19.2zm7.3-14.9c0-.1 0-.1 0 0 0-.1 0 0 0 0zm1.4 1l-.1-.1-.1-.1c0-.1 0-.1-.1-.1h.1c.1.1.2.2.2.3zm-.9 2c0-.3.1-.5.3-.5l.1.3c-.1 0-.3.1-.4.2zm17.9 11.3c.2 0 .4 0 .5.1 0 .2-.1.2-.2.2h-.2c-.1 0-.1 0-.2.1 0-.1 0-.2-.1-.2h-.1v.1l-.2-.2c.3-.1.4-.1.5-.1z"/><path d="M-101.1 377.4c.1 0 .2 0 .3-.1v-.1h-.1c-.3 0-.3.1-.2.2zM-103 381.3l.3-.4-.1-.1c-.1 0-.2.1-.3.2 0 .2 0 .2.1.3zM-100.1 380.4c0-.1-.1-.2-.1-.2-.1 0-.1.1-.2.3v.2c.1 0 .1-.1.2-.1l.1-.2c.1.1.1.1 0 0 .1.1.1 0 0 0zM-103.3 382.7l.2.1-.2-.1c.1-.1.1-.2.1-.2 0-.1.1-.2 0-.3 0-.1-.1-.1-.1-.1v.2s0 .1-.1.1c0 0-.1.1-.1.2.1 0 .1 0 .2.1zM-101.3 383.7c-.1 0-.1.1-.1.1V384.1h.4v-.1c0-.1-.2-.3-.3-.3zM-101.2 384.8v.1c.1 0 .1.1.1.2s0 .2.2.2c.1 0 .2 0 .3-.2-.1-.2-.2-.3-.4-.3h-.2zM-101.9 390l-.1-.1c-.2.2 0 .7.1.9h.1v-.3c0-.2 0-.4-.1-.5zM-101.5 400.7l-.2-.1v.1c0 .1.1.2.2.2h.1l.1-.1-.2-.1zM-96.1 422v-.2c-.1-.1-.1-.1-.2-.1h-.1v.1c0 .1.1.2.3.2zM-95.2 421.2c.2-.3 0-.4-.1-.4s-.1-.1-.1-.1v-.1h-.1v.2c.1.1.1.2.3.4zM-96.4 422.2c-.1.2-.1.2-.1.3 0 .1.1.1.2.1h.1v-.1c-.1 0-.1-.1-.2-.3zM-94.9 423.2h.2-.2c-.4-.4-.6-.5-1-.5h-.5l.2.1c.2.1.3.1.5.2 0 .3 0 .4.1.5h.1c.1 0 .2-.1.3-.1-.1 0 .1-.1.3-.2zM-94 424.8s.1.2.4.3v-.1l-.4-.3v.1zM-93.6 425.2c-.3-.1-.4-.2 0 0zM-92.9 425.9c0-.1 0-.3-.1-.4h-.1c-.1 0-.1 0-.2.1l-.1.1h.1c.1 0 .2.1.2.3l.2-.1c-.1.1-.1.1 0 0-.1.1-.1.1 0 0-.1.1-.1.1 0 0-.1.1-.1.1 0 0 0 .1 0 .1 0 0zM-87.9 425.1c.1 0 .1 0 .2-.2v-.1h-.1c-.2.1-.2.1-.1.3zM-124.3 408.7l-.2.2c0-.1 0-.1.2-.2zM-126.7 410.7s-.1.2 0 0zM-106.7 435.4c0 .1-.1.1 0 0 0 .1 0 .1 0 0zM-122.3 419.4c-.1 0-.1 0 0 0h-.2v.2s.1.1.2.1h.1s0-.1-.1-.3zM-122.1 419.7l-.1.2h.2c.1 0 .1 0 .2.1l.1-.1c-.2-.2-.2-.2-.4-.2zM-121.7 422.3l-.1.1h.1c.1 0 .1 0 0-.1l.1-.1h-.1c.1 0 0 0 0 .1z"/><path d="M-123 418.4c-.1-.2-.2-.4-.4-.4s-.4.1-.6.7h-.1c-.1.1-.1.3-.1.6 0 .4 0 .8-.2 1.1-.1.1-.2.1-.3.1-.2 0-.4-.1-.7-.2l-.1.1c.2.1.3.2.4.3.2.1.4.2.6.4h-.1v.1c.1 0 .6.6.7.8.2.1.9.5 1.1.5.1 0 .1 0 .1-.1h.2c.1 0 .2 0 .2-.1v-.1h.1c.1 0 .2 0 .3-.1h.2s0-.1-.5-1.5c-.1-.3-.3-.7-.3-.8v-.1h-.1c-.4.1-.5.2-.5.2-.2 0-.2-.1-.3-.2l-.1-.1c.2 0 .3-.1.4-.1l.1-.1h-.2c.2-.1.3-.3.4-.4.2-.1.4-.2.7-.3h.1v-.2-.2h.1-.2l-.2.1s-.1 0-.1.1c-.1 0-.3.1-.5.2v-.1s0-.1-.1-.2zm.2 1.8c-.3.1-.3.1-.4.2v.1h-.2c0-.1.2-.2.6-.3zm-.7-1.4c.1 0 .2-.1.3-.1v.2h-.1c-.1-.1-.1-.1-.2-.1zM-121.2 422.3c.1-.1-.1-.3-.1-.3l-.1.1c.1.2.1.2.2.2z"/><path d="M-122 420.1c-.1.1 0 .1 0 0 .2.1.3.1.4.1h.1v-.1h-.5zM-121.2 422.1c.1.1.2.2 0 0zM-120.8 422.2c.1.1 0 0 0 0zM-110.7 417.1c-.2.1-.8-.6-1.2-1.1-.4-.5-.6-.7-.7-.7-.6-.1-1.1-.4-1.6-.7-.6-.3-1.1-.7-1.8-.8h-.1c-.4 0-2.7.3-2.7.6v.1c.4.4 1.1.6 1.7.9.5.2.9.3 1.2.5 1.3.7 2.3 1.5 3.3 2.6 2.3 2.3 3.5 5.2 3.5 8.5v.2l.1-.2v.4c-.2 1.8-.2 2.1-.1 2.2h.1c.1-.1.2-.2.2-.3 0 .1-.2.3-.2.4v-.1h-.1c-.1 0-.2.1-.2.2v.1h-.2V430.2h.1c.1.1.1.2.2.2h.1l-.1-.1c.2.2.3.3.4.3.1 0 .2 0 .2-.2 0-.1.1-.5.3-.7.1 0 .1.1.1.1v.1h.1c.2-.1.2-.3.3-.7v-.7-.5l.1.1v.1h.1v.1l.1-.1c.1-.1.1-.6.1-1.1 0-.4.1-1.2.2-1.4 0 .2 0 .4.1.8h.1c.2-.5.5-1.6-.4-2.1.2-.1.3-.3.2-.6 0-.1-.1-.3-.2-.4-.8-1-1.3-2.2-1.8-3.5-.3-.8-.6-1.6-1-2.3l-.1.1v.1c-.2-.2-.4-.3-.7-.5l.3-.2z"/></g><g fill="#3d9337"><path d="M-8.9 430.3s-.1 0-.5.7v-.1h-.2s0 .1-.1.1c0 .1-.1.1-.1.2v.1l.1-.1h-.2v.1l-.1.1-.1.1h-.1c.1-.1.1-.1 0-.2v-.2l-.1.1-.1-.1V431.4h-.1v-.1l-.1.1v-.1h-.1l-.1.3v.1s-.1.1 0 0c0 0 0 .1-.1.2-.1.2-.1.2 0 .2v.1c0 .1 0 0 0 0l.1-.2v.4c-.1.1-.1.1 0 .1 0 0 .1 0 .1-.1l.1-.1s0 .1-.1.1l.1.1.1-.1v.1l.1.1.1-.1v.1l.1.1.1.1.1.1h.1l-.1.1v.1l.1.1v.1h.1l.1-.1-.1.1.1-.1v.1h.1v.1h.1s.1-.1.1-.2l.1.1.1-.1v.1s.1 0 .1-.1V433.5s0 .1.1.1v.2l.1.1.1-.1s.1 0 .1-.1l.2-.2.1-.1c.1 0 .1-.1.1-.2s.1-.1.1-.2c.1-.1.2-.2.3-.5l.1-.2-.2.2c0-.1.1-.2.1-.4v-.2l-.1.2h-.1v.1c0-.1 0-.1-.1-.2 0 0 0-.1-.1-.1l.1-.1h-.2l.1-.2-.1.1h-.1s0-.1-.1-.1v-.2l-.1.1-.1.1s0 .1-.1.1v-.1s.1-.1 0-.1V431.2l.1-.1h-.1l-.1.1s-.1 0-.2.1c-.1-.2-.3-.5-.6-.5h-.1v-.1l.1-.1.9-.3zm-.7.9c0-.1 0-.1 0 0 0-.1 0-.1 0 0zm-.1 2.1s0 .1 0 0c0 .1 0 0 0 0zm0 .1zm.1.1zm0 0zm1.3-1.8zM-11 432.4s0-.1 0 0c0-.1-.1.1 0 0z"/><path d="M-8.2 431.6c-.1.3 0 .1 0 0zM-61.1 437.4l-.3-.1V437.6s.1 0 .1-.1c.1 0 .1 0 .2-.1zM-60.5 437.1c.1 0 .4 0 .5-.1l-.1-.1-.4.2zM-39 426.8c.2 0 .3 0 .2-.1v-.1h-.1s-.1 0-.2.1l.1.1c-.1 0 0 0 0 0zM-42.8 429.7c0-.1-.1 0 0 0zM-23.4 408.2c-.1.1 0 0 0 0zM-24.2 411c-.2.2-.1.2 0 0zM-24.7 401.1v.6H-24.4c0-.2-.1-.4-.3-.6zM-58 436.3v-.1l-.4-.2h-.1c-.1 0-.4.1-.5.6v.2l.1-.1c.3-.3.6-.4.9-.4zM-57.9 437.5c0 .1 0 .1 0 0 0 .1 0 .1 0 0 0 .1 0 .1 0 0v.1l.2.2h.1c0-.1-.3-.3-.3-.3zM-53.4 437.2h-.4v.1c.1.1.2.1.3.1.1 0 .1 0 .2-.1l-.1-.1zM-55.7 435.5c.1 0 .1 0 .3-.1.1 0 .2-.1.2-.2s-.2-.1-.3-.1h-.1l.1.1s0 .1-.1.1-.2.1-.1.2zM-52.1 436.7c-.2 0-.3 0-.3.1v.2h.1c0-.1 0-.1.1-.1h.2V436.6l-.1.1zM-52.1 434.5c.1 0 .1 0 .2-.1-.1-.1-.1-.2-.1-.2v-.1h-.1c-.1 0-.1.3-.1.3s0 .1.1.1zM-51.3 433.8l.2-.2s.1-.1.1-.2-.1-.1-.4-.2c-.1.1-.1.2-.1.3 0 .1.1.2.2.3zM-46.5 431.7c.2 0 .6-.5.6-.5l-.1-.1c-.1.1-.2.1-.3.2-.2.1-.4.2-.4.3v.1h.2zM-37.9 425.6c.1 0 .2-.1.2-.2s0-.2-.1-.2h-.1v.2c-.1 0-.2.1 0 .2zM-23 409.5h.1v-.2l-.1-.1-.1.2.1.1zM-24.2 409.4c.1-.2.2-.2.2-.5v-.1h-.1c-.3 0-.3.2-.3.3V409.4h.2c-.1.1-.1.1 0 0zM-22.5 409.4h.1c.1 0 .2-.1.2-.2s0-.2-.1-.3l-.1.1c.1.2 0 .2-.1.4zM-21.7 408.6s.2 0 .2-.1c.1-.1 0-.3-.3-.7h-.2c-.2 0-.3 0-.4-.1l-.1-.1v.1c0 .7.1.9.4 1.4l.1.2v-.2c0-.2-.1-.4-.1-.5h.1c.1-.1.2 0 .3 0zM-21.7 405.9h.1c0-.1.1-.3 0-.4h-.1v.4zM-21.1 404.6v-.1.1l-.1-.1h-.1c-.1.1-.3.2-.2.3 0 .1.1.1.2.1h.1v-.1c0-.1 0-.2.1-.2zM-24.6 400.6h-.2l-.1.1.1.1h.1c.1 0 .1 0 .1-.2.1 0 0 0 0 0zM-19.5 440.3l.3.1s-.1-.1-.3-.1zM-17 411.1s0-.1 0 0c0-.1-.1 0 0 0z"/><path d="M5.3 425.7c-.1.2-.2.4-.2.6 0-.1-.1-.2-.1-.3v-.1c0-.2 0-.2-.1-.2v-.1-.6c0 .1.1.2.1.3l.1.2v-.2c0-.3.1-.3.1-.3.1 0 .2.4.3.5 0 .1.1.2.1.2h.1c0-.5-.1-1-.1-1.5 0-.8 0-1.6-.2-2.4-.3-1.2-.7-2.3-1.2-3.4-.2-.4-.3-.9-.5-1.3l.1-.1c-.7-1.9-1.9-3.7-3.6-5.4-1.4-1.4-2.8-2.5-4-3-.2-.1-1-.3-1.8-.5-.6-.2-1.3-.4-1.6-.5 0 0-.1 0-.1-.1l-.2-.1.1.2.1.1c.1.1.1.1.1.2-.3 0-.4-.2-.6-.3-.1-.1-.2-.2-.5-.3h.2c.1 0 .3 0 .3-.2v-.1h-.1c-.2 0-.4 0-.6-.1-.5 0-1-.1-1.5-.2h1v-.1c-1.3-.1-2.6-.2-3.7-.2-3.5 0-6 .7-7.3 2l.1.1c.1-.1.3-.1.5-.2 0 .1-.8.5-1 .6l.1-.1.1-.1h-.1-.2c-.3 0-.7.2-1.1.5-.3.2-.5.4-.7.5v-.1c-.3.2-.6.5-.9.7-.1-.2-.1-.4-.2-.5l-.2-.2h-.1c0-.1 0-.2.1-.4.1-.1.1-.2.1-.3 0-.1-.1-.1-.3-.2l-.1.1c.1-.1.1-.2.1-.3 0 .1 0 .1.1.2h.1c0-.1-.1-.3-.1-.4v-.2l.1-.1s-.1 0-.1.1c0-.3.1-.6.2-.7l.1-.1h-.2-.1c.1 0 .2-.1.2-.1h.1c.1.2.1.4-.1.6l-.1-.1v.2c0 .2.1.3.2.3s.1 0 .3.2c0 .1.1.1.1.1.1 0 .1 0 .2-.1l.1-.1h-.1c-.2-.1-.5-.2-.6-.4.2-.1.4-.3.4-.6 0 .2.1.3.1.5h.1c0-.2.1-.5.1-.7.1.1.3.2.4.2v.3c0 .1.1.1.2.1h.1c.1 0 .1 0 .1.1v.1h.1v-.1c0-.2 0-.3.1-.5v-.1h.1l-.1-.1c-.1-.3-.2-.3-.2-.3s-.1 0-.1-.1-.1-.2-.1-.4h.1v-.5h-.1v.1c0-.2-.1-.4-.1-.6-.1-.6-.1-1-.2-1.2.1 0 .3.1.4.2.3.1.5.2.6.2h.1v-.1c0-.4-.2-.5-.4-.6 0 0 .2-.1.4-.1h.1v-.4c-.1-.4-.2-1-.1-1.3.1 0 .1-.1.2-.1l.1-.1h-.2c-.1 0-.2.1-.2.1v-.4c0 .2 0 .2.1.3h.1s.1-.1.2-.1h.2v-.1c.2-.4 0-.5-.2-.7-.1-.1-.2-.2-.2-.4.1.1.2.2.4.3h.1l.2-.2c-.3-.4-.4-1.7.1-2.2-.1-.3 0-.7 0-1 .1-.4.1-.8 0-1.1v-.1H-20.7s0-.1-.1-.1c.1 0 .1 0 .1-.1.5-.6.6-4.7.4-5.3 0-.1-.1-.2-.1-.3l.1-.1c.1-.1 0-.2 0-.2l-.1-.1v.3c0-.2 0-.4-.1-.7 0-.4 0-.8-.2-1.3 0-.1 0-.3.1-.5 0-.2.1-.4.1-.7-.1-.2-.3-.4-.4-.5 0 0 .1 0 .2-.1 0-.1 0-.1.1-.2 0 0 0-.1-.1-.2l-.1-.1c-.1-.1-.2-.2-.1-.3h.4v-.2c-.1-.2-.5-.4-.7-.4-.1 0-.1 0-.1.1-.1-.2-.2-.5-.3-.7v-.2h-.1v.2c0 .1 0 .2-.2.2-.1-.3-.3-.6-.6-.7.1 0 1-.2 1.1-.2l.1.1v-.1c0-.4-.3-.8-.6-1.1-.3-.4-.7-.8-.6-1.3h-.1v.1c-.1-.1-.2-.2-.3-.2.1-.1.2-.2.3-.2v-.1c-.3 0-.4-.3-.6-.5-.1-.2-.3-.5-.6-.6 0-.1.1-.1.1-.1.1 0 .2.2.3.3.1.2.1.3.2.3h.1v-.1c0-.1-.1-.2-.1-.3-.1-.4-.2-.9-.9-.9 0-.2.1-.3.3-.4h.1v-.1c-.1-.2-.2-.2-.3-.2-.1 0-.2.1-.3.2-.1.1-.1.1-.2.1s-.1-.1-.2-.2c0 0 .1-.1.2-.1.2-.1.4-.2.4-.3v-.2c-.1-.1-.1-.1-.2-.1h-.4c-.1 0-.2 0-.3-.1h.4c.1 0 .2-.1.2-.3-.2-.2-.3-.4-.5-.6l-.1-.1h-.1v-.1c-.4-.4-.7-.9-.6-1.5v-.1h-.3v.1c-.1.3 0 .6.2.8-.1 0-.2.2-.2.3-.1.1-.1.3-.3.3h-.1v.1c0 .2 0 .4.1.7.1 1 .2 2.6.9 3.2h.2c.1.1 0 .4 0 .7-.1.4-.2.8 0 1.1-.4.4.1 1.2.6 2 .3.4.5.9.5 1.1-.2.5 0 1.2.2 1.9.2.5.3 1 .3 1.5s0 1-.1 1.5c0 .4-.1.8-.1 1.3 0 1 .1 1.2.2 1.2s.1 0 .2-.1h.1s.1 0 .1.4v.1h.1v-.1h.1c0 .2 0 .4-.1.7v.4c-.2-.5-.2-.5-.3-.6 0 0 0-.1-.1-.2h-.1c0 .1.1.2.1.3.1.2.1.3.1.5l.1.1h.1c.1 0 .1 0 .1.1v.2c-.1-.1-.2-.3-.3-.5v-.1l-.3.4h.1c.2.1.2.2.2.3 0 .1 0 .2.1.4 0 .1-.3 3.7-.5 4.4H-24.1c-.1.2-.1.3-.1.4.1.1.3.2.7.2h.2c-.1.2 0 .4 0 .6 0 .1 0 .1.1.1-.1.1-.1.1-.2.1s-.2-.1-.2-.2v-.2l-.4-.5v.2c0 .3.1.5.2.8v.1l.1-.1v-.1c0 .4-.2 1.3-.3 1.6l-.2-.2-.1-.1v.1c0 .1-.1.4-.2.6-.3.7-.4 1.2-.4 1.4l-.1-.1h-.1l.1.1.1.1c-.4.5-.4 1.6-.3 2.3v.5c0 .9-.9 2.4-1.6 3.8-.4.8-.9 1.5-1.1 2.1-.3.7-2.2 3.4-3.9 5.8-1.3 1.9-2.5 3.5-2.8 4.2 0-.1-.1-.1-.1-.2l.1-.1-.1.1c-.4.2-.7.5-.9.9l-.1.1h.4c0 .1-.1.3-.2.3s-.3-.2-.3-.3h-.1c-.1.4-.2.5-.4.6-.2.1-.4.2-.5.8 0 .5-.1 1-.4 1.2v-.1c0-.1-.1-.1.1-.2l-.1-.1c-.5.2-.6.5-.7.8v.2h-.6l.1-.2h-.2c-.1 0-.2 0-.3.1.1-.2.2-.3.3-.4.2-.4.2-.4.2-.5-.1 0-.3.3-.3.3h-.1v.1c-.1.1-.2.2-.2.4-.4.2-.8.5-.9.8v.1h.2v.1c0 .1-.1.2 0 .3l.3-.4c-.3.3-.5.5-.7.9l.1.1h.1v.1c-.1 0-.6 0-.8.1 0 0 0-.1-.1-.1 0-.1.1-.2.2-.4 0 0 .1-.1.1-.2.2-.3.5-.9.6-1 .1 0 .1 0 .2-.1l.2-.1h-.2c-.1 0-.1 0-.2.1-.8.2-.8.5-.7.8v.2l-.1.1h-.1l-.2-.2c-.1 0-.1 0-.2.1v.1h.1c0 .2-.3.6-.4.7l-.2.1H-41.1l-.6.3c-.7.4-1.7 1-2.3 1-.1 0-.3 0-.4-.1-.3.2-.4.4-.6.6-.2.3-.4.5-.8.8l-.1.1h.2c-.1.1-.2.1-.3.2l-.1.1-.1-.1c-.1 0-.4.2-.5.3-.3 0-.7.2-1.1.3-.1 0-.2.1-.3.1h-.1v.1c-.3.1-.6.3-1 .3-.1 0-.3 0-.4-.1h-.1v.1h-.1c-.1.1-.2.3-.3.4 0 0 0 .1-.1.1v.1h.1c.1-.1.2-.3.3-.4-.1.3-.4.6-.6.6h-.1c-.2-.2-.3-.2-.4-.2l-.2-.2h-.1.1l-.1.1s0 .1.1.1l.1.1.1.1c.1.1.3.2.4.2.1.1.1.2.1.2l-.4-.2h-.1v.1c-.2.3-.3.6-.3 1-.2-.1-.3-.3-.3-.5v-.1s-.2.1-.3.2c0 0 0-.1-.1-.1s-.5.2-.7.2v-.1h-.1v-.1s0-.1.1-.1.2-.1.2-.2l.2.2.1.1h.2v-.2-.2h.2l-.2-.1c-.2-.1-.3-.1-.5-.1h-.2l.1.1c0 .1.1.1.2.2-.1-.1-.1-.1-.2-.1s-.1 0-.2.1l-.1.1h-.1v.1H-52.6v.1l-.1.1h-.1l-.1-.1v.1c0 .2.2.2.2.2h.1c-.1.2-.2.3-.4.3-.1-.2-.2-.3-.3-.3-.1 0-.2 0-.3.1-.1.1-.3.1-.4.1v.1c.2 0 .3.1.3.2s-.1.2-.4.3v.1h.1c-.1 0-.1.1-.2.1 0 0-.1 0-.2-.1s0-.2 0-.4l-.1-.1c-.1.1-.5.2-.8.4-.2.1-.3.1-.4.2h-.1s.1-.2.2-.2l.2-.2-.1-.1h-.1c-.2 0-.3.1-.3.2-.1.1-.1.1-.2.1h-.1c0-.1.1-.4.1-.4l-.2.1c-.1.1-.2.1-.4.1h-.1v.6c0 .2-.1.4 0 .5-.2.2-.4.4-.6.4-.1-.2 0-.3.1-.4l.2-.1h-.2c-.4 0-.4.5-.4.8v.1l-.1-.1c-.1-.1-.2-.2-.3-.2h.1l-.2-.1c-.2.1-.2.2-.2.3 0 .1 0 .2-.2.2h-.1v-.2l-.1.1c-.1.1-.2.1-.4.1s-.4 0-.4.3v.1h.1c.1 0 .2.1.3.1.3 0 .5-.2.6-.4v.1c.1.2.2.3.3.3.3 0 .5-.3.6-.4v.1l-.1.1h.1c.4 0 .5-.1.5-.3v-.2c.1 0 .2.1.2.2v.1h.1c.1 0 .3-.2.5-.5.2-.2.4-.6.6-.7h.1v-.1H-55.4c0 .1-.2.2-.3.3-.3.2-.6.5-.6.7v.1h.1c.1 0 .4-.2.7-.4l.6-.4.1.1v.2-.2s0-.1.1-.1h.2c.5 0 .6-.1.7-.4.1-.2.2-.4.5-.7.1.1.1.1.1.2 0 .3-.4.6-.5.7H-52.9l-.2.2c-.1 0-.1 0-.2.1v.1h.1c.1 0 .1 0 .2-.1.1.1.2.2.3.2 0 0 .1 0 .1-.1.1-.1.2-.3.3-.4h.1v-.1h.5l-.1-.2c.1 0 .2.1.2.1h.1v.1c0 .1.1.1.3.1.1-.1.2-.1.3-.1.1 0 .1-.1.1-.1l.1-.1h.2c.2 0 .4.1.6.3l.1.1.1-.1c.1-.2.1-.4.1-.5h.1v.1h.1c.2-.1.9-.5 1.1-.7v.1l.1-.1s.5-.2.6-.2v.1c-.3.2-.7.5-1 .7l-.1.1-.1-.1h-.1c-.2.1-.6.2-.6.6v.1h.1c.3-.1.5-.3.7-.5h.2c1.1 0 1.9-.7 2.5-1.2.2-.1.4-.3.6-.4.1 0 .2-.1.4-.2l.2-.1h-.1c.3-.1.5-.2.8-.2h.2v-.1c-.1 0-.3-.1-.3-.2v-.2c0-.1.1-.1.1-.1l.1.1.1.1h.1v-.2.1-.1c.1-.1.2-.1.3-.1.1 0 .1 0 .2.1v.1h-.1v.1c0 .2.3.2.3.2h.1l.2.1c.2-.3.5-.7.7-1 0 .1.1.2.2.3.1 0 .3-.3.6-.7.1-.1.3-.1.6-.2 1-.3 2.6-.8 2.5-1.5h.1c1.5 0 3-1.8 3.9-2.9l.3-.3c0 .1 0 .1.1.2s.1.1.3.1h.2l-.1-.1c-.1-.1-.1-.2 0-.3h.1c.5 0 1.3-1.3 1.5-1.8 0-.1.1-.2.1-.2v.3c0 .1-.1.2 0 .3v.2h.1c0-.1.1-.1.1-.2.1-.2.2-.3.4-.4.2-.1.4-.2.5-.7h-.1c0 .1-.1.1-.1.1v-.1c.7-.3 1.5-1 2.3-1.9-.1 1.4 0 2.7.5 3.2.1.3.1.6.1.8h-.1l-.1-.1v.1c-.2.5.2 1.1.6 1.5.1.2.3.4.3.5l.9 1.8c.7 1.5 1.5 3.1 2.5 4.5l-.1.1c.7.5 1.2 1.2 1.8 1.8 1 1.1 1.9 2.1 3.2 2.4h.1v-.1c-.2-.9-.7-1.4-1.3-1.9-.4-.4-.8-.7-1-1.2-.2-.5-1-1.6-1.5-1.9l-.1.1c.1.1.1.2.1.2-.1 0-.3-.1-.4-.3.1-.1.1-.1.1-.2h-.2l.1-.1c.2.1.3.2.4.2h.1c0-.1-.2-.4-.4-.6v-.1c0-.4-.3-.7-.5-.9-.2-.1-.3-.3-.4-.5v-.1c0-.3-.4-1.6-.8-1.8-.1-.2-.1-.2-.1-.3 0-.1 0-.1-.2-.2l-.2-.1c-.2-.1-.3-.2-.3-.2 0-.1.2-.3.3-.3.1-.1.2-.1.2-.2l-.1-.2-.2-.4H-24.9l-.1-.1c-.4-.5-.3-1.3-.3-2 0-.5.1-1 0-1.4l-.1-.2v.1c-.1-.3-.1-1.1-.1-1.5 0 .1.1.1.1.2l.1.1v-.1c.1-.1.1-.3.1-.4h.1c0-.1 0-.2-.1-.2 0-.1.1-.3.1-.5h-.1v.1c0-.1-.1-.1-.1-.1h-.1v-.1c0-.3-.1-.5 0-.9.2 0 .7-1 .7-1s0-.1.1-.2c.2-.5 1-2.1 1.2-2.7l-.1-.1c-.2.2-.2.3-.2.4v.1c-.1 0-.1.1-.1.1-.1-.1.1-.8.3-1.1 0 0 0-.1.1-.1h-.1l.4-.4v.1l.1.1c.1-.1.3-.3.5-.3h.1V416.9l.1-.1c.4-.4.8-1 1.3-1.7.7-1 1.4-2.2 2.4-2.5-.2.2-.2.3-.2.3.2 0 1.8-1.4 1.9-1.6l.1-.1h-.1c-.1 0-.1-.1-.1-.1 0-.2.5-.5.9-.5.1 0 .3 0 .4.1 0 0-.2.1-.6.1h-.1l-.1.1h.8c-.3.2-.3.2-.3.3 0 0 .1 0 .1-.1h.1v.1s.1 0 .2-.1c.6-.1 1.7-.5 1.7-.5.4-.1.6-.2.9-.3.4-.1.7-.2 1.2-.4.4-.1.5-.1.6-.1-.1 0-.3.1-.5.1v.1h.3c.2 0 .4-.1.5-.1.2 0 .3-.1.5-.1h.2c-.1.1-.5.3-.6.3l.1-.1-.1-.1h-.3c-.1 0-.3.1-.4.1h-.2c-.3 0-.6.1-.9.2l-.2.1h.8c.6 0 1.2-.1 1.8-.2l.6-.1-.2-.1c-.1 0-.1-.1-.1-.1v-.1c.1.2.3.3.6.3.2 0 .5-.1.7-.1h.2l-.1-.1c.2 0 .3 0 .5.1-.3.1-.6.1-.9.1H-9v.1c0 .1.1.1 1.5.2h.4c-.1 0-.2 0-.3.1 0 0-.1.1 0 .2.7.1 1.3.2 2 .6l.1-.1v-.1c.4.1.9.4 1.3.7.2.1.4.2.5.3h.2v-.1h-.1c-.2-.1-.6-.5-.7-.6.5.2 1 .5 1.5.8l.1-.1c.3.1.4.2.5.5-.1 0-.2-.1-.3-.1-.2-.1-.4-.2-.5-.2H-3c.2.4.4.7.8 1l.2.1-.1-.3c0 .1.1.1.1.1h.1c0-.2-.1-.2-.2-.3l-.3-.3c.1 0 .2.1.3.1.1.1.3.1.4.2l-.1.1c.1.1.2.2.4.3-.1 0-.1.1-.1.2v.1c.3.1.5.3.8.6.1.1.3.3.5.4l.1-.1c.2.1.9.6 1 1.1 0 0 0 .1.1.1-.1-.1-.1-.1-.2-.1H.6v.1c.1.1.1.1.1.2H.6l-.1.1c.1.2.3.3.4.4.2.1.4.3.6.6-.1 0-.2 0-.2.1s0 .2.1.3c0 .1.1.1.1.2v.1h.1c.1 0 .1-.1.1-.1.1.1.2.4.4.8.1.3.2.5.2.5v.1h.1c.1 0 .1-.1.1-.2.3.6.7 1.5.6 1.6-.2 0-.4-.6-.4-.9 0-.1-.1-.3-.1-.3h-.1c.1.4.2.8.2 1.2.1.7.2 1.4.4 1.9v.1h.1c.1 0 .1-.1.1-.1.1.2 0 .4 0 .6 0 .3-.1.7.2 1.1v.1h.1c.1-.1.1-.1.2-.1 0 0 .1.1.1.4 0-.1-.1-.2-.1-.3h-.1v.6c0 .1.1.2.1.3 0 .1 0 .2.1.4.1.4.1 1 .1 1.2h.1v.3c-.1 0-.1.1-.1.2 0 0-.1.1 0 .1-.1-.3-.1-.5 0-.8l-.1-.1c-.2.3-.1.5-.1.8 0 .2.1.4 0 .5l-.1-.1h-.1v.1s0 .1.1.1c0 .1 0 .2-.1.5l.1.1s.1.2.1 1.2v.2s.2-.2.2-.3v.4c-.1.4-.3.7-.3.7-.1 0-.1-.2-.2-.4 0-.2-.1-.5-.4-.5H3s-.1.4-.1.7c-.1.5-.2 1.4-.3 1.8h-.1c0 .1-.1.2-.2.4-.3.7-.6 1.3-.5 1.5 0 0 .1.1.2.1-.1.4-.3.5-.5.7l-.2.2c0-.1.1-.2.2-.3 0 0 0-.1.1-.1l-.1-.1v.1c-.1.1-.3.3-.5.4-.2.1-.3.2-.2.2-.7.5-3 2.6-3.2 3v.2h.1c.2-.1.6-.5 1.2-1l.5-.5v.2c0 .1 0 .2-.3.4l-.1.1h.1c.1 0 .5-.2 1-.5-.2.5-.8 1.1-1.5 1.6l-.1-.1-.1.1c-.2.2-.4.3-.7.3h-.1v.1h.1c.2 0 .3 0 .6-.1-.4.3-1 .6-1.4.7l.2-.4-.1-.1-.2.2c.1-.2.1-.4.2-.6l.1-.2-.2.1c-.7.4-2.2.9-3 .9 0 0-.1-.1-.2-.1h-.2l-.2.1h.5c-.2 0-.4.1-.5.2l.1.1c.2-.1.4-.1.5-.1-.4.2-.8.3-1.2.3 0 0 0-.1.1-.1h.1v-.1h-.1v-.1h-.2c-.2 0-.4.1-.5.1v-.1h-.2c-.6 0-1 .2-1.4.3-.4.1-.7.3-1.2.3h-.2v-.1c0-.1-.1-.1-.3-.1-.3 0-.6.1-.7.3h-1.7c.1 0 .1 0 .2-.1l.2-.1h-.2c-.1 0-.4-.1-.8-.3-.5-.2-1.1-.5-1.4-.5h-.2l-.2.1h.2c.2 0 .3.1.4.2h-.2.1c-.1 0-.2.1-.3.2l-.1.1h.1c.1 0 .1.1.2.1s.1 0 .2-.1h.2s.1 0 .1.1-.3.1-.4.1c-.2 0-.4 0-.4.1h-.1c-.4-.1-.7-.2-1-.2 0-.2.1-.3.2-.4l.2-.1s-.8-.2-1-.3c-.1-.1-.4-.3-.5-.3h-.1v.1c-.2 0-.4-.1-.6-.1v.1l.6.3c-.1.1-.2.1-.2.2l.1.1c.1 0 .2 0 .3.1h-.4l.1.1c.4.3.7.4 1.1.5h.1s-.1 0-.2-.1c-.3-.1-.5-.1-.6-.1h-.1v.2c-.3 0-.5-.1-.8-.3l-.2-.1.1.2c0 .1 0 .1.1.1-.1 0-.1.1-.2.2 0 .2 1.1.6 1.7.7v.1c.1 0 .2.1.2.1s1.2.4 1.4.4c.1 0 .3.1.4.1.3 0 .5-.1.8-.1.2 0 .5-.1.7-.1h.1v-.1c.2 0 .4.1.6.1-.1 0-.3.1-.4.1l-.1.1c.2.1.4.2.6.2.3 0 .7-.1 1-.2.4-.1.8-.2 1.2-.2.2 0 .4 0 .6.1h.1v-.1c0-.2.2-.2.6-.2h.3c-.1 0-.2.1-.3.1v.1c.4 0 .8-.1 1.1-.2v.1c-.3 0-.8.1-1 .2l-.3.3h.1c-.2.1-.4.2-.6.2v.1c.4 0 .7-.2 1-.3.3-.2.6-.3 1-.3.2 0 .4.1.7.2 0 0-.2.1-.3.1-.3.1-.4.1-.4.2v.1h.1c.6-.1 1-.3 1.4-.6.3-.2.6-.3 1-.5-.1.1-.1.2-.2.3l.1.1c.1-.2 1.4-.6 1.9-.6h.1c-.5.3-.8.4-1.1.5-.2 0-.3.1-.5.2v.1c1.2-.1 2.5-.4 3.4-1l.9-.9.1.1c.2 0 .7-.2.9-.3h-.2c0-.1.6-.8.7-.9 0 .1-.2.3-.3.4-.1.1-.1.1-.1.2l.1.1c.1 0 .5-.3.5-.4.1 0 .1-.1.2-.1.7-.4 1.4-.8 1.5-1.7l.3-.3.1-.1c-.3.5-.3.5-.2.6h.1v-.1c.1-.4.5-.7.8-1.1.5-.4 1-.9.9-1.5l.1-.1c.1-.1.2-.5.4-1 .1-.1.1-.3.1-.4v.2H5c.2 0 1.2-3.5 1.3-4.1.1.2 0 .9-.1 1.1l.1.1c-.4-.8-.6-4.4-1-5zm-.2 1.2c0 .4.1.7-.1 1 0-.2-.1-.5-.2-.5 0 0-.1 0-.1.1v-.1c-.1-.3 0-1.1 0-1.2.1.2.1.5.2.7h.2c-.1-.2-.1-.4-.1-.5 0 .1.1.1.1.1h.1c-.1.1-.1.3-.1.4zm-29-18.2v.4l-.3.7.1.1s.1-.1.1-.2c.1.1 0 0 0 0 0-.1.1-.1.1-.2 0 .1.1.2.1.3 0 .1.1.2.1.2-.1.1-.1.1-.2.1s-.2 0-.3-.1h-.1c0-.1.1-.3 0-.3 0 0-.1 0-.1.2 0 0-.1 0-.1-.2-.1-.4.3-1 .6-1zm.7 2zm-1.3-.4s.1 0 0 0c.2 0 .2 0 .3.1.2.2.2.5.3.9l-.4.4c0-.4 0-.9-.2-1.4zm.7-1.1c0-.1 0-.1 0 0 0-.1 0 0 0 0zm.2-1.8v.1h.1v.1c0 .1-.1.1-.1.2l-.1-.1c-.1-.1 0-.2.1-.3zm2.1-.2c-.1.1-.2.1-.2.1-.1 0-.2-.1-.3-.1l.2-.2s.2.1.3.2zm.1-21.7h.1c.1 0 .1.1.2.2 0 .1.1.2.2.2h-.1l-.1.1h.1c-.1.1-.1.2 0 .2-.2-.2-.4-.4-.4-.7zm-2 6.7c-.1-.1-.1-.2-.1-.4.1.1.2.2.1.4.1 0 .1.1 0 .2v-.2zM-51 435.8s.1 0 0 0c.1 0 .1 0 0 0zm5.2-4c.1-.1.2-.1.3-.2 0 0 .1 0 .1-.1l.1.1h.1c-.2.2-.5.2-.6.2zm.6-.3zm-.1 0c.1 0 .1 0 0 0zm-6.5 2.2zm.4 2.1c0-.1 0-.1 0 0 0-.1.1-.1.2 0-.1.1-.2.2-.3.2.1-.1.1-.2.1-.2zm1.9-.9s0-.1.2-.1c0 .1.1.1.1.1-.2.1-.2 0-.3 0zm4.6-1.5zm30.9 7.4h.5c-.1 0-.3.1-.4.1l-.1-.1zm-3.3.9c-.1-.1-.3-.1-.3-.1s.1 0 .3.1c-.1-.1 0 0 0 0zm-1.1-1.1c.3.1.5.2.7.3h-.2c-.3 0-.6-.1-.7-.1.1 0 .2-.1.2-.2l.1.1-.1-.1zm11.2-.5c0-.1.1-.4.1-.4h.1c-.1.1-.1.2-.1.3l-.1.1.4-.1c-.1 0-.2 0-.4.1zm-.5 1c0 .1-.4.3-.8.4.3-.2.5-.3.8-.4zm-1.3.3l.2-.1H-9c-.2 0-.4-.1-.6-.1H-8.7c0 .1 0 .2.1.3-.4.1-.8.2-1.1.2.2-.1.5-.2.7-.3zm-3.2-1.1l.2.1c-.1 0-.1.1-.1.1s0 .1-.1.1v-.3zm-4.8.1c.1.1.2.1.3.1.2 0 .5 0 .8-.1h.2v.1c.3.1.6.2.8.2l.9.3c-.4.2-.9.4-1.4.4-.3 0-.5 0-.8-.1l-.1.1.1.1c-.4-.1-.9-.6-.9-.8-.2-.2-.2-.2.1-.3z"/><path d="M-19.9 426.8c.2.5.2 1.1.2 1.7 0 .6 0 1.3.3 1.9.1.3 1.7 2.1 1.9 2.1h.1c.1-.5 0-1.2-.2-1.9-.1-.5-.2-.9-.2-1.3 0-1.5.1-2.7.5-4.2.8-3.2 2.6-5.7 5.4-7.5l.2-.1h-.2c.1 0 .2-.1.3-.2 2-1 2-1 2-1.1-.2 0-.3-.1-.3-.1h.4l.1.1h.2v0h.1v-.1c.1-.2.1-.3.1-.3l-.1-.1v.1c.1-.3.1-.5.1-.6 0 0-.1-.1-.2-.1l-.3-.1.2.1s-.4.1-.6.1h-.1c0-.1 0-.1.1-.1l.1-.1-.1-.1h-.2c-.1 0-.3 0-.5.2v-.1l-.1.1c-.1.1-.2.1-.2.2l-.3.2c-.2.1-.4.2-.5.3v-.2l.1-.1h-.1c-.2 0-.5.2-.9.4s-1 .5-1.3.6c.1-.1.3-.2.6-.4v-.1c-.5.1-1.6.4-1.6 1.4-.1 0-.2-.1-.2-.1-.5 0-.7.7-.7.7-.4 1.1-1.2 2.1-2 3.1-.5.7-1 1.4-1.4 2.1l.1.1v-.1c0 .3-.1.5-.1.8l.1.1h.1c.1.2-.2 1.1-.4 1.7-.5.7-.6.9-.5 1zM-2.9 427.2c-.1.1.1-.1 0 0zM-6.4 425.6l.1.1c-.1.1-.1.1-.1.4v.2l.1-.2h.1v-.1c0 .1 0 .1.1.2v.1l-.1.1h.1v.1l-.1.1.1-.1s0 .1.1.1v.2c0-.1.1-.1.1-.1l.1-.1v.1s-.1.1 0 .1v.4l.1-.1s.1 0 .2-.1c.1.1.3.5.6.5h.1v.1l-.1.1c-.4.5-.4.5-.3.5l.7-.9s0 .1-.1.1v.1c0-.1-.1.2 0 .1v.1h.1s0-.1.1-.1c.1-.1.1-.1.1-.2v.1l.1-.1v.1h.1l.1-.1.1-.1h.1v.2c0 .1-.1.1 0 0h.1l.1-.1v-.1h.1v-.1.1l.1-.1v.1h.1c0-.1.1-.2.1-.2l.1-.1s0-.1.1-.1c0 0 0-.1.1-.1v-.1c.1-.2.1-.2 0-.2l-.1.1v-.1c0-.1.1-.2 0-.2 0-.1 0-.1.1-.2s0-.1 0-.2l-.1.1-.1.1.1-.1-.1-.1-.1.1v-.2l-.1.1v-.1l-.1-.1-.1-.1s-.1-.1-.2-.1v-.1h-.1v-.1l.1-.1v-.2l-.1.1v-.1.1h-.1v.1H-4l.1-.1.1-.2-.1.1H-4v-.2h-.1l-.1.1-.1-.1-.1.1v-.1s-.1 0-.1.1v-.2-.1s0-.1-.1-.1v-.1l.1-.1-.1-.1-.1.1s-.1 0-.1.1c0 0-.1.1-.2.1l-.1.1v-.1h-.1l-.1.1c-.8.6-.9.7-1.1 1zm2.3-.2zm-.1-.3zM-2.8 426.7c0-.1.1-.3 0 0zM-2.8 426.4c0-.1.1-.2 0 0z"/><path d="M-2.9 426.3c.1 0 0 .1 0 0 0 .1.1-.1 0 0zM-3.4 427.6s0-.2 0 0c-.1 0 0-.1 0 0zM-4.4 427.6c-.1.1 0 .1 0 0zM-5.8 426.9c.2-.3.1-.1 0 0z"/></g><g fill="#efa100"><path d="M-85.7 375.9c0-.1 0 0-.1.1l.1-.1z"/><path d="M-85.7 375.9c0-.1 0 0-.1.1l.1-.1zM-86.6 376.5c0-.2.3-.4.5-.5l.1-.1-.1.1c0 .1-.1.2-.2.2l-.2.2-.1.1z"/><path d="M-86.5 376.5c.1-.2.4-.2.4-.4-.2.1-.4.3-.4.4z"/><path d="M-86.4 376.5c0-.1.2-.2.2-.2h.2l-.4.2c0 .1 0 0 0 0z"/><path d="M-86.2 376.4c.1-.1-.4.2 0 0z"/><path d="M-86.1 376.3c-.2.2-.3.2 0 0z"/><path d="M-86.1 376.3c-.2.2-.3.2 0 0zM-87.1 376.8c.2-.3.4-.4.5-.4h.1v.1c-.2.1-.2.2-.3.2-.1.1-.1.2-.3.1z"/><path d="M-87.1 376.9c.2-.2.2-.2.5-.4-.1-.1-.4.3-.5.4 0 0 .1-.1 0 0zM-73.9 377.9c.1.1.1 0 0 0 .1 0 0 0 0 0z"/><path d="M-73.9 377.9c.1.1.1 0 0 0 .1 0 0 0 0 0zM-87.2 379.4c.2-.1-.1 0 0 0z"/><path d="M-87.2 379.4c.2-.1-.1 0 0 0zM-89.8 378.8c-.1 0-.1.1-.1.1s.1 0 .1-.1z"/><path d="M-89.8 378.8c-.1 0-.1.1-.1.1s.1 0 .1-.1zM-90.5 379.3l.2-.2c0-.1.1-.1.3-.2l.1.1c-.1.2-.3.3-.5.4l-.1-.1z"/><path d="M-90 378.9c-.4.2-.2.1-.5.4.3-.1.4-.2.5-.4-.1.1 0 .1 0 0zM-84.8 379.1v-.1.1-.1h.2v.1c0-.1-.1 0-.2 0z"/><path d="M-84.6 379.1v-.1c-.1.1-.1.1 0 .1z"/><path d="M-84.6 379.1v-.1c-.1.1-.1.1 0 .1zM-83.9 372c.5.2-.2 0 0 0 .1.1-.1 0 0 0z"/><path d="M-83.9 372c.5.2-.2 0 0 0 .1.1-.1 0 0 0zM-74.1 377.4c-.2 0-.4-.1-.5-.2l.1-.1s.3.1.4.1h.2v.2h-.2z"/><path d="M-74.1 377.4c.2.1-.5-.1-.5-.2.1.1.3.2.5.2 0 0-.2-.1 0 0z"/><path d="M-74.5 377.3c0 .1.1.1 0 0 0 0 .1.1 0 0z"/><path d="M-74.5 377.3c0 .1.1.1 0 0 0 0 .1.1 0 0zM-75.1 378.2c0-.1 0-.1.3-.1v.1h-.3zM-78.7 375.5c-.4-.2-.4-.2-.3-.3h.1c.1 0 .3.1.3.2l-.1.1z"/><path d="M-78.6 375.5c0-.1-.8-.5 0 0 .1-.1-.1-.1 0 0zM-74 377.9c.1-.1.1-.2.1-.2h.1c.2.1.3.1.2.2 0 .1-.1.1-.3.1l-.1-.1z"/><path d="M-73.8 377.8l-.1.1c.1 0 .5 0 .1-.1 0 0 .1 0 0 0z"/><path d="M-82.7 386.9c-.1-.3-.3-1-.6-2-.5-1.9-1.4-5-1.7-5.1-.1-.1-.2-.2-.4-.2s-.4 0-.5.1h-.2v-.2h.1-.1s-.1 0-.1.1c-.1 0-.1.1-.2.1h-.1v-.1h-.1.1v.1h-.8v.1h-.4c-.4.1-.7.1-1.1.2-.6.1-1.2.3-1.8.3v-.1c-.2.1-.5.1-.7.1v-.2h.1-.5c-.1.1-.2.1-.2.1l-.1-.1c.3-.3.5-.4.8-.6.1 0 .1-.1.2-.1v-.1c.1-.1.3-.2.4-.3.4-.3.8-.6 1-.6h.2l-.1.1-.2.1s.1 0 .1.1c0-.1.2-.3.3-.4.1-.1.2-.3.3-.3l.1-.2c.2-.2.5-.4.7-.7l.1.1c0 .1-.1.2-.3.4.2-.1.3-.3.5-.5.1-.1.2-.3.3-.3.1-.1.2-.1.2-.2l.1.1c0 .1-.1.1-.1.2 0 0 0 .1-.1.2l-.1-.1c0 .1-.1.1-.2.2h-.1.1c-.1.1-.1.3-.1.3l-.1.1s-.2.1-.3.2c-.1 0-.1.1-.2.1l-.1.1v-.1l.1.4-.4.3v-.2l-.1.1c0 .1 0 .1-.2.3.1.1 0 .1 0 .1s-.1 0-.2.1h.2l-.1.1h.1l-.3.2-1 .5c.1 0 .2-.1.3-.1v.1c.1 0 .1-.1.2-.1l.1-.1s.1-.1.2-.1h.1v.1l-.1-.1v.1s-.1 0-.2.1v.1c.3-.1.7-.2 1.1-.3l.1-.1H-88.4c.2 0 .5-.1.6-.1h.1c.2 0 .3 0 .4-.1.1 0 .2-.1.4-.1.3-.1 1-.3 1.7-.3h.4c.1.1.3.7.5 1.2.1.2.1.4.2.5.3 0 .7 1.2.8 1.4h-.1c.1.2.3.6.3.9.1.1.2.7.2.7h-.1v.1h.1v-.2h.1v-.1h.1v.1c-.1-.7.9-5.1 1.6-5.7.4-.4 1.8-.6 4.1-.6h1.1c-.1 0-.1-.1-.2-.1-.4-.2-.7-.4-1.1-.6h-.2c-.4-.2-.8-.6-.9-.8l-.1-.1c-.2-.2-1-.7-1.2-.8l-.1-.1c-.1-.1-.3-.3-.4-.5l-.1.1-.1-.1c.1-.3.1-.8.2-1.2 0-.3.1-.5.1-.6-.1-.1-.1-.1-.1-.2-.1.1-.2.1-.3.2v.1c-.2.1-.4.3-.6.5-.3.3-.6.5-1 .8h-.2c-.7 0-2.5-1.1-2.8-1.4-.2-.1-.7-.3-1.1-.5-.2-.1-.3-.1-.5-.2.3.7.5 2.1.6 4.1h-.1c0-.1-.1-.2-.1-.3-.3-.9-.4-1.3-.4-1.5-.1-.1-.2-.3-.2-.4v-.1l.3.2c0-.1-.1-.3-.2-.5-.1-.1-.1-.3-.2-.5-.1-.1-.1-.2-.2-.3-.1-.2-.5-1.3-.5-1.6v-.2c0-.1.1-.1.2-.1.3 0 .9.3 1.9.8l.2.1h-.2l.1.1.1.1h-.1c.1 0 .1 0 .2.1v-.1h.1c.3.1.4.2.6.2.2.1.3.1.6.2v.1h-.1c.7.4 1.2.6 1.8.6.8 0 1.4-.5 2.1-1.1.5-.4 1.1-.9 1.9-1.3l.2-.1-.1.2c-.1.2-.2.4-.2.5h.1c.1.1.1.1 0 .2l-.3 1.5c-.1.5-.2 1-.3 1.4.1 0 .1.1.1.1v.1s.1 0 .1.1c.3.2.3.2.2.2.3.2.6.4 1 .5l.6.3h.1v.1c0 .1-.1.1-.1.1.3.1.5.2.7.3.3.1.6.3.9.3h.1l-.1.1h-.1l.1.1.1-.1c.2.1.4.2.5.3l.1.1-.1.1-.1-.1h-.1-.1s.1 0 .1.1c.1 0 .1.1.2.1 0 0 .1.1 0 .2.4.2.6.3.7.4h.2c.2.1.3.1.3.1 0 .1 0 .1-.1.2h.3v.1c-.4 0-.9.1-1.4.2-.4.1-.9.2-1.4.3v-.1h-.1l-.2-.1h.2c.3 0 .6-.1.8-.2.2-.1.5-.1.7-.2h-.3c-.5 0-1.3.2-2 .4-.6.2-1.2.3-1.5.4v-.1h.1c-.2 0-.4.1-.5.2v.2h-.3l-.1-.1c-.1 0-.3.1-.4.1-.2 0-.3.1-.4.1v.1H-80.3c-.2.2-.4 1-.4 1.2 0 .5-.6 2.2-.9 3-.1.2-.1.3-.1.3 0 .3-.1.5-.2.8 0 .1-.1.2-.1.3-.1.5-.3 1.2-.5 1.7 0 .4 0 .6-.2.7v.2-.2zm-1.1-5.3c.1 0 .1.1.3.4v-.1c-.1-.2-.2-.5-.3-.6v.3zm-6.1-1.5c-.1 0-.3.1-.4.1l.4-.1zm15.7-2.2c.1 0 .2 0 .3.1h.1l-.1-.1-.3-.2c.1 0 .1.1 0 .2z"/><path d="M-77 376.6l1.5.9c-.9 0-4.6-.1-5.4.5-.6.5-1.7 4.8-1.6 5.6-.1.1-.1.1-.1-.1v.4c0-.7-.2.2-.1-.3 0 .3-.1.4-.3.2 0-.1.1-.2.1-.1 0-.2-.2-.9-.2-.6 0-.3-.3-.9-.4-1.1 0 .1-.1.1-.1 0 0 .1.1.2.1.3-.1-.4.1.1.1.1-.1 0-.1 0-.1.1 0 0-.5-1.1-.4-.7-.1-.2 0-.6-.1-.7.1.1.6 1 .6 1.1-.1-.4-.8-2.1-.7-1 0 0-.7-1.9-.8-2.1-.7-.1-1.7.1-2.1.2-.5.1-.4.1-.9.1-.4.1-1.3.1-2.1.4-.1-.1 0-.2.2-.3-.3 0-.7.5-.9.4.1 0 .2-.1.3-.1-.3.1-.5.2-.8.2l1.5-.8c0-.1 0-.1.1-.1-.1.1-.2.1-.3 0 .5-.4.4-.2.4-.4.3-.2.3-.3.1-.2 0-.1.6-.7.3-.1-.1.1.7-.6.7-.6.1.1 0 .2-.1.2.2-.1.5-.5.6-.4 0-.1.1-.5.4-.7.1.1 0 .1-.1.2.1-.1.2-.2.2-.3-.4.2-.8 1-1.4 1.2 0 0 .5-.5.5-.7-.6.7-1.2 1-1.6 1.6-.1 0-.2-.1-.2-.1.1-.1.2-.1.3-.2-.3 0-1.1.7-1.4.9.1 0 .2-.1.3-.1-.6.3-1 .4-1.3.8 0 0 2.1-1.2.6-.3-.1.1-.2.1-.3.2 1.3-.1.6.1.3.1.8 0 1.7-.5 1.8-.4-.4.1.4 0-.3.2.2.1.5-.1.7-.1-.3.3-.4-.1-.2.1-.4.1-.9.2-1.3.3 1.4-.1 2.8-.7 4-.6-.2-.1-.2-.1.1-.2 0 .2.3-.3.4.1-.3.1.9-.2 1 .1.4.1 2 6.3 2.3 7.1.1-.5.8-2.2.7-2.6.1.2-.1.5-.1.7.1-.5.3-.8.4-1.4 0-.1 1-2.7 1-3.3 0-.3.3-1.6.6-1.3-.2 0-.3-.1-.2-.2.1 0 .2.1.3.2-.1-.1 0-.1 0-.1.3 0 .8-.2 1.1-.2-.3.1-.3.1 0 .1 0-.3.4-.3.7-.3 0 .1 0 .1-.1.2 1 0 3.4-1.2 4.1-.7-.6-.1-1.2.3-1.8.3.2.1.4.1.6 0-.1 0-.1 0 0 0-.2 0-.4.1-.6.2 1.1-.2 1.9-.4 2.7-.5h-.4c.2-.2.3-.2-.2-.3.4.6-.1.2-.6.2.1.1.2 0 .2 0-.4.2.3-.3 0-.3.1.1.2.1.3.2 0-.1-1.2-.7-1.2-.7.1 0 .2 0 .2.1-.1-.2-.9-.5.2 0 .2-.5-1.7-.3 0-.2-.2-.1-.5-.3-.7-.4.1.1.3.1.4.1l-.2-.2c.7.4-.1-.2.5.1-.2-.1-.4-.3-.6-.4.3.4-.2 0-.3 0 .1 0 .1 0 .1-.1-.6-.1-1-.4-1.8-.7.1 0 .1-.1 0-.2.1.1.2.1.3 0-.6-.3-1.4-.6-1.8-1 .6.4-.3-.1-.3-.2.4.1 0-.2.1 0 .1-1 .5-2 .6-3.1-.1.3.2-.5-.1.1 0-.3.1-.6.2-.8-2.6 1.4-3 3.4-6 1.6h.4c-.5-.1-.5-.2-1.2-.5.1 0 .2.1.2.2-.1-.1-.7-.3-.8-.3h.4c-.1-.1-.2-.2 0-.2-.5-.3-2.1-1.1-2.1-.6-.1-.3.5 1.9.7 1.9-.2-.1-.2-.5-.3-.6.2.7.6 1.4.7 1.7 0 0-.2.1-.1.1 0 .2.1.4.3.5-.1.1.3 1.4.5 1.8 0-1.2-.2-3.5-.7-4.3 0-.1.3.4.1.2.1.1 1.3.5 1.7.7.5.3 2.5 1.6 2.9 1.3.6-.4 1.1-.9 1.6-1.2-.2.1-.3.2-.5.4 0 0 .9-.9 1-.7-.2.1-.2.2-.1.3l.1-.2c0 .1 0 .1.1 0-.1.2-.2 1.5-.4 2.1.1-.1.2-.2.2-.4-.3.4.6.8.4.8.2 0 1 .6 1.2.8.3.1.9 1 1.5 1.1 0 0-.3-.1 0 0zm-11.6 2.9c-.1 0-.1 0 0 0zm2-.2c-.6.2.5-.2.6-.1-.2 0-.4.1-.6.1-.2 0-.1-.1 0 0zm-4.9.8zm1 0c0 .1 0 .1 0 0 0 0 .1 0 0 0zm3-.2h.3c-.1-.1-.1-.1-.3 0zm7.2-.9c0 .3.1-.3 0 0zm5.4-1.7c.7.1-.3-.2 0 0 .1 0-.2-.1 0 0zM-74.8 377.2s.1.1 0 0c.1.1.1.1 0 0zM-74.8 377.2s.1.1 0 0c.1.1.1.1 0 0z"/><path d="M-87.5 377.7c0-.1 0-.1.5-.7l.1-.2v.2c0 .1-.2.4-.3.4-.2.3-.2.3-.3.3z"/><path d="M-87.2 377.4c-.1.1.2-.1.3-.3-.9 1-.5.4-.3.3zM-87.6 377.1c-.1 0-.3.2 0 0z"/><path d="M-87.6 377.1c-.1 0-.3.2 0 0zM-90.7 379.2c0-.1.4-.3.4-.3l.1.1-.5.2z"/><path d="M-90.7 379.2l.4-.2c.1-.1-.4.2-.4.2zM-89 378.8c0-.1.1-.3.2-.3.1.1.1.1 0 .2s-.1.1-.2.1z"/><path d="M-88.9 378.7c.2-.4-.2.2 0 0 .1-.1 0 0 0 0zM-91.9 380.2c0-.1 0-.1.1-.2.1 0 .1-.1.2-.1v-.1h.1c0 .1 0 .1-.2.2l-.2.2z"/><path d="M-91.5 379.8c.1 0-.4.3-.3.2 0 .1.5-.2.3-.2zM-89.6 379.3c0-.1 0-.1.1-.2l.1-.1.1.1-.1-.1.1.1c-.1.2-.1.2-.3.2z"/><path d="M-89.6 379.3c.2-.1.1-.1.2-.1 0 0-.3.1-.2.1zM-91.9 380.5c-.1 0-.1 0 0 0l-.1-.1H-91.7c.3-.1.4-.1.5-.1H-90.9v.1h-.1c-.5.1-.7.2-.9.2v-.1z"/><path d="M-91.2 380.3c-.1 0-.3.1-.4.1.8-.2-.2 0-.4.1 0 0 .3 0 .1.1.2-.1.5-.2.7-.3-.2.1 0 0 0 0zM-89.8 379.5l.1-.2.1-.1c.2-.1.3-.1.3-.1h.1v.1c-.1.1-.6.3-.6.3z"/><path d="M-89.7 379.4c.9-.5-.4.2 0 0 .1-.1.1-.1 0 0zM-91.7 380.5c.3-.2.5-.3.8-.3.1 0 .2 0 .4.1l.2.1-.3.1c-.3.1-.6.1-1 .2l-.1-.2z"/><path d="M-90.6 380.3c-.4-.1-.7-.1-1.1.2.4 0 .7-.1 1.1-.2 0 0-.2.1 0 0zM-90.5 379.8c.1-.1.3-.2.3-.2h.1v.1l-.4.1v.1-.1z"/><path d="M-90.5 379.8c.6-.3.1-.1 0 0 0 0 .1-.1 0 0zM-89.8 379.6c.1-.1.3-.1.4-.2l.1.1c-.2.1-.2.1-.3.1h-.2z"/><path d="M-89.8 379.6l.4-.2c-.1.1-.2.1-.4.2 0 0 .3-.1 0 0z"/><path d="M-89.8 379.8v-.2l.4-.2.1.1c-.4.3-.4.3-.5.3z"/><path d="M-89.7 379.7c-.2.1 0 .1.5-.2-.2 0-.4.1-.5.2zM-86 379.7s-.2 0 0 0c-.1.1.1.1 0 0z"/><path d="M-86 379.7s-.2 0 0 0c-.1.1.1.1 0 0zM-87 379.2c.1-.1.1-.2.4-.2h.2v.1c-.1 0-.4.1-.6.1z"/><path d="M-86.9 379.2c.1 0 .4-.1.5-.1-.1 0-.6 0-.5.1zM-83 383.2c-.1 0-.1-.3-.1-.3v-.1h.1c.1 0 .1 0 0 .4z"/><path d="M-82.9 383.1c-.1-.7-.1.1 0 0 0-.1 0 0 0 0zM-82.7 383.6c-.1 0-.1 0 0 0-.1.1 0 .1 0 0z"/><path d="M-82.7 383.6c-.1 0-.1 0 0 0-.1.1 0 .1 0 0zM-79.6 379v-.1c.1 0 .1-.1.2-.1h.1v.1c-.1.1-.2.1-.3.1z"/><path d="M-79.6 379c.1 0 .2 0 .2-.1-.2 0-.1 0-.2.1zM-79.3 378.9s.2.1 0 0zM-79.3 378.9s.2.1 0 0zM-77.5 378.8l-.1-.1h.1c.2-.1.5-.3.8-.3v.1c-.1 0-.2.1-.3.1-.1.1-.3.2-.5.2z"/><path d="M-77.6 378.7c.4 0 .6-.2.9-.3-.3 0-.6.2-.9.3.2.1.1 0 0 0z"/><path d="M-77.6 378.7l.3-.1-.1.1h-.2zM-77.7 378.6c0 .1.2 0 .2 0s-.1-.1-.2 0zM-76.2 378.7l-.1-.1.1.1-.1-.1.2-.1.1.1M-75 378.6v-.1h.4v.1s0 .1-.1.1c-.1-.1-.2-.1-.3-.1zM-75 378.5c.4 0-.1 0 0 0 .3 0 .3-.1 0 0zM-73 378l-.3-.2-.1-.1v-.1l.1.1.3.2v.1z"/><path d="M-73.3 377.8c.1.1.2.1.3.2.1 0-.6-.3-.3-.2.1.1 0 0 0 0zM-74 377.9v-.1h-.1v-.1h.1c.2.1.3.2.3.2v.1h-.1l-.2-.1z"/><path d="M-74.1 377.7s.4.2 0 .2c.3 0 .3-.1 0-.2-.1 0 .2.1 0 0zM-73.2 377.8c-.1-.1-.2-.1-.3-.2v-.1s.4.2.3.3l.1.1-.1-.1z"/><path d="M-73.4 377.6c.2.1.3.2.3.2.1 0-.2-.2-.3-.2zM-73.4 377.6c-.5-.2-.9-.4-1.4-.7v-.1c.1 0 .7.2.8.4l.6.3v.1z"/><path d="M-74 377.2c-.1-.1-.6-.3-.8-.4.5.3.9.5 1.4.7l-.6-.3c-.1 0 .2.2 0 0zM-73.9 377.7c-.2 0-.3-.1-.4-.2l-.1-.1h.1c.2 0 .4.1.4.3z"/><path d="M-73.9 377.6c-.1-.1-.2-.2-.4-.2.1.2.3.2.4.2 0 0-.1 0 0 0zM-75.9 376.1c-.3-.1-.4-.2 0 0z"/><path d="M-75.9 376.1c-.3-.1-.4-.2 0 0zM-76.1 376c-.1-.1-.2-.2 0 0zM-76.1 376c-.1-.1-.2-.2 0 0zM-76.3 375.8c.3.1.2.1 0 0z"/><path d="M-76.3 375.8c.3.1.2.1 0 0zM-76.7 375.7c-.1 0-.1-.1-.2-.2v-.1l.1-.1c.2.2.2.3.1.4z"/><path d="M-76.8 375.4c.2.2.1.3 0 0 0 0 0 .1 0 0zM-79.2 375.2s-.1-.2 0 0c0 0 0-.1 0 0z"/><path d="M-79.2 375.2s-.1-.2 0 0c0 0 0-.1 0 0zM-79.3 375.1c-.1-.1-.2-.1-.3-.1-.2-.1-.3-.1-.5-.3l.1-.1.4.2c.2 0 .4.2.3.3z"/><path d="M-79.6 374.8c-.1-.1-.3-.1-.4-.2.2.2.5.3.7.4 0 0-.5-.4-.3-.2zM-80 372.6l-.2-.1.1-.1.3-.3c.1.1.1.1 0 .3l-.2.2z"/><path d="M-79.9 372.4c.1-.2.1-.2-.2.1.2.1 0 0 .2-.1.1-.1 0 0 0 0zM-86.2 374.9l-.1-.2.2-.1.1.3h-.2c.1 0 .1 0 0 0z"/><path d="M-86.1 374.7c-.1 0-.1.1 0 0 0 .3-.1 0 0 0z"/></g><g fill="#efa100"><path d="M-35.2 391.5s-.2-.1 0 0zM-35.2 391.5s-.2-.1 0 0zM-35.3 391.4h-.2c-.3 0-.4-.1-.4-.1 0-.1.1-.1.3-.2h.2l-.1.1c0 .1 0 .1.1.1h.2l-.1.1z"/><path d="M-35.6 391.2c-.7.2.3.2.3.2-.3 0-.4-.1-.3-.2-.1 0 0 0 0 0zM-39.6 391s0 .1.1.1c0 .1-.1 0-.1-.1z"/><path d="M-39.6 391s0 .1.1.1c0 .1-.1 0-.1-.1zM-39.3 389.5c-.1-.1.3.3 0 0 0 0 .1 0 0 0z"/><path d="M-39.3 389.5c-.1-.1.3.3 0 0 0 0 .1 0 0 0zM-35.1 391.3s-.1-.2 0 0zM-35.1 391.3s-.1-.2 0 0zM-34.3 399.4s-.1 0-.1-.1h-.1v-.1h.2l.1-.2.1.2-.2.2z"/><path d="M-34.4 399.3c0-.2.3.2.2-.1-.1.1-.3-.1-.2.1zM-43.7 399.4c.1 0 .1-.1.1-.1s0 .1-.1.1z"/><path d="M-43.7 399.4c.1 0 .1-.1.1-.1s0 .1-.1.1zM-40.7 396.6c-.1.1 0 0 0 0zM-40.7 396.6c-.1.1 0 0 0 0zM-41.6 398.4h.2c.1 0 .2 0 .2.1s0 .1-.1.1h-.1l-.2-.2z"/><path d="M-41.4 398.5c.4-.1-.1-.1 0 0 .1 0 .1 0 0 0zM-39.5 397.8c-.1 0-.2.1 0 0z"/><path d="M-39.5 397.8c-.1 0-.2.1 0 0zM-32.5 390.2c.1 0 0-.1 0 0z"/><path d="M-32.5 390.2c.1 0 0-.1 0 0zM-36.6 391c-.1.2 0 0 0 0-.1.1 0 .1 0 0z"/><path d="M-36.6 391c-.1.2 0 0 0 0-.1.1 0 .1 0 0zM-39.6 397c-.1.1 0 .1 0 0-.1 0 0 0 0 0z"/><path d="M-39.6 397c-.1.1 0 .1 0 0-.1 0 0 0 0 0z"/><path d="M-32.8 401.9c0-.1-.6-1.1-.9-1.6v.1h-.1c-.1-.3-.2-.5-.4-.8.1-.4-1-1.8-1.4-2.4-.2-.2-.3-.4-.3-.4l-.1-.2.2.1s-.1-.1-.1-.2c-.2.2-.5.4-.7.4h-.1l-.1-.1-.1.1-.1-.1c-.1.1-.2.1-.3.2-.3.2-.5.3-.8.3-.1 0-.2 0-.3-.1-.7 0-1.4.4-2.1.8-.4.2-.9.5-1.4.6v-.1c.1-.1.3-.1.4-.2-.7.2-1.2.5-1.8.9l-.1-.1c.1 0 .2-.1.3-.2l.3-.3c.2-.1.3-.3.5-.4l.4-.4s-.1 0-.1.1l-.1-.1c.2-.4 1.4-1.2 1.6-1.2v-.1l-.1-.1c.1 0 .2-.3.2-.4h-.1s.4-.4.4-.5h.1l.1-.1V395.2h.1c.2-.1.3-.3.5-.5.3-.2.5-.5.8-.7l.1.1v.1c.1-.1.3-.4.4-.5-.2-.2-.6-.6-.6-.7-.1-.1-.1-.3-.2-.4l.1-.1-.1.1v-.1h.1c-.1-.3-.3-.6-.6-.8-.2-.2-.4-.5-.5-.7-.4-.3-.6-.7-.8-1.1v-.2c-.3-.2-.5-.4-.8-.8l.1-.1c.1 0 .1.1.2.1.1.1.2.2.4.2.8.1 2.8.9 3 1.4h.1c.4 0 .7.3 1 .5.2.1.3.3.4.3 0 0 0-.1.1-.1s.1.1.1.1c-.1.1-.1.2-.2.2s-.2 0-.4-.1c-.1 0-.2-.1-.2-.1v-.1s-.1-.1-.2-.1-.2-.1-.3-.1l-.1-.1h.1c-.5-.1-1.8-.3-1.8-.6h-.2l.1.1h-.2c-.1 0-.1 0-.1-.1h-.1c-.1-.1-.2-.1-.2-.2v-.1H-40.1v.1h-.1l.1.1c.1 0 .1.1.2.1l-.1.1c.7 1 1.2 1.6 2 2.6l.1.1h-.3c.2.4.5.7.7.9 0 .1-.1.1-.2.3-.1.1-.5.5-.5.6l-.1.2-.1.1-.1.1c-.9 1.1-1.5 1.5-1.7 1.5 0 .2-.1.3-.1.4v.1c.1-.1.2-.1.2-.1v.1c.4-.4 1-.5 1.6-.6.6-.1 1.2-.2 1.5-.6.1-.2.3-.3.5-.3 1 0 2.4 2.9 2.7 3.5h.1l.1-.1c-.3-.7.1-2.1.3-2.7 0-.1.1-.2.1-.3v-.1.1h-.2v-.1h.2s-.1-.2-.1-.3c-.1-.3-.2-.7.7-1 .1-.1.4-.2.5-.2h.2l.6-.2c.6-.2 1-.4 1.8-.6-.9-.1-2.8-.8-3.2-1.2l-.1-.1h-.2v-.1c0-.4 0-1.5.2-2v-.1h.2v-.2s0 .1-.1.1l-.1-.1h-.2v-.1c-.2.3-.5.5-.8.6-.3.1-.5.3-.6.5 0 .1-.4.4-.6.4-.1 0-.1.1-.2.1s-.2 0-.2-.1c-.1-.2.1-.6.4-1 .4-.4 1-.9 1.6-1.3.5-.3.9-.7 1.3-1l.1-.1v.2c0 .3-.1.6-.2 1-.1.7-.3 1.6-.2 2.2v.2l-.1-.1c.1.1.1.2.2.2l.3.3V391.8h.1c.1 0 .1.1.2.1h.2c.2.1.3.2.5.2h.2v.1c-.1 0-.1 0-.1.1l.1.1v.2c.1 0 .3.1.4.1.2 0 .4.1.6.2 0 0 .4.2 1 .2.1.1.3.1.5.2.3.1.8.2 1.1.3l.2.1s-.7.2-1 .3c-1.5.4-3 .9-4 1.6-1 .4-1.2 2.7-1.1 3.4-.2.5-.2 1-.2 1.5 0 .4 0 .9-.1 1.4h.6z"/><path d="M-32.6 390.1c.1-.1.2-.3.3-.4-.1.1-.2.2-.3.4.3-.3.3.3.4.2-.1-.1-.1-.1 0 0-.1 0-.1-.1-.1-.1.1.2.1.3.1.5-.2 0-.1-.4-.1-.4h-.2c-.1.5-.2 1.6-.2 2 .2 0 .4 0 .6.1h-.3c.5.5 3.1 1.4 3.6 1.2-.1 0-.1 0 0 0-1.3.4-1.8.6-2.8 1 0-.1-.5 0-.7.1-1.1.4-.6.8-.6 1.3-.3.1 0 0 0 .1-.1.4-.7 2.3-.3 3.1 0-.2-.4.1-.1.2-.5 0 .1-.2-.2 0-.3-.6-2.2-4.6-3.1-3.3-.6.9-2.5.3-3.3 1.3.1-.2.1-.2-.1 0l.2-.2c-.1.1-.8.5-.3.1 0 0-.5.3-.5.1.6-.3-.3.2.5-.2-.2.1.1-.2 0-.6.2.4 1.9-1.6 1.9-1.6.1-.1.1-.2.2-.2-.1-.2.6-.8.7-.9-.3-.2-.5-.5-.8-1h.2c-.9-1.1-1.3-1.7-2.1-2.8 0-.1.1-.1.2 0-.2-.2-.5-.4-.7-.6 0 0 .6.4.5.4-.3-.4.1.1-.2-.2.2.2.5.1.6.2-.1.1.2.2.4.4-.4-.1.6-.3.3-.2-.5.3 1.7.6 1.9.6 0 .1 0 .1-.1.1.1.1.8.2.5.3.2 0 .6.2.7.1-.1-.1-.1-.1-.1 0-.5.1-.7-.9-1.7-.7-.2-.4-2.2-1.3-3-1.3-.3 0-.4-.2-.6-.4.1.1.2.2.2.3-.1-.1-.2-.2-.3-.2.4.6.9.8 1.3 1.2-.8-.4.1.1-.5-.3 0 .2.3.3 0 0 .2.5.4.8.8 1.1.4.6.9 1.1 1.1 1.7-.1 0-.1 0-.1-.1.1.2.2.5.3.6-.3-.3.5.8.6.6-.2.1-.6.7-.6.7-.1 0 0-.3 0-.3-.5.3-1 .8-1.4 1.2-.1-.4.1.7-.2.5 0-.1.1-.2 0-.2-.1.1-.1.2-.1.1l-.4.4c.2-.2-.1.4-.2.5.2-.2.2-.1 0 .2-.2 0-1.4.8-1.6 1.2.1-.2.2-.2.3-.1.3-.3.3-.3.7-.5-.7.4-1.2 1-1.7 1.5.1-.1.2-.1.2-.2-.1.1-.6.6-.8.6.6-.4 1.2-.8 2.1-1-.2.2-.4.3-.6.4 1.1-.4 2.3-1.4 3.5-1.5.5.2.9-.2 1.6-.5-.1.4.1-.1.1-.1.3.1.4.1.1.2.2.1.9-.4.9-.4 0 .4.1.2.4.5-.1-.1-.3-.1-.4-.2.2.4 1.9 2.4 1.8 2.9.2.3.3.5.4.8 0-.1-.1-.3-.1-.4.3.2 1.2 1.8 1.2 1.9.2-1.2 0-2.1.2-2.9-.1-.8.1-3.1 1.1-3.5 1.2-.9 3.2-1.4 4.9-1.9-.6-.3-1.5-.4-1.6-.5-.6 0-1-.2-1-.2-.5-.2-1.1-.1-1.5-.6 1 .4 0 .1.4-.1-.6.1-.6-.1-1.1-.3-.1.2 0 .2.3.3-.5.2-.6-.3-.9-.6.1-.1.1-.1.1 0-.2-1 .3-2.5.3-3.4-1 .9-2.3 1.6-3 2.4-.6.7-.5 1.2-.1.9.1 0 .5-.3.5-.3.1-.5 1.2-.5 1.4-1.3-.1.5.3-.5.2-.4-.2 1.5.3-.4-.1.4.1-.1.1-.2.2-.4 0 .2-.2.5-.2.6zm1.6 2.7s-.3-.1 0 0zm.3.1c-.2-.1-.1-.1 0 0 0 0 0-.1 0 0zm-.5-1c.3 0-.1.1 0 0 .1 0 0 0 0 0z"/><path d="M-31.3 392c-.1 0 0 .1 0 0z"/><path d="M-31.3 392c-.1 0 0 .1 0 0zM-39.3 390.1l.1.1c0-.1-.1-.1-.1-.1z"/><path d="M-39.3 390.1l.1.1c0-.1-.1-.1-.1-.1zM-38.9 390.3c0-.1.1-.1 0 0z"/><path d="M-38.9 390.3c0-.1.1-.1 0 0zM-38 394.6c.1 0 .1-.1.1-.1s0 .1-.1.1z"/><path d="M-38 394.6c.1 0 .1-.1.1-.1s0 .1-.1.1zM-35.9 391.3c-.1 0 0 .1 0 0z"/><path d="M-35.9 391.3c-.1 0 0 .1 0 0zM-36.9 391.1l-.3-.2-.1-.1.1-.1h.1c.3.3.3.3.2.4z"/><path d="M-37.2 390.9c.7.3 0 0 0 0 .1 0 .1-.1 0 0zM-38.2 390c.4.1.3.1 0 0 0 0 .3.1 0 0z"/><path d="M-38.2 390c.4.1.3.1 0 0 0 0 .3.1 0 0zM-39 389.7c-.1-.1-.2-.1-.1-.2 0-.1.1-.1.2-.1h.1v.1l.1.1-.3.1z"/><path d="M-38.9 389.7c.1 0-.1-.1 0 0-.2-.1-.2-.1 0 0zM-38.7 392.4c-.1.2-.1.1 0 0z"/><path d="M-38.7 392.4c-.1.2-.1.1 0 0zM-37.7 393c-.1-.1-.2-.2 0 0zM-37.7 393c-.1-.1-.2-.2 0 0zM-38.1 393.7c-.1-.1.2.1 0 0z"/><path d="M-38.1 393.7c-.1-.1.2.1 0 0zM-40 398.2c-.1-.1 0-.2.1-.3l.1-.1v.2c-.1.1-.1.2-.2.2z"/><path d="M-39.9 398.1v-.1c-.1 0-.2.2 0 .1zM-36.1 396.7c0 .2.1-.2 0 0 0 0 0-.1 0 0z"/><path d="M-36.1 396.7c0 .2.1-.2 0 0 0 0 0-.1 0 0zM-31.3 395.3c0 .2.1-.1 0 0z"/><path d="M-31.3 395.3c0 .2.1-.1 0 0z"/></g><g fill="#efa100"><path d="M-58.1 418.2c.1-.1-.2-.1 0 0 .1 0 0 0 0 0z"/><path d="M-58.1 418.2c.1-.1-.2-.1 0 0 .1 0 0 0 0 0z"/><path d="M-58.7 418.3l.1-.3h-.1l.1-.2.1-.2V417.9h.4v.1c0 .1-.1.1-.2.1s-.2 0-.2.2h-.2z"/><path d="M-58.6 417.9c0 .1-.1.3-.1.4.1-.4.4-.1.4-.3-.2.1-.3.1-.3-.1 0 .1 0 0 0 0zM-62.6 419.3c.1.1 0 0 0 0zM-62.6 419.3c.1.1 0 0 0 0zM-64.9 418.1c.2.1-.4-.3 0 0z"/><path d="M-64.9 418.1c.2.1-.4-.3 0 0zM-62.6 418l-.3-.1h-.1v-.2h.1c.1.1.4.1.3.3z"/><path d="M-62.9 417.8c.2 0 .6.3 0 0 0 0 .1.1 0 0zM-58.1 417.8c-.1 0-.2-.1 0 0z"/><path d="M-58.1 417.8c-.1 0-.2-.1 0 0zM-52.5 425.2c-.2-.2-.2-.3-.2-.4l.1-.1.2.2-.1.1v.2z"/><path d="M-52.5 425.2c-.2-.3.2-.1-.1-.4 0 .1-.2.2.1.4zM-52.6 424.8c0-.1-.1-.1 0 0z"/><path d="M-52.6 424.8c0-.1-.1-.1 0 0zM-61.1 428.9l.1-.2c.1.1.1.1-.1.2z"/><path d="M-61.1 428.9c.2-.3.1-.2 0 0zM-59.5 426.9c.3-.1-.1-.2 0 0z"/><path d="M-59.5 426.9c.3-.1-.1-.2 0 0zM-59.5 418.5v-.4l.1.2v.1s0 .1-.1.1z"/><path d="M-61 428.6c0-.1.1-.2.1-.2.1-.1.1-.3.2-.5h-.1c.1-.2.1-.5.2-.7.1-.2.1-.5.2-.7-.1.1-.2.3-.3.5l-.1.1-.1-.1c-.2-.4.1-.8.4-1.3.2-.3.4-.7.4-.9h-.1.1v.1h-.1v-.1c0-.1-.1-.2-.1-.2v.1h-.1c0-.2 0-.4.1-.6.1-.1.1-.3.1-.4v-.1h.1v.1l.1-.1c0-.1-.1-.3-.2-.5-.1 0-.1-.1-.1-.2h.1v.1c0-.1.1-.3.1-.4h.1l.1.1s.1-.1.1-.8v-.1h-.1v-.1s0-.1.2-.2v-.1l.2.1h.1c-.1-.1-.3-.3-.3-.4 0 0 0 .1-.1.1h-.1c-.1 0-.2-.1-.5-.3l-.2-.2s-.1 0-.5-.4l.1-.1v.1l.1-.1c-.2-.3-.6-.4-1-.6-.3-.1-.6-.3-.9-.5-.1 0-.3-.1-.4-.2-.1 0-.1 0-.1-.1-.2 0-.4-.1-.6-.1 0-.1 0-.1.1-.1h-.3v-.1h.1-.1c-.1 0-.2 0-.2-.1v-.1H-64c-.4-.1-.8-.2-1.3-.4v-.1h.2l-.1-.1h.2c.1 0 .2 0 .3.1.1 0 .3.1.4.1h.1-.2v-.1h.4c.3 0 .6 0 .9-.1.2 0 .5-.1.7-.1.2 0 .4 0 .6.1v-.1h.1c.2.1.3.1.5.1 0-.1.1-.2.2-.2s.1.1.3.3c.2-.2.4-.3.5-.3.1 0 .3.1.4.3l.1-.2.1.1v.2H-58.8v.1c0 .2-.2.3-.4.3-.1 0-.2 0-.2.1l-.1-.1-.1-.1-.1-.1c-.1-.1-.2-.1-.3-.1-.2.1-.6.5-.8.6l-.1.1c-.1-.1-.2-.1-.3-.1-.2 0-.4-.1-.6-.3l-.1.1c.1.1.2.1.2.1v.1h-.2c-.2 0-.4-.1-.5-.1h-.1v.1c.1 0 .1.1.2.1v.1c.3.1.4.1.4.2.4.1.7.2 1.1.5.3.1.6.3.9.4h.1l-.2.1c.5.2.6.3.6.4.1.1.5.3.8.3h.2l-.1.1c-.2.2-.2.4-.2.7 0 0 0-.1.1-.1h.1s-.1.4-.2.4c-.1.5-.1 1.5 0 1.6l.1.1h-.1v.1c0 .1 0 .2-.1.4 0 0 0-.1.1-.1h.1c0-.1.1-.2.1-.2l.1.1v0c.1-.1.1-.2.1-.3h.1c.2-.5 1.6-1.8 1.6-1.8h.1c.6 0 3 1.5 3.7 1.9v-.1l.1-.1-.1.1.1-.1c.1.1.2.2.3.2-.2-.1-.3-.2-.4-.4l.1-.1c-.4-.4-.5-.8-.5-1.1 0-.1 0-.2-.1-.3-.1.1-.1.1-.2.1h-.1v-.1s0-.1.1-.1l-.1-.1c-.7-.6-1.3-1.2-1.2-1.6l.2-.1h-.1v-.1h.1v.1s.1 0 .1.1c0-.1.2-.3.4-.4.2-.1.4-.3.4-.4 0 0-.1-.1 0-.1 0-.1.1-.1.2-.1l-.1-.1-.1-.1h.5c0-.1 0-.1.1-.1.2-.1.4-.2.5-.3h-.2s-.1.1-.2.1h-.2l.1-.1c-.1 0-.2.1-.3.2-.1.1-.2.1-.4.1s-.4 0-.7-.1c-.2 0-.5-.1-.7-.1-.2 0-.3 0-.4.1l-.1-.1c-.1 0-.2-.1-.3-.2v-.1h.1c.1-.2-.4-.5-.6-.7-.3-.3-.4-.3-.4-.4.1-.1.1-.2.2-.2h-.2v.2h-.1v-.1h-.1c0-.1-.1-.1-.1-.1 0 .1 0 .2-.2.3.1 0 .1 0 .2.1h.2l-.2.1h-.2c.1.2 0 .3 0 .3-.1.2-.2.3-.4.3-.1 0-.3-.1-.4-.2-.2 0-.3-.1-.4-.2 0-.1.1-.2.1-.2.1-.1.2-.2.2-.3-.1-.3 0-.6.1-1s.2-.8.2-1.2h.1c0-.4 0-.8.3-1.2l.1-.1.1.1c.4.7.6 1.1.8 1.3h.1l-.1.1h.1c.2.5.9 1.5 1.3 1.9 0 0 .1 0 .1.1l-.1.1c.3 0 .4 0 .4.3v0c-.1-.1-.1-.2 0-.3H-54.2c.1 0 .2 0 .6-.2l.2-.1-.1.2c-.1.1-.1.2 0 .3h.1c.1 0 .2.1.2.2.1 0 .3 0 .5-.1s.4-.1.6-.1v.1h.3v.1c.3-.1.6-.2.8-.3v.1c.5-.1.9-.2 1.4-.2h.4l-.1.1c-.2.1-.4.3-.6.5-.4.4-.8.8-1.4 1h.1c.1 0 .2.1.3.2 0 .1 0 .1-.1.2-.1 0-.8.7-1.3 1-.2.2-.4.4-.6.5h.3l-.1.1-.1.1c.3.2.5.6.7 1 .2.3.3.6.5.8.2.3.3.6.4.9 0 .2.2.4.4.7.2.2.4.5.5.9l.1.2s-.2-.2-.3-.2c.1.1.2.3.3.4.1.1.1.2.2.2l-.1.1-.1-.1c.1.1.2.4.8 1.1.1.1.1.1.1.2l.1.1h-.2c-.3-.1-.4-.2-.5-.3 0 0-.1 0-.1-.1h-.1c-.2 0-.8-.3-1.2-.5l-.1.1c-.1-.1-.1-.1-.2-.1v.1l-.1.1c-.2-.1-.3-.3-.5-.5-.2-.3-.4-.5-.7-.6v.1h-.1l.1.2-.2-.1c-.3-.1-1.8-.7-2-1.2v-.2H-55.4l-.2.1h.1v-.1c0-.1.1-.1.3-.2h.1c-.7-.1-.8-.1-1.3-.4v.2l-.1.1s0-.1-.1-.1c-.1.1-.1.3-.2.4-.2.4-.3.6-.7.6h-.1c0 .2-.1.3-.2.5-.7.5-1 .9-1.3 1.4-.2.4-.5.8-.9 1.2l-.1-.1c-.2.4-.3.5-.3.5-.1.1-.1.2-.2.3-.1.2-.2.3-.3.5l-.1-.4z"/><path d="M-56.9 416.8v-.6.6c0-.2 0-.3.1-.4 0 .4.3-.1.3-.1.1.2 0 .1-.1.3.1 0 .2 0 .3.2-.1.1-.3 0-.3-.1-.1.1-.1.2-.2.2 0 .1 1.3 1 .9 1.2.2.3.3.1.6.2-.1 0-.2 0-.3.1.5-.3 1.9.3 2.3 0-.2 0 .2-.1 0 .1.2-.1.3-.2.5-.2 0 .1 0 .1-.1.1.1-.1.5-.1.6-.2-.2.2-.5.4-.8.5.3 0-.2.1.2.1-.2 0-.3.1-.5 0 .1.1.1.1.1.2-.1 0-.4 0-.2.2-.2.3-.7.6-.9.9-.2 0-.2-.1-.1-.2 0 .1-.1.2-.1.2-.1.5 1.2 1.6 1.3 1.7-.5.2 0 0 .1.1.1.4-.1 1 .8 1.6-.1 0-.2 0-.3-.1l.6.6c-.4-.4-.2.1-.1 0-.2-.1-.4-.2-.5-.4 0 0 .1.3.2.3-.3-.2-3.6-2.3-3.9-2-.3.3-1.7 1.7-1.6 1.8l-.2-.1c.1.5-.6.7-.2.4-.3.2-.2.3 0-.1-.2.2-.5 1-.2.2 0 0-.3.7-.4.6.4-.6 0 .1.4-.6-.6.9 0-.1-.1-.3-.1 0-.1.1-.1 0-.1.1-.3.2-.5.2.2-.2.4-.3.6-.4-.2.1-.2 0 0 0-.1-.2-.2-1.4.1-1.8-.1.4.1-.1.1-.2 0 .1-.1.1-.1.2-.2-.4-.1-.6.1-.9-.4.1-.9-.3-1-.3.3 0-.6-.4-.6-.4.1 0 .2-.1.2-.1-.9-.4-1.6-.9-2.1-.9.5-.1-.6-.3-.6-.4 0 0 .4 0 .5.1-.3-.1-.8-.4-1.1-.4.3.1.6.2.9.2-.2 0-.6-.3-.1-.1-.1 0-.3-.1-.5-.1.1 0 .2 0 .3.1-.1-.3.2 0 .4.1l-.2-.2c0 .2.8.2 1 .3-.1 0-.3-.1-.4-.2.1 0 .1-.1.2-.2.2.4.7.2.9.4 0 0 .6-.5.9-.7.1.1.6.2.5.4.2-.1.6 0 .6-.3-.3 0-.2.1-.7.1 0-.1 0-.2.1-.2l-.2.2c-.4-.4-.5-.4-1 .1-.3-.6-.3-.3-.3-.1-.2 0-.5 0-.7-.1.1 0 .2.1.2.2-.7-.5-1.7.1-2.8-.1.3 0 .3.1.2.2-.2.1-.6-.1-.8-.1.1 0 .1.1.2.1-.2 0-.3-.1-.5-.1.8.4 1.5.4 2.3.7-2.5-.3-.4-.1-.5 0-.2 0-.3-.1-.4-.1.1.1.3.1.4.1h-.6c1.3.1.2.1.2.2.2.1.4.1.5.1-.3-.2.5.2.6.2.6.5 1.5.6 1.9 1.2-.1.1-.1.1-.2 0 .1.1.4.4.5.4-.2-.4.6.6.7.5 0-.1.1-.1.1-.2-.2-.2.5.8.5.4-.1.3-.5-.1-.4 0-.3.2-.1.2 0 .1 0 .1 0 1.5-.4 1 0 .1-.1.8-.2.3 0 0 .5.7.2.9.1-.4-.2.1-.2-.3 0 .3-.3.7-.2 1 .1-.4.3 0 .3.2 0-.2 0-.2.2-.1.1.5-1.1 1.6-.8 2.2.3-.6.4-.8.7-1.3-.4.7-.5 1.6-.7 2.3 0-.1.2-.4.2-.4 0 .4-.3.9-.4 1.2.2-.3.4-.6.6-1-.2.8.6-.9.8-1.1-.1.3-.3.6-.4.9 1-1.1 1-1.9 2.2-2.7.1-.2.2-.4.2-.6.7 0 .6-.3 1-1.1 0 .1 0 .2.1.2 0-.1-.1-.2 0-.4.6.4.6.4 1.5.5-.9.6-.2-.1.3.1-.3.5 1.8 1.3 1.9 1.3-.3-.6.2.1 0-.4.6.1.8.9 1.3 1.2-.1-.2 0-.2.2-.1-.1-.1-.3-.2-.4-.4-.1 0 2 1.1 1.7.7.3.2.3.4.7.4-.1-.1-1-1.2-.9-1.4l.2.2c-.2-.2-.6-.5-.5-.8l.2.2c-.2-.7-.9-1-.9-1.6 0-.4-.1-.6-.4-.9-.5-.6-.8-1.6-1.3-1.8 0 0 .2-.1.2-.2h-.4c.3-.2 2-1.7 2.1-1.6.3-.2-.4-.3-.3-.4.9-.2 1.4-1 2-1.5-.7-.1-1.3.1-1.9.3.1-.1.2-.1.3-.2-.3.2-.7.3-1 .3 0-.1.1-.1.1-.1-.2 0-.3.1-.5.1.1 0 .1-.1.2-.1-.4 0-.9.3-1.2.2 0-.3-.4.1-.7-.1.1 0 .3.1.4 0-.1-.1-.1-.2 0-.4-.7.3-.5.2-1.2.2v.3s.3-.1.3 0c-.2 0-.3.1-.4.3-.3-.5-.1-.5-.6-.5 0-.2 0-.2.2-.1-.4-.2-1.3-1.4-1.4-2 .2.7-.9-1.2-.9-1.2-.3.4-.4.9-.2 1.4 0-.1-.1-.1-.1-.2.1.8-.4 1.6-.3 2.1.1.3-.8.5 0 .7.5.4.7.1.8-.2 0 .2.1-.1-.1-.4.1.1.2.1.3 0-.1 0-.2-.1-.3-.1.4-.2.2-.2.2-.5-.1.4-.3-.2.1.3-.2-.2-.2-.4-.2-.7 0 .1.1.3.1.4-.1-.4-.2-.7-.2-1.1.1.4.1.8.2 1.2-.1-.3-.1-.5-.1-.8.1.2.1.4.1.6-.1-1.1 0 .1 0-.4 0-.1.1.9.1.8 0 .1 0 0 0 0zm2.8 1.3s-.2 0 0 0zm.4 0c-.3 0-.2-.2 0 0-.1 0-.1-.1 0 0zm-.8-1.1c.2-.1-.2.2 0 0 0 0-.1 0 0 0z"/><path d="M-54.6 417.2c-.1 0 0 .1 0 0z"/><path d="M-54.6 417.2c-.1 0 0 .1 0 0zM-62.6 419.3s.1-.1 0 0zM-62.6 419.3s.1-.1 0 0zM-53.5 418.8c.1.1 0 0 0 0zM-53.5 418.8c.1.1 0 0 0 0zM-61.3 418.6s-.2-.2 0 0zM-61.3 418.6s-.2-.2 0 0zM-58.7 421.2s0 .1.1.1c0-.1 0-.2-.1-.1z"/><path d="M-58.7 421.2s0 .1.1.1c0-.1 0-.2-.1-.1z"/><path d="M-58.7 421.5v-.2l.1-.2.1.2v.2l-.1.1-.1-.1z"/><path d="M-58.7 421.5c0-.1.1-.1 0-.2.1 0 0 .1 0 .2zM-58.6 418.2v.2c0 .1-.1.1-.1.1h-.2l.3-.3z"/><path d="M-58.7 418.3c-.1.1-.1.1 0 0zM-60.1 418.5l.1-.1h.2c.3 0 .3 0 .3.1v.1h-.1c-.1 0-.5-.1-.5-.1z"/><path d="M-60 418.5c.7 0 0 0 0 0s0-.1 0 0zM-61.4 417.9c0-.1 0-.1 0 0v-.2H-61.1c.1.1 0 .1 0 .2v.1c-.1-.1-.3-.1-.3-.1z"/><path d="M-61.4 417.9c.2-.1.3-.1.2-.1-.5-.2.2.1-.2.1 0 0 .4 0 0 0zM-62.4 417.9c-.1 0-.2 0-.2-.1v-.2h.1c.2 0 .2.1.2.1l-.1.2z"/><path d="M-62.4 417.9c.1 0-.1-.1-.2-.1l.2.1zM-61.1 420.5v-.2l.1.1h-.1.1c0 .1 0 .1-.1.1z"/><path d="M-61 420.3l-.1.1c.1.1 0 0 .1-.1zM-59.8 420.1c-.1 0-.1-.1 0 0z"/><path d="M-59.8 420.1c-.1 0-.1-.1 0 0zM-58.6 426.1c-.1-.1 0-.4 0-.4l.1-.2v.5c0 .1 0 .1-.1.1z"/><path d="M-58.5 426v-.3c-.1.1-.2.5 0 .3zM-55.9 423.7c-.1 0-.2-.1-.2-.2v-.1h.1c.1 0 .1 0 .1.1v.2h.2-.2z"/><path d="M-56 423.4c0 .1.1.2.2.1-.1 0-.1-.1-.2-.1z"/></g><g fill="#efa100"><path d="M-64.9 368.5c.1.1.1.1.2.1s.2-.1.2-.3h.1c.2 0 2.5-.8 3.2-1.1 0 0 .1 0 .2-.1.4-.3.7-.7.9-1.2l.1-.2-.2.2c-.3.3-.5.4-.6.4H-61.1c-.2 0-.3.1-.6.3l.1.1h.1c-.3.3-.6.5-1.1.5h-.1l-.1.1c-.2.2-.3.3-.4.3v-.2h-.2c-.3.4-.6.7-1 1h-.1v-.1l-.4.2zM-71 391.3c-.2 0-.3.2-.3.3v.2l.1-.1c.1-.1.1-.2.2-.3v-.1zM-52.9 399l-.1-.1.1.1c-.1.1-.1.2 0 .2l.1.1.1-.1c-.1-.1 0-.2-.2-.2z"/><path d="M-44.4 378.3c-.1 0-.1-.1-.2-.1h.1c.2 0 .3.1.4.2l.1.1v-.1c.1-.7 0-1.3-.2-1.9.1-.1.1-.1.2-.1s.1.1.2.2l.1-.1c-.2-.4-.7-1.6-.7-1.7 0-.1 0-.2-.1-.3.1 0 .1-.1.2-.1 0 0 0-.1-.1-.1-.1.1-.1.1-.1.2-.1-.1-.2-.2-.3-.4-.3-.3-.5-.5-.6-1l.2.1v-.1c-.1-.4-.5-.7-.8-.9-.2-.1-.4-.3-.5-.5-.3-.4-.3-.5-.3-.6 0 0 .1-.1.2-.1s.2 0 .2-.1 0-.2-.1-.3c-.1 0-.2.1-.3.1-.1 0-.3-.1-.4-.2l.4-.3-.7-.1v.6c-.1 0-.5-.4-.6-.6h.6c-.4-1.1-2.2-2.4-3.4-2.4.2-.3.4-.4.7-.6h.1l-.1-.1c-.2-.2-.9-.3-1.6-.3-.3 0-.9 0-1.2.3l-.1-.1h-.1s.1-.1.3-.1v-.1c-.3 0-.4-.2-.5-.4-.1-.2-.1-.4-.4-.5 0 0-.3.2-.4.3 0-.1.1-.2.2-.3l.1-.1H-54.5c-.4 0-.8.1-1.1.2 0 0-.1-.1-.2-.1-.2-.1-.3-.1-.3-.1-.3.1-.4.1-.5.1-.1 0-.1 0-.1-.1l-.1-.1h-.1v.1c-.1.3-.6.4-1 .6-.3.1-.6.2-.7.4l-.1-.1c0-.1 0-.1.1-.2l.1-.1s-.1 0-.2.1l.1-.5h-.1c-.3.1-.6.1-.9.2v.1c.1 0 .2.1.2.1v.1c-.1-.1-.1-.1-.2-.1-.2 0-.4.2-.5.4-.1.1-.1.2-.2.2s-.2.1-.3.1l-.2.1h.2c.1 0 .2-.1.3-.1.4-.1.5-.2.7-.3l.1-.1c.2.1.7.3 1.1.3.2 0 .4 0 .5-.1 0 0 0 .1-.1.1l-.1.1h.2c.4-.1.9-.2 1.5-.2 1.1 0 2.1.2 2.3.6v.1h.1c.1-.1.3-.2.4-.2.2 0 .3.2.5.3.2.2.3.4.6.4.1 0 .2 0 .4-.1.3.3 1.7 1.7 2.4 1.7H-49.4c.1 0 .2-.1.4-.2-.1.2-.2.3-.3.5l-.1-.3-.4.6h.4c.4 0 .5.3.6.7.1.3.2.5.4.6 0 .1.5.3.7.4h-.4v.1c.4 1.1 1.1 1.6 1.7 1.8 0 .2-.1.3-.1.4-.1.2-.3.4.1 1.1.3.4.4.9.3 1.5.1.2.3.2.4.3.1.1.2.2.3.4-.1 0-.2 0-.4-.1h-.2c-.1 0-.2 0-.2-.1h-.1v.4c0 .6 0 1.3.5 1.7-.1 0-.1.1-.1.2s0 .1-.1.2l.1.1h.1c.1.1.1.1.1.2s-.1.1-.1.2v.1h-.1v.1s0 .1.1.2.2.3.1.4c0 .1-.1.1-.2.1v.1h.2c-.1.1-.2.2-.3.4v.1h.2c-.1.2-.2.5-.2.8 0 .3-.1.6-.3.9l-.1.1h.6c0 .1-.2.1-.3.2-.2.1-.4.3-.4.4 0 .1.1.2.2.3-.1 0-.1.1-.1.1l-.1-.1-.1.1c.2.3.1.6 0 1-.1.3-.2.6-.1.9-.1 0-.1-.1-.2-.1v-.1c-.3.3-.3.7-.3 1 0 .4 0 .8-.4 1-.4.4-.6.9-.8 1.4-.1.2-.2.4-.3.7-.1.1-.2.3-.2.4-.4.6-.8 1.3-.7 2-.3 0-1.1.8-1.8 1.6 0-.1 0-.1.1-.2 0-.4-.2-.5-.3-.5-.1 0-.2-.1-.3-.4l.1-.1c.1 0 .2 0 .3.1.1 0 .2.1.3.1.1 0 .1 0 .2-.1s.1-.2 0-.5v-.1l-.1.1h-.1c-.1 0-.2-.1-.4-.9.2.1.4.2.5.2.1 0 .1 0 .2-.1v-.4c-.1-.2-.2-.5-.3-.7.4.2.6.3 1.1.3v-.1c-.4-.3-.6-.6-.7-1.1.3.2.4.2.5.2h.1v-.1c.1-.3-1-1.3-1.6-1.7.3 0 .5-.1.5-.2.1-.1 0-.3-.1-.4 0-.1-.1-.2-.1-.2s.1-.1.3-.1v-.1c-.1 0-.3-.1-.5-.2-.1-.1-.2-.1-.3-.1h-.1v.2c-.1 0-.2.1-.2.1-.1 0-.3-.1-.4-.1.1-.1.1-.2.3-.2h.2l-.2-.1c-.1-.1-.2-.2-.3-.4l-.1-.1s-.1.3-.1.4c-.1 0-.3-.1-.4-.2.1 0 .3-.1.4-.4v-.1h-.1l.1-.3c-.1.1-.1.2-.1.3l-.1-.1v.1c-.1 0-.3-.1-.4-.2v-.5c-.2 0-.3 0-.5.1l.2-.1h.1l-.1-.1c-.1-.2-.2-.2-.3-.2-.1 0-.2.1-.3.2-.1.1-.2.2-.3.2-.1 0-.2-.1-.3-.2.1-.1.1-.1.2-.1s.1.1.2.2v.1l.1-.1c.2-.2.2-.4.2-.6.2.1.4.2.5.3h.1v-.1c0-.1 0-.1-.1-.2s-.3-.3-.5-.3c-.1 0-.1 0-.1.1-.3-.3-1-.5-1.5-.5v-.1h-.1s.1 0 .1-.1h.2l-.1-.1c-.2-.2-.5-.2-.8-.2-.3 0-.5-.1-.7-.3l-.1.1.2.2h-.3c-.4 0-.9-.2-.9-.4v-.1h-.2c-.1 0-.3-.1-.4-.1-.2 0-.3-.1-.4-.1-.1 0-.2 0-.2.2 0 .1.1.2.2.4-.2 0-.3.1-.4.2-.1 0-.2.1-.3.1h-.1s-.1-.2-.1-.4v-.1h-.1c-.1 0-.2.1-.3.1-.3.1-.7.2-.8.4 0-.1 0-.3.2-.4l-.1-.1c-.2.1-.6.1-1 .2-.7 0-1.6 0-1.9.8 0 0-.2.1-.3.1-.3.1-.7.2-.8.4v.2c0 .1-.3.4-.6.6-.2.2-.5.4-.6.6-.3-.1-.2-.3-.2-.5s.1-.3 0-.4c-.1-.1-.2-.1-.3-.1h-.1v.1c0 .2-.1.4-.2.6-.5.5-1.6.6-2.2.6h-.4v.1c0 .3 0 .3-.1.4v-.3h-.1c-.1.6-.7.9-1.2 1.2l-.9.6v-.2l.3-.3h-.2c-.3 0-.5.5-.7 1-.1.3-.3.7-.4.7 0 0-.1 0-.2-.6h-.1c0 .3-.1.5-.3.7l-.2.2v-.1l-.1-.1c-.2.5-1.3 2.3-2 2.3-.2 0-.3-.2-.4-.6v-.1h-.1c-.4.2-.3.4-.2.6.1.1.1.2.1.3l-.2-.6-.1.1c-.1.2-.1.3-.1.4v.3h-.1c-.2 0-.6.1-.7.4 0 .1-.1.3 0 .5H-78.3c-.2 0-.2.1-.2.2s0 .2-.2.2v.1-.1.1c.1 0 .2 0 .2.1v.1c-.1-.1-.1-.1-.2-.1-.2 0-.4.2-.5.4-.1.2-.1.3 0 .4-.1 0-.1-.1-.1-.1v-.2l-.1-.2v.4c-.1.3-.3.8-.5 1.3-.2.4-.3.8-.4 1l-.3-.5-.1.1c-.2.2-.2.4-.2.6 0 .2 0 .4-.1.5l-.2.2c-.2.2-.4.4-.3.7 0-.1 0-.1-.1-.1 0 0-.1 0-.2.1 0 .3-.1.3-.1.3s-.1 0-.1.1c0 0 .1.3.1.4-.2 0-.3-.1-.4-.1h-.2c0-.2 0-.3-.2-.5l-.1-.1v.2c0 .2.1.4.2.5-.1 0-.2.1-.3.2-.3.4-.2 1.2-.1 1.9.1.4.1.8.1 1 0-.1-.1-.1-.2-.1-.2 0-.5.3-.7.6-.1.2-.1.4-.1.5-.1-.1-.1-.3-.1-.4v-.1h-.1c-.2 0-.4.5-.6 1 0 .1 0 .1-.1.2 0 .6.2.8.5 1.1l.1.1c-.2 0-.3-.1-.4-.3l-.1-.1-.1.1c-.2.4-.3.8-.3 1.3v.5c-.1 0-.1.1-.2.1s-.1 0-.2-.2h-.1c.1.4.2 1.7.2 1.8v.3c-.1 0-.2 0-.2.1v.1h.1c.1 0 .1-.1.1-.2 0 .1.1.3.2.4.2.3.4.6.3 1.1l-.2-.2v.1c0 .4.2.7.5 1 .1.2.3.4.4.6.2.4.2.6.1.6h-.2c-.1 0-.2 0-.2.1s0 .1.1.3h.1c.2 0 .4.1.5.3l-.5.1.7.3v-.1c.1-.2.1-.4.1-.5l.1.1c.1.2.3.5.3.6-.2-.1-.3-.1-.5-.1h-.1c-.1 0 0 0 0 0 0 1.1 1.5 2.9 2.6 3.2-.2.2-.5.3-.8.4h-.1l.1.1c.2.3 1.4.8 2.1.8.2 0 .3 0 .4-.1 0 .1.1.1.2.1h-.3v.1c.3.1.3.3.3.6 0 .2 0 .4.2.5 0 0 .3-.1.5-.1-.1.1-.2.2-.3.2l-.2.1.2.1c.4.2.9.3 1.3.3h.2c.1.1.3.3.4.3.2 0 .3.1.4.1h.1l.1.1v.1l.1-.1c.2-.2.6-.3 1.1-.3.3 0 .6-.1.7-.2l.1.1c0 .1-.1.1-.1.1l-.1.1.1.1h.2l-.2.4h1v-.1c-.1-.1-.2-.1-.2-.2.1.1.2.1.3.1.2 0 .3-.2.5-.3.1-.1.2-.1.2-.2h.3l.2-.1-.2-.1h-.1c-.1 0-.1 0-.2.1-.4 0-.5 0-.8.1h-.1v-.3h-.2c-.2 0-.4-.1-.5-.2-.2-.1-.3-.2-.5-.2h-.2.1v-.1h-.1c-1.1 0-3.2-.7-3.4-1.4v-.1h-.1c-.1 0-.2.1-.3.1-.3 0-.3-.2-.4-.4-.1-.2-.2-.5-.6-.5h-.3c-.2-.4-1.2-2.3-1.9-2.3h-.2c-.1 0-.2 0-.4.1.1-.1.3-.2.4-.4v.3l.6-.5h-.2c-.6-.1-.6-.4-.6-.8 0-.3 0-.6-.2-.7 0-.1-.3-.4-.6-.6.1 0 .2 0 .3.1l.1.1v-.1c0-1.1-.6-1.8-1.1-2.2.1-.2.1-.3.2-.3.2-.2.4-.3.2-1.1-.1-.5-.1-1 .1-1.5-.1-.2-.2-.3-.3-.4-.1-.1-.2-.2-.2-.4.1.1.2.1.3.1l.1.1.1.1h.1s.1 0 .1.1l.1.1s.1-.3.1-.4c.1-.5.3-1.2-.1-1.7.1 0 .3-.1.4-.4l-.1-.1h-.1v-.2c0-.1.1-.1.2-.1h.1v-.1-.2c0-.1-.1-.3 0-.4h.2v-.1l-.2-.1c.1-.1.3-.2.4-.3l.1-.1h-.2c.2-.2.3-.4.4-.7.1-.3.2-.6.5-.7l.1-.1-.6-.2c.1 0 .2-.1.3-.1.2-.1.4-.1.5-.3 0-.1 0-.2-.1-.3.1 0 .1-.1.2-.1l.1.2.1-.1c-.2-.4 0-.6.2-.9.2-.2.3-.5.3-.8 0 0 .1.1.1.2v.1h.1c.4-.2.5-.6.6-.9.1-.2.1-.4.2-.5.2-.3.5-.5.8-.7.2-.2.5-.4.7-.6l.6-.6c.6-.6 1.3-1.2 1.3-2.1h.1c.7 0 3.4-2.4 3.4-2.8.3-.1.8-.5 1.2-.7.1 0 .1 0 .2.1v.1h-.1c-.1 0-.2.1-.3.4h-.1c-.1 0-.2.1-.3.1l-.1.1h.1c.1 0 .2-.1.2-.1 0 .1-.1.3-.1.5v.1h.1c.1 0 .1 0 .1-.1 0 .1-.2.3-.4.5-.3.4-.7.8-.7 1.1 0 .4.2.5.4.5.1 0 .3.1.3.4 0 .1-.1.1-.1.1-.1 0-.2 0-.3-.1-.1 0-.2-.1-.3-.1-.1 0-.1 0-.2.1s-.1.2 0 .5v.1l.1-.1h.1c.1 0 .2.1.4.9-.2-.1-.3-.2-.4-.2-.1 0-.1 0-.2.1v.3c.1.2.2.5.3.7-.4-.2-.6-.3-1.1-.4v.1c.4.3.6.6.7 1.1-.3-.2-.4-.2-.4-.2h-.1c-.1.3.9 1.4 1.3 1.9h-.3c-.1 0-.3 0-.4.1-.1.1 0 .3.1.7l-.4-.1v.1c.1 0 .3.2.4.3.1.1.2.2.3.2h.1v-.2h.1c.2 0 .3.1.5.2-.1.1-.1.1-.2.1h-.1l.4-.2.1.2c.1.1.2.3.2.4l.1.2s.1-.3.2-.4l.3.3h-.1c-.2 0-.3.1-.4.3l-.2.3.1.1c.1 0 .1-.1.2-.2v-.1c.1 0 .2.2.3.3l-.4.1v.1c.3 0 .4.1.4.1h-.2l-.1-.1.1.2c0 .1.1.3.3.3.1 0 .2 0 .3-.1.1 0 .2-.1.3-.1.1 0 .2 0 .3.3h-.1s-.1 0-.2-.2v-.1h-.1c-.3.2-.3.4-.3.5l-.4-.4h-.1v.1c0 .1.1.4.1.4.1.1.2.3.4.3h.1c.3.4.9.8 1.4.9v.1c0 .1.1.1.1.1H-69.1l.1.1c.3.2.6.3.9.4.3.1.5.2.8.4l.1-.1c-.2-.1-.2-.2-.2-.2.3 0 1.3.4 1.4.5v.1h.2c.1 0 .3 0 .5.1.2 0 .3.1.5.1.1 0 .2 0 .3-.2 0-.1-.1-.2-.2-.3.2-.1.3-.1.5-.2.1-.1.3-.1.3-.1s.1 0 .2.4v.1h.1s.1 0 .2-.1c.5-.2.9-.3 1-.5.1.1 0 .3-.2.4l.1.1c.2-.2.6-.2 1-.2.8-.1 1.6-.2 1.8-1 0 0 .2-.1.3-.1.3-.1.7-.2.8-.5v-.2c0-.1.3-.4.5-.7.2-.2.5-.5.5-.7.3.1.3.2.3.5 0 .2 0 .3.1.4.1.1.2.1.3.1h.1v-.1c0-.2 0-.4.2-.6.5-.6 1.8-.9 2.4-.9h.1v-.1c0-.2 0-.3.1-.4v.3h.1c.1-.6.6-1 1.1-1.4.3-.2.6-.5.8-.7v.2l-.2.3h.2c.3 0 .5-.5.6-1.1.1-.3.2-.7.3-.7 0 0 .1 0 .3.5h.1c-.1-.2.1-.6.2-.8l.2-.2v.1h.1c.3-.8 1.1-2.7 1.7-2.7.2 0 .3.2.5.5v.1l.1-.1c.3-.3.2-.5.1-.6-.1-.1-.1-.2-.1-.3l.4.5v-.2-.4-.3h.1c.2 0 .6-.2.7-.6 0-.1 0-.3-.1-.5h.2c.1 0 .2 0 .2-.1.1-.1.1-.2 0-.2 0-.1 0-.2.2-.2v-.2c-.1 0-.1 0-.2-.1v-.1h.1c.2 0 .3-.2.4-.4.1-.2.1-.4 0-.5.1 0 .1.1.1.1v.2l.1.2v-.2-.2c0-.3.1-.8.2-1.4.1-.4.1-.9.2-1.1l.1.2.1-.1c.1-.2.1-.5 0-.7-.1-.2-.1-.4 0-.5 0-.1.1-.2.1-.3.2-.3.3-.5.1-.8.1.1.1.2.2.2s.1 0 .2-.1c-.1-.3 0-.3.1-.4 0 0 .1 0 .1-.2l-.2-.4c.2 0 .4 0 .6-.1 0 .2.1.3.4.4l.1.1-.1-.2c-.1-.2-.2-.4-.4-.4.1 0 .1-.1.2-.2.3-.5 0-1.3-.3-2-.1-.4-.3-.7-.3-.9h.1c.2 0 .5-.3.6-.6.1-.3.1-.5 0-.7.1.1.1.2.2.4v.1h.1c.2-.1.3-.5.3-1.2v-.2c-.8-.4-1.1-.6-1.4-.8zm-16.7 23.1c-.2-.1-.5-.2-1-.2-.2 0-.4 0-.6.1-.2.1-.5.1-.7.2-.5.2-1 .3-1.5.3-.3 0-.5 0-.8-.1h-.1c-.1.1 0 .1 0 .2s0 .1-.1.2c.1-.2.1-.4 0-.5v-.1l-.1.1c-.1.1-.2.1-.3.1-.1 0-.1 0-.2-.1 0-.1-.3-.3-1.2-.9-.3-.2-.6-.4-.8-.6l.3-.1-.1-.1c-.1-.1-.2-.1-.3-.1h-.1v-.1l-.1.1c-.1-.3-.2-.7-.4-1-.3-.6-.7-1.3-.5-1.8-.2-1.2-.1-3.2.7-5l.6.2-.1-.1c-.1-.2-.1-.4-.1-.6.2 0 .3-.1.5-.3.2-.3.4-.8.3-1.3h.1V390.2c0 .1.1.1.3.1.2-.1.4-.4.6-.7.1-.2.3-.5.3-.5s.1 0 .1.1l.1.1v-.2c0-.4 0-.9-.1-1.3 1.2-.5 2.6-1.3 2.8-1.8.2.1.6.3 1.2.3h.4c.3 0 .5-.1.8-.2.5-.1.9-.2 1.4-.2.3 0 .6 0 .9.2h.1c.1-.1 0-.1 0-.2s0-.1.1-.2c-.1.2-.1.4 0 .5v.1l.1-.1c.1-.1.2-.1.3-.1h.2c0 .1-.1.2-.2.3h-.1v.1c.1.2.2.2.5.2.1 0 .3 0 .4-.1.2 0 .3-.1.5-.1s.4.1.5.2c.3.4.4.4.6.5.1 0 .1 0 .2.1l-.2.2h.4v.1h.1c.1.2.2.3.3.5.1.2.3.4.3.5 0 .1.1.2.1.4.3 1 .5 1.6.7 1.8-.2.2-.4.7-.3 1 0 .1.1.2.2.2-.3.4-.4.8-.4 1.2-.1.3-.1.7-.3 1.1l-.6-.2.1.1c.1.2.1.4.1.6-.2 0-.3.1-.5.3-.3.3-.4.8-.3 1.3h-.1v-.1-.2c0-.1-.1-.1-.3-.1-.5.3-.8.8-1 1.4-.1 0-.1 0-.2.1-.2.2 0 1 .2 1.5-.9-.1-3.5 1.6-3.7 2.4zm-9.3-11.6c-.1 0-.1 0 0 0v-.1.1zm.8-.6s0 .1-.1.1h-.1c.1 0 .1 0 .2-.1zm17 5.6l-.2.2-.1.1v.1l-.4.1c0-.2.3-.4.6-.6.1-.1.2-.1.3-.2 0 0-.1.2-.2.3zm-25.6-1.6l.1.1c0 .1-.1.1-.1.1h-.1c-.1-.1-.1-.2-.1-.2h.2zm-.7.4zm31.6-1.6l-.1-.1c0-.1.1-.2.1-.2.1 0 .2.1.2.2l-.2.1z"/><path d="M-50.5 396.6s-.1 0 0 0c-.1 0-.1.1-.2.2s-.3.3-.2.5h.1c0-.1.1-.3.2-.4 0-.1.1-.2.1-.3-.1 0 0 0 0 0zm-.1 0zM-45.6 371.9c0-.1 0-.1-.3-.2v.1c.2.1.2.1.3.1zM-44.7 374.1l.2-.1h-.1l-.3-.3-.1-.1v.1c0 .1.1.2.1.2 0 .1.1.2.2.2zM-44.5 381.8c.1 0 .4.1 0 0zM-67.7 420l-.1-.1c-.1 0-.2.1-.2.3l-.1-.1h-.4c-.7 0-2.3.1-2.9.2 0 0-.1 0-.2.1s-.2.1-.4.2c-.3.2-.7.3-.8.7v.1l.1-.1c.3-.2.5-.3.7-.3.1 0 .1 0 .2.1s.1.1.3.1c.1 0 .3 0 .5-.1v-.1h-.1c.3-.1.5-.2.8-.2.1 0 .3 0 .5.1l.1-.1c.1-.1.3-.2.4-.2l-.1.2c.4-.3.8-.5 1.2-.6h.1l-.1.1.6-.2-.1-.1zM-71.8 387.6v-.1V387.2l-.1.1c0 .1-.1.1 0 .2l.1.1zM-74.4 389.5c.1 0 .1-.1.2-.1.1-.1.3-.3.2-.5h-.1c0 .1-.1.2-.2.4 0 0-.1.1-.1.2zM-84.5 411.9c-.3-.1-.4-.2 0 0zM-85 409.6c-.1-.1-.1-.1-.2-.1h-.1l-.1.1h.1c.1.1.2.2.2.3l.1.1.1-.1c0-.1 0-.2-.1-.3zM-83.3 402.2c-.1-.1-.3-.2 0 0z"/></g><g><path d="M-119.2 448.8l.6.8-.3 1.4.3.3h.3l.3-1.4h.5c.8 1.5-.6 4.2-1 5.8-.5 2.5-1 5-1 7.5.4 4.8 4.2 2.8 6.2.6 1.5-1.7 1-3.9 1.5-6.1.5-2.3 0-5.4 0-7.8l.6-.6c.5.2.7.5.6 1.1 1.1-2 2.8-.6 1.9 1.4.8 0 .2-1.2 1.1-1.4l.3.3h.3l-.9 12.9c-.2 2.8.5 9.1-3 9.2l.3-2.8h-.6v1.7l-.8.8c.1-1 .2-2 .3-3.1-1.1 0-.4-1-1.1-1.1-.4-.1-2 .9-2.4 1.1-1.9.9-2.5 1.3-4.6.6v.3c-6.2 0-3.7-17.8-1.7-21.1h.3v1.1h-.6v.6l.3.3v.3h-.3l.3.8-.8 1.4h.3l.3-.3c-.3 2-.9 4.1-.8 6.1.5-1 .5-10.7 3.3-10.7 0 0-1.4 0 0 0zm-3.3 11.1l-.3.3v2.2h.3c.1-.9.3-2 0-2.5zm.6 6.7c0 .5.1.9.3 1.4h.3c0-.6-.2-1.2-.6-1.4zm1.9 1.4v.3c0 1.2 2.2 1.7 3.1 1.7-.8-.6-2.2-1-3.1-2 0 0 1 1.1 0 0zm6-2.4h.3c.6-.7 1.6-1.9 1.7-2.2l-2 2.2z" fill="#c12f0f"/><path d="M-100.6 449.9l1.8 1.5c.1-.6.3-.8.8-.8 1.2 3 3.2 6.5 3.6 9.6h-.3l-.5-1.5h-.3c.2 1.7 1.1 3.3 1.8 4.8h.3c.7-4.6 1.7-9.2 2.9-13.8.3.2.5.3.8.5l.8-.3 1.5.8c-.5.4-.8.8-.5 1.3l.3.3h.3l.3-1.3h.5v.3l-.3.3.3.3c-.5 2.7-1.4 5.3-1.9 8-.4 2.3-.5 7.9-2 9l.5-4.1c-.6 0-1.1 3-1.2 3.3-.5 2-1.7 1.5-2.1 2.7-1.7-.2-1.1-2.3-1.7-3.8-1.2-3.5-2.7-8.5-4.9-11.2-.6 2.9-.7 10.6-2 11.9-1 .3-1.3.9-2 1.3-.5-1-.5-2.7-.8-3.3v2.3h-.5c-.8-2.7 0-6.2.5-8.9.2-2.4.5-9.8 4-9.2zm-3.5 6.3v.3l.3.3-.3.3v.5h.3l.3-1c-.2-.3-.4-.4-.6-.4zm9.6 4.1c.8 0 1 1.8 1 2.3-.5-.5-.7-1.5-1-2.3.5 0 0 0 0 0z" fill="#008ccb"/><path d="M-80.8 450.4c0 .5 1.1 1.2 1.4 1.8l-.3.3h.3c-1.5 4.5-2.1 9.2-2.3 14l.3.3v.3l-.3.3h.3l-.3.3c.3 2.3-.7 6-3.5 4.3l.4-1.8-1-1c.4-3.4.6-6.9 1.3-10.1l-.2-.3v-.3h.5v-.3l-.2-.3 1-4.8h-.3l.3-.3.1-1.5-.2-.3c.5-.5 1.7-.5 2.7-.6-.1.5 0 0 0 0zm-3.6 19.5l-.1 1.3c.6-.5.9-1.1.1-1.3zm0-10.1l-.1 1.5h.3c.1-.6.1-1.3-.2-1.5zm.4-2.3l-.1 1.5h.3c.1-.6.1-1.2-.2-1.5zm.4-2.5l-.1 1.8h.3c.1-.7.1-1.5-.2-1.8z" fill="#3d9337"/><path d="M-78.9 449c1.6 0 2.9.7 3.3 2v-.8h.5c.8 2.3 2 6.1 1.5 8.1l.3.3v2.3h.5l-.3.3v1.3h.3c.8-2 2.8-6.1 4.3-6.6l.5-.8h-.3l-.5.5v-.3l2.8-3h.5l1 1-1.3 1.5h.8c.2-.8.7-1.4 1.5-1.8v.8c-.8.1-1.4.6-.5.8 0-.5.3-.8.8-.8 0 1.9-3.7 5.1-4.8 7.1-1.4 2.6-2.9 5.2-4.3 7.8h-.5l-.3-.3c-.8 0-.6.8-1.3 1-1.5 0-2.1-1.3-1.5-2.5l-.5.5v.8l.3.3v.3l-.3.3h-.5c-.3-.7-.3-1.4 0-2h-.3l.3-.3c0-4.2-.1-8.6-.7-12.8-.1-.7-.2-2.2-.9-2.6 0-.1-.1-1.9-.4-2.4 2.1 0 0 0 0 0zm2.3 7.6v1.3h.3c.1-.6.1-1.1-.3-1.3zm.3 2v2.8h.3c-.1-.9 0-2.2-.3-2.8zm4.6.3c-.1.5-.4.9-.8 1.3.1-.5.4-1 .8-1.3zm-.8 7.1l.3.3h.3c.2-.5.3-1 .5-1.5-.6.2-.9.6-1.1 1.2 0 0 .3-.8 0 0zm1-8.1h.3v.8l-.3.3h-.3c.1-.4.2-.8.3-1.1zm.3 6.1v.3l.8-.8c-.2-.4-.6.1-.8.5zm2.7-10.2c-.5 1.2-1.5 2.3-2.3 3.3.4-1.3 1.4-2.4 2.3-3.3 0 0-1.1 1.1 0 0zm1.8-1.8v.3l-1 1c-.1-.2.3-1.1 1-1.3 0 0-.4.2 0 0zm.3 3.3l-.8 1.3h.3c.5-.4.9-.9.5-1.3z" fill="#efa100"/><path d="M-49.9 450l1.2.9c-.8 3.3-5.9 2.3-8.6 2.5v.5c.9.1 1.9.1 2.8-.1l.2.3c.8 0 1.7-.1 2.6-.1v.3l-5.9.6-.5 3.3c2.4-.1 4.8-.3 7.1-.5l.2.3v.3h-.5v.3l1.7.4v.3c-1 2.5-7.6 2.3-9.8 2.4l.2.3-1.2 3.2h-.1l.1-2.3h-.3l-.5 3.5c3.6-.5 8.4-1.7 12-.5v.5h-.5l.2.3v.8c-.7.9-2.5.9-3.1 1.1l2 .1v.5c-3.3.5-6.6 1-10 1.5-3.7.5-3.4-.9-2.6-4.1l-.2-.3h.5l-.1 1.3h.3c.1-1.1.6-.9.4-1.5l.2-2.5h-.5l-.3 1.3.3-.2h.3l-.1 1.5h-.3v-.7h-.3v.5h-.3c.1-1.6.5-3.2.8-4.8h-.3l.6-1.2-.2-.3c.1-1.5.4-3 .6-4.5l.2.3h.3c-.2-1.7.2-3.2.3-4.8.2 0 .4.1.5.3l.3-.2c.2 0 .4.1.5.3l.3-.2c3-.5 6.3-.8 9.5-.9zm-12.7 11.1l-.1 1.8h.3c.1-.6.1-1.4-.2-1.8zm8.4.4h.3v.3l-4.6.5-.2-.3v-.2l2.3-.1c.3.2 1.4-.1 2.2-.2z" fill="#3d9337"/><path d="M-43.1 449.6c2.9 0 7.4 0 8.3 3.6.6 2.6-1 4-2.4 6 1-.5 1.9-1.5 2.8-2.3-.3 2.4-2.5 4.3-4.8 4.8-.1 3.6 6.4 6.6 7.4 9.9l-1.3-1c.3.4 1.3 1.5 1.3 2.3-.5.2-1.2.7-1.8.8l-.5-.8-.3.3h-.3c-3.8-3.1-6.2-6.6-8.4-10.9-1 0-1.8 6.9-1.5 7.9h-.8c-.4-.2-.6-.5-.5-1-.7 1.2-1.8.6-2.3-.7.5-3.5 1.1-6.9 1.8-10.4h.3v1h.3l1.3-5.3c-.4 0-.7.9-.8 1v-.5h-1.5v-.3c0-.5 1.5-1 1.5-1-.8.1-1.6.3-2.3.5 0-.4.9-.7 1-.8-3 0 2.8-2.7 3.5-3.1zm-3.6 10.7v1h.3c.1-.5.1-.9-.3-1zm.5-3.3h.3v1c-.4-.1-.4-.5-.3-1zm.5-2.3h.3c0 .6-.1 1.2-.3 1.8h-.3c.1-.6.1-1.2.3-1.8zm2.8 4.1c1.8-.6 5.5-2.4 5.8-4.6 0-1.3-4.3-2.5-4.6-1.1-.3 1.9-.8 3.8-1.2 5.7zm3.8 9.1v.3c.3.4.7.7 1 1-.1-.6-.4-1-1-1.3 0 0 .4.1 0 0zm2.1-12.2l-1.3 1.8h.3c.6-.6 1.2-1.3 1-1.8zm-.8-3.3c.2.6.5 1 1 1.3 0-.7-.4-.8-1-1.3.4.8 0 0 0 0zm0 17.3v.3l1 .8c-.1-.5-.5-.9-1-1.1zm1.5-15.8l-.3 1.3h.3l.3-.3c.1-.4.1-.8-.3-1zm1.8 2.3h.5l-.3.8c-.3-.1-.3-.4-.2-.8z" fill="#c12f0f"/><path d="M-25.3 449.7c1 .8 3.5.4 4.3.8h-1.8v.3c1.3 0 4 .2 3.9 2h-1.3v.3l1.8.3v.3h-1.5v.3c.4-.1.7.1.7.5-2.8 0-6.6 1.1-8.1 3.6 2.3.6 7.7 3.2 7.8 6.1-.8 2.7-3.7 6.3-6.7 6.3v.3h.5c-.1 1.3-4.4 1.3-4.6 1h1.3v-.3c-1.6 0-6-3.8-3.3-4.8 1.7 1.4 5.5-.3 7.1-1.5 3.1-2.2-.3-4.7-2.4-3.9l-2.5-1 .2.3v.5c-1.3-1-3.7-2.4-2.7-4.3.8-1.4 1.4-3.1 2.9-3.9.2.9.9-.2 1.6-.7.9-1 1.8-1.8 2.8-2.5.5.3 0 0 0 0zm-3.5 21v.3c.8 0 1.5 0 2.3-.3v-.3c-.8.1-1.6.2-2.3.3zm.1-14.2v.3c2.2-1.3 4-2.8 6.5-3.3v-.5c-2.3.3-4.9 1.8-6.5 3.5 0 0 1.3-1.4 0 0zm1.4 10.4h.3l.5-.5c-.4 0-.7.2-.8.5zm1.3 2.1v.3c.4-.2.9-.4 1.3-.8-.4.1-.8.3-1.3.5zm3.2-2.1l-1.1 1.3h.3c.5-.5 1-1 .8-1.3z" fill="#008ccb"/><path d="M-4.4 449.7l1.2.9c-.8 3.3-5.9 2.3-8.6 2.5v.5c.9.1 1.9.1 2.8-.1l.2.3c.8 0 1.7-.1 2.6-.1v.3l-5.9.6-.5 3.3c2.4-.1 4.8-.3 7.2-.5l.2.3v.3h-.5v.3l1.7.4v.3c-1 2.5-7.6 2.3-9.8 2.4l.2.3-1.2 3.2h-.3l.1-2.3h-.3l-.5 3.5c3.6-.5 8.4-1.7 12-.5v.5h-.5l.2.3v.8c-.7.9-2.5.9-3.1 1.1l2 .1v.5c-3.3.5-6.6 1-10 1.5-3.7.5-3.4-.9-2.6-4.1l-.2-.3h.5l-.1 1.3h.3c.1-1.1.6-.9.4-1.5l.2-2.5h-.5l-.3 1.3.3-.2h.3l-.1 1.5h-.3v-.7h-.3v.5h-.3c.1-1.6.5-3.2.8-4.8h-.3l.6-1.2-.2-.3.6-4.5.2.3h.3c-.2-1.7.2-3.2.3-4.8.2 0 .4.1.5.3l.3-.2c.2 0 .4.1.5.3l.3-.2c3.1-.5 6.4-.8 9.6-.9zm-12.7 11.1l-.1 1.8h.3c.1-.6.1-1.4-.2-1.8zm8.4.4h.3v.3l-4.6.5-.2-.3v-.2l2.3-.1c.3.2 1.4-.1 2.2-.2z" fill="#efa100"/></g><g><path d="M-126.5 472.7c.2 1 1.9.4 2 .9.2 1 .5 2 .7 3 .4 1.9.9 3.8 1.3 5.7h1.8v.3l-1.5.3v.3c.9 0 1.6.7 2.8.5v.3c0 .7-2.3 1-2.5 1 .8 1.3 0 2.4.5 3.8l-.3.3h.3l-.3.3c.1 1.5.3 3 .3 4.5l-.3-.3h-.3l.8 3.8h-.5c-.2-.3-.3-.5-.5-.8 0 .4.1.7.3 1h-.3l-.3-.3h-.3c-.2.3-.3.5-.5.8-.4-1.4-.8-2.9-1.3-4.3h-.3v1h-.3l-.5-3 .8.5c0-1-.5-2.2-.5-2.8v-.8h-.5v.8h-.3v-1l.3-.3h-.3l-.3.3v-1h.3l.3.3h.3l-.3-.3V486l-5.5 1.3v.5c1.4-.7 2.6 0 4-.5v.5c-4.7.8-5.4 2.4-6.8 6.6h-.8l-.3-.3h-.3v.3l-.8-.5.5-1.5h-.3c-.8 0-.8 1.6-.8 2l-.5-.5.3-1.5-.8-.8 4.3-10.3h.3c.2.3.3.5.5.8.1-.4.2-.8.3-1.3l-.3.3h-.3c0-.8 0-1.5.3-2.3l.3.3h.3l-.3-.3c.1-.4.2-.9.5-1.3h.6l.3.3h.3v-.3c0-1.2-.9-.1-.3-1.9.3-.7.5-1.4.8-2.1h1l-.3.3c.4-.4 2.2-1.1 3.2-1.1.2.5-1 0 0 0zm-7.3 10.8l-.3 1h.3c.4-.5.8-1 0-1zm.8-1.3l-.3.3v.5h.3c.2-.3.4-.7 0-.8zm1.5 1l-.3 1h.3l.3-.3c.1-.3.1-.6-.3-.7zm1.3-3.2l-.5 1.8-.3-.3h-.3l.3 1h.3c.3-.9.8-2 .5-2.5zm2.2-1.5l-2 5.3c3.6.2 4-3.3 2-5.3zm-1.5 5.7v.3c.5 0 2.8 0 2.8-.8-.9.2-1.9.4-2.8.5zm3.6 5.6h.5v1.5c-.4-.2-.6-.9-.5-1.5zm1 2.5v.5l.8-.3c0-.6-.4-.5-.8-.2zm2.5-.7c0 .5.1 1 .3 1.5h.3c0-.7-.2-1.3-.6-1.5z" fill="#008ccb"/><path d="M-117.2 474.3h.7l.2 1.2c.5 0 .8-.5 1-.7l.5.5-.2 1.5h.2l-.2.2v.2l.2.2v.2h-.2l.2.2c-.1 2.9-.2 5.7-.2 8.6h.2l.7-2.5h.6l-1.7 4.7h.5l2.9-8.4h-.5l-1 3.2h-.5c.3-1.4 1.1-2.8 1.7-4.2h.2v.5l2-.5c.8.3.7.8 1.2.5h.7l1 5.9h.2c0-3.4 2.4-10.2 4.1-12.7l.2.7h.2v-.5c1.8-.3 2.8.8 1.7 2.2h.5l.2-1.7h.5l.5.5c-1.1 6.6-3.7 13.1-5.6 19.5l-.7.2v-.5l-.2.2h-.2l-.2-.2c0 1.7-2.6.8-2.5.2-.3-1.3-1.1-2.2-1.3-3.6-.2-1.2-.4-2.3-.6-3.5-1.3 0-2.8 7.1-4.2 8.1h-.1c-1-2.1 3.5-7.7 3.7-10.6-1.4 1.4-2 4.2-2.7 6-.4 1.1-.9 2-1.2 3.1-.5 1.8-.8 1.3-2.5 1.3l-.2-1-.2.2h-.2c0-1.1-.6-1.9-.7-2.9l1 .7-.5-4.2.2-.2-.2-.2.2-.2h-.2l.2-.2c0-1.6-.1-3.1.2-4.7h-.2l.2-.2V475l-.2-.2c-.1-.1.2-.4.6-.5zm14.4.1c-1.3 4-3.4 8.6-3.6 12.9h.2c.7-2 4.5-12.4 3.4-12.9-2.4 7.5 0 0 0 0zm-1.9 15.4c-.2.9-.4 1.8-.5 2.7h.2c.3-1 .6-2.1.3-2.7zm1.5-5.9c-.2.8-.4 1.6-.5 2.5h.2c.3-.9.7-2 .3-2.5z" fill="#efa100"/><path d="M-97.1 494.7h-.7l-.2-.2h-.2v.2l-.7-.5.5-1.5h-.2c-.8 0-.7 1.6-.7 2l-.5-.5.2-1.5-.7-.7 4.2-10.1h.2c.2.2.3.5.5.7.1-.4.2-.8.2-1.2l-.2.2h-.2c0-.7 0-1.5.2-2.2l.2.2h.2l-.2-.2c.1-.4.2-.9.5-1.2h.2l.2.2h.2v-.2c0-1.1-.9-.1-.3-1.8.2-.7.5-1.4.7-2.1h1l-.2.2c.4 0 2.2-.7 3.2-.7.1.5-1 0 0 0 .2 1 1.9.4 2 .8.2 1 .4 1.9.7 2.9.4 1.9.8 3.7 1.3 5.6h1.7v.2l-1.5.3v.2c.8 0 1.6.7 2.7.5v.2c0 .7-2.3.9-2.5 1 .8 1.3 0 2.4.5 3.7l-.2.2h.2l-.2.2c.1 1.5.3 2.9.2 4.4l-.2-.2h-.2l.7 2.6h-.5c-.2-.2-.3-.5-.5-.7 0 .3.1.7.2 1h-.2l-.2-.2h-.2c-.2.2-.3.5-.5.7-.4-1.4-.8-1.7-1.2-3.1h-.2v1h-.2l-.5-2.9.7.5c0-1-.5-2.2-.5-2.7v-.7h-.5v.7h-.2v-1l.2-.2h-.2l-.2.2v-1h.2l.2.2h.2l-.2-.2v-1.4l-5.4 1.2v.5m3.7-.5v.5m-6.4-3.9l-.2 1h.2c.4-.5.8-1.1 0-1zm.8-1.3l-.2.2v.5h.2c.2-.3.4-.6 0-.7zm1.5 1l-.2 1h.2l.2-.2c.1-.4.1-.7-.2-.8zm1.2-3.2l-.5 1.7-.2-.2h-.2l.2 1h.2c.3-.9.8-1.9.5-2.5zm2.2-1.5l-2 5.2c3.6.3 3.9-3.1 2-5.2zm-1.5 5.7v.2c.5 0 2.7 0 2.7-.7-.9.1-1.8.3-2.7.5zm4.5 7.9v.5l.7-.2c.1-.7-.3-.6-.7-.3zm2.4-.8c0 .5.1 1 .2 1.5h.2c.2-.6 0-1.2-.4-1.5z" fill="#c12f0f"/><path d="M-77 474.8c2.8 0 7.2 0 8 3.5.6 2.5-1 3.9-2.4 5.9 1-.5 1.8-1.4 2.7-2.2-.3 2.4-2.4 4.1-4.7 4.7-.1 3.5 6.2 6.4 7.1 9.6l-1.2-1c.3.4 1.2 1.5 1.2 2.2-.5.2-1.1.7-1.7.7l-.5-.7-.2.2h-.2c-3.7-3-6-6.4-8.1-10.6-1 0-1.7 6.7-1.5 7.6h-.7c-.4-.2-.6-.5-.5-1-.7 1.2-1.7.6-2.3-.7.4-3.4 1-6.7 1.8-10.1h.2v1h.2l1.2-5.2c-.4 0-.7.9-.7 1v-.5h-1.5v-.2c0-.5 1.5-1 1.5-1-.7.1-1.5.3-2.2.5 0-.4.9-.7 1-.7-2.8-.1 2.9-2.7 3.5-3zm-3.5 10.3v1h.2c.2-.5.2-.9-.2-1zm.5-3.2h.2v1c-.3-.1-.3-.5-.2-1zm.5-2.2h.2c0 .6 0 1.2-.2 1.7h-.2c-.1-.6 0-1.1.2-1.7zm2.7 3.9c1.8-.6 5.3-2.4 5.7-4.4 0-1.3-4.2-2.5-4.5-1.1-.4 1.9-.8 3.7-1.2 5.5zm3.7 8.9v.2l1 1c-.2-.5-.5-1-1-1.2 0 0 .3.1 0 0zm2-11.8l-1.2 1.7h.2c.7-.6 1.2-1.3 1-1.7zm-.8-3.2c.2.6.5 1 1 1.2 0-.7-.4-.8-1-1.2.4.7 0 0 0 0zm0 16.7v.2l1 .7c-.1-.3-.5-.7-1-.9zm1.5-15.2l-.2 1.2h.2l.2-.2c.2-.5.1-.9-.2-1zm1.7 2.2h.5l-.2.7c-.4 0-.4-.4-.3-.7z" fill="#3d9337"/><path d="M-61.6 479.7l-.3 3.2c2.3-.2 4.6-.6 6.9-.9l.2.2v.2h-.5v.2l1.7.3v.2c-.8 2.5-7.2 2.6-9.4 2.8l.2.2-1 3.2h-.2v-2.2h-.2l-.3 3.4c3.4-.6 8.1-2.1 11.6-1.1v.5h-.5l.2.2v.7c-.6.9-2.4 1-3 1.2h2v.5c-3.2.6-6.4 1.3-9.6 1.9-3.5.7-3.3-.7-2.7-3.8l-.2-.2h.5v1.2h.2c.1-1 .5-.9.3-1.5v-2.4h-.5l-.3 1.2.3-.2h.2v1.5h-.2v-.7h-.2v.5h-.2c.1-1.6.4-3.1.6-4.7h-.2l.5-1.2-.2-.2c.1-1.5.2-2.9.3-4.4l.2.2h.2c-.3-1.6 0-3.1.1-4.7.2 0 .4.1.5.3l.2-.2c.2 0 .4.1.5.2l.2-.2c3.1.1 6.3-.4 9.4-.6l1.2.8c-.6 3.3-5.6 2.6-8.2 2.8v.5c.9.1 1.8 0 2.7-.2l.2.3m-7.7 7.3v1.7h.2c.2-.6.1-1.4-.2-1.7zm8.1-.1h.2v.2l-4.4.7-.2-.3v-.2l2.2-.2c.4.3 1.4-.1 2.2-.2z" fill="#008ccb"/><path d="M-47.7 474.8l1.7 1.5c.1-.6.3-.8.7-.7 1.1 2.9 3.1 6.3 3.4 9.3h-.2l-.5-1.5h-.2c.2 1.6 1.1 3.2 1.7 4.7h.2c.7-4.5 1.7-8.9 2.8-13.3.2.2.5.3.7.5l.7-.2 1.5.7c-.4.3-.8.8-.5 1.2l.2.2h.2l.2-1.2h.5v.2l-.2.2.2.2c-.5 2.6-1.4 5.2-1.9 7.8-.4 2.2-.5 7.7-1.9 8.7l.5-3.9c-.6 0-1.1 2.9-1.2 3.2-.4 1.9-1.6 1.4-2 2.7-1.7-.2-1.1-2.2-1.6-3.7-1.2-3.4-2.6-8.2-4.8-10.8-.6 2.8-.6 10.3-2 11.6-1 .3-1.3.9-2 1.2-.5-.9-.5-2.6-.7-3.2v2.2h-.5c-.8-2.7 0-6 .5-8.6.8-2.4 1-9.6 4.5-9zm-3.4 6.1v.2l.2.2-.2.2v.5h.2l.2-1c-.1 0-.2-.1-.4-.1zm9.3 3.9c.8 0 1 1.8 1 2.2-.5-.4-.7-1.4-1-2.2.4 0 0 0 0 0z" fill="#efa100"/><path d="M-21.3 476.4l1.2.8c-.8 3.2-5.7 2.3-8.3 2.4v.5c.9.1 1.8.1 2.7-.1l.2.3c.8 0 1.6-.1 2.5-.1v.2l-5.7.6-.4 3.2c2.3-.1 4.6-.3 6.9-.5l.2.3v.2h-.5v.2l1.7.4v.2c-1 2.5-7.3 2.2-9.5 2.3l.2.2-1.2 3.1h-.2l.1-2.2h-.2l-.5 3.4c3.5-.5 8.2-1.7 11.6-.4v.5h-.5l.2.3v.7c-.6.8-2.5.8-3 1l2 .1v.5c-3.2.5-6.4.9-9.6 1.4-3.5.5-3.3-.9-2.5-4l-.2-.3h.5l-.1 1.2h.2c.1-1 .6-.8.3-1.5l.2-2.4h-.5l-.3 1.2.3-.2h.2l-.1 1.5h-.2v-.7h-.2v.5h-.2c.1-1.6.5-3.1.8-4.6h-.2l.6-1.2-.2-.3c.1-1.5.4-2.9.5-4.4l.2.3h.2c-.2-1.6.2-3.1.3-4.7.2 0 .4.1.5.3l.3-.2c.2 0 .4.1.5.3l.3-.2c2.7.3 5.9 0 8.9-.1zm-12.3 10.8l-.1 1.7h.2c.3-.6.2-1.4-.1-1.7zm8.2.3h.2v.2l-4.5.4-.2-.3v-.2l2.2-.1c.4.4 1.5.1 2.3 0z" fill="#3d9337"/><path d="M-10.9 474.2c1 .8 3.3.6 4.1.9l-1.7-.1v.2c1.3.1 3.9.4 3.7 2.1l-1.2-.1v.2l1.7.3v.2l-1.5-.1v.2c.4 0 .6.1.7.5-2.7-.1-6.4.8-8 3.1 2.2.7 7.3 3.5 7.2 6.3-.9 2.6-3.9 5.9-6.8 5.8v.2h.5c-.1 1.3-4.4 1.1-4.5.8l1.2.1v-.2c-1.5-.1-5.7-3.9-2.9-4.8 1.6 1.5 5.3-.1 6.9-1.1 3.1-2-.1-4.5-2.2-3.9l-2.4-1.1.2.3v.5c-1.2-1-3.5-2.5-2.4-4.2.8-1.4 1.5-2.9 3-3.6.1.9.8-.1 1.6-.6.8-.6 1.8-1.3 2.8-1.9.4.3 0 0 0 0zm-4.4 20.2v.2c.8.1 1.5 0 2.2-.1v-.2c-.7-.1-1.5 0-2.2.1zm.8-13.8v.2c2.1-1.2 4-2.5 6.5-2.9l.1-.5c-2.4.3-5 1.7-6.6 3.2 0 0 1.3-1.2 0 0zm.8 10.2h.2l.5-.5c-.2 0-.5.2-.7.5zm1.3 2v.2c.4-.2.9-.3 1.3-.7-.5.2-.9.3-1.3.5zm3.1-1.8l-1.1 1.2h.2c.6-.5 1.1-1 .9-1.2z" fill="#c12f0f"/><path d="M3.1 473.8c1 .8 3.3.4 4.1.7H5.5v.2c1.3 0 3.9.2 3.8 2H8.1v.2l1.7.2v.2H8.3v.2c.4-.1.7.1.7.5-2.7 0-6.4 1.1-7.8 3.4 2.2.6 7.4 3.1 7.5 5.9-.7 2.6-3.6 6.1-6.5 6.1v.2h.5c-.1 1.3-4.3 1.3-4.5 1h1.2v-.2c-1.5 0-5.8-3.7-3.2-4.7 1.7 1.4 5.3-.3 6.8-1.4 3-2.2-.3-4.5-2.3-3.8l-2.4-1 .2.2v.5c-1.3-.9-3.6-2.4-2.6-4.1.8-1.4 1.3-3 2.8-3.7.2.9.8-.2 1.5-.7 1-.4 2-1.1 2.9-1.9.5.4 0 0 0 0zm-3.4 20.4v.2c.8 0 1.5 0 2.2-.2v-.2c-.7.1-1.5.1-2.2.2zm.1-13.7v.2c2.1-1.3 3.9-2.7 6.3-3.2v-.5c-2.2.4-4.7 1.9-6.3 3.5 0 0 1.3-1.3 0 0zm1.3 10.1h.2l.5-.5c-.2 0-.5.2-.7.5zm1.4 1.9v.2c.4-.2.9-.4 1.3-.7-.5.2-.9.3-1.3.5zm3.1-1.9l-1.1 1.2h.2c.6-.5 1-1 .9-1.2z" fill="#008ccb"/></g></svg>