<svg xmlns="http://www.w3.org/2000/svg" viewBox="-1323 784 233 233"><circle fill="#FFF" cx="-1206.5" cy="900.5" r="116.1"/><circle fill="#03709C" cx="-1205.8" cy="900" r="35.3"/><path fill="#FAFDFF" d="M-1169.3 900.1c0-1.1-.1-2.2-.2-3.2-.3-3.5-1.2-6.9-2.4-10.1-.1-.2-.2-.5-.3-.7-1.7-4-4-7.6-6.9-10.7l-.6-.6c-.5-.6-1.1-1.1-1.7-1.6-6.6-6-15.3-9.6-24.9-9.6s-18.4 3.7-25 9.8c-1.5 1.4-2.9 3-4.2 4.6-4.8 6.3-7.7 14.1-7.7 22.6 0 20.4 16.6 37 37 37 14.3 0 26.8-8.2 32.9-20.2 1.3-2.6 2.3-5.3 3-8.1.2-.7.3-1.5.5-2.2.4-2.1.6-4.3.6-6.5-.1-.2-.1-.4-.1-.5zm-7-14.7l.2-.2c.3.5.5 1.1.8 1.7h-.3l-.7.1v-1.6zm-5.3-6.5v-1.7c.6.6 1.1 1.3 1.7 1.9l-.7 1h-2.3l-.1-.5 1.4-.7zm-44.6-4.1l.7-.1.1-.3h1.2v.6l-.3.5h-1.7v-.7zm1.2 1.6s.7-.1.8-.1 0 .7 0 .7l-1.7.1-.3-.4 1.2-.3zm51.1 14.7h-2.7l-1.6-1.2-1.7.2v1.1h-.6l-.6-.4-3-.8v-2l-3.8.3-1.2.6h-1.5l-.7-.1-1.8 1v1.9l-3.7 2.7.3 1.2h.8l-.2 1.1-.5.2v2.9l3.2 3.7h1.4l.1-.2h2.5l.7-.7h1.4l.8.8 2.1.2-.3 2.8 2.4 4.2-1.3 2.4.1 1.1 1 1v2.7l1.3 1.7v2.3h1.1c-6.2 7.6-15.7 12.5-26.3 12.5-18.7 0-33.9-15.2-33.9-33.9 0-4.7 1-9.2 2.7-13.3V886l1.2-1.5c.4-.8.9-1.6 1.4-2.3l.1.6-1.4 1.7c-.4.8-.8 1.7-1.2 2.5v1.9l1.4.7v2.7l1.4 2.3 1.1.2.1-.8-1.3-2-.3-1.9h.8l.3 2 1.9 2.7-.5.9 1.2 1.8 3 .7v-.2l1.2.2-.1.8.9.2 1.4.4 2 2.3 2.6.2.3 2.1-1.8 1.2-.1 1.9-.3 1.2 2.6 3.2.2 1.1s.9.3 1 .3 2.1 1.5 2.1 1.5v5.8l.7.2-.5 2.7 1.2 1.6-.2 2.6 1.6 2.8 2 1.8h2l.2-.6-1.5-1.3.1-.6.3-.8.1-.8h-1l-.5-.6.8-.8.1-.6-.9-.3.1-.6 1.3-.2 2-1 .7-1.2 2.1-2.7-.5-2.1.6-1.1 1.9.1 1.3-1 .4-4.1 1.4-1.8.3-1.2-1.3-.4-.9-1.4h-3l-2.4-.9-.1-1.7-.8-1.4h-2.1l-1.2-1.9-1.1-.5-.1.6-2 .1-.7-1-2.1-.4-1.7 2-2.7-.5-.2-3-2-.3.8-1.5-.2-.9-2.6 1.7-1.6-.2-.6-1.3.3-1.3.9-1.7 2.1-1h4v1.2l1.4.7-.1-2.1 1-1 2.1-1.4.1-1 2.1-2.2 2.2-1.2-.2-.2 1.5-1.4.5.1.3.3.6-.6.1-.1-.6-.1-.6-.2v-.6l.3-.3h.7l.3.1.3.6.4-.1v-.1h.1l1-.2.1-.5.6.1v.6l-.6.4.1.6 1.9.6h.4v-.8l-1.5-.7-.1-.4 1.2-.4.1-1.2-1.3-.8-.1-2-1.8.9h-.6l.2-1.5-2.4-.6-1 .8v2.3l-1.8.6-.7 1.5-.8.1v-1.9l-1.7-.2-.8-.5-.3-1.2 3-1.8 1.5-.5.1 1h.8l.1-.5.9-.1v-.2l-.4-.2-.1-.5 1.1-.1.6-.7.2-.2 2.2-.3 1 .8-2.6 1.4 3.3.8.4-1.1h1.4l.5-1-1-.3V873l-3.2-1.4-2.2.3-1.2.7.1 1.6-1.3-.2-.2-.9 1.2-1.1-2.3-.1-.6.2-.3.8.8.1-.2.8-1.4.1-.2.6-2.1.1-.1-1.2h1.6l1.2-1.2-.7-.3-.9.9-1.5-.1-.9-1.2h-1.6l-2 1.5h1.8l.2.5-.5.4 2 .1.3.7-2.3-.1-.1-.6-1.4-.5-.8-.4h-1.7c5.6-4.1 12.5-6.5 19.9-6.5 8.6 0 16.4 3.2 22.4 8.5l-.4.7-1.6.6-.7.7.1.8.8.1.5 1.2 1.4-.6.2 1.6h-.4l-1.1-.2-1.3.2-1.2 1.7-1.8.3-.3 1.5.7.2-.2 1-1.7-.3-1.6.3-.3.9.3 1.9.9.4h1.6l1.1-.1.3-.8 1.7-2.2 1.1.2 1.1-1 .2.8 2.6 1.8-.3.4-1.2-.1.5.6.7.2.9-.4v-1l.4-.2-.3-.3-1.8-1-.5-1.3h1.5l.5.5 1.3 1.1.1 1.3 1.3 1.4.5-1.9.9-.5.2 1.6.9 1h1.8l.9 2.7-.2.2zm-49.2-10.8l.9-.4.8.2-.3 1.1-.9.3-.5-1.2zm4.7 2.6v.7h-2l-.8-.2.2-.5 1-.4h1.3v.4h.3zm.9.9v.7l-.5.3-.6.1v-1.1h1.1zm-.5-.2v-.8l.7.6-.7.2zm.3 1.6v.7l-.5.5h-1.1l.2-.7h.5l.1-.3.8-.2zm-2.7-1.4h1.1l-1.4 2-.6-.3.1-.8.8-.9zm4.6 1.2v.7h-1.1l-.3-.4v-.6h.1l1.3.3zm-1-.9l.3-.3.5.3-.4.3-.4-.3zm43.4 8.7c.1.1.2.3.2.5l-.2-.5z"/><g fill="none" stroke="#03709C" stroke-miterlimit="10" stroke-dasharray="2,2"><circle cx="-1206.3" cy="900.5" r="46.3"/><circle cx="-1206.3" cy="900.5" r="60.2"/><circle cx="-1206.3" cy="900.5" r="78.3"/><circle cx="-1206.3" cy="900.5" r="78.3"/></g><circle fill="#03709C" cx="-1260.1" cy="958.6" r="15.7"/><g fill="#FFF"><circle cx="-1260.1" cy="953.2" r="4.8"/><path d="M-1252.4 965c0 1-15.4 1-15.4 0 0-4 3.4-7.7 7.7-7.7 4.3 0 7.7 3.7 7.7 7.7z"/></g><circle fill="#03709C" cx="-1257.4" cy="841.3" r="15.7"/><g fill="#FFF"><circle cx="-1257.4" cy="835.9" r="4.8"/><path d="M-1249.7 848c0 1-15.4 1-15.4 0 0-5 3.4-7.7 7.7-7.7 4.3 0 7.7 2.7 7.7 7.7z"/></g><circle fill="#03709C" cx="-1133.1" cy="872.9" r="15.7"/><g fill="#FFF"><circle cx="-1133.1" cy="867.5" r="4.8"/><path d="M-1125.4 879c0 1-15.4 1-15.4 0 0-4 3.4-7.7 7.7-7.7 4.3 0 7.7 3.7 7.7 7.7z"/></g><g><circle fill="#03709C" cx="-1192.5" cy="957.7" r="10"/><g fill="#FFF"><circle cx="-1192.5" cy="954.2" r="3.1"/><path d="M-1187.6 962c0 1-9.8 1-9.8 0 0-3 2.2-4.9 4.9-4.9s4.9 1.9 4.9 4.9z"/></g></g><g><circle fill="#03709C" cx="-1189.9" cy="842.7" r="10"/><g fill="#FFF"><circle cx="-1189.9" cy="839.2" r="3.1"/><path d="M-1185 847c0 1-9.8 1-9.8 0 0-3 2.2-4.9 4.9-4.9s4.9 1.9 4.9 4.9z"/></g></g><g><circle fill="#03709C" cx="-1251.6" cy="893.1" r="7.6"/><g fill="#FFF"><circle cx="-1251.6" cy="890.4" r="2.3"/><path d="M-1247.9 896c0 1-7.5 1-7.5 0s1.7-3.7 3.7-3.7c2.2 0 3.8 2.7 3.8 3.7z"/></g></g><g><circle fill="#03709C" cx="-1162.6" cy="914.8" r="7.6"/><g fill="#FFF"><circle cx="-1162.6" cy="912.1" r="2.3"/><path d="M-1158.9 918c0 1-7.5 1-7.5 0 0-2 1.7-3.7 3.7-3.7s3.8 1.7 3.8 3.7z"/></g></g></svg>