<svg xmlns="http://www.w3.org/2000/svg" viewBox="-181 304.9 233 233"><circle fill="#FFF" cx="-64.5" cy="421.4" r="116.1"/><path fill="#03709C" d="M-101.1 379.8c-.5-.4-2.1.8-3.7 2.9l-2.4.1h-.1l-.2.2c-.1-.1-.4-.2-.4-.3-.1 0-.2 0-.3.2-.1.1-.1.3-.1.3l.4.3c-.1.1-.1.2-.1.3l.8 2.1c-1.5 2.4-2.2 4.5-1.6 4.9.1.1.2.1.3.1 1.3.1 3.3-.5 4.9-1.8.4.1.8.2 1.2.2l.9 1.3.2-.1.3.5.2-.1.1 1.5.3-.2-.1-1 .5.7 1.4-.9-.5-.8 1 .5.3-.2-1.2-.6.2-.1-.3-.5.2-.2-1.5-2.5c-.1 0-.4-.1-.6-.2 1.1-2.3.9-4.8.1-6.4-.1-.1-.1-.2-.2-.2zm-5.5 5.4c-.1.2-.2.3-.3.5l-.6-1.4v-.3h.1c.2.2.5.7.8 1.2zm5.1 2l.4.1-.2.8-.8-.2c.2-.2.3-.4.4-.5l.2-.2zm-1.5 1.6l.2-.2.2.2h-.4zm-3.1-4.4c-.1.2-.2.3-.3.5l-.7-1.1c.1 0 .2-.1.2-.1v-.2l1.2.4c-.1.2-.3.4-.4.5zm-.8-1.1v-.1c0-.1.2-.2.2-.2l1.7-.1c-.2.2-.4.5-.6.7l-1.3-.3zm5 5.5l-.6-.6.2-.2.9.2-.1.5c-.1.1-.2.1-.4.1zm1.3.4l-.5.4-.3-.3c.3-.1.5-.2.8-.3v.2zm-.1-.8l-.6.3.1-.4.5.1zm-.1-.2l-.4-.1.2-.8h.1l.1.9z"/><circle fill="#03709C" cx="-64" cy="422.5" r="48.1"/><g opacity=".7"><path fill="#8AA25E" d="M-40 508h-1.1v-.6h1.1v.6zm1.7-.1v-.6h1.1v.6h-1.1zm-4.6 0c-.4 0-.8 0-1.1-.1v-.6c.4 0 .8 0 1.1.1v.6zm7.4-.1v-.6c.4 0 .8-.1 1.1-.1v.6c-.3.1-.7.1-1.1.1zm-10.2-.1c-.4 0-.8-.1-1.1-.1l.1-.6c.4 0 .7.1 1.1.1l-.1.6zm13.1-.1l-.1-.6c.4 0 .7-.1 1.1-.1l.1.6c-.4 0-.7 0-1.1.1zm-15.9-.2c-.4 0-.8-.1-1.1-.2l.1-.6c.4.1.7.1 1.1.2l-.1.6zm18.7-.2l-.1-.6c.4-.1.7-.1 1.1-.2l.1.6c-.3.1-.7.2-1.1.2zm-21.6-.3c-.4-.1-.7-.1-1.1-.2l.1-.6c.4.1.7.1 1.1.2l-.1.6zm24.4-.2l-.1-.6c.4-.1.7-.1 1.1-.2l.1.6c-.3.1-.7.2-1.1.2zm-27.1-.3c-.4-.1-.7-.2-1.1-.3l.1-.6c.4.1.7.2 1.1.3l-.1.6zm29.9-.3l-.1-.6c.4-.1.7-.2 1.1-.3l.1.5c-.4.3-.7.4-1.1.4zm-32.7-.4c-.4-.1-.7-.2-1.1-.3l.2-.5c.4.1.7.2 1.1.3l-.2.5zm35.4-.3l-.2-.5c.4-.1.7-.2 1.1-.3l.2.5c-.3.1-.7.2-1.1.3zm-38.2-.5c-.4-.1-.7-.2-1.1-.3l.2-.5c.4.1.7.2 1.1.3l-.2.5zm41-.3l-.2-.5c.4-.1.7-.2 1.1-.4l.2.5c-.4.1-.8.3-1.1.4zm-43.7-.6c-.4-.1-.7-.3-1.1-.4l.2-.5c.4.1.7.3 1.1.4l-.2.5zm46.4-.4l-.2-.5c.4-.1.7-.3 1.1-.4l.2.5c-.4.2-.8.3-1.1.4zm-49-.6c-.4-.1-.7-.3-1.1-.4l.2-.5c.3.1.7.3 1 .4l-.1.5zm51.6-.4l-.2-.5c.3-.1.7-.3 1-.5l.2.5c-.3.2-.7.3-1 .5zm-54.3-.7c-.3-.2-.7-.3-1-.5l.2-.5c.3.2.7.3 1 .5l-.2.5zm56.9-.5l-.2-.5c.3-.2.7-.3 1-.5l.3.5c-.4.2-.8.3-1.1.5zm-59.4-.8c-.3-.2-.7-.4-1-.5l.3-.5c.3.2.7.4 1 .5l-.3.5zm61.9-.5l-.3-.5c.3-.2.7-.4 1-.5l.3.5c-.3.2-.7.3-1 .5zm-64.4-.8c-.3-.2-.7-.4-1-.6l.3-.5c.3.2.7.4 1 .6l-.3.5zm66.9-.6l-.3-.5c.3-.2.6-.4 1-.6l.3.5c-.4.2-.7.4-1 .6zm-69.4-.9c-.3-.2-.6-.4-1-.6l.3-.5c.3.2.6.4 1 .6l-.3.5zm71.8-.6l-.3-.5.9-.6.3.5-.9.6zm-74.2-1c-.3-.2-.6-.4-.9-.7l.3-.5.9.6-.3.6zm76.6-.6l-.3-.5c.3-.2.6-.4.9-.7l.3.5c-.3.3-.6.5-.9.7zm-78.9-1c-.3-.2-.6-.5-.9-.7l.3-.4c.3.2.6.5.9.7l-.3.4zm81.1-.7l-.3-.4c.3-.2.6-.5.9-.7l.4.4c-.4.3-.7.5-1 .7zm-83.3-1.1c-.3-.2-.6-.5-.9-.7l.4-.4c.3.2.6.5.9.7l-.4.4zm85.6-.7l-.4-.4c.3-.2.6-.5.9-.7l.4.4c-.4.3-.7.5-.9.7zm-87.8-1.1c-.3-.3-.6-.5-.8-.8l.4-.4c.3.3.6.5.8.8l-.4.4zm89.9-.7l-.4-.4c.3-.3.6-.5.8-.8l.4.4c-.3.2-.5.5-.8.8zm-92-1.3l-.8-.8.4-.4.8.8-.4.4zm94-.7l-.4-.4.8-.8.4.4c-.2.3-.5.5-.8.8zm-96-1.3c-.3-.3-.5-.6-.8-.8l.4-.4c.3.3.5.6.8.8l-.4.4zm98-.8l-.4-.4c.3-.3.5-.6.8-.8l.4.4c-.3.3-.5.6-.8.8zm-99.9-1.3c-.2-.3-.5-.6-.7-.9l.4-.4c.2.3.5.6.7.9l-.4.4zm101.8-.8l-.4-.4c.2-.3.5-.6.7-.9l.4.4c-.2.3-.5.6-.7.9zm-103.6-1.4c-.2-.3-.5-.6-.7-.9l.4-.3c.2.3.5.6.7.9l-.4.3zm105.4-.8l-.4-.3c.2-.3.5-.6.7-.9l.5.3c-.4.3-.6.6-.8.9zm-107.1-1.5c-.2-.3-.4-.6-.7-.9l.5-.3c.2.3.4.6.7.9l-.5.3zm108.8-.8l-.5-.3.6-.9.5.3-.6.9zm-110.5-1.5c-.2-.3-.4-.6-.6-1l.5-.3.6.9-.5.4zm112.1-.9l-.5-.3c.2-.3.4-.6.6-1l.5.3c-.2.4-.4.7-.6 1zM-97 475.7c-.2-.3-.4-.6-.6-1l.5-.3c.2.3.4.6.6 1l-.5.3zm115.1-.9l-.5-.3c.2-.3.4-.7.6-1l.5.3c-.3.3-.4.7-.6 1zm-116.5-1.6c-.2-.3-.4-.7-.5-1l.5-.3c.2.3.4.7.5 1l-.5.3zm117.9-.9l-.5-.3c.2-.3.4-.7.5-1l.5.3c-.2.3-.4.7-.5 1zm-119.2-1.6c-.2-.3-.3-.7-.5-1l.5-.2c.2.3.3.7.5 1l-.5.2zm120.4-1l-.5-.2c.2-.3.3-.7.5-1l.5.2c-.1.3-.3.7-.5 1zm-121.6-1.6c-.2-.3-.3-.7-.5-1l.5-.2c.1.3.3.7.4 1l-.4.2zm122.8-1l-.5-.2c.1-.3.3-.7.4-1l.5.2c-.1.3-.2.7-.4 1zm-123.9-1.6c-.1-.4-.3-.7-.4-1.1l.5-.2c.1.4.3.7.4 1.1l-.5.2zm125-1l-.5-.2c.1-.4.3-.7.4-1.1l.5.2c-.2.4-.3.7-.4 1.1zm-126-1.7c-.1-.4-.2-.7-.4-1.1l.5-.2c.1.4.2.7.4 1.1l-.5.2zm126.9-1l-.5-.2c.1-.4.2-.7.3-1.1l.5.2c-.1.4-.2.7-.3 1.1zm-127.8-1.7c-.1-.4-.2-.7-.3-1.1l.5-.2c.1.4.2.7.3 1.1l-.5.2zM24.7 459l-.5-.2c.1-.4.2-.7.3-1.1l.5.1c-.1.5-.2.9-.3 1.2zm-129.3-1.6c-.1-.4-.2-.7-.3-1.1l.6-.1c.1.4.2.7.3 1.1l-.6.1zm130-1.1l-.6-.1c.1-.4.2-.7.2-1.1l.6.1c0 .3-.1.7-.2 1.1zm-130.7-1.7c-.1-.4-.2-.7-.2-1.1l.6-.1c.1.4.1.7.2 1.1l-.6.1zM26 453.5l-.6-.1c.1-.4.1-.7.2-1.1l.6.1c0 .4-.1.7-.2 1.1zm-131.8-1.7c-.1-.4-.1-.8-.2-1.1l.6-.1c.1.4.1.7.2 1.1l-.6.1zm132.3-1.1l-.6-.1c.1-.4.1-.7.2-1.1l.6.1c-.1.3-.2.7-.2 1.1zm-132.7-1.7c0-.4-.1-.8-.1-1.1l.6-.1c0 .4.1.7.1 1.1l-.6.1zm133-1.1l-.6-.1c0-.4.1-.7.1-1.1h.6c0 .4 0 .8-.1 1.2zm-133.3-1.7c0-.4-.1-.8-.1-1.1h.6c0 .4 0 .8.1 1.1h-.6zM27.1 445h-.6c0-.4 0-.8.1-1.1h.6c-.1.4-.1.7-.1 1.1zm-133.7-1.7v-1.1h.6v1.1h-.6zm133.8-1.1h-.6v-1.1h.6v1.1zm-.6-1.7v-1.1h.6v1.1h-.6zm-132.7 0h-.6v-1.1h.6v1.1zm132.6-2.8c0-.4 0-.8-.1-1.1h.6c0 .4 0 .8.1 1.1h-.6zm-132.5-.1h-.6c0-.4 0-.8.1-1.1h.6c-.1.4-.1.8-.1 1.1zm132.3-2.8c0-.4-.1-.8-.1-1.1l.6-.1c0 .4.1.8.1 1.1l-.6.1zm-132.1 0l-.6-.1c0-.4.1-.8.1-1.1l.6.1c0 .4-.1.8-.1 1.1zM26 432c-.1-.4-.1-.7-.2-1.1l.6-.1c.1.4.1.8.2 1.1l-.6.1zm-131.5 0l-.5-.1c.1-.4.1-.8.2-1.1l.6.1c-.2.4-.2.7-.3 1.1zm131.1-2.8c-.1-.4-.1-.7-.2-1.1l.6-.1c.1.4.1.7.2 1.1l-.6.1zm-130.6 0l-.6-.1c.1-.4.1-.7.2-1.1l.6.1c-.1.4-.2.8-.2 1.1zm130-2.7c-.1-.4-.2-.7-.3-1.1l.6-.1c.1.4.2.7.3 1.1l-.6.1zm-129.5 0l-.6-.1c.1-.4.2-.7.3-1.1l.6.1c-.1.3-.2.7-.3 1.1zm128.8-2.8c-.1-.4-.2-.7-.3-1.1l.5-.2c.1.4.2.7.3 1.1l-.5.2zm-128.1 0l-.5-.1c.1-.4.2-.7.3-1.1l.5.2c-.1.3-.2.7-.3 1zM23.5 421c-.1-.4-.2-.7-.3-1.1l.5-.2c.1.4.2.7.4 1.1l-.6.2zm-126.5 0l-.5-.2c.1-.4.2-.7.4-1.1l.5.2c-.2.4-.3.7-.4 1.1zm125.6-2.7c-.1-.4-.3-.7-.4-1.1l.5-.2c.1.4.3.7.4 1.1l-.5.2zm-124.7 0l-.5-.2c.1-.4.3-.7.4-1.1l.5.2c-.1.4-.3.8-.4 1.1zm123.7-2.6c-.1-.3-.3-.7-.4-1l.5-.2c.2.3.3.7.4 1l-.5.2zm-122.7 0l-.5-.2c.1-.4.3-.7.4-1.1l.5.2c-.1.4-.2.7-.4 1.1zm121.6-2.6c-.2-.3-.3-.7-.5-1l.5-.2c.2.3.3.7.5 1l-.5.2zm-120.4 0l-.5-.2c.2-.3.3-.7.5-1l.5.2c-.2.3-.4.7-.5 1zm119.1-2.5c-.2-.3-.3-.7-.5-1l.5-.3c.2.3.4.7.5 1l-.5.3zm-117.9 0l-.5-.3c.2-.3.4-.7.5-1l.5.3c-.1.3-.3.6-.5 1zm116.6-2.5c-.2-.3-.4-.7-.6-1l.5-.3c.2.3.4.7.6 1l-.5.3zm-115.2 0l-.5-.3c.2-.3.4-.7.6-1l.5.3c-.2.3-.4.6-.6 1zm113.7-2.4l-.6-.9.5-.3c.2.3.4.6.6 1l-.5.2zm-112.3-.1l-.5-.3c.2-.3.4-.6.6-1l.5.3c-.2.4-.4.7-.6 1zm110.8-2.2l-.6-.9.5-.3c.2.3.4.6.7.9l-.6.3zm-109.2-.1l-.5-.3c.2-.3.4-.6.7-.9l.5.3c-.3.3-.5.6-.7.9zm107.5-2.2c-.2-.3-.5-.6-.7-.9l.4-.3c.2.3.5.6.7.9l-.4.3zm-105.8-.1l-.5-.3c.2-.3.5-.6.7-.9l.4.4c-.2.2-.4.5-.6.8zm104.1-2.1c-.2-.3-.5-.6-.7-.9l.4-.4c.2.3.5.6.7.9l-.4.4zm-102.4-.1l-.4-.4c.2-.3.5-.6.7-.9l.4.4c-.2.3-.4.6-.7.9zm100.5-2.1c-.3-.3-.5-.6-.8-.8l.4-.4c.3.3.5.6.8.8l-.4.4zm-98.6-.1l-.4-.4c.3-.3.5-.6.8-.8l.4.4-.8.8zm96.7-1.9l-.8-.8.4-.4.8.8-.4.4zm-94.8-.1l-.4-.4.8-.8.4.4-.8.8zm92.8-1.9c-.3-.3-.6-.5-.8-.8l.4-.4c.3.3.6.5.8.8l-.4.4zm-90.8-.1l-.4-.4c.3-.3.6-.5.8-.8l.4.4c-.2.3-.5.6-.8.8zm88.7-1.8c-.3-.2-.6-.5-.9-.7l.4-.4c.3.2.6.5.9.7l-.4.4zm-86.6-.1l-.4-.4c.3-.2.6-.5.9-.7l.4.4c-.3.2-.6.5-.9.7zM1.4 389c-.3-.2-.6-.5-.9-.7l.3-.5c.3.2.6.5.9.7l-.3.5zm-82.2-.1l-.4-.4c.3-.2.6-.5.9-.7l.3.5c-.2.2-.5.4-.8.6zm80-1.6c-.3-.2-.6-.4-.9-.7l.3-.5c.3.2.6.4.9.7l-.3.5zm-77.8-.1l-.3-.5c.3-.2.6-.4.9-.7l.3.5c-.2.3-.5.5-.9.7zm75.4-1.5l-.9-.6.3-.5c.3.2.6.4 1 .6l-.4.5zm-73-.1l-.3-.5c.3-.2.6-.4 1-.6l.3.5c-.4.2-.7.4-1 .6zm70.7-1.4c-.3-.2-.6-.4-1-.6l.3-.5c.3.2.7.4 1 .6l-.3.5zm-68.3-.1l-.3-.5c.3-.2.7-.4 1-.6l.3.5c-.4.2-.7.4-1 .6zm65.8-1.3c-.3-.2-.7-.4-1-.5l.3-.5c.3.2.7.4 1 .5l-.3.5zm-63.4-.1l-.3-.5c.3-.2.7-.4 1-.5l.3.5c-.3.2-.7.3-1 .5zm60.9-1.2c-.3-.2-.7-.3-1-.5l.2-.5c.3.2.7.3 1 .5l-.2.5zm-58.4-.1l-.2-.5c.3-.2.7-.3 1-.5l.2.5c-.3.2-.7.4-1 .5zm55.8-1.1c-.3-.2-.7-.3-1-.4l.2-.5c.4.1.7.3 1.1.5l-.3.4zm-53.2-.1l-.2-.5c.3-.2.7-.3 1-.4l.2.5c-.4.1-.7.3-1 .4zm50.6-1c-.4-.1-.7-.3-1.1-.4l.2-.5c.4.1.7.3 1.1.4l-.2.5zm-48 0l-.2-.5c.4-.1.7-.3 1.1-.4l.2.5c-.4.1-.8.2-1.1.4zm2.6-1l-.2-.5c.4-.1.7-.2 1.1-.4l.2.6c-.4.1-.7.2-1.1.3zm40-.8c-.4-.1-.7-.2-1.1-.3l.1-.5c.4.1.7.2 1.1.3l-.1.5zm-37.3 0l-.2-.5c.4-.1.7-.2 1.1-.3l.2.5c-.4 0-.7.1-1.1.3zm34.6-.8c-.4-.1-.7-.2-1.1-.3l.1-.6c.4.1.7.2 1.1.3l-.1.6zm-31.9 0l-.1-.6c.4-.1.7-.2 1.1-.3l.1.6c-.3.1-.7.2-1.1.3zm29.2-.6c-.4-.1-.7-.1-1.1-.2l.1-.6c.4.1.7.1 1.1.2l-.1.6zm-26.4 0l-.1-.6c.4-.1.7-.1 1.1-.2l.1.6c-.4.1-.7.1-1.1.2zm23.6-.5c-.4-.1-.7-.1-1.1-.2l.1-.6c.4.1.8.1 1.1.2l-.1.6zm-20.8 0l-.1-.6c.4-.1.8-.1 1.1-.2l.1.6c-.4.1-.8.1-1.1.2zm18-.4c-.4 0-.7-.1-1.1-.1l.1-.6c.4 0 .8.1 1.1.1l-.1.6zm-15.2 0l-.1-.6c.4 0 .8-.1 1.1-.1l.1.6c-.4 0-.8.1-1.1.1zm12.4-.2c-.4 0-.8-.1-1.1-.1v-.6c.4 0 .8 0 1.1.1v.6zm-9.6 0v-.6c.4 0 .8-.1 1.1-.1v.6c-.4 0-.8 0-1.1.1zm6.7-.2h-1.1v-.6h1.1v.6zm-3.9 0v-.6h1.1v.6h-1.1z"/><path fill="#1498C8" d="M-90.4 474.5h-1.1v-.6h1.1v.6zm1.7 0v-.6h1.1v.6h-1.1zm-4.6 0c-.4 0-.8 0-1.1-.1v-.6c.4 0 .8 0 1.1.1v.6zm7.4-.1v-.6c.4 0 .8-.1 1.1-.1v.6c-.3.1-.7.1-1.1.1zm-10.2-.1c-.4 0-.8-.1-1.1-.1l.1-.6c.4 0 .7.1 1.1.1l-.1.6zm13.1-.1l-.1-.6c.4 0 .7-.1 1.1-.1l.1.6c-.4 0-.7 0-1.1.1zm-15.9-.2c-.4 0-.8-.1-1.1-.2l.1-.6c.4.1.7.1 1.1.2l-.1.6zm18.7-.2l-.1-.6c.4-.1.7-.1 1.1-.2l.1.6c-.3.1-.7.2-1.1.2zm-21.6-.3c-.4-.1-.7-.1-1.1-.2l.1-.6c.4.1.7.1 1.1.2l-.1.6zm24.4-.2l-.1-.6c.4-.1.7-.1 1.1-.2l.1.6c-.3.1-.7.2-1.1.2zm-27.1-.3c-.4-.1-.7-.2-1.1-.3l.1-.6c.4.1.7.2 1.1.3l-.1.6zm29.9-.3l-.1-.6c.4-.1.7-.2 1.1-.3l.1.5c-.4.3-.7.3-1.1.4zm-32.7-.4c-.4-.1-.7-.2-1.1-.3l.2-.5c.4.1.7.2 1.1.3l-.2.5zm35.5-.3l-.2-.5c.4-.1.7-.2 1.1-.3l.2.5c-.4.1-.8.2-1.1.3zm-38.3-.5c-.4-.1-.7-.2-1.1-.3l.2-.5c.4.1.7.2 1.1.3l-.2.5zm41-.3l-.2-.5c.4-.1.7-.2 1.1-.4l.2.5c-.4.1-.8.3-1.1.4zm-43.7-.6c-.4-.1-.7-.3-1.1-.4l.2-.5c.4.1.7.3 1.1.4l-.2.5zm46.4-.4l-.2-.5c.4-.1.7-.3 1.1-.4l.2.5c-.4.2-.8.3-1.1.4zm2.6-1l-.2-.5c.3-.1.7-.3 1-.5l.2.5c-.3.2-.7.3-1 .5zm-54.3-.7c-.3-.2-.7-.3-1-.5l.2-.5c.3.2.7.3 1 .5l-.2.5zm56.9-.5l-.2-.5c.3-.2.7-.3 1-.5l.3.5c-.4.2-.8.3-1.1.5zm-59.4-.8c-.3-.2-.7-.4-1-.5l.3-.5c.3.2.7.4 1 .5l-.3.5zm61.9-.5l-.3-.5c.3-.2.7-.4 1-.5l.3.5c-.3.1-.6.3-1 .5zm-64.4-.9c-.3-.2-.7-.4-1-.6l.3-.5c.3.2.7.4 1 .6l-.3.5zm66.9-.5l-.3-.5c.3-.2.6-.4 1-.6l.3.5c-.4.2-.7.4-1 .6zm-69.4-.9c-.3-.2-.6-.4-1-.6l.3-.5c.3.2.6.4 1 .6l-.3.5zm71.8-.6l-.3-.5.9-.6.3.5-.9.6zm-74.2-1c-.3-.2-.6-.4-.9-.7l.3-.5.9.6-.3.6zm76.6-.6l-.3-.5c.3-.2.6-.4.9-.7l.3.5c-.3.3-.6.5-.9.7zm-78.9-1c-.3-.2-.6-.5-.9-.7l.3-.4c.3.2.6.5.9.7l-.3.4zm81.2-.7l-.3-.4c.3-.2.6-.5.9-.7l.4.4c-.5.3-.7.5-1 .7zm-83.4-1.1c-.3-.2-.6-.5-.9-.7l.4-.4c.3.2.6.5.9.7l-.4.4zm85.6-.7l-.4-.4c.3-.2.6-.5.9-.7l.4.4c-.4.2-.6.5-.9.7zm-87.8-1.2c-.3-.3-.6-.5-.8-.8l.4-.4c.3.3.6.5.8.8l-.4.4zm89.9-.6l-.4-.4c.3-.3.6-.5.8-.8l.4.4-.8.8zm-92-1.3l-.8-.8.4-.4.8.8-.4.4zm94-.7l-.4-.4.8-.8.4.4-.8.8zm-96-1.3c-.3-.3-.5-.6-.8-.8l.4-.4c.3.3.5.6.8.8l-.4.4zm98-.8l-.4-.4c.3-.3.5-.6.8-.8l.4.4-.8.8zm-99.9-1.3c-.2-.3-.5-.6-.7-.9l.4-.4c.2.3.5.6.7.9l-.4.4zm101.8-.8l-.4-.4c.2-.3.5-.6.7-.9l.4.4c-.2.3-.5.6-.7.9zm-103.6-1.4c-.2-.3-.5-.6-.7-.9l.4-.3c.2.3.5.6.7.9l-.4.3zm105.4-.8l-.4-.3c.2-.3.5-.6.7-.9l.5.3c-.4.3-.6.6-.8.9zm-107.1-1.5c-.2-.3-.4-.6-.7-.9l.5-.3c.2.3.4.6.7.9l-.5.3zm108.8-.8l-.5-.3.6-.9.5.3c-.2.2-.4.6-.6.9zm-110.5-1.5c-.2-.3-.4-.6-.6-1l.5-.3.6.9-.5.4zm112.1-.9l-.5-.3c.2-.3.4-.6.6-1l.5.3c-.2.4-.4.7-.6 1zm-113.6-1.5c-.2-.3-.4-.6-.6-1l.5-.3c.2.3.4.6.6 1l-.5.3zm115.1-.9l-.5-.3c.2-.3.4-.7.6-1l.5.3c-.3.3-.4.6-.6 1zm-116.5-1.6c-.2-.3-.4-.7-.5-1l.5-.3c.2.3.4.7.5 1l-.5.3zm117.9-.9l-.5-.3c.2-.3.4-.7.5-1l.5.3c-.2.3-.4.6-.5 1zm-119.2-1.6c-.2-.3-.3-.7-.5-1l.5-.2c.2.3.3.7.5 1l-.5.2zm120.4-1l-.5-.2c.2-.3.3-.7.5-1l.5.2c-.1.3-.3.7-.5 1zm-121.6-1.6c-.2-.3-.3-.7-.5-1l.5-.2c.1.3.3.7.4 1l-.4.2zm122.8-1l-.5-.2c.1-.3.3-.7.4-1l.5.2c-.1.3-.2.7-.4 1zm-123.9-1.6c-.1-.4-.3-.7-.4-1.1l.5-.2c.1.4.3.7.4 1.1l-.5.2zm125-1l-.6-.2c.1-.4.3-.7.4-1.1l.5.2c-.1.4-.2.7-.3 1.1zm-126-1.7c-.1-.4-.2-.7-.4-1.1l.5-.2c.1.4.2.7.4 1.1l-.5.2zm126.9-1l-.5-.2c.1-.4.2-.7.3-1.1l.5.2c-.1.3-.2.7-.3 1.1zm-127.8-1.7c-.1-.4-.2-.7-.3-1.1l.5-.2c.1.4.2.7.3 1.1l-.5.2zm128.6-1.1l-.5-.2c.1-.4.2-.7.3-1.1l.5.1c-.1.5-.2.9-.3 1.2zM-155 424c-.1-.4-.2-.7-.3-1.1l.6-.1c.1.4.2.7.3 1.1l-.6.1zm130-1.1l-.6-.1c.1-.4.2-.7.2-1.1l.6.1c0 .3-.1.7-.2 1.1zm-130.7-1.7c-.1-.4-.2-.7-.2-1.1l.6-.1c.1.4.1.7.2 1.1l-.6.1zm131.3-1.1l-.6-.1c.1-.4.1-.7.2-1.1l.6.1c0 .3-.1.7-.2 1.1zm-131.8-1.7c-.1-.4-.1-.8-.2-1.1l.6-.1c.1.4.1.7.2 1.1l-.6.1zm132.3-1.1l-.6-.1c.1-.4.1-.7.2-1.1l.6.1c-.1.3-.2.7-.2 1.1zm-132.7-1.7c0-.4-.1-.8-.1-1.1l.6-.1c0 .4.1.7.1 1.1l-.6.1zm133-1.1l-.6-.1c0-.4.1-.7.1-1.1h.6c0 .4 0 .8-.1 1.2zm-133.2-1.8c0-.4-.1-.8-.1-1.1h.6c0 .4 0 .8.1 1.1h-.6zm133.5-1.1h-.6c0-.4 0-.8.1-1.1h.6c-.1.4-.1.7-.1 1.1zm-133.7-1.7v-1.1h.6v1.1h-.6zm133.8-1.1h-.6v-1.1h.6v1.1zm-.6-1.7V406h.6v1.1h-.6zm-132.7 0h-.6V406h.6v1.1zm132.6-2.9c0-.4 0-.8-.1-1.1h.6c0 .4 0 .8.1 1.1h-.6zm-132.5 0h-.6c0-.4 0-.8.1-1.1h.6c0 .4-.1.8-.1 1.1zm132.3-2.8c0-.4-.1-.8-.1-1.1l.6-.1c0 .4.1.8.1 1.1l-.6.1zm-132.1 0l-.6-.1c0-.4.1-.8.1-1.1l.6.1c0 .4-.1.7-.1 1.1zm131.8-2.8c-.1-.4-.1-.7-.2-1.1l.6-.1c.1.4.1.8.2 1.1l-.6.1zm-131.5 0l-.6-.1c.1-.4.1-.8.2-1.1l.6.1c-.1.4-.1.7-.2 1.1zm131.1-2.8c-.1-.4-.1-.7-.2-1.1l.6-.1c.1.4.1.7.2 1.1l-.6.1zm-130.6 0l-.6-.1c.1-.4.1-.7.2-1.1l.6.1c-.1.4-.2.8-.2 1.1zm130-2.7c-.1-.4-.2-.7-.3-1.1l.6-.1c.1.4.2.7.3 1.1l-.6.1zm-129.5 0l-.5-.2c.1-.4.2-.7.3-1.1l.6.1c-.2.4-.3.8-.4 1.2zm128.8-2.8c-.1-.4-.2-.7-.3-1.1l.5-.2c.1.4.2.7.3 1.1l-.5.2zm-128.1 0l-.5-.1c.1-.4.2-.7.3-1.1l.5.2c-.1.3-.2.6-.3 1zm127.3-2.7c-.1-.4-.2-.7-.3-1.1l.5-.2c.1.4.2.7.4 1.1l-.6.2zm-126.5 0l-.5-.2c.1-.4.2-.7.4-1.1l.5.2c-.2.4-.3.7-.4 1.1zm125.6-2.7c-.1-.4-.3-.7-.4-1.1l.5-.2c.1.4.3.7.4 1.1l-.5.2zm-124.7 0l-.5-.2c.1-.4.3-.7.4-1.1l.5.2c-.1.4-.3.8-.4 1.1zm123.7-2.6c-.1-.3-.3-.7-.4-1l.5-.2c.2.3.3.7.4 1l-.5.2zm-122.7 0l-.5-.2c.1-.4.3-.7.4-1.1l.5.2c-.1.4-.2.7-.4 1.1zm121.6-2.6c-.2-.3-.3-.7-.5-1l.5-.2c.2.3.3.7.5 1l-.5.2zm-120.4 0l-.5-.2c.2-.3.3-.7.5-1l.5.2c-.2.3-.4.6-.5 1zm119.1-2.5c-.2-.3-.3-.7-.5-1l.5-.3c.2.3.4.7.5 1l-.5.3zm-117.9-.1l-.5-.2c.2-.3.4-.7.5-1l.5.3c-.1.3-.3.6-.5.9zm116.6-2.4c-.2-.3-.4-.7-.6-1l.5-.3c.2.3.4.7.6 1l-.5.3zm-115.2 0l-.5-.3c.2-.3.4-.7.6-1l.5.3c-.2.3-.4.6-.6 1zm113.7-2.4l-.6-.9.5-.3c.2.3.4.6.6 1l-.5.2zm-112.3-.1l-.4-.3c.2-.3.4-.6.6-1l.5.3c-.3.4-.5.7-.7 1zm110.8-2.2l-.6-.9.5-.3c.2.3.4.6.7.9l-.6.3zm-109.2-.1l-.5-.3c.2-.3.4-.6.7-.9l.5.3c-.3.3-.5.6-.7.9zm107.5-2.2c-.2-.3-.5-.6-.7-.9l.4-.3c.2.3.5.6.7.9l-.4.3zm-105.8-.1l-.5-.3c.2-.3.5-.6.7-.9l.4.4c-.2.2-.4.5-.6.8zm104.1-2.1c-.2-.3-.5-.6-.7-.9l.4-.4c.2.3.5.6.7.9l-.4.4zm-102.4-.1l-.4-.4c.2-.3.5-.6.7-.9l.4.4c-.2.3-.4.6-.7.9zm100.6-2.1c-.3-.3-.5-.6-.8-.8l.4-.4c.3.3.5.6.8.8l-.4.4zm-98.7-.1l-.5-.3c.3-.3.5-.6.8-.8l.4.4-.7.7zm96.7-1.9l-.8-.8.4-.4.8.8-.4.4zm-94.8-.1l-.4-.4.8-.8.4.4c-.3.2-.5.5-.8.8zm92.8-1.9c-.3-.3-.6-.5-.8-.8l.4-.4c.3.3.6.5.8.8l-.4.4zm-90.8-.1l-.4-.4c.3-.3.6-.5.8-.8l.4.4c-.2.3-.5.5-.8.8zm88.7-1.8c-.3-.2-.6-.5-.9-.7l.4-.4c.3.2.6.5.9.7l-.4.4zm-86.6-.1l-.4-.4c.3-.2.6-.5.9-.7l.4.4c-.3.2-.6.5-.9.7zm84.4-1.7c-.3-.2-.6-.5-.9-.7l.3-.5c.3.2.6.5.9.7l-.3.5zm-82.2-.1l-.4-.4c.3-.2.6-.5.9-.7l.3.5c-.2.2-.5.4-.8.6zm80-1.6c-.3-.2-.6-.4-.9-.7l.3-.5c.3.2.6.4.9.7l-.3.5zm-77.8-.1l-.3-.5c.3-.2.6-.4.9-.7l.3.5c-.2.3-.5.5-.9.7zm75.4-1.5l-.9-.6.3-.5c.3.2.6.4 1 .6l-.4.5zm-73-.1l-.3-.5c.3-.2.6-.4 1-.6l.3.5c-.4.2-.7.4-1 .6zm70.7-1.4c-.3-.2-.6-.4-1-.6l.3-.5c.3.2.7.4 1 .6l-.3.5zm-68.3-.1l-.3-.5c.3-.2.7-.4 1-.6l.3.5c-.4.2-.7.4-1 .6zm65.8-1.4c-.3-.2-.7-.4-1-.5l.3-.5c.3.2.7.4 1 .5l-.3.5zm-63.4 0l-.3-.5c.3-.2.7-.4 1-.5l.3.5c-.3.2-.7.3-1 .5zm60.9-1.3c-.3-.2-.7-.3-1-.5l.2-.5c.3.2.7.3 1 .5l-.2.5zm-58.4 0l-.2-.5c.3-.2.7-.3 1-.5l.2.5c-.3.2-.7.4-1 .5zm55.8-1.1c-.3-.2-.7-.3-1-.4l.2-.5c.4.1.7.3 1.1.5l-.3.4zm-53.2-.1l-.3-.5c.3-.2.7-.3 1-.4l.2.5c-.3.1-.6.3-.9.4zm50.6-1c-.4-.1-.7-.3-1.1-.4l.2-.5c.4.1.7.3 1.1.4l-.2.5zm-48 0l-.2-.5c.4-.1.7-.3 1.1-.4l.2.5c-.4.1-.8.2-1.1.4zm45.3-1c-.4-.1-.7-.2-1.1-.4l.2-.5c.4.1.7.2 1.1.4l-.2.5zm-42.7 0l-.2-.5c.4-.1.7-.2 1.1-.4l.2.5c-.4.2-.7.3-1.1.4zm40-.9c-.4-.1-.7-.2-1.1-.3l.1-.5c.4.1.7.2 1.1.3l-.1.5zm-37.3 0l-.2-.5c.4-.1.7-.2 1.1-.3l.2.5c-.4.1-.7.2-1.1.3zm34.6-.7c-.4-.1-.7-.2-1.1-.3l.1-.6c.4.1.7.2 1.1.3l-.1.6zm-31.9 0l-.1-.6c.4-.1.7-.2 1.1-.3l.1.6c-.3.1-.7.2-1.1.3zm29.2-.6c-.4-.1-.7-.1-1.1-.2l.1-.6c.4.1.7.1 1.1.2l-.1.6zm-26.4 0l-.1-.6c.4-.1.7-.1 1.1-.2l.1.6c-.4 0-.7.1-1.1.2zm23.6-.5c-.4-.1-.7-.1-1.1-.2l.1-.6c.4.1.8.1 1.1.2l-.1.6zm-20.8 0l-.1-.6c.4-.1.8-.1 1.1-.2l.1.6c-.4.1-.8.1-1.1.2zm18-.4c-.4 0-.7-.1-1.1-.1l.1-.6c.4 0 .8.1 1.1.1l-.1.6zm-15.2 0l-.1-.6c.4 0 .8-.1 1.1-.1l.1.6c-.4 0-.8.1-1.1.1zm12.4-.2c-.4 0-.8-.1-1.1-.1v-.6c.4 0 .8 0 1.1.1v.6zm-9.6 0v-.6c.4 0 .8-.1 1.1-.1v.6c-.4 0-.7 0-1.1.1zm6.8-.2h-1.1v-.6h1.1v.6zm-4 0v-.6h1.1v.6h-1.1z"/><path fill="#C69EC7" d="M-46.1 467.2h-1.1v-.6h1.1v.6zm1.8 0v-.6h1.1v.6c-.4-.1-.8 0-1.1 0zm-4.6-.1c-.4 0-.8 0-1.1-.1v-.6c.4 0 .8 0 1.1.1v.6zm7.4-.1v-.6c.4 0 .8-.1 1.1-.1v.6c-.3.1-.7.1-1.1.1zm-10.2-.1c-.4 0-.8-.1-1.1-.1l.1-.6c.4 0 .7.1 1.1.1l-.1.6zm13-.1l-.1-.6c.4 0 .7-.1 1.1-.1l.1.6c-.3 0-.7.1-1.1.1zm-15.9-.2c-.4 0-.8-.1-1.1-.2l.1-.6c.4.1.7.1 1.1.2l-.1.6zm18.8-.2l-.1-.6c.4-.1.7-.1 1.1-.2l.1.6c-.4.1-.8.2-1.1.2zm-21.6-.2c-.4-.1-.7-.1-1.1-.2l.1-.6c.4.1.7.1 1.1.2l-.1.6zm24.4-.2l-.1-.6c.4-.1.7-.1 1.1-.2l.1.6c-.4 0-.8.1-1.1.2zm-27.2-.4c-.4-.1-.7-.2-1.1-.3l.1-.6c.4.1.7.2 1.1.3l-.1.6zm30-.2l-.1-.6c.4-.1.7-.2 1.1-.3l.1.5c-.4.2-.8.3-1.1.4zM-63 465c-.4-.1-.7-.2-1.1-.3l.2-.5c.4.1.7.2 1.1.3l-.2.5zm35.5-.3l-.2-.5c.4-.1.7-.2 1.1-.3l.2.5c-.4 0-.7.1-1.1.3zm-38.2-.5c-.4-.1-.7-.2-1.1-.3l.2-.5c.4.1.7.2 1.1.3l-.2.5zm40.9-.4l-.2-.5c.4-.1.7-.2 1.1-.4l.2.5c-.3.2-.7.3-1.1.4zm-43.6-.5c-.4-.1-.7-.3-1.1-.4l.2-.5c.4.1.7.3 1.1.4l-.2.5zm46.3-.4l-.2-.5c.4-.1.7-.3 1.1-.4l.2.5c-.4.1-.7.2-1.1.4zm-49-.7c-.4-.1-.7-.3-1.1-.4l.2-.5c.3.1.7.3 1 .4l-.1.5zm51.7-.4l-.2-.5c.3-.1.7-.3 1-.5l.2.5c-.4.2-.7.4-1 .5zm-54.3-.7c-.3-.2-.7-.3-1-.5l.2-.5c.3.2.7.3 1 .5l-.2.5zm56.8-.5l-.2-.5c.3-.2.7-.3 1-.5l.3.5c-.4.2-.7.4-1.1.5zm-59.4-.8c-.3-.2-.7-.4-1-.5l.3-.5c.3.2.7.4 1 .5l-.3.5zm62-.5l-.3-.5c.3-.2.7-.4 1-.5l.3.5c-.4.2-.7.4-1 .5zm-64.5-.8c-.3-.2-.7-.4-1-.6l.3-.5c.3.2.7.4 1 .6l-.3.5zm67-.5l-.3-.5c.3-.2.6-.4 1-.6l.3.5c-.4.2-.7.4-1 .6zm-69.4-1c-.3-.2-.6-.4-1-.6l.3-.5c.3.2.6.4 1 .6l-.3.5zm71.8-.5l-.3-.5.9-.6.3.5c-.3.1-.6.4-.9.6zm-74.2-1c-.3-.2-.6-.4-.9-.7l.3-.5.9.6-.3.6zm76.5-.6l-.3-.5c.3-.2.6-.4.9-.7l.3.5c-.3.2-.6.4-.9.7zm-78.8-1.1c-.3-.2-.6-.5-.9-.7l.3-.4c.3.2.6.5.9.7l-.3.4zm81.1-.6l-.3-.4c.3-.2.6-.5.9-.7l.4.4c-.4.2-.7.4-1 .7zm-83.4-1.2c-.3-.2-.6-.5-.9-.7l.4-.4c.3.2.6.5.9.7l-.4.4zm85.6-.6l-.4-.4c.3-.2.6-.5.9-.7l.4.4c-.3.2-.6.4-.9.7zm-87.7-1.2c-.3-.3-.6-.5-.8-.8l.4-.4c.3.3.6.5.8.8l-.4.4zm89.9-.7l-.4-.4c.3-.3.6-.5.8-.8l.4.4c-.3.3-.6.5-.8.8zm-92-1.3l-.8-.8.4-.4.8.8-.4.4zm94-.7l-.4-.4.8-.8.4.4c-.3.3-.5.6-.8.8zm-96-1.3c-.3-.3-.5-.6-.8-.8l.4-.4c.3.3.5.6.8.8l-.4.4zm98-.7l-.4-.4c.3-.3.5-.6.8-.8l.4.4c-.3.2-.6.5-.8.8zm-99.9-1.4c-.2-.3-.5-.6-.7-.9l.4-.4c.2.3.5.6.7.9l-.4.4zm-1.8-2.2c-.2-.3-.5-.6-.7-.9l.4-.3c.2.3.5.6.7.9l-.4.3zm-1.8-2.2c-.2-.3-.4-.6-.7-.9l.5-.3c.2.3.4.6.7.9l-.5.3zm-1.6-2.4c-.2-.3-.4-.6-.6-1l.5-.3.6.9-.5.4zm112-.9l-.5-.3c.2-.3.4-.6.6-1l.5.3c-.2.4-.4.7-.6 1zm-113.5-1.5c-.2-.3-.4-.6-.6-1l.5-.3c.2.3.4.6.6 1l-.5.3zm115-.9l-.5-.3c.2-.3.4-.7.6-1l.5.3c-.2.4-.4.7-.6 1zm-116.4-1.5c-.2-.3-.4-.7-.5-1l.5-.3c.2.3.4.7.5 1l-.5.3zm117.8-1l-.5-.3c.2-.3.4-.7.5-1l.5.3c-.1.3-.3.7-.5 1zm-119.2-1.6c-.2-.3-.3-.7-.5-1l.5-.2c.2.3.3.7.5 1l-.5.2zm120.5-.9l-.5-.2c.2-.3.3-.7.5-1l.5.2c-.2.3-.3.6-.5 1zm-121.7-1.6c-.2-.3-.3-.7-.5-1l.5-.2c.1.3.3.7.4 1l-.4.2zm122.9-1l-.5-.2c.1-.3.3-.7.4-1l.5.2c-.1.3-.3.6-.4 1zm-124-1.6c-.1-.4-.3-.7-.4-1.1l.5-.2c.1.4.3.7.4 1.1l-.5.2zm125-1.1l-.5-.2c.1-.4.3-.7.4-1.1l.5.2c-.1.4-.2.7-.4 1.1zm-125.9-1.6c-.1-.4-.2-.7-.4-1.1l.5-.2c.1.4.2.7.4 1.1l-.5.2zM17.9 421l-.5-.2c.1-.4.2-.7.3-1.1l.5.2c-.1.4-.2.7-.3 1.1zm-127.8-1.6c-.1-.4-.2-.7-.3-1.1l.5-.2c.1.4.2.7.3 1.1l-.5.2zm128.6-1.1l-.5-.2c.1-.4.2-.7.3-1.1l.5.1-.3 1.2zm-129.4-1.7c-.1-.4-.2-.7-.3-1.1l.6-.1c.1.4.2.7.3 1.1l-.6.1zm130.1-1.1l-.6-.1c.1-.4.2-.7.2-1.1l.6.1c0 .4-.1.7-.2 1.1zm-130.7-1.7c-.1-.4-.2-.7-.2-1.1l.6-.1c.1.4.1.7.2 1.1l-.6.1zM20 412.7l-.6-.1c.1-.4.1-.7.2-1.1l.6.1c-.1.4-.1.8-.2 1.1zm-131.8-1.7c-.1-.4-.1-.8-.2-1.1l.6-.1c.1.4.1.7.2 1.1l-.6.1zm132.3-1.1l-.6-.1c.1-.4.1-.7.2-1.1l.6.1c-.1.4-.2.7-.2 1.1zm-132.7-1.7c0-.4-.1-.8-.1-1.1l.6-.1c0 .4.1.7.1 1.1l-.6.1zm133-1.1l-.6-.1c0-.4.1-.7.1-1.1h.6c0 .4-.1.8-.1 1.2zm-133.3-1.7c0-.4-.1-.8-.1-1.1h.6c0 .4 0 .8.1 1.1h-.6zM21 404.3h-.6c0-.4 0-.8.1-1.1h.6c0 .3-.1.7-.1 1.1zm-133.6-1.8v-1.1h.6v1.1h-.6zm133.7-1.1h-.6v-1.1h.6v1.1zm-.5-1.7v-1.1h.6v1.1h-.6zm-132.7 0h-.6v-1.1h.6v1.1zm132.6-2.8c0-.4 0-.8-.1-1.1h.6c0 .4 0 .8.1 1.1h-.6zm-132.5 0h-.6c0-.4 0-.8.1-1.1h.6c-.1.3-.1.7-.1 1.1zm132.3-2.8c0-.4-.1-.8-.1-1.1l.6-.1c0 .4.1.8.1 1.1l-.6.1zm-132.1 0l-.6-.1c0-.4.1-.8.1-1.1l.6.1c-.1.3-.1.7-.1 1.1zM20 391.3c-.1-.4-.1-.7-.2-1.1l.6-.1c.1.4.1.8.2 1.1l-.6.1zm-131.5 0l-.6-.1c.1-.4.1-.8.2-1.1l.6.1c-.1.3-.2.7-.2 1.1zm131-2.8c-.1-.4-.1-.7-.2-1.1l.6-.1c.1.4.1.7.2 1.1l-.6.1zm-130.6 0l-.6-.1c.1-.4.1-.7.2-1.1l.6.1c0 .3-.1.7-.2 1.1zM19 385.7c-.1-.4-.2-.7-.3-1.1l.6-.1c.1.4.2.7.3 1.1l-.6.1zm-129.5 0l-.6-.1c.1-.4.2-.7.3-1.1l.6.1c-.1.4-.2.7-.3 1.1zM18.3 383c-.1-.4-.2-.7-.3-1.1l.5-.2c.1.4.2.7.3 1.1l-.5.2zm-128.1 0l-.5-.1c.1-.4.2-.7.3-1.1l.5.2c-.1.2-.2.6-.3 1zm127.3-2.8c-.1-.4-.2-.7-.3-1.1l.5-.2c.1.4.2.7.4 1.1l-.6.2zm-126.5 0l-.5-.2c.1-.4.2-.7.4-1.1l.5.2c-.2.4-.3.8-.4 1.1zm125.6-2.6c-.1-.4-.3-.7-.4-1.1l.5-.2c.1.4.3.7.4 1.1l-.5.2zm-124.7 0l-.5-.2c.1-.4.3-.7.4-1.1l.5.2c-.2.3-.3.7-.4 1.1zm123.7-2.7c-.1-.3-.3-.7-.4-1l.5-.2c.2.3.3.7.4 1l-.5.2zm-122.7 0l-.5-.2c.1-.4.3-.7.4-1.1l.5.2c-.1.4-.3.8-.4 1.1zm121.5-2.5c-.2-.3-.3-.7-.5-1l.5-.2c.2.3.3.7.5 1l-.5.2zm-120.4-.1l-.5-.2c.2-.3.3-.7.5-1l.5.2c-.1.3-.3.7-.5 1zm119.2-2.5c-.2-.3-.3-.7-.5-1l.5-.3c.2.3.4.7.5 1l-.5.3zm-117.9 0l-.5-.3c.2-.3.4-.7.5-1l.5.3c-.2.3-.3.6-.5 1zm116.6-2.4c-.2-.3-.4-.7-.6-1l.5-.3c.2.3.4.7.6 1l-.5.3zm-115.3-.1l-.5-.3c.2-.3.4-.7.6-1l.5.3c-.2.3-.4.7-.6 1zm113.8-2.4l-.6-.9.5-.3c.2.3.4.6.6 1l-.5.2zm-112.3 0l-.5-.3c.2-.3.4-.6.6-1l.5.3c-.2.3-.4.7-.6 1zm110.7-2.3l-.6-.9.5-.3c.2.3.4.6.7.9l-.6.3zm-109.1-.1l-.5-.3c.2-.3.4-.6.7-.9l.5.3c-.3.3-.5.6-.7.9zm107.5-2.2c-.2-.3-.5-.6-.7-.9l.4-.3c.2.3.5.6.7.9l-.4.3zm-105.9-.1l-.4-.3c.2-.3.5-.6.7-.9l.4.4c-.2.2-.5.5-.7.8zm104.1-2.1c-.2-.3-.5-.6-.7-.9l.4-.4c.2.3.5.6.7.9l-.4.4zm-102.3-.1l-.4-.4c.2-.3.5-.6.7-.9l.4.4c-.2.3-.5.6-.7.9zm100.5-2c-.3-.3-.5-.6-.8-.8l.4-.4c.3.3.5.6.8.8l-.4.4zm-98.7-.1l-.4-.4c.3-.3.5-.6.8-.8l.4.4c-.3.2-.5.5-.8.8zm96.8-2l-.8-.8.4-.4.8.8-.4.4zm-94.8-.1l-.4-.4.8-.8.4.4c-.3.3-.6.5-.8.8zm92.8-1.9c-.3-.3-.6-.5-.8-.8l.4-.4c.3.3.6.5.8.8l-.4.4zm-90.8-.1l-.4-.4c.3-.3.6-.5.8-.8l.4.4c-.3.3-.5.6-.8.8zm88.7-1.8c-.3-.2-.6-.5-.9-.7l.4-.4c.3.2.6.5.9.7l-.4.4zm-86.6 0l-.4-.4c.3-.2.6-.5.9-.7l.4.4c-.4.2-.6.4-.9.7zm84.4-1.8c-.3-.2-.6-.5-.9-.7l.3-.5c.3.2.6.5.9.7l-.3.5zm-82.2 0l-.4-.4c.3-.2.6-.5.9-.7l.3.5c-.3.1-.6.3-.8.6zm79.9-1.7c-.3-.2-.6-.4-.9-.7l.3-.5c.3.2.6.4.9.7l-.3.5zm-77.7 0l-.3-.5c.3-.2.6-.4.9-.7l.3.5c-.3.2-.6.4-.9.7zm75.4-1.6l-.9-.6.3-.5c.3.2.6.4 1 .6l-.4.5zm-73.1 0l-.3-.5c.3-.2.6-.4 1-.6l.3.5c-.3.1-.7.3-1 .6zm70.7-1.5c-.3-.2-.6-.4-1-.6l.3-.5c.3.2.7.4 1 .6l-.3.5zm-68.3 0l-.3-.5c.3-.2.7-.4 1-.6l.3.5c-.3.2-.7.4-1 .6zM-14 342c-.3-.2-.7-.4-1-.5l.3-.5c.3.2.7.4 1 .5l-.3.5zm-63.4 0l-.3-.5c.3-.2.7-.4 1-.5l.3.5c-.4.1-.7.3-1 .5zm60.8-1.3c-.3-.2-.7-.3-1-.5l.2-.5c.3.2.7.3 1 .5l-.2.5zm-58.3 0l-.2-.5c.3-.2.7-.3 1-.5l.2.5c-.4.1-.7.3-1 .5zm55.8-1.2c-.3-.2-.7-.3-1-.4l.2-.5c.4.1.7.3 1.1.5l-.3.4zm-53.3 0l-.2-.5c.3-.2.7-.3 1-.4l.2.5c-.3.1-.6.2-1 .4zm50.7-1.1c-.4-.1-.7-.3-1.1-.4l.2-.5c.4.1.7.3 1.1.4l-.2.5zm-48.1 0l-.2-.5c.4-.1.7-.3 1.1-.4l.2.5c-.4.1-.7.3-1.1.4zm45.4-1c-.4-.1-.7-.2-1.1-.4l.2-.5c.4.1.7.2 1.1.4l-.2.5zm-42.7 0l-.2-.5c.4-.1.7-.2 1.1-.4l.2.5c-.4.2-.8.3-1.1.4zm40-.8c-.4-.1-.7-.2-1.1-.3l.1-.5c.4.1.7.2 1.1.3l-.1.5zm-37.3 0l-.2-.5c.4-.1.7-.2 1.1-.3l.2.5c-.4.1-.8.2-1.1.3zm34.6-.8c-.4-.1-.7-.2-1.1-.3l.1-.6c.4.1.7.2 1.1.3l-.1.6zm-31.9 0l-.1-.6c.4-.1.7-.2 1.1-.3l.1.6c-.4.2-.7.3-1.1.3zm29.1-.6c-.4-.1-.7-.1-1.1-.2l.1-.6c.4.1.7.1 1.1.2l-.1.6zm-26.4 0l-.1-.6c.4-.1.7-.1 1.1-.2l.1.6c-.3.1-.7.2-1.1.2zm23.6-.5c-.4-.1-.7-.1-1.1-.2l.1-.6c.4.1.8.1 1.1.2l-.1.6zm-20.8 0l-.1-.6c.4-.1.8-.1 1.1-.2l.1.6c-.3.1-.7.2-1.1.2zm18-.3c-.4 0-.7-.1-1.1-.1l.1-.6c.4 0 .8.1 1.1.1l-.1.6zm-15.2 0l-.1-.6c.4 0 .8-.1 1.1-.1l.1.6c-.3 0-.7 0-1.1.1zm12.4-.3c-.4 0-.8-.1-1.1-.1v-.6c.4 0 .8 0 1.1.1v.6zm-9.6 0v-.6c.4 0 .8-.1 1.1-.1v.6c-.3 0-.7.1-1.1.1zm6.8-.2h-1.1v-.6h1.1v.6zm-3.9 0v-.6h1.1v.6h-1.1z"/><path fill="#A27D5E" d="M-84.6 507.2h-1.1v-.6h1.1v.6zm1.7 0v-.6h1.1v.6h-1.1zm-4.5-.1c-.4 0-.8 0-1.1-.1v-.6c.4 0 .8 0 1.1.1v.6zm7.4 0v-.6c.4 0 .8-.1 1.1-.1v.6c-.4 0-.7 0-1.1.1zm-10.3-.2c-.4 0-.8-.1-1.1-.1l.1-.6c.4 0 .7.1 1.1.1l-.1.6zm13.1-.1l-.1-.6c.4 0 .7-.1 1.1-.1l.1.6c-.3 0-.7.1-1.1.1zm-15.9-.2c-.4 0-.8-.1-1.1-.2l.1-.6c.4.1.7.1 1.1.2l-.1.6zm18.8-.1l-.1-.6c.4-.1.7-.1 1.1-.2l.1.6c-.4 0-.8.1-1.1.2zm-21.6-.3c-.4-.1-.7-.1-1.1-.2l.1-.6c.4.1.7.1 1.1.2l-.1.6zm24.4-.2l-.1-.6c.4-.1.7-.1 1.1-.2l.1.6c-.4 0-.8.1-1.1.2zm-27.2-.4c-.4-.1-.7-.2-1.1-.3l.1-.6c.4.1.7.2 1.1.3l-.1.6zm29.9-.2l-.1-.6c.4-.1.7-.2 1.1-.3l.1.5c-.3.2-.7.3-1.1.4zm-32.7-.4c-.4-.1-.7-.2-1.1-.3l.2-.5c.4.1.7.2 1.1.3l-.2.5zm35.5-.3l-.2-.5c.4-.1.7-.2 1.1-.3l.2.5c-.4.1-.7.2-1.1.3zm-38.2-.5c-.4-.1-.7-.2-1.1-.3l.2-.5c.4.1.7.2 1.1.3l-.2.5zm40.9-.4l-.2-.5c.4-.1.7-.2 1.1-.4l.2.5c-.4.2-.7.3-1.1.4zm-43.6-.5c-.4-.1-.7-.3-1.1-.4l.2-.5c.4.1.7.3 1.1.4l-.2.5zm46.3-.4l-.2-.5c.4-.1.7-.3 1.1-.4l.2.5c-.4.1-.7.2-1.1.4zm-49-.7c-.4-.1-.7-.3-1.1-.4l.2-.5c.3.1.7.3 1 .4l-.1.5zm51.6-.4l-.2-.5c.3-.1.7-.3 1-.5l.2.5c-.3.2-.6.4-1 .5zm-54.2-.7c-.3-.2-.7-.3-1-.5l.2-.5c.3.2.7.3 1 .5l-.2.5zm56.8-.5l-.2-.5c.3-.2.7-.3 1-.5l.3.5c-.4.2-.7.4-1.1.5zm-59.4-.7c-.3-.2-.7-.4-1-.5l.3-.5c.3.2.7.4 1 .5l-.3.5zm62-.5l-.3-.5c.3-.2.7-.4 1-.5l.3.5c-.4.1-.7.3-1 .5zm-64.5-.9c-.3-.2-.7-.4-1-.6l.3-.5c.3.2.7.4 1 .6l-.3.5zm66.9-.5l-.3-.5c.3-.2.6-.4 1-.6l.3.5c-.3.2-.6.4-1 .6zm-69.3-1c-.3-.2-.6-.4-1-.6l.3-.5c.3.2.6.4 1 .6l-.3.5zm71.8-.5l-.3-.5.9-.6.3.5-.9.6zm-74.2-1c-.3-.2-.6-.4-.9-.7l.3-.5.9.6-.3.6zm76.5-.6l-.3-.5c.3-.2.6-.4.9-.7l.3.5c-.3.2-.6.5-.9.7zm-78.8-1.1c-.3-.2-.6-.5-.9-.7l.3-.4c.3.2.6.5.9.7l-.3.4zm81.1-.6l-.3-.4c.3-.2.6-.5.9-.7l.4.4c-.4.2-.7.5-1 .7zm-83.4-1.1c-.3-.2-.6-.5-.9-.7l.4-.4c.3.2.6.5.9.7l-.4.4zm85.6-.7l-.4-.4c.3-.2.6-.5.9-.7l.4.4c-.3.2-.6.4-.9.7zm-87.7-1.2c-.3-.3-.6-.5-.8-.8l.4-.4c.3.3.6.5.8.8l-.4.4zm89.8-.7l-.4-.4c.3-.3.6-.5.8-.8l.4.4c-.2.3-.5.6-.8.8zm-91.9-1.2l-.8-.8.4-.4.8.8-.4.4zm94-.8l-.4-.4.8-.8.4.4c-.3.3-.5.6-.8.8zm-96-1.3c-.3-.3-.5-.6-.8-.8l.4-.4c.3.3.5.6.8.8l-.4.4zm98-.7l-.4-.4c.3-.3.5-.6.8-.8l.4.4c-.3.2-.6.5-.8.8zm-99.9-1.4c-.2-.3-.5-.6-.7-.9l.4-.4c.2.3.5.6.7.9l-.4.4zm101.7-.8l-.4-.4c.2-.3.5-.6.7-.9l.4.4c-.2.4-.4.6-.7.9zm-103.6-1.4c-.2-.3-.5-.6-.7-.9l.4-.3c.2.3.5.6.7.9l-.4.3zm105.4-.8l-.4-.3c.2-.3.5-.6.7-.9l.5.3c-.3.3-.5.6-.8.9zm-107.1-1.4c-.2-.3-.4-.6-.7-.9l.5-.3c.2.3.4.6.7.9l-.5.3zm108.8-.9l-.5-.3.6-.9.5.3c-.1.3-.4.6-.6.9zm-110.4-1.5c-.2-.3-.4-.6-.6-1l.5-.3.6.9-.5.4zm112-.8l-.5-.3c.2-.3.4-.6.6-1l.5.3c-.2.3-.4.6-.6 1zm-113.5-1.6c-.2-.3-.4-.6-.6-1l.5-.3c.2.3.4.6.6 1l-.5.3zm115-.9l-.5-.3c.2-.3.4-.7.6-1l.5.3c-.2.4-.4.7-.6 1zm-116.5-1.5c-.2-.3-.4-.7-.5-1l.5-.3c.2.3.4.7.5 1l-.5.3zm117.9-1l-.5-.3c.2-.3.4-.7.5-1l.5.3c-.1.4-.3.7-.5 1zm-119.2-1.5c-.2-.3-.3-.7-.5-1l.5-.2c.2.3.3.7.5 1l-.5.2zm120.5-1l-.5-.2c.2-.3.3-.7.5-1l.5.2c-.2.3-.3.6-.5 1zm-121.7-1.6c-.2-.3-.3-.7-.5-1l.5-.2c.1.3.3.7.4 1l-.4.2zm122.9-1l-.5-.2c.1-.3.3-.7.4-1l.5.2c-.1.3-.3.6-.4 1zm-124-1.6c-.1-.4-.3-.7-.4-1.1l.5-.2c.1.4.3.7.4 1.1l-.5.2zm125-1.1l-.5-.2c.1-.4.3-.7.4-1.1l.5.2c-.1.4-.3.8-.4 1.1zm-126-1.6c-.1-.4-.2-.7-.4-1.1l.5-.2c.1.4.2.7.4 1.1l-.5.2zm127-1.1l-.5-.2c.1-.4.2-.7.3-1.1l.5.2c-.1.4-.2.8-.3 1.1zm-127.8-1.6c-.1-.4-.2-.7-.3-1.1l.5-.2c.1.4.2.7.3 1.1l-.5.2zm128.6-1.1l-.5-.2c.1-.4.2-.7.3-1.1l.5.1c-.1.5-.2.8-.3 1.2zm-129.4-1.7c-.1-.4-.2-.7-.3-1.1l.6-.1c.1.4.2.7.3 1.1l-.6.1zm130.1-1.1l-.6-.1c.1-.4.2-.7.2-1.1l.6.1c0 .4-.1.8-.2 1.1zm-130.7-1.6c-.1-.4-.2-.7-.2-1.1l.6-.1c.1.4.1.7.2 1.1l-.6.1zm131.3-1.2l-.6-.1c.1-.4.1-.7.2-1.1l.6.1c-.1.4-.2.8-.2 1.1zm-131.8-1.6c-.1-.4-.1-.8-.2-1.1l.6-.1c.1.4.1.7.2 1.1l-.6.1zm132.2-1.2l-.6-.1c.1-.4.1-.7.2-1.1l.6.1c0 .4-.1.8-.2 1.1zm-132.6-1.7c0-.4-.1-.8-.1-1.1l.6-.1c0 .4.1.7.1 1.1l-.6.1zm133-1.1l-.6-.1c0-.4.1-.7.1-1.1h.6c0 .5-.1.8-.1 1.2zm-133.3-1.7c0-.4-.1-.8-.1-1.1h.6c0 .4 0 .8.1 1.1h-.6zm133.5-1.1h-.6c0-.4 0-.8.1-1.1h.6c0 .3-.1.7-.1 1.1zm-133.7-1.7v-1.1h.6v1.1h-.6zm133.8-1.2h-.6v-1.1h.6v1.1zm-.5-1.7v-1.1h.6v1.1h-.6zm-132.7 0h-.6v-1.1h.6v1.1zm132.6-2.8c0-.4 0-.8-.1-1.1h.6c0 .4 0 .8.1 1.1h-.6zm-132.5 0h-.6c0-.4 0-.8.1-1.1h.6c-.1.3-.1.7-.1 1.1zm132.3-2.8c0-.4-.1-.8-.1-1.1l.6-.1c0 .4.1.8.1 1.1l-.6.1zm-132.1 0l-.6-.1c0-.4.1-.8.1-1.1l.6.1c-.1.3-.1.7-.1 1.1zm131.8-2.8c-.1-.4-.1-.7-.2-1.1l.6-.1c.1.4.1.8.2 1.1l-.6.1zm-131.5 0l-.6-.1c.1-.4.1-.8.2-1.1l.6.1c-.1.3-.2.7-.2 1.1zm131-2.8c-.1-.4-.1-.7-.2-1.1l.6-.1c.1.4.1.7.2 1.1l-.6.1zm-130.6 0l-.6-.1c.1-.4.1-.7.2-1.1l.6.1c0 .3-.1.7-.2 1.1zm130.1-2.8c-.1-.4-.2-.7-.3-1.1l.6-.1c.1.4.2.7.3 1.1l-.6.1zm-129.5 0l-.6-.1c.1-.4.2-.7.3-1.1l.6.1c-.1.4-.2.7-.3 1.1zm128.8-2.7c-.1-.4-.2-.7-.3-1.1l.5-.2c.1.4.2.7.3 1.1l-.5.2zm-128.1 0l-.5-.1c.1-.4.2-.7.3-1.1l.5.1c-.1.3-.2.7-.3 1.1zm127.3-2.7c-.1-.4-.2-.7-.3-1.1l.5-.2c.1.4.2.7.4 1.1l-.6.2zm-126.5 0l-.5-.2c.1-.4.2-.7.4-1.1l.5.2c-.2.3-.3.7-.4 1.1zm125.6-2.7c-.1-.4-.3-.7-.4-1.1l.5-.2c.1.4.3.7.4 1.1l-.5.2zm-124.7 0l-.5-.2c.1-.4.3-.7.4-1.1l.5.2c-.2.4-.3.7-.4 1.1zm123.7-2.6c-.1-.3-.3-.7-.4-1l.5-.2c.2.3.3.7.4 1l-.5.2zm-122.7-.1l-.5-.2c.1-.4.3-.7.4-1.1l.5.2c-.1.4-.3.8-.4 1.1zm121.5-2.5c-.2-.3-.3-.7-.5-1l.5-.2c.2.3.3.7.5 1l-.5.2zm-120.4-.1l-.5-.2c.2-.3.3-.7.5-1l.5.2c-.1.4-.3.7-.5 1zm119.2-2.4c-.2-.3-.3-.7-.5-1l.5-.3c.2.3.4.7.5 1l-.5.3zm-117.9-.1l-.5-.3c.2-.3.4-.7.5-1l.5.3c-.2.3-.3.7-.5 1zm116.5-2.4c-.2-.3-.4-.7-.6-1l.5-.3c.2.3.4.7.6 1l-.5.3zm-115.2-.1l-.5-.3c.2-.3.4-.7.6-1l.5.3c-.2.4-.4.7-.6 1zm113.8-2.3l-.6-.9.5-.3c.2.3.4.6.6 1l-.5.2zm-112.3-.1l-.5-.3c.2-.3.4-.6.6-1l.5.3c-.2.4-.4.7-.6 1zm110.7-2.3l-.6-.9.5-.3c.2.3.4.6.7.9l-.6.3zm-109.1-.1l-.5-.3c.2-.3.4-.6.7-.9l.5.3c-.3.3-.5.6-.7.9zm107.5-2.2c-.2-.3-.5-.6-.7-.9l.4-.3c.2.3.5.6.7.9l-.4.3zm-105.9-.1l-.4-.3c.2-.3.5-.6.7-.9l.4.4c-.2.2-.5.5-.7.8zm104.1-2.1c-.2-.3-.5-.6-.7-.9l.4-.4c.2.3.5.6.7.9l-.4.4zm-102.3-.1l-.4-.4c.2-.3.5-.6.7-.9l.4.4c-.2.3-.5.6-.7.9zm100.5-2c-.3-.3-.5-.6-.8-.8l.4-.4c.3.3.5.6.8.8l-.4.4zm-98.7-.1l-.4-.4c.3-.3.5-.6.8-.8l.4.4c-.3.2-.5.5-.8.8zm96.8-2l-.8-.8.4-.4.8.8-.4.4zm-94.8-.1l-.4-.4.8-.8.4.4-.8.8zm92.8-1.9c-.3-.3-.6-.5-.8-.8l.4-.4c.3.3.6.5.8.8l-.4.4zm-90.8 0l-.4-.5c.3-.3.6-.5.8-.8l.4.4c-.3.3-.6.6-.8.9zm88.7-1.9c-.3-.2-.6-.5-.9-.7l.4-.4c.3.2.6.5.9.7l-.4.4zm-86.6 0l-.4-.4c.3-.2.6-.5.9-.7l.4.4c-.4.2-.6.4-.9.7zm84.4-1.8c-.3-.2-.6-.5-.9-.7l.3-.5c.3.2.6.5.9.7l-.3.5zm-82.3 0l-.4-.4c.3-.2.6-.5.9-.7l.3.5c-.2.1-.5.3-.8.6zm80-1.7c-.3-.2-.6-.4-.9-.7l.3-.5c.3.2.6.4.9.7l-.3.5zm-77.7 0l-.3-.5c.3-.2.6-.4.9-.7l.3.5c-.3.2-.6.5-.9.7zm75.4-1.6l-.9-.6.3-.5c.3.2.6.4 1 .6l-.4.5zm-73.1 0l-.3-.5c.3-.2.6-.4 1-.6l.3.5c-.4.2-.7.4-1 .6zm70.7-1.5c-.3-.2-.6-.4-1-.6l.3-.5c.3.2.7.4 1 .6l-.3.5zm-68.3 0l-.3-.5c.3-.2.7-.4 1-.6l.3.5c-.3.2-.7.4-1 .6zm65.9-1.4c-.3-.2-.7-.4-1-.5l.3-.5c.3.2.7.4 1 .5l-.3.5zm-63.4 0l-.3-.5c.3-.2.7-.4 1-.5l.3.5c-.4.1-.7.3-1 .5zm60.8-1.3c-.3-.2-.7-.3-1-.5l.2-.5c.3.2.7.3 1 .5l-.2.5zm-58.3 0l-.2-.5c.3-.2.7-.3 1-.5l.2.5c-.4.1-.7.3-1 .5zm55.8-1.2c-.3-.2-.7-.3-1-.4l.2-.5c.4.1.7.3 1.1.5l-.3.4zm-53.3 0l-.2-.5c.3-.2.7-.3 1-.4l.2.5c-.3.1-.6.2-1 .4zm50.7-1.1c-.4-.1-.7-.3-1.1-.4l.2-.5c.4.1.7.3 1.1.4l-.2.5zm-48.1 0l-.2-.5c.4-.1.7-.3 1.1-.4l.2.5c-.4.1-.7.3-1.1.4zm45.4-.9c-.4-.1-.7-.2-1.1-.4l.2-.5c.4.1.7.2 1.1.4l-.2.5zm-42.7-.1l-.2-.5c.4-.1.7-.2 1.1-.4l.2.5c-.4.2-.8.3-1.1.4zm40-.8c-.4-.1-.7-.2-1.1-.3l.1-.5c.4.1.7.2 1.1.3l-.1.5zm-37.3 0l-.2-.5c.4-.1.7-.2 1.1-.3l.2.5c-.4.1-.8.2-1.1.3zm34.6-.7c-.4-.1-.7-.2-1.1-.3l.1-.6c.4.1.7.2 1.1.3l-.1.6zm-31.9 0l-.1-.6c.4-.1.7-.2 1.1-.3l.1.6c-.4.1-.8.2-1.1.3zm29.1-.7c-.4-.1-.7-.1-1.1-.2l.1-.6c.4.1.7.1 1.1.2l-.1.6zm-26.4 0l-.1-.6c.4-.1.7-.1 1.1-.2l.1.6c-.3.1-.7.2-1.1.2zm23.6-.5c-.4-.1-.7-.1-1.1-.2l.1-.6c.4.1.8.1 1.1.2l-.1.6zm-20.8 0l-.1-.6c.4-.1.8-.1 1.1-.2l.1.6c-.3.1-.7.2-1.1.2zm18-.3c-.4 0-.7-.1-1.1-.1l.1-.6c.4 0 .8.1 1.1.1l-.1.6zm-15.2 0l-.1-.6c.4 0 .8-.1 1.1-.1l.1.6c-.3 0-.7 0-1.1.1zm12.4-.3c-.4 0-.8-.1-1.1-.1v-.6c.4 0 .8 0 1.1.1v.6zm-9.6 0v-.6c.4 0 .8-.1 1.1-.1v.6c-.3.1-.7.1-1.1.1zm6.8-.1h-1.1v-.6h1.1v.6zm-4 0v-.6h1.1v.6c-.3-.1-.7 0-1.1 0z"/></g><path fill="#C828BD" d="M-118.3 461c-5 0-9.1 4.1-9.1 9.1s4.1 9.1 9.1 9.1 9.1-4.1 9.1-9.1-4.1-9.1-9.1-9.1zm-6 13.3c-.3 0-.5-.2-.5-.5s.2-.5.5-.5.5.2.5.5-.2.5-.5.5zm3.9-5.1c-.3 0-.5-.2-.5-.5s.2-.5.5-.5.5.2.5.5c0 .2-.2.5-.5.5zm5.7 6.8c-.7 0-1.3-.6-1.3-1.3 0-.7.6-1.3 1.3-1.3s1.3.6 1.3 1.3-.6 1.3-1.3 1.3zm-1-6.8c-1.3 0-2.3-1-2.3-2.3s1-2.3 2.3-2.3 2.3 1 2.3 2.3-1 2.3-2.3 2.3z"/><g fill="#03709C"><circle cx="-151.5" cy="413.7" r="2.1"/><circle cx="-4.7" cy="449.2" r="2.1"/><circle cx="-51.3" cy="481.1" r="1.2"/><circle cx="-63.3" cy="510.3" r="1.2"/><circle cx="-119.8" cy="362" r=".9"/><circle cx="-66.6" cy="345.5" r=".8"/><circle cx="-18.5" cy="392" r="1.5"/><circle cx="-44.2" cy="486.5" r="4.7"/><circle cx="-147.6" cy="418.8" r=".8"/></g><g fill="#FFF"><ellipse cx="-40.6" cy="390.6" rx="3.4" ry="3.7"/><circle cx="-50.4" cy="390.3" r=".8"/><circle cx="-66" cy="458.4" r="4"/><circle cx="-29.8" cy="443.1" r=".6"/><circle cx="-89.3" cy="391" r=".6"/><circle cx="-81.6" cy="461.5" r=".8"/></g><g fill="#FFF"><path d="M-92 441.4c.1-.7-.2-1.4-.7-2l-5.2-5.4c-1.1-1.1-1.7-2.7-1.5-4.2.1-1.6.9-3 2.2-4 1.2-.9 2.9-1.3 4.4-1s2.9 1.3 3.7 2.6c.4.8.2 1.7-.6 2.2-.8.4-1.7.2-2.1-.6-.4-.6-.9-1-1.6-1.1s-1.3 0-1.9.5c-.6.4-.9 1-.9 1.7-.1.7.2 1.3.7 1.8l5.2 5.4c1.1 1.2 1.7 2.8 1.6 4.4s-.9 3.1-2.2 4.1c-1.3 1-2.9 1.3-4.5 1s-3-1.3-3.8-2.7c-.5-.8-.2-1.7.6-2.2.8-.4 1.7-.2 2.2.6.4.6.9 1 1.7 1.2.7.1 1.4 0 2-.5.3-.5.7-1.1.7-1.8zM-84.6 441.3v-11.1c0-2.5 1.7-4.7 4-5.3 2.4-.7 4.9.4 6.2 2.5.5.8.2 1.7-.6 2.2-.8.4-1.7.2-2.2-.6-.5-.9-1.6-1.4-2.6-1.1s-1.7 1.2-1.7 2.3v11.1c0 1.1.7 2 1.7 2.3s2.1-.2 2.6-1.1c.5-.8 1.4-1 2.2-.6.8.5 1 1.4.6 2.2-1.2 2.2-3.8 3.2-6.2 2.5-2.3-.6-4-2.8-4-5.3zM-69.9 441.3v-11.1c0-3 2.4-5.5 5.5-5.5s5.5 2.4 5.5 5.5v11.1c0 3-2.4 5.5-5.5 5.5s-5.5-2.4-5.5-5.5zm3.1-11.1v11.1c0 1.3 1 2.4 2.4 2.4s2.4-1 2.4-2.4v-11.1c0-1.3-1-2.4-2.4-2.4s-2.4 1.1-2.4 2.4zM-54.2 441.3v-11.1c0-3 2.4-5.5 5.5-5.5 3 0 5.5 2.4 5.5 5.5v11.1c0 3-2.4 5.5-5.5 5.5-3 0-5.5-2.4-5.5-5.5zm3.2-11.1v11.1c0 1.3 1 2.4 2.4 2.4 1.3 0 2.4-1 2.4-2.4v-11.1c0-1.3-1-2.4-2.4-2.4-1.4.1-2.4 1.1-2.4 2.4zM-36.5 424.9h3.9c3 0 5.5 2.4 5.5 5.5v1.8c0 3-2.4 5.5-5.5 5.5H-35v7.6c0 .9-.7 1.6-1.6 1.6-.9 0-1.6-.7-1.6-1.6v-18.8c.1-.9.8-1.6 1.7-1.6zm3.9 3.1H-35v6.5h2.4c1.3 0 2.4-1 2.4-2.4v-1.8c0-1.2-1.1-2.3-2.4-2.3z"/></g><path fill="#03709C" d="M-125.1 459.9l-.7-1 .2-.1.6 1M-126.7 457.4l-1.2-2.1.3-.1 1.1 2M-128.7 453.7l-1-2.1.3-.2 1 2.2M-130.5 450l-.8-2.2.4-.2.8 2.2M-131.9 446.1l-.8-2.2.6-.2.7 2.2M-133.2 442.1l-.5-2.3.6-.1.5 2.3M-134.1 438.1l-.4-2.4.7-.1.4 2.4M-134.8 434l-.2-2.4.8-.1.2 2.4M-135.1 429.8l-.1-2.3.9-.1v2.4M-135.2 425.7v-2.4h1l-.1 2.4M-135 421.5l.2-2.4 1 .2-.2 2.3M-134.6 417.4l.4-2.4 1.1.2-.4 2.3M-133.8 413.3l.6-2.3 1.1.2-.6 2.3M-132.8 409.2l.7-2.2 1.2.3-.7 2.3M-128 397.6l1.1-2 1.3.7-1.2 2M-125.9 394l1.3-2 1.2.8-1.3 2M-123.6 390.5l1.4-1.8 1.3.9-1.5 1.9M-121 387.2l1.5-1.7 1.2 1-1.5 1.8M-118.2 384.1l1.6-1.6 1.2 1.1-1.7 1.7M-115.2 381.2l1.8-1.6 1.1 1.3-1.8 1.6M-112 378.5l1.9-1.4 1 1.4-1.9 1.4M-108.6 376s.5-.3 1-.7c.5-.3 1-.7 1-.7l1 1.6-1 .6-1 .6-1-1.4zM-105.1 373.7l2.1-1.1.9 1.6-2.1 1.2M-101.4 371.7l2.1-1 .9 1.8-2.2 1M-97.6 370l2.2-.9.7 1.9-2.2.8M-93.7 368.5l2.3-.8.6 2.1-2.2.7M-89.6 367.2l2.2-.5.6 2.1-2.3.5M-85.5 366.3l2.3-.4.4 2.2-2.4.4M-81.4 365.6l2.4-.2.2 2.3-2.4.2M-77.2 365.3l2.4-.1v2.3l-2.3.1M-73 365.2l2.4.1-.1 2.3-2.4-.1M-68.8 365.4l2.4.3-.3 2.3-2.3-.2M-64.6 366l2.3.4-.4 2.2-2.3-.4M-60.5 366.8l2.3.6-.5 2.1-2.3-.5M-56.4 367.9l2.2.8-.6 2-2.3-.7M-52.4 369.3l2.2.9-.8 1.9-2.2-.9M-48.6 371l2.1 1-.8 1.7-2.1-1M-44.9 372.9l2.1 1.2-.9 1.5-2.1-1.1M-41.3 375.1l2 1.3-.9 1.4-2-1.3M-37.9 377.5l1.9 1.5-.9 1.1-1.9-1.4M-34.7 380.2l1.8 1.6-.8.9-1.8-1.5M-31.6 383.1l1.6 1.7-.7.7-1.7-1.6M-28.8 386.2l1.5 1.8-.6.5-1.6-1.8M-26.3 389.4l1.4 2-.4.3-1.5-1.9M-23.9 392.9l.6 1-.2.2-.7-1"/><g><path fill="#03709C" d="M1.4 451.5l-.5 1.1-.2-.1.5-1.1M.2 454.2l-1.1 2.1-.3-.2 1.1-2.1M-1.8 457.8l-1.2 2-.4-.2 1.3-2M-4 461.3l-1.4 1.9-.4-.2 1.4-1.9M-6.5 464.7l-1.5 1.8-.4-.4 1.5-1.8M-9.2 467.8l-1.6 1.8-.5-.5 1.7-1.7M-12.1 470.8l-1.7 1.6-.5-.5 1.8-1.6M-15.2 473.6l-1.8 1.5-.5-.7 1.8-1.4M-18.5 476.1l-1.9 1.4-.5-.7 2-1.3M-21.9 478.5l-2.1 1.2-.4-.8 2-1.2M-25.5 480.6l-2.1 1-.5-.9 2.1-1M-29.3 482.4l-2.1.9-.5-1 2.2-.9M-33.1 484l-2.3.8-.3-1.2 2.2-.7M-37.1 485.3l-2.3.6-.3-1.2 2.3-.6M-41.1 486.3l-2.4.5-.2-1.3 2.3-.4M-45.2 487.1l-2.4.3-.2-1.4 2.4-.2M-49.4 487.6l-2.4.1v-1.4l2.3-.1M-53.6 487.7h-2.3v-1.4h2.3M-57.8 487.7l-2.3-.2.1-1.6 2.4.3M-61.9 487.3l-2.4-.4.3-1.5 2.3.3M-66.1 486.6l-2.3-.5.4-1.6 2.3.5M-70.1 485.7l-2.3-.7.5-1.7 2.2.7M-74.2 484.4l-2.2-.8.6-1.7 2.3.9M-78.1 482.9s-.5-.2-1.1-.5c-.5-.2-1.1-.5-1.1-.5l.8-1.7s.5.2 1.1.5c.5.2 1.1.5 1.1.5l-.8 1.7zM-81.9 481.2l-2.1-1.1.9-1.7 2.1 1.1M-85.6 479.2l-2-1.3 1.1-1.7 2 1.3M-89.1 476.9l-2-1.4 1.3-1.6 1.9 1.4M-92.5 474.4l-1.8-1.5 1.3-1.6 1.8 1.5M-95.7 471.7l-1.7-1.6 1.5-1.6 1.7 1.6M-98.7 468.7l-1.6-1.7 1.6-1.5 1.6 1.7M-101.5 465.6l-1.5-1.9 1.8-1.4 1.5 1.9M-104.1 462.3l-1.4-2 2-1.3 1.3 1.9M-106.4 458.7l-1.2-2 2-1.2 1.2 2.1M-108.5 455.1l-1.1-2.1 2.1-1.1 1.1 2.1M-110.3 451.3l-.9-2.2 2.1-.9.9 2.2M-111.9 447.4l-.7-2.3 2.1-.7.8 2.2M-113.1 443.3l-.6-2.3 2.1-.5.6 2.3M-114.1 439.2l-.4-2.3 2-.4.5 2.3M-114.8 435.1l-.2-2.4 1.9-.2.3 2.4M-115.1 430.9l-.1-2.3 1.7-.1.2 2.3M-115.2 426.7l.1-2.3h1.5l.1 2.4M-115 422.5l.2-2.3 1.4.1-.1 2.4M-114.5 418.4l.4-2.3 1.2.2-.3 2.3M-113.7 414.3l.6-2.3.9.2-.4 2.3M-112.6 410.3l.7-2.3.7.2-.6 2.3M-111.3 406.3l.9-2.1.5.1-.8 2.3M-109.6 402.5l.5-1.1.2.1-.4 1.1"/></g><g><path fill="#03709C" d="M-69.5 351.5l1.1-.1v.2l-1.1.1M-66.6 351.2h2.4v.3h-2.4M-62.4 351.2l2.3.1v.4l-2.4-.2M-58.3 351.4l2.3.2v.5l-2.4-.3M-54.2 351.9l2.3.4-.1.6-2.3-.5M-50.1 352.7l2.3.6-.2.6-2.3-.6M-46.1 353.7l2.3.8-.3.7-2.2-.8M-42.1 355.1l2.2.9-.4.7-2.1-.9M-38.3 356.7l2.1 1-.4.8-2.1-1.1M-34.6 358.6l2.1 1.1-.5.9-2-1.3M-31 360.7l2 1.3-.6.8-1.9-1.3M-27.5 363l1.8 1.5-.7.8-1.8-1.4M-24.3 365.6l1.8 1.6-.8.9-1.7-1.6M-21.2 368.4l1.7 1.7-.9.9-1.7-1.7M-13.2 378l1.3 2-1.2.8-1.2-2M-10.9 381.6l1.1 2-1.3.7-1.1-2M-9 385.3l1 2.1-1.4.6-.9-2.1M-7.3 389.1l.9 2.2-1.5.5-.8-2.2M-5.8 393l.7 2.3-1.6.4-.7-2.2M-4.6 397l.5 2.3-1.7.4-.5-2.3M-3.7 401.1l.4 2.4-1.8.2-.3-2.3M-3.1 405.3s.1.6.1 1.2c.1.6.1 1.2.1 1.2l-1.8.1s0-.6-.1-1.2-.1-1.2-.1-1.2l1.8-.1zM-2.8 409.5l.1 2.3-1.9.1v-2.4M-2.7 413.7l-.1 2.3-2-.1.2-2.3M-2.9 417.9l-.3 2.3-2-.2.3-2.4M-3.4 422l-.4 2.4-2.1-.4.4-2.4M-4.2 426.2l-.6 2.3-2.1-.6.6-2.3M-5.3 430.2l-.7 2.3-2.2-.7.8-2.3M-6.7 434.2l-.9 2.2-2.1-.9.9-2.1M-8.3 438.1l-1 2.1-2.2-1 1.1-2.1M-10.2 441.9l-1.2 2-2-1.2 1.1-2M-12.4 445.5l-1.3 1.9-2-1.3 1.4-1.9M-14.8 448.9l-1.5 1.9-1.8-1.4 1.5-1.9M-17.5 452.2l-1.6 1.7-1.6-1.5 1.5-1.7M-20.4 455.2l-1.7 1.7-1.5-1.5 1.7-1.7M-23.5 458.1l-1.8 1.5-1.3-1.5 1.8-1.6M-26.7 460.7l-2 1.4-1.1-1.5 1.9-1.5M-30.2 463.1l-2 1.2-.9-1.4 1.9-1.3M-33.8 465.2l-2.1 1.1-.8-1.4 2.1-1.1M-37.5 467.1l-2.2.9-.6-1.2 2.1-1M-41.4 468.7l-2.2.8-.5-1.1 2.2-.9M-45.4 470l-2.2.7-.3-1 2.2-.7M-49.4 471.1l-2.3.4-.2-.7 2.3-.6M-53.5 471.8l-2.3.3-.1-.5 2.3-.4M-57.7 472.3h-1.2v-.2l1.2-.2"/></g><circle fill="#FFF" cx="-63.9" cy="422.5" r=".1"/><path fill="#03709C" d="M-126.7 396.4s-5.8 2.3-7.6 7.2c-.5 1.4-.9 2.8-1 4h-.6l-.9.3c-.3.2-.5.3-.7.5-.4.4-.6.8-.8 1.3-.3.9-.4 1.7-.4 2.6 0 .8.1 1.7.4 2.4 0-.8.1-1.6.3-2.3.2-.7.5-1.4 1-2 .2-.3.5-.5.7-.6.1-.1.2-.1.3-.1H-135.7s.1 0 .1.1c.1 0 .1.1.2.2 0 0 0 .1.1.1.1.9.3 1.7.6 2.3.3.7 2.8 1.7 3.6 1.4.7-.3 1.4-.8 2.1-1.5h.4c.1 0 .1.1.2.1.1.1.1.2.2.3.1.3.1.6.1.9 0 .7-.2 1.4-.6 2.1-.3.7-.8 1.4-1.3 2 .7-.4 1.3-1 1.9-1.6.6-.6 1-1.3 1.4-2.2.2-.4.3-.9.3-1.5 0-.3 0-.6-.1-.8-.1-.3-.2-.6-.5-.8l-.4-.4h-.1c.7-1.1 1.4-2.3 1.9-3.7 1.7-4.7-1.1-10.3-1.1-10.3zm-.5 7.3c-.4 1.1-1.6 1.7-2.7 1.2-1.1-.4-1.7-1.6-1.2-2.7.4-1.1 1.6-1.7 2.7-1.2 1.1.4 1.6 1.6 1.2 2.7zM-15.3 368.1c-1.3-1.6-2.7-2.9-4.2-3.9l.1-.1.3-.6c.2-.4.2-.9.2-1.3s-.1-.8-.2-1.2c-.2-.7-.6-1.3-1-1.8-.8-1-1.8-1.7-2.8-2.3-1-.6-2.1-1-3.2-1.2 1 .5 1.8 1.2 2.6 2 .7.8 1.4 1.6 1.7 2.5.2.4.3.9.3 1.2 0 .2 0 .3-.1.5 0 .1-.1.2-.2.3l-.1.1s-.1 0-.1.1c-.1 0-.2.1-.3.1h-.1c-1.1-.5-2.2-.8-3.2-.9-1.1-.1-3.9 2.3-4.1 3.3-.1 1 0 2.2.4 3.5 0 .1-.1.2-.1.3 0 0 0 .1-.1.1l-.1.1c-.1.1-.2.1-.3.1h-.5c-.4-.1-.8-.2-1.2-.5-.8-.5-1.6-1.2-2.2-2.1s-1.1-1.8-1.5-2.9c.1 1.1.3 2.2.7 3.3.4 1.1.9 2.2 1.8 3.1.4.5.9.9 1.6 1.3.3.2.7.3 1.1.4s.9.1 1.3 0c.2 0 .4-.1.7-.2h.1c.8 1.6 1.9 3.2 3.2 4.8 4.6 5.5 13.1 5.8 13.1 5.8s1-8.5-3.6-13.9zm-.8 8.8c-1.2 1-3.1.9-4.1-.4-1-1.2-.9-3.1.4-4.1 1.2-1 3.1-.9 4.1.3 1 1.3.8 3.2-.4 4.2z"/><path fill="#72C800" d="M-72.8 343.9v-.3s0-.2-.1-.3c-.1-.4-.3-.8-.5-1.1-.4-.7-1-1.1-1.6-1.5-1.2-.7-2.3-1.1-3.4-1.4-1-.2-2-.3-2.7-.4h-2.4.6s1 .1 1.7.2 1.6.3 2.6.6 2 .8 3 1.5c.5.4.9.8 1.2 1.3.1.3.3.5.3.8v.9c-.1 1.3-.9 2.5-2 3.5s-2.5 1.8-4 2.5c-1.5.6-3.1 1.1-4.7 1.3-1.6.1-3.3.1-4.8-.3-.7-.2-1.3-.6-1.7-1-.4-.5-.5-1-.3-1.5l.1-.1c0-.1.1-.2.1-.2 0-.1.1-.1.1-.2l.2-.2.6-.6c-.1.2-.2.4-.2.7v.8c.2.6.6 1 1 1.3.8.5 1.7.7 2.6.7.9.1 1.7 0 2.6-.2.2 0 .5-.1.7-.1.2-.1.5-.1.7-.2.4-.1.9-.3 1.3-.5.9-.4 1.7-.9 2.5-1.6.4-.3.8-.7 1.1-1.2s.6-1.1.7-1.8c0-.3 0-.7-.1-1v-.1l-.1-.2-.1-.2c-.1-.1-.2-.3-.2-.5-.4-.6-.8-1-1.3-1.3-1-.6-2.1-.9-3.2-1-2.2-.3-4.4.1-6.4.7-2.1.6-4.1 1.5-5.7 3-.8.7-1.5 1.6-2 2.5-.5 1-.8 2.1-.8 3.2.1 1.1.5 2.2 1.1 3 .6.9 1.4 1.5 2.2 1.9 1.6.9 3.3 1.5 4.9 1.7 3.1.5 5.8.4 7.6.3.9-.1 1.6-.2 2.1-.3.5-.1.7-.1.7-.1h-2.8s-2-.1-3.2-.2-2.6-.3-4.1-.7c-1.5-.4-3-.9-4.5-1.8-.7-.4-1.4-1-1.8-1.7-.5-.7-.8-1.5-.8-2.3 0-1.7 1-3.4 2.5-4.6s3.3-2 5.2-2.6c1.9-.5 3.9-.8 5.8-.5.9.1 1.8.4 2.5.8s1 1.1 1 1.6c0 .4-.3.8-.6 1.2v-.2-.5c-.1-.4-.3-.7-.5-1-.3-.3-.5-.5-.8-.6-1.2-.6-2.5-.6-3.9-.5-.7.1-1.4.2-2.1.4-.7.2-1.4.5-2.1.8s-1.4.8-2.1 1.3c-.3.3-.7.6-1 .9l-.2.3-.2.3c-.1.1-.1.2-.2.3l-.1.1v.2c-.2.5-.3 1.1-.1 1.6.1.6.4 1.1.7 1.5.7.8 1.6 1.3 2.5 1.5 1.8.5 3.6.5 5.4.3s3.5-.8 5.1-1.5 3.1-1.7 4.3-2.8c.6-.6 1.1-1.3 1.6-2 .4-.7.7-1.6.7-2.4-.2.2-.2 0-.2-.2z"/><g><g fill="#00A8DE"><path d="M27.2 428.6c-.5.3-1.3.7-2.3 1.2s-2.1 1-3.3 1.6c-.6.3-1.2.6-1.9.8-.6.3-1.3.6-2 .8-1.4.5-2.8.8-4.2 1.1-.7.2-1.3.3-2 .4-.6.1-1.2.3-1.8.4-1.1.2-2 .4-2.7.5s-1 .1-1 .1c-1.4.2-2.7.9-3.6 2.1-1.6 2.3-1.1 5.4 1.2 7.1 2.3 1.6 5.4 1.1 7.1-1.2 0 0 .2-.3.6-.8.4-.5 1-1.3 1.7-2.1.4-.4.8-.9 1.2-1.4s.9-1 1.4-1.5c.9-1 1.9-2.1 3-3.1.5-.5 1.1-.9 1.7-1.3s1.1-.8 1.7-1.2c1.1-.8 2.1-1.5 3-2.1.9-.6 1.7-1 2.2-1.4.5-.3.9-.5.9-.5s-.4.2-.9.5zm-18 12.1c.2.4.2 1.1-.2 1.6-.4.6-1.1.8-1.7 1.1-.4.2-.7.2-1.1.1-.7-.3-1.5-.5-1.9-1.1-.2-.3-.1-.6-.1-.9 0-.4-.3-.8-.2-1.3 0-.3.4-.6.5-.9s.1-.7.4-1c.3-.2.6-.3.8-.6.4-.4.9-1 1.3-.6.2.2 1.4.8 1.8.9.4.1.6.7.3 1-.1.2-.1 1.2.1 1.7z"/><path d="M6.7 438.2c-.3.6-.4.3-.9.5.1.2.4.9.7.8.2-.1.8-.9.7-1 0-.2-.4-.4-.5-.3zM4.9 440.2c-.1 0-.1 0-.2.1.2-.2.3.7.3.7 0 .2 0 .7.2.8s.3-.4.4-.9c.2-.2-.3-.7-.7-.7zM8.4 440.7c-.1 0-.2 0-.4.1-.1.1-.2.1-.2.2-.1.2-.5 1-.3 1.1.2.2.7-.1.9-.3.2-.3-.1-.4-.2-.6 0-.3.2-.4.2-.5z"/></g></g><path fill="#03709C" d="M20.6 395.4c.1-1.9-.8-3.8-2.6-4.7s-3.9-.6-5.4.7c-2-.8-3.6-1.2-4.6-1.2-.6 0-1.1.2-1.2.6-.4.7.3 1.7 2.1 3 .6.4 1.2.9 1.9 1.3-.1 1.9.8 3.8 2.6 4.7s3.9.6 5.4-.7c2 .8 3.6 1.2 4.6 1.2.6 0 1.1-.2 1.2-.6.6-1.1-1.7-2.9-4-4.3zm-12.7-4.2c.8 0 2.1.3 3.9 1-.2.2-.3.5-.5.8-.1.3-.2.5-.3.8-1.9-1.2-2.9-2.1-3.1-2.6zm15.5 7.9c-.7 0-2-.3-3.8-1 .2-.2.3-.5.5-.8.1-.3.2-.5.3-.8 1.8 1.2 2.8 2.1 3.1 2.6h-.1z"/><g fill="#FFF"><path d="M-92.3 415.5c.1-.7-.2-1.4-.7-1.9l-5-5.1c-1.1-1.1-1.6-2.5-1.5-4s.9-2.9 2-3.7c1.2-.9 2.7-1.2 4.2-1 1.5.3 2.7 1.2 3.5 2.5.4.7.2 1.6-.6 2-.7.4-1.6.2-2-.6-.3-.6-.9-.9-1.5-1.1-.7-.1-1.3 0-1.8.4s-.8 1-.9 1.6.2 1.2.6 1.7l4.9 5.1c1.1 1.1 1.6 2.6 1.5 4.1s-.9 2.9-2.1 3.9c-1.2.9-2.8 1.3-4.3 1s-2.8-1.3-3.6-2.6c-.4-.7-.2-1.6.5-2s1.6-.2 2 .6c.3.6.9 1 1.6 1.1s1.4 0 1.9-.5c.9-.2 1.2-.8 1.3-1.5zM-82 399.9h3.7c2.9 0 5.2 2.3 5.2 5.2v1.7c0 2.9-2.3 5.2-5.2 5.2h-2.2v7.2c0 .8-.7 1.5-1.5 1.5s-1.5-.7-1.5-1.5v-17.8c0-.8.7-1.5 1.5-1.5zm3.8 2.9h-2.2v6.2h2.2c1.2 0 2.2-1 2.2-2.2v-1.7c0-1.3-1-2.3-2.2-2.3zM-52.4 415.5v-10.6c0-2.4 1.6-4.4 3.8-5 2.3-.6 4.7.4 5.9 2.4.4.7.2 1.6-.5 2s-1.6.2-2-.6c-.5-.9-1.5-1.3-2.5-1-1 .2-1.6 1.1-1.6 2.1v10.5c0 1 .7 1.9 1.6 2.2 1 .2 2-.2 2.5-1.1.4-.7 1.3-1 2-.6s1 1.3.5 2c-1.2 2-3.6 3-5.9 2.4-2.2-.3-3.8-2.4-3.8-4.7zM-35.4 399.9h6.2c.8 0 1.5.7 1.5 1.5s-.7 1.5-1.5 1.5h-4.7v5.6h4.1c.8 0 1.5.7 1.5 1.5s-.6 1.5-1.5 1.5h-4.1v6.2h4.7c.8 0 1.5.7 1.5 1.5s-.7 1.5-1.5 1.5h-6.2c-.8 0-1.5-.6-1.5-1.5v-17.8c0-.8.7-1.5 1.5-1.5zM-57.2 415.1l-5-18c-.2-.7-.7-1.1-1.4-1.1s-1.3.4-1.4 1.1l-5 18c-.2.8.2 1.6 1 1.8.8.2 1.6-.2 1.8-1 0 0 .4-1.3.9-3.3l2.3-8.4c.1-.4.2-.7.3-1.1.1.4.2.8.4 1.3l2.3 8.2c.1.5.3 1 .4 1.4l.3 1.2c.1.4.2.7.2.7.2.8 1 1.2 1.8 1 .8-.2 1.3-1 1.1-1.8z"/></g></svg>