<svg xmlns="http://www.w3.org/2000/svg" viewBox="270 -180 1819.5 1160"><linearGradient id="a" gradientUnits="userSpaceOnUse" x1="1179" y1="1067.553" x2="1179" y2="5.439" gradientTransform="matrix(1 0 0 -1 0 800)"><stop offset="0" stop-color="#03709C"/><stop offset="1" stop-color="#F2F2F2"/></linearGradient><path fill="url(#a)" d="M268.8-182.7h1820.4v853.2H268.8z"/><g opacity=".47" fill="#337C95"><circle cx="456.8" cy="854" r="4.2"/><circle cx="349.3" cy="575.9" r="2.8"/><circle cx="376.4" cy="598.7" r="1.3"/><circle cx="461.2" cy="476.1" r="2.7"/><circle cx="468.9" cy="-180.5" r=".7"/><circle cx="322.1" cy="958.9" r="2.9"/><circle cx="448.2" cy="639.4" r="2.4"/><circle cx="448.4" cy="131.3" r="2.2"/><circle cx="480.8" cy="183.1" r="2.2"/><circle cx="388.3" cy="170.4" r="3"/><circle cx="732.1" cy="90.2" r="1.1"/><circle cx="509" cy="227.2" r="1.1"/><circle cx="589.9" cy="183.7" r="1.1"/><circle cx="869.8" cy="631.4" r="2.4"/><circle cx="803.2" cy="49.5" r="2.7"/><circle cx="848.1" cy="-105.9" r="3.3"/><circle cx="510.1" cy="-13" r="3.3"/><circle cx="832.7" cy="945.5" r="4.4"/><circle cx="526.4" cy="648.2" r="1.1"/><circle cx="817.3" cy="719.4" r="2.8"/><circle cx="312.8" cy="700.4" r="1.1"/><circle cx="836.6" cy="869" r="3.9"/><circle cx="418.2" cy="707.5" r="1.6"/><circle cx="412.8" cy="590.4" r="1.7"/><circle cx="286.6" cy="572.7" r="3.7"/><circle cx="576.6" cy="516.2" r="2.6"/><circle cx="803.3" cy="473.8" r="1.7"/><circle cx="850.6" cy="809.3" r="4.7"/><circle cx="385.7" cy="892.3" r=".4"/><circle cx="409.6" cy="863.8" r=".8"/><circle cx="433.6" cy="3.8" r="2.8"/><circle cx="418.8" cy="20.1" r="1.1"/><circle cx="335" cy="-26.4" r="1.1"/><circle cx="374.5" cy="-121.2" r="4.8"/><circle cx="314" cy="-50.9" r="4.2"/><circle cx="308.7" cy="-89.7" r="2.8"/><circle cx="335.8" cy="-66.9" r="1.3"/><circle cx="788.2" cy="-69.9" r="2.7"/><circle cx="344.3" cy="181" r=".6"/><circle cx="352.5" cy="130.2" r="1.1"/><circle cx="285.4" cy="95.8" r="3.9"/><circle cx="407.6" cy="-26.3" r="2.4"/><circle cx="720.9" cy="8.9" r="4.8"/><circle cx="817.9" cy="31.5" r="1.6"/><circle cx="507.1" cy="961.3" r="6.5"/><circle cx="457.8" cy="671.7" r="1.5"/><circle cx="426.6" cy="704.1" r="2.2"/><circle cx="459.1" cy="756" r="2.2"/><circle cx="317.7" cy="809.2" r="3.5"/><circle cx="766.8" cy="662" r="2.8"/><circle cx="708" cy="491.3" r="1.9"/><circle cx="505.3" cy="701.7" r="2.1"/><circle cx="358.5" cy="722.8" r="2.1"/><circle cx="489.1" cy="900.9" r="2.2"/><circle cx="527.5" cy="916.5" r="3"/><circle cx="710.4" cy="663.1" r="1.1"/><circle cx="849.2" cy="682.3" r="1.1"/><circle cx="703.7" cy="872.1" r="2.7"/><circle cx="764.2" cy="854.4" r="1.5"/><circle cx="616.9" cy="716.5" r="3.6"/><circle cx="501" cy="531" r="1.1"/><circle cx="568.2" cy="756.5" r="1.1"/><circle cx="756.7" cy="-17.6" r="2.4"/><circle cx="470" cy="760.1" r="3.8"/><circle cx="825.6" cy="934.1" r="2.9"/><circle cx="779.8" cy="786.4" r="2.5"/><circle cx="600.9" cy="-168.3" r="3.8"/><circle cx="520.6" cy="335.7" r="1.1"/><circle cx="508.5" cy="-84.6" r="3.8"/><circle cx="307" cy="387.9" r="1.1"/><circle cx="553.8" cy="-58.4" r="3.9"/><circle cx="412.4" cy="395" r="1.6"/><circle cx="407" cy="277.9" r="1.7"/><circle cx="280.8" cy="260.2" r="3.7"/><circle cx="561.3" cy="203.7" r="2.6"/><circle cx="797.5" cy="161.3" r="1.7"/><circle cx="630.5" cy="49.5" r="2.7"/><circle cx="885.7" cy="895.5" r="1.9"/><circle cx="632.7" cy="634.1" r="2.7"/><circle cx="583.5" cy="946" r="2.6"/><circle cx="796.3" cy="562" r="2.9"/><circle cx="614.8" cy="-43.1" r="3.6"/><circle cx="692.6" cy="356.4" r="1.1"/><circle cx="659.3" cy="270.8" r="1.1"/><circle cx="615" cy="357.1" r="1.1"/><circle cx="709.3" cy="-168.6" r="1.1"/><circle cx="678.8" cy="201.2" r="1.1"/><circle cx="501.2" cy="81.6" r="1.1"/><circle cx="346" cy="471.7" r="1.1"/><circle cx="306.9" cy="210.7" r="1.1"/><circle cx="306.9" cy="210.7" r="1.1"/><g><circle cx="1893.8" cy="-73.4" r="4.1"/><circle cx="1999.3" cy="199.5" r="2.8"/><circle cx="1972.7" cy="177.1" r="1.2"/><circle cx="1889.5" cy="297.4" r="2.7"/><circle cx="1881.9" cy="941.7" r=".7"/><circle cx="2026" cy="-176.3" r="2.9"/><circle cx="1974.1" cy="947.1" r="1.1"/><circle cx="1902.2" cy="137.2" r="2.3"/><circle cx="1964.1" cy="449.8" r="2.1"/><circle cx="1903.3" cy="523.9" r="2.1"/><circle cx="1961" cy="597.4" r="2.9"/><circle cx="1623.6" cy="676.1" r="1.1"/><circle cx="1842.6" cy="541.7" r="1.1"/><circle cx="1618.2" cy="461.4" r="1"/><circle cx="1553.9" cy="716" r="2.7"/><circle cx="1509.8" cy="868.5" r="3.2"/><circle cx="1841.5" cy="777.3" r="3.2"/><circle cx="1524.9" cy="-163.2" r="4.3"/><circle cx="1825.5" cy="128.5" r="1.1"/><circle cx="1540" cy="58.7" r="2.7"/><circle cx="2035.1" cy="77.3" r="1.1"/><circle cx="1931.7" cy="70.4" r="1.6"/><circle cx="1937" cy="185.3" r="1.7"/><circle cx="2060.8" cy="202.7" r="3.7"/><circle cx="1776.3" cy="258.1" r="2.6"/><circle cx="1963.5" cy="-111" r=".4"/><circle cx="1940.1" cy="-83" r=".8"/><circle cx="1916.6" cy="760.9" r="2.8"/><circle cx="1931.1" cy="744.8" r="1"/><circle cx="2013.3" cy="790.5" r="1.1"/><circle cx="1974.6" cy="883.6" r="4.7"/><circle cx="2034" cy="814.5" r="4.1"/><circle cx="2039.1" cy="852.6" r="2.8"/><circle cx="2012.5" cy="830.3" r="1.2"/><circle cx="1568.7" cy="833.2" r="2.7"/><circle cx="1918.6" cy="873.4" r="2.2"/><circle cx="1922.1" cy="900.2" r="2.9"/><circle cx="2004.2" cy="587" r=".5"/><circle cx="1996.2" cy="636.9" r="1.1"/><circle cx="2062" cy="670.6" r="3.8"/><circle cx="1942.1" cy="790.4" r="2.3"/><circle cx="1634.7" cy="755.9" r="4.8"/><circle cx="1539.5" cy="733.7" r="1.6"/><circle cx="1479.9" cy="786.8" r="2.7"/><circle cx="1844.4" cy="-178.6" r="6.3"/><circle cx="1892.8" cy="105.5" r="1.5"/><circle cx="1447.6" cy="416.9" r="2.8"/><circle cx="1452.7" cy="963" r="2.8"/><circle cx="1923.4" cy="73.7" r="2.1"/><circle cx="1891.6" cy="22.8" r="2.1"/><circle cx="2030.3" cy="-29.4" r="3.4"/><circle cx="1589.6" cy="115" r="2.8"/><circle cx="1647.4" cy="282.6" r="1.8"/><circle cx="1846.2" cy="76.1" r="2.1"/><circle cx="1990.3" cy="55.4" r="2.1"/><circle cx="1862.1" cy="-119.4" r="2.1"/><circle cx="1824.4" cy="-134.7" r="2.9"/><circle cx="1645" cy="114" r="1.1"/><circle cx="1651.5" cy="-91.1" r="2.7"/><circle cx="1592.2" cy="-73.8" r="1.5"/><circle cx="1736.8" cy="61.6" r="3.5"/><circle cx="1850.5" cy="243.6" r="1.1"/><circle cx="1784.6" cy="22.3" r="1"/><circle cx="1599.6" cy="781.8" r="2.3"/><circle cx="1880.9" cy="18.8" r="3.8"/><circle cx="1532" cy="-152" r="2.8"/><circle cx="1752.4" cy="929.8" r="3.7"/><circle cx="1831.2" cy="435.2" r="1.1"/><circle cx="1843.1" cy="847.6" r="3.7"/><circle cx="2040.8" cy="384" r="1.1"/><circle cx="1798.6" cy="821.9" r="3.9"/><circle cx="1942.7" cy="492" r="1.7"/><circle cx="2066.5" cy="509.3" r="3.7"/><circle cx="1793.2" cy="483.8" r="2.6"/><circle cx="1559.5" cy="606.3" r="1.6"/><circle cx="1723.4" cy="716" r="2.7"/><circle cx="1721.3" cy="142.4" r="2.7"/><circle cx="1769.5" cy="-163.7" r="2.6"/><circle cx="1560.7" cy="213.1" r="2.8"/><circle cx="1738.8" cy="806.9" r="3.5"/><circle cx="1662.4" cy="414.9" r="1.1"/><circle cx="1695.2" cy="498.9" r="1.1"/><circle cx="1738.6" cy="414.2" r="1.1"/><circle cx="1646.1" cy="930" r="1.1"/><circle cx="1676" cy="567.2" r="1.1"/><circle cx="1850.3" cy="684.6" r="1.1"/><circle cx="2002.5" cy="301.8" r="1.1"/><circle cx="2040.9" cy="557.9" r="1.1"/><circle cx="2040.9" cy="557.9" r="1.1"/></g><g><circle cx="1054.4" cy="831.2" r="4.2"/><circle cx="920.3" cy="935.6" r="2.9"/><circle cx="1331.5" cy="393.6" r="2.3"/><circle cx="1497.5" cy="529.6" r="1.5"/><circle cx="1428.6" cy="922.2" r="4.3"/><circle cx="1413.3" cy="697.2" r="2.7"/><circle cx="911.1" cy="678.3" r="1.1"/><circle cx="1432.4" cy="846" r="3.9"/><circle cx="1016" cy="685.3" r="1.6"/><circle cx="1446.4" cy="786.6" r="4.6"/><circle cx="983.7" cy="869.3" r=".4"/><circle cx="1007.5" cy="840.9" r=".8"/><circle cx="907" cy="-108.2" r="2.8"/><circle cx="1104.5" cy="937.9" r="6.4"/><circle cx="1055.4" cy="649.7" r="1.5"/><circle cx="1024.4" cy="681.9" r="2.2"/><circle cx="1056.7" cy="733.5" r="2.1"/><circle cx="916" cy="786.5" r="3.5"/><circle cx="1032" cy="448" r="2.8"/><circle cx="1102.7" cy="679.5" r="2.1"/><circle cx="956.6" cy="700.5" r="2.1"/><circle cx="1086.6" cy="877.8" r="2.2"/><circle cx="1124.8" cy="893.3" r="3"/><circle cx="1306.8" cy="641.1" r="1.1"/><circle cx="1300.2" cy="849.1" r="2.7"/><circle cx="1360.4" cy="831.5" r="1.5"/><circle cx="1213.7" cy="694.2" r="3.5"/><circle cx="1165.3" cy="734.1" r="1"/><circle cx="1067.6" cy="737.6" r="3.8"/><circle cx="1421.5" cy="910.8" r="2.9"/><circle cx="1375.9" cy="763.9" r="2.5"/><circle cx="1105.9" cy="-103.1" r="3.8"/><circle cx="1481.3" cy="872.4" r="1.9"/><circle cx="1180.5" cy="922.7" r="2.6"/></g></g><g fill="#03709C"><path d="M1791.8 12l3.3 7.6 8-2.1-7.6 3.3 2.1 7.9-3.3-7.5-7.9 2.1 7.5-3.3"/><circle cx="1794.7" cy="20.4" r="2.1"/></g><g fill="#FFF"><path d="M562.9-65.6c-8.9 0-16.1 4.4-16.1 11 0 1.6 2.3 2.7 5.6 3.4l8.5 8.5v4.6h4V-43l8.3-8.2c3.3-.7 5.7-1.9 5.7-3.4 0-6.6-7.1-11-16-11zm1.9 19.6h-3.7l-6.1-5.4c4.9.7 11.1.3 16-.4l-6.2 5.8zM516.4-85.1l25.3.2c2.7 0 5-2.2 5-4.9l-.8-2 5.1.1v13.9c0 5.5 6.1 9.8 11.6 9.8h.1c5.5 0 9.3-4.3 9.3-9.8v-13.8l7 .1v1.8c0 2.7 2.3 5 5 5l25.3.2c2.7 0 5-2.2 5.1-4.9l.1-6.2c0-2.7-2.2-5-4.9-5l-25.3-.2c-2.7 0-5 2.2-5 4.9l-.3 2-6.8-.1v-5.6c0-1.3.4-2.5 0-3.6 1.4-.6 3-2 3-3.6v-3.7c0-1.7-2-3.1-4-3.7v-.5c0-2.2-1-4.4-3.2-4.4h-9.5c-2.2 0-3.3 2.2-3.3 4.4v.5c-4 .6-4 2-4 3.7v3.7c0 1.3.3 2.5 1.3 3.3-.5 1.2-1.3 2.6-1.3 4v5.4l-5.1-.1.4-1.8c0-2.7-2-5-4.7-5l-25.2-.2c-2.7 0-5 2.2-5 4.9v6.2c-.2 2.7 2 5 4.8 5zM562.7-138.7c-.3 0-.6.1-.8.4-.2.2-.3.5-.3.8v5.3c0 .7.5 1.2 1.2 1.2s1.2-.5 1.2-1.2v-5.3c-.1-.7-.6-1.2-1.3-1.2zM562.8-128.2c-.3 0-.6.1-.8.4-.2.2-.3.5-.3.8v5.3c0 .7.5 1.2 1.2 1.2s1.2-.5 1.2-1.2v-5.3c-.1-.7-.6-1.2-1.3-1.2zM562.7-149.2c-.3 0-.6.1-.8.4-.2.2-.3.5-.3.8v5.3c0 .7.5 1.2 1.2 1.2s1.2-.5 1.2-1.2v-5.3c-.1-.7-.7-1.2-1.3-1.2zM562.5-180.8c-.3 0-.6.1-.8.4-.2.2-.3.5-.3.8v5.3c0 .7.5 1.2 1.2 1.2s1.2-.5 1.2-1.2v-5.3c-.1-.7-.7-1.2-1.3-1.2zM562.5-170.3c-.3 0-.6.1-.8.4-.2.2-.3.5-.3.8v5.3c0 .7.5 1.2 1.2 1.2s1.2-.5 1.2-1.2v-5.3c-.1-.6-.6-1.2-1.3-1.2zM562.6-159.7c-.3 0-.6.1-.8.4-.2.2-.3.5-.3.8v5.3c0 .7.5 1.2 1.2 1.2s1.2-.5 1.2-1.2v-5.3c-.1-.7-.6-1.2-1.3-1.2z"/></g><path fill="#FFF" d="M738.2 63.6c.6-1.7-6.1-5.5-15.1-8.5l3.2-12.3-4.7 11.8c-9.2-2.9-16.9-3.9-17.5-2.1-.6 1.8 6.3 5.6 15.5 8.7l-2.8 11 4.2-10.5c9 2.7 16.6 3.7 17.2 1.9z"/><g fill="#43ADD3"><path d="M713.4 275.9l-3.9 7 6.4 5-7.1-3.9-4.9 6.3 3.9-7-6.4-4.9 7.1 3.9"/><circle cx="708.6" cy="283.1" r="2.1"/></g><g fill="#03709C"><path d="M1901.4 437.9l-3.9 7 6.4 5-7.1-3.9-4.9 6.3 3.9-7-6.4-4.9 7.1 3.9"/><circle cx="1896.6" cy="445.1" r="2.1"/></g><path fill="#E9A9E5" d="M1750-165l12.4-1.6-12.5-.3c-.4-1.5-1.6-2.6-3.1-2.8l-1.6-12.4-.3 12.5c-1.4.5-2.4 1.6-2.6 3.1l-12.5 1.6 12.7.3c.4 1.3 1.5 2.3 2.9 2.6l1.6 12.6.3-12.6c1.3-.5 2.4-1.6 2.7-3z"/><path fill="#E6AF8C" d="M433-77.7l6.3-7.3-7.3 6.2c-.9-.6-2.1-.6-3.1-.1l-7.2-6.2 6.1 7.2c-.6 1-.6 2.2 0 3.2l-6.1 7.2 7.2-6.2c1 .5 2.1.5 3.1-.1l7.3 6.2-6.2-7.3c.4-.8.4-1.9-.1-2.8z"/><path fill="#C828BD" d="M360.7-142.4c1.2-.2 2.2-1 2.6-2.1l10.3.2-10.1-1.8c-.2-1.2-1-2.3-2.2-2.7l.2-10.3-1.8 10.2c-1.2.2-2.2 1-2.5 2.2l-10.4-.2 10.3 1.8c.2 1.1 1 2.1 2 2.5l-.2 10.5 1.8-10.3z"/><path fill="#E6AF8C" d="M1512.2-113.3l9.8 7-8.6-8.5c.5-1.2.4-2.6-.3-3.7l7-9.9-8.4 8.6c-1.2-.6-2.7-.5-3.8.3l-9.7-6.9 8.5 8.3c-.7 1.3-.5 2.8.4 4l-6.9 9.7 8.3-8.5c1.1.6 2.6.4 3.7-.4z"/><path fill="#FFF" d="M1852 230.9c-4.1-5.1-10.7-7.5-17.1-5.7s-10.9 7.3-11.7 13.8c-6.6 2.5-11.7 5.2-14.1 7.4-1.6 1.4-2.2 2.9-1.8 4.2.7 2.6 4.4 3.5 12 2.8 2.3-.2 4.9-.6 7.6-1.1 4.1 5.1 10.7 7.5 17.1 5.7s10.9-7.3 11.7-13.8c6.6-2.5 11.7-5.2 14.1-7.4 1.6-1.4 2.2-2.9 1.8-4.2-1.1-4-10.7-3.3-19.6-1.7zm-40.7 18.6l.3-.3c1.6-1.5 5.6-3.7 11.5-6.1.1 1 .3 1.9.5 2.9.3 1 .6 1.9 1.1 2.8-7.2 1.2-11.8 1.2-13.4.7zm56-15.4c-1.6 1.5-5.6 3.7-11.5 6.1-.1-1-.3-1.9-.5-2.9-.3-1-.6-1.9-1.1-2.8 7.2-1.2 11.8-1.2 13.4-.7-.1 0-.2.1-.3.3zM1635.6 167.5c-.8-2.1-1.7-4.3-3.5-5.6-2.5-1.9-6.1-1.6-8.8-.1-2.4 1.3-3.7 3.3-5.8 4.9-1.3 1-2.8 1.9-3.9 3.2-3 3.5-1.8 8.2.6 11.6 1.6 2.3 3.8 4.3 6.5 4.8 3.1.6 6.2-.8 9-2.2 2.9-1.5 6-3.3 7.2-6.4 1.3-3.3 0-7-1.3-10.2zm-13 14.3c-.1.3-.2.7-.3 1-.3.9-1.3 1.6-2.2 1.5-.2 0-.3-.1-.5-.2.2.1.4.1.5.2 1.3.1 1.5-2.9 1.3-3.7-.3-1.6-1.3-3.5-3-4.1-1.2-.4-.9.7-2.1 1.2-1 .4-1.8.2-2.3-.9-1.7-4.3 2.2-5.2 5.1-2.7 2.2 1.9 4.1 4.7 3.5 7.7zm.7-8.8c-.6-.4-.6-1.4-.7-2-.1-.4 0-.9.3-1.1s.6-.1.9-.1c.6.1 1.2.2 1.8.2.2 0 .5.1.7.2.3.3.3.7.2 1.1-.5 1.1-2.1 2.3-3.2 1.7zm4.5 10.4c-.5.2-.9.4-1.4.6.1 0 .3-.1.4-.1l-1 .4v-.2c-.1 0 0-.2 0-.2.2-.8.9-1.4 1.6-1.5.3 0 .8.2.7.5.2.3 0 .4-.3.5zm-.7-17.3c-1.3.1-5-.4-3.5-2.7.4-.7 1.3-.9 2.1-1.1 1.4-.3 2.5.8 1.2 1.8.7.2 1.6.3 2.2-.1.7-.3 1.2-1.3.8-2 .7-.2 1.4.6 1.4 1.4 0 .7-.6 1.4-1.2 1.8-.9.6-1.9.8-3 .9zm4.8 10.5c.2.4.5.8.6 1.3s.1 1-.3 1.3c-.3.2-.8.2-1.1-.1-.3-.2-.5-.6-.6-1-.6-2.1.7-5.5 3.1-5.5-1.6.5-2.4 2.5-1.7 4z"/><g fill="#FFF"><path d="M1922 11.1c-9.4 0-17.1 7.7-17.1 17.1s7.7 17.1 17.1 17.1 17.1-7.7 17.1-17.1-7.7-17.1-17.1-17.1zm0 30.9c-7.6 0-13.8-6.2-13.8-13.8s6.2-13.8 13.8-13.8c7.6 0 13.8 6.2 13.8 13.8S1929.6 42 1922 42z"/><path d="M1922 25c-1.8 0-3.2 1.4-3.2 3.2s1.4 3.2 3.2 3.2c1.8 0 3.2-1.4 3.2-3.2s-1.4-3.2-3.2-3.2zm0 3.3c-.1 0-.1 0-.1-.1s0-.1.1-.1.1 0 .1.1 0 .1-.1.1z"/></g><path fill="#FFF" d="M491 184.3c-.2-.4-.5-.9-.8-1.3-.3-.4-.7-.8-1-1.2-.8-.8-1.7-1.5-2.7-2.1-.5-.3-1.1-.5-1.7-.7-.6-.2-1.2-.4-1.8-.5l-.4-.1h-.4c-.3 0-.6-.1-1-.1-.6 0-1.3-.1-1.9 0-1.3.1-2.5.3-3.7.8h-.1c-.4.1-.8.2-1.2.4-.5.2-1.1.4-1.6.7-.5.3-1 .6-1.6.9-1 .7-2 1.5-2.8 2.6-.4.5-.8 1-1.1 1.6l-.2.4c-.1.1-.2.3-.2.5l-.1.2c0 .1-.1.1-.1.2l-.2.4-.2.5c-.1.2-.1.3-.2.5l-.3.9c-.2.6-.3 1.3-.4 1.9-.1.6-.1 1.3-.1 1.9s.1 1.3.3 1.9c.3 1.2.9 2.3 1.6 3.2.7.9 1.5 1.6 2.3 2.2.8.6 1.6.9 2.4 1.2.8.3 1.4.4 2 .4h1.5c1.7-.1 3.3-.6 4.7-1.5v.1c0 .1-.1.2-.1.3l-.1.3c-.2.4-.4.9-.6 1.3-.1.1-.1.2-.2.3l-.7.7c-.1.1-.3.3-.5.4-.2.1-.3.3-.5.4-.3.3-.7.5-1.1.7-.4.2-.8.5-1.2.7l-.6.3c-.1 0-.2.1-.3.1-.1 0-.2.1-.3.1-.9.4-1.8.7-2.8.9-.5.1-1 .1-1.5.2h-1.6l-.4-.1c-.1 0-.3 0-.4-.1-.3 0-.5-.1-.8-.2-.5-.1-1-.3-1.4-.5-.9-.4-1.8-.9-2.5-1.5s-1.4-1.3-1.9-2-.9-1.5-1.1-2.2c-.3-.7-.4-1.4-.5-2.1-.1-.6-.1-1.2-.1-1.7v-.3-.3-.5c0-.3.1-.4.1-.4h-.3s0 .1-.1.4c0 .1-.1.3-.1.5 0 .1 0 .2-.1.3 0 .1 0 .2-.1.3 0 .2-.1.5-.1.8v1c0 .7.1 1.5.3 2.3s.5 1.7 1 2.6c.2.4.5.9.8 1.3.3.4.7.8 1 1.2.8.8 1.7 1.5 2.7 2.1.5.3 1.1.5 1.7.7l.9.3c.1 0 .3.1.5.1l.2.1h.2l.4.1h.4c.3 0 .6.1 1 .1.6 0 1.3.1 1.9 0 1.3-.1 2.5-.3 3.7-.8h.1c.4-.1.8-.2 1.2-.4.5-.2 1.1-.4 1.6-.7.5-.3 1-.6 1.6-.9 1-.7 2-1.5 2.8-2.6.4-.5.8-1 1.1-1.6l.2-.4c.1-.1.2-.3.2-.5l.1-.2c0-.1.1-.1.1-.2l.1-.2v-.1-.1c.3-.6.5-1.2.7-1.9.2-.6.3-1.3.4-1.9s.1-1.3.1-1.9-.1-1.3-.3-1.9c-.3-1.2-.9-2.3-1.6-3.2-.7-.9-1.5-1.6-2.3-2.2-.6-.4-1.2-.7-1.7-.9-.4-.2-.8-.3-1.2-.4-2.8-.7-5.7 0-7.8 1.7V187.6l.1-.1c0-.1.1-.2.1-.3l.1-.3c.2-.4.4-.9.6-1.3.1-.1.1-.2.2-.3l.7-.7c.1-.1.3-.3.5-.4.2-.1.3-.3.5-.4.3-.3.7-.5 1.1-.7.4-.2.8-.5 1.2-.7l.6-.3c.1 0 .2-.1.3-.1.1 0 .2-.1.3-.1.9-.4 1.8-.7 2.8-.9.5-.1 1-.1 1.5-.2h1.5l.1.2v.2-.2c.5.1 1 .1 1.5.2s1 .3 1.4.5c.9.4 1.8.9 2.5 1.5s1.4 1.3 1.9 2 .9 1.5 1.1 2.2c.3.7.4 1.4.5 2.1.1.6.1 1.2.1 1.7v1.1c0 .3-.1.4-.1.4h.3s0-.1.1-.4c0-.1.1-.3.1-.5 0-.1 0-.2.1-.3 0-.1 0-.2.1-.3 0-.2.1-.5.1-.8v-.5-.5c0-.7-.1-1.5-.3-2.3-.1-1.1-.4-1.9-.8-2.8z"/><g fill="#E3F4CC"><path d="M516.1 20.6l-6.5 11.9 10.7 8.3-11.9-6.6-8.3 10.8 6.5-11.9-10.7-8.4 11.9 6.6"/><circle cx="508.1" cy="32.7" r="3.5"/></g><path fill="#43ADD3" d="M1974-65.4l9.9-1.3-10-.3c-.3-1.2-1.3-2.1-2.5-2.3l-1.3-9.9-.3 10c-1.1.4-1.9 1.3-2.1 2.4l-10 1.3 10.2.3c.4 1 1.2 1.8 2.3 2.1l1.3 10.1.3-10.1c1.1-.3 1.9-1.2 2.2-2.3z"/><path fill="#AADE66" d="M1710.2 94.4l10.1-11.8-11.8 10c-1.5-.9-3.4-1-4.9-.1l-11.6-10 9.9 11.6c-1 1.6-1 3.6 0 5.2l-9.9 11.6 11.7-9.9c1.5.9 3.4.8 5-.1l11.7 10.1-10.1-11.8c.7-1.6.7-3.4-.1-4.8z"/><path fill="#DE7ED7" d="M825.5-99.7c1.5.2 2.9-.5 3.8-1.7l12.4 3.3-11.7-5.2c.2-1.5-.5-3.1-1.9-3.9l3.3-12.3-5.2 11.7c-1.5-.1-2.9.6-3.7 1.9l-12.5-3.4 11.9 5.3c-.1 1.4.6 2.8 1.7 3.6l-3.4 12.6 5.3-11.9z"/><path fill="#03709C" d="M1984.1 158.4l7.1 5.1-6.3-6.2c.4-.9.3-1.9-.2-2.7l5.1-7.2-6.1 6.3c-.9-.5-2-.4-2.8.2l-7.1-5 6.2 6c-.5.9-.4 2.1.3 2.9l-5 7 6.1-6.2c.9.5 1.9.4 2.7-.2z"/><g fill="none" stroke="#FFF" stroke-width="2" stroke-linecap="round" stroke-miterlimit="10"><path d="M1763-67.7c.7 0 1.4 0 2-.1"/><path stroke-dasharray="3.9788,7.9576" d="M1772.7-69.8c9.8-4.7 12.6-16.7 19.4-26.2 9.4-13 21.5-21.9 37.3-26.6 19.1-5.6 39.4-4.7 59.3-3.5s40.1 2.6 59.5-2.1c42.5-10.2 72.2-47 98.1-82.6"/></g><path fill="#FFF" d="M1726.9-55.5c-.3 0-.6-.1-.8-.2l-11.8-4c-2.3-.8-3.5-3.3-2.8-5.6.8-2.3 3.3-3.5 5.6-2.8l9.4 3.2 7-6.1c1.8-1.6 4.6-1.4 6.2.4s1.4 4.6-.4 6.2l-8.9 7.8c-1 .9-2.3 1.3-3.5 1.1zM1760.4-54.7c-1-.8-1.7-1.9-1.8-3.3-.2-2.5 1.7-4.7 4.2-4.9l13.4-1 4.2-6.6c1.1-1.7 3.2-2.5 5.2-1.9l5.5 1.7c2.4.8 3.7 3.3 3 5.7-.8 2.4-3.3 3.7-5.7 3l-2.1-.7-3.6 5.6c-.8 1.2-2.1 2-3.5 2.1l-15.6 1.1c-1.3.2-2.4-.1-3.2-.8z"/><path fill="#FFF" d="M1732.9-63.7c-2.8-2.1-3.9-5.9-2.5-9.3 1.7-4 6.3-5.9 10.3-4.2l24.4 12c4 1.7 7.5 5.6 5.9 9.6-1.7 4-6.3 5.9-10.3 4.2l-25.9-11.2c-.8-.4-1.4-.7-1.9-1.1z"/><path fill="#FFF" d="M1772.2-40.3c-.2-.1-.4-.3-.5-.5L1759-54.2c-1.7-1.8-1.6-4.7.2-6.4s4.7-1.6 6.4.2l10.4 11 10.8-5.3c1.7-.9 3.8-.5 5.2.8l3.6 3.5c1.8 1.8 1.8 4.6 0 6.4-1.8 1.8-4.6 1.8-6.4 0l-1.3-1.2-10.9 5.4c-1.6.7-3.4.5-4.8-.5zM1731.3-41.7c-.7-.2-1.3-.6-1.8-1.2-1.6-1.8-1.5-4.6.3-6.2l8.6-7.7.8-9.9c.2-2.4 2.3-4.2 4.7-4 2.4.2 4.2 2.3 4 4.7l-1 11.6c-.1 1.1-.6 2.1-1.4 2.9l-9.9 8.9c-1.2 1.1-2.9 1.4-4.3.9z"/><path fill="#FFF" d="M1762.7-60.8l-12.6-5.5c-2.4-1.1-3.5-3.9-2.5-6.3 1.1-2.4 3.9-3.5 6.3-2.5l12.6 5.5c2.4 1.1 3.5 3.9 2.5 6.3s-3.9 3.5-6.3 2.5z"/><path fill="#FFF" d="M1751-96c-6.2-7.2-17-8-24.1-1.8-7.2 6.2-8 17-1.8 24.1 6.2 7.2 19.9 5.3 24.1 1.8.3-.3.7-.6 1-.9 6.3-6.1 6.6-16.4.8-23.2zm-5.6 12c-.2 4.6-4.1 8.1-8.6 7.9l-5.7-.2c-4.6-.2-8.1-4.1-7.9-8.6.2-4.6 4.1-8.1 8.6-7.9l5.7.2c4.6.2 8.1 4 7.9 8.6z"/><path fill="#72C1DE" stroke="#D0EAF4" stroke-miterlimit="10" d="M1745.4-84c-.2 4.6-4.1 8.1-8.6 7.9l-5.7-.2c-4.6-.2-8.1-4.1-7.9-8.6.2-4.6 4.1-8.1 8.6-7.9l5.7.2c4.6.2 8.1 4 7.9 8.6z"/><path fill="#FFF" d="M1743-87.6c-.2-.1-.3-.3-.3-.6s.3-.6.7-.6l2.8.2c.3 0 .6.3.6.7s-.3.6-.7.6l-2.8-.2c-.2 0-.2 0-.3-.1zM1743.5-85.6c-.2-.1-.3-.3-.3-.6s.3-.6.7-.6l2.8.2c.3 0 .6.3.6.7s-.3.6-.7.6l-2.8-.2c-.2 0-.2-.1-.3-.1z"/><path fill="#C828BD" d="M1724.9-99c2.1-1.5 5.3-5.1 7.4-6.9 2.1-1.9 9.7-6.4 17.8-2.1s8.3 11 8.2 13 1 3.8 1 3.8-2.5-1.1-2.8-2.9-1.1-4.8-3.1-5.3-1 3.1-1.4 3.9c-.5.7-27.1-3.5-27.1-3.5z"/><path fill="#FFF" d="M1751.2-93l-25.7-2.7c-1.5-.2-2.6-1.5-2.5-3.1.2-1.5 1.5-2.6 3.1-2.5l25.7 2.7c1.5.2 2.6 1.5 2.5 3.1-.2 1.5-1.5 2.6-3.1 2.5z"/><circle fill="#FFF" cx="1758.4" cy="-91.3" r="3.2"/><g><path fill="#B4CBD6" d="M267.7 707H2089v33.1l-12.6 3.6-25.3-5.9-3.9 14.2-18.2-1.1-22.2 14.2-12.5-13.9-19.5 6.9-26.9-8.4-43.5 33-23.9-34.5-21.5-4.5-52-13.5-18.8 5.9-21.6-2.9-13.5-4.8-26.9.3-31.4 18.3-31.5-10.8-10.5 15-28.4-18-37.5-4.5-43.4 25.5-19.2-15.2-13.7-13.3-69.9 9-35.1 15.5-16.2-3.5-39.5 132.2-11.6-84.2-12 16.5L1276 744l-57.5-10.9-57.3 18.9-35.6-17.7-36.3 1.2-56.7-9.4-76.3 35.6-84.4-26.1-51 24.5-54.8-8.9-31.5 30-31.5-39.1-66.4 10.1-9.2-1.2-8.7 4.5-37.1-13-34.9 16.1-28.6-19.9-30.9 6.6-32.7 4.4-28.7 19.3-10.4-28.9-27-.5-26.4-5.3-31.9 22.9-20.5-22.9-15.9-14.1-13.6 23.5-12.2 26.5"/><path fill="#FFF" d="M2089 667v-.3c-8-32.8-54.2-69-82.9-58.7-2.2.8-4.3 1.8-6.2 3.3-18.5 14.3-46.9 29.8-87 34.8-80 10-155-62-203-92s-104.2 46.4-158.7 82.3c-47.6 31.1-187.2 39.6-271.2-.4s-274 12-326 14-81.9-36-158-8c-66.6 24.5-218.7 15.4-290.7-44.6S386 556 340 596c-20.8 18.1-42.2 37.8-60.3 58.6-3.3 3.8-12.2 10.3-9.7 17.3v80.9l25.5-36.7 17.6 15.5 17.1 25.6 22.5-34.5 35.8 16.9 28.6-18.4 8.8 47.8 30.2-41.8 31.3 18.1 36.1-18.1 23.3 31.4 30.2-31.8 41.7 28.7 11.7-9 6.2 5.7 60.2-37.4 37.8 66.4 22.5-51 63.8 29.9 57.5-38.9 77.9 40.5 58.1-52.9 74.8 26.7 36-26.7 35.9 43.2 74.8-34 56 22 34.3 71.2 5.7-84.4 17.9 152.1 21-164.1 34.6 35.4 25.3-29.3 79.7 4.9 19.3-7.6 13.6 36.1 40.2-39.4 49.6 9.4 19.5 27 12-27 30.1 22.8 20.7-35.2 37.6 16.6 22.5-7.3 12.5 14.9 24.9-16.4 45.9 24 27.5-18 18 57 34.4-48 35.9 23.4 19.5-18.9 12.5 25.9 16-27.4L2047 752l11.4-27.8 18.6 19.5 12.9 25.8V667h-.9z"/></g><g><path fill="#03709C" d="M1687.9 557.2l-.5-16.5 16.8.8-11.8-8.7 11.8-.7-12.9-9.7 8.4-.3-9.2-10.2 5.7.8-6.9-11.5-10.3 8.7 7.2 1.8-10.7 8.8 8.3 1.1-13.2 9 11.5 1.6-15.8 7.1 16.8 1.1-1.6 16.6"/><path fill="#03709C" d="M1714.7 561l3-13 12.9 4.1-7.4-9.3 9.3 2-8.1-10.3 6.7 1.5-5.1-9.8 4.3 1.8-3-10.4-9.9 4.7 5.3 2.8-10.2 4.7 6.3 2.5-12.1 4.4 8.6 3.6-13.8 2.2 12.9 4.4-4.7 12.6M1657.3 557.4l-3.8-10.3 10.7-3.1-9.3-3 7.2-2.9-10.2-3.3 5.3-2-8-4.5 3.8-.7-6.9-5.8-4.6 7.8 4.9-.5-4.8 7.9 5.5-1.2-6.4 8.5 7.6-1.4-8.5 7.8 10.9-2.8 2.5 10.7"/><path fill="#FFF" d="M1685 505.3c1.1.3 2.3.1 3.4-.4.1.3.3.6.4.9.6-.7 1.8-.8 2.5-.2.5.4.7.9 1 1.4s.6 1 1.1 1.3 1.3.1 1.5-.4c.2-.4 0-.9-.2-1.3-1-2.1-2.1-4.3-3.1-6.4-.3-.6-.7-1.2-1.3-1.2-.4 0-.7.3-1.1.5l-5.4 4.5c-.3.2-.6.5-.8.8s-.2.8 0 1.1c.2-.1.4-.2.6-.4.1.5-.2.4.3.5s1-.1 1.3-.5M1682.5 508.3c4.1 1.2 8.2 2.4 12.4 2.7.6 0 1.2.1 1.7.3.6.2 1.1.6 1.3 1.1.2.5 0 1.3-.5 1.5-.5.3-1.3-.2-1.2-.7-1.5 1.3-3-.8-4.5-1-2.1-.2-4.4-.2-6.5-.8-.8-.2-1.6-.7-2.5-.8-1.4-.2-2.2.8-3.2 1.6 0-1.1-.6-2.1-1.6-2.6.7-.9 1.7-1.4 2.8-1.6 1.2-.2 1.3-.1 2.5.2M1678.9 521.2c-1.1.1-2.2.3-3.3.3-.3 0-.8-.1-.8-.5-.1-.3.2-.5.5-.7.9-.6 1.7-1.1 2.6-1.7 1.4-.9 2 1.4 3.2 1.7 1.7.5 3.9-.8 5.6-1.1 2.3-.4 4.6.1 6.8.6l5.1 1.2c.7.1 1.3.3 1.8.8s.4 1.4-.2 1.7c-.9.4-1.5-.8-2.4-1.2-1.5-.6-3 1.3-4.5.9-.5-.1-.9-.5-1.4-.7-1.1-.5-2.4 0-3.5.6s-2.2 1.3-3.4 1.3c0-1.3-1.1-2.4-2.3-2.8-1.1-.5-2.5-.5-3.8-.4zM1670.1 530.8c-.1.4-.2.7-.2 1.1 0 .1 8.3-.1 9 .5.9.8 1.3 2.2.8 3.3.2-.8.4-1.7.9-2.3s1.4-1.1 2.2-.8c.3.1.6.4.9.5s.7.1.9-.1c.8.4 1.8.4 2.6 0 .3-.1 2.8.8 3.3.8 1.3 0 2.1-.5 3.2-.8 2.7-.8 5.7.2 8.4.5.7.1 1.7-.1 1.8-.8.1-.6-.6-1.1-1.2-1.4-8.3-3.4-18 .9-26.7-1.3-1.1-.3-2.1-.6-3.2-.6s-2.2.5-2.7 1.5c-.5 0-.3-.3-.3.2s.3 1 .8 1M1693.5 542.7c1.7.5 3.4.2 5.1 0 2.1-.3 2.7-.3 4.5.6 2.2 1.1 1.9-1.5.8-2.7-.8-.9-1.8-1.8-2.9-2.3-.7-.3-2.7-.7-3.1-1.3 2.9 4.5-6.2 1.5-7.7 1.3-1.6-.2-3.4-.5-4.5-1.8-2.2 1.4-4.7 2.2-7.3 2.2-2.4 0-4.6-.9-7-1.1-1.1-.1-2.2-.2-3.2.2s-1.9 1.4-1.7 2.5c3.4-.6 7 .1 9.9 1.9 1 .6 2.2 1.4 3.2.9.6-.3 1-.9 1.5-1.4s1.2-1 1.8-.7c.4.2.7.7 1.1 1 .9.5 1.9-.3 2.9-.6 2.2-.8 4.4.7 6.6 1.3zM1727.1 522c.3-.1.7-.1 1-.2.2 1.6.9 3.2 1.9 4.4.5-1 .3-2.3.1-3.4-.2-1.1-.6-2.2-.5-3.4 0-.5.2-1 .2-1.5s-.1-1-.4-1.4-1-.5-1.3-.2c-1.5 1.4-5.1 1.4-5.9 3.3 1-.4 2.4-.8 3.2 0 .4.6.7 2.7 1.7 2.4zM1719 523.4c.6.3 1.2.4 1.6.2-.6-1.1-.3-1.4.2-2.4-.2.4-.8.6-1.3.5-.5 0-1-.2-1.4-.2-1.4-.1-.4 1.3.9 1.9zM1714.7 530.5c4.5 1.2 9.2 1.9 13.8 2.1.8 0 1.7.1 2.4.4.8.3 1.4 1.1 1.4 1.9-1.1 1-1.6 2.6-1.3 4 0-1-.1-2.2-1-2.9-.3-.2-.7-.4-1.2-.5-3.6-1-7.1-2-10.7-3-1.1-.3-.4-.3-1.5-.5-.6-.1-1.3-.2-1.9-.4-.9-.3-1.6-.8-2.3-1.4-.3-.2-.5-.4-.7-.7s-.2-.7.1-.9c1.7 1 3.6 1.9 5.6 2.4M1713.1 539.8c-1.9.2-4.4-.5-5.8-2-.6-.7-1-1.5 0-2.1.9-.5 1.9.4 2.6.9 2.2 1.5 5.3 1.8 7.9 2.3l9.3 2.1c2.1.5 4.5 1.1 5.7 2.9.9 1.3 1.1 3.1.5 4.5.2-1-.3-2-1.2-2.6-.8-.6-1.8-.8-2.8-1l-8.7-1.8c-1.8-.4-3-1.3-4.4-2.5-.3-.3-.6-.5-.9-.7-.6-.2-1.4 0-2.2 0z"/><path fill="#FFF" d="M1705.1 542.5c7.4 2.2 14.8 4.5 22.2 6.7 1 .3 2.3.8 3 1.7.8 1 .3 1.6.2 2.7 0-.5-.2-1.1-.7-1.1-.4 0-.6.6-.7 1-.3 2.1-.4 4.2-.4 6.3l-.6-6.6c-.2-2.4-1.7-1.3-1.5.6.2-1-.3-2-1.2-2.5-2.6-.9-5-2.4-7.8-1.2-.2.1-.5.2-.7.2-.5-.1-.7-.6-1-1-1.1-1.9-3.6-2.4-5.7-3-2.4-.7-4.9-1.7-6.6-3.5-.4-.4-.4.4-.6-.1s0-1.2.5-1.4c.7-.2 1.3.4 1.8.9.9.9 2.1 1.4 3.3 1.4M1644.8 550.9c2.4-.8 4.8-1.6 7.2-2.3 2.3-.7 4.7-1.3 7.1-1.7 1.9-.4 3-1.8 4.8-2 .3-.1.7-.3.7-.7 0-.5-.5-.7-1-.9-1-.3-2.1-.5-3.1-.6.3 0 1.6.8 1.7 1.2.1.7-1.2.8-1.8 1-1.8.5-3.7.9-5.5 1.2-2.3.3-4.5 1-6.6 2.2-.6.3-1.3.7-2 .7-.5 0-1-.3-1.4-.6s-.9-.6-1.4-.6c-.6-.1-2.8 1.1-3.3 1.6-.8.8-1 2.2-.7 3.3.3 1.6 1.2 3.1 1 4.6.3-2.2.5-4.3.8-6.5.2.5.6.9 1.1 1.1.1-.3.3-.7.4-1 .3.4 1.2.3 2 0zM1647 540.9c-.7.2-4.1 1.5-3.9.1 0-.4.3-.7.6-1-2.8 1.4-2.8 3.8-3.1 6.5.1-1.1 1.1-1.8 2.2-2.1 1-.3 2.1-.2 3.2-.3 3.2-.3 5.3-1.6 7.9-3.5.7.5 1.7.1 2.5-.1 1.1-.3 2.3-.3 3.5-.6s2.3-.8 2.8-1.9c-.8-.1-2.8-1-3.5-.7-3.3 1.6-6.7 3.1-10.2 4.3-.4-.8-1.3-.9-2-.7zM1647.6 536.1c2.5-.3 5-.9 7.3-1.8.6-.2 2.9-.8 3-1.7s-2.2-1.1-2.9-1.2c.2.3.4.7.3 1.1-.7.9-2.9 1.1-3.9 1.4-1.6.4-3.2.7-4.9.6-.8 0-1.6-.2-2.5-.3-.2 0-.4-.1-.6 0-1.2 0-2 1.2-2.6 2.2-.1.2-.2.4-.2.7.1.3.4.4.7.4.8-.1 1.5-.8 2.4-1 1.5-.2 2.7-.2 3.9-.4zM1642.7 527.8c-1.3.6-1.8 2.5-.9 3.6-.2-.6.1-1.3.6-1.7-.2.1-.2.5 0 .6s.5.1.7 0 .4-.3.6-.4c.3-.1.6-.1.9-.1 3-.1 5.9-1 8.5-2.4-.4-.3-.9-.7-1.3-1 .2.1.3.4.1.6-.2.2-.4.2-.7.3-1.9.3-3.8.6-5.6.9-.5-.1-.8.2-1.3.4s-1 .3-1.4 0-.2-1.2.3-1.3c-.5.2-.8.7-.9 1.2.5-.5-.1-.6.4-1.1-.1.3-.3.7-.2 1 .1.3.5.6.8.4M1644 525.4c-.2-.1-.3-.3-.3-.5.1-1.2 1.5-2.5 1.8-3.8 1 1.1 3.2.9 3.1 2.5 0 .1-4.6-.2-4.2 1.7-.1.2-.2.2-.4.1z"/></g><g><g fill="#03709C"><path d="M1831.6 623.7c-.5-.4-1.1-.4-1.5-.1-.4-.4-.8-1-1-1.6-.1-.3-.1-.5-.1-.8.3-.1.5-.3.6-.6.3-.6.1-1.2-.5-1.6.3-1.6 1-3.1 1.5-4.1.5.2 1.2 0 1.4-.6.3-.6.1-1.3-.5-1.6l-4.2-2.2s-.6-6.3-1.7-7.1c-1-.7-2.4-.4-3.2.5l-5 5.8c-.8.9-.7 2.3.1 3.1l.1.2-3.9-2c-.6-.3-1.3-.1-1.6.5-.3.6-.1 1.3.5 1.6l1.7.9-2.6 5-1.7-.9c-.6-.3-1.3-.1-1.6.5-.3.6-.1 1.3.5 1.6l14.2 7.3c3 1.6 6.8.4 8.4-2.6.6-.2.6-.9.1-1.2zm-7-14.6l.7 2.7c.1.3.3.6.6.7l4.1 2.1c-.5 1-1.2 2.5-1.6 4l-2.2-1.1c.1-.2.2-.3.2-.5.1-.7-.1-1.5-.6-2.1l-3.3-3.6 2.1-2.2zm-9 12l-2.4-1.2 2.6-5 5.3 2.7-5.5 3.5zm8.8-1.8l.7.4-2.6 5-3.7-1.9 5.6-3.5zm.1 6.4l-.9-.5 2.6-5 1.9 1c.1 0 .1.1.2.1 0 .3.1.7.2 1 .2.8.6 1.5 1.2 2.1-1.1 1.6-3.4 2.3-5.2 1.3z"/><path d="M1831.5 603.7c-.9 1.8-3.1 2.5-4.9 1.6s-2.5-3.1-1.6-4.9c.9-1.8 3.1-2.5 4.9-1.6 1.8.9 2.5 3.1 1.6 4.9z"/></g><g fill="#03709C"><path d="M2011.1 557.5c-.4.4-.5 1-.2 1.5-.5.4-1.1.7-1.7.8-.3 0-.5.1-.8 0-.1-.3-.2-.5-.5-.7-.5-.4-1.2-.2-1.6.3-1.5-.5-3-1.4-3.9-2 .3-.5.1-1.2-.4-1.5-.5-.4-1.3-.2-1.6.3l-2.6 3.9s-6.4-.1-7.2.9c-.8.9-.7 2.3.1 3.2l5.2 5.6c.8.9 2.2 1 3.1.3l.2-.1-2.4 3.6c-.4.5-.2 1.3.3 1.6.5.4 1.3.2 1.6-.3l1.1-1.6 4.7 3.1-1.1 1.6c-.4.5-.2 1.3.3 1.6.5.4 1.3.2 1.6-.3l8.9-13.3c1.9-2.9 1.1-6.7-1.7-8.6-.4-.3-1-.3-1.4.1zm-15.3 5.3l2.8-.4c.3 0 .6-.2.8-.5l2.6-3.8c.9.6 2.3 1.5 3.8 2l-1.4 2c-.2-.1-.3-.2-.5-.3-.7-.2-1.5-.1-2.1.4l-3.9 2.9-2.1-2.3zm11 10.3l-1.5 2.2-4.7-3.1 3.3-4.9 2.9 5.8zm-.9-8.9l.4-.7 4.7 3.1-2.3 3.4-2.8-5.8zm6.4.6l-.6.8-4.7-3.1 1.2-1.7c0-.1.1-.1.1-.2.3 0 .7 0 1-.1.9-.1 1.6-.4 2.2-1 1.6 1.3 1.9 3.6.8 5.3z"/><path d="M1991 556.1c1.7 1.1 2.1 3.4 1 5-1.1 1.7-3.4 2.1-5 1-1.7-1.1-2.1-3.4-1-5 1-1.7 3.3-2.1 5-1z"/></g><g fill="#03709C"><path d="M1586.6 600c1-.3 1.7-1 2.2-2s.5-2 .2-3.1c-.4-1-1-1.8-2-2.3s-2-.5-3-.2-1.7 1-2.2 2-.5 2-.2 3c.4 1 1 1.8 2 2.3s2 .6 3 .3z"/><path d="M1597.4 586.2l-8.2 7.4c-.5.4-.8.8-.8 1.3l-1 6.4-3.5 3c-.5.4-.6 1-.4 1.6.1.4.4.7.7.8.3.2.7.2 1.1.1.1 0 .2-.1.3-.2l.8-.7.9.3s1.3.3 2.1.3 1.6-.3 2.4-1l19.8-17.5-2.2-.2s-18.7 16.9-19.3 17c-.7.1-1.3 0-1.9-.3l1.3-1.2c.5-.4.8-.9.8-1.3l16.5-15-2.1-.5-3.9 3.5-3.4-3.8z"/></g><path fill="#03709C" d="M1477.2 644.5c.9-.3 1.5-.9 1.9-1.7.4-.9.4-1.8.1-2.6-.3-.9-.9-1.5-1.7-2-.8-.4-1.7-.5-2.5-.2-.9.3-1.5.9-1.9 1.7s-.5 1.7-.1 2.6c.3.9.9 1.6 1.8 2s1.6.5 2.4.2z"/><path fill="#03709C" d="M1476 653c-1.2 0-2.1-1-2.1-2.1v-4.7c0-1.2 1-2.1 2.1-2.1 1.2 0 2.1 1 2.1 2.1v4.7c.1 1.1-.9 2.1-2.1 2.1z"/><path fill="none" stroke="#03709C" stroke-width="2.5" stroke-linecap="round" stroke-linejoin="round" stroke-miterlimit="10" d="M1477 652.2l1.8 2.7 2.7 2.5M1475.5 651.3l-2.4 3.8.9 3.4"/><path fill="none" stroke="#03709C" stroke-width="2" stroke-linecap="round" stroke-linejoin="round" stroke-miterlimit="10" d="M1477.1 645l4.1 1.2 2.3-4.1M1475.1 645.4l-1.9 4-3.3-1.9"/><circle fill="#FFF" cx="1484.4" cy="640.9" r="2.3"/><path fill="#03709C" d="M1479.6 641.6l-6.8-1.7c-.4-.1-.6-.5-.5-.9.1-.4.5-.6.9-.5l6.8 1.7c.4.1.6.5.5.9 0 .4-.5.6-.9.5z"/><path fill="#03709C" d="M1477.6 641.7l-2.7-.6c-1.1-.2-1.8-1.3-1.5-2.3.2-1.1 2.3-1.8 3.3-1.6l.9.3c1.1.2 2.1 1.3 2.3 2.6-.2 1.1-1.2 1.8-2.3 1.6z"/><circle fill="#03709C" cx="1477.4" cy="637" r="1.1"/><path fill="#03709C" d="M1334.1 636.5c.8.4 1.7.4 2.6.1.9-.3 1.5-.9 1.9-1.8.4-.9.4-1.7.1-2.6-.3-.9-.9-1.5-1.7-1.9-.8-.4-1.7-.4-2.5-.1-.9.3-1.5.9-1.9 1.8-.4.9-.4 1.7-.1 2.6.2.9.8 1.6 1.6 1.9z"/><path fill="#03709C" d="M1334.4 645.1c1.2.1 2.2-.7 2.3-1.9l.5-4.7c.1-1.2-.7-2.2-1.9-2.3-1.2-.1-2.2.7-2.3 1.9l-.5 4.7c-.1 1.1.7 2.2 1.9 2.3z"/><path fill="none" stroke="#03709C" stroke-width="2" stroke-linecap="round" stroke-linejoin="round" stroke-miterlimit="10" d="M1333.5 644.3l-2.2 4.7-3.3 3.2M1335.1 643.4l1.9 5.9-2.1 4.5M1334.1 637l-4.5 1.7-4.8-2.3M1336.1 637.6l7.7-4.8"/><circle fill="#FFF" cx="1323.6" cy="633" r="3"/><path fill="#03709C" d="M1332.1 633.7l7-1c.4-.1.7-.4.6-.8l-.1-.7c-.1-.4-.4-.7-.8-.6l-7 1c-.4.1-.7.4-.6.8l.1.7c.1.3.4.6.8.6z"/><path fill="#03709C" d="M1333 632.4s3.2-.3 4-.5c3.1-.7 1.1-1.7-.7-2.8-1.2-.7-2.2-2.1-3.6-2.2-.6 0-1.3 0-1.6.5-.1.3-.2.7 0 1 1.5 1.6.4 4.3 1.9 4z"/><circle fill="#03709C" cx="1330.9" cy="626.7" r="1.1"/><path fill="#03709C" d="M1585.2 590.3l-4.8.8c-.4.1-.8-.2-.9-.6-.1-.4.2-.8.6-.9l4.8-.8c.4-.1.8.2.9.6.1.4-.2.8-.6.9z"/><path fill="#03709C" d="M1580.6 590.2c-1.1.1-.3-1.6-.1-1.9.6-1 1.3-1.6 2.4-2.1.9-.4 1.8-.6 2.7-.8.4-.1.9-.2 1.3-.1s.8.4.9.8c.1.4-.2.8-.6 1-.6.3-1.2.1-1.5.8-.2.4-.2.9-.4 1.2-.4.7-1.3.8-2 .8l-2.7.3zM1831.3 603.8l-6.4-2.8c-.6-.3-.9-1-.6-1.6l.2-.4c.3-.6 1-.9 1.6-.6l6.4 2.8c.6.3.9 1 .6 1.6l-.2.4c-.2.6-1 .8-1.6.6z"/><path fill="#03709C" d="M1832.4 602.4c.2.1.1-2.5.1-2.7-.4-1.2-1.7-2.2-2.6-2.9-.5-.4-1.1-.7-1.7-.5-.5.2-.7.9-1.2 1.3-.7.5-1.8 1-.6 1.9.6.5 1.7.8 2.4 1.1 1.1.6 2.3 1.2 3.6 1.8z"/><circle fill="#03709C" cx="1828.6" cy="596.4" r="1.2"/><path fill="#03709C" d="M1987.4 564.1c-.6.3-1.4.1-1.7-.5l-3-5.4c-.3-.6-.1-1.4.5-1.7.6-.3 1.4-.1 1.7.5l3 5.4c.3.6.1 1.4-.5 1.7z"/><path fill="#03709C" d="M1983.4 557.5c-.8.2-1.9.9-2.5 2.5s0 3.8 1.5 4.9c1.8 1.3 2.7.7 2.8-.2.1-.9 1.9-1.2 1.9-1.2l-3.7-6zM1989.9 562.6c0 .5 2.8 10.8 2.8 10.8s4.4-1 6.3-3.2c1.8-2.2-.4-2-.4-2l-8.7-5.6z"/><path fill="#03709C" d="M1989.2 555.8c0 .3-.1.5-.1.8-.4 1.9.4 3.9.9 5.7.4 1.6-.2 3.3-1.3 4.5-.4.5-1 .8-1.4 1.3-.4.4-1.4 2.1-.9 2.7-1.3-1.6-.3-3.2.3-4.8.6-1.8-.3-3.6-.6-5.4-.3-1.9-.1-2.8 1-4.3.2-.3.4-.7.3-1.1-.1-.4-.5-.7-.9-.5.5-.2 1-.3 1.6-.2.5.1 1 .5 1.1 1.1v.2z"/><path fill="none" stroke="#03709C" stroke-width="2.5" stroke-linecap="round" stroke-miterlimit="10" d="M1992.5 563.8l1.5-11M1825 606.3l8.3 1"/><path fill="#03709C" d="M1820 614s-2.2-.8-4.7-2.7c-2.5-1.8 8.7-7.8 8.7-7.8l-4 10.5zM1588.2 596.1c.1-1.2 1.1-2.7 1.9-3.6.8-.9 1.8-1.7 2.8-2.5 2.5-2.1 4.5-4.5 4.7-7.9-.1.9 3.6 3.5 3.6 5.5 0 2.7-2.4 4.6-4.5 6.3-1.3.3-2.5.7-3.8 1-.9.3-1.9.5-2.8.8-.6.1-1.3.5-1.9.4z"/><path fill="none" stroke="#03709C" stroke-width="3" stroke-linecap="round" stroke-linejoin="round" stroke-miterlimit="10" d="M1598.4 590.8c.2-.1 7-6.9 7-6.9l-.2-7.2"/><circle fill="#FFF" cx="1407.2" cy="616.8" r="3.8"/><circle fill="#FFF" cx="1420.5" cy="620.5" r="1.5"/><circle fill="#FFF" cx="1005.7" cy="634.7" r="16.3"/><circle fill="#FFF" cx="1002.2" cy="612.8" r="9.5"/><circle fill="#FFF" cx="1017.2" cy="595.5" r="3.5"/><circle fill="#FFF" cx="993.2" cy="596.2" r="4.2"/><path fill="none" stroke="#FFF" stroke-width="3" stroke-miterlimit="10" d="M998 605.7l-4.8-9.5M1017.2 595.5l-8.9 12.2"/><circle fill="#03709C" cx="1002.8" cy="610.8" r="3.2"/><path fill="#03709C" d="M1005 622.3l6.9 1.7-6.1 3.1s-2.6 0-2.9-2c-.3-2.1 2.1-2.8 2.1-2.8z"/><circle fill="#03709C" cx="996.5" cy="632.8" r=".8"/><circle fill="#03709C" cx="1014.3" cy="631.2" r=".4"/><circle fill="#03709C" cx="999.1" cy="633.9" r=".5"/><circle fill="#03709C" cx="1013.1" cy="632.5" r=".6"/><circle fill="#03709C" cx="1002.1" cy="635.1" r=".7"/><circle fill="#03709C" cx="1011.7" cy="633.7" r=".6"/><circle fill="#03709C" cx="1004.6" cy="635.4" r=".4"/><circle fill="#03709C" cx="997.4" cy="636.5" r=".4"/><circle fill="#03709C" cx="998.9" cy="638.6" r=".4"/><circle fill="#03709C" cx="1009.4" cy="634.6" r=".4"/><circle fill="#03709C" cx="1007" cy="635.3" r=".7"/><circle fill="#03709C" cx="1014.4" cy="635.1" r=".6"/><circle fill="#03709C" cx="1001.2" cy="640.4" r=".7"/><circle fill="#03709C" cx="1013.1" cy="637.2" r=".4"/><circle fill="#03709C" cx="1003.8" cy="641.2" r=".4"/><circle fill="#03709C" cx="1012.1" cy="638.9" r=".8"/><circle fill="#03709C" cx="1006" cy="641.4" r=".2"/><circle fill="#03709C" cx="1010.5" cy="640.2" r=".4"/><circle fill="#03709C" cx="1008.4" cy="641" r=".6"/><circle fill="#03709C" cx="1015.1" cy="633.2" r=".4"/><circle fill="#03709C" cx="1029.1" cy="618.2" r="4.5"/><path fill="#03709C" d="M1028.2 622.1l2.1-.3c.7-.1 1.3.4 1.4 1.1l1.1 8c.1.7-.4 1.3-1.1 1.4l-2.1.3c-.7.1-1.3-.4-1.4-1.1l-1.1-8c-.1-.7.4-1.3 1.1-1.4z"/><path fill="none" stroke="#03709C" stroke-width="2.5" stroke-linecap="round" stroke-linejoin="round" stroke-miterlimit="10" d="M1019 628.1l6.2.1 4.5-4.7M1019.9 623.1l4.3 1.2 4.1-1.5"/><circle fill="#FFF" cx="1017.8" cy="622" r="2"/><path fill="#03709C" d="M1025.8 616.3l6.5 4.8s1.4.8 2.1-1c.8-2 2.7.8 2.2-1.9-.7-3.2-4.9-5.7-9.1-4.6-1.9.5-2.7 1.9-1.7 2.7z"/><path fill="none" stroke="#03709C" stroke-width="2.5" stroke-linecap="round" stroke-linejoin="round" stroke-miterlimit="10" d="M1031.2 630.8l1.4 4.2 3.3 3.8M1027.9 639.6l-.7-4.4 2.3-4.4M939.5 637.3l2.3 3.4 4.1 2.5"/><circle fill="#FFF" cx="945.8" cy="648" r="7"/><circle fill="#03709C" cx="942" cy="634.5" r="4"/><path fill="none" stroke="#03709C" stroke-width="2.5" stroke-linecap="round" stroke-linejoin="round" stroke-miterlimit="10" d="M938.1 638l-.2 5.8 6 1.8"/><path fill="#03709C" d="M930.4 640.3l-.1-.5c-.2-.9.4-1.8 1.3-2l7.2-1.5c.9-.2 1.8.4 2 1.3l.1.5c.2.9-.4 1.8-1.3 2l-7.2 1.5c-.9.2-1.8-.4-2-1.3z"/><path fill="none" stroke="#03709C" stroke-width="2.5" stroke-linecap="round" stroke-linejoin="round" stroke-miterlimit="10" d="M931.3 639.2l1.5 5.5-1.3 4.4M931.3 639.2l-2.1 4.6-4.8 2.3"/><path fill="#03709C" d="M938.9 634.5h6.9s1.4-.2 1.3-1.7c-.1-1.3-1.1-1.4-1.1-1.4s-.7-3-4.2-2.5c-3.3.5-3.6 2.9-3.6 2.9s-1.3.2-1.1 1.6c.4 2 1.8 1.1 1.8 1.1z"/></g><g fill="#FFF"><circle cx="1987.8" cy="-151.7" r=".9"/><circle cx="2060.7" cy="764.8" r="6.6"/><circle cx="1827.7" cy="503.7" r="6.4"/><circle cx="294.7" cy="485.6" r="1.6"/><circle cx="443.1" cy="577" r="6.9"/><circle cx="282" cy="705" r="2.5"/><circle cx="412.7" cy="23.1" r="3.8"/><circle cx="1037.6" cy="475.6" r="5.1"/><circle cx="1143.7" cy="457.8" r="5"/><circle cx="1113.9" cy="673.8" r="7"/><circle cx="926.8" cy="-128.9" r="2.5"/><circle cx="1246.5" cy="392.1" r="2.6"/><circle cx="1144.9" cy="203.1" r="2.5"/><circle cx="632.7" cy="251.5" r="4.4"/><circle cx="1715.4" cy="423.7" r="10.2"/><circle cx="732.3" cy="-149.3" r="2.5"/><circle cx="1599.4" cy="17.9" r="6.4"/><circle cx="689.4" cy="211.6" r="2.5"/><circle cx="2054.4" cy="365.1" r="3.8"/><circle cx="1813.2" cy="836.3" r="8.7"/><circle cx="2026.7" cy="202.8" r="4.9"/><circle cx="591.8" cy="421.6" r=".9"/><circle cx="647.5" cy="355" r="1.8"/><circle cx="754" cy="512.1" r="6.6"/><circle cx="763.1" cy="602.6" r="2.5"/><circle cx="654.4" cy="798.2" r="2.6"/><circle cx="433" cy="706" r="11.2"/><circle cx="771.3" cy="877.4" r="6.1"/><circle cx="322.6" cy="833.7" r="6.6"/><circle cx="559.8" cy="796.4" r="3"/><circle cx="457.1" cy="572.9" r="5.2"/><circle cx="457.6" cy="566.3" r="6.9"/><circle cx="1138.7" cy="776.6" r="1.3"/><circle cx="1020.1" cy="757.5" r="2.5"/><circle cx="583.8" cy="788.4" r="7.1"/><circle cx="654.8" cy="628.7" r="5.5"/><circle cx="333.8" cy="516.2" r="5.7"/><circle cx="467.8" cy="576.2" r="5.7"/><circle cx="466.8" cy="572.2" r="4.7"/><circle cx="448.8" cy="565.2" r="4.7"/><circle cx="453.8" cy="548.2" r="3"/><circle cx="481.8" cy="581.2" r="3"/><circle cx="457.8" cy="559.2" r="3"/><circle cx="454.5" cy="560.6" r="2.2"/><circle cx="478.5" cy="571.6" r="2.2"/><circle cx="484.8" cy="561.8" r="1.5"/><circle cx="470.1" cy="553.2" r="1"/><circle cx="513.1" cy="596.2" r="1"/><circle cx="427.2" cy="543.2" r="1.7"/><circle cx="449.2" cy="537.2" r="1.7"/><circle cx="445.2" cy="552.2" r="1.7"/><circle cx="464.2" cy="563.2" r="1.7"/><circle cx="493.2" cy="586.2" r="1.7"/><circle cx="1866" cy="134.4" r="3.5"/><circle cx="480.9" cy="384.8" r="2.9"/><circle cx="1837.6" cy="147.7" r="2.7"/><circle cx="711.9" cy="393.5" r="8.2"/><circle cx="2067.2" cy="336.5" r="2.6"/><circle cx="1850.1" cy="-85.5" r="4.4"/><circle cx="870.9" cy="-23.6" r="4.9"/><circle cx="660" cy="-72.4" r="4"/><circle cx="866" cy="460.6" r="5.1"/><circle cx="1349.7" cy="-113.7" r="2.5"/><circle cx="1612.2" cy="317.3" r="6.4"/><circle cx="1509.4" cy="377.1" r="3.5"/><circle cx="1134.4" cy="15" r="8.3"/><circle cx="1955.8" cy="410.7" r="2.6"/><circle cx="1017.6" cy="104.4" r="2.5"/><circle cx="584.2" cy="101.5" r="4.9"/><circle cx="1475.6" cy="131.1" r="6.7"/><circle cx="323" cy="177.4" r="8.9"/><circle cx="1547.9" cy="411.8" r="2.5"/><circle cx="855.6" cy="295.2" r="8.9"/><circle cx="1621.8" cy="863.7" r="2.5"/><circle cx="459.6" cy="341.4" r="5.3"/><circle cx="1217.8" cy="604.2" r="4.1"/><circle cx="1036.5" cy="790.9" r="8.7"/><circle cx="1022.6" cy="259.8" r="6.1"/><circle cx="1559.1" cy="474" r="7.2"/><circle cx="1168.3" cy="-181.3" r="6.4"/><circle cx="1451.4" cy="13.9" r="6.1"/><circle cx="2022" cy="482.6" r="3.8"/><circle cx="2005.8" cy="606.3" r="4.6"/><circle cx="2001.3" cy="609.8" r="3.1"/><circle cx="1999.3" cy="612.8" r="2.3"/><circle cx="2011.3" cy="605.8" r="2.3"/><circle cx="2022.5" cy="606.1" r="1.9"/><circle cx="1995.5" cy="615.1" r="1.9"/><circle cx="2009.3" cy="600.8" r="3.1"/><circle cx="2009" cy="588.6" r="2.1"/><circle cx="1548.2" cy="-36.6" r="2.5"/><circle cx="1348.4" cy="41.2" r="2.5"/><circle cx="1549.8" cy="144.5" r="2.5"/><circle cx="322.5" cy="-75.6" r="2.5"/><circle cx="1185.9" cy="-4.5" r="2.5"/><circle cx="906.6" cy="410.3" r="2.5"/><circle cx="1817.3" cy="772.5" r="2.5"/><circle cx="1428.9" cy="803" r="2.5"/><circle cx="1486.9" cy="771" r="2.5"/></g><g><circle fill="#FFF" stroke="#03709C" stroke-width="3" stroke-miterlimit="10" cx="574.9" cy="548.6" r="12.2"/><circle fill="#FFF" stroke="#03709C" stroke-width="3" stroke-miterlimit="10" cx="520.4" cy="513.3" r="12.2"/><circle fill="#FFF" stroke="#03709C" stroke-width="3" stroke-miterlimit="10" cx="475.4" cy="459.7" r="12.2"/><path fill="#03709C" d="M485.9 517.1c-.3-.8-.5-1.5-.7-2.3-.9-3.5-.8-7.1-1.2-10.7.2.2.3.5.4.8.5 1.3.7 2.6 1 3.9.5 2 1.3 4.1 2.8 5.5.3.3.6.4 1 .2.2-.1.4-.2.4-.4.4.1.8-.4.5-.8-2.2-2.7-1.6-5.7-2.7-8.8-.8-2.2-2.3-4.4-4.1-5.9.3-2.8 2.2-4.9 2.4-7.8 2.7 2 6.3-.8 6.5-4.1.1-.8-1.1-1.3-1.5-.6-1.1 1.8-2.9 1.6-4.6.9-1.7-2.4-4.2-3.8-7-5.1-4-1.9-10.5-6.7-6.5-11.8 1.1-1.3 4.3-3.7 6.2-6.1.1 0 .2.1.3.1h.3c.6.4 1.2.7 2 .6 1.1-.1 2.2-.4 3.3-.2.8.2 1.5-.6.9-1.3-.8-1-1.7-1.9-2.9-2.3 1.7-.1 3.3-.2 5-.5.6 1.8 2.2 3.5 4.2 3.2.7-.1.6-1.1 0-1.2-1.3-.2-2.1-1.1-2.5-2.3.6-.1 1.2-.3 1.8-.5s1.1-.4 1.7-.6c1.3 1.1 3.1 1.2 4.7.2.6-.4 0-1.1-.6-.9-.8.3-1.7.3-2.4 0 1.6-.8 3.1-1.9 3.7-3.6.2-.5-.5-1.1-.9-.7-1.2 1.2-2.6 2.1-4 2.8-.4-1.3.3-2.2.7-3.4.2-.6-.4-1.3-1-1-1.6 1-1.9 3.4-1.2 5.1-.8.3-1.7.6-2.6.8 0-.5.1-1 .3-1.5.3-.7.9-1.1 1.1-1.8.2-.5-.2-1.1-.8-1-1.9.3-2.5 2.7-2.4 4.6-2.2.4-4.5.7-6.8 1 2-.6 3.4-2 4.6-3.7 1.6.5 3.1-.4 3.6-2.5.1-.4-.5-.8-.8-.4-.4.6-1.1 1.7-1.9 1.6.7-1.2 1.4-2.5 2.1-3.7 1.8 1 3.6.3 4.9-1.1.4-.5-.4-1.2-.9-.8-.8.7-2.1 1.3-3.1.6 1.2-1.6 2.5-3 4.5-3.8.5-.2.4-1.1-.2-1.1-2.3 0-4 1.2-5.3 2.9 0-.6.1-1.2-.2-1.8-.2-.4-.7-.5-1-.2-1.1.8-.8 2.7 0 4-.7 1.4-1.4 2.7-2.2 4l-.3-.6c-1.1-2.1-.8-3.8-.8-6 0-.8-1-1.2-1.4-.5-1.8 2.3-.3 6.8 1.5 8.6-1.1 1.5-2.4 2.7-4.3 3.5-.9-1.2-2.3-2-3.4-3-1.6-1.4-3.2-3.3-5.5-3.4-4-.1-2.2 6.3-1 8.7-2.3 2.6-5 4.4-7.6 6.9-.2.2-.4.3-.5.5-1.3 1.2-2.3 2.5-2.8 4-1.3-.9-2.7-1.7-4-2.1-2.2-.6-4-.1-4.4 2.7v1.6c.2 4.3 2.6 13.5 7.9 14.1.8.1 1.4-.9.8-1.5-2.4-2.7-5.1-6-4.7-9.8 3.4 4.3 7 8.5 11.3 11.9 1.3 1 2.8 2.2 4.5 3.2 1.8 1 3.7 1.8 5.5 1.9.2 4.4 5.5 6.6 5.8 11.6v2.9c-.1 3.7-.1 8.1 3.7 9.2.4.4 1-.2.8-.9zM544.8 566.1c-.5-.7-.9-1.4-1.3-2.1-1.7-3.1-2.6-6.7-3.9-10l.6.6c.8 1.1 1.3 2.3 1.9 3.5 1 1.8 2.3 3.6 4.2 4.6.3.2.7.2 1 0 .2-.2.3-.3.3-.5.4 0 .7-.6.3-.9-2.8-2-3-5.1-4.8-7.8-1.3-1.9-3.3-3.6-5.5-4.7-.5-2.8.9-5.3.3-8.2 3.1 1.3 5.9-2.3 5.2-5.6-.1-.8-1.4-1-1.6-.2-.6 2-2.4 2.3-4.2 2.1-2.3-1.9-5-2.6-8.1-3.2-4.4-.8-11.9-3.8-9.3-9.7.7-1.6 3.2-4.6 4.4-7.5h.3s.2-.1.3-.1c.7.3 1.3.3 2.1.1 1.1-.4 2-1 3.2-1 .8 0 1.3-1 .6-1.5-1-.7-2.1-1.4-3.4-1.5 1.6-.5 3.2-1.1 4.7-1.8 1.1 1.6 3 2.8 4.9 2 .6-.3.3-1.2-.3-1.2-1.3.2-2.4-.5-3-1.6.5-.3 1.1-.6 1.6-.9.5-.3 1-.6 1.5-1 1.6.8 3.3.4 4.6-1 .4-.5-.3-1.1-.8-.7-.7.5-1.6.7-2.3.6 1.4-1.2 2.5-2.6 2.7-4.5 0-.6-.8-.9-1.1-.4-.9 1.5-2 2.7-3.2 3.7-.7-1.2-.3-2.2-.3-3.5 0-.6-.7-1.2-1.3-.7-1.3 1.4-1 3.7.1 5.2-.7.5-1.5 1-2.3 1.4-.1-.5-.2-1-.1-1.5.1-.7.6-1.3.6-2 0-.6-.5-1-1-.7-1.8.8-1.7 3.2-1.1 5.1-2 1-4.2 1.8-6.3 2.7 1.8-1.1 2.8-2.8 3.5-4.7 1.7.1 2.9-1.2 2.8-3.4 0-.5-.7-.7-.8-.2-.2.6-.6 1.9-1.4 2 .4-1.4.7-2.8 1.1-4.1 1.9.5 3.5-.6 4.4-2.3.3-.6-.7-1.1-1.1-.6-.6.8-1.7 1.8-2.8 1.4.7-1.9 1.7-3.6 3.4-4.8.5-.3.1-1.2-.5-1-2.2.6-3.5 2.2-4.4 4.2-.2-.6-.2-1.2-.6-1.7-.3-.3-.8-.3-1.1 0-.9 1.1-.1 2.8 1 3.9-.4 1.5-.7 3-1.1 4.4l-.5-.5c-1.6-1.7-1.8-3.5-2.3-5.6-.2-.8-1.2-.9-1.5-.1-1.1 2.6 1.4 6.7 3.7 8-.7 1.7-1.6 3.2-3.2 4.4-1.2-.9-2.8-1.4-4.1-2-1.9-1-4-2.4-6.2-1.9-3.9 1-.5 6.6 1.2 8.7-1.5 3.1-3.7 5.6-5.6 8.6-.1.2-.3.4-.4.6-.9 1.5-1.6 3-1.6 4.6-1.5-.6-3-1-4.4-1-2.3-.1-3.9.9-3.5 3.8 0 .2 0 .3.1.5.1.3.2.7.3 1.1 1.3 4.1 5.9 12.4 11.3 11.6.8-.1 1.1-1.2.4-1.7-3.1-2-6.5-4.5-7.1-8.2 4.4 3.2 8.9 6.4 14 8.7 1.5.7 3.3 1.4 5.2 1.9 2 .5 4 .8 5.8.4 1.3 4.2 7.1 5 8.6 9.7.3.8.5 1.8.7 2.8.9 3.6 2 7.8 5.9 7.9.6.3 1.1-.5.6-1zM603 600.7c-.5-.6-1-1.3-1.5-2-2-3-3.1-6.4-4.7-9.7l.6.6c.9 1 1.5 2.2 2.2 3.4 1.1 1.8 2.5 3.4 4.5 4.3.3.2.7.2 1-.1.2-.2.3-.3.3-.5.4 0 .6-.6.2-.9-3-1.8-3.4-4.9-5.4-7.4-1.5-1.8-3.6-3.4-5.8-4.2-.7-2.7.5-5.3-.3-8.2 3.2 1 5.7-2.8 4.8-6-.2-.8-1.4-.9-1.6 0-.4 2.1-2.2 2.5-4.1 2.4-2.4-1.7-5.2-2.2-8.3-2.6-4.4-.5-12.2-2.8-10.1-8.9.6-1.6 2.8-4.9 3.8-7.8h.3s.2-.1.3-.1c.7.2 1.4.2 2.1-.1 1-.5 1.9-1.1 3.1-1.3.8-.1 1.2-1.1.4-1.5-1.1-.7-2.2-1.2-3.5-1.2 1.6-.6 3.1-1.3 4.5-2.1 1.2 1.5 3.3 2.6 5.1 1.6.6-.3.2-1.3-.4-1.1-1.3.3-2.4-.4-3.2-1.3.5-.3 1-.7 1.5-1s1-.7 1.4-1.1c1.6.6 3.4.1 4.5-1.3.4-.5-.4-1-.8-.7-.7.5-1.5.8-2.3.8 1.3-1.3 2.3-2.8 2.3-4.6 0-.6-.8-.9-1.1-.3-.8 1.5-1.8 2.8-2.9 4-.8-1.1-.4-2.1-.5-3.5 0-.6-.8-1.1-1.3-.6-1.2 1.5-.7 3.8.5 5.2-.7.6-1.4 1.1-2.2 1.6-.2-.5-.2-1-.2-1.5.1-.7.5-1.3.5-2.1 0-.6-.6-.9-1.1-.7-1.7.9-1.4 3.4-.7 5.1-2 1.1-4 2.1-6.1 3.2 1.7-1.3 2.6-3.1 3.1-5 1.7 0 2.8-1.4 2.5-3.6 0-.4-.7-.6-.8-.1-.2.7-.5 2-1.3 2.1.3-1.4.5-2.8.8-4.2 2 .3 3.5-.9 4.2-2.7.3-.6-.8-1.1-1.1-.5-.5.9-1.6 1.9-2.7 1.6.6-1.9 1.4-3.7 3-5 .4-.4 0-1.2-.6-1-2.2.8-3.4 2.5-4 4.5-.2-.6-.3-1.2-.8-1.6-.3-.3-.8-.3-1.1.1-.8 1.1.1 2.8 1.3 3.8-.3 1.5-.4 3-.7 4.5-.2-.1-.4-.3-.5-.4-1.7-1.6-2.1-3.3-2.7-5.4-.2-.8-1.3-.8-1.5 0-.9 2.7 1.9 6.5 4.3 7.7-.5 1.7-1.4 3.3-2.9 4.7-1.3-.8-2.9-1.2-4.2-1.7-2-.8-4.2-2.1-6.3-1.4-3.8 1.3 0 6.6 1.9 8.5-1.3 3.2-3.3 5.8-4.9 9-.1.2-.2.4-.3.7-.8 1.6-1.3 3.1-1.3 4.7-1.5-.4-3.1-.7-4.5-.6-2.2.1-3.8 1.2-3.2 4 0 .2.1.3.1.5.1.3.2.7.4 1.1 1.6 4 6.9 11.9 12.1 10.6.8-.2 1-1.3.3-1.7-3.2-1.8-6.9-4-7.7-7.7 4.6 2.9 9.4 5.7 14.6 7.5 1.6.5 3.4 1.2 5.3 1.5 2 .4 4 .5 5.9 0 1.6 4.1 7.4 4.4 9.3 9 .3.8.6 1.7.9 2.7 1.1 3.5 2.6 7.6 6.5 7.5.9-.2 1.3-1 .8-1.5z"/><path fill="#FFF" stroke="#03709C" stroke-width="3" stroke-miterlimit="10" d="M649.5 600.5c1.6-21.2 4.6-60.3 42.5-57.4 37.9 2.9 34.9 42 33.3 63.2"/><circle fill="#03709C" cx="687.9" cy="566.3" r="9.4"/><ellipse transform="rotate(-86 680.797 594.1)" fill="#03709C" cx="680.8" cy="594.1" rx="13.9" ry="12.2"/><path fill="#03709C" d="M695.9 566.3l-13.4-6.2c-.9-.4-1.3-1.5-.9-2.5.4-.9 1.5-1.3 2.5-.9l13.4 6.2c.9.4 1.3 1.5.9 2.5-.5.9-1.6 1.3-2.5.9z"/><path fill="#03709C" d="M683.1 558.3c.2.1.2.1 1.4-1.4 1.4-1.8 3.4-3 6-3.2 2.5-.2 5.5.8 7.6 2.1 2 1.3 2.1 3.4 3 6.2 1.2 3.6.9 5 0 7.1 0-1.1 0-2.3-.3-3.3-.3-1.2-1.2-3.1-2.6-2.3-.2.1-1.3 2.1-1 2.3-.1-.1-14-7.5-14.1-7.5z"/><circle fill="#03709C" cx="701" cy="569.2" r="2.2"/><path fill="#03709C" d="M688.5 608l-10.8-.8c-1.6-.1-2.8-1.5-2.7-3.1l1.7-22.2c.1-1.6 1.5-2.8 3.1-2.7l10.8.8c1.6.1 2.8 1.5 2.7 3.1l-1.7 22.2c-.1 1.6-1.5 2.8-3.1 2.7z"/><path fill="#03709C" d="M688.003 582.006l-5.484-.418.585-7.678 5.484.42z"/><path fill="#03709C" d="M677.7 565.4c-1.1 1-2 3.1-2.5 4.3-.8 1.9-1.3 3.9-1.4 5.9-.1 1.8.1 3.8 1.3 5.1 1.4 1.6 3.8 2 5.9 1.8 5.7-.4 11-3.6 14.1-8.4 3-4.7-2.9-6-6.2-7.1-2.7-.9-8-3.4-10.8-1.9-.2.1-.3.2-.4.3z"/><path fill="none" stroke="#03709C" stroke-width="7" stroke-linecap="round" stroke-linejoin="round" stroke-miterlimit="10" d="M692.5 580.7c.4 0 7.3 8.1 7.3 8.1l-9.4 9.8M678.2 581.1l-11.6 4.6-3.2-10.6"/><path fill="#03709C" d="M660.2 575.6c-2-.8-3.2-4.3-3.1-6.3 0-2 2.2-4.1 3.4-2.7s2.3 3.2 2.8 2.6c.5-.6-.1-1.8-.1-1.8s-.2-1 .9-.6 1.8 1.5 1.9 2.7c.2 1.9.2 4.3-.5 5.2-.7.9-5.3.9-5.3.9zM728.738 603.06l-11.615 6.682-6.683-11.615 11.615-6.683zM720.073 591.386l-6.306 2.262-2.262-6.307 6.307-2.26z"/><path fill="#03709C" d="M708.576 607.5l-5.537-4.756 4.755-5.538 5.537 4.756z"/><path fill="#03709C" d="M699.8 603.6l-.8-5.2c-.1-.6.3-1.1.9-1.2l5.2-.8c.6-.1 1.1.3 1.2.9l.8 5.2c.1.6-.3 1.1-.9 1.2l-5.2.8c-.6 0-1.1-.4-1.2-.9zM707.6 593.6l-3.2-1.8c-.6-.3-.8-1.1-.4-1.7l1.8-3.2c.3-.6 1.1-.8 1.7-.4l3.2 1.8c.6.3.8 1.1.4 1.7l-1.8 3.2c-.4.6-1.2.8-1.7.4z"/><path fill="#03709C" d="M704.856 592.724l10.17.776-.48 6.282-10.17-.777z"/><path fill="#03709C" d="M713.228 596.363l-5.437-2.292 2.294-5.435 5.436 2.292z"/><circle fill="#03709C" cx="721.6" cy="591.9" r="3.6"/><ellipse transform="rotate(-59 720.49 585.213)" fill="#03709C" cx="720.5" cy="585.2" rx="2.8" ry="4.2"/><ellipse transform="rotate(-86 692.098 601)" fill="#03709C" cx="692.1" cy="601" rx="4.2" ry="3.5"/><path fill="#03709C" d="M712.5 587.6l-3.6-.3c-.7-.1-1.3-.7-1.2-1.5l.3-3.6c.1-.7.7-1.3 1.5-1.2l3.6.3c.7.1 1.3.7 1.2 1.5l-.3 3.6c-.1.7-.7 1.2-1.5 1.2z"/><path fill="#03709C" d="M712.8 580.6l2.8 3.4c.2.3.7.3.9-.1l2.3-3.9c.2-.4-.1-.9-.5-.8l-5.1.5c-.5.1-.7.6-.4.9z"/><path fill="none" stroke="#03709C" stroke-width="2" stroke-linecap="round" stroke-miterlimit="10" d="M620.4 597.5l-30.8-17.1-25.2-15-35.7-27.8-19.4-11.3-28.6-36.7"/><ellipse transform="rotate(-70 625.096 599.69)" fill="none" stroke="#03709C" stroke-width="2" stroke-miterlimit="10" cx="625.1" cy="599.7" rx="3.4" ry="6.6"/><path fill="none" stroke="#03709C" stroke-width="5" stroke-linecap="round" stroke-miterlimit="10" d="M561.7 554.9l18.3 7.7M524.1 525.7l-16.1-8.5M475.4 473.4l-13.6-11.6"/><path fill="#03709C" d="M723.8 595.2l1.8.6c-1.2 6-18.2 9.6-38.5 8.1-20.3-1.6-36.5-7.7-36.9-13.8.6-.1 1.3-.2 1.9-.3-16 2.2-26.7 7-27.2 13.3-.8 10.3 26.3 20.8 60.4 23.4 34.1 2.6 62.5-3.7 63.3-14 .5-6.3-9.3-12.7-24.8-17.3z"/></g></svg>