<svg xmlns="http://www.w3.org/2000/svg" viewBox="617 -82.1 1829 1005"><g fill="#03709C"><path d="M871.7 785.2c10.7 0 19.3-5.3 19.3-13.3 0-1.9-2.8-3.2-6.8-4.1L874 757.6v-4.7h-5v5l-9.9 9.9c-4 .9-6.8 2.2-6.8 4.1.1 8 8.7 13.3 19.4 13.3zm-2.3-25.3h4.5l7.4 7.4c-5.9-.8-13.3-.8-19.2 0l7.3-7.4zM927.6 808.6l-30.4-.3c-3.3 0-6 2.6-6.1 5.9v2.4l-7.2-.1v-16.8c0-6.6-5.3-11.9-11.9-11.9h-.1c-6.6 0-11.9 5.3-11.9 11.9v16.5l-7.8-.1v-2.2c0-3.3-2.6-6-5.9-6.1l-30.4-.3c-3.3 0-6 2.6-6.1 5.9l-.1 7.4c0 3.3 2.6 6 5.9 6.1l30.4.3c3.3 0 6-2.6 6.1-5.9v-2.4l7.8.1v6.7c0 1.5.3 3 .8 4.4-1.7.8-2.8 2.4-2.8 4.4v4.4c0 2 1.2 3.7 3 4.4v.6c0 2.7 2.2 4.8 4.8 4.8h11.4c2.7 0 4.8-2.2 4.8-4.8v-.6c1.8-.7 3-2.4 3-4.4v-4.4c0-1.6-.8-3-2-3.9.7-1.5 1-3.1 1-4.8v-6.5l7.2.1v2.2c0 3.3 2.6 6 5.9 6.1l30.4.3c3.3 0 6-2.6 6.1-5.9l.1-7.4c0-3.3-2.7-6.1-6-6.1zM871.9 873.1c.4 0 .8-.2 1-.4.2-.3.4-.6.4-1v-6.3c0-.8-.6-1.4-1.4-1.4-.8 0-1.4.6-1.4 1.4v6.3c0 .7.6 1.4 1.4 1.4zM871.8 860.4c.4 0 .8-.2 1-.4.2-.3.4-.6.4-1v-6.3c0-.8-.6-1.4-1.4-1.4-.8 0-1.4.6-1.4 1.4v6.3c0 .8.6 1.4 1.4 1.4zM872 885.7c.4 0 .8-.2 1-.4.2-.3.4-.6.4-1V878c0-.8-.6-1.4-1.4-1.4s-1.4.6-1.4 1.4v6.3c0 .8.6 1.4 1.4 1.4zM872.2 923.6c.4 0 .8-.2 1-.4.2-.3.4-.6.4-1v-6.3c0-.8-.6-1.4-1.4-1.4s-1.4.6-1.4 1.4v6.3c0 .8.7 1.4 1.4 1.4zM872.2 911c.4 0 .8-.2 1-.4.2-.3.4-.6.4-1v-6.3c0-.8-.6-1.4-1.4-1.4s-1.4.6-1.4 1.4v6.3c-.1.8.6 1.4 1.4 1.4zM872.1 898.3c.4 0 .8-.2 1-.4.2-.3.4-.6.4-1v-6.3c0-.8-.6-1.4-1.4-1.4-.8 0-1.4.6-1.4 1.4v6.3c-.1.8.6 1.4 1.4 1.4z"/></g><path fill="#03709C" d="M1009.2 65.2c-2-2.9-15.7 2.9-30.9 13.1l-15.2-19.4L975.7 80c-15.3 10.6-26 21.5-24 24.4 2 3 16.1-3.1 31.6-13.6l13.6 17.3-11.2-18.9c15-10.4 25.5-21.1 23.5-24z"/><g fill="#03709C"><path d="M2358.9 815.1l-7.4 13.3 12 9.4-13.3-7.4-9.3 12 7.3-13.3-12-9.4 13.3 7.4"/><circle cx="2349.8" cy="828.6" r="4"/></g><path fill="#03709C" d="M2119 434.5l9.9-1.3-10-.3c-.3-1.2-1.3-2.1-2.5-2.3l-1.3-9.9-.3 10c-1.1.4-1.9 1.3-2.1 2.4l-10 1.3 10.2.3c.4 1 1.2 1.8 2.3 2.1l1.3 10.1.3-10.1c1.1-.3 1.9-1.2 2.2-2.3zM785.6 27l8.1-1.6-8.2.3c-.3-.9-1.1-1.5-2-1.7l-1.6-8 .3 8.1c-.9.3-1.6 1.2-1.7 2.2l-8 1.6 8.2-.3c.4.9 1.2 1.5 2.1 1.6l1.6 8.1-.3-8.3c.8-.4 1.4-1.1 1.5-2zM1024.4 626.8c.8-.7 1.1-1.8.8-2.9l7.5-5.3-8.2 4.1c-.8-.8-1.9-1.1-3-.8l-5.3-7.4 4.1 8.2c-.7.8-1 1.9-.7 2.9l-7.6 5.4 8.3-4.1c.7.7 1.8 1 2.8.7l5.4 7.6-4.1-8.4zM1858.3 32.8l12.1 8.6-10.7-10.4c.7-1.5.5-3.2-.4-4.5l8.6-12.1-10.4 10.6c-1.5-.8-3.3-.6-4.7.3l-12-8.5 10.5 10.2c-.8 1.6-.6 3.5.4 4.9l-8.5 11.9 10.3-10.5c1.6.8 3.4.6 4.8-.5zM2089 198.8c.6-9.1-4-18-12.4-22.3-8.4-4.3-18.3-2.7-25.3 3.2-9.3-3.7-17.2-5.8-21.8-5.8-3 0-5 .9-5.9 2.7-1.7 3.4 1.3 7.8 9.9 14.3 2.6 2 5.7 4.1 9 6.2-.6 9.1 4 18.1 12.4 22.3 8.4 4.3 18.3 2.7 25.3-3.2 9.3 3.7 17.2 5.8 21.8 5.8 3 0 5-.9 5.9-2.7 2.6-5.3-8.1-13.7-18.9-20.5zm-60.2-19.5h.7c3.1 0 9.4 1.5 17.8 4.7-.8 1.1-1.6 2.3-2.2 3.6-.6 1.3-1.2 2.6-1.6 3.9-8.7-5.7-13.5-10.1-14.7-12.2zm73.1 37.3c-3.1 0-9.4-1.5-17.8-4.7.8-1.1 1.6-2.3 2.2-3.6.6-1.3 1.2-2.6 1.6-3.9 8.6 5.6 13.4 10 14.7 12.1-.2.1-.4.1-.7.1z"/><g fill="#006E91"><path d="M2363.9 627.4c-1.8-1.5-4.3-1.8-6.3-.6l-12.6 7.1-4.9-4.6 7.3-1c1.7-.2 3.2-1.2 4.1-2.8l3.9-7 2.6.7c2.9.7 5.9-1 6.7-4 .7-2.9-1-5.9-4-6.7l-6.7-1.7c-2.4-.6-4.9.5-6.1 2.6l-4.6 8.2-7.2 1c-.1-.1-.2-.2-.4-.3l2.5-3.6c.3-.5.4-1 .3-1.5.3-.5.4-1.2.1-1.8-.4-1-1.6-1.5-2.6-1-.1 0-.1 0-.2.1l-5.8-4.8c-.9-.8-2-1.2-3.2-1.4l-11.2-3.8c1.5-4.6.9-9.8-2-14-4.9-7.1-14.7-8.9-21.9-4-7.1 4.9-8.9 14.7-4 21.9.5.7 1 1.2 1.6 1.8h-.1c-.7 1.5-.2 2.8.9 3.9l-5.6 1.5-8.5-8.5c-2.1-2.1-5.4-2.1-7.5 0s-2.1 5.4 0 7.5l10.6 10.7c.2.2.5.5.8.7 1.3.8 2.8 1.1 4.3.7l12.9-3.4c.4.4.9.9 1.4 1.2.6.4 1.2.7 1.9 1l.7.3-2.5 6.8-12.4 6.3c-2.6 1.3-3.7 4.5-2.3 7.1.4.8 1 1.5 1.8 2 1.5 1 3.6 1.2 5.3.3l14.3-7.2c1.2-.6 2.1-1.6 2.6-2.9l3.2-8.8 14.1 5.1 15.2 14.3c.2.2.4.4.7.5 1.7 1.2 3.9 1.3 5.8.2l12.8-7.3 1.6 1.4c2.3 2 5.7 1.8 7.7-.5s1.8-5.7-.5-7.7l-4.6-4zm-76.8-33.3c.6-4.1 4.5-7 8.7-6.4l5.2.8c2.6.4 4.7 2.1 5.7 4.3l-.8-.1c-.3-.1-.6.1-.7.5 0 .2.1.4.2.6.1 0 .1.1.2.1l1.5.3c.1.2.1.5.2.7l-1.1-.2c-.3-.1-.6.1-.7.5 0 .2.1.4.2.6.1 0 .1.1.2.1l1.5.3c0 .4 0 .9-.1 1.3-.6 4.1-4.5 7-8.7 6.4l-5.2-.8c-4.1-1-6.9-4.9-6.3-9zM2370.5 549.8c-1.1.8-2.2 1.7-3.3 2.6-.8.7-.9 2-.2 2.8.4.5 1 .7 1.5.7s.9-.2 1.3-.5c1-.9 2-1.7 3-2.4.9-.6 1.1-1.9.4-2.8-.6-.9-1.8-1.1-2.7-.4zM2349.4 586.2c.2 0 .3.1.4.1.9 0 1.7-.6 1.9-1.6.3-1.5.7-2.7 1-3.8.3-1.1-.3-2.2-1.4-2.5s-2.2.3-2.5 1.4c-.3 1.1-.7 2.5-1 4-.2 1.1.5 2.2 1.6 2.4zM2393.9 541.5c-1.4.2-2.7.3-4 .6-1.1.2-1.8 1.2-1.7 2.3.2 1 1 1.7 2 1.7h.3c1.3-.2 2.6-.4 3.9-.5 1.1-.1 1.9-1.1 1.7-2.2-.1-1.3-1.1-2.1-2.2-1.9zM2381.7 543.9c-1.3.4-2.6 1-3.9 1.6-1 .5-1.4 1.7-1 2.7.3.7 1.1 1.2 1.8 1.2.3 0 .6-.1.8-.2 1.2-.5 2.3-1 3.5-1.4 1-.4 1.6-1.5 1.3-2.5-.4-1.2-1.5-1.7-2.5-1.4zM2346.7 598c.2 0 .3.1.5.1.9 0 1.7-.6 1.9-1.5.3-1.2.6-2.5.9-4 .2-1.1-.4-2.1-1.5-2.4-1.1-.2-2.1.4-2.4 1.5-.3 1.5-.6 2.7-.9 3.9-.2 1.1.4 2.1 1.5 2.4zM2353 574.8c.3.1.6.2.9.2.7 0 1.4-.4 1.8-1.1.6-1.2 1.2-2.3 1.9-3.4.6-1 .2-2.2-.7-2.7-1-.6-2.2-.2-2.7.7-.7 1.2-1.4 2.4-2 3.6-.5 1-.2 2.2.8 2.7z"/><path d="M2341.7 608.9c.3.2.7.3 1.1.3.6 0 1.3-.3 1.7-.9.7-1.1 1.4-2.4 2.1-3.8.4-1 0-2.2-1-2.6-1-.4-2.2 0-2.6 1-.5 1.2-1.1 2.3-1.7 3.2-.8 1-.5 2.2.4 2.8zM2359.1 564.3c.4.3.8.4 1.2.4.6 0 1.2-.3 1.6-.8.8-1 1.6-2.1 2.4-3 .7-.8.6-2.1-.2-2.8-.8-.7-2.1-.6-2.8.2-.9 1-1.8 2.1-2.6 3.2-.7.9-.5 2.2.4 2.8zM2405.5 539.6c-1.2.3-2.4.6-3.8.8-1.1.2-1.8 1.2-1.6 2.3.2 1 1 1.7 2 1.7h.4c1.5-.3 2.8-.6 4.1-.9 1.1-.3 1.7-1.4 1.4-2.4-.3-1.2-1.4-1.8-2.5-1.5zM2449.3 498.5c-.9-.6-2.2-.4-2.8.5-.8 1.1-1.5 2.2-2.3 3.3-.6.9-.4 2.2.5 2.8.3.2.7.4 1.1.4.6 0 1.3-.3 1.6-.9.8-1.1 1.5-2.2 2.3-3.3.7-1 .5-2.2-.4-2.8zM2442.4 508.4c-.9-.6-2.2-.4-2.8.5-.8 1.1-1.5 2.2-2.3 3.3-.6.9-.4 2.1.5 2.8.4.3.8.4 1.2.4.6 0 1.2-.3 1.6-.8.8-1.1 1.6-2.2 2.3-3.3.6-1 .4-2.3-.5-2.9zM2415.9 534.9c-1.1.7-2.2 1.3-3.3 1.9-1 .5-1.4 1.7-.9 2.7.4.7 1.1 1.1 1.8 1.1.3 0 .6-.1.9-.2 1.2-.6 2.4-1.3 3.6-2.1.9-.6 1.2-1.8.6-2.8-.5-.9-1.8-1.2-2.7-.6zM2435.4 518.2c-.9-.7-2.1-.5-2.8.4-.8 1.1-1.6 2.1-2.5 3.1-.7.9-.6 2.1.3 2.8.4.3.8.5 1.3.5.6 0 1.1-.2 1.5-.7.9-1 1.7-2.1 2.6-3.2.6-.9.4-2.2-.4-2.9zM2424.8 527.5c-.9 1-1.9 1.9-2.8 2.7-.8.7-.9 2-.2 2.8.4.4.9.7 1.5.7.5 0 1-.2 1.3-.5 1-.9 2-1.8 3-2.9.8-.8.8-2.1 0-2.8-.7-.8-2-.8-2.8 0z"/></g><path fill="#03709C" d="M2005.6 658.9c-.9-2.2-1.8-4.5-3.7-6-2.6-2-6.5-1.7-9.4-.2-2.5 1.3-3.9 3.5-6.2 5.2-1.4 1.1-2.9 2.1-4.1 3.4-3.2 3.7-1.9 8.7.7 12.3 1.7 2.4 4 4.6 6.9 5.1 3.3.7 6.6-.8 9.5-2.3 3.1-1.6 6.4-3.5 7.7-6.8 1.3-3.4-.1-7.3-1.4-10.7zm-13.9 15.1c-.1.3-.2.7-.3 1.1-.4.9-1.4 1.7-2.3 1.6-.2 0-.4-.1-.6-.2.2.1.4.2.6.2 1.4.1 1.6-3.1 1.4-3.9-.3-1.7-1.4-3.7-3.1-4.3-1.3-.5-1 .8-2.3 1.3-1.1.4-1.9.2-2.4-.9-1.8-4.6 2.3-5.5 5.4-2.9 2.3 1.9 4.2 4.9 3.6 8zm.8-9.2c-.6-.4-.7-1.5-.8-2.2-.1-.4 0-.9.3-1.1.3-.2.6-.1.9-.1.6.1 1.3.2 1.9.3.3 0 .5.1.7.2.3.3.3.8.2 1.2-.3 1-2.1 2.3-3.2 1.7zm4.8 11l-1.5.6c.1 0 .3-.1.4-.1l-1 .5v-.2c-.1-.1 0-.2 0-.2.2-.8.9-1.5 1.8-1.6.4 0 .8.2.8.5 0 .2-.3.4-.5.5zm-.7-18.4c-1.3.2-5.3-.4-3.7-2.8.5-.7 1.4-1 2.2-1.2 1.5-.3 2.7.8 1.3 2 .7.2 1.7.3 2.4-.1.8-.4 1.3-1.4.8-2.1.8-.2 1.5.7 1.5 1.4 0 .8-.6 1.5-1.3 1.9-1.1.6-2.2.8-3.2.9zm5 11.2c.2.5.5.9.6 1.3s.1 1.1-.3 1.4c-.4.2-.9.2-1.2-.1-.3-.3-.5-.7-.7-1.1-.7-2.2.7-5.8 3.3-5.9-1.6.6-2.4 2.8-1.7 4.4z"/><g fill="#03709C"><path d="M2249.9 34c-9.4 0-17.1 7.7-17.1 17.1s7.7 17.1 17.1 17.1c9.4 0 17.1-7.7 17.1-17.1s-7.7-17.1-17.1-17.1zm0 30.8c-7.6 0-13.8-6.2-13.8-13.8s6.2-13.8 13.8-13.8 13.8 6.2 13.8 13.8-6.2 13.8-13.8 13.8z"/><path d="M2249.9 47.9c-1.8 0-3.2 1.4-3.2 3.2s1.4 3.2 3.2 3.2c1.8 0 3.2-1.4 3.2-3.2s-1.5-3.2-3.2-3.2zm0 3.3c-.1 0-.1 0-.1-.1s0-.1.1-.1.1 0 .1.1-.1.1-.1.1z"/></g><path fill="#03709C" d="M904.9 478.7c-.1-.6-.2-1.2-.3-1.9-.2-.6-.4-1.3-.6-1.9-.5-1.3-1.3-2.5-2.2-3.7-.5-.6-1-1.1-1.6-1.6-.6-.5-1.2-1-1.9-1.4l-.5-.3c-.1 0-.1-.1-.2-.1l-.3-.2c-.4-.2-.7-.4-1.1-.6-.7-.3-1.5-.7-2.2-.9-1.5-.5-3.1-.8-4.7-.8h-.1c-.5-.1-1-.1-1.5-.1h-2.2c-.7.1-1.5.2-2.2.3-1.5.3-3 .9-4.5 1.7-.7.4-1.4.8-2.1 1.3l-.5.4c-.2.1-.3.3-.5.4l-.2.2-.2.2-.4.4-.5.5c-.1.1-.3.3-.4.5-.3.3-.5.6-.8.9-.5.7-1 1.3-1.4 2s-.8 1.5-1 2.2c-.3.8-.5 1.5-.6 2.3-.2 1.5 0 3.1.3 4.4.4 1.4 1 2.6 1.7 3.6s1.5 1.9 2.3 2.5c.8.6 1.5 1.1 2.2 1.4.2.1.3.2.5.2.1.1.3.1.4.2.1.1.3.1.4.1.1 0 .2.1.3.1s.2.1.3.1c2 .7 4.2.8 6.2.4l-.1.1-.3.3-.3.3c-.4.4-.9.8-1.3 1.2-.1.1-.2.2-.4.3-.4.2-.7.3-1.1.4-.2.1-.5.2-.7.2-.2.1-.5.2-.8.2-.5.1-1 .3-1.6.4-.5.1-1.1.2-1.7.2-.3 0-.6 0-.9.1h-.8c-1.2 0-2.4-.1-3.7-.3-.6-.1-1.2-.3-1.9-.5l-.5-.2c-.2-.1-.3-.1-.4-.2l-.2-.1c-.1 0-.2-.1-.2-.1l-.5-.2-.4-.2c-.1-.1-.3-.2-.4-.3-.3-.2-.5-.4-.8-.6-.5-.4-1-.8-1.5-1.3-.9-.9-1.7-1.9-2.2-3-.6-1.1-1-2.2-1.2-3.2-.2-1.1-.3-2.1-.3-3.1s.2-1.9.4-2.7.4-1.4.7-2c.1-.1.1-.3.2-.4.1-.1.1-.2.2-.3.1-.2.2-.4.3-.5.2-.3.2-.4.2-.4l-.3-.2s-.1.1-.3.4c-.1.1-.2.3-.4.5-.1.1-.1.2-.2.3-.1.1-.2.2-.2.4-.2.3-.3.6-.5.9-.1.2-.2.3-.3.5-.1.2-.2.4-.2.6-.3.8-.6 1.7-.8 2.8s-.2 2.2-.1 3.5c.1.6.2 1.2.3 1.9.2.6.4 1.3.6 1.9.5 1.3 1.3 2.5 2.2 3.7.5.6 1 1.1 1.6 1.6.3.3.6.5.9.7.2.1.3.2.5.3l.2.2.1.1h.1l.5.3c.1 0 .1.1.2.1l.3.2c.4.2.7.4 1.1.6.7.3 1.5.7 2.2.9 1.5.5 3.1.8 4.7.8h.1c.5 0 1 .1 1.5.1h2.2c.7-.1 1.5-.2 2.2-.3 1.5-.3 3-.9 4.5-1.7.7-.4 1.4-.8 2.1-1.3l.5-.4c.2-.1.3-.3.5-.4l.2-.2.2-.2.2-.2.1-.1.1-.1c.6-.6 1.1-1.2 1.6-1.9s1-1.3 1.4-2c.4-.7.8-1.5 1-2.2.3-.8.5-1.5.6-2.3.2-1.5 0-3.1-.3-4.4-.4-1.4-1-2.6-1.7-3.6-.5-.7-1-1.4-1.6-1.9-.4-.4-.8-.8-1.2-1.1-2.9-2.2-6.6-2.7-9.9-1.7v-.1l.1-.1.1-.1.1-.1.3-.3.3-.3c.4-.4.9-.8 1.3-1.2.1-.1.2-.2.4-.3.4-.2.7-.3 1.1-.4.2-.1.5-.2.7-.2.2-.1.5-.2.8-.2.5-.1 1-.3 1.6-.4.5-.1 1.1-.2 1.7-.2.3 0 .6 0 .9-.1h.8c1.2 0 2.4.1 3.7.3.6.1 1.2.3 1.9.5l.5.2c.2.1.3.1.4.2l.2.1c.1 0 .2.1.2.1l.2.1.1.1h.1c.6.3 1.1.7 1.6 1.1.5.4 1 .8 1.4 1.3.9.9 1.7 1.9 2.2 3 .6 1.1 1 2.2 1.2 3.2.2 1.1.3 2.1.3 3.1s-.2 1.9-.4 2.7-.4 1.4-.7 2c-.1.1-.1.3-.2.4-.1.1-.1.2-.2.3-.1.2-.2.4-.3.5-.2.3-.2.4-.2.4l.3.2s.1-.1.3-.4c.1-.1.2-.3.4-.5.1-.1.1-.2.2-.3.1-.1.2-.2.2-.4.2-.3.3-.6.5-.9.1-.2.2-.3.3-.5.1-.2.2-.4.2-.6.3-.8.6-1.7.8-2.8.5-1 .6-2.1.4-3.4z"/></svg>