<svg xmlns="http://www.w3.org/2000/svg" viewBox="435 -144.4 1829 849.4"><g opacity=".47" fill="#337C95"><circle cx="523.3" cy="614.2" r="2.8"/><circle cx="550.4" cy="636.9" r="1.3"/><circle cx="635.2" cy="514.4" r="2.7"/><circle cx="642.9" cy="-142.2" r=".7"/><circle cx="622.2" cy="677.6" r="2.4"/><circle cx="622.4" cy="169.5" r="2.2"/><circle cx="654.8" cy="221.4" r="2.2"/><circle cx="562.3" cy="208.6" r="3"/><circle cx="906.1" cy="128.5" r="1.1"/><circle cx="683" cy="265.4" r="1.1"/><circle cx="763.9" cy="221.9" r="1.1"/><circle cx="1043.8" cy="669.6" r="2.4"/><circle cx="977.2" cy="87.8" r="2.7"/><circle cx="1022.1" cy="-67.6" r="3.3"/><circle cx="684.1" cy="25.3" r="3.3"/><circle cx="700.4" cy="686.5" r="1.1"/><circle cx="586.8" cy="628.6" r="1.7"/><circle cx="460.6" cy="610.9" r="3.7"/><circle cx="750.6" cy="554.4" r="2.6"/><circle cx="977.3" cy="512.1" r="1.7"/><circle cx="607.6" cy="42.1" r="2.8"/><circle cx="592.8" cy="58.4" r="1.1"/><circle cx="509" cy="11.8" r="1.1"/><circle cx="548.5" cy="-83" r="4.8"/><circle cx="488" cy="-12.6" r="4.2"/><circle cx="482.7" cy="-51.5" r="2.8"/><circle cx="509.8" cy="-28.7" r="1.3"/><circle cx="962.2" cy="-31.6" r="2.7"/><circle cx="518.3" cy="219.3" r=".6"/><circle cx="526.5" cy="168.5" r="1.1"/><circle cx="459.4" cy="134.1" r="3.9"/><circle cx="581.6" cy="12" r="2.4"/><circle cx="894.9" cy="47.1" r="4.8"/><circle cx="991.9" cy="69.8" r="1.6"/><circle cx="940.8" cy="700.2" r="2.8"/><circle cx="882" cy="529.5" r="1.9"/><circle cx="884.4" cy="701.3" r="1.1"/><circle cx="675" cy="569.3" r="1.1"/><circle cx="930.7" cy="20.7" r="2.4"/><circle cx="774.9" cy="-130.1" r="3.8"/><circle cx="694.6" cy="374" r="1.1"/><circle cx="682.5" cy="-46.3" r="3.8"/><circle cx="481" cy="426.2" r="1.1"/><circle cx="727.8" cy="-20.2" r="3.9"/><circle cx="586.4" cy="433.2" r="1.6"/><circle cx="581" cy="316.1" r="1.7"/><circle cx="454.8" cy="298.4" r="3.7"/><circle cx="735.3" cy="241.9" r="2.6"/><circle cx="971.5" cy="199.6" r="1.7"/><circle cx="804.5" cy="87.8" r="2.7"/><circle cx="806.7" cy="672.4" r="2.7"/><circle cx="970.3" cy="600.3" r="2.9"/><circle cx="788.8" cy="-4.8" r="3.6"/><circle cx="866.6" cy="394.6" r="1.1"/><circle cx="833.3" cy="309.1" r="1.1"/><circle cx="789" cy="395.4" r="1.1"/><circle cx="883.3" cy="-130.3" r="1.1"/><circle cx="852.8" cy="239.5" r="1.1"/><circle cx="675.2" cy="119.8" r="1.1"/><circle cx="520" cy="509.9" r="1.1"/><circle cx="480.9" cy="248.9" r="1.1"/><circle cx="480.9" cy="248.9" r="1.1"/><g><circle cx="2067.8" cy="-35.1" r="4.1"/><circle cx="2173.3" cy="237.7" r="2.8"/><circle cx="2146.7" cy="215.4" r="1.2"/><circle cx="2063.5" cy="335.7" r="2.7"/><circle cx="2200" cy="-138.1" r="2.9"/><circle cx="2076.2" cy="175.5" r="2.3"/><circle cx="2076.1" cy="674.1" r="2.1"/><circle cx="2044.3" cy="623.2" r="2.1"/><circle cx="2135" cy="635.7" r="2.9"/><circle cx="2016.6" cy="579.9" r="1.1"/><circle cx="1937.2" cy="622.6" r="1"/><circle cx="1698.9" cy="-124.9" r="4.3"/><circle cx="1999.5" cy="166.8" r="1.1"/><circle cx="1714" cy="96.9" r="2.7"/><circle cx="2209.1" cy="115.6" r="1.1"/><circle cx="2105.7" cy="108.6" r="1.6"/><circle cx="2111" cy="223.6" r="1.7"/><circle cx="2234.8" cy="240.9" r="3.7"/><circle cx="1950.3" cy="296.4" r="2.6"/><circle cx="2137.5" cy="-72.7" r=".4"/><circle cx="2114.1" cy="-44.7" r=".8"/><circle cx="2178.2" cy="625.2" r=".5"/><circle cx="2170.2" cy="675.1" r="1.1"/><circle cx="2018.4" cy="-140.4" r="6.3"/><circle cx="2066.8" cy="143.8" r="1.5"/><circle cx="1632.6" cy="677.2" r="2.8"/><circle cx="2097.4" cy="112" r="2.1"/><circle cx="2065.6" cy="61.1" r="2.1"/><circle cx="2204.3" cy="8.8" r="3.4"/><circle cx="1763.6" cy="153.3" r="2.8"/><circle cx="1821.4" cy="320.8" r="1.8"/><circle cx="2020.2" cy="114.4" r="2.1"/><circle cx="2164.3" cy="93.7" r="2.1"/><circle cx="2036.1" cy="-81.2" r="2.1"/><circle cx="1998.4" cy="-96.4" r="2.9"/><circle cx="1819" cy="152.2" r="1.1"/><circle cx="1825.5" cy="-52.9" r="2.7"/><circle cx="1766.2" cy="-35.5" r="1.5"/><circle cx="1910.8" cy="99.8" r="3.5"/><circle cx="2024.5" cy="281.8" r="1.1"/><circle cx="1958.6" cy="60.6" r="1"/><circle cx="2054.9" cy="57.1" r="3.8"/><circle cx="1706" cy="-113.7" r="2.8"/><circle cx="2005.2" cy="473.4" r="1.1"/><circle cx="2214.8" cy="422.2" r="1.1"/><circle cx="2116.7" cy="530.2" r="1.7"/><circle cx="2240.5" cy="547.6" r="3.7"/><circle cx="1965.2" cy="603" r="2.6"/><circle cx="1733.5" cy="644.6" r="1.6"/><circle cx="1895.3" cy="180.6" r="2.7"/><circle cx="1943.5" cy="-125.4" r="2.6"/><circle cx="1734.7" cy="251.4" r="2.8"/><circle cx="1836.4" cy="453.2" r="1.1"/><circle cx="1869.2" cy="537.1" r="1.1"/><circle cx="1912.6" cy="452.4" r="1.1"/><circle cx="1850" cy="605.4" r="1.1"/><circle cx="2176.5" cy="340" r="1.1"/><circle cx="2214.9" cy="596.2" r="1.1"/><circle cx="2214.9" cy="596.2" r="1.1"/></g><g><circle cx="1639.5" cy="647.8" r="2.3"/><circle cx="1671.5" cy="567.8" r="1.5"/><circle cx="1081" cy="-69.9" r="2.8"/><circle cx="1229.4" cy="687.9" r="1.5"/><circle cx="1537" cy="678.3" r="2.8"/><circle cx="1480.8" cy="679.3" r="1.1"/><circle cx="1619" cy="698.5" r="1.1"/><circle cx="1279.9" cy="-64.8" r="3.8"/></g></g><g fill="#03709C"><path d="M689.7 591.3c9.8 0 17.8-4.9 17.8-12.2 0-1.7-2.4-3-6.1-3.8l-9.3-9.4v-4.7h-5v5l-9 9.1c-3.7.8-6.2 2.1-6.2 3.8 0 7.4 8 12.2 17.8 12.2zm-2.1-23h4.1l6.8 6.7c-5.4-.8-12.3-.7-17.7 0l6.8-6.7zM741.2 612.9l-27.9-.3c-3 0-5.5 2.4-5.6 5.5v2.2l-6.6-.1v-15.4c0-6.1-4.9-10.6-11-10.6h-.1c-6.1 0-10.9 4.5-10.9 10.6V620l-7-.1v-2c0-3-2.6-5.5-5.6-5.6l-28-.3c-3 0-5.6 2.4-5.6 5.5l-.1 6.8c0 3 2.4 5.5 5.5 5.6l27.9.3c3 0 5.5-2.4 5.6-5.5l.1-2.2 7.3.1v6.2c0 1.4.2 2.8.7 4-1.5.7-2.7 2.2-2.7 4v4c0 1.9 1 3.4 3 4.1v.5c0 2.4 1.8 4.7 4.3 4.7H695c2.4 0 4.2-2.2 4.2-4.7v-.5c2-.7 3-2.2 3-4.1v-4c0-1.5-.8-2.8-1.9-3.6.6-1.4.9-2.9.9-4.5v-6l6.6.1v2c0 3 2.4 5.5 5.5 5.6l27.9.3c3 0 5.5-2.4 5.6-5.5l.1-6.8c-.2-3-2.7-5.5-5.7-5.5zM689.9 672.2c.4 0 .7-.2.9-.4s.4-.6.4-.9v-5.8c0-.7-.6-1.3-1.3-1.3s-1.3.6-1.3 1.3v5.8c0 .7.6 1.3 1.3 1.3zM689.8 660.6c.4 0 .7-.2.9-.4s.4-.6.4-.9v-5.8c0-.7-.6-1.3-1.3-1.3s-1.3.6-1.3 1.3v5.8c0 .7.6 1.3 1.3 1.3zM690 683.8c.4 0 .7-.2.9-.4.2-.2.4-.6.4-.9v-5.8c0-.7-.6-1.3-1.3-1.3-.7 0-1.3.6-1.3 1.3v5.8c0 .8.5 1.4 1.3 1.3zM690.1 707.1c.4 0 .7-.2.9-.4s.4-.6.4-.9V700c0-.7-.6-1.3-1.3-1.3-.7 0-1.3.6-1.3 1.3v5.8c0 .7.6 1.3 1.3 1.3zM690 695.5c.4 0 .7-.2.9-.4.2-.2.4-.6.4-.9v-5.8c0-.7-.6-1.3-1.3-1.3-.7 0-1.3.6-1.3 1.3v5.8c0 .7.6 1.3 1.3 1.3z"/></g><path fill="#03709C" d="M827.2-37.5c-2-2.9-15.7 2.9-30.9 13.1l-15.2-19.4 12.6 21.1c-15.3 10.6-26 21.5-24 24.4 2 3 16.1-3.1 31.6-13.6l13.6 17.3-11.2-18.9c15-10.4 25.5-21.1 23.5-24zM1937 331.8l9.9-1.3-10-.3c-.3-1.2-1.3-2.1-2.5-2.3l-1.3-9.9-.3 10c-1.1.4-1.9 1.3-2.1 2.4l-10 1.3 10.2.3c.4 1 1.2 1.8 2.3 2.1l1.3 10.1.3-10.1c1.1-.2 1.9-1.1 2.2-2.3zM603.6-75.7l8.1-1.6-8.2.3c-.3-.9-1.1-1.5-2-1.7l-1.6-8 .3 8.1c-.9.3-1.6 1.2-1.7 2.2l-8 1.6 8.2-.3c.4.9 1.2 1.5 2.1 1.6l1.6 8.1-.3-8.3c.8-.3 1.4-1.1 1.5-2zM842.4 524.2c.8-.7 1.1-1.8.8-2.9l7.5-5.3-8.2 4.1c-.8-.8-1.9-1.1-3-.8l-5.3-7.4 4.1 8.2c-.7.8-1 1.9-.7 2.9l-7.6 5.4 8.3-4.1c.7.7 1.8 1 2.8.7l5.4 7.6-4.1-8.4zM1676.3-69.8l12.1 8.6-10.7-10.4c.7-1.5.5-3.2-.4-4.5l8.6-12.1-10.4 10.6c-1.5-.8-3.3-.6-4.7.3l-12-8.5 10.5 10.2c-.8 1.6-.6 3.5.4 4.9l-8.5 11.9 10.3-10.5c1.6.7 3.4.5 4.8-.5zM1982.9 152c.6-9.1-4-18-12.4-22.3s-18.3-2.7-25.3 3.2c-9.3-3.7-17.2-5.8-21.8-5.8-3 0-5 .9-5.9 2.7-1.7 3.4 1.3 7.8 9.9 14.3 2.6 2 5.7 4.1 9 6.2-.6 9.1 4 18.1 12.4 22.3 8.4 4.3 18.3 2.7 25.3-3.2 9.3 3.7 17.2 5.8 21.8 5.8 3 0 5-.9 5.9-2.7 2.6-5.3-8.1-13.7-18.9-20.5zm-60.2-19.5h.7c3.1 0 9.4 1.5 17.8 4.7-.8 1.1-1.6 2.3-2.2 3.6-.6 1.3-1.2 2.6-1.6 3.9-8.7-5.7-13.4-10.1-14.7-12.2zm73.2 37.4c-3.1 0-9.4-1.5-17.8-4.7.8-1.1 1.6-2.3 2.2-3.6.6-1.3 1.2-2.6 1.6-3.9 8.6 5.6 13.4 10 14.7 12.1-.3.1-.5.1-.7.1z"/><g fill="#006E91"><path d="M2178.9 556.7c-1.8-1.5-4.3-1.8-6.3-.6l-12.6 7.2-4.9-4.6 7.3-1c1.7-.2 3.2-1.2 4.1-2.8l3.9-7 2.6.7c2.9.7 5.9-1 6.7-4 .7-2.9-1-5.9-4-6.7l-6.7-1.7c-2.4-.6-4.9.5-6.1 2.6l-4.6 8.2-7.2 1c-.1-.1-.2-.2-.4-.3l2.5-3.6c.3-.5.4-1 .3-1.5.3-.5.4-1.2.1-1.8-.4-1-1.6-1.5-2.6-1-.1 0-.1 0-.2.1l-5.8-4.8c-.9-.8-2-1.2-3.2-1.4l-11.2-3.8c1.5-4.6.9-9.8-2-14-4.9-7.1-14.7-8.9-21.9-4-7.1 4.9-8.9 14.7-4 21.9.5.7 1 1.2 1.6 1.8h-.1c-.7 1.5-.2 2.8.9 3.9l-5.6 1.5-8.5-8.5c-2.1-2.1-5.4-2.1-7.5 0s-2.1 5.4 0 7.5l10.6 10.7c.2.2.5.5.8.7 1.3.8 2.8 1.1 4.3.7l12.9-3.4c.4.4.9.9 1.4 1.2.6.4 1.2.7 1.9 1l.7.3-2.5 6.8-12.4 6.3c-2.6 1.3-3.7 4.5-2.3 7.1.4.8 1 1.5 1.8 2 1.5 1 3.6 1.2 5.3.3l14.3-7.2c1.2-.6 2.1-1.6 2.6-2.9l3.2-8.8 14.1 5.1 15.2 14.3c.2.2.4.4.7.5 1.7 1.2 3.9 1.3 5.8.2l12.8-7.3 1.6 1.4c2.3 2 5.7 1.8 7.7-.5s1.8-5.7-.5-7.7l-4.6-4.1zm-76.8-33.3c.6-4.1 4.5-7 8.7-6.4l5.2.8c2.6.4 4.7 2.1 5.7 4.3l-.8-.1c-.3-.1-.6.1-.7.5 0 .2.1.4.2.6.1 0 .1.1.2.1l1.5.3c.1.2.1.5.2.7l-1.1-.2c-.3-.1-.6.1-.7.5 0 .2.1.4.2.6.1 0 .1.1.2.1l1.5.3c0 .4 0 .9-.1 1.3-.6 4.1-4.5 7-8.7 6.4l-5.2-.8c-4.1-.9-6.9-4.8-6.3-9zM2185.5 479.1c-1.1.8-2.2 1.7-3.3 2.6-.8.7-.9 2-.2 2.8.4.5 1 .7 1.5.7s.9-.2 1.3-.5c1-.9 2-1.7 3-2.4.9-.6 1.1-1.9.4-2.8-.6-.8-1.8-1-2.7-.4zM2164.4 515.6c.2 0 .3.1.4.1.9 0 1.7-.6 1.9-1.6.3-1.5.7-2.7 1-3.8.3-1.1-.3-2.2-1.4-2.5s-2.2.3-2.5 1.4c-.3 1.1-.7 2.5-1 4-.2 1.1.5 2.1 1.6 2.4zM2208.9 470.8c-1.4.2-2.7.3-4 .6-1.1.2-1.8 1.2-1.7 2.3.2 1 1 1.7 2 1.7h.3c1.3-.2 2.6-.4 3.9-.5 1.1-.1 1.9-1.1 1.7-2.2-.1-1.2-1.1-2-2.2-1.9zM2196.7 473.3c-1.3.4-2.6 1-3.9 1.6-1 .5-1.4 1.7-1 2.7.3.7 1.1 1.2 1.8 1.2.3 0 .6-.1.8-.2 1.2-.5 2.3-1 3.5-1.4 1-.4 1.6-1.5 1.3-2.5-.4-1.2-1.5-1.8-2.5-1.4zM2161.7 527.4c.2 0 .3.1.5.1.9 0 1.7-.6 1.9-1.5.3-1.2.6-2.5.9-4 .2-1.1-.4-2.1-1.5-2.4-1.1-.2-2.1.4-2.4 1.5-.3 1.5-.6 2.7-.9 3.9-.2 1 .4 2.1 1.5 2.4zM2168 504.1c.3.1.6.2.9.2.7 0 1.4-.4 1.8-1.1.6-1.2 1.2-2.3 1.9-3.4.6-1 .2-2.2-.7-2.7-1-.6-2.2-.2-2.7.7-.7 1.2-1.4 2.4-2 3.6-.5 1-.2 2.2.8 2.7z"/><path d="M2156.7 538.3c.3.2.7.3 1.1.3.6 0 1.3-.3 1.7-.9.7-1.1 1.4-2.4 2.1-3.8.4-1 0-2.2-1-2.6-1-.4-2.2 0-2.6 1-.5 1.2-1.1 2.3-1.7 3.2-.8.9-.5 2.2.4 2.8zM2174.1 493.7c.4.3.8.4 1.2.4.6 0 1.2-.3 1.6-.8.8-1 1.6-2.1 2.4-3 .7-.8.6-2.1-.2-2.8-.8-.7-2.1-.6-2.8.2-.9 1-1.8 2.1-2.6 3.2-.7.9-.5 2.1.4 2.8zM2220.5 468.9c-1.2.3-2.4.6-3.8.8-1.1.2-1.8 1.2-1.6 2.3.2 1 1 1.7 2 1.7h.4c1.5-.3 2.8-.6 4.1-.9 1.1-.3 1.7-1.4 1.4-2.4-.3-1.1-1.4-1.8-2.5-1.5zM2264.3 427.8c-.9-.6-2.2-.4-2.8.5-.8 1.1-1.5 2.2-2.3 3.3-.6.9-.4 2.2.5 2.8.3.2.7.4 1.1.4.6 0 1.3-.3 1.6-.9.8-1.1 1.5-2.2 2.3-3.3.7-.9.5-2.1-.4-2.8zM2257.4 437.8c-.9-.6-2.2-.4-2.8.5-.8 1.1-1.5 2.2-2.3 3.3-.6.9-.4 2.1.5 2.8.4.3.8.4 1.2.4.6 0 1.2-.3 1.6-.8.8-1.1 1.6-2.2 2.3-3.3.6-1.1.4-2.3-.5-2.9zM2230.9 464.3c-1.1.7-2.2 1.3-3.3 1.9-1 .5-1.4 1.7-.9 2.7.4.7 1.1 1.1 1.8 1.1.3 0 .6-.1.9-.2 1.2-.6 2.4-1.3 3.6-2.1.9-.6 1.2-1.8.6-2.8-.5-.9-1.8-1.2-2.7-.6zM2250.4 447.6c-.9-.7-2.1-.5-2.8.4-.8 1.1-1.6 2.1-2.5 3.1-.7.9-.6 2.1.3 2.8.4.3.8.5 1.3.5.6 0 1.1-.2 1.5-.7.9-1 1.7-2.1 2.6-3.2.6-1 .4-2.2-.4-2.9zM2239.8 456.9c-.9 1-1.9 1.9-2.8 2.7-.8.7-.9 2-.2 2.8.4.4.9.7 1.5.7.5 0 1-.2 1.3-.5 1-.9 2-1.8 3-2.9.8-.8.8-2.1 0-2.8-.7-.8-2-.8-2.8 0z"/></g><path fill="#03709C" d="M1808.3 456c-.9-2.2-1.8-4.5-3.7-6-2.6-2-6.5-1.7-9.4-.2-2.5 1.3-3.9 3.5-6.2 5.2-1.4 1.1-2.9 2.1-4.1 3.4-3.2 3.7-1.9 8.7.7 12.3 1.7 2.4 4 4.6 6.9 5.1 3.3.7 6.6-.8 9.5-2.3 3.1-1.6 6.4-3.5 7.7-6.8 1.3-3.3-.1-7.2-1.4-10.7zm-13.9 15.2c-.1.3-.2.7-.3 1.1-.4.9-1.4 1.7-2.3 1.6-.2 0-.4-.1-.6-.2.2.1.4.2.6.2 1.4.1 1.6-3.1 1.4-3.9-.3-1.7-1.4-3.7-3.1-4.3-1.3-.5-1 .8-2.3 1.3-1.1.4-1.9.2-2.4-.9-1.8-4.6 2.3-5.5 5.4-2.9 2.3 1.8 4.3 4.9 3.6 8zm.9-9.3c-.6-.4-.7-1.5-.8-2.2-.1-.4 0-.9.3-1.1.3-.2.6-.1.9-.1.6.1 1.3.2 1.9.3.3 0 .5.1.7.2.3.3.3.8.2 1.2-.4 1-2.2 2.4-3.2 1.7zm4.7 11l-1.5.6c.1 0 .3-.1.4-.1l-1 .5v-.2c-.1-.1 0-.2 0-.2.2-.8.9-1.5 1.8-1.6.4 0 .8.2.8.5s-.2.4-.5.5zm-.7-18.3c-1.3.2-5.3-.4-3.7-2.8.5-.7 1.4-1 2.2-1.2 1.5-.3 2.7.8 1.3 2 .7.2 1.7.3 2.4-.1.8-.4 1.3-1.4.8-2.1.8-.2 1.5.7 1.5 1.4 0 .8-.6 1.5-1.3 1.9-1 .6-2.1.8-3.2.9zm5 11.2c.2.5.5.9.6 1.3s.1 1.1-.3 1.4c-.4.2-.9.2-1.2-.1-.3-.3-.5-.7-.7-1.1-.7-2.2.7-5.8 3.3-5.9-1.6.6-2.3 2.8-1.7 4.4z"/><g fill="#03709C"><path d="M2067.9-68.7c-9.4 0-17.1 7.7-17.1 17.1s7.7 17.1 17.1 17.1c9.4 0 17.1-7.7 17.1-17.1s-7.7-17.1-17.1-17.1zm0 30.9c-7.6 0-13.8-6.2-13.8-13.8s6.2-13.8 13.8-13.8 13.8 6.2 13.8 13.8-6.2 13.8-13.8 13.8z"/><path d="M2067.9-54.8c-1.8 0-3.2 1.4-3.2 3.2s1.4 3.2 3.2 3.2c1.8 0 3.2-1.4 3.2-3.2s-1.5-3.2-3.2-3.2zm0 3.3c-.1 0-.1 0 0 0-.1-.2-.1-.2 0-.2s.1 0 .1.1-.1.1-.1.1z"/></g><path fill="#03709C" d="M722.9 376.1c-.1-.6-.2-1.2-.3-1.9-.2-.6-.4-1.3-.6-1.9-.5-1.3-1.3-2.5-2.2-3.7-.5-.6-1-1.1-1.6-1.6-.6-.5-1.2-1-1.9-1.4l-.5-.3c-.1 0-.1-.1-.2-.1l-.3-.2c-.4-.2-.7-.4-1.1-.6-.7-.3-1.5-.7-2.2-.9-1.5-.5-3.1-.8-4.7-.8h-.1c-.5-.1-1-.1-1.5-.1h-2.2c-.7.1-1.5.2-2.2.3-1.5.3-3 .9-4.5 1.7-.7.4-1.4.8-2.1 1.3l-.5.4c-.2.1-.3.3-.5.4l-.2.2-.2.2-.4.4-.5.5c-.1.1-.3.3-.4.5-.3.3-.5.6-.8.9-.5.7-1 1.3-1.4 2s-.8 1.5-1 2.2c-.3.8-.5 1.5-.6 2.3-.2 1.5 0 3.1.3 4.4.4 1.4 1 2.6 1.7 3.6s1.5 1.9 2.3 2.5c.8.6 1.5 1.1 2.2 1.4.2.1.3.2.5.2.1.1.3.1.4.2.1.1.3.1.4.1.1 0 .2.1.3.1s.2.1.3.1c2 .7 4.2.8 6.2.4l-.1.1-.3.3-.3.3c-.4.4-.9.8-1.3 1.2-.1.1-.2.2-.4.3-.4.2-.7.3-1.1.4-.2.1-.5.2-.7.2-.2.1-.5.2-.8.2-.5.1-1 .3-1.6.4-.5.1-1.1.2-1.7.2-.3 0-.6 0-.9.1h-.8c-1.2 0-2.4-.1-3.7-.3-.6-.1-1.2-.3-1.9-.5l-.5-.2c-.2-.1-.3-.1-.4-.2l-.2-.1c-.1 0-.2-.1-.2-.1l-.5-.2-.4-.2c-.1-.1-.3-.2-.4-.3-.3-.2-.5-.4-.8-.6-.5-.4-1-.8-1.5-1.3-.9-.9-1.7-1.9-2.2-3-.6-1.1-1-2.2-1.2-3.2-.2-1.1-.3-2.1-.3-3.1s.2-1.9.4-2.7.4-1.4.7-2c.1-.1.1-.3.2-.4.1-.1.1-.2.2-.3.1-.2.2-.4.3-.5.2-.3.2-.4.2-.4l-.3-.2s-.1.1-.3.4c-.1.1-.2.3-.4.5-.1.1-.1.2-.2.3-.1.1-.2.2-.2.4-.2.3-.3.6-.5.9-.1.2-.2.3-.3.5-.1.2-.2.4-.2.6-.3.8-.6 1.7-.8 2.8s-.2 2.2-.1 3.5c.1.6.2 1.2.3 1.9.2.6.4 1.3.6 1.9.5 1.3 1.3 2.5 2.2 3.7.5.6 1 1.1 1.6 1.6.3.3.6.5.9.7.2.1.3.2.5.3l.2.2.1.1h.1l.5.3c.1 0 .1.1.2.1l.3.2c.4.2.7.4 1.1.6.7.3 1.5.7 2.2.9 1.5.5 3.1.8 4.7.8h.1c.5 0 1 .1 1.5.1h2.2c.7-.1 1.5-.2 2.2-.3 1.5-.3 3-.9 4.5-1.7.7-.4 1.4-.8 2.1-1.3l.5-.4c.2-.1.3-.3.5-.4l.2-.2.2-.2.2-.2.1-.1.1-.1c.6-.6 1.1-1.2 1.6-1.9s1-1.3 1.4-2c.4-.7.8-1.5 1-2.2.3-.8.5-1.5.6-2.3.2-1.5 0-3.1-.3-4.4-.4-1.4-1-2.6-1.7-3.6-.5-.7-1-1.4-1.6-1.9-.4-.4-.8-.8-1.2-1.1-2.9-2.2-6.6-2.7-9.9-1.7v-.1l.1-.1.1-.1.1-.1.3-.3.3-.3c.4-.4.9-.8 1.3-1.2.1-.1.2-.2.4-.3.4-.2.7-.3 1.1-.4.2-.1.5-.2.7-.2.2-.1.5-.2.8-.2.5-.1 1-.3 1.6-.4.5-.1 1.1-.2 1.7-.2.3 0 .6 0 .9-.1h.8c1.2 0 2.4.1 3.7.3.6.1 1.2.3 1.9.5l.5.2c.2.1.3.1.4.2l.2.1c.1 0 .2.1.2.1l.2.1.1.1h.1c.6.3 1.1.7 1.6 1.1.5.4 1 .8 1.4 1.3.9.9 1.7 1.9 2.2 3 .6 1.1 1 2.2 1.2 3.2.2 1.1.3 2.1.3 3.1s-.2 1.9-.4 2.7-.4 1.4-.7 2c-.1.1-.1.3-.2.4-.1.1-.1.2-.2.3-.1.2-.2.4-.3.5-.2.3-.2.4-.2.4l.3.2s.1-.1.3-.4c.1-.1.2-.3.4-.5.1-.1.1-.2.2-.3.1-.1.2-.2.2-.4.2-.3.3-.6.5-.9.1-.2.2-.3.3-.5.1-.2.2-.4.2-.6.3-.8.6-1.7.8-2.8.5-1 .6-2.2.4-3.4z"/></svg>