<?xml version="1.0" encoding="utf-8"?>
<!-- Generator: Adobe Illustrator 16.0.0, SVG Export Plug-In . SVG Version: 6.00 Build 0)  -->
<!DOCTYPE svg PUBLIC "-//W3C//DTD SVG 1.1//EN" "http://www.w3.org/Graphics/SVG/1.1/DTD/svg11.dtd">
<svg version="1.1" id="Layer_1" xmlns="http://www.w3.org/2000/svg" xmlns:xlink="http://www.w3.org/1999/xlink" x="0px" y="0px"
	 width="880px" height="407px" viewBox="0 0 880 407" enable-background="new 0 0 880 407" xml:space="preserve">
<g>
	<g opacity="0.47">
		<ellipse fill="#337C95" cx="34.936" cy="362.462" rx="1.358" ry="1.334"/>
		<ellipse fill="#337C95" cx="48.075" cy="373.273" rx="0.63" ry="0.62"/>
		<ellipse fill="#337C95" cx="89.189" cy="314.931" rx="1.309" ry="1.285"/>
		<ellipse fill="#337C95" cx="92.922" cy="2.222" rx="0.339" ry="0.333"/>
		<ellipse fill="#337C95" cx="82.886" cy="392.655" rx="1.164" ry="1.144"/>
		<ellipse fill="#337C95" cx="82.983" cy="150.671" rx="1.067" ry="1.048"/>
		<ellipse fill="#337C95" cx="98.691" cy="175.388" rx="1.067" ry="1.048"/>
		<ellipse fill="#337C95" cx="53.844" cy="169.292" rx="1.455" ry="1.429"/>
		<ellipse fill="#337C95" cx="220.53" cy="131.145" rx="0.533" ry="0.524"/>
		<ellipse fill="#337C95" cx="112.364" cy="196.344" rx="0.534" ry="0.524"/>
		<ellipse fill="#337C95" cx="151.587" cy="175.627" rx="0.533" ry="0.523"/>
		<ellipse fill="#337C95" cx="287.291" cy="388.846" rx="1.164" ry="1.143"/>
		<ellipse fill="#337C95" cx="255" cy="111.761" rx="1.31" ry="1.286"/>
		<ellipse fill="#337C95" cx="276.77" cy="37.751" rx="1.6" ry="1.572"/>
		<ellipse fill="#337C95" cx="112.897" cy="81.995" rx="1.6" ry="1.572"/>
		<ellipse fill="#337C95" cx="120.8" cy="396.895" rx="0.534" ry="0.524"/>
		<ellipse fill="#337C95" cx="65.724" cy="369.321" rx="0.823" ry="0.81"/>
		<ellipse fill="#337C95" cx="4.537" cy="360.891" rx="1.793" ry="1.762"/>
		<ellipse fill="#337C95" cx="145.138" cy="333.98" rx="1.261" ry="1.238"/>
		<ellipse fill="#337C95" cx="255.049" cy="313.836" rx="0.825" ry="0.81"/>
		<ellipse fill="#337C95" cx="75.808" cy="89.996" rx="1.357" ry="1.333"/>
		<ellipse fill="#337C95" cx="68.632" cy="97.759" rx="0.533" ry="0.525"/>
		<ellipse fill="#337C95" cx="28.003" cy="75.566" rx="0.534" ry="0.524"/>
		<ellipse fill="#337C95" cx="47.154" cy="30.417" rx="2.327" ry="2.286"/>
		<ellipse fill="#337C95" cx="17.822" cy="63.945" rx="2.036" ry="2"/>
		<ellipse fill="#337C95" cx="15.252" cy="45.419" rx="1.357" ry="1.333"/>
		<ellipse fill="#337C95" cx="28.391" cy="56.277" rx="0.63" ry="0.619"/>
		<ellipse fill="#337C95" cx="247.728" cy="54.896" rx="1.31" ry="1.286"/>
		<circle fill="#337C95" cx="32.512" cy="174.388" r="0.286"/>
		<ellipse fill="#337C95" cx="36.487" cy="150.195" rx="0.534" ry="0.524"/>
		<ellipse fill="#337C95" cx="3.956" cy="133.811" rx="1.891" ry="1.858"/>
		<ellipse fill="#337C95" cx="63.202" cy="75.661" rx="1.164" ry="1.143"/>
		<ellipse fill="#337C95" cx="215.1" cy="92.377" rx="2.327" ry="2.286"/>
		<ellipse fill="#337C95" cx="262.128" cy="103.188" rx="0.775" ry="0.762"/>
		<ellipse fill="#337C95" cx="237.353" cy="403.419" rx="1.358" ry="1.333"/>
		<ellipse fill="#337C95" cx="208.845" cy="322.124" rx="0.921" ry="0.905"/>
		<ellipse fill="#337C95" cx="210.008" cy="403.944" rx="0.534" ry="0.524"/>
		<ellipse fill="#337C95" cx="108.485" cy="341.077" rx="0.533" ry="0.523"/>
		<ellipse fill="#337C95" cx="232.457" cy="79.804" rx="1.163" ry="1.143"/>
		<ellipse fill="#337C95" cx="156.919" cy="7.985" rx="1.843" ry="1.81"/>
		<ellipse fill="#337C95" cx="117.988" cy="248.065" rx="0.533" ry="0.523"/>
		<ellipse fill="#337C95" cx="112.121" cy="47.895" rx="1.842" ry="1.81"/>
		<ellipse fill="#337C95" cx="14.427" cy="272.925" rx="0.534" ry="0.524"/>
		<ellipse fill="#337C95" cx="134.084" cy="60.326" rx="1.891" ry="1.857"/>
		<ellipse fill="#337C95" cx="65.529" cy="276.26" rx="0.776" ry="0.762"/>
		<ellipse fill="#337C95" cx="62.911" cy="220.49" rx="0.824" ry="0.809"/>
		<ellipse fill="#337C95" cx="1.725" cy="212.061" rx="1.794" ry="1.762"/>
		<ellipse fill="#337C95" cx="137.721" cy="185.152" rx="1.26" ry="1.238"/>
		<ellipse fill="#337C95" cx="252.238" cy="165.006" rx="0.824" ry="0.809"/>
		<ellipse fill="#337C95" cx="171.271" cy="111.761" rx="1.309" ry="1.286"/>
		<ellipse fill="#337C95" cx="172.337" cy="390.18" rx="1.309" ry="1.285"/>
		<ellipse fill="#337C95" cx="251.655" cy="355.842" rx="1.406" ry="1.381"/>
		<ellipse fill="#337C95" cx="163.659" cy="67.66" rx="1.746" ry="1.715"/>
		<ellipse fill="#337C95" cx="201.379" cy="257.876" rx="0.533" ry="0.525"/>
		<ellipse fill="#337C95" cx="185.234" cy="217.156" rx="0.533" ry="0.524"/>
		<ellipse fill="#337C95" cx="163.756" cy="258.257" rx="0.533" ry="0.524"/>
		<ellipse fill="#337C95" cx="209.475" cy="7.89" rx="0.533" ry="0.524"/>
		<ellipse fill="#337C95" cx="194.688" cy="184.009" rx="0.533" ry="0.524"/>
		<ellipse fill="#337C95" cx="108.582" cy="127.001" rx="0.534" ry="0.523"/>
		<ellipse fill="#337C95" cx="33.336" cy="312.788" rx="0.534" ry="0.523"/>
		<ellipse fill="#337C95" cx="14.379" cy="188.486" rx="0.534" ry="0.525"/>
		<ellipse fill="#337C95" cx="14.379" cy="188.486" rx="0.534" ry="0.525"/>
		<g>
			<ellipse fill="#337C95" cx="783.758" cy="53.229" rx="1.988" ry="1.953"/>
			<ellipse fill="#337C95" cx="834.908" cy="183.152" rx="1.357" ry="1.333"/>
			<ellipse fill="#337C95" cx="822.011" cy="172.531" rx="0.582" ry="0.572"/>
			<ellipse fill="#337C95" cx="781.673" cy="229.823" rx="1.309" ry="1.286"/>
			<ellipse fill="#337C95" cx="847.853" cy="4.175" rx="1.406" ry="1.381"/>
			<ellipse fill="#337C95" cx="787.83" cy="153.529" rx="1.116" ry="1.095"/>
			<ellipse fill="#337C95" cx="787.783" cy="390.989" rx="1.018" ry="1"/>
			<ellipse fill="#337C95" cx="772.364" cy="366.749" rx="1.018" ry="1"/>
			<ellipse fill="#337C95" cx="816.339" cy="372.701" rx="1.406" ry="1.382"/>
			<ellipse fill="#337C95" cx="758.934" cy="346.125" rx="0.533" ry="0.523"/>
			<ellipse fill="#337C95" cx="720.439" cy="366.462" rx="0.485" ry="0.477"/>
			<ellipse fill="#337C95" cx="604.904" cy="10.461" rx="2.085" ry="2.048"/>
			<ellipse fill="#337C95" cx="750.645" cy="149.385" rx="0.533" ry="0.524"/>
			<ellipse fill="#337C95" cx="612.225" cy="116.095" rx="1.31" ry="1.286"/>
			<ellipse fill="#337C95" cx="852.265" cy="125.001" rx="0.533" ry="0.523"/>
			<ellipse fill="#337C95" cx="802.134" cy="121.667" rx="0.774" ry="0.762"/>
			<ellipse fill="#337C95" cx="804.703" cy="176.436" rx="0.823" ry="0.81"/>
			<ellipse fill="#337C95" cx="864.725" cy="184.675" rx="1.795" ry="1.762"/>
			<ellipse fill="#337C95" cx="726.791" cy="211.107" rx="1.26" ry="1.24"/>
			<circle fill="#337C95" cx="817.551" cy="35.322" r="0.19"/>
			<ellipse fill="#337C95" cx="806.205" cy="48.657" rx="0.389" ry="0.381"/>
			<circle fill="#337C95" cx="837.283" cy="367.7" r="0.239"/>
			<ellipse fill="#337C95" cx="833.404" cy="391.465" rx="0.534" ry="0.524"/>
			<ellipse fill="#337C95" cx="759.808" cy="3.08" rx="3.055" ry="3"/>
			<ellipse fill="#337C95" cx="783.273" cy="138.431" rx="0.727" ry="0.714"/>
			<ellipse fill="#337C95" cx="572.759" cy="392.465" rx="1.358" ry="1.333"/>
			<ellipse fill="#337C95" cx="798.108" cy="123.286" rx="1.019" ry="1"/>
			<ellipse fill="#337C95" cx="782.691" cy="99.045" rx="1.018" ry="1"/>
			<ellipse fill="#337C95" cx="849.938" cy="74.136" rx="1.648" ry="1.619"/>
			<ellipse fill="#337C95" cx="636.271" cy="142.956" rx="1.358" ry="1.333"/>
			<ellipse fill="#337C95" cx="664.296" cy="222.728" rx="0.872" ry="0.857"/>
			<ellipse fill="#337C95" cx="760.68" cy="124.43" rx="1.019" ry="1"/>
			<ellipse fill="#337C95" cx="830.545" cy="114.571" rx="1.018" ry="1"/>
			<ellipse fill="#337C95" cx="768.389" cy="31.274" rx="1.019" ry="1"/>
			<ellipse fill="#337C95" cx="750.11" cy="24.035" rx="1.407" ry="1.381"/>
			<ellipse fill="#337C95" cx="663.133" cy="142.431" rx="0.533" ry="0.524"/>
			<ellipse fill="#337C95" cx="666.283" cy="44.752" rx="1.309" ry="1.286"/>
			<ellipse fill="#337C95" cx="637.533" cy="53.039" rx="0.728" ry="0.714"/>
			<ellipse fill="#337C95" cx="707.64" cy="117.476" rx="1.696" ry="1.667"/>
			<ellipse fill="#337C95" cx="762.765" cy="204.154" rx="0.533" ry="0.524"/>
			<ellipse fill="#337C95" cx="730.814" cy="98.807" rx="0.484" ry="0.476"/>
			<ellipse fill="#337C95" cx="777.503" cy="97.14" rx="1.844" ry="1.81"/>
			<ellipse fill="#337C95" cx="608.346" cy="15.796" rx="1.357" ry="1.333"/>
			<path fill="#337C95" d="M753.408,294.879c0.294,0,0.532,0.237,0.532,0.527c0,0.287-0.238,0.523-0.532,0.523
				c-0.295,0-0.534-0.236-0.534-0.523C752.874,295.116,753.113,294.879,753.408,294.879z"/>
			<ellipse fill="#337C95" cx="855.028" cy="271.021" rx="0.533" ry="0.524"/>
			<ellipse fill="#337C95" cx="807.466" cy="322.456" rx="0.825" ry="0.81"/>
			<ellipse fill="#337C95" cx="867.489" cy="330.742" rx="1.793" ry="1.762"/>
			<ellipse fill="#337C95" cx="734.015" cy="357.127" rx="1.26" ry="1.238"/>
			<path fill="#337C95" d="M621.679,376.177c0.43,0,0.775,0.341,0.775,0.765c0,0.419-0.346,0.76-0.775,0.76
				c-0.429,0-0.774-0.341-0.774-0.76C620.904,376.518,621.25,376.177,621.679,376.177z"/>
			<ellipse fill="#337C95" cx="700.125" cy="155.958" rx="1.309" ry="1.286"/>
			<ellipse fill="#337C95" cx="723.494" cy="10.223" rx="1.26" ry="1.239"/>
			<ellipse fill="#337C95" cx="622.261" cy="189.677" rx="1.357" ry="1.333"/>
			<ellipse fill="#337C95" cx="671.567" cy="285.783" rx="0.534" ry="0.523"/>
			<ellipse fill="#337C95" cx="687.47" cy="325.742" rx="0.533" ry="0.523"/>
			<ellipse fill="#337C95" cx="708.512" cy="285.403" rx="0.534" ry="0.524"/>
			<ellipse fill="#337C95" cx="678.162" cy="358.271" rx="0.533" ry="0.523"/>
			<ellipse fill="#337C95" cx="836.459" cy="231.873" rx="0.533" ry="0.524"/>
			<ellipse fill="#337C95" cx="855.077" cy="353.888" rx="0.533" ry="0.523"/>
			<ellipse fill="#337C95" cx="855.077" cy="353.888" rx="0.533" ry="0.523"/>
		</g>
		<g>
			<ellipse fill="#337C95" cx="576.105" cy="378.464" rx="1.114" ry="1.095"/>
			<ellipse fill="#337C95" cx="591.619" cy="340.364" rx="0.728" ry="0.714"/>
			<ellipse fill="#337C95" cx="305.326" cy="36.656" rx="1.357" ry="1.334"/>
			<ellipse fill="#337C95" cx="377.276" cy="397.562" rx="0.727" ry="0.715"/>
			<ellipse fill="#337C95" cx="526.41" cy="392.989" rx="1.356" ry="1.333"/>
			<ellipse fill="#337C95" cx="499.162" cy="393.466" rx="0.534" ry="0.525"/>
			<ellipse fill="#337C95" cx="566.166" cy="402.61" rx="0.534" ry="0.524"/>
			<ellipse fill="#337C95" cx="401.759" cy="39.084" rx="1.842" ry="1.81"/>
		</g>
	</g>
	<g>
		<path fill="#03709C" d="M115.612,351.556c4.751,0,8.63-2.334,8.63-5.811c0-0.809-1.164-1.43-2.958-1.811l-4.509-4.477v-2.238
			h-2.424v2.382l-4.363,4.333c-1.794,0.381-3.006,1.002-3.006,1.811C106.982,349.27,110.861,351.556,115.612,351.556
			L115.612,351.556z M114.594,340.601h1.988l3.297,3.191c-2.618-0.38-5.964-0.334-8.582,0L114.594,340.601z M140.581,361.842
			l-13.527-0.144c-1.455,0-2.667,1.145-2.715,2.621v1.047l-3.2-0.047v-7.336c0-2.905-2.376-5.046-5.333-5.046h-0.049
			c-2.957,0-5.285,2.141-5.285,5.046v7.24l-3.394-0.048v-0.952c0-1.429-1.26-2.619-2.714-2.668l-13.576-0.144
			c-1.454,0-2.714,1.145-2.714,2.621l-0.049,3.239c0,1.428,1.164,2.618,2.667,2.665l13.526,0.144c1.455,0,2.667-1.142,2.715-2.62
			l0.048-1.047l3.539,0.049v2.95c0,0.668,0.098,1.335,0.34,1.906c-0.727,0.334-1.309,1.05-1.309,1.906v1.906
			c0,0.902,0.485,1.617,1.455,1.95v0.238c0,1.143,0.873,2.239,2.084,2.239h5.091c1.164,0,2.036-1.048,2.036-2.239v-0.238
			c0.97-0.333,1.456-1.048,1.456-1.95v-1.906c0-0.716-0.388-1.335-0.921-1.716c0.291-0.666,0.436-1.379,0.436-2.143v-2.857
			l3.2,0.047v0.951c0,1.432,1.164,2.623,2.667,2.669l13.527,0.144c1.454,0,2.666-1.143,2.715-2.621l0.048-3.238
			C143.247,363.033,142.035,361.842,140.581,361.842L140.581,361.842z M115.709,390.084c0.194,0,0.339-0.095,0.437-0.191
			c0.097-0.095,0.194-0.284,0.194-0.427v-2.763c0-0.333-0.291-0.62-0.63-0.62c-0.339,0-0.63,0.287-0.63,0.62v2.763
			C115.079,389.798,115.37,390.084,115.709,390.084L115.709,390.084z M115.661,384.56c0.193,0,0.339-0.095,0.436-0.189
			c0.096-0.098,0.193-0.287,0.193-0.43v-2.762c0-0.335-0.29-0.619-0.629-0.619c-0.34,0-0.631,0.284-0.631,0.619v2.762
			C115.03,384.272,115.321,384.56,115.661,384.56L115.661,384.56z M115.757,395.608c0.194,0,0.34-0.095,0.436-0.188
			c0.097-0.098,0.195-0.288,0.195-0.431v-2.762c0-0.333-0.291-0.619-0.631-0.619c-0.339,0-0.63,0.286-0.63,0.619v2.762
			C115.127,395.371,115.37,395.655,115.757,395.608L115.757,395.608z M115.806,406.705c0.194,0,0.339-0.096,0.437-0.19
			c0.097-0.095,0.194-0.285,0.194-0.429v-2.763c0-0.334-0.291-0.618-0.63-0.618s-0.631,0.284-0.631,0.618v2.763
			C115.175,406.42,115.467,406.705,115.806,406.705L115.806,406.705z M115.757,401.182c0.194,0,0.34-0.097,0.436-0.189
			c0.097-0.097,0.195-0.289,0.195-0.431V397.8c0-0.333-0.291-0.619-0.631-0.619c-0.339,0-0.63,0.286-0.63,0.619v2.762
			C115.127,400.896,115.418,401.181,115.757,401.182L115.757,401.182z"/>
	</g>
	<path fill="#03709C" d="M182.276,52.086c-0.97-1.381-7.611,1.381-14.981,6.239l-7.37-9.24l6.109,10.048
		c-7.418,5.049-12.605,10.24-11.636,11.622c0.97,1.428,7.806-1.478,15.32-6.478l6.593,8.239l-5.43-9
		C178.155,58.563,183.246,53.468,182.276,52.086z M720.343,227.968l4.799-0.62l-4.848-0.143c-0.146-0.571-0.63-0.999-1.213-1.095
		l-0.63-4.715l-0.146,4.764c-0.533,0.188-0.922,0.618-1.017,1.142l-4.851,0.619l4.945,0.142c0.194,0.476,0.582,0.859,1.116,1.002
		l0.63,4.81l0.145-4.81C719.809,228.967,720.197,228.537,720.343,227.968L720.343,227.968z M73.868,33.894l3.927-0.762l-3.975,0.143
		c-0.146-0.428-0.534-0.714-0.97-0.81l-0.776-3.81l0.146,3.857c-0.437,0.143-0.776,0.572-0.824,1.048l-3.878,0.762l3.976-0.143
		c0.194,0.428,0.582,0.714,1.018,0.762l0.775,3.857l-0.145-3.952C73.529,34.703,73.82,34.322,73.868,33.894L73.868,33.894z
		 M189.646,319.599c0.388-0.334,0.533-0.857,0.388-1.381l3.636-2.525l-3.975,1.954c-0.388-0.38-0.922-0.524-1.455-0.38l-2.57-3.526
		l1.988,3.906c-0.339,0.38-0.484,0.903-0.339,1.381l-3.685,2.571l4.024-1.951c0.339,0.331,0.873,0.476,1.358,0.331l2.619,3.621
		L189.646,319.599z M593.946,36.703l5.867,4.095l-5.188-4.953c0.34-0.714,0.243-1.523-0.193-2.143l4.17-5.762l-5.043,5.047
		c-0.728-0.381-1.6-0.286-2.278,0.143l-5.818-4.048l5.092,4.858c-0.39,0.762-0.292,1.667,0.193,2.333l-4.121,5.668l4.993-5.001
		C592.396,37.274,593.268,37.18,593.946,36.703L593.946,36.703z M742.596,142.336c0.291-4.334-1.939-8.572-6.011-10.62
		c-4.074-2.048-8.874-1.287-12.268,1.524c-4.509-1.762-8.339-2.762-10.568-2.762c-1.455,0-2.424,0.428-2.861,1.285
		c-0.824,1.62,0.63,3.715,4.8,6.811c1.261,0.952,2.764,1.952,4.363,2.953c-0.289,4.333,1.939,8.621,6.014,10.62
		c4.071,2.047,8.871,1.286,12.265-1.524c4.509,1.761,8.339,2.763,10.569,2.763c1.455,0,2.425-0.429,2.861-1.287
		C753.021,149.576,747.832,145.575,742.596,142.336z M713.408,133.048h0.341c1.503,0,4.557,0.715,8.629,2.24
		c-0.388,0.523-0.774,1.095-1.066,1.715c-0.29,0.618-0.581,1.238-0.775,1.856C716.319,136.146,714.04,134.05,713.408,133.048
		L713.408,133.048z M748.898,150.862c-1.502,0-4.559-0.714-8.63-2.238c0.388-0.525,0.776-1.095,1.066-1.715
		c0.291-0.62,0.581-1.238,0.775-1.857c4.169,2.667,6.498,4.763,7.128,5.763C749.093,150.862,748.995,150.862,748.898,150.862z"/>
	<g>
		<path fill="#006E91" d="M837.622,335.077c-0.872-0.715-2.083-0.858-3.055-0.287l-6.108,3.431l-2.376-2.19l3.54-0.477
			c0.824-0.097,1.552-0.574,1.987-1.335l1.892-3.332l1.26,0.331c1.407,0.335,2.86-0.475,3.249-1.905
			c0.339-1.38-0.485-2.808-1.939-3.189l-3.249-0.811c-1.163-0.284-2.375,0.238-2.956,1.238l-2.231,3.907l-3.49,0.475
			c-0.049-0.046-0.098-0.096-0.194-0.143l1.213-1.713c0.145-0.238,0.193-0.478,0.145-0.716c0.146-0.237,0.194-0.573,0.05-0.857
			c-0.194-0.476-0.777-0.714-1.262-0.476c-0.049,0-0.049,0-0.097,0.048l-2.812-2.288c-0.437-0.38-0.97-0.57-1.552-0.665l-5.43-1.811
			c0.726-2.189,0.436-4.666-0.97-6.667c-2.376-3.381-7.128-4.238-10.618-1.905c-3.443,2.334-4.315,7-1.939,10.43
			c0.243,0.333,0.485,0.572,0.776,0.858h-0.049c-0.341,0.712-0.097,1.333,0.437,1.857l-2.716,0.713l-4.121-4.049
			c-1.018-0.999-2.617-0.999-3.636,0c-1.019,1.002-1.019,2.573,0,3.573l5.14,5.096c0.096,0.096,0.241,0.238,0.387,0.334
			c0.631,0.381,1.358,0.524,2.086,0.334l6.254-1.62c0.193,0.191,0.436,0.429,0.679,0.572c0.29,0.189,0.582,0.333,0.921,0.476
			l0.34,0.143l-1.212,3.239l-6.013,3c-1.261,0.619-1.794,2.143-1.115,3.382c0.195,0.382,0.484,0.714,0.874,0.952
			c0.727,0.477,1.745,0.571,2.569,0.144l6.932-3.43c0.582-0.285,1.02-0.763,1.262-1.382l1.551-4.189l6.837,2.428l7.369,6.812
			c0.097,0.095,0.193,0.189,0.34,0.236c0.824,0.572,1.891,0.621,2.811,0.097l6.207-3.478l0.775,0.667
			c1.115,0.954,2.765,0.857,3.733-0.238c0.97-1.095,0.873-2.716-0.242-3.669L837.622,335.077L837.622,335.077z M800.387,319.218
			c0.291-1.951,2.182-3.333,4.22-3.05l2.521,0.383c1.261,0.19,2.279,1,2.763,2.048l-0.388-0.049
			c-0.146-0.046-0.291,0.049-0.339,0.241c0,0.093,0.048,0.188,0.097,0.284c0.048,0,0.048,0.047,0.097,0.047l0.728,0.143
			c0.049,0.096,0.049,0.238,0.098,0.334l-0.534-0.096c-0.146-0.048-0.291,0.047-0.34,0.238c0,0.095,0.049,0.19,0.098,0.287
			c0.048,0,0.048,0.046,0.097,0.046l0.729,0.144c0,0.19,0,0.429-0.05,0.619c-0.291,1.953-2.182,3.333-4.217,3.047l-2.522-0.381
			C801.455,323.075,800.097,321.219,800.387,319.218L800.387,319.218z M840.823,298.119c-0.534,0.382-1.067,0.809-1.601,1.239
			c-0.389,0.333-0.436,0.951-0.096,1.331c0.192,0.239,0.483,0.334,0.727,0.334c0.242,0,0.436-0.095,0.63-0.237
			c0.485-0.429,0.97-0.81,1.454-1.143c0.437-0.285,0.534-0.906,0.194-1.333C841.841,297.928,841.26,297.835,840.823,298.119
			L840.823,298.119z M830.594,315.502c0.096,0,0.144,0.048,0.192,0.048c0.437,0,0.824-0.286,0.922-0.762
			c0.146-0.714,0.339-1.285,0.484-1.81c0.146-0.523-0.146-1.049-0.679-1.189c-0.533-0.144-1.066,0.141-1.212,0.666
			c-0.146,0.523-0.339,1.19-0.484,1.904C829.72,314.884,830.059,315.358,830.594,315.502z M852.168,294.167
			c-0.679,0.096-1.31,0.142-1.94,0.285c-0.533,0.096-0.872,0.571-0.822,1.095c0.095,0.478,0.484,0.811,0.969,0.811h0.146
			c0.63-0.097,1.261-0.19,1.89-0.238c0.534-0.049,0.922-0.522,0.825-1.049C853.187,294.5,852.701,294.118,852.168,294.167z
			 M846.253,295.356c-0.63,0.19-1.261,0.476-1.891,0.763c-0.485,0.238-0.679,0.809-0.485,1.286c0.146,0.334,0.534,0.571,0.873,0.571
			c0.146,0,0.291-0.049,0.388-0.095c0.581-0.238,1.116-0.477,1.697-0.668c0.484-0.189,0.774-0.714,0.631-1.189
			C847.271,295.452,846.738,295.166,846.253,295.356L846.253,295.356z M829.284,321.121c0.096,0,0.145,0.049,0.242,0.049
			c0.437,0,0.824-0.285,0.921-0.715c0.146-0.571,0.29-1.19,0.437-1.905c0.097-0.523-0.194-0.999-0.728-1.142
			c-0.533-0.097-1.018,0.189-1.163,0.714c-0.147,0.713-0.291,1.286-0.437,1.856C828.46,320.455,828.75,320.979,829.284,321.121z
			 M832.338,310.026c0.146,0.048,0.29,0.096,0.438,0.096c0.338,0,0.678-0.191,0.872-0.524c0.291-0.573,0.582-1.097,0.92-1.62
			c0.292-0.478,0.099-1.048-0.338-1.285c-0.485-0.286-1.068-0.096-1.309,0.335c-0.341,0.569-0.68,1.142-0.972,1.712
			C831.708,309.216,831.854,309.788,832.338,310.026z"/>
		<path fill="#006E91" d="M826.859,326.313c0.146,0.097,0.34,0.146,0.534,0.146c0.29,0,0.63-0.146,0.823-0.431
			c0.34-0.522,0.679-1.144,1.019-1.81c0.193-0.476,0-1.049-0.485-1.239c-0.484-0.188-1.066,0-1.261,0.477
			c-0.241,0.573-0.534,1.097-0.823,1.525C826.277,325.409,826.423,326.027,826.859,326.313z M835.295,305.072
			c0.194,0.144,0.389,0.19,0.583,0.19c0.291,0,0.581-0.143,0.775-0.381c0.388-0.478,0.775-1,1.163-1.429
			c0.34-0.381,0.291-0.999-0.097-1.333c-0.388-0.333-1.018-0.286-1.357,0.095c-0.437,0.476-0.873,1.001-1.261,1.523
			C834.762,304.169,834.859,304.739,835.295,305.072L835.295,305.072z M857.791,293.263c-0.581,0.144-1.163,0.286-1.842,0.379
			c-0.533,0.097-0.872,0.571-0.775,1.098c0.097,0.476,0.484,0.808,0.97,0.808h0.193c0.728-0.141,1.358-0.286,1.989-0.428
			c0.532-0.143,0.823-0.667,0.677-1.143C858.858,293.451,858.326,293.119,857.791,293.263L857.791,293.263z M879.027,273.688
			c-0.437-0.286-1.066-0.19-1.357,0.237c-0.389,0.524-0.728,1.049-1.114,1.573c-0.292,0.428-0.194,1.048,0.241,1.333
			c0.146,0.095,0.34,0.19,0.533,0.19c0.292,0,0.631-0.143,0.776-0.428c0.387-0.525,0.727-1.049,1.114-1.572
			C879.561,274.592,879.464,274.02,879.027,273.688L879.027,273.688z M875.683,278.449c-0.437-0.285-1.067-0.19-1.358,0.238
			c-0.388,0.525-0.728,1.049-1.115,1.571c-0.291,0.43-0.194,1.001,0.242,1.335c0.194,0.143,0.39,0.191,0.582,0.191
			c0.291,0,0.582-0.146,0.776-0.383c0.388-0.523,0.775-1.048,1.114-1.572C876.216,279.308,876.118,278.736,875.683,278.449z
			 M862.834,291.071c-0.533,0.333-1.066,0.619-1.6,0.905c-0.484,0.237-0.679,0.809-0.437,1.286c0.193,0.332,0.533,0.523,0.872,0.523
			c0.146,0,0.292-0.048,0.438-0.097c0.581-0.283,1.163-0.619,1.745-1c0.436-0.285,0.581-0.856,0.29-1.332
			C863.9,290.928,863.271,290.785,862.834,291.071L862.834,291.071z M872.288,283.117c-0.437-0.332-1.019-0.239-1.358,0.191
			c-0.387,0.523-0.774,1-1.212,1.476c-0.339,0.43-0.29,1,0.146,1.334c0.193,0.142,0.388,0.237,0.63,0.237
			c0.291,0,0.533-0.096,0.728-0.333c0.436-0.476,0.824-1,1.26-1.524C872.773,284.022,872.676,283.448,872.288,283.117
			L872.288,283.117z M867.148,287.546c-0.436,0.478-0.92,0.905-1.356,1.286c-0.389,0.335-0.438,0.953-0.097,1.335
			c0.193,0.189,0.435,0.333,0.728,0.333c0.241,0,0.484-0.096,0.63-0.24c0.484-0.427,0.969-0.856,1.454-1.38
			c0.388-0.381,0.388-1,0-1.334C868.168,287.165,867.537,287.165,867.148,287.546L867.148,287.546z"/>
	</g>
	<path fill="#03709C" d="M657.944,287.117c-0.437-1.047-0.873-2.145-1.793-2.856c-1.261-0.952-3.152-0.813-4.559-0.095
		c-1.212,0.618-1.891,1.666-3.005,2.476c-0.68,0.523-1.406,1.001-1.989,1.619c-1.551,1.763-0.921,4.144,0.34,5.857
		c0.825,1.143,1.939,2.191,3.346,2.43c1.6,0.334,3.199-0.381,4.606-1.096c1.502-0.762,3.103-1.666,3.732-3.238
		C659.254,290.643,658.575,288.785,657.944,287.117z M651.205,294.357c-0.049,0.143-0.097,0.333-0.146,0.521
		c-0.193,0.43-0.679,0.812-1.115,0.764c-0.096,0-0.193-0.046-0.29-0.096c0.097,0.05,0.194,0.096,0.29,0.096
		c0.679,0.048,0.775-1.476,0.679-1.856c-0.145-0.812-0.679-1.762-1.502-2.048c-0.631-0.239-0.484,0.38-1.115,0.619
		c-0.534,0.19-0.921,0.095-1.165-0.429c-0.872-2.19,1.116-2.62,2.619-1.382C650.574,291.404,651.545,292.881,651.205,294.357
		L651.205,294.357z M651.642,289.927c-0.291-0.188-0.34-0.714-0.389-1.047c-0.048-0.191,0-0.429,0.146-0.524
		c0.146-0.095,0.292-0.045,0.437-0.045c0.291,0.045,0.631,0.093,0.922,0.141c0.146,0,0.242,0.048,0.339,0.095
		c0.146,0.143,0.146,0.383,0.098,0.573C652.999,289.594,652.126,290.26,651.642,289.927z M653.921,295.166l-0.728,0.286
		c0.048,0,0.145-0.046,0.193-0.046l-0.484,0.236v-0.096c-0.049-0.047,0-0.095,0-0.095c0.097-0.382,0.436-0.713,0.872-0.762
		c0.194,0,0.389,0.096,0.389,0.238C654.163,295.07,654.066,295.119,653.921,295.166L653.921,295.166z M653.582,286.451
		c-0.632,0.097-2.57-0.191-1.795-1.333c0.242-0.334,0.679-0.477,1.066-0.572c0.729-0.144,1.31,0.382,0.63,0.952
		c0.339,0.097,0.825,0.143,1.165-0.048c0.387-0.19,0.63-0.666,0.387-0.999c0.389-0.096,0.728,0.333,0.728,0.667
		c0,0.38-0.29,0.714-0.63,0.904C654.648,286.307,654.115,286.403,653.582,286.451L653.582,286.451z M656.006,291.785
		c0.097,0.239,0.241,0.429,0.29,0.619s0.049,0.525-0.146,0.666c-0.193,0.096-0.438,0.096-0.582-0.048
		c-0.146-0.142-0.241-0.333-0.34-0.523c-0.338-1.048,0.34-2.761,1.602-2.81C656.054,289.976,655.714,291.022,656.006,291.785
		L656.006,291.785z"/>
	<g>
		<path fill="#03709C" d="M783.807,37.227c-4.558,0-8.29,3.667-8.29,8.145c0,4.477,3.732,8.144,8.29,8.144s8.291-3.667,8.291-8.144
			C792.098,40.895,788.364,37.227,783.807,37.227z M783.807,51.943c-3.685,0-6.691-2.953-6.691-6.572
			c0-3.62,3.007-6.574,6.691-6.574s6.69,2.954,6.69,6.574C790.497,48.991,787.491,51.943,783.807,51.943z"/>
		<path fill="#03709C" d="M783.807,43.847c-0.873,0-1.552,0.667-1.552,1.524c0,0.856,0.679,1.524,1.552,1.524
			c0.872,0,1.551-0.667,1.551-1.524C785.357,44.514,784.631,43.847,783.807,43.847z M783.807,45.418
			C783.758,45.418,783.758,45.418,783.807,45.418c-0.049-0.095-0.049-0.095,0-0.095s0.049,0,0.049,0.048
			C783.855,45.418,783.807,45.418,783.807,45.418z"/>
	</g>
	<path fill="#03709C" d="M131.708,249.065c-0.049-0.286-0.097-0.572-0.146-0.906c-0.096-0.284-0.193-0.617-0.29-0.903
		c-0.243-0.619-0.631-1.19-1.067-1.762c-0.243-0.285-0.485-0.526-0.776-0.764c-0.291-0.237-0.582-0.475-0.921-0.666l-0.243-0.144
		c-0.048,0-0.048-0.047-0.097-0.047l-0.145-0.096c-0.194-0.094-0.339-0.19-0.533-0.286c-0.34-0.143-0.727-0.334-1.067-0.428
		c-0.727-0.237-1.503-0.382-2.278-0.382h-0.049c-0.242-0.047-0.484-0.047-0.728-0.047h-1.066c-0.339,0.047-0.727,0.096-1.066,0.143
		c-0.728,0.144-1.455,0.429-2.182,0.81c-0.339,0.19-0.679,0.381-1.018,0.62l-0.242,0.189c-0.097,0.048-0.146,0.144-0.242,0.19
		l-0.097,0.095l-0.097,0.097l-0.194,0.188l-0.243,0.241c-0.048,0.046-0.146,0.141-0.193,0.237c-0.146,0.142-0.243,0.285-0.388,0.428
		c-0.242,0.333-0.485,0.62-0.678,0.953c-0.194,0.333-0.388,0.715-0.486,1.048c-0.145,0.381-0.242,0.714-0.291,1.094
		c-0.096,0.715,0,1.478,0.146,2.098c0.194,0.665,0.485,1.237,0.824,1.714c0.339,0.476,0.728,0.905,1.115,1.19
		c0.388,0.285,0.727,0.523,1.066,0.667c0.097,0.048,0.146,0.096,0.243,0.096c0.048,0.046,0.145,0.046,0.194,0.095
		c0.048,0.047,0.146,0.047,0.194,0.047c0.049,0,0.097,0.048,0.146,0.048c0.048,0,0.097,0.047,0.145,0.047
		c0.97,0.334,2.037,0.382,3.006,0.191l-0.048,0.047l-0.146,0.144l-0.146,0.142c-0.194,0.193-0.437,0.383-0.63,0.574
		c-0.048,0.047-0.097,0.094-0.194,0.142c-0.194,0.095-0.339,0.143-0.533,0.19c-0.097,0.048-0.242,0.096-0.339,0.096
		c-0.097,0.048-0.242,0.096-0.388,0.096c-0.243,0.047-0.485,0.141-0.776,0.189c-0.242,0.047-0.532,0.098-0.824,0.098
		c-0.146,0-0.291,0-0.437,0.046h-0.387c-0.582,0-1.164-0.046-1.794-0.144c-0.291-0.049-0.582-0.143-0.921-0.237l-0.242-0.096
		c-0.097-0.048-0.146-0.048-0.194-0.096l-0.097-0.048c-0.048,0-0.097-0.047-0.097-0.047l-0.243-0.096l-0.193-0.094
		c-0.049-0.049-0.146-0.097-0.194-0.145c-0.146-0.096-0.242-0.191-0.388-0.285c-0.242-0.191-0.485-0.381-0.727-0.619
		c-0.437-0.43-0.824-0.906-1.067-1.43c-0.291-0.523-0.485-1.046-0.582-1.522c-0.097-0.524-0.146-1-0.146-1.477
		s0.097-0.906,0.194-1.286c0.096-0.382,0.194-0.667,0.339-0.953c0.048-0.047,0.048-0.141,0.097-0.191
		c0.048-0.047,0.048-0.095,0.097-0.142c0.049-0.094,0.097-0.189,0.146-0.24c0.097-0.142,0.097-0.189,0.097-0.189l-0.146-0.094
		c0,0-0.048,0.048-0.146,0.19c-0.048,0.047-0.097,0.144-0.193,0.239c-0.049,0.046-0.049,0.094-0.097,0.141
		c-0.048,0.048-0.098,0.095-0.098,0.191c-0.096,0.143-0.145,0.285-0.242,0.429c-0.048,0.095-0.097,0.143-0.146,0.237
		c-0.048,0.096-0.096,0.19-0.096,0.287c-0.146,0.38-0.292,0.809-0.388,1.331c-0.097,0.526-0.097,1.05-0.049,1.668
		c0.049,0.287,0.097,0.572,0.146,0.904c0.097,0.286,0.194,0.62,0.292,0.905c0.242,0.62,0.63,1.19,1.066,1.762
		c0.243,0.288,0.485,0.524,0.776,0.764c0.145,0.142,0.291,0.237,0.437,0.335c0.096,0.046,0.145,0.093,0.242,0.14l0.097,0.096
		l0.048,0.049h0.048l0.243,0.143c0.048,0,0.048,0.047,0.097,0.047l0.146,0.097c0.194,0.095,0.339,0.189,0.533,0.285
		c0.339,0.142,0.728,0.333,1.066,0.428c0.727,0.24,1.503,0.381,2.279,0.381h0.048c0.242,0,0.485,0.048,0.728,0.048h1.066
		c0.34-0.048,0.728-0.096,1.067-0.142c0.727-0.143,1.454-0.43,2.181-0.811c0.339-0.189,0.679-0.38,1.018-0.62l0.243-0.19
		c0.097-0.047,0.146-0.143,0.242-0.189l0.098-0.095l0.097-0.096l0.096-0.096l0.049-0.048l0.048-0.047
		c0.291-0.286,0.533-0.57,0.775-0.905c0.243-0.333,0.485-0.618,0.679-0.952c0.194-0.334,0.388-0.714,0.486-1.048
		c0.145-0.381,0.242-0.714,0.29-1.094c0.097-0.716,0-1.479-0.145-2.097c-0.194-0.668-0.485-1.239-0.824-1.715
		c-0.243-0.334-0.485-0.669-0.775-0.904c-0.195-0.191-0.388-0.382-0.583-0.523c-1.405-1.049-3.199-1.287-4.799-0.812v-0.046
		l0.049-0.05l0.048-0.046l0.048-0.048l0.146-0.144l0.145-0.143c0.194-0.191,0.437-0.382,0.63-0.572
		c0.049-0.047,0.097-0.095,0.195-0.143c0.193-0.095,0.339-0.144,0.532-0.188c0.098-0.049,0.243-0.098,0.34-0.098
		c0.096-0.048,0.242-0.094,0.388-0.094c0.242-0.049,0.484-0.144,0.775-0.191c0.242-0.048,0.534-0.095,0.824-0.095
		c0.146,0,0.291,0,0.436-0.048h0.388c0.582,0,1.164,0.048,1.793,0.143c0.291,0.048,0.582,0.143,0.921,0.237l0.243,0.097
		c0.097,0.049,0.146,0.049,0.194,0.094l0.098,0.049c0.047,0,0.097,0.046,0.097,0.046l0.097,0.049l0.049,0.048h0.048
		c0.291,0.145,0.533,0.333,0.776,0.523c0.242,0.191,0.485,0.382,0.679,0.619c0.437,0.43,0.824,0.904,1.066,1.429
		c0.291,0.523,0.485,1.049,0.582,1.524c0.097,0.523,0.146,1.001,0.146,1.477c0,0.477-0.097,0.905-0.194,1.287
		c-0.097,0.38-0.194,0.664-0.339,0.951c-0.048,0.049-0.048,0.142-0.097,0.19c-0.048,0.047-0.048,0.096-0.097,0.144
		c-0.048,0.096-0.097,0.189-0.146,0.239c-0.097,0.141-0.097,0.188-0.097,0.188l0.146,0.096c0,0,0.049-0.047,0.146-0.19
		c0.048-0.047,0.097-0.144,0.193-0.237c0.049-0.049,0.049-0.096,0.097-0.144c0.048-0.049,0.097-0.096,0.097-0.19
		c0.097-0.142,0.146-0.287,0.243-0.428c0.048-0.095,0.097-0.145,0.146-0.239c0.048-0.096,0.097-0.19,0.097-0.285
		c0.146-0.381,0.292-0.813,0.388-1.333C131.757,250.208,131.806,249.637,131.708,249.065L131.708,249.065z"/>
</g>
</svg>
