<svg xmlns="http://www.w3.org/2000/svg" viewBox="-22 -177 915 915"><path fill="#03709C" d="M261.2 77.9c-2.5-1.7-9.7 4-17.4 13.5l-11.6.7c-.1 0-.2-.1-.3-.1-.2-.1-.6.3-1.2.9-.5-.3-1.7-1.1-2.1-1.2-.3-.2-.9.2-1.3.9s-.6 1.4-.3 1.6h.1l2 1.3c-.3.6-.4 1.1-.2 1.2l.2.2 3.8 10c-6.9 11.5-10.3 21.2-7.6 23.1.4.2.8.3 1.3.3l-.1.1c6 .3 15.4-2.6 23.3-8.3 1.8.7 3.8 1 5.7 1l4.4 6.1 1.1-.6 1.6 2.5.9-.6.4 7 1.3-.8-.3-4.6 2.2 3.4 6.6-4.3-2.3-3.6 4.5 2.2 1.3-.9-6.3-3.1 1-.7-1.6-2.5 1-.8-7-11.9c-.3-.1-2.1-.7-2.9-1 5.3-10.8 4.2-22.7.5-30.2-.2-.4-.4-.6-.7-.8zm-26 25.4l-1.5 2.4-2.7-6.8.1-1.3.1-.1c.1 0 .1-.1.3-.1.9 1.3 2.3 3.5 3.7 5.9zm23.7 9.7l1.9.4-.8 3.7-3.7-.6c.7-.8 1.4-1.7 2-2.5.2-.4.4-.7.6-1zm-6.8 7.4c.3-.3.6-.5.9-.8l.8 1.1c-.5-.1-1.1-.2-1.7-.3zm-14.7-20.5c-.5.7-1 1.5-1.5 2.2l-3.4-5.2c.4-.2.7-.4.8-.7.1-.2.2-.5.2-.8l5.7 1.7c-.5 1-1.1 1.9-1.8 2.8zm-3.8-5.3c0-.2-.1-.4-.1-.5.2-.2.9-.8.9-.8l8.3-.5c-.9 1.1-1.8 2.3-2.6 3.5l-6.5-1.7zm23.8 26l-2.7-2.7.9-.9 4.2.7-.5 2.4c-.6.3-1.3.5-1.9.5zm5.9 1.8l-2.5 1.7-1.5-1.5c1.3-.3 2.5-.8 3.7-1.4l.3 1.2zm-.5-3.7c-.8.5-1.7.9-2.6 1.3l.4-2 2.1.4.1.3zm-.2-1.2l-1.9-.3.8-3.7.5.1.6 3.9z"/><path fill="#C828BD" d="M179.8 461.5c-23.7 0-42.9 19.2-42.9 42.9s19.2 42.9 42.9 42.9 42.9-19.2 42.9-42.9-19.2-42.9-42.9-42.9zm-28.3 62.7c-1.3 0-2.3-1-2.3-2.3s1-2.3 2.3-2.3 2.3 1 2.3 2.3-1 2.3-2.3 2.3zm18.4-24.5c-1.3 0-2.3-1-2.3-2.3s1-2.3 2.3-2.3 2.3 1 2.3 2.3-1 2.3-2.3 2.3zm26.8 32.2c-3.4 0-6.1-2.7-6.1-6.1 0-3.4 2.7-6.1 6.1-6.1 3.4 0 6.1 2.7 6.1 6.1s-2.7 6.1-6.1 6.1zm-4.6-32.2c-5.9 0-10.7-4.8-10.7-10.7s4.8-10.7 10.7-10.7 10.7 4.8 10.7 10.7-4.8 10.7-10.7 10.7z"/><g fill="#03709C"><circle cx="22.9" cy="237.8" r="9.8"/><circle cx="716.1" cy="405.3" r="9.8"/><circle cx="496" cy="555.9" r="5.5"/><circle cx="172.6" cy="-6.3" r="4.5"/><path d="M427.5-83.8c0 2-1.6 3.6-3.6 3.6s-3.6-1.6-3.6-3.6 1.6-3.6 3.6-3.6c2-.1 3.6 1.6 3.6 3.6z"/><circle cx="651" cy="135.4" r="7.1"/><path d="M551.9 581.5c0 12.2-9.9 22.1-22.1 22.1-12.2 0-22.1-9.9-22.1-22.1 0-12.2 9.9-22.1 22.1-22.1 12.2-.1 22.1 9.8 22.1 22.1z"/><circle cx="41.6" cy="261.9" r="3.6"/></g><path fill="#03709C" d="M147.5 456l-3-4.7 1-.6 2.9 4.8M140.1 444.2l-5.5-9.7 1.3-.8 5.3 9.8M130.7 427l-4.9-10 1.8-.8 4.6 10.1M122.4 409.2l-4.1-10.3 2.1-.8 4 10.4M115.4 390.9l-3.4-10.6 2.5-.8 3.3 10.7M109.7 372.2l-2.7-10.8 3-.7 2.4 10.8M105.2 353.1l-1.9-11 3.4-.6 1.7 11M102.1 333.7l-1.1-11.1 3.7-.4 1 11.1M100.4 314.1l-.5-11.1 4.2-.2.2 11.2M99.9 294.4l.4-11.1 4.5.2-.6 11.1M100.8 274.8l1.1-11.1 4.9.5-1.3 11.1M103.1 255.2l1.8-11 5.2 1-2 10.9M106.6 235.9l2.7-10.9 5.4 1.4-2.8 10.8M111.6 216.8l3.3-10.6 5.6 1.8-3.5 10.5M133.9 162.1l5.5-9.7 5.8 3.3-5.6 9.7M143.8 145l6.1-9.3 5.8 3.9-6.2 9.2M154.8 128.7l6.8-8.9 5.7 4.4-6.8 8.8M167 113.1l7.3-8.4 5.7 5-7.5 8.3M180.2 98.4l7.9-7.9 5.5 5.5-8 7.8M194.4 84.6l8.4-7.4 5.3 6.2-8.5 7.2M209.5 71.8l8.9-6.8 5 6.7-9 6.7M225.4 60.1s2.3-1.6 4.6-3.1c2.4-1.5 4.8-3.1 4.8-3.1l4.6 7.3s-2.3 1.5-4.7 2.9c-2.3 1.5-4.7 3-4.7 3l-4.6-7zM242.1 49.4l9.7-5.5 4.4 7.8-9.8 5.4M259.5 39.8l10.1-4.8 4 8.5-10.2 4.6M277.5 31.5l10.4-4.2 3.5 9.1-10.4 4M296.1 24.4l10.6-3.4 3 9.6-10.7 3.2M315.1 18.6l10.8-2.7 2.4 10.2-10.8 2.5M334.5 14.1l11-1.9 1.7 10.6-11 1.8M354.1 11l11.1-1.1 1.1 10.9-11.2 1M373.9 9.3l11.2-.4.3 11.2-11.2.2M393.8 9l11.2.5-.5 11-11.1-.4M413.7 10.2l11.1 1.2-1.2 10.9-11.1-1.2M433.4 12.7l11 2-1.9 10.6-11-1.9M452.9 16.6l10.8 2.8-2.5 10.1-10.9-2.6M472 21.9l10.6 3.5-3.1 9.5-10.6-3.3M490.8 28.4l10.3 4.3-3.6 8.8-10.4-4M509 36.3l9.9 5-3.8 8-10.2-4.7M526.5 45.4l9.6 5.7-4 7.2-9.8-5.4M543.4 55.8l9.2 6.3-4.1 6.2-9.5-5.9M559.5 67.3l8.7 7-4 5.2-9-6.6M574.7 79.9l8.2 7.5-3.8 4.3-8.5-7.2M589 93.4l7.6 8.2-3.3 3.3-8.1-7.7M602.2 108l7 8.7-2.6 2.3-7.6-8.3M614.3 123.5l6.4 9.1-1.8 1.3-7-8.7M625.4 139.9l2.8 4.8-.8.6-3.3-4.5"/><g><path fill="#03709C" d="M745 416.4l-2.3 5.1-1-.5 2.4-5M739.1 429.1l-5.2 9.8-1.4-.7 5.4-9.8M729.7 446.3l-5.8 9.5-1.6-1.1 6-9.3M719.2 462.8l-6.5 9.1-1.8-1.4 6.6-8.9M707.6 478.6l-7.1 8.6-2-1.7 7.2-8.5M694.9 493.5l-7.7 8.2-2.1-2.2 7.8-7.9M681.2 507.6l-8.2 7.6-2.3-2.6 8.4-7.4M666.6 520.7l-8.7 7-2.4-3 8.9-6.8M651.1 532.8l-9.2 6.3-2.3-3.4 9.2-6.2M634.8 543.8l-9.6 5.7-2.3-3.9 9.7-5.6M617.7 553.6l-9.9 5.1-2.2-4.4 10-4.9M600.1 562.3l-10.3 4.4-2-4.9 10.3-4.2M581.8 569.7l-10.5 3.7-1.8-5.3 10.6-3.5M563.1 575.9l-10.7 2.9-1.5-5.6 10.8-2.8M544 580.8l-10.9 2.2-1.1-6 10.9-2.1M524.7 584.4l-11.1 1.4-.8-6.4 11.1-1.2M505.1 586.6l-11.2.7-.3-6.7 11.1-.5M485.3 587.5l-11.1-.1.1-6.9 11.1.2M465.6 587.1l-11.1-.9.6-7.2 11.1 1M445.9 585.3l-11-1.6 1.1-7.5 11 1.8M426.4 582.1l-10.9-2.3 1.7-7.7 10.9 2.6M407.1 577.6l-10.7-3.1 2.3-7.7 10.7 3.2M388.2 571.8l-10.5-3.8 3-7.8 10.4 3.9M369.7 564.8s-2.6-1.1-5.1-2.2c-2.6-1.2-5.2-2.3-5.2-2.3l3.7-7.9 5 2.4c2.5 1.1 5.1 2.3 5.1 2.3l-3.5 7.7zM351.7 556.5l-9.9-5.2 4.3-8 9.8 5.4M334.3 547l-9.5-5.8 5-8 9.4 6M317.5 536.3l-9-6.4 5.7-7.9 8.9 6.6M301.5 524.6l-8.6-7.1 6.5-7.8 8.5 7.3M286.4 511.7l-8.1-7.7 7.2-7.5 8 7.8M272.2 497.8l-7.6-8.2 8-7.2 7.4 8.3M259 482.9l-7-8.7 8.6-6.7 6.8 8.8M246.8 467.2l-6.3-9.2 9.2-6.3 6.2 9.3M235.8 450.6l-5.6-9.6 9.5-5.6 5.7 9.6M226.1 433.3l-5-10 9.8-4.9 5 10M217.5 415.3l-4.2-10.3 9.9-4.1 4.3 10.3M210.3 396.8l-3.5-10.6 9.8-3.3 3.7 10.5M204.4 377.9l-2.8-10.8 9.7-2.6 2.9 10.8M199.8 358.6l-2-11 9.3-1.8 2.3 10.9M196.6 339l-1.2-11.1 8.8-1.1 1.6 11.1M194.8 319.3l-.5-11.2 8.3-.4.8 11.1M194.3 299.5l.4-11.2 7.5.1.1 11.2M195.3 279.7l1.2-11 6.5.5-.6 11.1M197.7 260.2l2-11 5.5.8-1.4 11.1M201.4 240.8l2.8-10.8 4.5 1-2.1 11M206.6 221.8l3.5-10.6 3.3 1-2.9 10.8M213 203.3l4.3-10.4 2 .8-3.5 10.6M220.9 185.1l2.4-5.1 1 .5-2 5.2"/></g><g><path fill="#03709C" d="M409.9-55.8l5.6-.5.1 1.2-5.6.4M423.9-56.8l11.1-.4.1 1.6-11.2.1M443.5-57.1l11.1.4-.1 1.9-11.1-.6M463-56.1l11.1 1.2-.2 2.3-11.1-1.4M482.5-53.7l11 1.9-.5 2.6-11-2.1M501.8-50l10.8 2.6-.8 3-10.8-2.9M520.7-45l10.6 3.4-1 3.2-10.6-3.6M539.3-38.7l10.4 4.1-1.5 3.5-10.2-4.3M557.5-31.1l10 4.8-1.8 3.7-10-5M575-22.3l9.7 5.5-2.3 3.9-9.5-5.7M592-12.3l9.3 6.1-2.8 4.1-9.1-6.4M608.2-1.2l8.9 6.8-3.3 4.1-8.7-6.9M623.7 11l8.3 7.4-3.7 4.1-8.2-7.5M638.2 24.3l7.9 7.9-4.2 4.1-7.7-8.1M676.1 69.6l6.1 9.3-5.7 3.6-5.9-9.4M686.6 86.3l5.4 9.8-6.1 3.3-5.3-9.8M695.9 103.7l4.7 10.1-6.6 3-4.5-10.1M704 121.7l4 10.4-7 2.7-3.9-10.4M710.8 140.3l3.3 10.7-7.4 2.2-3.2-10.7M716.4 159.3l2.6 10.8-7.9 1.8-2.4-10.9M720.6 178.6l1.9 11-8.3 1.3-1.7-11M723.6 198.2s.3 2.8.6 5.5c.3 2.8.5 5.6.5 5.6l-8.7.7s-.2-2.7-.4-5.5c-.3-2.8-.5-5.6-.5-5.6l8.5-.7zM725.2 218l.3 11.1-9 .2-.1-11.2M725.5 237.8l-.4 11.1-9.4-.4.6-11.1M724.5 257.6l-1.2 11.1-9.7-1.1 1.4-11.1M722.1 277.3l-2 11-9.9-1.8 2.1-11M718.3 296.8l-2.7 10.9-10.1-2.7 2.9-10.7M713.2 316.1l-3.5 10.6-10.1-3.4 3.6-10.6M706.7 334.9l-4.1 10.3-10.1-4.2 4.3-10.2M699 353.2l-4.9 10-10-4.9 5-10M690 370.9l-5.7 9.6-9.5-5.5 5.6-9.7M679.7 387.9l-6.3 9.2-9-6.1 6.2-9.2M668.2 404.2l-6.9 8.7-8.5-6.6 6.9-8.8M655.7 419.6l-7.6 8.2-7.7-6.9 7.4-8.4M642.1 434l-8.1 7.7-7-7.1 7.9-7.9M627.5 447.5l-8.6 7.1-6.2-7.2 8.5-7.3M612 459.9l-9.1 6.5-5.2-7.1 8.8-6.8M595.7 471.2l-9.5 5.9-4.4-7 9.3-6.2M578.7 481.3l-9.9 5.1-3.6-6.5 9.7-5.6M561 490.1l-10.2 4.4-2.7-5.9 10-4.9M542.8 497.7l-10.5 3.7-2-5.3 10.3-4.2M524.1 503.9l-10.7 3-1.4-4.5 10.6-3.5M505.1 508.8l-11 2.1-.8-3.3 10.8-2.8M485.7 512.3l-11.1 1.4-.3-2.2 11-2.1M466 514.4l-5.6.3-.1-1.1 5.6-.7"/></g><circle fill="#FFF" cx="436.4" cy="279.7" r=".4"/><path fill="#03709C" d="M140.1 156.4s-27.2 11-35.8 33.9c-2.5 6.6-4.1 13.1-4.8 19.1h-.6c-.9 0-1.6 0-2.4.2-1.6.3-3 .8-4.3 1.6-1.2.7-2.3 1.6-3.1 2.6-1.7 1.9-2.8 3.9-3.6 6-1.6 4.1-2.1 8.1-2.1 12.1s.6 7.8 1.7 11.5c0-3.8.6-7.5 1.6-11s2.6-6.8 4.6-9.3c1-1.2 2.2-2.3 3.3-2.9.6-.3 1.1-.5 1.5-.5.5-.1.8 0 1.1.1.1.1.4.1.4.2.1.1.2.2.4.3.2.2.5.5.8.9.1.1.2.2.3.4.3 4.2 1.2 8 2.6 11 1.6 3.5 13.4 8 16.8 6.6 3.2-1.3 6.5-3.7 9.8-6.9.4-.1.8-.1 1.1-.1h.5c.1 0 .3.1.5.1.3.1.6.3.9.7.3.3.6.8.8 1.4.4 1.2.6 2.7.6 4.3-.1 3.2-1.1 6.7-2.6 10s-3.6 6.5-6 9.4c3.2-2 6.2-4.5 8.8-7.5s4.9-6.4 6.4-10.5c.7-2.1 1.2-4.3 1.2-6.9 0-1.3-.2-2.6-.7-4-.4-1.4-1.2-2.8-2.2-4-.5-.6-1-1.1-1.7-1.7-.1-.1-.2-.1-.2-.2 3.4-5 6.5-11 9-17.6 8.5-23.1-4.6-49.3-4.6-49.3zm-2.2 34.5c-2 5.2-7.8 7.8-12.9 5.9-5.2-2-7.8-7.8-5.8-12.9 2-5.2 7.7-7.8 12.9-5.9 5.2 1.9 7.8 7.7 5.8 12.9zM666.1 22.6c-6.2-7.4-13-13.7-19.7-18.6.1-.2.3-.4.4-.6.6-1 1-1.9 1.4-3 .7-2.1 1-4.2 1-6.2-.1-2-.4-3.8-1-5.5-1.1-3.3-2.8-6-4.7-8.4-3.8-4.6-8.4-8-13.1-10.6-4.8-2.6-9.8-4.5-14.9-5.7 4.5 2.6 8.6 5.8 12.1 9.4 3.5 3.6 6.4 7.7 8 11.8.8 2.1 1.3 4.1 1.3 5.9 0 .9-.2 1.6-.4 2.2-.2.6-.6 1-.9 1.3-.2.1-.4.3-.5.4-.2.1-.4.2-.6.2-.4.1-.9.2-1.5.3-.2 0-.4 0-.6.1-5.3-2.4-10.4-3.9-14.9-4.2-5.3-.4-18.6 10.7-19.2 15.7-.6 4.8 0 10.3 1.7 16.4-.2.6-.4 1-.6 1.4l-.3.6c0 .1-.3.3-.4.5-.3.3-.8.5-1.4.7-.6.1-1.4.1-2.3 0-1.7-.3-3.7-1.1-5.6-2.2-3.8-2.3-7.3-5.9-10.3-9.9s-5.4-8.6-7.2-13.5c.3 5.2 1.3 10.5 3.1 15.7 1.8 5.1 4.3 10.2 8.3 14.7 2 2.2 4.4 4.4 7.4 6.1 1.5.8 3.3 1.5 5.3 1.9 1.9.4 4.1.5 6.3.1 1.1-.2 2.1-.4 3.2-.9.1 0 .3-.1.4-.2 3.8 7.5 8.8 15.2 15.1 22.7 21.8 25.8 62.1 27.6 62.1 27.6s4.7-40.4-17-66.2zm-3.8 41.7c-5.8 4.9-14.6 4.2-19.5-1.7-4.9-5.8-4.2-14.6 1.7-19.5 5.8-4.9 14.6-4.2 19.5 1.6 4.8 6 4.1 14.7-1.7 19.6z"/><path fill="#72C800" d="M394.5-91.7c-.1-.5-.1-.7-.2-1.4l-.3-1.5c-.5-1.9-1.4-3.7-2.4-5.3-2.1-3.1-4.7-5.4-7.4-7.2-5.5-3.5-11-5.2-15.9-6.4-4.9-1.2-9.3-1.6-12.8-1.7-3.6-.1-6.4-.1-8.3 0-1.9.1-2.9.2-2.9.2s1 .1 2.9.2c1.9.2 4.6.4 8.1 1s7.6 1.5 12.2 3c4.5 1.5 9.6 3.7 14.1 7.2 2.3 1.7 4.3 3.8 5.7 6.2.7 1.2 1.2 2.5 1.5 3.9.1.3.1.7.2 1 0 .1.1.8.1 1.1v2.2c-.4 6-4.4 11.8-9.5 16.7-5.2 4.9-11.8 8.6-18.8 11.6-7 2.9-14.6 5.3-22 6-7.7.7-15.6.5-22.4-1.5-3.4-1-6.3-2.7-8.2-4.9-1.9-2.2-2.3-4.5-1.4-7l.1-.2v-.1l.3-.5c.2-.4.4-.9.6-1.1s.4-.5.5-.8l.7-.9c.8-1 1.8-1.9 2.8-2.7-.4 1-.8 2-.9 3.3-.1.6-.1 1.3 0 2l.2 1 .2.8c1 3 2.9 4.7 4.9 6 3.9 2.4 8 3.1 12 3.4 4.1.3 8.2 0 12.4-.8 1-.2 2.2-.4 3.1-.7 1.1-.3 2.2-.6 3.2-.9 2.1-.7 4.2-1.5 6.3-2.4 4.2-1.9 8.1-4.2 12-7.3 1.9-1.6 3.8-3.4 5.3-5.7 1.6-2.3 2.9-5.1 3.2-8.4.1-1.6 0-3.3-.4-4.8l-.2-.6-.2-.7-.3-.8c-.3-.7-.8-1.6-1.2-2.2-1.7-2.7-4-4.6-6.3-6.1-4.8-2.9-10-4.2-15.2-4.8-10.3-1.2-20.7.4-30.3 3.3-9.8 2.9-19.2 7.3-27 14.1-3.9 3.4-7.2 7.4-9.7 12-2.5 4.5-3.9 9.8-3.6 15s2.3 10.2 5.1 14c3 4 6.7 6.9 10.5 9.1 7.7 4.4 15.6 6.9 23 8.2 14.8 2.5 27.2 1.9 35.7 1.2 4.3-.3 7.6-.9 9.9-1.2 2.3-.4 3.5-.6 3.5-.6s-1.2.1-3.5.2-5.6.2-9.9.2-9.4-.2-15.3-.8c-5.9-.7-12.5-1.5-19.5-3.2-6.9-1.8-14.4-4.2-21.1-8.5-3.3-2.1-6.5-4.8-8.7-7.9-2.3-3.3-3.6-7.1-3.7-11.1-.2-8 4.8-16 11.6-21.7 6.9-5.8 15.6-9.7 24.6-12.1 9.2-2.6 18.5-3.7 27.4-2.5 4.4.6 8.6 1.9 11.8 3.9 3.2 2 5 5 4.6 7.7-.1 1.8-1.2 3.7-2.8 5.5 0-.4.1-.7.1-1.2s0-1.1-.1-1.4l-.1-.4V-82.8l-.1-.3v-.1c-.4-1.7-1.4-3.3-2.6-4.6-1.2-1.2-2.6-2.2-4-2.9-5.7-2.7-11.9-2.9-18.3-2.3-3.2.3-6.6.9-9.9 1.7-3.5.9-6.8 2.3-10.1 4-3.3 1.6-6.6 3.6-9.7 6.1-1.6 1.2-3.1 2.7-4.5 4.3l-1 1.3-1 1.6c-.4.6-.5.9-.8 1.4l-.3.6v.1c-.2.5-.1.2-.1.3l-.1.2-.2.4c-.9 2.3-1.2 5-.7 7.6s1.8 5 3.4 6.9c3.2 3.7 7.5 5.9 11.7 7.1 8.5 2.4 17 2.5 25.4 1.6 8.6-1 16.7-3.6 24.1-7 7.4-3.5 14.6-7.8 20.3-13.5 2.9-2.8 5.4-5.9 7.4-9.4 1.9-3.5 3.2-7.4 3.4-11.4-.1-.5-.1-1.6-.2-2.6z"/><path fill="#00A8DE" d="M791 262c-5.6 38.2-31.2 79.2-37.9 90.5-11.5 19.6-1.6 35.3 10.2 38.8s26.7-1.6 29.8-19.7C802.1 319 791 262 791 262zm-16.7 95.6c7.4 2.2 11.6 10 9.4 17.4-2.2 7.4-10 11.6-17.4 9.4-7.4-2.2-11.6-10-9.4-17.4 2.3-7.4 10.1-11.6 17.4-9.4z"/></svg>