<svg id="Layer_1" data-name="Layer 1" xmlns="http://www.w3.org/2000/svg" viewBox="0 0 915 915"><defs><style>.cls-1{fill:none;}.cls-2{fill:#c828bd;}.cls-3{fill:#03709c;}.cls-4{fill:#fff;}.cls-5{fill:#72c800;}.cls-6{fill:#00a8de;}</style></defs><title>SS__Interactive logo(moving without satelite)</title><path class="cls-1" d="M0 0h915v915H0z"/><path class="cls-2" d="M212.52 631.07a40.95 40.95 0 1 0 40.95 41 40.95 40.95 0 0 0-40.95-41zm-27.05 60a2.19 2.19 0 1 1 2.19-2.19 2.19 2.19 0 0 1-2.2 2.12zM203 667.63a2.19 2.19 0 1 1 2.19-2.19 2.19 2.19 0 0 1-2.19 2.19zm25.59 30.71a5.85 5.85 0 1 1 5.85-5.85 5.85 5.85 0 0 1-5.84 5.85zm-4.39-30.71a10.24 10.24 0 1 1 10.24-10.24 10.24 10.24 0 0 1-10.22 10.24z"/><circle class="cls-3" cx="62.57" cy="417.42" r="9.36"/><circle class="cls-3" cx="724.8" cy="577.45" r="9.36"/><circle class="cls-3" cx="514.56" cy="721.3" r="5.27"/><circle class="cls-3" cx="205.57" cy="184.19" r="4.28"/><circle class="cls-3" cx="445.64" cy="110.14" r="3.48"/><circle class="cls-3" cx="662.67" cy="319.54" r="6.81"/><circle class="cls-3" cx="546.78" cy="745.69" r="21.14"/><circle class="cls-3" cx="80.45" cy="440.41" r="3.4"/><path class="cls-3" d="M181.63 625.86l-2.9-4.47.95-.6 2.81 4.53-.86.54zM174.53 614.55l-5.27-9.27 1.3-.72 5.09 9.36-1.12.63zM165.52 598.15l-4.62-9.6 1.66-.78 4.44 9.69-1.48.69zM157.65 581.17l-3.96-9.89 2.05-.8 3.77 9.97-1.86.72zM150.96 563.68l-3.27-10.14 2.44-.76 3.07 10.21-2.24.69zM145.48 545.76l-2.56-10.34 2.83-.67 2.36 10.39-2.63.62zM141.25 527.49L139.4 517l3.22-.54 1.64 10.53-3.01.5zM138.27 508.97l-1.12-10.6 3.6-.35.92 10.62-3.4.33zM136.58 490.27l-.39-10.65 3.97-.11.19 10.66-3.77.1zM136.16 471.5l.34-10.65 4.32.17-.53 10.64-4.13-.16zM137.03 452.72l1.05-10.6 4.66.51-1.26 10.58-4.45-.49zM139.17 434.04l1.77-10.5 4.96.88-1.97 10.47-4.76-.85zM142.58 415.54l2.51-10.35 5.17 1.29-2.66 10.32-5.02-1.26zM147.28 397.32l3.2-10.16 5.32 1.72-3.34 10.11-5.18-1.67zM168.64 345.09l5.2-9.29 5.56 3.16-5.34 9.22-5.42-3.09zM178.09 328.77l5.82-8.91 5.55 3.68-5.95 8.83-5.42-3.6zM188.64 313.13l6.42-8.5 5.5 4.22-6.55 8.41-5.37-4.13zM200.24 298.24l6.99-8.03 5.4 4.76-7.11 7.93-5.28-4.66zM212.85 284.18l7.53-7.54 5.25 5.31-7.64 7.43-5.14-5.2zM226.41 271.01l8.03-7.01 5.04 5.86-8.13 6.89-4.94-5.74zM240.84 258.79l8.48-6.45 4.8 6.4-8.58 6.33-4.7-6.28zM256 247.59l4.42-3 4.54-2.94 4.44 7-4.4 2.8-4.47 2.91zM272.02 237.37l9.27-5.27 4.19 7.54-9.36 5.1-4.1-7.37zM288.63 228.26l9.6-4.63 3.82 8.11-9.68 4.45-3.74-7.93zM305.83 220.29l9.9-3.96 3.38 8.67-9.97 3.77-3.31-8.48zM323.56 213.51l10.14-3.26 2.87 9.2-10.2 3.08-2.81-9.02zM341.71 207.97l10.35-2.56 2.31 9.71-10.39 2.37-2.27-9.52zM360.23 203.69l10.5-1.81 1.68 10.1-10.52 1.69-1.66-9.98zM379 200.75l10.6-1.08 1 10.39-10.61.97-.99-10.28zM397.93 199.11l10.65-.35.3 10.63-10.66.24-.29-10.52zM416.94 198.82l10.64.47-.43 10.53-10.64-.39.43-10.61zM435.9 199.94l10.59 1.19-1.13 10.34-10.59-1.11 1.13-10.42zM454.74 202.34l10.48 1.91-1.8 10.1-10.49-1.82 1.81-10.19zM473.36 206.04l10.31 2.69-2.4 9.62-10.36-2.46 2.45-9.85zM491.65 211.1l10.1 3.38-2.92 9.05-10.17-3.16 2.99-9.27zM509.54 217.38l9.84 4.07-3.37 8.43-9.94-3.83 3.47-8.67zM526.92 224.9l9.53 4.76-3.68 7.66-9.67-4.46 3.82-7.96zM543.72 233.61l9.18 5.41-3.91 6.88-9.34-5.12 4.07-7.17zM559.85 243.47l8.75 6.09-3.93 5.92-9.01-5.68 4.19-6.33zM575.19 254.49l8.31 6.67-3.81 4.96-8.6-6.28 4.1-5.35zM589.71 266.5l7.83 7.23-3.57 4.06-8.15-6.87 3.89-4.42zM603.36 279.47l7.28 7.78-3.18 3.15-7.69-7.38 3.59-3.55zM615.97 293.4l6.7 8.3-2.49 2.15-7.21-7.85 3-2.6zM627.54 308.17l6.11 8.74-1.67 1.25-6.66-8.32 2.22-1.67zM638.13 323.89l2.76 4.56-.85.57-3.12-4.33 1.21-.8zM752.46 588.01l-2.2 4.86-1.02-.47 2.29-4.82.93.43zM746.77 600.1l-4.96 9.44-1.3-.7 5.13-9.34 1.13.6zM737.84 616.54l-5.59 9.08-1.55-.98 5.75-8.97 1.39.87zM727.8 632.33l-6.19 8.68-1.77-1.29 6.35-8.56 1.61 1.17zM716.7 647.41l-6.78 8.23-1.95-1.64 6.93-8.09 1.8 1.5zM704.58 661.7l-7.33 7.75-2.09-2.02 7.47-7.6 1.95 1.87zM691.49 675.14l-7.84 7.22-2.18-2.42 7.97-7.07 2.05 2.27zM677.5 687.65l-8.31 6.67-2.23-2.85 8.43-6.51 2.11 2.69zM662.69 699.17l-8.75 6.09-2.24-3.29 8.87-5.91 2.12 3.11zM647.11 709.67l-9.14 5.47-2.19-3.74 9.25-5.29 2.08 3.56zM630.85 719.08l-9.5 4.84-2.08-4.19 9.58-4.66 2 4.01zM613.97 727.37l-9.8 4.18-1.93-4.65 9.87-4 1.86 4.47zM596.56 734.49l-10.07 3.49-1.7-5.05 10.11-3.34 1.66 4.9zM578.68 740.39l-10.27 2.79-1.43-5.41 10.32-2.64 1.38 5.26zM560.45 745.05L550 747.14l-1.11-5.75 10.48-1.94 1.08 5.6zM541.92 748.48l-10.56 1.37-.75-6.09 10.58-1.22.73 5.94zM523.2 750.63l-10.63.64-.34-6.38 10.63-.5.34 6.24zM504.36 751.49l-10.65-.08.1-6.66 10.65.23-.1 6.51zM485.5 751.06l-10.62-.81.58-6.91 10.6.97-.56 6.75zM466.7 749.34l-10.54-1.54 1.09-7.12 10.52 1.7-1.07 6.96zM448.05 746.32l-10.41-2.26 1.64-7.28 10.37 2.41-1.6 7.13zM429.64 742.03l-10.23-2.97 2.21-7.41 10.19 3.12-2.17 7.26zM411.57 736.49l-10.01-3.66 2.8-7.49 9.95 3.8-2.74 7.35zM393.93 729.75l-4.93-2.12-4.93-2.23 3.49-7.51 4.74 2.25 4.86 2.19zM376.7 721.82l-9.44-4.95 4.07-7.6 9.35 5.12-3.98 7.43zM360.05 712.76l-9.08-5.58 4.77-7.59 8.97 5.75-4.66 7.42zM344.06 702.59l-8.68-6.19 5.47-7.52 8.56 6.35-5.35 7.36zM328.78 691.34l-8.23-6.77 6.19-7.39 8.11 6.92-6.07 7.24zM314.31 679.06l-7.74-7.32 6.92-7.19 7.61 7.46-6.79 7.05zM300.7 665.79l-7.19-7.86 7.59-6.87 7.11 7.94-7.51 6.79zM288.09 651.58l-6.64-8.34 8.21-6.46 6.54 8.41-8.11 6.39zM276.48 636.53l-6.05-8.77 8.79-5.99 5.96 8.83-8.7 5.93zM265.97 620.7l-5.36-9.21 9.1-5.33 5.42 9.17-9.16 5.37zM256.66 604.13l-4.71-9.55 9.31-4.64 4.79 9.52-9.39 4.67zM248.51 586.98l-4.06-9.85 9.48-3.94 4.13 9.81-9.55 3.98zM241.57 569.31l-3.31-10.13 9.39-3.18 3.53 10.05-9.61 3.26zM235.94 551.19l-2.61-10.32 9.2-2.44 2.83 10.27-9.42 2.49zM231.56 532.75l-1.89-10.49 8.92-1.72 2.14 10.44-9.17 1.77zM228.5 514.05l-1.14-10.59 8.44-1.04 1.46 10.55-8.76 1.08zM226.76 495.21l-.41-10.65 7.9-.42.74 10.62-8.23.45zM226.34 476.31l.4-10.65 7.1.1.09 10.66-7.59-.11zM227.32 457.45l1.13-10.59 6.23.52-.64 10.63-6.72-.56zM229.59 438.74l1.85-10.49 5.35.81-1.38 10.57-5.82-.89zM233.13 420.25l2.61-10.33 4.37.97-2.05 10.46-4.93-1.1zM238.04 402.11l3.37-10.12 3.15.94-2.72 10.31-3.8-1.13zM244.22 384.39l4.05-9.86 1.96.73-3.41 10.11-2.6-.98zM251.72 367l2.35-4.79.94.41-1.96 4.96-1.33-.58zM432.34 136.91l5.31-.47.09 1.12-5.32.37-.08-1.02zM445.66 135.92l10.66-.32.03 1.48-10.66.12-.03-1.28zM464.36 135.63l10.65.4-.08 1.83-10.64-.6.07-1.63zM483.05 136.6l10.6 1.13-.25 2.18-10.58-1.33.23-1.98zM501.64 138.86l10.5 1.86-.47 2.5-10.46-2.05.43-2.31zM520.04 142.4l10.35 2.57-.73 2.81-10.29-2.77.67-2.61zM538.18 147.19l10.14 3.28-1.03 3.09-10.08-3.47.97-2.9zM555.94 153.23l9.89 3.96-1.37 3.34-9.82-4.15 1.3-3.15zM573.26 160.47l9.6 4.63-1.76 3.56-9.51-4.81 1.67-3.38zM590.06 168.88l9.26 5.27-2.18 3.74-9.16-5.45 2.08-3.56zM606.25 178.42l8.87 5.89-2.62 3.88-8.77-6.06 2.52-3.71zM621.76 189.04l8.46 6.48-3.11 3.97-8.33-6.63 2.98-3.82zM636.52 200.71l7.98 7.05-3.56 3.97-7.88-7.17 3.46-3.85zM650.43 213.38l7.49 7.58-4.01 3.9-7.38-7.68 3.9-3.8zM686.62 256.67l5.79 8.94-5.4 3.44-5.66-9.02 5.27-3.36zM696.63 272.65l5.16 9.32-5.85 3.19-5.03-9.39 5.72-3.12zM705.52 289.29l4.51 9.65-6.29 2.89-4.38-9.71 6.16-2.83zM713.26 306.51l3.84 9.94-6.74 2.55-3.69-10 6.59-2.49zM719.8 324.24l3.14 10.18-7.15 2.15-3-10.23 7.01-2.1zM725.1 342.38l2.45 10.37-7.54 1.71-2.29-10.4 7.38-1.68zM729.16 360.85l1.73 10.51-7.9 1.24-1.58-10.54 7.75-1.21zM732 379.52l.56 5.3.44 5.38-8.26.65-.37-5.24-.48-5.31zM733.52 398.42l.32 10.66-8.62.18-.13-10.66 8.43-.18zM733.81 417.37l-.4 10.65-8.95-.42.59-10.64 8.76.41zM732.81 436.3l-1.13 10.6-9.23-1.07 1.31-10.58 9.05 1.05zM730.52 455.13l-1.86 10.5-9.47-1.77 2.04-10.46 9.29 1.73zM726.93 473.77l-2.57 10.34-9.66-2.49 2.76-10.3 9.47 2.45zM722.06 492.14l-3.31 10.13-9.72-3.23 3.43-10.1 9.6 3.2zM715.88 510.11l-4 9.88-9.65-3.98 4.1-9.83 9.55 3.93zM708.48 527.61l-4.66 9.58-9.54-4.71 4.76-9.53 9.44 4.66zM699.86 544.55l-5.39 9.19-9.12-5.3 5.32-9.23 9.19 5.34zM690 560.79l-6 8.8-8.62-5.83 5.94-8.84 8.68 5.87zM679.07 576.32l-6.59 8.38-8.09-6.32 6.52-8.42 8.16 6.36zM667.09 591.05l-7.19 7.86-7.39-6.62 7.02-8.01 7.56 6.77zM654.08 604.86l-7.71 7.35-6.64-6.82 7.54-7.51 6.81 6.98zM640.16 617.74l-8.2 6.79-5.88-6.92 8.03-6.99 6.05 7.12zM625.39 629.59l-8.67 6.19-5.05-6.83 8.47-6.47 5.25 7.11zM609.83 640.36l-9.07 5.59-4.25-6.67 8.88-5.87 4.44 6.95zM593.57 650.01l-9.47 4.89-3.4-6.24 9.24-5.31 3.63 6.66zM576.67 658.42l-9.78 4.23-2.61-5.69 9.58-4.66 2.81 6.12zM559.25 665.64l-10.04 3.55-1.92-5.06 9.88-4 2.08 5.51zM541.41 671.64l-10.28 2.81-1.3-4.29 10.12-3.35 1.46 4.83zM523.2 676.28l-10.47 2.04-.73-3.2 10.31-2.71.89 3.87zM504.74 679.61l-10.59 1.32-.32-2.07 10.47-2 .44 2.75zM485.9 681.62l-5.33.31-.1-1.02 5.28-.73.15 1.44z"/><circle class="cls-4" cx="457.64" cy="457.42" r=".34"/><path class="cls-3" d="M174.53 339.58s-26 10.51-34.23 32.43a81 81 0 0 0-4.63 18.25h-.54a11.79 11.79 0 0 0-6.37 1.67 13.31 13.31 0 0 0-3 2.45 18.66 18.66 0 0 0-3.47 5.68 31.11 31.11 0 0 0-2 11.57 39.91 39.91 0 0 0 1.62 11 38.22 38.22 0 0 1 1.55-10.63 26.13 26.13 0 0 1 4.43-8.87 11 11 0 0 1 3.11-2.73 4.42 4.42 0 0 1 1.48-.51 2.2 2.2 0 0 1 1.09.11 1.32 1.32 0 0 1 .4.21 2.53 2.53 0 0 1 .35.28 5.27 5.27 0 0 1 .72.81c.08.11.16.23.24.35a30.33 30.33 0 0 0 2.51 10.48c1.57 3.34 12.75 7.66 16 6.31a30.28 30.28 0 0 0 9.34-6.55 5.82 5.82 0 0 1 1-.13 2.78 2.78 0 0 1 .45 0 1.12 1.12 0 0 1 .44.11 2.16 2.16 0 0 1 .89.64 4.46 4.46 0 0 1 .77 1.36 10.89 10.89 0 0 1 .54 4.14 26.21 26.21 0 0 1-2.53 9.59 38.32 38.32 0 0 1-5.78 8.94 39.77 39.77 0 0 0 8.45-7.16 31 31 0 0 0 6.13-10 18.37 18.37 0 0 0 1.14-6.56A13.14 13.14 0 0 0 174 409a11.89 11.89 0 0 0-2.08-3.83 11.48 11.48 0 0 0-1.61-1.63c-.07-.06-.16-.11-.23-.17a81.34 81.34 0 0 0 8.62-16.82c8.37-21.94-4.17-46.97-4.17-46.97zm-2 33a9.6 9.6 0 1 1-5.59-12.37 9.6 9.6 0 0 1 5.54 12.33zM677 211.76A111.28 111.28 0 0 0 658.18 194c.13-.2.28-.41.41-.62a16.64 16.64 0 0 0 1.35-2.85 16.45 16.45 0 0 0 .93-5.93 18.62 18.62 0 0 0-.94-5.25 25.56 25.56 0 0 0-4.5-8 42.64 42.64 0 0 0-12.56-10.17 54.79 54.79 0 0 0-14.26-5.41 52.81 52.81 0 0 1 11.6 8.94 36 36 0 0 1 7.68 11.29 15.13 15.13 0 0 1 1.21 5.62 6 6 0 0 1-.38 2.12 3 3 0 0 1-.86 1.23 1.94 1.94 0 0 1-.52.35 3.19 3.19 0 0 1-.57.23 7.78 7.78 0 0 1-1.46.31h-.59a41.71 41.71 0 0 0-14.27-4c-5.07-.35-17.77 10.19-18.35 15a41.71 41.71 0 0 0 1.6 15.63 8.27 8.27 0 0 1-.53 1.34 5.13 5.13 0 0 1-.33.53 1.77 1.77 0 0 1-.43.45 3 3 0 0 1-1.36.64 6.2 6.2 0 0 1-2.15 0 15 15 0 0 1-5.34-2.13 36.15 36.15 0 0 1-9.83-9.47 52.27 52.27 0 0 1-6.87-12.94 55 55 0 0 0 2.94 15 42.67 42.67 0 0 0 7.93 14.09 25.47 25.47 0 0 0 7.12 5.78 18.27 18.27 0 0 0 5 1.81 16.38 16.38 0 0 0 6 .08 15.18 15.18 0 0 0 3-.85l.36-.16a112 112 0 0 0 14.43 21.65c20.79 24.65 59.3 26.37 59.3 26.37s4.86-38.27-15.94-62.92zm-3.63 39.9A13.21 13.21 0 1 1 675 233a13.21 13.21 0 0 1-1.63 18.66z"/><path class="cls-5" d="M417.6 102.65c-.07-.47-.05-.68-.18-1.35-.1-.47-.16-.95-.3-1.4a17.27 17.27 0 0 0-2.28-5 25 25 0 0 0-7.1-6.9 48.06 48.06 0 0 0-15.16-6.1 65.48 65.48 0 0 0-12.24-1.64 71.84 71.84 0 0 0-7.89 0l-2.77.21 2.77.22c1.8.18 4.44.42 7.74 1a88.5 88.5 0 0 1 11.64 2.89 45.12 45.12 0 0 1 13.46 6.85 20.57 20.57 0 0 1 5.45 5.95 13 13 0 0 1 1.41 3.7c.09.32.1.65.16 1 0 .13.07.73.1 1.08a16.78 16.78 0 0 1 0 2.06c-.42 5.7-4.17 11.31-9.09 15.93s-11.23 8.25-17.94 11.13a74.53 74.53 0 0 1-21 5.78c-7.35.67-14.92.48-21.44-1.42A16.44 16.44 0 0 1 335 132a6.28 6.28 0 0 1-1.29-6.69l.08-.22v-.11l.27-.53a6.54 6.54 0 0 1 .59-1c.17-.24.34-.47.49-.72l.7-.84a23 23 0 0 1 2.66-2.58 10.38 10.38 0 0 0-.86 3.14 9 9 0 0 0 0 1.89l.15 1 .21.66a10.65 10.65 0 0 0 4.64 5.73 24.47 24.47 0 0 0 11.5 3.28 49.93 49.93 0 0 0 11.89-.73c1-.17 2.1-.42 3-.64 1.09-.27 2.08-.55 3.1-.87a55.19 55.19 0 0 0 6-2.3 50.44 50.44 0 0 0 11.45-7 28.05 28.05 0 0 0 5.11-5.44 16.29 16.29 0 0 0 3-8 13.85 13.85 0 0 0-.4-4.59l-.16-.54-.23-.7-.31-.77a15.18 15.18 0 0 0-1.11-2.12 18.65 18.65 0 0 0-6.06-5.84A36.08 36.08 0 0 0 375 90.88c-9.82-1.13-19.79.34-28.93 3.11-9.35 2.78-18.37 7-25.83 13.44a40.75 40.75 0 0 0-9.24 11.45 27.2 27.2 0 0 0-3.44 14.32 24.67 24.67 0 0 0 4.91 13.39 34.15 34.15 0 0 0 10.08 8.73 66.32 66.32 0 0 0 21.94 7.84 136.19 136.19 0 0 0 34.13 1.16c4.1-.31 7.29-.82 9.45-1.14l3.31-.58-3.35.21c-2.19.08-5.39.22-9.47.18s-9-.23-14.63-.79a141.81 141.81 0 0 1-18.6-3.06c-6.61-1.74-13.71-4-20.17-8.09a29.24 29.24 0 0 1-8.29-7.54 19.09 19.09 0 0 1-3.56-10.51c-.19-7.63 4.59-15.32 11.08-20.73s14.95-9.23 23.5-11.58c8.75-2.47 17.69-3.5 26.15-2.37a28.74 28.74 0 0 1 11.3 3.76c3.1 2 4.73 4.75 4.42 7.32a9.61 9.61 0 0 1-2.7 5.21c0-.34.07-.7.07-1.1a12 12 0 0 0-.09-1.36l-.06-.37v-.28l-.07-.33v-.07a10.06 10.06 0 0 0-2.46-4.36 13.68 13.68 0 0 0-3.8-2.75c-5.43-2.55-11.34-2.76-17.5-2.24a60.65 60.65 0 0 0-9.48 1.67 52.28 52.28 0 0 0-9.67 3.78 51.41 51.41 0 0 0-9.26 5.86 30.64 30.64 0 0 0-4.29 4.12l-1 1.22-1 1.51a11.21 11.21 0 0 0-.72 1.31l-.3.6v.08a1.48 1.48 0 0 0-.14.31l-.08.21-.15.42a13.46 13.46 0 0 0-.66 7.29 14.3 14.3 0 0 0 3.25 6.55 23.42 23.42 0 0 0 11.21 6.82c8.01 2.28 16.14 2.3 24.14 1.5a75.17 75.17 0 0 0 23-6.71c7.1-3.34 13.91-7.44 19.39-12.85a39.72 39.72 0 0 0 7-9 24.89 24.89 0 0 0 3.23-10.9 22.19 22.19 0 0 0-.02-2.89z"/><path class="cls-6" d="M796.41 440.48c-5.41 36.52-29.84 75.64-36.18 86.45-11 18.72-1.54 33.71 9.76 37.08s25.53-1.53 28.48-18.85c8.53-50.16-2.06-104.68-2.06-104.68zm-16 91.31a13.34 13.34 0 1 1-16.6 9 13.34 13.34 0 0 1 16.65-9z"/></svg>