<svg xmlns="http://www.w3.org/2000/svg" viewBox="160 -37.1 915 915"><path fill="#03709C" d="M443.2 217.8c-2.5-1.7-9.7 4-17.4 13.5l-11.6.7c-.1 0-.2-.1-.3-.1-.2-.1-.6.3-1.2.9-.5-.3-1.7-1.1-2.1-1.2-.3-.2-.9.2-1.3.9s-.6 1.4-.3 1.6h.1l2 1.3c-.3.6-.4 1.1-.2 1.2l.2.2 3.8 10c-6.9 11.5-10.3 21.2-7.6 23.1.4.2.8.3 1.3.3l-.1.1c6 .3 15.4-2.6 23.3-8.3 1.8.7 3.8 1 5.7 1l4.4 6.1 1.1-.6 1.6 2.5.9-.6.4 7 1.3-.8-.3-4.6 2.2 3.4 6.6-4.3-2.3-3.6 4.5 2.2 1.3-.9-6.3-3.1 1-.7-1.6-2.5 1-.8-7-11.9c-.3-.1-2.1-.7-2.9-1 5.3-10.8 4.2-22.7.5-30.2-.2-.4-.4-.6-.7-.8zm-26 25.4l-1.5 2.4-2.7-6.8.1-1.3.1-.1c.1 0 .1-.1.3-.1.9 1.3 2.3 3.5 3.7 5.9zm23.7 9.7l1.9.4-.8 3.7-3.7-.6c.7-.8 1.4-1.7 2-2.5.2-.4.4-.7.6-1zm-6.8 7.4c.3-.3.6-.5.9-.8l.8 1.1c-.5-.1-1.1-.2-1.7-.3zm-14.7-20.5c-.5.7-1 1.5-1.5 2.2l-3.4-5.2c.4-.2.7-.4.8-.7.1-.2.2-.5.2-.8l5.7 1.7c-.5 1-1.1 1.9-1.8 2.8zm-3.8-5.3c0-.2-.1-.4-.1-.5.2-.2.9-.8.9-.8l8.3-.5c-.9 1.1-1.8 2.3-2.6 3.5l-6.5-1.7zm23.8 26l-2.7-2.7.9-.9 4.2.7-.5 2.4c-.6.3-1.3.5-1.9.5zm5.9 1.8l-2.5 1.7-1.5-1.5c1.3-.3 2.5-.8 3.7-1.4l.3 1.2zm-.5-3.7c-.8.5-1.7.9-2.6 1.3l.4-2 2.1.4.1.3zm-.2-1.2l-1.9-.3.8-3.7.5.1.6 3.9z"/><path fill="#C828BD" d="M361.8 601.4c-23.7 0-42.9 19.2-42.9 42.9s19.2 42.9 42.9 42.9 42.9-19.2 42.9-42.9-19.2-42.9-42.9-42.9zm-28.3 62.7c-1.3 0-2.3-1-2.3-2.3s1-2.3 2.3-2.3 2.3 1 2.3 2.3-1 2.3-2.3 2.3zm18.4-24.5c-1.3 0-2.3-1-2.3-2.3s1-2.3 2.3-2.3 2.3 1 2.3 2.3-1 2.3-2.3 2.3zm26.8 32.2c-3.4 0-6.1-2.7-6.1-6.1 0-3.4 2.7-6.1 6.1-6.1 3.4 0 6.1 2.7 6.1 6.1s-2.7 6.1-6.1 6.1zm-4.6-32.2c-5.9 0-10.7-4.8-10.7-10.7s4.8-10.7 10.7-10.7 10.7 4.8 10.7 10.7-4.8 10.7-10.7 10.7z"/><g fill="#03709C"><circle cx="204.9" cy="377.7" r="9.8"/><circle cx="898.1" cy="545.2" r="9.8"/><circle cx="678" cy="695.8" r="5.5"/><circle cx="354.6" cy="133.6" r="4.5"/><path d="M609.5 56.1c0 2-1.6 3.6-3.6 3.6s-3.6-1.6-3.6-3.6 1.6-3.6 3.6-3.6c2-.1 3.6 1.6 3.6 3.6z"/><circle cx="833" cy="275.3" r="7.1"/><path d="M733.9 721.4c0 12.2-9.9 22.1-22.1 22.1-12.2 0-22.1-9.9-22.1-22.1 0-12.2 9.9-22.1 22.1-22.1 12.2-.1 22.1 9.8 22.1 22.1z"/><circle cx="223.6" cy="401.8" r="3.6"/></g><path fill="#03709C" d="M329.5 595.9l-3-4.7 1-.6 2.9 4.8M322.1 584.1l-5.5-9.7 1.3-.8 5.3 9.8M312.7 566.9l-4.9-10 1.8-.8 4.6 10.1M304.4 549.1l-4.1-10.3 2.1-.8 4 10.4M297.4 530.8l-3.4-10.6 2.5-.8 3.3 10.7M291.7 512.1l-2.7-10.8 3-.7 2.4 10.8M287.2 493l-1.9-11 3.4-.6 1.7 11M284.1 473.6l-1.1-11.1 3.7-.4 1 11.1M282.4 454l-.5-11.1 4.2-.2.2 11.2M281.9 434.3l.4-11.1 4.5.2-.6 11.1M282.8 414.7l1.1-11.1 4.9.5-1.3 11.1M285.1 395.1l1.8-11 5.2 1-2 10.9M288.6 375.8l2.7-10.9 5.4 1.4-2.8 10.8M293.6 356.7l3.3-10.6 5.6 1.8-3.5 10.5M315.9 302l5.5-9.7 5.8 3.3-5.6 9.7M325.8 284.9l6.1-9.3 5.8 3.9-6.2 9.2M336.8 268.6l6.8-8.9 5.7 4.4-6.8 8.8M349 253l7.3-8.4 5.7 5-7.5 8.3M362.2 238.3l7.9-7.9 5.5 5.5-8 7.8M376.4 224.5l8.4-7.4 5.3 6.2-8.5 7.2M391.5 211.7l8.9-6.8 5 6.7-9 6.7M407.4 200s2.3-1.6 4.6-3.1c2.4-1.5 4.8-3.1 4.8-3.1l4.6 7.3s-2.3 1.5-4.7 2.9c-2.3 1.5-4.7 3-4.7 3l-4.6-7zM424.1 189.3l9.7-5.5 4.4 7.8-9.8 5.4M441.5 179.7l10.1-4.8 4 8.5-10.2 4.6M459.5 171.4l10.4-4.2 3.5 9.1-10.4 4M478.1 164.3l10.6-3.4 3 9.6-10.7 3.2M497.1 158.5l10.8-2.7 2.4 10.2-10.8 2.5M516.5 154l11-1.9 1.7 10.6-11 1.8M536.1 150.9l11.1-1.1 1.1 10.9-11.2 1M555.9 149.2l11.2-.4.3 11.2-11.2.2M575.8 148.9l11.2.5-.5 11-11.1-.4M595.7 150.1l11.1 1.2-1.2 10.9-11.1-1.2M615.4 152.6l11 2-1.9 10.6-11-1.9M634.9 156.5l10.8 2.8-2.5 10.1-10.9-2.6M654 161.8l10.6 3.5-3.1 9.5-10.6-3.3M672.8 168.3l10.3 4.3-3.6 8.8-10.4-4M691 176.2l9.9 5-3.8 8-10.2-4.7M708.5 185.3l9.6 5.7-4 7.2-9.8-5.4M725.4 195.7l9.2 6.3-4.1 6.2-9.5-5.9M741.5 207.2l8.7 7-4 5.2-9-6.6M756.7 219.8l8.2 7.5-3.8 4.3-8.5-7.2M771 233.3l7.6 8.2-3.3 3.3-8.1-7.7M784.2 247.9l7 8.7-2.6 2.3-7.6-8.3M796.3 263.4l6.4 9.1-1.8 1.3-7-8.7M807.4 279.8l2.8 4.8-.8.6-3.3-4.5"/><g><path fill="#03709C" d="M927 556.3l-2.3 5.1-1-.5 2.4-5M921.1 569l-5.2 9.8-1.4-.7 5.4-9.8M911.7 586.2l-5.8 9.5-1.6-1.1 6-9.3M901.2 602.7l-6.5 9.1-1.8-1.4 6.6-8.9M889.6 618.5l-7.1 8.6-2-1.7 7.2-8.5M876.9 633.4l-7.7 8.2-2.1-2.2 7.8-7.9M863.2 647.5l-8.2 7.6-2.3-2.6 8.4-7.4M848.6 660.6l-8.7 7-2.4-3 8.9-6.8M833.1 672.7l-9.2 6.3-2.3-3.4 9.2-6.2M816.8 683.7l-9.6 5.7-2.3-3.9 9.7-5.6M799.7 693.5l-9.9 5.1-2.2-4.4 10-4.9M782.1 702.2l-10.3 4.4-2-4.9 10.3-4.2M763.8 709.6l-10.5 3.7-1.8-5.3 10.6-3.5M745.1 715.8l-10.7 2.9-1.5-5.6 10.8-2.8M726 720.7l-10.9 2.2-1.1-6 10.9-2.1M706.7 724.3l-11.1 1.4-.8-6.4 11.1-1.2M687.1 726.5l-11.2.7-.3-6.7 11.1-.5M667.3 727.4l-11.1-.1.1-6.9 11.1.2M647.6 727l-11.1-.9.6-7.2 11.1 1M627.9 725.2l-11-1.6 1.1-7.5 11 1.8M608.4 722l-10.9-2.3 1.7-7.7 10.9 2.6M589.1 717.5l-10.7-3.1 2.3-7.7 10.7 3.2M570.2 711.7l-10.5-3.8 3-7.8 10.4 3.9M551.7 704.7s-2.6-1.1-5.1-2.2c-2.6-1.2-5.2-2.3-5.2-2.3l3.7-7.9 5 2.4c2.5 1.1 5.1 2.3 5.1 2.3l-3.5 7.7zM533.7 696.4l-9.9-5.2 4.3-8 9.8 5.4M516.3 686.9l-9.5-5.8 5-8 9.4 6M499.5 676.2l-9-6.4 5.7-7.9 8.9 6.6M483.5 664.5l-8.6-7.1 6.5-7.8 8.5 7.3M468.4 651.6l-8.1-7.7 7.2-7.5 8 7.8M454.2 637.7l-7.6-8.2 8-7.2 7.4 8.3M441 622.8l-7-8.7 8.6-6.7 6.8 8.8M428.8 607.1l-6.3-9.2 9.2-6.3 6.2 9.3M417.8 590.5l-5.6-9.6 9.5-5.6 5.7 9.6M408.1 573.2l-5-10 9.8-4.9 5 10M399.5 555.2l-4.2-10.3 9.9-4.1 4.3 10.3M392.3 536.7l-3.5-10.6 9.8-3.3 3.7 10.5M386.4 517.8l-2.8-10.8 9.7-2.6 2.9 10.8M381.8 498.5l-2-11 9.3-1.8 2.3 10.9M378.6 478.9l-1.2-11.1 8.8-1.1 1.6 11.1M376.8 459.2l-.5-11.2 8.3-.4.8 11.1M376.3 439.4l.4-11.2 7.5.1.1 11.2M377.3 419.6l1.2-11 6.5.5-.6 11.1M379.7 400.1l2-11 5.5.8-1.4 11.1M383.4 380.7l2.8-10.8 4.5 1-2.1 11M388.6 361.7l3.5-10.6 3.3 1-2.9 10.8M395 343.2l4.3-10.4 2 .8-3.5 10.6M402.9 325l2.4-5.1 1 .5-2 5.2"/></g><g><path fill="#03709C" d="M591.9 84.1l5.6-.5.1 1.2-5.6.4M605.9 83.1l11.1-.4.1 1.6-11.2.1M625.5 82.8l11.1.4-.1 1.9-11.1-.6M645 83.8l11.1 1.2-.2 2.3-11.1-1.4M664.5 86.2l11 1.9-.5 2.6-11-2.1M683.8 89.9l10.8 2.6-.8 3-10.8-2.9M702.7 94.9l10.6 3.4-1 3.2-10.6-3.6M721.3 101.2l10.4 4.1-1.5 3.5-10.2-4.3M739.5 108.8l10 4.8-1.8 3.7-10-5M757 117.6l9.7 5.5-2.3 3.9-9.5-5.7M774 127.6l9.3 6.1-2.8 4.1-9.1-6.4M790.2 138.7l8.9 6.8-3.3 4.1-8.7-6.9M805.7 150.9l8.3 7.4-3.7 4.1-8.2-7.5M820.2 164.2l7.9 7.9-4.2 4.1-7.7-8.1M858.1 209.5l6.1 9.3-5.7 3.6-5.9-9.4M868.6 226.2l5.4 9.8-6.1 3.3-5.3-9.8M877.9 243.6l4.7 10.1-6.6 3-4.5-10.1M886 261.6l4 10.4-7 2.7-3.9-10.4M892.8 280.2l3.3 10.7-7.4 2.2-3.2-10.7M898.4 299.2L901 310l-7.9 1.8-2.4-10.9M902.6 318.5l1.9 11-8.3 1.3-1.7-11M905.6 338.1s.3 2.8.6 5.5c.3 2.8.5 5.6.5 5.6l-8.7.7s-.2-2.7-.4-5.5c-.3-2.8-.5-5.6-.5-5.6l8.5-.7zM907.2 357.9l.3 11.1-9 .2-.1-11.2M907.5 377.7l-.4 11.1-9.4-.4.6-11.1M906.5 397.5l-1.2 11.1-9.7-1.1 1.4-11.1M904.1 417.2l-2 11-9.9-1.8 2.1-11M900.3 436.7l-2.7 10.9-10.1-2.7 2.9-10.7M895.2 456l-3.5 10.6-10.1-3.4 3.6-10.6M888.7 474.8l-4.1 10.3-10.1-4.2 4.3-10.2M881 493.1l-4.9 10-10-4.9 5-10M872 510.8l-5.7 9.6-9.5-5.5 5.6-9.7M861.7 527.8l-6.3 9.2-9-6.1 6.2-9.2M850.2 544.1l-6.9 8.7-8.5-6.6 6.9-8.8M837.7 559.5l-7.6 8.2-7.7-6.9 7.4-8.4M824.1 573.9l-8.1 7.7-7-7.1 7.9-7.9M809.5 587.4l-8.6 7.1-6.2-7.2 8.5-7.3M794 599.8l-9.1 6.5-5.2-7.1 8.8-6.8M777.7 611.1l-9.5 5.9-4.4-7 9.3-6.2M760.7 621.2l-9.9 5.1-3.6-6.5 9.7-5.6M743 630l-10.2 4.4-2.7-5.9 10-4.9M724.8 637.6l-10.5 3.7-2-5.3 10.3-4.2M706.1 643.8l-10.7 3-1.4-4.5 10.6-3.5M687.1 648.7l-11 2.1-.8-3.3 10.8-2.8M667.7 652.2l-11.1 1.4-.3-2.2 11-2.1M648 654.3l-5.6.3-.1-1.1 5.6-.7"/></g><circle fill="#FFF" cx="618.4" cy="419.6" r=".4"/><path fill="#03709C" d="M322.1 296.3s-27.2 11-35.8 33.9c-2.5 6.6-4.1 13.1-4.8 19.1h-.6c-.9 0-1.6 0-2.4.2-1.6.3-3 .8-4.3 1.6-1.2.7-2.3 1.6-3.1 2.6-1.7 1.9-2.8 3.9-3.6 6-1.6 4.1-2.1 8.1-2.1 12.1s.6 7.8 1.7 11.5c0-3.8.6-7.5 1.6-11s2.6-6.8 4.6-9.3c1-1.2 2.2-2.3 3.3-2.9.6-.3 1.1-.5 1.5-.5.5-.1.8 0 1.1.1.1.1.4.1.4.2.1.1.2.2.4.3.2.2.5.5.8.9.1.1.2.2.3.4.3 4.2 1.2 8 2.6 11 1.6 3.5 13.4 8 16.8 6.6 3.2-1.3 6.5-3.7 9.8-6.9.4-.1.8-.1 1.1-.1h.5c.1 0 .3.1.5.1.3.1.6.3.9.7.3.3.6.8.8 1.4.4 1.2.6 2.7.6 4.3-.1 3.2-1.1 6.7-2.6 10s-3.6 6.5-6 9.4c3.2-2 6.2-4.5 8.8-7.5 2.6-3 4.9-6.4 6.4-10.5.7-2.1 1.2-4.3 1.2-6.9 0-1.3-.2-2.6-.7-4-.4-1.4-1.2-2.8-2.2-4-.5-.6-1-1.1-1.7-1.7-.1-.1-.2-.1-.2-.2 3.4-5 6.5-11 9-17.6 8.5-23.1-4.6-49.3-4.6-49.3zm-2.2 34.5c-2 5.2-7.8 7.8-12.9 5.9-5.2-2-7.8-7.8-5.8-12.9 2-5.2 7.7-7.8 12.9-5.9 5.2 1.9 7.8 7.7 5.8 12.9zM848.1 162.5c-6.2-7.4-13-13.7-19.7-18.6.1-.2.3-.4.4-.6.6-1 1-1.9 1.4-3 .7-2.1 1-4.2 1-6.2-.1-2-.4-3.8-1-5.5-1.1-3.3-2.8-6-4.7-8.4-3.8-4.6-8.4-8-13.1-10.6-4.8-2.6-9.8-4.5-14.9-5.7 4.5 2.6 8.6 5.8 12.1 9.4 3.5 3.6 6.4 7.7 8 11.8.8 2.1 1.3 4.1 1.3 5.9 0 .9-.2 1.6-.4 2.2-.2.6-.6 1-.9 1.3-.2.1-.4.3-.5.4-.2.1-.4.2-.6.2-.4.1-.9.2-1.5.3-.2 0-.4 0-.6.1-5.3-2.4-10.4-3.9-14.9-4.2-5.3-.4-18.6 10.7-19.2 15.7-.6 4.8 0 10.3 1.7 16.4-.2.6-.4 1-.6 1.4l-.3.6c0 .1-.3.3-.4.5-.3.3-.8.5-1.4.7-.6.1-1.4.1-2.3 0-1.7-.3-3.7-1.1-5.6-2.2-3.8-2.3-7.3-5.9-10.3-9.9s-5.4-8.6-7.2-13.5c.3 5.2 1.3 10.5 3.1 15.7 1.8 5.1 4.3 10.2 8.3 14.7 2 2.2 4.4 4.4 7.4 6.1 1.5.8 3.3 1.5 5.3 1.9 1.9.4 4.1.5 6.3.1 1.1-.2 2.1-.4 3.2-.9.1 0 .3-.1.4-.2 3.8 7.5 8.8 15.2 15.1 22.7 21.8 25.8 62.1 27.6 62.1 27.6s4.7-40.4-17-66.2zm-3.8 41.7c-5.8 4.9-14.6 4.2-19.5-1.7-4.9-5.8-4.2-14.6 1.7-19.5 5.8-4.9 14.6-4.2 19.5 1.6 4.8 6 4.1 14.7-1.7 19.6z"/><path fill="#72C800" d="M576.5 48.2c-.1-.5-.1-.7-.2-1.4l-.3-1.5c-.5-1.9-1.4-3.7-2.4-5.3-2.1-3.1-4.7-5.4-7.4-7.2-5.5-3.5-11-5.2-15.9-6.4-4.9-1.2-9.3-1.6-12.8-1.7-3.6-.1-6.4-.1-8.3 0-1.9.1-2.9.2-2.9.2s1 .1 2.9.2c1.9.2 4.6.4 8.1 1s7.6 1.5 12.2 3c4.5 1.5 9.6 3.7 14.1 7.2 2.3 1.7 4.3 3.8 5.7 6.2.7 1.2 1.2 2.5 1.5 3.9.1.3.1.7.2 1 0 .1.1.8.1 1.1v2.2c-.4 6-4.4 11.8-9.5 16.7-5.2 4.9-11.8 8.6-18.8 11.6-7 2.9-14.6 5.3-22 6-7.7.7-15.6.5-22.4-1.5-3.4-1-6.3-2.7-8.2-4.9-1.9-2.2-2.3-4.5-1.4-7l.1-.2v-.1l.3-.5c.2-.4.4-.9.6-1.1s.4-.5.5-.8l.7-.9c.8-1 1.8-1.9 2.8-2.7-.4 1-.8 2-.9 3.3-.1.6-.1 1.3 0 2l.2 1 .2.8c1 3 2.9 4.7 4.9 6 3.9 2.4 8 3.1 12 3.4 4.1.3 8.2 0 12.4-.8 1-.2 2.2-.4 3.1-.7 1.1-.3 2.2-.6 3.2-.9 2.1-.7 4.2-1.5 6.3-2.4 4.2-1.9 8.1-4.2 12-7.3 1.9-1.6 3.8-3.4 5.3-5.7 1.6-2.3 2.9-5.1 3.2-8.4.1-1.6 0-3.3-.4-4.8l-.2-.6-.2-.7-.3-.8c-.3-.7-.8-1.6-1.2-2.2-1.7-2.7-4-4.6-6.3-6.1-4.8-2.9-10-4.2-15.2-4.8-10.3-1.2-20.7.4-30.3 3.3-9.8 2.9-19.2 7.3-27 14.1-3.9 3.4-7.2 7.4-9.7 12-2.5 4.5-3.9 9.8-3.6 15s2.3 10.2 5.1 14c3 4 6.7 6.9 10.5 9.1 7.7 4.4 15.6 6.9 23 8.2 14.8 2.5 27.2 1.9 35.7 1.2 4.3-.3 7.6-.9 9.9-1.2 2.3-.4 3.5-.6 3.5-.6s-1.2.1-3.5.2-5.6.2-9.9.2c-4.3 0-9.4-.2-15.3-.8-5.9-.7-12.5-1.5-19.5-3.2-6.9-1.8-14.4-4.2-21.1-8.5-3.3-2.1-6.5-4.8-8.7-7.9-2.3-3.3-3.6-7.1-3.7-11.1-.2-8 4.8-16 11.6-21.7 6.9-5.8 15.6-9.7 24.6-12.1 9.2-2.6 18.5-3.7 27.4-2.5 4.4.6 8.6 1.9 11.8 3.9 3.2 2 5 5 4.6 7.7-.1 1.8-1.2 3.7-2.8 5.5 0-.4.1-.7.1-1.2s0-1.1-.1-1.4l-.1-.4V57.1l-.1-.3v-.1c-.4-1.7-1.4-3.3-2.6-4.6-1.2-1.2-2.6-2.2-4-2.9-5.7-2.7-11.9-2.9-18.3-2.3-3.2.3-6.6.9-9.9 1.7-3.5.9-6.8 2.3-10.1 4-3.3 1.6-6.6 3.6-9.7 6.1-1.6 1.2-3.1 2.7-4.5 4.3l-1 1.3-1 1.6c-.4.6-.5.9-.8 1.4l-.3.6v.1c-.2.5-.1.2-.1.3l-.1.2-.2.4c-.9 2.3-1.2 5-.7 7.6s1.8 5 3.4 6.9c3.2 3.7 7.5 5.9 11.7 7.1 8.5 2.4 17 2.5 25.4 1.6 8.6-1 16.7-3.6 24.1-7 7.4-3.5 14.6-7.8 20.3-13.5 2.9-2.8 5.4-5.9 7.4-9.4 1.9-3.5 3.2-7.4 3.4-11.4-.1-.5-.1-1.6-.2-2.6z"/><path fill="#00A8DE" d="M941.8 486.6c-15.1 10.5-13.4 26.2-5.2 35.4s26.6 11.5 39.5-7.3c7.4-10.8 33.6-51.4 65.8-72.8 0 0-56.3 14.2-100.1 44.7zm18.4 31.3c-5.7 5.1-14.6 4.6-19.7-1.1s-4.6-14.6 1.1-19.7c5.7-5.1 14.6-4.6 19.7 1.1 5.1 5.7 4.6 14.6-1.1 19.7z"/></svg>