<svg id="Layer_3" xmlns="http://www.w3.org/2000/svg" viewBox="-182 -57 915 915"><style>.st0{fill:#FFFFFF;} .st1{fill:#03709C;} .st2{display:none;fill:#03709C;} .st3{fill:#C8D9DB;}</style><circle class="st0" cx="277" cy="402.3" r="207.3"/><path class="st1" d="M275.5 424.5c-5.9 0-10.5 4.7-10.5 10.6v50.1c0 5.9 4.6 10.6 10.5 10.6s10.5-4.7 10.5-10.6v-50.1c0-5.9-4.6-10.6-10.5-10.6zM417 425h-10v29h10c5.9 0 12-4.2 12-10.1v-8.2c0-5.9-6.1-10.7-12-10.7zM344.5 424.5c-5.9 0-9.5 4.7-9.5 10.6v50.1c0 5.9 3.6 10.6 9.5 10.6s9.5-4.7 9.5-10.6v-50.1c0-5.9-3.6-10.6-9.5-10.6zM211.1 314H201v26h10.1c5.6 0 10.9-4.9 10.9-10.5v-7.8c0-5.6-5.3-7.7-10.9-7.7z"/><path class="st1" d="M275.5 183.4c-119.9 0-217.1 97.2-217.1 217.1 0 119.9 97.2 217.1 217.1 217.1s217.1-97.2 217.1-217.1c0-120-97.2-217.1-217.1-217.1zm129 114.6h27.9c3.8 0 6.7 4.4 6.7 8 0 3.8-2.9 8-6.7 8H413v22h16.6c3.8 0 6.7 3.9 6.7 7.5 0 3.8-2.9 7.5-6.7 7.5H413v28h19.4c3.8 0 6.7 3.4 6.7 7 0 3.8-2.9 7-6.7 7h-27.9c-3.6 0-5.5-4.4-5.5-8.2v-79.9c0-3.6 1.9-6.9 5.5-6.9zm-67.9-46.7c2.1 0 3.8 1.7 3.8 3.8 0 2.1-1.7 3.8-3.8 3.8-2.1 0-3.8-1.7-3.8-3.8-.1-2.1 1.6-3.8 3.8-3.8zm-192 109l-22.3-22.9c-4.8-4.7-7.1-11.5-6.6-18.1.6-6.7 3.9-12.9 9.2-16.9 5.3-4.1 12.3-5.6 18.9-4.3 6.6 1.4 12.3 5.4 15.6 11.3 1.8 3.2.7 7.3-2.5 9.2-3.2 1.8-7.3.7-9.1-2.5-1.5-2.5-3.9-4.2-6.7-4.9-2.9-.6-5.7.1-8.1 2-2.4 1.7-3.8 4.3-3.9 7.3-.3 2.8.7 5.6 2.8 7.7l22.2 22.9c4.9 5 7.4 11.9 6.8 18.7-.6 7-4 13.3-9.5 17.5-5.6 4.2-12.6 5.7-19.4 4.5-6.8-1.4-12.7-5.7-16.1-11.6-2-3.2-.8-7.4 2.4-9.2 3.2-1.8 7.3-.7 9.2 2.5 1.5 2.7 4.1 4.5 7.1 5.2 3.1.6 6.1-.1 8.7-2.1 2.5-1.8 3.9-4.6 4.2-7.7.3-3.2-.8-6.3-2.9-8.6zm18.8 126.1c-.6 7.4-4.3 14-10 18.4-5.9 4.4-13.3 6-20.5 4.7-7.2-1.5-13.4-6-16.9-12.2-2.1-3.4-.9-7.8 2.5-9.7 3.4-1.9 7.7-.7 9.7 2.7 1.6 2.8 4.3 4.7 7.5 5.4 3.2.6 6.5-.1 9.1-2.2 2.7-1.9 4.1-4.9 4.4-8.1.3-3.2-.9-6.5-3.1-8.8l-23.6-24.2c-5-5-7.5-12.1-6.9-19.1.6-7.1 4.1-13.6 9.7-17.8 5.6-4.3 13-5.9 19.9-4.6 6.9 1.5 13 5.7 16.5 11.9 1.9 3.4.7 7.7-2.7 9.7-3.4 1.9-7.7.7-9.6-2.7-1.6-2.7-4.1-4.4-7.1-5.2-3.1-.6-6 .1-8.5 2.1-2.5 1.8-4 4.6-4.1 7.7-.3 2.9.7 5.9 2.9 8.1l23.4 24.2c5.3 5.2 8 12.4 7.4 19.7zm-1.9-225.6c-1.4 0-2.6-1.1-2.6-2.6 0-1.4 1.1-2.6 2.6-2.6 1.4 0 2.6 1.1 2.6 2.6-.1 1.5-1.2 2.6-2.6 2.6zM195.9 580c-2.1 0-3.8-1.7-3.8-3.8 0-2.1 1.7-3.8 3.8-3.8 2.1 0 3.8 1.7 3.8 3.8.1 2.1-1.6 3.8-3.8 3.8zm32.7-82.4C223 507.3 211.9 512 201 509c-10.8-2.8-18-12.7-18-23.9V435c0-11.2 7.3-21.1 18-23.9 10.9-2.9 22.1 1.8 27.7 11.5 2.1 3.4.8 7.7-2.6 9.7-3.4 1.9-7.7.7-9.7-2.7-2.4-4.1-7.1-6.2-11.8-4.9-4.6 1.2-7.7 5.4-7.7 10.2V485c0 4.9 3.1 9 7.6 10.3 4.7 1.2 9.5-.9 11.8-5 2.1-3.4 6.3-4.6 9.7-2.7 3.6 2.3 4.7 6.6 2.6 10zm7.4-168.1c0 13-11.9 25.5-24.9 25.5H201v30.3c0 3.8-2.9 6.7-6.5 6.7-3.8 0-6.5-2.9-6.5-6.7v-80.4c0-3.6 2.6-6.9 6.3-6.9h16.8c13 0 24.9 10.7 24.9 23.7v7.8zM266.2 580c-9.9 0-17.9-8-17.9-17.9 0-9.9 8-17.9 17.9-17.9 9.9 0 17.9 8 17.9 17.9-.1 9.9-8.1 17.9-17.9 17.9zm32.8-94.8c0 13.7-11.3 24.7-25 24.7s-25-11-25-24.7v-50.1c0-13.7 11.3-24.7 25-24.7s25 11 25 24.7v50.1zm2.2-110.1c-3.6 1-7.3-1.1-8.2-4.6 0 0-.3-1.1-.8-2.9l-1.5-4.9c-.5-1.9-1.1-2.6-1.7-5.6l-10.3-37.6c-.5-2-1.1-4.2-1.6-6.1-.4 1.6-.9 3.6-1.3 5.3L265.2 357c-2.4 7-4.1 14.1-4.1 14.1-1 3.5-4.6 5.3-8.2 4.3-3.5-1-5.6-4.8-4.6-8.4l22.3-81.1c.7-2.9 3.4-4.9 6.4-4.9 3.1 0 5.7 1.9 6.4 4.9l22.3 81c1.1 3.6-1 7.2-4.5 8.2zM369 485.2c0 13.7-10.8 24.7-24.5 24.7s-24.5-11-24.5-24.7v-50.1c0-13.7 10.8-24.7 24.5-24.7s24.5 11 24.5 24.7v50.1zm2.4-104.9c-5.3 9.2-16.4 13.7-26.8 10.9-10.2-2.7-17.7-12-17.7-22.6v-47.5c0-10.6 7.5-20 17.7-22.6 10.3-2.8 21.3 1.7 26.6 10.9 1.9 3.2.9 7.3-2.3 9.2-3.2 1.8-7.2.7-9.2-2.5-2.2-3.9-6.4-5.9-10.9-4.6-4.3 1.1-6.9 5.2-6.9 9.6v47.5c0 4.6 2.6 8.5 7 9.8 4.5 1.1 8.9-.8 11.1-4.8 2-3.2 5.9-4.3 9.1-2.5 3.3 2 4.3 6 2.3 9.2zm-8.5-123.8c0-9.9 8-17.9 17.9-17.9 9.9 0 17.9 8 17.9 17.9 0 9.9-8 17.9-17.9 17.9-9.9-.1-17.9-8.1-17.9-17.9zm66.7 239.3c-1.4 0-2.6-1.1-2.6-2.6 0-1.4 1.1-2.6 2.6-2.6 1.4 0 2.6 1.1 2.6 2.6-.1 1.4-1.2 2.6-2.6 2.6zM417 469h-10v33.9c0 4-3.2 7.1-7 7.1-4 0-7-3.1-7-7.1V418c0-3.8 2.4-8 6.3-8H417c13.7 0 26 12 26 25.7v8.2c0 13.7-12.3 25.1-26 25.1z"/><path class="st2" d="M108.2 207.6c-2.4-1.7-9.2 3.8-16.7 12.9l-11 .7c-.1 0-.2-.1-.2-.1-.2-.1-.6.3-1.1.9-.5-.3-1.7-1-2-1.2-.3-.2-.8.2-1.3.9-.4.7-.5 1.3-.3 1.5h.1l1.9 1.2c-.3.6-.4 1-.2 1.1l.2.2 3.6 9.5c-6.6 11-9.8 20.3-7.2 22 .3.2.8.3 1.3.3l-.1.1c5.7.3 14.8-2.5 22.2-7.9 1.8.6 3.6.9 5.5.9l4.2 5.8 1-.5 1.6 2.4.8-.5.4 6.7 1.2-.8-.2-4.4 2.1 3.2 6.3-4.1-2.2-3.4 4.3 2.1 1.2-.8-6.1-3 1-.6-1.6-2.4.9-.8-6.7-11.3c-.3-.1-2-.7-2.8-1 5.1-10.3 4-21.7.5-28.8-.1-.4-.3-.6-.6-.8zm-24.8 24.2c-.5.8-1 1.5-1.4 2.2l-2.5-6.5.1-1.2.1-.1c.1 0 .1-.1.3-.1.7 1.4 2 3.5 3.4 5.7zm22.6 9.3l1.8.4-.8 3.6-3.6-.6c.7-.8 1.3-1.6 1.9-2.4.3-.4.5-.7.7-1zm-6.4 7.1c.3-.3.6-.5.9-.8l.8 1.1c-.6 0-1.2-.2-1.7-.3zm-14.1-19.5c-.5.7-1 1.4-1.4 2.1l-3.3-5c.4-.2.7-.4.8-.6.1-.2.2-.5.2-.7l5.5 1.6c-.5.8-1.2 1.7-1.8 2.6zm-3.6-5.1c0-.2-.1-.4-.1-.5l.8-.8 7.9-.4c-.8 1.1-1.7 2.2-2.5 3.3l-6.1-1.6zm22.7 24.9l-2.5-2.5c.3-.3.5-.6.8-.8l4 .7-.5 2.3-1.8.3zm5.7 1.7l-2.3 1.6-1.4-1.4c1.2-.3 2.4-.8 3.6-1.4l.1 1.2zm-.6-3.6c-.8.5-1.6.9-2.5 1.2l.4-1.9 2 .4.1.3zm-.1-1.1l-1.8-.3.8-3.5.5.1.5 3.7z"/><g><path class="st1" d="M96.4 213.8c-2.4-1.7-9.2 3.8-16.5 12.8l-10.9.7c-.1 0-.2-.1-.2-.1-.2-.1-.6.3-1.1.9-.5-.3-1.6-1-2-1.2-.3-.2-.8.2-1.2.9-.4.7-.5 1.3-.3 1.5h.1l1.9 1.2c-.3.6-.4 1-.2 1.1 0 .1.1.1.2.2l3.6 9.5c-6.6 10.9-9.7 20.1-7.2 21.9.3.2.8.3 1.3.3l-.1.1c5.7.3 14.6-2.5 22.1-7.8 1.7.6 3.6.9 5.4.9l4.1 5.8 1-.5 1.5 2.4.8-.5.4 6.6 1.2-.8-.2-4.4 2.1 3.2 6.3-4.1-2.2-3.4 4.3 2.1 1.2-.8-6-2.9 1-.6-1.6-2.4.9-.8-6.7-11.3c-.3-.1-2-.7-2.8-1 5-10.2 4-21.5.5-28.6-.3-.5-.5-.7-.7-.9zm-24.7 24.1c-.5.7-1 1.5-1.4 2.2l-2.5-6.4.1-1.2.1-.1c.1 0 .1-.1.2-.1.9 1.2 2.2 3.4 3.5 5.6zm22.5 9.2l1.8.4-.8 3.5-3.5-.6c.7-.8 1.3-1.6 1.9-2.4.2-.4.4-.6.6-.9zm-6.4 7c.3-.3.6-.5.9-.8l.8 1.1c-.6-.1-1.2-.2-1.7-.3zm-13.9-19.4c-.5.7-1 1.4-1.4 2.1l-3.2-5c.4-.2.7-.4.8-.6.1-.2.2-.5.2-.7l5.4 1.6c-.6.9-1.2 1.7-1.8 2.6zm-3.7-5.1c0-.2-.1-.4-.1-.5l.8-.8 7.9-.4c-.8 1.1-1.7 2.2-2.5 3.3l-6.1-1.6zm22.6 24.7l-2.5-2.5c.3-.3.5-.6.8-.8l4 .7-.5 2.3c-.6.1-1.2.3-1.8.3zm5.6 1.7l-2.3 1.6-1.4-1.4c1.2-.3 2.4-.8 3.6-1.4l.1 1.2zm-.5-3.5c-.8.5-1.6.9-2.5 1.2l.4-1.9 2 .4.1.3zm-.2-1.1l-1.8-.3.7-3.5.5.1.6 3.7zM330.6 196.3l4.8-18 27 8.8-14.9-19.8 11.9 2.5-11.9-18.5 9.3 2.4-8.4-15.4 5 1.5-5.9-20.9-15.8 16.1 7.5 1.1-17.3 10.5 10.7 1.6-18.8 12.1 12.3 1.9-23.7 12.5 24.6 1.6-5.3 18z"/><path class="st3" d="M104.7 263.1c8.2-11.7 12.2-26.9 20.3-38.7 15.8-23 41.2-27.7 67-31 5.2-.6 10-.5 15.1-1.8 12.4-3.1 24-11.5 35.5-16.9 13.1-6.1 26.9-9.8 41.3-6.2 11.9 3 21.1 11.4 33.3 14 6.8 1.4 13.8 3.5 20.6 4.4 8.8 1.1 17.9-1.1 26.8-.7 7.8.4 15.7 2.7 23.1 5 18.5 5.8 29.1 17.7 36.3 35.2 5.9 14.3 22.6 16.9 32.7 27.7 6.1 6.4 36.8 42.6 15.4 45.7 1.6 3.4.5 6.7.7 9.5-5.4-4.5-5.3-11.6-9.3-17.1-3.2-4.3-14.4-9.6-13-15.7-9.2 4.1-18.1 1.7-25.3-5.1-7.9-7.4-8.2-15-7.1-24.9-6.8-3.1-14.3-4.8-20.8-9.3-2-1.4-4.4-4.7-6.5-5.4-6.9-2.3-31.2.8-24.4-14.5-5.5 12.3-26.1 9.4-35.1 4.7-2.3-1.2-5.9-4.4-8.8-3.9-2.6.4-4.8 4-8.3 4.4-5.9.7-12.1-3.2-14.7-8.3-2.8 2.6-6 5.7-10 6.1-1.7.2-8.9-.4-8.8-3.4-.6 18.1-28.1 19.2-41.3 16-11-2.6-12.8-2.2-23.8-1.2-7.5.7-16.3.6-18.8-8.2-2.3 6.9-9.1 16.4-17.1 12.6-3.7 10-8 17.5-18.6 21.6-8.5 3.3-27.4 4.8-34.8-.5 5.6 4-20.5 39.3-25.9 26.9 1.8 4.9-2.3 10.5-6.2 13.1-1.9 1.3-2.3-1-4.2 1-1 1-1.4 4.5-1.9 5.9-1.7 4.7-7.1 20.5-14.8 17.1-.6 3.9-2.7 7.8-3.5 11.6.2-16.7-5-32.3 7.4-46.9 6.4-7.5 14.8-9.4 21.6-15.9 2.3-2.1 4.2-4.4 5.9-6.9z"/><path class="st0" d="M107.1 265c10.3-14.3 12.9-36.8 24.8-49.6 13.6-14.6 25.8-18.9 44.9-19.9 8.4-.4 19.2 3.2 27.5 1.5 28.7-5.8 47.6-39.2 81.1-27.8 11.8 4 20 14.1 31.8 17.9 20.3 6.6 41.5-3.2 62.2 1.4 9.3 2.1 19 5.3 26.6 11.2 10 7.7 10 19.9 16.8 29.6 5.6 8.1 13.1 9.9 21.2 13.7 7.7 3.5 13.1 10 18.1 16.7 2.6 3.6 14.6 19.3 10.7 24.8-6.7 9.4-17.9-12.9-18.6-18.3-12.8 20.7-47.5-12.8-30.1-26.4-8.7.7-26.5-4.6-22.9-17-7.8 4.5-17.1 3-25.2-.8-4.7-2.2-12.9-11.2-4.2-13.7-6.2 7.4-12.7 10.9-23.8 9.3-8-1.1-23.5-3.4-24.1-13.9-5.5 10.8-22.6 17.7-26.3 1.6-3.2 14.9-23.6 9.3-27.3-1.4 7.2 7-3.6 16.4-8.6 20.8-9.3 8.4-35.3 8.3-33.3-9.2-2 11.9-36 10.2-30.8.7-3.9 7.8-19.3 17.9-22.8 4.4 9.5 27.7-41.7 40.4-59.6 31.5 1.7 6.8-7.2 35.7-17.1 28.1.6 4.8-6.9 14.2-9.7 10.7 1 9.5-3.7 14.4-9.5 21.3-6.4 7.5-10.1 3.1-10.1-4.1 0-7.9 2.9-18.8 8.8-24.3 7.4-6.9 19-7.7 26.4-15.2 1.1-1 2.1-2.3 3.1-3.6z"/><path class="st3" d="M340.4 123.8c.9-2.6 5.6-5.5 5.4-5.7.2.2.1.4.3.6 1.4-1.5 1.7-3.8 2.5-5.6-1 4.2-.5 5.2 1.9 8.1 1.1 1.4 3.7 5.2 1.8 7-2 1.9-4.4-1.6-5.7-2.7-2.7-2.2-3.3-1.5-6.1-.1-.3-.5-.3-1-.1-1.6zM321.9 147c-1.7-3.4 4.2-2.3 5.6-2.5 2.5-.3 3.9-1.2 6.4-.3 1.6.5 2.4 1.4 4.4 1.4 2.6.1 4.5-1.6 7-1.7 2.9-.1 4.6 1.9 6.6 3.5 2.3 1.9 4.4 1.8 5.3 5.5-.3.2-.5.4-.8.6-2.8-2.7-10-3.1-13.2-1.1-2.1-1.5-3.7-1.7-6.2-2.3-1.5-.3-2.6-1.2-4.3-1.7-1.8-.6-4-.1-5.9-.5-1.6-.3-2.7-1.4-4.5-.9.1-.8-.5-1-.6-1.7-.3.5-.4.5-.2 1.1.8.4 1.5.5 1.9.3M344.7 161.7c.1 4.5 7.6 1.8 9.8 2.6 1.2.4 1.4 1.5 2.4 2.5.9.9 2 .8 2.7 2.2-4.4 1.7-7.5-1.7-11.5-2.3-2.2-.3-8.5.9-9.8 2.4 0-1.5.5-2.9.3-4.4-1.8 1.6-2-.6-3.2-1-1.5-.4-2.9.7-4-.7-.6 1.6-.3 3.8-1.4 5-.2-2 .7-3.9.5-5.9-.3.2-.8.4-1 .5-.8-2.1-6.5.3-8.8-.2-1.7-.4-6.2-.2-7.6-.9-1.7-.8-1.7-2.8.5-4 2.3-1.2 1.9.5 3.8.9.9.2 2.9-.6 4-.6 2.3 0 3.7.3 6.1-.4 2.3-.7 4.4-.7 6.5-1.2-.2 3.2 4.3 3.4 6.4 3.5 2.1.1 4.7.8 5.5 2.5M302.8 175.7c1.7-.7 5.8 1 8.4 1 2.3 0 7-2.6 6.8 1.3.6-.6 1.1-.8 1.3-1.9.2.2.9.3 1.2.7 2.7-2.6 2.4.4 4 1.2.6.3 3 .4 3.8.5 2.2.3 4.2.1 6.1-.9.4 2.6 4.3 4.5 6.7 4.2.8-.1 1.3-.7 2.1-.3.2.1.1.4.3.5.5.4 1 .3 1.7.4.8.2 2.2.1 2.7.9.6.8.2 2.3.5 3.2 2.9-7.3 10.7 2.2 15.5 1.6-.4-1.1-1.6-.8-2.3-1.5-1.2-1.3-1.2-2.4-2.8-3.5-1.8-1.2-4.3-1.3-6.1-2.3-1.9-1.1-1.5-1.7-3.7-2.1-2.1-.4-5 1-6.6-.5-.4-.3-.2-1.8-1-2.6-2.7-2.7-6.1-1.4-9.1-.8-.8-2.7-4.8-3.7-7.3-3-2.8.8-3.3 1.6-6.3 1.4-1.7-.1-4.9.6-5.5-1.5-.8.3-2.1 1.6-3.1 1.4-1.1-.1-1.3-1.4-2.2-1.7-2-.6-4.3 1.1-5.7 2.8-1.8.5-1.8 1.5 1.4 1.1M343.8 137.5c1.1.5 2.6.7 3.7 1.1 1.9.7 8.9 3.6 5.7-1.7-2.2-3.7-7.9-3.9-11.6-5-2-.6-4.1-1.4-6.2-.8-1.6.4-4.2 1.7-3.2 3.5 1.2 2.1 4.4.6 6.1.6 2.6-.1 3.2 1.4 5.5 2.3z"/><path class="st0" d="M340.4 122.7c.7-2.1 2.9-3.5 4.4-5-.5.5-.2 4 1.1 2.4 1-1.2 1.8-3.5 2.3-5.1.3-.8.3-2.1.9-2.7-.5.5-.5 3.2-.4 3.8.1 1.9.8 3.8 1.6 5.5.8 1.7 2 3.7 1.6 5.7-.5-.1-.8.3-1.3.3-.6 0-1.2-.5-1.6-.8-.9-.7-1.6-1.7-2.6-2.4-2.7-2.2-3.3-1.5-6.1-.1-.1-.5-.1-1 .1-1.6zM321.9 145.9c-1.7-3.4 4.2-2.3 5.6-2.5 2.5-.3 3.9-1.2 6.4-.3 1.6.5 2.4 2.5 4.4 2.6 2.6.1 4.5-1.6 7-1.7 2.9-.1 4.6.8 6.6 2.4 2.3 1.9 4.4 1.8 5.3 5.5-.3.2-.5.4-.8.6-2.8-2.7-10-3.1-13.2-1.1-2.1-1.5-3.7-1.7-6.2-2.3-1.5-.3-2.6-1.2-4.3-1.7-1.8-.6-4-.1-5.9-.5-1.6-.3-2.7-1.4-4.5-.9.1-.8-.5-1-.6-1.7-.3.5-.4.5-.2 1.1.8.4 1.5.5 1.9.3M344.7 160.5c.1 4.5 7.6 1.8 9.8 2.6 1.2.4 1.4 1.5 2.4 2.5.9.9 2 .8 2.7 2.2-4.4 1.7-7.5-1.7-11.5-2.3-2.2-.3-8.5.9-9.8 2.4 0-1.5.5-2.9.3-4.4-1.8 1.6-2-.6-3.2-1-1.5-.4-2.9.7-4-.7-.6 1.6-.3 3.8-1.4 5-.2-2 .7-3.9.5-5.9-.3.2-.8.4-1 .5-.8-2.1-6.5.3-8.8-.2-1.7-.4-6.2-.2-7.6-.9-1.7-.8-1.7-2.8.5-4 2.3-1.2 1.9.5 3.8.9.9.2 2.9-.6 4-.6 2.3 0 3.7.3 6.1-.4 2.3-.7 4.4-.7 6.5-1.2-.2 3.2 4.3 3.4 6.4 3.5 2.1.1 4.7.8 5.5 2.5M302.8 174.6c1.7-.7 5.8 1 8.4 1 2.3 0 7-2.6 6.8 1.3.6-.6 1.1-.8 1.3-1.9.2.2.9.3 1.2.7 2.7-2.6 2.4.4 4 1.2.6.3 3 .4 3.8.5 2.2.3 4.2.1 6.1-.9.4 2.6 4.3 4.5 6.7 4.2.8-.1 1.3-.7 2.1-.3.2.1.1.4.3.5.5.4 1 .3 1.7.4.8.2 2.2.1 2.7.9.6.8.2 2.3.5 3.2 2.9-7.3 10.7 2.2 15.5 1.6-.4-1.1-1.6-.8-2.3-1.5-1.2-1.3-1.2-2.4-2.8-3.5-1.8-1.2-4.3-1.3-6.1-2.3-1.9-1.1-1.5-1.7-3.7-2.1-2.1-.4-5 1-6.6-.5-.4-.3-.2-1.8-1-2.6-2.7-2.7-6.1-1.4-9.1-.8-.8-2.7-4.8-3.7-7.3-3-2.8.8-3.3 1.6-6.3 1.4-1.7-.1-4.9.6-5.5-1.5-.8.3-2.1 1.6-3.1 1.4-1.1-.1-1.3-1.4-2.2-1.7-2-.6-4.3 1.1-5.7 2.8-1.8.5-1.8 1.5 1.4 1.1M343.8 136.4c1.1.5 2.6.7 3.7 1.1 1.9.7 8.9 3.6 5.7-1.7-2.2-3.7-7.9-3.9-11.6-5-2-.6-4.1-1.4-6.2-.8-1.6.4-4.2 1.7-3.2 3.5 1.2 2.1 4.4.6 6.1.6 2.6-.1 3.2 1.3 5.5 2.3z"/><path class="st3" d="M86.3 223.6c-5.1 4.2-10.2 6.9-14.3 12.9 1.7-3.7 3.4-6.5 5-9.6 1.2-2.3 1.9-5.8 4.1-7.5.4-.3 1.7-.3 2.4-.8 1-.7 1.6-1.9 2.3-2.8 1.2-1.7 2.4-3.1 3.8-4.6.9-1 1.9-2.6 3.1-3.3 2.4-1.4 3.2.2 4.7 1.1.6.4 1.3-.2 1.9.3.9.8 1.4 2.2 1.8 3.3.6 1.3 2.1 4.5-.4 4-1.4 1.8.5 3.7-1.2 5.3-.4-1.3-.8-6.4-2.2-7.3-1.5-.9-1.9.3-3 .9-.3.2-.2 1.1-.6 1.4-.4.3-1.2 0-1.8.4-2.4 1.7-3.4 4.5-5.6 6.3z"/><path class="st0" d="M84.7 222.2c-.2.2-.3.4-.5.5-1 1-2.4 1.6-3.5 2.6-1.2 1-2.2 2.3-3.3 3.4-1.9 2-3.5 4.5-5 6.6.4-2.5 2-4.9 3.2-7.1.6-1 1.4-2.8 3-3.1 0-4.7 4.4-6.6 7.7-9.1 1.4-1.1 2.8-5.5 4.8-5.4-1.2-1.5 3.3-4.3 4.5-2.2.3.6-.1.6.8 1 .5.2 1 0 1.4.1 2.1.4 2.7 1.9 3.3 3.7.1.4 1.1 3.6.1 3.5-1.8-.1-1.1 2.1-1.5 3.2-.3-1.5.3-3 .2-4.1-.1-2.1-2.6-2.1-2.8-4-.8.3-1.7-.4-2.4-.2-1.6.5-.7.5-1.3 1.9-.5 1-3.8 4.8-3.9 2-2.7 1-3.1 4.5-4.8 6.7z"/><path class="st3" d="M66.6 226.6c-1.3-2.2-3.8 1.2-3.1 2.8.5 1.2.6.1 1.3-.1.9-.3 1.9.2 2.8-.2.3-.1.3-.5.5-.6.2-.1.6-.1.8-.2.4-.4.8-.5.8-1.2.1-2.1-2.9-.2-3.1-.5z"/><path class="st0" d="M66.6 226.4c-1.1-1.9-3 1.1-2.8 2.4.7-.7.6-.6 1.5-.6.7 0 .9.4 1.7.2.3-.1 1.1-.6 1.4-.8.3-.3.6-.3.6-.9 0-1.4-2.3-.1-2.4-.3z"/></g></svg>