<svg xmlns="http://www.w3.org/2000/svg" viewBox="160 -37.1 915 915"><g fill="#03709C"><path d="M617 445.8c-6.2 0-11 4.9-11 11.1v52.4c0 6.2 4.8 11.1 11 11.1s11-4.9 11-11.1v-52.4c0-6.2-4.8-11.1-11-11.1zM766.4 446.9H756v29h10.4c6.2 0 11.6-3.6 11.6-9.7v-8.6c0-6.2-5.4-10.7-11.6-10.7zM690 445.8c-6.2 0-10 4.9-10 11.1v52.4c0 6.2 3.8 11.1 10 11.1s10-4.9 10-11.1v-52.4c0-6.2-3.8-11.1-10-11.1zM550.9 329.9H540v27h10.9c5.8 0 11.1-4.7 11.1-10.5v-8.2c0-5.9-5.3-8.3-11.1-8.3z"/><path d="M618.3 193.4c-125.5 0-227.2 101.7-227.2 227.2s101.7 227.2 227.2 227.2 227.2-101.7 227.2-227.2-101.7-227.2-227.2-227.2zm135 119.5h29.2c3.9 0 7 4.7 7 8.5 0 3.9-3.1 8.5-7 8.5H762v23h17.6c4 0 7 3.7 7 7.5 0 3.9-3.1 7.5-7 7.5H762v30h20.5c3.9 0 7 3.7 7 7.5 0 4-3.1 7.5-7 7.5h-29.2c-3.8 0-6.3-4.7-6.3-8.7v-83.6c0-3.8 2.5-7.7 6.3-7.7zm-71.1-48.4c2.2 0 4 1.8 4 4s-1.8 4-4 4-4-1.8-4-4 1.8-4 4-4zM481.3 378.7l-23.4-24c-5-5-7.5-12-6.9-19s4.1-13.5 9.6-17.7c5.6-4.2 12.9-5.8 19.7-4.5 6.9 1.5 12.9 5.7 16.4 11.8 1.9 3.4.7 7.6-2.6 9.6-3.4 1.9-7.6.7-9.5-2.6-1.6-2.6-4.1-4.4-7-5.1-3.1-.6-6 .1-8.5 2-2.5 1.8-4 4.5-4.1 7.6-.3 2.9.7 5.8 2.9 8l23.2 24c5.1 5.3 7.7 12.4 7.2 19.6-.6 7.3-4.2 13.9-9.9 18.3-5.8 4.4-13.2 6-20.3 4.7-7.2-1.5-13.3-6-16.8-12.1-2-3.4-.9-7.7 2.5-9.6s7.6-.7 9.6 2.6c1.6 2.8 4.2 4.7 7.5 5.4 3.2.6 6.4-.1 9.1-2.2 2.6-1.9 4.1-4.8 4.4-8 .3-3.3-.9-6.5-3.1-8.8zm19.6 131.9c-.6 7.7-4.5 14.6-10.5 19.3-6.2 4.6-13.9 6.3-21.4 4.9-7.6-1.5-14-6.3-17.7-12.8-2.2-3.5-.9-8.2 2.6-10.2s8-.8 10.2 2.8c1.7 2.9 4.5 4.9 7.9 5.7 3.4.6 6.8-.2 9.6-2.3 2.8-2 4.3-5.1 4.6-8.5.3-3.4-.9-6.8-3.2-9.3l-24.7-25.3c-5.2-5.2-7.9-12.6-7.2-20 .6-7.4 4.3-14.2 10.2-18.7 5.9-4.5 13.6-6.2 20.8-4.8 7.2 1.5 13.6 6 17.3 12.5 2 3.5.8 8-2.8 10.2-3.5 2-8 .8-10-2.8-1.7-2.8-4.3-4.6-7.4-5.4-3.2-.6-6.3.2-8.9 2.2-2.6 1.9-4.2 4.8-4.3 8-.3 3.1.8 6.2 3.1 8.5l24.5 25.3c5.2 5.6 8 13.1 7.3 20.7zm-2-236.1c-1.5 0-2.7-1.2-2.7-2.7s1.2-2.7 2.7-2.7 2.7 1.2 2.7 2.7-1.2 2.7-2.7 2.7zM535 608.6c-2.2 0-4-1.8-4-4s1.8-4 4-4 4 1.8 4 4-1.8 4-4 4zm34.2-86.3c-5.9 10.2-17.7 15.1-29.1 12-11.3-2.9-19.1-13.3-19.1-25v-52.4c0-11.7 7.9-22 19.1-25 11.4-3.1 23.3 1.9 29.1 12 2.2 3.5.9 8-2.6 10.2-3.5 2-8 .8-10.2-2.8-2.5-4.3-7.4-6.5-12.4-5.1-4.8 1.2-8.1 5.7-8.1 10.6v52.4c0 5.1 3.3 9.4 8.1 10.8 4.9 1.2 10-.9 12.4-5.2 2.2-3.5 6.6-4.8 10.1-2.8 3.7 2.3 4.9 6.7 2.7 10.3zm7.8-175.9c0 13.6-12.5 25.5-26.1 25.5H540v32.9c0 3.9-3.7 7-7.5 7-3.9 0-7.5-3.1-7.5-7v-84.2c0-3.8 4.4-7.7 8.3-7.7h17.5c13.6 0 26.1 11.7 26.1 25.3l.1 8.2zm31.5 262.2c-10.3 0-18.7-8.4-18.7-18.7s8.4-18.7 18.7-18.7c10.3 0 18.7 8.4 18.7 18.7s-8.4 18.7-18.7 18.7zm33.5-99.3c0 14.3-11.2 25.9-25.5 25.9S591 523.7 591 509.3v-52.4c0-14.3 11.2-25.9 25.5-25.9s25.5 11.6 25.5 25.9v52.4zm3.2-115.2c-3.8 1-7.6-1.2-8.6-4.8 0 0-.3-1.1-.9-3.1l-1.6-5.3c-.5-1.9-1.1-3-1.8-6l-10.7-39.3c-.6-2.1-1.1-4.4-1.7-6.3-.5 1.6-.9 3.7-1.4 5.4l-11 40.2c-2.5 7-4.2 14.9-4.2 14.9-1 3.7-4.8 5.6-8.6 4.6-3.6-1-5.8-4.9-4.8-8.7l23.4-84.9c.7-3.1 3.5-5.1 6.7-5.1s6 2 6.7 5.1l23.4 84.8c1 3.7-1.2 7.5-4.9 8.5zM716 509.3c0 14.3-11.7 25.9-26 25.9s-26-11.6-26-25.9v-52.4c0-14.3 11.7-25.9 26-25.9s26 11.6 26 25.9v52.4zm2.7-109.7c-5.6 9.6-17.3 14.3-28.1 11.4-10.7-2.8-18.6-12.6-18.6-23.7v-49.7c0-11.1 7.9-20.9 18.6-23.7 10.8-2.9 22.3 1.8 27.9 11.4 2 3.4 1 7.6-2.4 9.6-3.4 1.9-7.5.7-9.6-2.6-2.3-4.1-7.1-6.1-11.8-4.8-4.5 1.2-7.7 5.4-7.7 10.1v49.7c0 4.8 3.2 8.9 7.7 10.2 4.7 1.2 9.5-.9 11.8-5 2-3.4 6.3-4.5 9.6-2.6 3.5 2.1 4.6 6.3 2.6 9.7zm-8.9-129.7c0-10.3 8.4-18.7 18.7-18.7s18.7 8.4 18.7 18.7c0 10.3-8.4 18.7-18.7 18.7s-18.7-8.4-18.7-18.7zm69.8 250.5c-1.5 0-2.7-1.2-2.7-2.7s1.2-2.7 2.7-2.7 2.7 1.2 2.7 2.7-1.2 2.7-2.7 2.7zm-13.2-28.5H756v35.9c0 4.2-3.5 7.4-7.5 7.4-4.2 0-7.5-3.2-7.5-7.4V439c0-4 2.7-8.1 6.9-8.1h18.5c14.3 0 26.6 12.3 26.6 26.6v8.6c0 14.4-12.3 25.8-26.6 25.8z"/></g></svg>