<?xml version="1.0" encoding="utf-8"?>
<!-- Generator: Adobe Illustrator 19.1.0, SVG Export Plug-In . SVG Version: 6.00 Build 0)  -->
<svg version="1.1" id="Layer_1" xmlns="http://www.w3.org/2000/svg" xmlns:xlink="http://www.w3.org/1999/xlink" x="0px" y="0px"
	 viewBox="-148 361.8 298.7 119.1" enable-background="new -148 361.8 298.7 119.1" xml:space="preserve">
<g id="Newlsetter_Page">
	<path fill="#03709C" d="M-11.3,456.1c-2.4-0.8-4.5-1.9-6-3.3c-0.7-0.6-1.3-1.3-1.6-2c-0.3-0.6-0.5-1.2-0.4-1.7c0-0.2,0-0.6,0.1-0.7
		c0.1-0.2,0.1-0.5,0.2-0.7c0.2-0.5,0.5-1,0.8-1.5c6.5-2.9,11.7-6.5,15.5-10.4c4-4.2,3.9-23.8-0.2-28.2c-3.6-3.7-8.5-7.1-14.5-10
		c-0.1-0.2-0.3-0.4-0.4-0.6c-0.4-0.6-0.6-1.1-0.8-1.6c-0.1-0.2-0.2-0.5-0.2-0.7c-0.1-0.1-0.1-0.5-0.1-0.7c0-0.5,0.1-1.1,0.5-1.7
		c0.3-0.6,0.9-1.3,1.7-2c1.5-1.3,3.7-2.4,6.1-3.2c4.8-1.6,10.5-2,16.1-1.6c5.7,0.4,11.4,1.7,17,3.8c-4.7-3.6-10-6.6-15.8-8.9
		c-5.8-2.2-12-3.8-18.8-3.7c-3.4,0.1-7,0.5-10.7,2c-1.9,0.7-3.7,1.7-5.5,3.1s-3.4,3.2-4.7,5.4c-0.6,1.1-1.1,2.1-1.6,3.4
		c-0.1,0.3-0.2,0.6-0.3,0.8c-9.2-2.3-19.6-3.6-30.6-3.6c-38.5-0.1-69.8,33.3-69.8,33.3s30.9,33.8,69.2,34.1
		c11,0.1,21.5-1.1,30.7-3.3c0,0.1,0.1,0.3,0.1,0.5c0.4,1.3,0.9,2.3,1.6,3.4c1.2,2.2,2.9,4,4.6,5.4c1.8,1.4,3.6,2.5,5.5,3.2
		c3.7,1.5,7.3,2,10.7,2.1c6.8,0.1,13.1-1.3,18.9-3.5c5.8-2.2,11.1-5.2,15.9-8.7c-5.6,2-11.4,3.2-17,3.6
		C-0.8,458.2-6.5,457.8-11.3,456.1z M-83.8,437.4c-8.7-0.1-15.7-7.1-15.6-15.8s7.1-15.7,15.8-15.6c8.7,0,15.6,7.1,15.6,15.8
		C-68,430.4-75.1,437.4-83.8,437.4z"/>
	
		<line fill="none" stroke="#03709C" stroke-width="3" stroke-miterlimit="10" stroke-dasharray="4,12" x1="-3.4" y1="422.6" x2="186.6" y2="422.6"/>
</g>
</svg>
