<svg xmlns="http://www.w3.org/2000/svg" viewBox="-584 345.3 111 110.7"><path fill="#D353CA" d="M-473.4 400.5c-.2-30.5-25-55.1-55.5-54.9-30.5.1-55.1 25-54.9 55.5.2 30.5 25 55.1 55.5 54.9 30.4-.1 55-25 54.9-55.5z"/><path fill="#FFF" d="M-552.9 368.3h48.9c4.6 0 8.1 3.4 8.1 8.1v48.9c0 4.6-3.4 9.1-8.1 9.1h-48.9c-4.6 0-9.1-4.4-9.1-9.1v-48.9c0-4.6 4.2-8.1 8.8-8.1h.3zm50.9 10c0-1.6-1.3-3-3-3h-8c-1.6 0-3 1.3-3 3v7c0 1.6 1.3 3 3 3h8c1.6 0 3-1.3 3-3v-7zm-1 18h-5.8c.5 2 .8 3.4.8 5.4 0 10.9-9.1 19.6-20.4 19.6-11.3 0-20.4-8.7-20.4-19.6 0-2 .3-3.4.8-5.4h-6v27.2c0 1.4 1.1 3.8 2.5 3.8h45.8c1.4 0 2.7-2.4 2.7-3.8v-27.2zm-25.4-8.4c-7.3 0-13.2 5.7-13.2 12.8s5.9 12.8 13.2 12.8c7.3 0 13.2-5.7 13.2-12.8s-5.9-12.8-13.2-12.8z"/></svg>