<svg xmlns="http://www.w3.org/2000/svg" viewBox="-584 345 111 111"><path fill="#DD9566" d="M-473 400.5c0-30.7-24.8-55.5-55.5-55.5s-55.5 24.8-55.5 55.5 24.8 55.5 55.5 55.5 55.5-24.8 55.5-55.5z"/><g fill="#FFF"><path d="M-535.2 406.1l-22.8 22.6v.1c.4.1.7.2 1.1.2h55.3c.6 0 1.1-.1 1.6-.3l-22.6-22.5c-4.1 1.5-8.6 1.5-12.6-.1zM-520.5 398.2l24.2-24.1c-1-1.9-3.1-3.2-5.4-3.2h-55.2c-2.1 0-4 1.1-5.1 2.8l24.6 24.5c4.7 4.7 12.3 4.7 16.9 0zM-517.6 403.2l21.7 21.6s.3 0 .3.1c.2-.7.6-1.4.6-2.1v-41.5l-21.3 20.9c-.4.4-1 .7-1.3 1zM-540.2 403.2c-.4-.3-.7-.7-1.1-1l-21.7-21.6v42.1c0 .9.2 1.8.6 2.6.2-.2.3-.4.5-.5l21.7-21.6z"/></g></svg>