<svg xmlns="http://www.w3.org/2000/svg" viewBox="-584 345 111 111"><path fill="#AADE66" d="M-473 400.5c0-30.7-24.8-55.5-55.5-55.5s-55.5 24.8-55.5 55.5 24.8 55.5 55.5 55.5 55.5-24.8 55.5-55.5z"/><path fill="#FFF" d="M-498.3 388c0 .7 0 1.3.1 1.9.1 19.9-14.9 42.9-42.6 43-8.5 0-16.4-2.4-23.1-6.6 1.2.1 2.4.2 3.6.2 7.1 0 13.5-2.5 18.7-6.5-6.6-.1-12.2-4.4-14.1-10.4.9.2 1.9.3 2.8.3 1.4 0 1.8-.2 3-.5-6.9-1.5-13.1-7.5-13.1-14.8v-.2c2 1.1 5.3 1.8 7.8 1.8-4-2.7-6.3-7.3-6.3-12.5 0-2.8.9-5.3 2.2-7.6 7.5 9.1 18.7 15 31.2 15.6-.3-1.1-.3-2.2-.3-3.4 0-8.3 6.7-15.1 15-15.1 4.3 0 8.3 1.8 11 4.7 3.4-.7 6.6-2 9.5-3.7-1.1 3.5-3.5 6.5-6.6 8.4 3-.4 5.9-1.2 8.6-2.4-1.9 3-4.5 5.6-7.4 7.8z"/></svg>