<?xml version="1.0" encoding="UTF-8" standalone="no"?>
<!-- Generator: Adobe Illustrator 19.1.0, SVG Export Plug-In . SVG Version: 6.00 Build 0)  -->

<svg
   xmlns:dc="http://purl.org/dc/elements/1.1/"
   xmlns:cc="http://creativecommons.org/ns#"
   xmlns:rdf="http://www.w3.org/1999/02/22-rdf-syntax-ns#"
   xmlns:svg="http://www.w3.org/2000/svg"
   xmlns="http://www.w3.org/2000/svg"
   xmlns:sodipodi="http://sodipodi.sourceforge.net/DTD/sodipodi-0.dtd"
   xmlns:inkscape="http://www.inkscape.org/namespaces/inkscape"
   version="1.1"
   id="Layer_1"
   x="0px"
   y="0px"
   viewBox="386 230.3 166.50001 64.806312"
   enable-background="new 386 230.3 1368.4 381.6"
   xml:space="preserve"
   inkscape:version="0.91 r13725"
   sodipodi:docname="coolfact-box.svg"
   width="166.50002"
   height="64.806313"><metadata
     id="metadata32"><rdf:RDF><cc:Work
         rdf:about=""><dc:format>image/svg+xml</dc:format><dc:type
           rdf:resource="http://purl.org/dc/dcmitype/StillImage" /><dc:title></dc:title></cc:Work></rdf:RDF></metadata><defs
     id="defs30" /><sodipodi:namedview
     pagecolor="#ffffff"
     bordercolor="#666666"
     borderopacity="1"
     objecttolerance="10"
     gridtolerance="10"
     guidetolerance="10"
     inkscape:pageopacity="0"
     inkscape:pageshadow="2"
     inkscape:window-width="936"
     inkscape:window-height="861"
     id="namedview28"
     showgrid="false"
     inkscape:zoom="0.3441976"
     inkscape:cx="375.01499"
     inkscape:cy="2.070847"
     inkscape:window-x="0"
     inkscape:window-y="0"
     inkscape:window-maximized="0"
     inkscape:current-layer="Layer_1"
     fit-margin-top="0"
     fit-margin-left="0"
     fit-margin-right="0"
     fit-margin-bottom="0" /><g
     id="Rocket"
     transform="translate(-43.7,-37.999997)"><path
       d="m 519.2,325.4 c -1.7,-0.6 -3.3,-1.4 -4.3,-2.3 -0.5,-0.5 -0.9,-1 -1.2,-1.4 -0.2,-0.5 -0.3,-0.9 -0.3,-1.3 0,-0.2 0,-0.4 0.1,-0.5 0,-0.2 0.1,-0.3 0.2,-0.5 0.1,-0.3 0.3,-0.7 0.6,-1.1 4.7,-2.1 8.5,-4.7 11.2,-7.5 2.9,-3 2.8,-17.2 -0.2,-20.4 -2.6,-2.7 -6.2,-5.1 -10.5,-7.2 -0.1,-0.1 -0.2,-0.3 -0.3,-0.4 -0.3,-0.4 -0.5,-0.8 -0.6,-1.1 -0.1,-0.2 -0.1,-0.3 -0.2,-0.5 -0.1,-0.1 0,-0.4 -0.1,-0.5 0,-0.4 0.1,-0.8 0.3,-1.2 0.3,-0.5 0.7,-1 1.2,-1.4 1.1,-0.9 2.6,-1.7 4.4,-2.3 3.5,-1.1 7.6,-1.4 11.7,-1.1 4.1,0.3 8.3,1.2 12.3,2.7 -3.4,-2.6 -7.2,-4.8 -11.4,-6.4 -4.2,-1.6 -8.7,-2.7 -13.6,-2.7 -2.5,0 -5.1,0.4 -7.7,1.4 -1.3,0.5 -2.7,1.3 -4,2.3 -1.3,1 -2.5,2.3 -3.4,3.9 -0.5,0.8 -0.8,1.5 -1.1,2.5 -0.1,0.2 -0.1,0.4 -0.2,0.6 -6.7,-1.6 -14.2,-2.6 -22.1,-2.6 -27.7,-0.2 -50.3,24 -50.3,24 0,0 22.3,24.5 50,24.6 8,0 15.5,-0.8 22.2,-2.4 0,0.1 0.1,0.2 0.1,0.3 0.3,0.9 0.7,1.7 1.1,2.5 0.9,1.6 2.1,2.9 3.3,3.9 1.3,1 2.6,1.8 4,2.3 2.7,1.1 5.3,1.4 7.7,1.5 4.9,0.1 9.5,-1 13.7,-2.5 4.2,-1.6 8,-3.7 11.5,-6.3 -4,1.4 -8.2,2.3 -12.3,2.6 -4.2,0.1 -8.3,-0.3 -11.8,-1.5 z m -52.4,-13.5 c -6.3,0 -11.3,-5.2 -11.3,-11.4 0,-6.3 5.1,-11.3 11.4,-11.3 6.3,0 11.3,5.1 11.3,11.4 0,6.3 -5.1,11.3 -11.4,11.3 z"
       id="path24"
       inkscape:connector-curvature="0"
       style="fill:#ffffff" /><line
       stroke-miterlimit="10"
       x1="535.20001"
       y1="300.5"
       x2="596.20001"
       y2="300.5"
       id="line26"
       style="fill:none;stroke:#ffffff;stroke-width:3;stroke-miterlimit:10;stroke-dasharray:4, 12" /></g></svg>