<svg xmlns="http://www.w3.org/2000/svg" viewBox="1 418.9 598 4"><text transform="matrix(.9693 0 0 1 643.743 441.086)" fill="#03709C" font-family="'BowlbyOneSC-Regular'" font-size="68.404">Related categories</text><g fill="#03709C"><path d="M599 422.9h-4v-4h4M588 422.9h-4v-4h4M577 422.8h-4V419h4M566 422.8h-4V419h4M555 422.8l-4-.1v-3.6l4-.1M544 422.7h-4v-3.6h4M533 422.7h-4v-3.6h4M522 422.6h-4v-3.4h4M511 422.6h-4v-3.4h4M500 422.6h-4v-3.4h4M489 422.5h-4v-3.2h4M478 422.5h-4v-3.2h4M467 422.5l-4-.1v-3l4-.1M456 422.4h-4v-3h4M445 422.4h-4v-3h4M434 422.4l-4-.1v-2.8l4-.1M423 422.3h-4v-2.8h4M412 422.3h-4v-2.8h4M401 422.2h-4v-2.6h4M390 422.2h-4v-2.6h4M379 422.2h-4v-2.6h4M368 422.1h-4v-2.4h4M357 422.1h-4v-2.4h4M346 422.1l-4-.1v-2.2l4-.1M335 422h-4v-2.2h4M324 422h-4v-2.2h4M313 421.9h-4v-2h4M302 421.9h-4v-2h4M291 421.9h-4v-2h4M280 421.8h-4V420h4M269 421.8h-4V420h4M258 421.8h-4V420h4M247 421.7h-4v-1.6h4M236 421.7h-4v-1.6h4M225 421.7l-4-.1v-1.4l4-.1M214 421.6h-4v-1.4h4M203 421.6h-4v-1.4h4M192 421.5h-4v-1.2h4M181 421.5h-4v-1.2h4M170 421.5h-4v-1.2h4M159 421.4h-4v-1h4M148 421.4h-4v-1h4M137 421.4l-4-.1v-.8l4-.1M126 421.3h-4v-.8h4M115 421.3h-4v-.8h4M104 421.3l-4-.1v-.6l4-.1M93 421.2h-4v-.6h4M82 421.2h-4v-.6h4M71 421.1h-4v-.4h4M60 421.1h-4v-.4h4M49 421.1h-4v-.4h4M38 421h-4v-.2h4M27 421h-4v-.2h4M16 421l-4-.1 4-.1M5 420.9H1"/></g></svg>