<svg xmlns="http://www.w3.org/2000/svg" viewBox="67 418.9 730 4"><text transform="matrix(.9693 0 0 1 -573.942 442.77)" fill="#03709C" font-family="'BowlbyOneSC-Regular'" font-size="68.404">Related Scoops</text><g fill="#03709C"><path d="M67 418.9h4v4h-4M78 418.9h4v4h-4M89 419h4v3.8h-4M100 419h4v3.8h-4M111 419h4v3.8h-4M122 419l4 .1v3.6l-4 .1M133 419.1h4v3.6h-4M144 419.1h4v3.6h-4M155 419.1h4v3.6h-4M166 419.2h4v3.4h-4M177 419.2h4v3.4h-4M188 419.2h4v3.4h-4M199 419.3h4v3.2h-4M210 419.3h4v3.2h-4M221 419.3h4v3.2h-4M232 419.3l4 .1v3l-4 .1M243 419.4h4v3h-4M254 419.4h4v3h-4M265 419.4h4v3h-4M276 419.5h4v2.8h-4M287 419.5h4v2.8h-4M298 419.5h4v2.8h-4M309 419.6h4v2.6h-4M320 419.6h4v2.6h-4M331 419.6h4v2.6h-4M342 419.6l4 .1v2.4l-4 .1M353 419.7h4v2.4h-4M364 419.7h4v2.4h-4M375 419.7h4v2.4h-4M386 419.8h4v2.2h-4M397 419.8h4v2.2h-4M408 419.8h4v2.2h-4M419 419.9h4v2h-4M430 419.9h4v2h-4M441 419.9h4v2h-4M452 419.9l4 .1v1.8l-4 .1M463 420h4v1.8h-4M474 420h4v1.8h-4M485 420h4v1.8h-4M496 420.1h4v1.6h-4M507 420.1h4v1.6h-4M518 420.1h4v1.6h-4M529 420.2h4v1.4h-4M540 420.2h4v1.4h-4M551 420.2h4v1.4h-4M562 420.2l4 .1v1.2l-4 .1M573 420.3h4v1.2h-4M584 420.3h4v1.2h-4M595 420.3h4v1.2h-4M606 420.4h4v1h-4M617 420.4h4v1h-4M628 420.4h4v1h-4M639 420.5h4v.8h-4M650 420.5h4v.8h-4M661 420.5h4v.8h-4M672 420.5l4 .1v.6l-4 .1M683 420.6h4v.6h-4M694 420.6h4v.6h-4M705 420.6h4v.6h-4M716 420.7h4v.4h-4M727 420.7h4v.4h-4M738 420.7h4v.4h-4M749 420.8h4v.2h-4M760 420.8h4v.2h-4M771 420.8h4v.2h-4M782 420.8l4 .1-4 .1M793 420.9h4"/></g></svg>