<svg xmlns="http://www.w3.org/2000/svg" xmlns:xlink="http://www.w3.org/1999/xlink" viewBox="0 0 2453 2453"><g fill="#03709C"><path d="M1575.8 116.6l-15.6 4.1c-1 .3-2.1 1.2-2.5 2l-3.8 8.5c-.4.8.1 1.3 1.1 1l15.6-4.1c1-.3 2.1-1.2 2.5-2l3.8-8.5c.4-.8-.1-1.2-1.1-1zm-2.1 3.4c-.7.7-1.6 1.6-2.5 2.4-.7.6-1.4 1.3-2.2 1.9l1.9 2.8-3.1-1.8c-.4.3-.8.6-1.3 1-.7.5-1.4.8-2.3.9-.2 0-.5 0-.8-.1-.2-.1-.3-.2-.5-.3l-.2-.2-7.2 4.6 5.9-5.9c-.2-.2-.3-.4-.5-.6-1.3-1.6-2.1-2.7-2.1-2.7s1.2.7 2.9 1.9c.4.3.9.6 1.3 1 .2.2.5.4.7.6.1 0 .1.1.2.1 0 0-.1 0-.1-.1h.1c.3-.1.8-.3 1.3-.7.5-.4 1-.8 1.5-1.3 1.1-.9 2.1-1.7 3.2-2.4 1-.7 2-1.4 2.9-1.9 1.7-1.1 3-1.7 3-1.7s-.6 1.1-2.1 2.5zM1643 158.1l-14.3-7.5c-.9-.5-2.3-.6-3.2-.2l-8.5 3.7c-.8.4-.8 1 .1 1.5l14.3 7.5c.9.5 2.3.6 3.2.2l8.5-3.7c.9-.3.8-1-.1-1.5zm-3.8 1.2c-1 .1-2.2.1-3.5.1-.9 0-1.9 0-2.9-.1l-.5 3.3-1-3.4c-.5 0-1-.1-1.6-.1-.8-.1-1.6-.3-2.3-.9-.2-.2-.4-.3-.5-.6-.1-.2-.1-.3-.2-.5v-.3l-8.4-1.5 8.4-.4v-.7c.1-2.1.3-3.4.3-3.4s.4 1.3.8 3.3c.1.5.2 1 .3 1.6 0 .3.1.6.1.9v.1l.1.1c.3.2.9.3 1.4.3.7 0 1.3.1 2 .1 1.4.1 2.7.2 4 .4 1.3.2 2.4.3 3.5.5 2 .4 3.4.8 3.4.8s-1.4.3-3.4.4zM2071.8 400.8l-14.3-7.5c-.9-.5-2.3-.6-3.2-.2l-8.5 3.7c-.8.4-.8 1 .1 1.5l14.3 7.5c.9.5 2.3.6 3.2.2l8.5-3.7c.8-.3.8-1-.1-1.5zm-3.9 1.2c-1 .1-2.2.1-3.5.1-.9 0-1.9 0-2.9-.1l-.5 3.3-1-3.4c-.5 0-1-.1-1.6-.1-.8-.1-1.6-.3-2.3-.9-.2-.2-.4-.3-.5-.6-.1-.2-.1-.3-.2-.5v-.3l-8.4-1.5 8.4-.4v-.7c.1-2.1.3-3.4.3-3.4s.4 1.3.8 3.3c.1.5.2 1 .3 1.6 0 .3.1.6.1.9v.1l.1.1c.3.2.9.3 1.4.3.7 0 1.3.1 2 .1 1.4.1 2.7.2 4 .4 1.3.2 2.4.3 3.5.5 2 .4 3.4.8 3.4.8s-1.3.3-3.4.4zM1434.3 95.8l-24.4 11.3c-1.6.7-3.1 2.5-3.5 4l-3.8 15c-.4 1.5.6 2.1 2.1 1.4l24.4-11.3c1.6-.7 3.1-2.5 3.5-4l3.8-15c.4-1.5-.5-2.2-2.1-1.4zm-2.7 5.9c-1 1.3-2.3 2.9-3.7 4.5-.7.8-1.4 1.7-2.1 2.5-.5.6-1 1.2-1.5 1.7l5 4.1-5.9-3c-.7.8-1.4 1.6-2.1 2.3-.8.9-1.8 1.6-3.1 2-.3.1-.7.1-1.1 0-.2 0-.4-.1-.6-.2-.1-.1-.2-.2-.3-.2-.2-.1-.4-.3-.5-.4l-10.3 10.6 9.1-11.5c-.6-.4-1.2-.8-1.7-1.2-2.8-2-4.5-3.5-4.5-3.5s2 1 5 2.7c.7.4 1.5.9 2.4 1.4.4.3.8.5 1.3.8.1.1.2.1.3.2h.1c.1 0 .3 0 .5-.1.8-.2 1.6-.9 2.3-1.7.7-.8 1.5-1.7 2.2-2.6.8-.8 1.5-1.7 2.3-2.5.7-.8 1.5-1.6 2.2-2.4 1.4-1.6 2.8-3 4-4.2 2.4-2.4 4.1-4 4.1-4s-1.3 2-3.4 4.7zM1697.7 278.6l-10.7 12c-.7.8-1.1 2.1-1 3l1.5 9.2c.1.9.8 1 1.5.3l10.7-12c.7-.8 1.1-2.1 1-3l-1.5-9.2c-.2-.9-.9-1.1-1.5-.3zm-2.4 13.2c-.3.8-.7 1.4-1.4 2-.2.1-.4.3-.8.4h-.5c-.1 0-.2 0-.2-.1l-3.4 7.8 1.7-8.2c-.2-.1-.5-.1-.7-.2-2-.6-3.3-1.1-3.3-1.1s1.4-.1 3.4 0c.5 0 1.1.1 1.7.1.3 0 .6 0 .9.1h.1l.1-.1c.3-.2.5-.8.7-1.3.2-.6.4-1.3.6-1.9.4-1.3.9-2.6 1.3-3.8.5-1.2.9-2.3 1.4-3.2.8-1.9 1.6-3.1 1.6-3.1s-.1 1.4-.5 3.4c-.2 1-.4 2.2-.8 3.4-.2.9-.5 1.9-.8 2.8l3.1 1.3-3.5.2c-.3.5-.5 1-.7 1.5zM1966.9 333.3c-.2-1.2-1.2-2.7-2.2-3.3l-9.9-5.7c-1-.6-1.6 0-1.4 1.2l3.2 19.6c.2 1.2 1.2 2.7 2.2 3.3l9.9 5.7c1 .6 1.6 0 1.4-1.2l-3.2-19.6zm-.6 16.6c-.8-1-1.7-2.1-2.6-3.4-.5-.6-.9-1.3-1.4-2-.2-.4-.5-.7-.8-1.1l-3.7 2.2 2.8-3.6c-.4-.6-.7-1.2-1.1-1.7-.5-.8-.8-1.7-.8-2.8 0-.3.1-.6.2-.9.1-.2.2-.3.4-.5.1-.1.2-.1.2-.2l.1-.1-5-9.4 6.5 8.2c.3-.2.6-.5.9-.7 2-1.5 3.5-2.3 3.5-2.3s-1 1.4-2.8 3.2c-.4.5-.9 1-1.4 1.5l-.8.8-.2.2v.2c0 .5.3 1.2.7 1.7.5.7.9 1.4 1.4 2.1.4.7.9 1.4 1.3 2.1.4.7.8 1.4 1.3 2.1.8 1.4 1.5 2.6 2.1 3.8 1.2 2.2 1.8 3.8 1.8 3.8s-1-1.3-2.6-3.2zM1906.5 183.9l-18.4-25.3c-1.2-1.6-3.6-2.9-5.4-3l-18.2-.5c-1.8 0-2.3 1.2-1.1 2.8l18.4 25.3c1.2 1.6 3.6 2.9 5.4 3l18.2.5c1.7.1 2.2-1.2 1.1-2.8zm-7.5-1.7c-1.8-.9-3.9-1.9-6.1-3-1.1-.6-2.3-1.2-3.4-1.8l-2.1-1.2-3.7 6.7 2.1-7.6c-1.1-.6-2.2-1.3-3.3-1.9-.7-.4-1.2-.8-1.7-1.4-.5-.5-.9-1.1-1.2-1.9-.1-.4-.2-.8-.1-1.4 0-.1.1-.3.1-.4l.1-.2.2-.4c.1-.1.1-.3.2-.4l-14.4-9.1 15.2 7.4c.4-.8.8-1.6 1.1-2.3 1.7-3.6 3-6 3-6s-.7 2.6-2 6.4c-.3.9-.7 2-1 3.1-.2.5-.4 1.1-.6 1.7l-.2.4-.1.2v.1c0 .1 0 .3.1.5.3.8 1.3 1.7 2.2 2.2 1.1.6 2.3 1.3 3.5 1.9 1.2.7 2.3 1.3 3.5 2 1.1.6 2.2 1.3 3.3 1.9 2.1 1.3 4.1 2.5 5.8 3.6 3.4 2.1 5.5 3.7 5.5 3.7s-2.4-1-6-2.8zM1987.3 275.3c-.1-.9-.6-.9-1.1-.1l-7.4 12.5c-.5.8-.7 2.1-.6 3l1.5 8.6c.1.9.6.9 1.1.1l7.4-12.5c.5-.8.7-2.1.6-3l-1.5-8.6zm-2 10h-1.5c-.1 0 0 0 0 0s-.1.1-.1.2l-.3.6c-.1.2-.1.5-.2.8 0 .3-.1.6-.1.9l-.3 1.8c-.1.6-.2 1.2-.4 1.8-.1.6-.3 1.1-.4 1.7-.3 1.1-.5 2.1-.8 3-.5 1.7-.9 2.9-.9 2.9s0-1.2.2-3c.1-.9.2-1.9.4-3.1.1-.6.2-1.1.3-1.7l.3-1.8-2.5-.7 2.7-.3c.1-.2.1-.5.2-.7.1-.3.1-.6.2-.9l.3-.9c.1-.3.3-.6.5-.8.1-.1.2-.3.4-.4.1-.1.2-.1.3-.2h.5l2.2-8.1-1 8.3h.1c1.8.3 3 .6 3 .6s-1.3.1-3.1 0zM1917.2 244.3l-16.4 4.1c-1 .3-2.2 1.2-2.6 2.1l-3.9 9c-.4.9.1 1.4 1.2 1.1l16.4-4.1c1-.3 2.2-1.2 2.6-2.1l3.9-9c.3-.9-.2-1.4-1.2-1.1zm-2.2 3.6c-.8.8-1.7 1.7-2.7 2.6-.7.7-1.5 1.3-2.3 2l2.1 3.1-3.3-2.1c-.5.4-.9.7-1.4 1.1-.4.3-.7.5-1.1.6-.4.1-.8.3-1.4.2-.3 0-.6-.1-.9-.3-.1-.1-.2-.1-.2-.2l-.1-.1-.1-.1-7.4 4.9 6.2-6.2c-.2-.3-.4-.5-.6-.7-1.4-1.7-2.2-2.9-2.2-2.9s1.3.8 3 2.1c.4.3.9.7 1.4 1.1.4.3 1.2 1 1 .8.3 0 .9-.3 1.3-.6.5-.4 1.1-.9 1.6-1.4 1.1-.9 2.3-1.8 3.4-2.6s2.1-1.5 3.1-2.1c1.8-1.2 3.1-1.8 3.1-1.8s-1 1.1-2.5 2.6zM1957.4 284.8c1.6-2.1 2.4-5.6 1.8-7.8l-6-23c-.6-2.3-2.4-2.5-4-.4l-24.9 32.3c-1.6 2.1-2.4 5.6-1.8 7.8l6 23c.6 2.3 2.4 2.5 4 .4l24.9-32.3zm-18.5-.9c-.4 1.6-.7 3.3-1.1 5-.4 1.7-.8 3.4-1.2 5-.4 1.7-.8 3.3-1.2 4.9-.8 3.2-1.6 6.1-2.3 8.6-1.4 5-2.5 8.3-2.5 8.3s.4-3.5 1.4-8.6c.5-2.6 1-5.5 1.7-8.7.3-1.6.7-3.2 1-4.9.2-1.1.5-2.2.7-3.3l-10.1-1.9 10.5.2c.4-1.7.8-3.3 1.2-5 .3-.9.6-1.8 1.1-2.6.5-.8 1-1.5 1.9-2.1.4-.3.9-.6 1.5-.6h.8l.6.1c.3 0 .6.1.9.1l5.9-21.6-4 21.9c1.3.2 2.5.4 3.7.5 5.2.8 8.6 1.5 8.6 1.5s-3.5 0-8.7-.3c-1.3-.1-2.7-.1-4.2-.3-.7-.1-1.5-.1-2.3-.2H1941.9h-.1c-.2 0-.4.1-.7.3-1.1.7-1.8 2.3-2.2 3.7zM1384 86l-20.5-14c-1.3-.9-3.3-1.2-4.4-.7l-11.4 4.9c-1.1.5-1 1.6.3 2.5l20.5 13.9c1.3.9 3.3 1.2 4.4.7l11.4-4.9c1.2-.4 1-1.5-.3-2.4zm-13.7-1.1v.3c.1.9.2 1.7.2 2.4.3 3 .3 5.1.3 5.1l-1-5c-.1-.7-.3-1.6-.4-2.4-.1-.8-.3-1.7-.4-2.6-.1-.3-.4-.6-.7-.8-.3-.2-.7-.5-1.2-.6-.2-.1-.4-.1-.6-.2-.1 0-.2 0-.3-.1l-.4-.1c-.5-.1-1-.2-1.5-.2-1-.2-2-.3-3-.5s-1.9-.4-2.9-.5c-1.9-.3-3.6-.7-5.1-1-3-.6-4.9-1.1-4.9-1.1s2 .1 5 .5c1.5.2 3.3.4 5.1.7.9.1 1.9.3 2.9.4.4.1.8.1 1.1.2l-.3-6.4 1.4 6.6c.3 0 .5.1.8.1l1.5.3.4.1c.1 0 .2 0 .4.1.3.1.5.2.8.2.5.2 1 .5 1.4.8.4.3.8.8 1 1.4 0 .2 0 .3.1.4v.3c0 .2 0 .4.1.6l12.2 2.6-12-1.6zM1539.6 91.7l-20.7-15.1c-1.3-1-3.7-1.6-5.3-1.3l-16 2.3c-1.6.2-1.8 1.2-.5 2.2l20.7 15.1c1.3 1 3.7 1.6 5.3 1.3l16-2.3c1.6-.2 1.8-1.2.5-2.2zm-17.1-1.6c-1 3.2-1.8 5.2-1.8 5.2s.1-2.2.6-5.5c.1-.8.2-1.7.4-2.6 0-.2.1-.5.1-.7 0-.1 0 0 0 0l-.1-.1c-.1-.2-.5-.4-.9-.6-.8-.4-1.7-.6-2.8-.9-1.1-.3-2.1-.5-3.2-.8-1.1-.3-2.1-.6-3.2-.8-1.1-.3-2.1-.6-3.1-.9-2-.6-3.8-1.2-5.4-1.7-3.1-1.1-5.2-1.9-5.2-1.9s2.2.2 5.5.7c1.6.3 3.5.6 5.6 1 1 .2 2.1.4 3.1.7 1 .2 1.9.5 2.9.7l2-4.9-.3 5.4c.6.2 1.2.3 1.7.5 1 .2 2.2.6 3.2 1.2.5.3 1 .7 1.4 1.3.1.2.2.4.2.6v.4c0 .1 0 .3-.1.3 0 .1-.1.3-.1.4l14.1 4.6-14.7-2.6c.3.4.2.7.1 1zM1825.3 173.4l-54-3.3c-3.4-.2-7.9 1.1-10 3l-21.1 18.9c-2.1 1.9-1 3.6 2.4 3.8l54 3.3c3.4.2 7.9-1.1 10-3l21.1-18.9c2.2-1.9 1.1-3.6-2.4-3.8zm-10.3 6.2c-3.1 1.1-6.7 2.3-10.5 3.6-1.9.6-3.9 1.3-6 1.9-1.7.5-3.4 1.1-5.2 1.6l5.1 10-7.4-9.3c-1.7.5-3.3 1-5 1.5-.5.1-1.1.3-1.6.4-.6.1-1.1.2-1.7.3-1.1.2-2.2.2-3.3.2-1.1-.1-2.2-.2-3.4-.9-.3-.2-.6-.4-.8-.7-.1-.2-.2-.3-.2-.4l-.2-.3c-.2-.4-.5-.8-.7-1.2l-28.5 7.3 27.2-9.4c-.5-.8-1-1.6-1.4-2.4-3.3-5.6-5.3-9.5-5.3-9.5s2.7 3.4 6.5 8.7c.9 1.3 2 2.8 3 4.3.3.4.5.8.8 1.2l.2.3.2.2c.1.1.1.1.3.2.5.3 1.5.5 2.4.5.9 0 1.9-.1 2.8-.3.5-.1.9-.2 1.4-.3.5-.1 1-.3 1.5-.4 2-.6 4.1-1.3 6.2-1.9 2.1-.6 4.2-1.2 6.2-1.8 2-.6 4.1-1.1 6-1.7 3.9-1.1 7.6-2 10.8-2.8 6.3-1.6 10.6-2.4 10.6-2.4s-3.9 1.4-10 3.5zM1283.8 50.5c-.2-.6-.8-.6-1.3-.1l-7.8 8.8c-.5.6-.7 1.5-.5 2.1l2.3 6c.2.6.8.6 1.3.1l7.8-8.8c.5-.6.7-1.5.5-2.1l-2.3-6zm-1.8 8.2l-.2.7c-.1.3-.2.6-.4.9-.2.3-.4.5-.7.7-.2.1-.4.2-.6.2h-.5-.1l-1.9 5.4.6-5.5c-.4-.1-.8-.1-1.2-.2-1.5-.2-2.5-.5-2.5-.5s1-.2 2.5-.3c.8-.1 1.6-.1 2.6-.1h.2l.1-.1.3-.3c.1-.2.1-.3.2-.5l.2-.7c.2-1 .5-1.9.7-2.8.3-.9.5-1.7.8-2.4.5-1.4 1-2.3 1-2.3s0 1-.2 2.5c-.1.7-.2 1.6-.4 2.5l-.3 1.5 2.9.7-3.1.4v.2zM1226 90.4l-12.7-3.4c-.8-.2-2-.1-2.6.2l-6.5 3.5c-.6.3-.5.8.3 1l12.7 3.4c.8.2 2 .1 2.6-.2l6.5-3.5c.6-.3.5-.7-.3-1zm-2.9 1.3c-.8.2-1.7.3-2.7.5l-2.7.3.1 2.3-1.2-2.2c-.3 0-.6 0-.9.1-.5 0-1.2.1-1.7-.1-.3-.1-.6-.1-.9-.4-.2-.1-.3-.3-.5-.6v-.2h-7.2l6.9-1.3v-.2c-.3-1.6-.4-2.7-.4-2.7s.5 1 1.2 2.5c.2.4.3.8.5 1.2l.1.2v.1s0 .1 0 0 0-.1 0 0c.1 0 .3.1.5.1h.6c.2 0 .5-.1.7-.1.5-.1 1.1-.1 1.6-.2 1.1-.1 2.1-.2 3.1-.2s1.9-.1 2.8 0c1.6 0 2.7.2 2.7.2s-1 .4-2.6.7zM1084.5 115l11.9-5.1c.8-.3 1.5-1.1 1.6-1.7l1.3-6.2c.1-.6-.4-.8-1.1-.5l-11.9 5.1c-.8.3-1.5 1.1-1.6 1.7l-1.3 6.2c-.2.6.3.9 1.1.5zm3.9-5.5c-.2-.1-.5-.3-.7-.4-1.3-.8-2.2-1.5-2.2-1.5s1 .2 2.5.7c.4.1.8.3 1.2.4.2.1.4.2.6.2.2.1.5.2.5.2.2 0 .6-.2.9-.5.3-.2.7-.7 1-1.1.7-.8 1.5-1.5 2.2-2.2.7-.7 1.4-1.3 2-1.8 1.2-1 2.1-1.6 2.1-1.6s-.5.9-1.5 2.2c-.5.6-1 1.3-1.7 2.1-.4.4-.8.9-1.2 1.4l2.2 1.6-3-.7-.1.1-1.2 1.2c-.2.2-.5.3-.8.5-.3.1-.6.2-1 .2-.1 0-.2 0-.3-.1h-.2c-.1 0-.1-.1-.2-.1l-4.8 4.1 3.7-4.9zM1131 84.7l15.9 8.5c1 .5 2.7.7 3.7.5l10.5-2.9c1-.3 1.1-1 .1-1.5l-15.9-8.5c-1-.5-2.7-.7-3.7-.5l-10.5 2.9c-1 .3-1.1.9-.1 1.5zm11.7.3c0-.2 0-.4.1-.6.3-2.3.5-3.8.5-3.8s.2 1.5.3 3.8c0 .6 0 1.2.1 1.8v.4l.1.1c.2.1.4.3.7.4.6.2 1.2.3 2 .3.7.1 1.5.2 2.2.2.8.1 1.5.2 2.2.3.7.1 1.5.2 2.2.3 1.4.2 2.7.5 3.8.7 2.2.4 3.7.9 3.7.9s-1.5.1-3.8-.1c-1.1 0-2.5-.1-3.9-.3-.7-.1-1.4-.1-2.2-.2-.7-.1-1.4-.2-2.1-.2l-.7 3.5-.5-3.7c-.4-.1-.8-.1-1.2-.2-.7-.1-1.6-.2-2.3-.5-.4-.2-.7-.3-1.1-.7-.2-.2-.4-.4-.4-.8v-.5l-10.1-1.9 10.4.8z"/><path d="M1355.2 81.5c-.2-.7-.9-.7-1.5-.1l-9.3 9.8c-.6.6-.9 1.7-.7 2.4l2.3 6.9c.2.7.9.7 1.5.1l9.3-9.8c.6-.6.9-1.7.7-2.4l-2.3-6.9zm-1.1 8.1c-.9 0-1.9-.1-2.9-.1H1350.9c-.1 0-.2.1-.3.1-.2.1-.3.3-.5.5-.1.2-.2.4-.3.7-.1.3-.1.5-.2.8-.2.5-.3 1.1-.5 1.6s-.3 1.1-.5 1.6c-.3 1-.6 2-.9 2.8-.5 1.6-1 2.7-1 2.7s.2-1.1.6-2.8c.2-.8.4-1.8.7-2.9.1-.5.3-1.1.4-1.6 0-.1.1-.3.1-.4l-3.8-.6h4c.1-.2.1-.4.2-.6.1-.3.2-.6.2-.8.1-.3.2-.6.4-.9.2-.3.4-.5.7-.7.1-.1.3-.2.5-.2h1l2.2-6.5-1.5 6.6c.6.1 1.2.1 1.8.2 1.7.2 2.8.4 2.8.4s-1.1.1-2.9.1zM1459.9 83.9c-.7.3-.7.9-.1 1.5l10.3 9.2c.7.6 1.7.9 2.4.6l7-2.6c.7-.3.7-.9.1-1.5l-10.3-9.2c-.7-.6-1.7-.9-2.4-.6l-7 2.6zm8.2.9V88.1c0 .1.1.2.1.3.1.2.3.3.5.5.2.1.4.2.7.3.3.1.6.1.8.2.6.1 1.1.3 1.7.4.6.1 1.1.3 1.6.4 1.1.3 2 .6 2.9.8 1.7.5 2.8.9 2.8.9s-1.2-.2-2.9-.5c-.9-.2-1.9-.4-2.9-.6-.5-.1-1.1-.2-1.6-.4-.1 0-.3-.1-.4-.1l-.5 3.9-.2-4.1c-.2 0-.4-.1-.6-.1-.3-.1-.6-.1-.9-.2-.3-.1-.6-.2-.9-.4-.3-.2-.5-.4-.7-.7-.1-.1-.2-.3-.2-.5v-.5-.5l-6.7-2 6.7 1.3c.1-.6.1-1.2.2-1.8.2-1.7.4-2.9.4-2.9s.1 1.2.1 3zM1299.1 105.1l-19.1-7.7c-1.2-.5-3.1-.5-4.2-.1l-11.2 4.4c-1.1.4-1 1.2.2 1.7l19.1 7.7c1.2.5 3.1.5 4.2.1l11.2-4.4c1.1-.4 1-1.2-.2-1.7zm-13.3.6c0 .3 0 .6.1.9.2 2.6.2 4.3.2 4.3s-.3-1.7-.7-4.2c-.1-.6-.2-1.3-.3-2v-.3-.2c0-.1-.1-.2-.2-.2-.3-.2-.6-.3-1-.4-.4-.1-.7-.1-1.1-.2h-3.8c-.9 0-1.7-.1-2.5-.1s-1.7-.1-2.5-.1c-1.6-.1-3.1-.2-4.4-.2-2.6-.2-4.3-.4-4.3-.4s1.7-.1 4.3-.2h9.5l-.1-4.3.9 4.3c.6 0 1.1 0 1.7.1.8 0 1.7.1 2.5.3.4.1.8.3 1.2.6.2.1-.1.4 0 .7 0 .2-.4.3-.4.4v.3c0 .1.5.1.5.2l12.1.7h-11.7zM1192.2 71.5l-11.2-1.7c-.7-.1-1.8.3-2.4.9l-6.1 6.2c-.6.6-.5 1.2.2 1.3l11.2 1.7c.7.1 1.8-.3 2.4-.9l6.1-6.2c.6-.6.6-1.2-.2-1.3zm-.9 1.2c-.4.2-1.1.5-1.8.8-.8.3-1.7.7-2.6 1.1l-1.5.6c-.4.2-.8.3-1.2.5l.3 3.6-.7-3.4-1.5.6c-.3.1-.6.1-.9.2-.3 0-.6 0-.9-.3l-.2-.2h-1.2l.6-.1.3-.1c0-.1.1-.3.1-.4 0 0 .1-.1.1-.2l-6.6 2.3 6.6-2.8v-.1c-.1-.5-.1-.9-.1-1.3-.1-.8-.1-1.5-.2-2 0-.5-.1-.8-.1-.8s.1.3.2.7c.1.5.2 1.2.4 2 .1.4.1.9.2 1.3 0 .2.1.5.1.7 0 .1 0 .2.1.4v.2l.1.1c.1.1.4.2.6.1.2 0 .5-.1.7-.1l1.5-.6 1.5-.6 1.5-.6c1-.4 1.9-.7 2.7-1 .8-.4 1.4-.6 1.9-.6.4-.2.7-.3.7-.3s-.2.1-.7.3zM1639.2 112l-42.7-11.4c-2.7-.7-6.7-.4-8.8.8l-21.7 11.8c-2.2 1.2-1.7 2.7 1 3.4l42.7 11.4c2.7.7 6.7.4 8.8-.8l21.7-11.8c2.1-1.2 1.7-2.7-1-3.4zm-9.7 3.4c-2.7.4-5.8.8-9.2 1.2-1.7.2-3.4.4-5.2.6-1.7.2-3.4.3-5.1.5l1.7 8.9-3.6-8.7c-1.2.1-2.5.2-3.7.3-1.7.2-3.7.3-5.4-.1-.9-.2-1.8-.4-2.6-1-.4-.3-.9-.7-1.1-1.3-.1-.2-.1-.2-.1-.3l-.1-.3-.1-.6c0-.1-.1-.2-.1-.4l-24.8 1.2 24.3-3.3c-.2-.6-.3-1.2-.4-1.8-1.3-5.3-2-8.8-2-8.8s1.4 3.4 3.1 8.5c.4 1.3.9 2.7 1.4 4.1l.2.6.1.3c0 .1.1.2.1.2 0 .1.2.3.5.4.5.3 1.3.5 2 .6.8.1 1.6.2 2.4.1.8 0 1.7-.2 2.6-.2 1.8-.2 3.6-.4 5.3-.5 1.8-.2 3.6-.3 5.4-.5 1.8-.2 3.5-.3 5.2-.4 3.4-.2 6.5-.4 9.2-.5 5.4-.2 9-.2 9-.2s-3.6.6-9 1.4zM1820.7 279.8l25.1 1.6c2.5.2 3.3-1.2 1.8-3.1l-23.4-29.2c-1.5-1.9-4.7-3.5-7.2-3.7l-25.1-1.6c-2.5-.2-3.3 1.2-1.8 3.1l23.4 29.2c1.5 1.9 4.7 3.6 7.2 3.7zm-9.1-19.9c.1-.2.2-.4.2-.5l.2-.2.3-.5s0-.1.1-.1l-19.1-11.1 20.5 9c.5-.7.9-1.4 1.4-2 2.8-4.2 4.9-6.8 4.9-6.8s-1.3 3.1-3.6 7.6c-.6 1.1-1.2 2.3-1.9 3.6-.2.3-.3.6-.5 1l-.3.5-.1.2v.1s.1.5.6 1c.4.5 1 .9 1.6 1.3.6.4 1.2.7 2 1.1 1.5.7 3 1.5 4.5 2.2 1.5.8 3 1.5 4.4 2.3 1.5.8 2.9 1.6 4.3 2.3 2.8 1.5 5.3 3 7.4 4.3 4.3 2.6 7.1 4.5 7.1 4.5s-3.2-1.1-7.8-3.1c-2.3-1-5-2.2-7.8-3.5-1.4-.7-2.9-1.3-4.4-2.1-1.3-.6-2.6-1.3-3.8-1.9l-5.5 7.1 3.5-8.1-3-1.5c-.7-.4-1.5-.8-2.3-1.3-.7-.5-1.4-1.1-2-1.9-.3-.4-.6-.8-.8-1.3-.2-.8-.4-1.5-.1-2.2zM1523.4 183.7l-11.3-10.9c-.7-.7-2.2-1.5-3.3-1.7l-11-2.5c-1.1-.2-1.4.1-.7.8l11.3 10.9c.7.7 2.2 1.5 3.3 1.7l11 2.5c1.1.3 1.4-.1.7-.8zm-13-2.6s.7-1.2 1.9-2.9c.1-.2.3-.4.4-.6 0-.1-.1-.1-.2-.2-.4-.3-.9-.6-1.4-.9l-1.8-.9-1.8-.9c-.6-.3-1.2-.6-1.8-1-.6-.3-1.2-.6-1.7-1-1.1-.6-2.1-1.2-3-1.8-1.7-1.1-2.9-1.9-2.9-1.9s1.3.5 3.2 1.3c.9.4 2 .9 3.2 1.5l1.8.9 1.8.9c.3.2.7.3 1 .5l2-1.6-1.1 2.1c.6.3 1.1.6 1.7.9.6.3 1.1.7 1.6 1.2.1.1.2.3.3.5 0 .1.1.2.1.4v.3c0 .1-.1.2-.1.2l8.7 5.2-9.5-4.3c-1.5 1.3-2.4 2.1-2.4 2.1zM1155.3 97.4c0-.1 0-.1 0 0z"/><path d="M1218.8 53.6l-22.9 5.7c-1.5.4-3 1.5-3.5 2.5l-4.9 10.5c-.5 1 .3 1.6 1.8 1.2l22.9-5.7c1.5-.4 3-1.5 3.5-2.5l4.9-10.5c.5-1.1-.3-1.6-1.8-1.2zm-3.1 4.1c-1.1.9-2.4 1.9-3.8 3-.7.5-1.4 1.1-2.2 1.6l-1.2.9 4 3.5-5-2.8s-.1 0-.1.1c-.8.6-1.5 1.1-2.3 1.6-.9.5-1.8.9-2.9.9-.3 0-.6 0-.9-.2-.4-.2-.4-.3-.6-.4-.1-.1-.3-.2-.4-.3l-10.2 6.6 9.2-7.4c-.5-.4-1-.7-1.4-1.1-2.2-1.7-3.7-3-3.7-3s1.7.9 4.1 2.4c.6.4 1.3.8 1.9 1.2.3.2.7.4 1 .7.2.1.4.3.4.3.1 0 .3.1.4 0 .7 0 1.5-.4 2.2-.8.7-.5 1.5-1.1 2.2-1.6.8-.5 1.5-1.1 2.3-1.6.8-.5 1.5-1 2.2-1.6 1.5-1 2.8-1.9 4-2.7l4-2.5s-1 1.4-3.2 3.2zM1759.9 175.5l-19.2-25.4c-1.2-1.6-3.6-3-5.4-3l-10.7-.3s-4.6-.2-6.6 0-2.6 1.3-1.8 2.4c.6.9 4.5 5.9 4.5 5.9l14.9 19.7c1.2 1.6 3.7 3 5.4 3l17.9.6c1.8 0 2.2-1.3 1-2.9zm-7.5-1.5c-1.8-.8-3.9-1.8-6.2-3-1.1-.6-2.3-1.1-3.4-1.8-.7-.4-1.3-.7-2-1.1l-3.4 6.4 1.5-7.4c-1-.6-2.1-1.2-3.1-1.8-1.3-.8-2.4-1.8-3.1-3.2-.2-.4-.3-.8-.3-1.3 0-.3 0-.6.1-.8l.2-.4c.1-.2.1-.3.2-.4l-10.8-7.1.2-.5 11.5 5.4c.3-.7.6-1.3.8-1.9 1.6-3.7 2.9-6 2.9-6s-.5 2.7-1.6 6.5c-.3 1-.5 2-.9 3.1-.2.5-.3 1.1-.5 1.7l-.1.4v.1c0 .1.1.3.2.4.4.8 1.4 1.5 2.3 2.1 1.1.6 2.3 1.3 3.5 1.9 1.2.7 2.3 1.3 3.5 2 1.1.6 2.2 1.3 3.3 2 2.1 1.3 4.1 2.5 5.8 3.7 3.3 2.2 5.5 3.9 5.5 3.9s-2.5-1.2-6.1-2.9z"/><g><path d="M384.4 457.5l3.4-3.7.1.1M396 445.1l3.5-3.7.4.5-3.5 3.5M407.8 432.8l3.6-3.5.7.8-3.6 3.4M419.9 420.8l3.5-3.5 1 1.1-3.6 3.4M432.1 409l3.6-3.5 1.3 1.4-3.7 3.3M444.5 397.3l3.6-3.4 1.5 1.7-3.7 3.3M457 385.8l3.7-3.3 1.7 1.9-3.7 3.3M469.8 374.6l3.8-3.3 1.8 2.2-3.9 3.2M482.7 363.5l3.8-3.2 2 2.4-3.9 3.1M495.8 352.7l3.9-3.2 2 2.5-3.9 3.1M509.1 342l3.9-3.1 2.1 2.7-3.9 3.1M522.5 331.5l3.9-3 2.3 2.9-4 3M536 321.2l4-3 2.4 3.2-4.1 2.9M549.7 311.1l4.1-2.9 2.4 3.4-4.1 2.9M851.6 156.1l4.7-1.6 1.4 4-4.8 1.7M867.7 150.8l4.8-1.5 1.3 3.9-4.8 1.5M884 145.8l4.8-1.4 1.1 3.6-4.7 1.5M900.4 141l4.8-1.3 1 3.4-4.8 1.5M916.8 136.5l4.8-1.3.9 3.3-4.8 1.3M933.3 132.2l4.8-1.2.8 3.1-4.9 1.2M949.8 128.2l4.9-1.2.6 2.9-4.8 1.2M966.4 124.4l4.9-1.1.6 2.6-4.9 1.2M983 120.8l4.9-.9.5 2.3-4.9 1.1M999.7 117.6l4.9-.9.4 2-4.9 1M1016.5 114.6l4.9-.8.3 1.6-4.9 1M1033.3 111.9l4.9-.8.2 1.3-4.9.8M1050.1 109.4l5-.7.1.9-5 .8M1067 107.2l4.9-.6.1.4-5 .7M1083.8 105.3l1.1-.1-1 .1"/></g></g><path fill="#1498C8" d="M2019.638 304.608l30.587 7.1-6.49 27.956-30.586-7.1z"/><path fill="none" stroke="#A1D6E9" stroke-width="6" stroke-miterlimit="10" d="M2015.5 322l30.7 7.1M2033.1 308.1l-6.5 27.9"/><path fill="#EF8031" d="M2033.876 309.12l3.515-3.12 9.228 10.395-3.516 3.12z"/><path fill="#EF8031" d="M2022.195 311.25l11.303-6.007 2.675 5.033-11.302 6.008z"/><path fill="#EF8031" d="M2048.8 300.9c-.9-3.2-4.3-5.1-7.5-4.1-2.4.7-3.7 3.5-4.8 5.6.1-2.3-.6-5.7-3.3-7.6-2.7-2-6.5-1.5-8.5 1.2s-1.5 6.5 1.2 8.5l3.1 2.4c1.7 1.3 3.8 1.5 5.7.9 1.5 1.7 3.9 2.5 6.3 1.9l3.7-1.1c3.2-1.2 5-4.5 4.1-7.7z"/><path fill="#E7DAD1" d="M2030.2 298.8c2.9 2.1 2.5 5.3 1.4 8.1l-4.6-3.9c-1.2-.9-1.4-2.5-.5-3.7.9-1.2 2.6-1.4 3.7-.5zM2043.1 301.6c-2.4.7-4.8 4.4-4.8 6.9l6.3-1.9c1.4-.4 2.2-1.9 1.8-3.3-.4-1.4-1.9-2.2-3.3-1.7z"/><defs><path id="a" d="M1824.77 214.293l43.85-23.388 16.706 31.32-43.85 23.39z"/></defs><use xlink:href="#a" overflow="visible" fill="#FFF"/><clipPath id="b"><use xlink:href="#a" overflow="visible"/></clipPath><path transform="rotate(-28 1855.175 218.31)" clip-path="url(#b)" fill="#72C800" d="M1830.3 200.5h49.7V236h-49.7z"/><path clip-path="url(#b)" fill="none" stroke="#C7E999" stroke-width="5" stroke-miterlimit="10" d="M1839.9 193.7l26.1 47.2M1828.5 233.8l54.2-30.4"/><path fill="#DE7ED7" d="M1853 218.3c.8-8.4 1.2-10.3 1.2-10.3 1.2-2 3.9-2.7 5.9-1.5 2 1.2 2.7 3.9 1.5 5.9l-4 3.9c-1.3 2-2.6 3.2-4.6 2z"/><path fill="#DE7ED7" d="M1855.8 219.2c-.8 2.5-3 2.1-5.4 1.3l-5.7.1c-2.5-.8-3.8-3.4-3.1-5.8.8-2.5 3.4-3.8 5.8-3.1l6.3 3.9c2.5.8 2.8 1.2 2.1 3.6z"/><path fill="#DE7ED7" d="M1855.856 215.334l13.053 3.03-.95 4.09-13.054-3.03z"/><path fill="#DE7ED7" d="M1857.168 218.265l-4.606 12.584-3.944-1.444 4.606-12.584z"/><path fill="#F4D4F2" d="M1855.8 215.7c-.6-.4 1-4.2 1-4.2.4-.6 1.2-.8 1.8-.4.6.4.8 1.2.4 1.8 0-.1-2.6 3.1-3.2 2.8zM1852.6 217.5c-.2.9-5.1.5-5.1.5-.9-.2-1.4-1.1-1.2-2 .2-.9 1.1-1.4 2-1.2 0 0 4.5 1.8 4.3 2.7z"/><g><defs><path id="c" d="M1683.04 102.56l14.784-8.983 12.255 20.17-14.785 8.983z"/></defs><use xlink:href="#c" overflow="visible" fill="#03709C"/><clipPath id="d"><use xlink:href="#c" overflow="visible"/></clipPath><path transform="rotate(-31 1696.65 108.11)" clip-path="url(#d)" fill="#EF8031" d="M1687.9 96.3h17.3v23.6h-17.3z"/><path clip-path="url(#d)" fill="none" stroke="#E7DAD1" stroke-width="5" stroke-miterlimit="10" d="M1689.2 97.1l14 22.2M1685.1 115.2l22.2-14"/></g><g><defs><path id="e" d="M1314.994 55.552l14.202-14.505L1342.7 54.27l-14.202 14.504z"/></defs><use xlink:href="#e" overflow="visible" fill="#FFF"/><clipPath id="f"><use xlink:href="#e" overflow="visible"/></clipPath><path transform="rotate(-46 1328.92 54.884)" clip-path="url(#f)" fill="#DE7ED7" d="M1318.7 45.4h20.3v18.9h-20.3z"/><path clip-path="url(#f)" fill="none" stroke="#F4D4F2" stroke-width="5" stroke-miterlimit="10" d="M1319.5 47.7l16.7 16.3M1321.8 64.2l17.1-17.5"/><g><path fill="#43ADD3" d="M1329.6 49.2c-2.5 1.6-9.7-.2-9.7-.2s1.6-7.3 4.1-8.8c2.5-1.6 5.8-.8 7.3 1.7 1.6 2.4.8 5.7-1.7 7.3z"/><path fill="#A1D6E9" d="M1326.3 47.8c-1.2.6-4.5-.7-4.5-.7s1.2-3.3 2.5-3.8c1.2-.6 2.7 0 3.3 1.2s-.1 2.7-1.3 3.3z"/><path fill="#43ADD3" d="M1314.4 43.6c2.9-.2 8.6 4.7 8.6 4.7s-4.9 5.7-7.8 5.9c-2.9.2-5.5-2-5.7-4.9-.2-2.9 2-5.5 4.9-5.7z"/><path fill="#A1D6E9" d="M1315.7 46.3c1.4-.1 4 2.2 4 2.2s-2.3 2.7-3.6 2.8c-1.4.1-2.6-.9-2.7-2.3 0-1.4 1-2.6 2.3-2.7z"/><path fill="#43ADD3" d="M1322.066 50.35l1.4-2.31 6.328 3.834-1.4 2.31z"/><path fill="#43ADD3" d="M1320.86 49.584l2.31 1.4-3.834 6.328-2.31-1.4z"/></g></g><g><defs><path id="g" d="M1070.31 76.973l19.48 4.522-4.498 19.385-19.482-4.522z"/></defs><use xlink:href="#g" overflow="visible" fill="#03709C"/><clipPath id="h"><use xlink:href="#g" overflow="visible"/></clipPath><path transform="rotate(13 1077.903 88.942)" clip-path="url(#h)" fill="#43ADD3" d="M1067.8 79h20v19.9h-20z"/><path clip-path="url(#h)" fill="none" stroke="#E9A9E5" stroke-width="5" stroke-miterlimit="10" d="M1079.8 77.4l10.5 14.4M1064.5 86.3l10.5 14.5"/><path fill="#F4D4F2" d="M1087.6 86.2c-1.5 1.8-4.4 1.9-6.5.2-2.1-1.7-1-6.4-1-6.4s4.4-1.9 6.5-.2 2.5 4.6 1 6.4z"/><path fill="#F4D4F2" d="M1080.4 80.2s-4.4 1.9-6.5.2c-2.1-1.7-2.5-4.6-1-6.4 1.5-1.8 4.4-1.9 6.5-.2s1 6.4 1 6.4z"/><path fill="#F4D4F2" d="M1078.806 80.05l2.448.507-1.948 9.4-2.448-.507z"/><path fill="#F4D4F2" d="M1070.5 80h9.6v2.5h-9.6z"/><path fill="#E9A9E5" d="M1078.4 79.8s-2 .9-2.9.1-1.2-2.1-.5-2.9c.7-.8 2-.9 2.9-.1s.5 2.9.5 2.9zM1080.9 81.4s2-.9 2.9-.1 1.2 2.1.5 2.9c-.7.8-2 .9-2.9.1-1-.8-.5-2.9-.5-2.9z"/></g><g><defs><path id="i" d="M993.233 149.796l3.584-15.593 14.23 3.27-3.585 15.594z"/></defs><use xlink:href="#i" overflow="visible" fill="#FFF"/><clipPath id="j"><use xlink:href="#i" overflow="visible"/></clipPath><path transform="rotate(-77 1002.08 143.642)" clip-path="url(#j)" fill="#EF8031" d="M994.1 136.4h16V151h-16z"/><path clip-path="url(#j)" fill="none" stroke="#C7E999" stroke-width="4" stroke-miterlimit="10" d="M993.5 142l17.5 4M1000.3 152.7l4.2-18.2"/><g><path fill="#8ED333" d="M998.8 136.8c1.3-2.9-1-5.6-3.3-5.3-2.5.3-3.9 3.2-3.1 5.4.5 1.3 1.5 2.5 2.3 3.4-.1.1-.1.2-.2.3-.1.2-.2.3-.2.5-1.2-.2-2.7-.3-4.1 0-2.2.5-3.9 3.2-2.8 5.5 1 2.1 4.5 2.5 6.2-.1.6-.9 1.1-1.9 1.6-2.7.1 0 .3.1.5.1l1 6.1 2.5-.4-1.1-7.1 6.9-2-.7-2.4-6.1 1.8c-.1-.2-.2-.4-.4-.5.1-.8.6-1.7 1-2.6z"/><path fill="#C7E999" d="M996.2 134.3c1.2-.2 2.3 1.2 1.7 2.7-.6 1.3-1.3 2.5-1.3 2.5s-1.4-1.1-1.9-2.5c-.5-1 .2-2.5 1.5-2.7zM990.2 145.5c.5 1.1 2.3 1.3 3.1-.1.8-1.2 1.4-2.5 1.4-2.5s-1.7-.6-3.1-.3c-1.1.3-1.9 1.7-1.4 2.9z"/></g></g><g><defs><path id="k" d="M1180.512 103.64l-4.92-16.587 15.818-4.692 4.92 16.586z"/></defs><use xlink:href="#k" overflow="visible" fill="#FFF"/><clipPath id="l"><use xlink:href="#k" overflow="visible"/></clipPath><path transform="rotate(-107 1185.887 92.984)" clip-path="url(#l)" fill="#8ED333" d="M1177.2 84.8h17.3v16.5h-17.3z"/><path clip-path="url(#l)" fill="none" stroke="#C7E999" stroke-width="4" stroke-miterlimit="10" d="M1183.2 83.7l5.8 19.6M1176.3 96.4l19.6-5.8"/><g><path fill="#72C800" d="M1182.7 88.6c.8-3-1.9-5.3-4.1-4.7-2.5.8-3.4 3.8-2.2 5.8.7 1.2 1.8 2.3 2.8 3 0 .1-.1.2-.1.3-.1.2-.1.4-.1.5-1.2 0-2.8.1-4.1.6-2.1.8-3.3 3.8-1.9 5.9 1.3 1.9 4.8 1.8 6.1-1.1.4-1 .8-2 1.1-2.9h.5l2 5.9 2.4-.8-2.3-6.8 6.4-3.1-1.1-2.3-5.8 2.8c-.1-.2-.3-.3-.5-.4.3-.7.6-1.7.9-2.7z"/><path fill="#C7E999" d="M1179.8 86.6c1.1-.3 2.5.8 2.1 2.4-.4 1.4-.9 2.7-.9 2.7s-1.6-.9-2.3-2.1c-.6-1-.2-2.6 1.1-3zM1175.6 98.6c.7 1 2.5.9 3.1-.6.6-1.3 1-2.7 1-2.7s-1.8-.3-3.1.2c-1.1.5-1.7 2-1 3.1z"/></g></g><g><defs><ellipse id="m" transform="rotate(13 1512.267 116.968)" cx="1512.2" cy="117" rx="15.6" ry="11.1"/></defs><use xlink:href="#m" overflow="visible" fill="#FFF"/><clipPath id="n"><use xlink:href="#m" overflow="visible"/></clipPath><ellipse transform="rotate(13 1512.267 116.968)" clip-path="url(#n)" fill="#C7E999" cx="1512.2" cy="117" rx="15.6" ry="11.1"/><path clip-path="url(#n)" fill="none" stroke="#72C800" stroke-width="5" stroke-miterlimit="10" d="M1521.3 105.4l-6.3 27M1491.6 108.9l39.4 9.2"/><g><path fill="#43ADD3" d="M1528.3 120.4c3.6 2.6 8.1.2 8.3-3.1.2-3.7-3.4-6.4-6.6-5.9-2 .3-4 1.3-5.5 2.2l-.4-.4c-.2-.2-.4-.3-.6-.4.6-1.6 1.2-3.8 1.2-5.8 0-3.3-3.4-6.4-7-5.5-3.2.8-4.8 5.6-1.6 8.7 1.1 1.1 2.3 2.1 3.3 3-.1.2-.2.4-.2.6l-8.9-.3-.1 3.6 10.3.4.9 10.2 3.6-.3-.8-9.2c.3-.1.6-.2.8-.4.9.9 2.1 1.8 3.3 2.6z"/><path fill="#A1D6E9" d="M1532.6 116.6c-.1 1.7-2.4 2.9-4.2 1.6-1.7-1.2-3.2-2.6-3.2-2.6s2-1.6 4-2c1.7-.3 3.5 1.1 3.4 3zM1519.7 106.3c-1.6.4-2.4 2.8-.8 4.4 1.5 1.4 3.1 2.7 3.1 2.7s1.3-2.3 1.3-4.3c-.1-1.7-1.8-3.2-3.6-2.8z"/></g></g><g><defs><path id="o" d="M1681.288 183.375l23.592 15.81-14.697 21.93-23.592-15.81z"/></defs><use xlink:href="#o" overflow="visible" fill="#FFF"/><clipPath id="p"><use xlink:href="#o" overflow="visible"/></clipPath><path transform="rotate(34 1685.693 202.116)" clip-path="url(#p)" fill="#F4D4F2" d="M1671.6 189h28.4v26.4h-28.4z"/><path clip-path="url(#p)" fill="none" stroke="#E9A9E5" stroke-width="6" stroke-miterlimit="10" d="M1693.2 188l4.2 27.7M1674.7 188l4.2 27.7"/><g><path fill="#DE7ED7" d="M1694.9 191.2c4.9-.7 6.6-6.2 4.2-8.9-2.7-3.1-7.7-2.5-9.9.5-1.3 1.8-2.1 4.1-2.6 6h-.6c-.3 0-.6.1-.9.1-.8-1.8-1.9-4-3.5-5.6-2.6-2.6-7.7-2.5-9.8 1-1.9 3.1.5 8.2 5.5 8.2 1.7 0 3.5-.1 4.9-.2.1.2.2.5.3.7l-7.3 6.6 2.7 3 8.5-7.7 8.7 7.4 2.6-3-7.8-6.7c.2-.3.3-.6.3-.9 1.5-.1 3.1-.3 4.7-.5z"/><path fill="#F4D4F2" d="M1696 185.7c1.2 1.4.4 4.2-2.1 4.5-2.3.3-4.5.4-4.5.4s.3-2.9 1.7-4.7c.9-1.5 3.5-1.8 4.9-.2zM1675.8 187.3c-1 1.6.3 4.2 2.8 4.2 2.3 0 4.6-.3 4.6-.3s-.7-2.8-2.4-4.4c-1.3-1.4-3.9-1.3-5 .5z"/></g></g><g><path fill="#EF8031" d="M1708.8 111.1c-2.8-2.4-3.6-11.7-3.6-11.7s9.3-.9 12.2 1.5c2.8 2.4 3.2 6.6.8 9.4-2.3 2.8-6.5 3.2-9.4.8z"/><path fill="#E6AF8C" d="M1709.1 106.6c-1.2-1.3-.9-5.6-.9-5.6s4.4.2 5.5 1.4c1.2 1.3 1.1 3.2-.2 4.4-1.2 1.1-3.2 1-4.4-.2z"/><path fill="#EF8031" d="M1709.6 90.8c1.4 3.4-2.2 12.1-2.2 12.1s-8.7-3.6-10.1-7c-1.4-3.4.2-7.3 3.6-8.7 3.4-1.5 7.3.1 8.7 3.6z"/><path fill="#E6AF8C" d="M1706.8 93.4c.7 1.6-1 5.6-1 5.6s-4.1-1.7-4.7-3.3c-.7-1.6.1-3.4 1.7-4.1 1.5-.5 3.4.2 4 1.8zM1704.464 102.366l3.31.774-2.117 9.055-3.31-.774z"/><path fill="#E6AF8C" d="M1705.02 100.83l-.774 3.31-9.055-2.117.775-3.31z"/></g><g><path fill="#03709C" d="M828.5 140.5c-.9.8-1.7 1.7-2.4 2.9-.7 1.1-1.3 2.5-1.5 3.9-.1.7-.2 1.4-.2 2.2v.3c-5.6.6-11.7 2-17.8 4.2-21.3 7.7-31.9 32.7-31.9 32.7s21.3 12.9 45.9 4.2c6.1-2.2 11.1-4.3 15.8-7.4.1.1.2.3.3.4.5.6 1 1.1 1.6 1.6 1.1.9 2.4 1.6 3.7 2.1 1.3.4 2.5.6 3.7.7 2.4.1 4.5-.4 6.4-1 3.8-1.3 7-3.4 9.8-5.8 2.8-2.4 5.1-5.1 7.1-8.1-2.7 2.3-5.7 4.1-8.7 5.5-3.1 1.4-6.3 2.2-9.3 2.3-1.5 0-2.9-.2-4-.6-.5-.2-1-.5-1.3-.8-.3-.3-.5-.6-.6-.9 0-.1-.1-.3-.1-.4v-.4c0-.3.1-.6.1-1 0-.1.1-.3.1-.4 2.8-2.8 4.9-5.6 6.1-8.4 1.5-3.3-2.4-14.2-5.4-15.8-2.9-1.5-6.5-2.4-10.7-2.8-.3-.2-.6-.5-.8-.7l-.3-.3c-.1-.1-.1-.3-.2-.4-.1-.3-.2-.6-.1-1.1.1-.4.2-.9.5-1.4.6-1 1.5-2.1 2.7-3 2.4-1.9 5.4-3.2 8.7-4.2 3.2-.9 6.7-1.4 10.2-1.4-3.4-1-6.9-1.6-10.6-1.7-3.7-.1-7.4.3-11.2 1.8-1.9.7-3.8 1.6-5.6 3.2z"/><path fill="#72C1DE" d="M811.3 162.5c-11.9 3.7-19.2 10-22.4 13.7-1.9 2.2-6.9 9.2-6.3 9.5 0 0 17.2 9 36.7 1.5 8.7-3.3 16-6.5 21.7-16.6 1.2-2.2-.8-7.4-2.9-8.9-2.9-2.4-17-2.2-26.8.8z"/><path fill="#03709C" d="M801.4 157.1c11.6-6 22.9-7.2 25.3-2.7 2.4 4.6-5.1 13.2-16.6 19.2-11.6 6-22.9 7.3-25.3 2.7-2.4-4.6 5-13.2 16.6-19.2z"/><path fill="#00445C" d="M801.4 157.1c8.5-4.5 16.9-5.3 18.6-2 1.7 3.4-3.7 9.7-12.3 14.2-8.5 4.5-16.9 5.4-18.6 2-1.7-3.4 3.7-9.8 12.3-14.2z"/><path fill="#CF2D19" d="M804.3 148.1l-9.2 3c-1.5.5-2.3 2.1-1.8 3.6l5.2 15.8c2.5-.5 5.4-1.6 8.2-3.1 2.2-1.1 4.1-2.4 5.7-3.7l-4.6-13.9c-.3-1.4-2-2.2-3.5-1.7z"/><path fill="#CF2D19" d="M804.3 148.1l-9.2 3c-1.5.5-2.3 2.1-1.8 3.6-1.9 8.5-1.8 14.1 1.7 16.2 1.1 0 2.4-.2 3.5-.4 2.5-.5 5.4-1.6 8.2-3.1 2.2-1.1 4.8-2.9 6.4-4.2.4-3.7-2.9-7.2-5.2-13.4-.4-1.4-2.1-2.2-3.6-1.7z"/><path fill="#CF2D19" d="M795.3 157.9l-8.7 6.6c-1.3 1-3.2.8-4.3-.6-1-1.3-.8-3.2.6-4.3l8.7-6.6c1.3-1 3.2-.8 4.3.6 1 1.4.8 3.3-.6 4.3zM805.3 153.3l10.1 4.2c1.6.6 3.3-.1 4-1.6.6-1.6-.1-3.3-1.6-4l-10.1-4.2c-1.6-.6-3.3.1-4 1.6-.7 1.5 0 3.3 1.6 4z"/><path fill="#CF2D19" d="M826.6 160.8l-7.5-8c-1.1-1.2-3.1-1.3-4.3-.1-1.2 1.1-1.3 3.1-.1 4.3l7.5 8c1.1 1.2 3.1 1.3 4.3.1 1.2-1.2 1.3-3.1.1-4.3zM778.5 152.7l8.5 7c1.3 1.1 1.5 3 .4 4.3-1.1 1.3-3 1.5-4.3.4l-8.5-7c-1.3-1.1-1.5-3-.4-4.3 1.1-1.3 3-1.5 4.3-.4z"/><circle fill="#03709C" cx="794.2" cy="129.9" r="18"/><path fill="#1C3200" d="M796.7 141.7l-7.6 1.5c-5.1 1-10-2.3-11-7.3l-.5-2.5c-1-5.1 2.3-10 7.3-11l7.6-1.5c5.1-1 10 2.3 11 7.3l.5 2.5c1.1 5.1-2.2 10-7.3 11z"/><path fill="#FFF" d="M807.5 148.7l-16.4 4.3c-1.3.3-2.6-.4-3-1.8-.3-1.3.4-2.6 1.8-3l16.4-4.3c1.3-.3 2.6.4 3 1.8.3 1.3-.5 2.7-1.8 3z"/><path fill="#99BDCA" d="M807.8 149.6l-10 2.8c-1.7.5-3.3.9-5 1.3l-1.3.3c-.2 0-.2 0-.4.1h-.5c-.3 0-.6-.1-.9-.1-1.2-.4-2-1.5-2-2.5l1-.3-1 .3c-.1-.6.1-1.2.4-1.7.3-.5.7-.9 1.1-1.1.5-.3 1-.3 1.5-.5l1.5-.4 6-1.6 6-1.6 1.5-.4c.5-.1 1-.3 1.5-.3s1 .2 1.5.5c.4.3.8.7 1 1.3l-.5.1.5-.1c.3.7.3 1.5 0 2.2-.5.7-1.1 1.4-1.9 1.7zm-.5-1.7c.4 0 .9-.2 1.2-.6.3-.4.6-.9.5-1.5l.5-.1-.5.1c0-.5-.2-.9-.6-1.3-.4-.4-.9-.6-1.4-.6-.5 0-1 .1-1.5.3l-1.5.4-6 1.6-6 1.6-1.5.4c-.5.1-1 .2-1.4.5-.4.3-.7.7-.8 1.2-.1.5 0 .9.2 1.3l-1 .3 1-.3c.4.6 1 .9 1.5 1h.5c.1 0 .3-.1.3-.1l1.2-.4c1.7-.5 3.3-.9 5-1.3l10.3-2.5z"/><g fill="none" stroke="#FFF" stroke-linecap="round" stroke-miterlimit="10"><path d="M785.2 158.1l-2.8 5.8M785.2 158.1l-.8 7M785.2 158.1l1.4 6.4"/></g><path fill="none" stroke="#FFF" stroke-linecap="round" stroke-miterlimit="10" d="M817.1 151.8l-2 5.8M818.9 152.3l-3.8 5.3M820.1 153.6l-5 4"/><path fill="#CF2D19" d="M784 113.7c-.4-2.1 1.7-5 3.8-6.7 3.8-2.9 8.4-4.8 11.9-4.9 4.9-.2 9.4 2.7 12.8 5.8 5.1 4.6 3.6 9.4 2.8 14.5-1.4-1.8-.7-4.3-1.5-6.3-.8-1.8-4.4-2.9-3.8 0 .2 1.1-10.1 0-13 .4s-13-2.8-13-2.8z"/><circle fill="#FFF" cx="816" cy="124.2" r="3.7"/><path fill="#99BDCA" d="M819.6 123.4v1c0 .6-.2 1.6-.9 2.5-.4.4-.9.9-1.5 1.2-.2.1-.3.1-.5.2-.2 0-.3.1-.5.1-.4.1-.8.1-1.2 0-.8-.1-1.6-.4-2.3-1-.7-.6-1.1-1.4-1.3-2.3 0-.3-.1-.3-.1-.7v-.7c.1-.5.2-.9.4-1.3.4-.8 1-1.4 1.7-1.8.7-.4 1.5-.5 2.2-.5.7 0 1.3.2 1.9.5 1 .6 1.6 1.4 1.8 1.9.1.3.2.5.2.7l.1.2zm0 0s0-.1-.1-.3c0-.2-.1-.4-.3-.7-.3-.5-.9-1.3-1.9-1.6-.5-.1-1.1-.2-1.6 0-.6.1-1.1.4-1.5.8-.4.4-.7.9-.8 1.4-.1.3-.1.5-.1.8v.4c0 .1 0 .4.1.4.2 1 .9 2 2 2.4.3.1.5.2.8.2h.9c.5-.1 1.1-.3 1.5-.6.8-.6 1.2-1.6 1.2-2.2v-.7c-.2-.2-.2-.3-.2-.3z"/><path fill="#FFF" d="M784 111.5l25.2 3.5c1.3.2 2.3 1.4 2.1 2.7l-.1.7c-.2 1.3-1.4 2.3-2.7 2.1l-25.2-3.5c-1.3-.2-2.3-1.4-2.1-2.7l.1-.7c.2-1.4 1.4-2.3 2.7-2.1z"/><path fill="#99BDCA" d="M784 111.5s4.2.6 10.4 1.5c3.1.4 6.8 1 10.7 1.5 1 .1 2 .3 3 .4.5.1 1 .1 1.5.3.5.2.9.5 1.3.9s.6.9.7 1.5v1.2c0 .2-.1.4-.1.5-.3 1.3-1.8 2.4-3.3 2.2-2.1-.2-4.2-.5-6.2-.7-2.1-.3-4.1-.5-6-.8-3.9-.6-7.5-1.2-10.7-1.7-.8-.1-1.6-.3-2.3-.4-.9-.2-1.8-.8-2.1-1.6-.4-.7-.4-1.6-.2-2.2 0-.1.1-.3.1-.4 0-.1.1-.3.1-.4.1-.3.3-.5.4-.7.6-.8 1.4-1 1.9-1.1.6-.1.8 0 .8 0zm0 0h-.8c-.5.1-1.2.5-1.5 1.3-.1.2-.1.4-.1.6v.8c0 .5.2.9.5 1.2.3.3.7.5 1.2.6.7.1 1.4.2 2.2.3 3.1.3 6.8.8 10.7 1.3l6 .9c2 .3 4.1.7 6.2 1 .6.1 1.4 0 1.9-.7.2-.2.4-.9.5-1.3.1-.4.1-1-.2-1.4-.2-.4-.6-.8-1.1-1-.5-.2-1-.2-1.5-.3-1-.1-2-.3-3-.4-3.9-.6-7.6-1.1-10.7-1.5-6.1-.8-10.3-1.4-10.3-1.4z"/><path fill="#FFF" d="M812.6 160.2l-20.4 5.9c-.4.1-.7.6-.6 1l.7 2.3c.1.4.6.7 1 .6l17.5-5.1c1.2-.8 2.3-1.7 3.2-2.6l-.5-1.6c0-.4-.5-.6-.9-.5z"/><path fill="#C7B299" d="M803.8 129.5c-1.1-5.7-6.7-9.5-12.5-8.3l-5.1 1c-1.3.3-2.6.8-3.6 1.5-.4.7-.8 1.4-1 2.2-2.4 6.6 1 14 7.6 16.4.7.3 1.4.4 2.1.6l4.1-.8c5.8-1.3 9.6-6.9 8.4-12.6z"/><path fill="#D4145A" d="M788.9 137s2 .3 3.6 0 2.8-1 2.8-1 .3 2-1 2.5c-2.8 1-5.4-1.5-5.4-1.5z"/><path fill="#FFF" d="M800.8 138.6c-.1-.3 0-.9 0-1.3-.1-.9-.2-1.8-.6-2.6-1.3-2.6-4.1-2.6-6.4-1.6-1.4.6-2.8 1.4-4.3 1.6-1.7.3-3.7.1-4.8 1.5-.6.8-.7 1.9-.5 2.8.3 1.1 1.3 3.6 2.5 4 1 .3 2.3.1 3.4-.1 0 0 5.1-.4 8.2-1.9 2.8-1.6 2.5-2.4 2.5-2.4zm-8.1.7c-.3 0-.6-.1-.9-.3-.6-.3-1.2-.7-1.8-1-.3-.2-1.8-1.1-2.1-1 2.4-.7 4.9-1.2 7.3-1.8 2.4-.6 1.6 3-.1 3.5-.9.4-1.6.7-2.4.6z"/><circle cx="796.1" cy="128.2" r=".6"/><g fill="none" stroke="#000" stroke-linecap="round" stroke-miterlimit="10"><path d="M786.8 130.5l-3.2-.3M786.8 130.5l-2.9 1.9"/></g><path opacity=".58" fill="#D0EAF4" d="M796.7 141.7l-7.6 1.5c-5.1 1-10-2.3-11-7.3l-.5-2.5c-1-5.1 2.3-10 7.3-11l7.6-1.5c5.1-1 10 2.3 11 7.3l.5 2.5c1.1 5.1-2.2 10-7.3 11z"/><path fill="#FFF" d="M779 130.9l-3.3.6c-.4.1-.9-.2-.9-.6v-.2c-.1-.4.2-.9.6-.9l3.3-.6c.4-.1.9.2.9.6v.2c.2.4-.1.8-.6.9zM779.6 133.7l-3.3.6c-.4.1-.9-.2-.9-.6v-.2c-.1-.4.2-.9.6-.9l3.3-.6c.4-.1.9.2.9.6v.2c.1.4-.2.8-.6.9z"/><path fill="none" stroke="#03709C" stroke-width="3" stroke-miterlimit="10" d="M803.9 167.8l-1.9.6c-1.4.4-2.9-.4-3.4-1.8-.4-1.4.4-2.9 1.8-3.4l1.9-.6c1.4-.4 2.9.4 3.4 1.8.5 1.5-.3 3-1.8 3.4z"/><path fill="none" stroke="#03709C" stroke-width="2" stroke-linecap="round" stroke-miterlimit="10" d="M779.4 183.9s-10.1 7.4-19.9 11.4c-9.8 4-23 6.7-23 6.7l-32.1 14.7s-9.8 9.1-20.5 15.3c-10.7 6.2-24.5 10.5-24.5 10.5l-32 18s-5.7 9.2-15.8 17-19.6 11.6-19.6 11.6l-31.4 21.4"/><g><ellipse transform="rotate(-43 700.666 195.21)" fill="#D0EAF4" stroke="#03709C" stroke-width="3" stroke-miterlimit="10" cx="700.6" cy="195.2" rx="15.6" ry="13.4"/><ellipse transform="rotate(177 702.736 182.796)" fill="none" stroke="#03709C" stroke-width="3" stroke-miterlimit="10" cx="702.8" cy="182.8" rx="5.7" ry="1.8"/><path fill="#03709C" d="M761.5 211.2c-.9 0-1.7-.1-2.6-.3-3.8-.6-7.3-2.2-11-3.3.3-.1.6-.1.9-.1 1.4.1 2.8.5 4.2.7 2.2.4 4.5.5 6.6-.4.4-.2.6-.4.6-.8 0-.3-.1-.4-.2-.6.3-.3-.1-1-.5-.8-3.5 1-6.2-.9-9.7-1.1-2.4-.1-5.3.4-7.5 1.5-2.6-1.4-3.8-4.2-6.6-5.7 3.1-1.8 1.9-6.5-1.2-8.1-.7-.4-1.7.5-1.2 1.3 1.3 1.9.3 3.5-1.1 4.9-3.1.7-5.5 2.4-8 4.6-3.6 3.1-11.1 7.5-14.3 1.4-.9-1.6-1.8-5.7-3.3-8.7.1-.1.2-.2.2-.3 0-.1.1-.2.1-.3.7-.4 1.2-.9 1.5-1.7.4-1.1.5-2.3 1.2-3.3.5-.7 0-1.7-.9-1.5-1.3.4-2.6.9-3.5 1.9.6-1.7.6-10.2 1-11.9 2 .2 4.4-.7 4.9-2.8.2-.7-.8-1.1-1.2-.5-.7 1.2-2 1.6-3.3 1.5.1-.6.2-1.3.3-1.9.1-.6.1-1.3.2-1.9 1.7-.8 2.6-2.5 2.2-4.5-.1-.7-1.1-.4-1.1.2-.1.9-.4 1.8-1.1 2.3-.1-2-.6-3.8-2-5.2-.4-.4-1.3 0-1 .6.7 1.7 1 3.4 1 5.2-1.5-.1-2-1.2-3.1-2.1-.5-.4-1.5-.2-1.4.6.3 2 2.5 3.3 4.5 3.3-.1 1-.2 1.9-.4 2.9-.5-.2-1-.5-1.3-.9-.5-.6-.7-1.4-1.3-1.9-.4-.4-1.1-.2-1.3.4-.5 2 1.6 3.6 3.5 4.3-.5 2.4-.7 11.5-1.3 13.9.2-2.3-1.1-11-2.3-12.9 1.2-1.3.9-3.2-1-4.6-.4-.3-1 .1-.7.6.4.6 1.2 1.8.7 2.5-.9-1.2-1.9-2.4-2.7-3.7 1.7-1.3 1.8-3.4.9-5.2-.3-.7-1.4-.2-1.2.5.3 1.1.4 2.6-.7 3.3-1.1-1.8-1.9-3.8-1.8-6 0-.6-.9-.9-1.2-.3-1 2.2-.5 4.4.6 6.4-.6-.2-1.1-.7-1.8-.6-.5.1-.8.4-.7.9.3 1.4 2.3 1.9 3.9 1.7 1 1.3 2.1 2.6 3 3.8-.2 0-.5.1-.7.1-2.5.2-4.1-.8-6.2-1.8-.8-.4-1.6.4-1.1 1.2 1.5 2.7 6.5 3.2 9.1 2.2 1 1.7 2.2 10.3 2.2 12.5-1.5.4-3 1.4-4.4 2.1-2.1 1-4.7 1.8-5.7 4-1.8 3.9 5.2 4.8 8.1 4.7 1.6 3.3 2.2 6.8 3.5 10.4.1.3.2.5.3.8.7 1.7 1.5 3.3 2.8 4.4-1.4.8-2.8 1.9-3.7 3-1.5 1.9-1.9 3.9.8 5.5.1.1.3.2.5.3.3.2.7.3 1.1.5 4.3 1.6 14.3 3.2 17.1-1.8.4-.7-.3-1.7-1.2-1.5-3.7 1.2-8.1 2.5-11.6.5 5.6-1.5 11.3-3.2 16.5-6 1.6-.8 3.4-1.8 5.1-3.1 1.7-1.3 3.3-2.8 4.2-4.6 4.4 1.7 8.8-2.6 13.8-.7.8.3 1.8.8 2.8 1.2 3.6 1.6 7.9 3.5 10.6.3.7-.6.4-1.4-.4-1.5z"/><path fill="none" stroke="#03709C" stroke-width="8" stroke-linecap="round" stroke-miterlimit="10" d="M696.8 210l16.4-7.2"/></g><g><ellipse transform="rotate(-51 620.78 239.65)" fill="#D0EAF4" stroke="#03709C" stroke-width="3" stroke-miterlimit="10" cx="620.8" cy="239.7" rx="15.6" ry="13.4"/><ellipse transform="rotate(169 621.138 227.07)" fill="none" stroke="#03709C" stroke-width="3" stroke-miterlimit="10" cx="621.2" cy="227.1" rx="5.7" ry="1.8"/><path fill="#03709C" d="M683 247.2c-.9.1-1.7.1-2.6.1-3.8-.1-7.5-1.2-11.3-1.8.3-.1.6-.2.9-.2 1.4-.1 2.8.1 4.3.1 2.2.1 4.6-.1 6.5-1.3.3-.2.6-.5.5-.9 0-.3-.1-.4-.3-.5.2-.4-.2-.9-.7-.7-3.4 1.5-6.3 0-9.8.3-2.4.2-5.2 1.1-7.3 2.5-2.8-1.1-4.4-3.7-7.3-4.7 2.9-2.2 1-6.7-2.3-7.8-.8-.3-1.6.7-1 1.4 1.6 1.7.8 3.4-.4 5-3 1.1-5.1 3.2-7.3 5.7-3.1 3.6-9.9 8.9-14 3.4-1.1-1.5-2.6-5.4-4.5-8.1.1-.1.1-.2.2-.3 0-.1 0-.2.1-.3.6-.5 1-1 1.2-1.9.2-1.2.2-2.4.8-3.5.4-.7-.2-1.7-1.1-1.3-1.2.5-2.4 1.2-3.2 2.3.4-1.7-.8-10.2-.6-11.9 2-.1 4.2-1.3 4.5-3.5.1-.8-1-1-1.2-.3-.5 1.3-1.8 1.9-3.1 2 0-.6.1-1.3 0-1.9 0-.6 0-1.3-.1-1.9 1.5-1 2.2-2.9 1.6-4.7-.2-.7-1.1-.3-1.1.3.1.9-.2 1.8-.7 2.5-.4-1.9-1.1-3.7-2.7-4.9-.5-.3-1.3.2-.9.8.9 1.6 1.4 3.3 1.7 5-1.5.1-2.1-.9-3.4-1.7-.5-.3-1.5 0-1.3.8.5 2 2.9 2.9 4.9 2.7.1 1 .1 1.9 0 2.9-.5-.2-1-.4-1.4-.8-.6-.5-.9-1.3-1.5-1.7-.5-.3-1.2-.1-1.2.5-.2 2 2.1 3.3 4.1 3.8-.2 2.4 1 11.5.7 13.9-.1-2.3-2.6-10.8-4-12.5 1-1.5.5-3.3-1.6-4.4-.4-.2-1 .2-.6.7.5.6 1.5 1.6 1.1 2.4-1-1.1-2.2-2.2-3.2-3.3 1.5-1.5 1.4-3.6.2-5.3-.4-.6-1.4 0-1.1.7.4 1 .7 2.6-.3 3.3-1.3-1.7-2.4-3.5-2.6-5.7-.1-.6-1-.7-1.2-.1-.6 2.4.1 4.5 1.5 6.3-.6-.2-1.2-.5-1.9-.3-.5.1-.7.5-.6 1 .5 1.4 2.5 1.6 4.1 1.2 1.2 1.2 2.4 2.3 3.5 3.4-.2.1-.5.1-.7.2-2.4.5-4.2-.2-6.4-.9-.8-.2-1.5.6-1 1.3 1.8 2.5 6.9 2.3 9.3.9 1.2 1.5 3.6 9.9 3.9 12-1.5.6-2.8 1.8-4.1 2.7-1.9 1.2-4.4 2.4-5.1 4.7-1.2 4.1 5.8 4 8.6 3.5 2 3.1 3.1 6.4 4.9 9.8.1.2.2.5.4.7.9 1.6 1.9 3.1 3.4 4-1.3 1-2.5 2.3-3.3 3.5-1.3 2-1.3 4.1 1.6 5.3.2.1.3.1.5.2.4.1.7.2 1.2.3 4.5 1 14.6 1.2 16.7-4.2.3-.8-.6-1.7-1.3-1.3-3.5 1.7-7.7 3.6-11.4 2.1 5.4-2.3 10.8-4.8 15.5-8.2 1.4-1 3.1-2.3 4.6-3.7 1.6-1.5 2.9-3.2 3.5-5.2 4.6 1.1 8.4-3.8 13.6-2.7.9.2 1.9.5 2.9.8 3.8 1.1 8.3 2.4 10.5-1.2.5-.6 0-1.5-.8-1.4z"/><path fill="none" stroke="#03709C" stroke-width="8" stroke-linecap="round" stroke-miterlimit="10" d="M618.8 255l15.2-9.5"/></g><g><ellipse transform="rotate(-58 552.285 290.93)" fill="#D0EAF4" stroke="#03709C" stroke-width="3" stroke-miterlimit="10" cx="552.3" cy="290.9" rx="15.6" ry="13.4"/><ellipse transform="rotate(162 551.08 278.425)" fill="none" stroke="#03709C" stroke-width="3" stroke-miterlimit="10" cx="551.1" cy="278.4" rx="5.7" ry="1.8"/><path fill="#03709C" d="M615.6 290.4c-.9.2-1.7.3-2.6.4-3.8.4-7.6-.2-11.5-.3.3-.1.5-.2.9-.3 1.4-.3 2.8-.3 4.3-.5 2.2-.2 4.5-.7 6.3-2.2.3-.2.5-.6.4-1-.1-.3-.2-.4-.3-.5.2-.4-.3-.9-.7-.6-3.1 1.9-6.3.8-9.7 1.5-2.4.5-5 1.8-6.9 3.4-2.9-.7-4.8-3.1-7.9-3.7 2.6-2.5.1-6.7-3.3-7.5-.8-.2-1.5.9-.8 1.5 1.8 1.4 1.3 3.3.3 5-2.8 1.5-4.6 3.8-6.5 6.6-2.6 4-8.6 10.2-13.4 5.2-1.3-1.3-3.3-5-5.5-7.5.1-.1.1-.2.1-.3v-.3c.5-.5.9-1.2.9-2 .1-1.2-.1-2.4.3-3.5.3-.8-.4-1.7-1.2-1.2-1.2.7-2.2 1.5-2.9 2.7.2-1.8-2.1-10-2.2-11.7 2-.4 4-1.8 4-4 0-.8-1.1-.8-1.3-.1-.4 1.3-1.5 2.1-2.8 2.4-.1-.6-.1-1.3-.2-1.9-.1-.6-.2-1.3-.3-1.9 1.4-1.2 1.8-3.1.9-4.9-.3-.6-1.2-.1-1.1.5.2.9.1 1.8-.4 2.5-.6-1.9-1.6-3.6-3.3-4.5-.5-.3-1.2.4-.8.9 1.1 1.5 1.8 3.1 2.4 4.7-1.5.3-2.2-.6-3.6-1.2-.6-.3-1.5.2-1.2 1 .8 1.9 3.3 2.5 5.2 2 .2.9.3 1.9.4 2.9-.5-.1-1.1-.3-1.5-.6-.7-.4-1-1.1-1.7-1.5-.5-.3-1.2.1-1.2.7 0 2.1 2.5 3 4.5 3.2.1 2.4 2.5 11.3 2.5 13.7-.4-2.3-4-10.3-5.6-11.8.8-1.6 0-3.3-2.2-4.1-.4-.2-.9.4-.5.7.5.5 1.7 1.4 1.4 2.2-1.2-1-2.4-1.8-3.6-2.8 1.3-1.7.9-3.7-.5-5.3-.5-.6-1.4.2-1 .8.6 1 1.1 2.5.2 3.4-1.5-1.5-2.8-3.1-3.3-5.3-.1-.6-1.1-.6-1.2 0-.3 2.4.7 4.4 2.3 6-.7-.1-1.3-.3-1.9-.1-.4.2-.7.6-.4 1.1.7 1.3 2.7 1.2 4.2.6 1.3 1 2.7 1.9 3.9 2.9-.2.1-.4.2-.7.3-2.4.8-4.2.3-6.5-.1-.8-.1-1.4.8-.8 1.4 2.1 2.2 7.2 1.4 9.4-.3 1.4 1.4 4.9 9.3 5.4 11.4-1.4.8-2.5 2.2-3.7 3.2-1.7 1.5-4 2.9-4.4 5.4-.7 4.2 6.3 3.2 9 2.4 2.4 2.8 3.9 6 6.1 9.1.2.2.3.4.5.7 1.1 1.5 2.3 2.8 3.9 3.5-1.1 1.2-2.2 2.6-2.8 3.9-1 2.2-.8 4.2 2.2 5 .2 0 .3.1.5.1.4.1.8.1 1.2.2 4.6.4 14.6-.7 16-6.3.2-.8-.8-1.6-1.5-1.1-3.3 2.2-7.2 4.6-11 3.5 5-3 10-6.2 14.3-10.2 1.3-1.2 2.8-2.7 4.1-4.3 1.3-1.7 2.4-3.6 2.8-5.6 4.7.5 7.8-4.9 13.1-4.4.9.1 1.9.3 3 .4 3.9.6 8.5 1.3 10.3-2.6.6-.5 0-1.2-.8-1z"/><path fill="none" stroke="#03709C" stroke-width="8" stroke-linecap="round" stroke-miterlimit="10" d="M553 306.5l13.8-11.4"/></g></g></svg>