<svg xmlns="http://www.w3.org/2000/svg" viewBox="929 -806.1 2453 2453"><path fill="none" stroke="#03709C" stroke-width="5" stroke-miterlimit="10" d="M3128.5 398.5c-9.2-14.8-32.5-8.5-46 2.1-13.4 10.6-4.2 28.3-4.2 28.3l-42.8-4.6c.3-23.6-.4-47.2-1.9-70.7l43.3 1.8s3.5 6.4 9.9 17 17 1.4 28.3-5.7 9.2-14.8 8.5-31.1c-.7-16.3-16.3-33.2-33.9-26.9s-17.7 30.4-17.7 30.4l-39.5-.6c-2.7-32.5-7.2-64.9-13.5-97l86.2-20.5-7.8-34.6-60.1 10.6 13.4-16.3-24-17L3043 146l-24.7-13.4 12.7-19.8-24.7-10.6-23.7 7.5c-2.2-6.1-4.5-12.2-6.9-18.3l29.1-11.9 12.7-15.6 24-11.3-25.5 5.7-24-4.2-26.9 11.4c-2.6-6.2-5.3-12.3-8-18.4L3038 9.6l-10.6-23.3-81.2 37.7c-1.9-3.9-3.8-7.8-5.8-11.7l32.5-18.2-14.1-28.3 42.4-26.9-9.9-17-21.2 12.7-7.8-14.8-26.2 16.3-12-19.1-27.9 17.7c-10.9-17.1-22.5-34-34.8-50.5l31.6-20.9 8.5-25.5-33.2-6.4-30.7 21.9c-19.5-24.1-40.5-47.4-62.9-69.9-23.2-23.2-47.4-44.9-72.4-65l21.8-31.3-1.4-17 4.8-9.4-5.1-3.7-4.9 4.9-3.3-14.7-36.7 8.6-20.6 28.2c-11.2-7.9-22.5-15.4-33.9-22.7l7.9-15.3h6.7s4 .7 6.6-6.6c1.1-3.2 1.1-4.8.7-5.7 2.1.9 5.5 1.5 7.4-3.2 2.8-7.1-3.5-14.8-19.1-19.1-15.6-4.2-24.7 2.1-23.3 14.8 1.4 12.7 14.1 15.6 14.1 15.6l-9.1 14.3c-47.4-29.5-96.9-54.1-148-73.8l-44.2-159.2-48 43.5-18-18-78.6 83.7c-4.8-.7-9.6-1.4-14.5-2.1l-5.3-31-5.7 5.7-4.2 23.4c-3.5-.4-7-.8-10.6-1.2l.9-26.2-8.5-7-7.1 4.3-3.1 27.3c-5.2-.4-10.5-.8-15.7-1.2l.5-33.2-8.5-18.4-2.8-14.1-5.7 14.1-7.1 14.1-.5 36.1c-6.4-.3-12.7-.4-19.1-.5l.4-32.1-8.5-5.7-.7-10.6-5.7 1.4-.7 6.4-15.6-11.3-13.4 17.7.8 34.4c-7.6.2-15.1 3.8-22.7 4.2l-3.5-33.6h-8.5l1.3 34.2c-2.4.2-4.9-1.3-7.3-1.1l-73-88.8-43.8 104.2c-64.5 13.6-127.8 34.2-188.6 62.2l-13.5-34.7-19.8 5.6 4.9 14.8-9.2 3.5-24.7-51.6-20.5 10.6 22.6 49.5-10.6 4.9-25.5-48.1-21.2 11.3 26.9 48.1-11.3 5.7-11.3-17-23.3-6.4-7.8 23.3 19.8 33.9-16.3 6.4-10.6-19.1-43.8 32.5 12 19.1-28.3-8.5-4.9 23.3-22.6-2.8-2.8 19.8-17.7-4.9-2.1 20.5-31.1-32.5-22.8 21.8 52.1 57.1c-3.5 3.5-6.9 7.1-10.3 10.7l-22-19.7-5.7-15.6-13.4-6.4-10.6 6.4-17-9.9 9.2 17.7-4.2 11.3 2.1 10.6 11.3 5.7 11.3-1.4 21.5 20.3c-5.8 6.5-11.6 13.1-17.2 19.8l-22.7-20.2-21.2 1.4.7 19.1-24.7 10.6-1.4 22.6-21.2 7.1 4.2 17-35.4-25.5-20.5 26.2 14.8 9.2-21.8 30.3 38.2 18.4-10.6 20.5-58.7-24.7-12.7 32.4 76.5 32.8c-20.7 41.6-37.9 84.5-51.7 128.2l-27.7-5.3s8.5-12.7 2.8-19.8-19.8-25.5-35.4-17c-15.6 8.5-24 32.5-18.4 42.4 5.7 9.9 26.9 22.6 31.1 14.1 4.2-8.5 10.6-9.2 10.6-9.2l33.3 6.3c-12.1 40.4-21.3 81.5-27.6 123l-34-4.8-14.8 13.5-13.4.7-2.8 12.7 7.1 2.8-22.6 25.5 23.3 29 48.5 7.4c-.5 9.7-.9 19.4-1.1 29.1l-33.3 1.6-39.6 49.5 36.8 26.9 37.8-2.2c.6 9.5 1.4 19 2.3 28.5l-41.2 1.3-49.7 35.6 26.9 26.9-11.8 1.9 1.5 12.6 17-.1 17 15.5 53.5-5c13.6 68 35.1 134.8 64.7 198.7l-33.3 17-7.1 19.8 20.5 7.8 34.3-14.7c3.9 7.7 7.9 15.3 12.1 22.9l-30.8 14.5-8.5 17 21.2 8.5 31.7-15.8c6.6 11.2 13.4 22.3 20.6 33.3l-27.5 17.2s-2.8-8.5-12-9.2c-9.2-.7-21.9-.7-24.7 9.2-2.8 9.9-7.1 18.4 1.4 26.9s16.3 16.3 26.2 9.2c9.9-7.1 15.6-11.3 13.4-17.7l-2.1-6.4 32.1-19c12.3 18.4 25.3 36.4 39.1 54l-30.8 23.7s-9.2 23.3 19.1 57.3c28.3 33.9 55.2 50.9 68.6 47.4l31.8-30.7c63.9 60.8 134.7 110.3 209.7 148.5l-24.5 45.5 22.6 11.3-8.5 21.2 24.7 9.2 18.4-39.6 19.1 7.8-7.1 22.6 28.3 9.9-1.4 22.6 17.7 3.5 13.4-31.8 13.4 4.9 6.4 55.9 22.6-41 29 7.8-2.8 19.8 26.2 3.5 3.4-38.9 18.2 2.8v50.9l17.1 22.6 14.2-17 8.3-68.8c11.3 1.9 23.1 3.5 34.5 4.9l-2.5 36.3 22 17.7 17.7-13.4 24.8 14.8 15.6-9.9 22.6 12.7 21.9-19.1 29 16.3 15.6-17-1-33.3c20.4-1.3 40.8-3.2 61.1-5.8l2.8 28.8s-12 7.8-14.1 15.6c-2.1 7.8.7 23.3 5.7 29.7 4.9 6.4 14.1 31.1 15.6 33.9 1.4 2.8 2.8 18.4 2.8 18.4s-1.4-33.9 8.5-46.7c9.9-12.7 15.6-31.1 9.9-38.2-5.7-7.1-14.8-12-14.8-12l-.5-31.7c11.2-1.7 22.4-3.6 33.6-5.7l2.2 17.5s-5.7 5.7-7.1 11.3c-1.4 5.7-2.1 24.7 3.5 33.2 5.7 8.5 19.1 36.1 19.1 36.1s12-31.8 12.7-42.4c.7-10.6 0-29.7-4.2-33.9s-11.3-7.1-11.3-7.1l-1.7-17.3c12.1-2.5 24.1-5.2 36.1-8.1l6.6 35.3s-8.5 14.1-9.2 20.5 1.4 19.8 9.2 29 12.7 15.6 17.7 14.8c4.9-.7 15.6-19.8 13.4-33.2-2.1-13.4-4.2-26.9-9.9-29.7-5.7-2.8-9.9-4.2-9.9-4.2l-5.1-35.8c9.4-2.5 18.8-5.1 28.2-7.9l5.9 23.2s-7.8 10.6-7.8 17.7 4.2 22.6 14.1 21.2c9.9-1.4 19.1-.7 22.6-11.3s2.8-17 0-22.6c-2.8-5.7-15.6-7.1-15.6-7.1l-6.5-25c102.8-32.4 200.9-83.9 288.8-154.5l16.2 19.7 23.2-20.6 18.3 21.1 10.6-10.6-15.4-18.3 19.9-18.3-18.8-19.9c6.3-6 12.6-12.1 18.8-18.3 2.5-2.5 5-5.1 7.5-7.6l15.8 16.8 15.4-11.4 16.9 14 17.7-17.7 39 33.3 12.8-15.5-54.4-48.8 31.8-36s-14-10.5-23.7-17.3c13.4-17.6 26.1-35.5 38-53.8l32.4 21.6 32.5-22.6-12-7.8 35.4-25.5-12-6.4 34.6-33.2-14.1-7.1 9.9-18.4 80.6 26.9 7.1-14.1-120.1-52.9c6.2-14.7 12-29.6 17.4-44.6l29.2 8.4 33.9-17-13.4-23.3-35.6-10.8c1.5-5 3-10.1 4.4-15.1l31.8 8.2 30.4-19.1-18.4-21.2-33.7-7.1c13.7-58.2 21.5-117.6 23.3-177.1l41.8 3.3s9.2 17.7 24 26.9 13.4-10.6 33.2-29c19.6-18.2 3.3-28.8-5.8-43.7z"/></svg>