<svg xmlns="http://www.w3.org/2000/svg" viewBox="929 -806.1 2453 2453"><g fill="#03709C"><path d="M1313.4-357.6l3.4-3.7.1.1M1325-370l3.5-3.7.4.5-3.5 3.5M1336.8-382.3l3.6-3.5.7.8-3.6 3.4M1348.9-394.3l3.5-3.5 1 1.1-3.6 3.4M1361.1-406.1l3.6-3.5 1.3 1.4-3.7 3.3M1373.5-417.8l3.6-3.4 1.5 1.7-3.7 3.3M1386-429.3l3.7-3.3 1.7 1.9-3.7 3.3M1398.8-440.5l3.8-3.3 1.8 2.2-3.9 3.2M1411.7-451.6l3.8-3.2 2 2.4-3.9 3.1M1424.8-462.4l3.9-3.2 2 2.5-3.9 3.1M1438.1-473.1l3.9-3.1 2.1 2.7-3.9 3.1M1451.5-483.6l3.9-3 2.3 2.9-4 3M1465-493.9l4-3 2.4 3.2-4.1 2.9M1478.7-504l4.1-2.9 2.4 3.4-4.1 2.9M1492.6-513.9l4.1-2.8 2.5 3.5-4.2 2.9M1506.6-523.5l4.2-2.8 2.5 3.7-4.2 2.8M1520.8-532.9l4.2-2.8 2.5 3.9-4.2 2.7M1535.1-542.2l4.2-2.6 2.5 3.9-4.2 2.7M1549.6-551.2l4.2-2.6 2.5 4.1-4.3 2.6M1564.2-560l4.3-2.5 2.4 4.1-4.3 2.6M1578.9-568.5l4.3-2.5 2.4 4.2-4.3 2.5M1593.7-576.9l4.4-2.4 2.4 4.3-4.4 2.4M1608.7-585l4.4-2.4 2.3 4.4-4.4 2.3M1623.8-592.9l4.4-2.3 2.3 4.4-4.5 2.3M1639-600.6l4.5-2.2 2.2 4.5-4.5 2.2M1654.3-608l4.5-2.2 2.1 4.5-4.5 2.1M1669.7-615.2l4.6-2.1 2 4.5-4.5 2M1685.3-622.2l4.6-2 1.9 4.4-4.6 2.1M1700.9-628.9l4.6-2 1.9 4.5-4.6 1.9M1716.6-635.5l4.7-1.8 1.8 4.4-4.7 1.9M1732.5-641.7l4.7-1.8 1.6 4.3-4.6 1.8M1748.4-647.7l4.7-1.7 1.6 4.2-4.7 1.7M1764.4-653.5l4.8-1.6 1.4 4.1-4.7 1.7M1780.6-659l4.7-1.6 1.4 4-4.8 1.7M1796.7-664.3l4.8-1.5 1.3 3.9-4.8 1.5M1813-669.3l4.8-1.4 1.1 3.6-4.7 1.5M1829.4-674.1l4.8-1.3 1 3.4-4.8 1.5M1845.8-678.6l4.8-1.3.9 3.3-4.8 1.3M1862.3-682.9l4.8-1.2.8 3.1-4.9 1.2M1878.8-686.9l4.9-1.2.6 2.9-4.8 1.2M1895.4-690.7l4.9-1.1.6 2.6-4.9 1.2M1912-694.3l4.9-.9.5 2.3-4.9 1.1M1928.7-697.5l4.9-.9.4 2-4.9 1M1945.5-700.5l4.9-.8.3 1.6-4.9 1M1962.3-703.2l4.9-.8.2 1.3-4.9.8M1979.1-705.7l5-.7.1.9-5 .8M1996-707.9l4.9-.6.1.4-5 .7M2012.8-709.8l1.1-.1-1 .1"/></g><g fill="#03709C"><path d="M2504.8-689.5l-15.6 4.1c-1 .3-2.1 1.2-2.5 2l-3.8 8.5c-.4.8.1 1.3 1.1 1l15.6-4.1c1-.3 2.1-1.2 2.5-2l3.8-8.5c.4-.8-.1-1.2-1.1-1zm-2.1 3.4c-.7.7-1.6 1.6-2.5 2.4-.7.6-1.4 1.3-2.2 1.9l1.9 2.8-3.1-1.8c-.4.3-.8.6-1.3 1-.7.5-1.4.8-2.3.9-.2 0-.5 0-.8-.1-.2-.1-.3-.2-.5-.3l-.2-.2-7.2 4.6 5.9-5.9c-.2-.2-.3-.4-.5-.6-1.3-1.6-2.1-2.7-2.1-2.7s1.2.7 2.9 1.9c.4.3.9.6 1.3 1 .2.2.5.4.7.6.1 0 .1.1.2.1 0 0-.1 0-.1-.1h.1c.3-.1.8-.3 1.3-.7.5-.4 1-.8 1.5-1.3 1.1-.9 2.1-1.7 3.2-2.4 1-.7 2-1.4 2.9-1.9 1.7-1.1 3-1.7 3-1.7s-.6 1.1-2.1 2.5zM2572-648l-14.3-7.5c-.9-.5-2.3-.6-3.2-.2l-8.5 3.7c-.8.4-.8 1 .1 1.5l14.3 7.5c.9.5 2.3.6 3.2.2l8.5-3.7c.9-.3.8-1-.1-1.5zm-3.8 1.2c-1 .1-2.2.1-3.5.1-.9 0-1.9 0-2.9-.1l-.5 3.3-1-3.4c-.5 0-1-.1-1.6-.1-.8-.1-1.6-.3-2.3-.9-.2-.2-.4-.3-.5-.6-.1-.2-.1-.3-.2-.5v-.3l-8.4-1.5 8.4-.4v-.7c.1-2.1.3-3.4.3-3.4s.4 1.3.8 3.3c.1.5.2 1 .3 1.6 0 .3.1.6.1.9v.2-.1l.1.1c.3.2.9.3 1.4.3.7 0 1.3.1 2 .1 1.4.1 2.7.2 4 .4 1.3.2 2.4.3 3.5.5 2 .4 3.4.8 3.4.8s-1.4.3-3.4.4zM3036.9-291.7l-14.3-7.5c-.9-.5-2.3-.6-3.2-.2l-8.5 3.7c-.8.4-.8 1 .1 1.5l14.3 7.5c.9.5 2.3.6 3.2.2l8.5-3.7c.8-.4.8-1.1-.1-1.5zm-3.8 1.1c-1 .1-2.2.1-3.5.1-.9 0-1.9 0-2.9-.1l-.5 3.3-1-3.4c-.5 0-1-.1-1.6-.1-.8-.1-1.6-.3-2.3-.9-.2-.2-.4-.3-.5-.6-.1-.2-.1-.3-.2-.5v-.3l-8.4-1.5 8.4-.4v-.7c.1-2.1.3-3.4.3-3.4s.4 1.3.8 3.3c.1.5.2 1 .3 1.6 0 .3.1.6.1.9v.2-.1l.1.1c.3.2.9.3 1.4.3.7 0 1.3.1 2 .1 1.4.1 2.7.2 4 .4s2.4.3 3.5.5c2 .4 3.4.8 3.4.8s-1.4.3-3.4.4zM2363.3-710.3l-24.4 11.3c-1.6.7-3.1 2.5-3.5 4l-3.8 15c-.4 1.5.6 2.1 2.1 1.4l24.4-11.3c1.6-.7 3.1-2.5 3.5-4l3.8-15c.4-1.5-.5-2.2-2.1-1.4zm-2.7 5.9c-1 1.3-2.3 2.9-3.7 4.5-.7.8-1.4 1.7-2.1 2.5-.5.6-1 1.2-1.5 1.7l5 4.1-5.9-3c-.7.8-1.4 1.6-2.1 2.3-.8.9-1.8 1.6-3.1 2-.3.1-.7.1-1.1 0-.2 0-.4-.1-.6-.2-.1-.1-.2-.2-.3-.2-.2-.1-.4-.3-.5-.4l-10.3 10.6 9.1-11.5c-.6-.4-1.2-.8-1.7-1.2-2.8-2-4.5-3.5-4.5-3.5s2 1 5 2.7c.7.4 1.5.9 2.4 1.4.4.3.8.5 1.3.8.1.1.2.1.3.2h.1c.1 0 .3 0 .5-.1.8-.2 1.6-.9 2.3-1.7.7-.8 1.5-1.7 2.2-2.6.8-.8 1.5-1.7 2.3-2.5.7-.8 1.5-1.6 2.2-2.4 1.4-1.6 2.8-3 4-4.2 2.4-2.4 4.1-4 4.1-4s-1.3 2-3.4 4.7zM2626.7-527.5l-10.7 12c-.7.8-1.1 2.1-1 3l1.5 9.2c.1.9.8 1 1.5.3l10.7-12c.7-.8 1.1-2.1 1-3l-1.5-9.2c-.2-.9-.9-1.1-1.5-.3zm-2.4 13.2c-.3.8-.7 1.4-1.4 2-.2.1-.4.3-.8.4h-.5c-.1 0-.2 0-.2-.1l-3.4 7.8 1.7-8.2c-.2-.1-.5-.1-.7-.2-2-.6-3.3-1.1-3.3-1.1s1.4-.1 3.4 0c.5 0 1.1.1 1.7.1.3 0 .6 0 .9.1h.2-.1l.1-.1c.3-.2.5-.8.7-1.3.2-.6.4-1.3.6-1.9.4-1.3.9-2.6 1.3-3.8.5-1.2.9-2.3 1.4-3.2.8-1.9 1.6-3.1 1.6-3.1s-.1 1.4-.5 3.4c-.2 1-.4 2.2-.8 3.4-.2.9-.5 1.9-.8 2.8l3.1 1.3-3.5.2c-.3.5-.5 1-.7 1.5zM2784.6-470.8c-.2-1.2-1.2-2.7-2.2-3.3l-9.9-5.7c-1-.6-1.6 0-1.4 1.2l3.2 19.6c.2 1.2 1.2 2.7 2.2 3.3l9.9 5.7c1 .6 1.6 0 1.4-1.2l-3.2-19.6zm-.7 16.6c-.8-1-1.7-2.1-2.6-3.4-.5-.6-.9-1.3-1.4-2-.2-.4-.5-.7-.8-1.1l-3.7 2.2 2.8-3.6c-.4-.6-.7-1.2-1.1-1.7-.5-.8-.8-1.7-.8-2.8 0-.3.1-.6.2-.9.1-.2.2-.3.4-.5.1-.1.2-.1.2-.2l.1-.1-5-9.4 6.5 8.2c.3-.2.6-.5.9-.7 2-1.5 3.5-2.3 3.5-2.3s-1 1.4-2.8 3.2c-.4.5-.9 1-1.4 1.5l-.8.8-.2.2v.2c0 .5.3 1.2.7 1.7.5.7.9 1.4 1.4 2.1s.9 1.4 1.3 2.1c.4.7.8 1.4 1.3 2.1.8 1.4 1.5 2.6 2.1 3.8 1.2 2.2 1.8 3.8 1.8 3.8s-1-1.3-2.6-3.2zM2877.5-580.2l-18.4-25.3c-1.2-1.6-3.6-2.9-5.4-3l-18.2-.5c-1.8 0-2.3 1.2-1.1 2.8l18.4 25.3c1.2 1.6 3.6 2.9 5.4 3l18.2.5c1.7.1 2.2-1.2 1.1-2.8zm-7.5-1.7c-1.8-.9-3.9-1.9-6.1-3-1.1-.6-2.3-1.2-3.4-1.8l-2.1-1.2-3.7 6.7 2.1-7.6c-1.1-.6-2.2-1.3-3.3-1.9-.7-.4-1.2-.8-1.7-1.4-.5-.5-.9-1.1-1.2-1.9-.1-.4-.2-.8-.1-1.4 0-.1.1-.3.1-.4l.1-.2.2-.4c.1-.1.1-.3.2-.4l-14.4-9.1 15.2 7.4c.4-.8.8-1.6 1.1-2.3 1.7-3.6 3-6 3-6s-.7 2.6-2 6.4c-.3.9-.7 2-1 3.1-.2.5-.4 1.1-.6 1.7l-.2.4-.1.2v.1c0 .1 0 .3.1.5.3.8 1.3 1.7 2.2 2.2 1.1.6 2.3 1.3 3.5 1.9 1.2.7 2.3 1.3 3.5 2 1.1.6 2.2 1.3 3.3 1.9 2.1 1.3 4.1 2.5 5.8 3.6 3.4 2.1 5.5 3.7 5.5 3.7s-2.4-1-6-2.8zM3017.6-484l-73-38.7c-4.6-2.5-11.9-2.8-16.3-.9l-43.8 20c-4.3 2-4.1 5.6.6 8l73 38.7c4.6 2.5 11.9 2.8 16.3.9l43.8-20c4.2-1.9 4-5.5-.6-8zm-7 4.2c-3.1-.1-7.5-.1-12.7-.3-5.3-.2-11.4-.4-18-.7-3.3-.1-6.7-.3-10.1-.5-2.6-.1-5.3-.3-7.9-.4l.6 21.9-2.5-22h-.7l-10.5-.6c-1.8-.2-3.6-.6-5.2-1.2-1.7-.6-3.3-1.4-4.6-2.7-.7-.6-1.3-1.4-1.5-2.4 0-.3-.1-.5-.1-.8v-.6c0-.4 0-.8-.1-1.2 0-.9-.1-1.8-.1-2.7l-46.9-3.4 45 1.6c-.2-3 .6-5.9.5-8.6-.3-5.3.1-9.7-.1-12.8-.1-3.1.1-4.9.1-4.9s.3 1.7.6 4.8c.3 3.1.8 7.4 1.3 12.7.2 2.6.5 5.5.8 8.5.1 1.5.1 3.1.3 4.6 0 .4-.1.8 0 1.2v.6c0 .1.2.3.2.4.2.6.6 1.1 1.2 1.6 1.1 1 2.5 1.7 4.1 2.2 1.5.5 3.2.9 4.8 1 3.4.2 7 .4 10.5.6l10.5.6s6.9.4 10.1.6c6.6.4 12.7.9 18 1.3s9.6.8 12.7 1.1c3.1.3 4.8.5 4.8.5h-5.1zM2988.3-384.8c-.1-.9-.6-.9-1.1-.1l-7.4 12.5c-.5.8-.7 2.1-.6 3l1.5 8.6c.1.9.6.9 1.1.1l7.4-12.5c.5-.8.7-2.1.6-3l-1.5-8.6zm-2 10h-1.5c-.1 0 0 0 0 0s-.1.1-.1.2l-.3.6s-.1.5-.2.8c0 .3-.1.6-.1.9l-.3 1.8c-.1.6-.2 1.2-.4 1.8-.1.6-.3 1.1-.4 1.7-.3 1.1-.5 2.1-.8 3-.5 1.7-.9 2.9-.9 2.9s0-1.2.2-3c.1-.9.2-1.9.4-3.1.1-.6.2-1.1.3-1.7l.3-1.8-2.5-.7 2.7-.3c.1-.2.1-.5.2-.7.1-.3.1-.6.2-.9l.3-.9s.3-.6.5-.8c.1-.1.2-.3.4-.4.1-.1.2-.1.3-.2h.5l2.2-8.1-1 8.3h.1c1.8.3 3 .6 3 .6s-1.3.1-3.1 0zM2884.2-429.8l-16.4 4.1c-1 .3-2.2 1.2-2.6 2.1l-3.9 9c-.4.9.1 1.4 1.2 1.1l16.4-4.1c1-.3 2.2-1.2 2.6-2.1l3.9-9c.3-.9-.2-1.4-1.2-1.1zm-2.2 3.6c-.8.8-1.7 1.7-2.7 2.6-.7.7-1.5 1.3-2.3 2l2.1 3.1-3.3-2.1c-.5.4-.9.7-1.4 1.1-.4.3-.7.5-1.1.6-.4.1-.8.3-1.4.2-.3 0-.6-.1-.9-.3-.1-.1-.2-.1-.2-.2l-.1-.1-.1-.1-7.4 4.9 6.2-6.2c-.2-.3-.4-.5-.6-.7-1.4-1.7-2.2-2.9-2.2-2.9s1.3.8 3 2.1c.4.3.9.7 1.4 1.1.4.3 1.2 1 1 .8.3 0 .9-.3 1.3-.6.5-.4 1.1-.9 1.6-1.4 1.1-.9 2.3-1.8 3.4-2.6s2.1-1.5 3.1-2.1c1.8-1.2 3.1-1.8 3.1-1.8s-1 1.1-2.5 2.6zM2924.4-389.3c1.6-2.1 2.4-5.6 1.8-7.8l-6-23c-.6-2.3-2.4-2.5-4-.4l-24.9 32.3c-1.6 2.1-2.4 5.6-1.8 7.8l6 23c.6 2.3 2.4 2.5 4 .4l24.9-32.3zm-18.5-.9c-.4 1.6-.7 3.3-1.1 5s-.8 3.4-1.2 5c-.4 1.7-.8 3.3-1.2 4.9-.8 3.2-1.6 6.1-2.3 8.6-1.4 5-2.5 8.3-2.5 8.3s.4-3.5 1.4-8.6c.5-2.6 1-5.5 1.7-8.7.3-1.6.7-3.2 1-4.9.2-1.1.5-2.2.7-3.3l-10.1-1.9 10.5.2c.4-1.7.8-3.3 1.2-5 .3-.9.6-1.8 1.1-2.6.5-.8 1-1.5 1.9-2.1.4-.3.9-.6 1.5-.6h.8l.6.1c.3 0 .6.1.9.1l5.9-21.6-4 21.9c1.3.2 2.5.4 3.7.5 5.2.8 8.6 1.5 8.6 1.5s-3.5 0-8.7-.3c-1.3-.1-2.7-.1-4.2-.3-.7-.1-1.5-.1-2.3-.2H2908.8c-.2 0-.4.1-.7.3-1.1.7-1.8 2.3-2.2 3.7zM2313-720.1l-20.5-14c-1.3-.9-3.3-1.2-4.4-.7l-11.4 4.9c-1.1.5-1 1.6.3 2.5l20.5 13.9c1.3.9 3.3 1.2 4.4.7l11.4-4.9c1.2-.4 1-1.5-.3-2.4zm-13.7-1.1v.3c.1.9.2 1.7.2 2.4.3 3 .3 5.1.3 5.1l-1-5c-.1-.7-.3-1.6-.4-2.4-.1-.8-.3-1.7-.4-2.6-.1-.3-.4-.6-.7-.8-.3-.2-.7-.5-1.2-.6-.2-.1-.4-.1-.6-.2-.1 0-.2 0-.3-.1l-.4-.1c-.5-.1-1-.2-1.5-.2-1-.2-2-.3-3-.5s-1.9-.4-2.9-.5c-1.9-.3-3.6-.7-5.1-1-3-.6-4.9-1.1-4.9-1.1s2 .1 5 .5c1.5.2 3.3.4 5.1.7.9.1 1.9.3 2.9.4.4.1.8.1 1.1.2l-.3-6.4 1.4 6.6c.3 0 .5.1.8.1l1.5.3.4.1c.1 0 .2 0 .4.1.3.1.5.2.8.2.5.2 1 .5 1.4.8.4.3.8.8 1 1.4 0 .2 0 .3.1.4v.3c0 .2 0 .4.1.6l12.2 2.6-12-1.6zM2468.6-714.4l-20.7-15.1c-1.3-1-3.7-1.6-5.3-1.3l-16 2.3c-1.6.2-1.8 1.2-.5 2.2l20.7 15.1c1.3 1 3.7 1.6 5.3 1.3l16-2.3c1.6-.2 1.8-1.2.5-2.2zm-17.1-1.6c-1 3.2-1.8 5.2-1.8 5.2s.1-2.2.6-5.5c.1-.8.2-1.7.4-2.6 0-.2.1-.5.1-.7 0-.1 0 0 0 0l-.1-.1c-.1-.2-.5-.4-.9-.6-.8-.4-1.7-.6-2.8-.9-1.1-.3-2.1-.5-3.2-.8-1.1-.3-2.1-.6-3.2-.8-1.1-.3-2.1-.6-3.1-.9-2-.6-3.8-1.2-5.4-1.7-3.1-1.1-5.2-1.9-5.2-1.9s2.2.2 5.5.7c1.6.3 3.5.6 5.6 1 1 .2 2.1.4 3.1.7 1 .2 1.9.5 2.9.7l2-4.9-.3 5.4c.6.2 1.2.3 1.7.5 1 .2 2.2.6 3.2 1.2.5.3 1 .7 1.4 1.3.1.2.2.4.2.6v.4c0 .1 0 .3-.1.3 0 .1-.1.3-.1.4l14.1 4.6-14.7-2.6c.3.4.2.7.1 1zM2754.3-632.7l-54-3.3c-3.4-.2-7.9 1.1-10 3l-21.1 18.9c-2.1 1.9-1 3.6 2.4 3.8l54 3.3c3.4.2 7.9-1.1 10-3l21.1-18.9c2.2-1.9 1.1-3.6-2.4-3.8zm-10.3 6.2c-3.1 1.1-6.7 2.3-10.5 3.6-1.9.6-3.9 1.3-6 1.9-1.7.5-3.4 1.1-5.2 1.6l5.1 10-7.4-9.3c-1.7.5-3.3 1-5 1.5-.5.1-1.1.3-1.6.4-.6.1-1.1.2-1.7.3-1.1.2-2.2.2-3.3.2-1.1-.1-2.2-.2-3.4-.9-.3-.2-.6-.4-.8-.7-.1-.2-.2-.3-.2-.4l-.2-.3c-.2-.4-.5-.8-.7-1.2l-28.5 7.3 27.2-9.4c-.5-.8-1-1.6-1.4-2.4-3.3-5.6-5.3-9.5-5.3-9.5s2.7 3.4 6.5 8.7c.9 1.3 2 2.8 3 4.3.3.4.5.8.8 1.2l.2.3.2.2c.1.1.1.1.3.2.5.3 1.5.5 2.4.5s1.9-.1 2.8-.3c.5-.1.9-.2 1.4-.3.5-.1 1-.3 1.5-.4 2-.6 4.1-1.3 6.2-1.9 2.1-.6 4.2-1.2 6.2-1.8 2-.6 4.1-1.1 6-1.7 3.9-1.1 7.6-2 10.8-2.8 6.3-1.6 10.6-2.4 10.6-2.4s-3.9 1.4-10 3.5zM2212.8-755.6c-.2-.6-.8-.6-1.3-.1l-7.8 8.8c-.5.6-.7 1.5-.5 2.1l2.3 6c.2.6.8.6 1.3.1l7.8-8.8c.5-.6.7-1.5.5-2.1l-2.3-6zm-1.8 8.2l-.2.7c-.1.3-.2.6-.4.9-.2.3-.4.5-.7.7-.2.1-.4.2-.6.2h-.6l-1.9 5.4.6-5.5c-.4-.1-.8-.1-1.2-.2-1.5-.2-2.5-.5-2.5-.5s1-.2 2.5-.3c.8-.1 1.6-.1 2.6-.1h.2l.1-.1.3-.3c.1-.2.1-.3.2-.5l.2-.7c.2-1 .5-1.9.7-2.8.3-.9.5-1.7.8-2.4.5-1.4 1-2.3 1-2.3s0 1-.2 2.5c-.1.7-.2 1.6-.4 2.5l-.3 1.5 2.9.7-3.1.4v.2zM2155-715.7l-12.7-3.4c-.8-.2-2-.1-2.6.2l-6.5 3.5c-.6.3-.5.8.3 1l12.7 3.4c.8.2 2 .1 2.6-.2l6.5-3.5c.6-.3.5-.7-.3-1zm-2.9 1.3c-.8.2-1.7.3-2.7.5l-2.7.3.1 2.3-1.2-2.2c-.3 0-.6 0-.9.1-.5 0-1.2.1-1.7-.1-.3-.1-.6-.1-.9-.4-.2-.1-.3-.3-.5-.6v-.2h-7.2l6.9-1.3v-.2c-.3-1.6-.4-2.7-.4-2.7s.5 1 1.2 2.5c.2.4.3.8.5 1.2l.1.2v.1s0 .1 0 0 0-.1 0 0c.1 0 .3.1.5.1h.6s.5-.1.7-.1c.5-.1 1.1-.1 1.6-.2 1.1-.1 2.1-.2 3.1-.2s1.9-.1 2.8 0c1.6 0 2.7.2 2.7.2s-1 .4-2.6.7zM2013.5-691.1l11.9-5.1c.8-.3 1.5-1.1 1.6-1.7l1.3-6.2c.1-.6-.4-.8-1.1-.5l-11.9 5.1c-.8.3-1.5 1.1-1.6 1.7l-1.3 6.2c-.2.6.3.9 1.1.5zm3.9-5.5c-.2-.1-.5-.3-.7-.4-1.3-.8-2.2-1.5-2.2-1.5s1 .2 2.5.7c.4.1.8.3 1.2.4.2.1.4.2.6.2.2.1.5.2.5.2.2 0 .6-.2.9-.5.3-.2.7-.7 1-1.1.7-.8 1.5-1.5 2.2-2.2s1.4-1.3 2-1.8c1.2-1 2.1-1.6 2.1-1.6s-.5.9-1.5 2.2c-.5.6-1 1.3-1.7 2.1-.4.4-.8.9-1.2 1.4l2.2 1.6-3-.7-.1.1-1.2 1.2c-.2.2-.5.3-.8.5-.3.1-.6.2-1 .2-.1 0-.2 0-.3-.1h-.2c-.1 0-.1-.1-.2-.1l-4.8 4.1 3.7-4.9zM2060-721.4l15.9 8.5c1 .5 2.7.7 3.7.5l10.5-2.9c1-.3 1.1-1 .1-1.5l-15.9-8.5c-1-.5-2.7-.7-3.7-.5l-10.5 2.9c-1 .3-1.1.9-.1 1.5zm11.7.3c0-.2 0-.4.1-.6.3-2.3.5-3.8.5-3.8s.2 1.5.3 3.8c0 .6 0 1.2.1 1.8v.4l.1.1c.2.1.4.3.7.4.6.2 1.2.3 2 .3.7.1 1.5.2 2.2.2.8.1 1.5.2 2.2.3.7.1 1.5.2 2.2.3 1.4.2 2.7.5 3.8.7 2.2.4 3.7.9 3.7.9s-1.5.1-3.8-.1c-1.1 0-2.5-.1-3.9-.3-.7-.1-1.4-.1-2.2-.2-.7-.1-1.4-.2-2.1-.2l-.7 3.5-.5-3.7c-.4-.1-.8-.1-1.2-.2-.7-.1-1.6-.2-2.3-.5-.4-.2-.7-.3-1.1-.7-.2-.2-.4-.4-.4-.8v-.5l-10.1-1.9 10.4.8z"/><path d="M2284.2-724.6c-.2-.7-.9-.7-1.5-.1l-9.3 9.8c-.6.6-.9 1.7-.7 2.4l2.3 6.9c.2.7.9.7 1.5.1l9.3-9.8c.6-.6.9-1.7.7-2.4l-2.3-6.9zm-1.1 8.1c-.9 0-1.9-.1-2.9-.1H2279.9c-.1 0-.2.1-.3.1-.2.1-.3.3-.5.5-.1.2-.2.4-.3.7-.1.3-.1.5-.2.8-.2.5-.3 1.1-.5 1.6s-.3 1.1-.5 1.6c-.3 1-.6 2-.9 2.8-.5 1.6-1 2.7-1 2.7s.2-1.1.6-2.8c.2-.8.4-1.8.7-2.9.1-.5.3-1.1.4-1.6 0-.1.1-.3.1-.4l-3.8-.6h4c.1-.2.1-.4.2-.6.1-.3.2-.6.2-.8.1-.3.2-.6.4-.9.2-.3.4-.5.7-.7.1-.1.3-.2.5-.2h1l2.2-6.5-1.5 6.6c.6.1 1.2.1 1.8.2 1.7.2 2.8.4 2.8.4s-1.1.1-2.9.1zM2388.9-722.2c-.7.3-.7.9-.1 1.5l10.3 9.2c.7.6 1.7.9 2.4.6l7-2.6c.7-.3.7-.9.1-1.5l-10.3-9.2c-.7-.6-1.7-.9-2.4-.6l-7 2.6zm8.2.9V-718c0 .1.1.2.1.3.1.2.3.3.5.5.2.1.4.2.7.3.3.1.6.1.8.2.6.1 1.1.3 1.7.4s1.1.3 1.6.4c1.1.3 2 .6 2.9.8 1.7.5 2.8.9 2.8.9s-1.2-.2-2.9-.5c-.9-.2-1.9-.4-2.9-.6-.5-.1-1.1-.2-1.6-.4-.1 0-.3-.1-.4-.1l-.5 3.9-.2-4.1c-.2 0-.4-.1-.6-.1-.3-.1-.6-.1-.9-.2-.3-.1-.6-.2-.9-.4-.3-.2-.5-.4-.7-.7-.1-.1-.2-.3-.2-.5v-.5-.5l-6.7-2 6.7 1.3c.1-.6.1-1.2.2-1.8.2-1.7.4-2.9.4-2.9s.1 1.2.1 3zM2228.1-701l-19.1-7.7c-1.2-.5-3.1-.5-4.2-.1l-11.2 4.4c-1.1.4-1 1.2.2 1.7l19.1 7.7c1.2.5 3.1.5 4.2.1l11.2-4.4c1.1-.4 1-1.2-.2-1.7zm-13.3.6c0 .3 0 .6.1.9.2 2.6.2 4.3.2 4.3s-.3-1.7-.7-4.2c-.1-.6-.2-1.3-.3-2v-.3-.2c0-.1-.1-.2-.2-.2-.3-.2-.6-.3-1-.4-.4-.1-.7-.1-1.1-.2h-3.8c-.9 0-1.7-.1-2.5-.1s-1.7-.1-2.5-.1c-1.6-.1-3.1-.2-4.4-.2-2.6-.2-4.3-.4-4.3-.4s1.7-.1 4.3-.2h9.5l-.1-4.3.9 4.3c.6 0 1.1 0 1.7.1.8 0 1.7.1 2.5.3.4.1.8.3 1.2.6.2.1-.1.4 0 .7 0 .2-.4.3-.4.4v.3c0 .1.5.1.5.2l12.1.7h-11.7zM2121.2-734.6l-11.2-1.7c-.7-.1-1.8.3-2.4.9l-6.1 6.2c-.6.6-.5 1.2.2 1.3l11.2 1.7c.7.1 1.8-.3 2.4-.9l6.1-6.2c.6-.6.6-1.2-.2-1.3zm-.9 1.2c-.4.2-1.1.5-1.8.8-.8.3-1.7.7-2.6 1.1l-1.5.6c-.4.2-.8.3-1.2.5l.3 3.6-.7-3.4-1.5.6c-.3.1-.6.1-.9.2-.3 0-.6 0-.9-.3l-.2-.2h-1.2l.6-.1.3-.1c0-.1.1-.3.1-.4 0 0 .1-.1.1-.2l-6.6 2.3 6.6-2.8v-.1c-.1-.5-.1-.9-.1-1.3-.1-.8-.1-1.5-.2-2 0-.5-.1-.8-.1-.8s.1.3.2.7c.1.5.2 1.2.4 2 .1.4.1.9.2 1.3 0 .2.1.5.1.7 0 .1 0 .2.1.4v.2l.1.1s.4.2.6.1c.2 0 .5-.1.7-.1l1.5-.6 1.5-.6 1.5-.6c1-.4 1.9-.7 2.7-1 .8-.4 1.4-.6 1.9-.6.4-.2.7-.3.7-.3s-.2.1-.7.3zM2568.2-694.1l-42.7-11.4c-2.7-.7-6.7-.4-8.8.8l-21.7 11.8c-2.2 1.2-1.7 2.7 1 3.4l42.7 11.4c2.7.7 6.7.4 8.8-.8l21.7-11.8c2.1-1.2 1.7-2.7-1-3.4zm-9.7 3.4c-2.7.4-5.8.8-9.2 1.2-1.7.2-3.4.4-5.2.6-1.7.2-3.4.3-5.1.5l1.7 8.9-3.6-8.7c-1.2.1-2.5.2-3.7.3-1.7.2-3.7.3-5.4-.1-.9-.2-1.8-.4-2.6-1-.4-.3-.9-.7-1.1-1.3-.1-.2-.1-.2-.1-.3l-.1-.3-.1-.6c0-.1-.1-.2-.1-.4l-24.8 1.2 24.3-3.3c-.2-.6-.3-1.2-.4-1.8-1.3-5.3-2-8.8-2-8.8s1.4 3.4 3.1 8.5c.4 1.3.9 2.7 1.4 4.1l.2.6.1.3c0 .1.1.2.1.2 0 .1.2.3.5.4.5.3 1.3.5 2 .6.8.1 1.6.2 2.4.1.8 0 1.7-.2 2.6-.2 1.8-.2 3.6-.4 5.3-.5 1.8-.2 3.6-.3 5.4-.5 1.8-.2 3.5-.3 5.2-.4 3.4-.2 6.5-.4 9.2-.5 5.4-.2 9-.2 9-.2s-3.6.6-9 1.4zM2749.7-526.3l25.1 1.6c2.5.2 3.3-1.2 1.8-3.1l-23.4-29.2c-1.5-1.9-4.7-3.5-7.2-3.7l-25.1-1.6c-2.5-.2-3.3 1.2-1.8 3.1l23.4 29.2c1.5 1.9 4.7 3.6 7.2 3.7zm-9.1-19.9c.1-.2.2-.4.2-.5l.2-.2.3-.5s0-.1.1-.1l-19.1-11.1 20.5 9c.5-.7.9-1.4 1.4-2 2.8-4.2 4.9-6.8 4.9-6.8s-1.3 3.1-3.6 7.6c-.6 1.1-1.2 2.3-1.9 3.6-.2.3-.3.6-.5 1l-.3.5-.1.2v.1s.1.5.6 1c.4.5 1 .9 1.6 1.3.6.4 1.2.7 2 1.1 1.5.7 3 1.5 4.5 2.2 1.5.8 3 1.5 4.4 2.3 1.5.8 2.9 1.6 4.3 2.3 2.8 1.5 5.3 3 7.4 4.3 4.3 2.6 7.1 4.5 7.1 4.5s-3.2-1.1-7.8-3.1c-2.3-1-5-2.2-7.8-3.5-1.4-.7-2.9-1.3-4.4-2.1-1.3-.6-2.6-1.3-3.8-1.9l-5.5 7.1 3.5-8.1-3-1.5c-.7-.4-1.5-.8-2.3-1.3-.7-.5-1.4-1.1-2-1.9-.3-.4-.6-.8-.8-1.3-.2-.8-.4-1.5-.1-2.2zM2452.4-622.4l-11.3-10.9c-.7-.7-2.2-1.5-3.3-1.7l-11-2.5c-1.1-.2-1.4.1-.7.8l11.3 10.9c.7.7 2.2 1.5 3.3 1.7l11 2.5c1.1.3 1.4-.1.7-.8zm-13-2.6s.7-1.2 1.9-2.9c.1-.2.3-.4.4-.6 0-.1-.1-.1-.2-.2-.4-.3-.9-.6-1.4-.9l-1.8-.9-1.8-.9s-1.2-.6-1.8-1c-.6-.3-1.2-.6-1.7-1-1.1-.6-2.1-1.2-3-1.8-1.7-1.1-2.9-1.9-2.9-1.9s1.3.5 3.2 1.3c.9.4 2 .9 3.2 1.5l1.8.9 1.8.9c.3.2.7.3 1 .5l2-1.6-1.1 2.1c.6.3 1.1.6 1.7.9s1.1.7 1.6 1.2c.1.1.2.3.3.5 0 .1.1.2.1.4v.3c0 .1-.1.2-.1.2l8.7 5.2-9.5-4.3c-1.5 1.3-2.4 2.1-2.4 2.1zM2084.3-708.7c0-.1 0-.1 0 0z"/><path d="M2147.8-752.5l-22.9 5.7c-1.5.4-3 1.5-3.5 2.5l-4.9 10.5c-.5 1 .3 1.6 1.8 1.2l22.9-5.7c1.5-.4 3-1.5 3.5-2.5l4.9-10.5c.5-1.1-.3-1.6-1.8-1.2zm-3.1 4.1c-1.1.9-2.4 1.9-3.8 3-.7.5-1.4 1.1-2.2 1.6l-1.2.9 4 3.5-5-2.8s-.1 0-.1.1c-.8.6-1.5 1.1-2.3 1.6-.9.5-1.8.9-2.9.9-.3 0-.6 0-.9-.2-.4-.2-.4-.3-.6-.4-.1-.1-.3-.2-.4-.3l-10.2 6.6 9.2-7.4c-.5-.4-1-.7-1.4-1.1-2.2-1.7-3.7-3-3.7-3s1.7.9 4.1 2.4c.6.4 1.3.8 1.9 1.2.3.2.7.4 1 .7.2.1.4.3.4.3.1 0 .3.1.4 0 .7 0 1.5-.4 2.2-.8.7-.5 1.5-1.1 2.2-1.6.8-.5 1.5-1.1 2.3-1.6s1.5-1 2.2-1.6c1.5-1 2.8-1.9 4-2.7l4-2.5s-1 1.4-3.2 3.2zM2688.9-630.6l-19.2-25.4c-1.2-1.6-3.6-3-5.4-3l-10.7-.3s-4.6-.2-6.6 0-2.6 1.3-1.8 2.4c.6.9 4.5 5.9 4.5 5.9l14.9 19.7c1.2 1.6 3.7 3 5.4 3l17.9.6c1.8 0 2.2-1.3 1-2.9zm-7.5-1.5c-1.8-.8-3.9-1.8-6.2-3-1.1-.6-2.3-1.1-3.4-1.8-.7-.4-1.3-.7-2-1.1l-3.4 6.4 1.5-7.4c-1-.6-2.1-1.2-3.1-1.8-1.3-.8-2.4-1.8-3.1-3.2-.2-.4-.3-.8-.3-1.3 0-.3 0-.6.1-.8l.2-.4c.1-.2.1-.3.2-.4l-10.8-7.1.2-.5 11.5 5.4c.3-.7.6-1.3.8-1.9 1.6-3.7 2.9-6 2.9-6s-.5 2.7-1.6 6.5c-.3 1-.5 2-.9 3.1-.2.5-.3 1.1-.5 1.7l-.1.4v.1c0 .1.1.3.2.4.4.8 1.4 1.5 2.3 2.1 1.1.6 2.3 1.3 3.5 1.9 1.2.7 2.3 1.3 3.5 2 1.1.6 2.2 1.3 3.3 2 2.1 1.3 4.1 2.5 5.8 3.7 3.3 2.2 5.5 3.9 5.5 3.9s-2.5-1.2-6.1-2.9z"/></g><path fill="#03709C" d="M1613.3-619.9c-.8 1.1-1.6 2.3-2.1 3.8-.5 1.4-.9 3.1-.9 4.8 0 .9.1 1.6.3 2.5 0 .1.1.2.1.3-6.2 1.9-12.7 4.8-19.2 8.6-22.4 13.3-29 43.7-29 43.7s29.8 9 52.3-4.3c6.4-3.8 12.1-8.1 16.7-12.6.2.1.3.3.4.4.7.6 1.3 1 2.1 1.5 1.5.8 3.1 1.3 4.6 1.5 1.5.2 3 .2 4.3 0 2.7-.4 4.9-1.4 7-2.5 4-2.3 7.2-5.4 9.8-8.6 2.6-3.3 4.7-6.9 6.2-10.6-2.6 3.1-5.5 5.8-8.7 8-3.2 2.2-6.6 3.9-10 4.6-1.7.4-3.3.5-4.6.2-.7-.1-1.2-.3-1.6-.6-.4-.3-.7-.6-.9-.9-.1-.1-.2-.4-.2-.5-.1-.2-.1-.3-.1-.5-.1-.3-.1-.7-.1-1.2v-.5c2.5-3.7 4.3-7.4 5.1-10.8 1-4-5.7-15.5-9.5-16.7-3.6-1-7.9-1.3-12.7-.8-.4-.2-.7-.4-1-.6-.1-.1-.3-.2-.4-.3-.1 0-.2-.3-.3-.4-.2-.3-.3-.7-.3-1.2s.1-1.1.3-1.7c.4-1.3 1.3-2.7 2.4-4 2.3-2.6 5.4-4.8 8.9-6.6 3.5-1.7 7.3-3 11.2-3.7-4-.5-8.2-.4-12.3.3s-8.3 2-12.3 4.4c-1.9 1.3-3.8 2.9-5.5 5z"/><path fill="#FFF" d="M1587.2-583.4c5.1-3 11.6-1.3 14.6 3.8s1.3 11.6-3.8 14.6-11.6 1.3-14.6-3.8c-3-5-1.3-11.6 3.8-14.6z"/></svg>