<svg xmlns="http://www.w3.org/2000/svg" viewBox="32 90.9 660 660"><path fill="#03709C" d="M258.4 300.2c-1.5-1-5.8 2.4-10.5 8.1l-6.9.4c-.1 0-.1 0-.2-.1s-.4.2-.7.6c-.3-.2-1-.6-1.2-.7-.2-.1-.5.1-.8.6-.3.4-.3.8-.2.9l1.2.8c-.2.4-.2.7-.1.7l.1.1 2.3 6c-4.2 6.9-6.2 12.7-4.5 13.8.2.1.5.2.8.2v.1c3.6.2 9.3-1.6 14-5 1.1.4 2.3.6 3.4.6l2.6 3.7.7-.3 1 1.5.5-.3.2 4.2.8-.5-.2-2.8 1.3 2 4-2.6-1.4-2.2 2.7 1.3.8-.5-3.8-1.9.6-.4-1-1.5.6-.5-4.2-7.1c-.2-.1-1.3-.4-1.7-.6 3.2-6.5 2.5-13.6.3-18.1-.2-.2-.3-.4-.5-.5zm-15.6 15.2c-.3.5-.6.9-.9 1.4l-1.6-4.1.1-.8.1-.1s.1 0 .2-.1c.5 1 1.3 2.3 2.1 3.7zm14.2 5.8l1.1.2-.5 2.2-2.2-.4 1.2-1.5c.2-.1.3-.3.4-.5zm-4 4.5c.2-.2.4-.3.6-.5l.5.7c-.4-.1-.8-.1-1.1-.2zm-8.8-12.3c-.3.4-.6.9-.9 1.3l-2-3.1c.2-.1.4-.3.5-.4s.1-.3.1-.5l3.4 1c-.4.6-.7 1.2-1.1 1.7zm-2.3-3.2c0-.1 0-.3-.1-.3l.5-.5 5-.3c-.5.7-1.1 1.4-1.6 2.1l-3.8-1zm14.2 15.6l-1.6-1.6.5-.5 2.5.4-.3 1.5c-.3.1-.7.2-1.1.2zm3.6 1.1l-1.5 1-.9-.9c.8-.2 1.5-.5 2.2-.9l.2.8zm-.3-2.2c-.5.3-1 .6-1.6.8l.3-1.2 1.3.2v.2zm-.1-.7l-1.1-.2.5-2.2.3.1.3 2.3z"/><circle fill="#03709C" cx="363.5" cy="421.3" r="136.3"/><g opacity=".7"><path fill="#8AA25E" d="M431.3 663.1h-3.2v-1.6h3.2v1.6zm4.8 0v-1.6c1.1 0 2.1-.1 3.2-.1l.1 1.6c-1.1 0-2.2.1-3.3.1zm-12.9-.2c-1.1 0-2.2-.1-3.2-.2l.1-1.6c1.1.1 2.1.1 3.2.2l-.1 1.6zm21-.1l-.1-1.6c1.1-.1 2.1-.1 3.2-.2l.1 1.6c-1.1 0-2.1.1-3.2.2zm-29-.4c-1.1-.1-2.1-.2-3.2-.3l.2-1.6c1.1.1 2.1.2 3.2.3l-.2 1.6zm37-.3l-.2-1.6c1.1-.1 2.1-.2 3.2-.4l.2 1.6c-1 .1-2.1.3-3.2.4zm-45-.6c-1.1-.1-2.1-.3-3.2-.4l.2-1.6c1.1.2 2.1.3 3.2.4l-.2 1.6zm53-.4l-.2-1.6c1.1-.2 2.1-.3 3.2-.5l.3 1.6c-1.2.1-2.2.3-3.3.5zm-61-.8c-1.1-.2-2.1-.4-3.2-.6l.3-1.6c1 .2 2.1.4 3.1.6l-.2 1.6zm69-.6l-.3-1.6c1-.2 2.1-.4 3.1-.6l.3 1.6c-1 .2-2.1.4-3.1.6zm-76.9-1c-1.1-.2-2.1-.5-3.1-.7l.4-1.6c1 .2 2.1.5 3.1.7l-.4 1.6zm84.8-.7l-.4-1.6c1-.2 2.1-.5 3.1-.8l.4 1.6c-1.1.3-2.1.6-3.1.8zm-92.7-1.2c-1-.3-2.1-.6-3.1-.9l.4-1.5c1 .3 2.1.6 3.1.8l-.4 1.6zm100.5-.8l-.4-1.5c1-.3 2.1-.6 3.1-.9l.5 1.5c-1.2.3-2.2.6-3.2.9zm-108.2-1.4c-1-.3-2.1-.7-3.1-1l.5-1.5c1 .3 2 .7 3.1 1l-.5 1.5zm115.9-1l-.5-1.5c1-.3 2-.7 3-1l.5 1.5c-1 .3-2 .7-3 1zM368 652c-1-.4-2-.7-3-1.1l.6-1.5c1 .4 2 .7 3 1.1l-.6 1.5zm131.2-1.1l-.6-1.5 3-1.2.6 1.5-3 1.2zm-138.8-1.8c-1-.4-2-.8-3-1.3l.6-1.5 3 1.2-.6 1.6zm146.2-1.2l-.6-1.5c1-.4 2-.8 2.9-1.3l.7 1.5c-1 .5-2 .9-3 1.3zm-153.6-2c-1-.5-2-.9-2.9-1.4l.7-1.4c1 .5 1.9.9 2.9 1.4l-.7 1.4zm161-1.3l-.7-1.4c1-.5 1.9-.9 2.9-1.4l.7 1.4c-1 .4-2 .9-2.9 1.4zm-168.2-2.2c-1-.5-1.9-1-2.9-1.5l.8-1.4c.9.5 1.9 1 2.8 1.5l-.7 1.4zm175.3-1.5l-.8-1.4c.9-.5 1.9-1 2.8-1.5l.8 1.4c-.9.5-1.8 1-2.8 1.5zm-182.5-2.4c-.9-.5-1.9-1.1-2.8-1.6l.8-1.4c.9.5 1.8 1.1 2.8 1.6l-.8 1.4zm189.6-1.5l-.8-1.4c.9-.5 1.8-1.1 2.7-1.6l.8 1.4c-.9.5-1.8 1.1-2.7 1.6zm-196.5-2.6c-.9-.6-1.8-1.2-2.7-1.7l.9-1.3c.9.6 1.8 1.2 2.7 1.7l-.9 1.3zm203.3-1.6l-.9-1.3 2.7-1.8.9 1.3-2.7 1.8zm-210.1-2.9c-.9-.6-1.8-1.2-2.6-1.9l.9-1.3c.9.6 1.7 1.2 2.6 1.8l-.9 1.4zm216.8-1.6l-1-1.4c.9-.6 1.7-1.2 2.6-1.9l1 1.3c-.9.7-1.8 1.3-2.6 2zm-223.3-3.1c-.9-.6-1.7-1.3-2.6-2l1-1.3c.8.7 1.7 1.3 2.5 1.9l-.9 1.4zm229.7-1.7l-1-1.3c.8-.7 1.7-1.3 2.5-2l1 1.3c-.8.6-1.6 1.3-2.5 2zM312 620.3c-.8-.7-1.7-1.4-2.5-2.1l1-1.2c.8.7 1.6 1.4 2.5 2.1l-1 1.2zm242.4-1.9l-1-1.2 2.4-2.1 1.1 1.2c-.9.7-1.7 1.4-2.5 2.1zM305.9 615c-.8-.7-1.6-1.4-2.4-2.2l1.1-1.2c.8.7 1.6 1.4 2.4 2.2l-1.1 1.2zm254.5-2l-1.1-1.2c.8-.7 1.6-1.5 2.3-2.2l1.1 1.2c-.7.8-1.5 1.5-2.3 2.2zM300 609.5l-2.3-2.3 1.1-1.1 2.3 2.3-1.1 1.1zm266.3-2l-1.1-1.1c.8-.8 1.5-1.5 2.2-2.3l1.2 1.1c-.8.7-1.6 1.5-2.3 2.3zm-271.9-3.7c-.7-.8-1.5-1.6-2.2-2.4l1.2-1.1c.7.8 1.4 1.6 2.2 2.3l-1.2 1.2zm277.4-2.2l-1.2-1.1 2.1-2.4 1.2 1.1c-.6.8-1.3 1.6-2.1 2.4zm-282.9-3.8c-.7-.8-1.4-1.6-2.1-2.5l1.2-1 2.1 2.4-1.2 1.1zm288.3-2.2l-1.2-1c.7-.8 1.4-1.6 2-2.5l1.2 1c-.7.8-1.4 1.6-2 2.5zm-293.4-4c-.7-.8-1.3-1.7-2-2.5l1.3-1c.7.8 1.3 1.7 2 2.5l-1.3 1zm298.4-2.3l-1.3-1c.7-.8 1.3-1.7 1.9-2.6l1.3 1c-.6.9-1.2 1.7-1.9 2.6zm-303.3-4.1c-.6-.9-1.3-1.7-1.9-2.6l1.3-.9c.6.9 1.2 1.7 1.9 2.6l-1.3.9zm308.1-2.4l-1.3-.9c.6-.9 1.2-1.8 1.8-2.6l1.3.9c-.6.8-1.2 1.7-1.8 2.6zm-312.7-4.2l-1.8-2.7 1.4-.9c.6.9 1.2 1.8 1.7 2.7l-1.3.9zm317.2-2.5l-1.4-.9c.6-.9 1.1-1.8 1.7-2.7l1.4.8c-.5 1-1.1 1.9-1.7 2.8zM270 571.8c-.6-.9-1.1-1.8-1.6-2.8l1.4-.8c.5.9 1.1 1.8 1.6 2.7l-1.4.9zm325.8-2.6l-1.4-.8c.5-.9 1.1-1.8 1.6-2.8l1.4.8c-.6.9-1.1 1.9-1.6 2.8zm-329.9-4.4c-.5-.9-1-1.9-1.5-2.8l1.4-.8c.5.9 1 1.9 1.5 2.8l-1.4.8zm333.8-2.7l-1.4-.8c.5-.9 1-1.9 1.5-2.8l1.4.7c-.5 1-1 2-1.5 2.9zm-337.5-4.4c-.5-1-.9-1.9-1.4-2.9l1.5-.7c.5 1 .9 1.9 1.4 2.9l-1.5.7zm341.1-2.8l-1.5-.7c.5-1 .9-1.9 1.4-2.9l1.5.7c-.5 1-.9 1.9-1.4 2.9zm-344.5-4.5c-.4-1-.9-2-1.3-3l1.5-.6c.4 1 .8 2 1.3 2.9l-1.5.7zm347.8-2.9l-1.5-.6 1.2-3 1.5.6c-.3 1-.7 2-1.2 3zM255.7 543l-1.2-3 1.5-.6c.4 1 .8 2 1.1 3l-1.4.6zm353.9-3l-1.5-.6c.4-1 .7-2 1.1-3l1.5.5c-.3 1.1-.7 2.1-1.1 3.1zm-356.7-4.6c-.4-1-.7-2-1-3.1l1.5-.5c.3 1 .7 2 1 3l-1.5.6zm359.4-3l-1.5-.5c.3-1 .7-2 1-3.1l1.5.5c-.3 1-.7 2.1-1 3.1zm-361.9-4.7c-.3-1-.6-2.1-.9-3.1l1.5-.4c.3 1 .6 2.1.9 3.1l-1.5.4zm364.2-3.1l-1.5-.4c.3-1 .6-2.1.8-3.1l1.6.4c-.3 1.1-.6 2.1-.9 3.1zM248.3 520c-.3-1-.5-2.1-.8-3.1l1.6-.4c.2 1 .5 2.1.8 3.1l-1.6.4zm368.3-3.2l-1.6-.4c.2-1 .5-2.1.7-3.1l1.6.3c-.2 1.1-.4 2.2-.7 3.2zm-370.1-4.7c-.2-1.1-.4-2.1-.6-3.2l1.6-.3c.2 1 .4 2.1.6 3.1l-1.6.4zm371.8-3.2l-1.6-.3c.2-1 .4-2.1.6-3.1l1.6.3c-.2 1-.4 2.1-.6 3.1zm-373.2-4.7c-.2-1.1-.3-2.1-.5-3.2l1.6-.2c.2 1.1.3 2.1.5 3.2l-1.6.2zm374.5-3.2l-1.6-.2c.2-1.1.3-2.1.4-3.2l1.6.2c-.1 1.1-.2 2.1-.4 3.2zm-375.7-4.8c-.1-1.1-.2-2.1-.4-3.2l1.6-.2c.1 1.1.2 2.1.3 3.2l-1.5.2zm376.7-3.2l-1.6-.2c.1-1.1.2-2.1.3-3.2l1.6.1-.3 3.3zm-377.4-4.9c-.1-1.1-.2-2.1-.2-3.2l1.6-.1c.1 1.1.1 2.1.2 3.2l-1.6.1zm378-3.2l-1.6-.1c.1-1.1.1-2.1.2-3.2l1.6.1c0 1.1-.1 2.2-.2 3.2zm-378.5-4.8c0-1.1-.1-2.1-.1-3.2h1.6c0 1.1 0 2.1.1 3.2h-1.6zm378.9-3.2H620v-3.2h1.6v3.2zm-1.6-4.8c0-1.1 0-2.1-.1-3.2h1.6c0 1.1 0 2.1.1 3.2H620zm-375.8-.1h-1.6c0-1.1 0-2.2.1-3.2h1.6c0 1.1-.1 2.2-.1 3.2zm375.5-7.9c-.1-1.1-.1-2.1-.2-3.2l1.6-.1c.1 1.1.1 2.1.2 3.2l-1.6.1zm-375.2-.1l-1.6-.1c.1-1.1.1-2.2.2-3.2l1.6.1c-.1 1.1-.2 2.2-.2 3.2zm374.7-7.9c-.1-1.1-.2-2.1-.3-3.2l1.6-.2c.1 1.1.2 2.1.3 3.2l-1.6.2zm-374.2 0l-1.6-.1c.1-1.1.2-2.1.3-3.2l1.6.2c-.1.9-.2 2-.3 3.1zm373.3-8c-.1-1.1-.3-2.1-.5-3.2l1.6-.2c.2 1.1.3 2.1.5 3.2l-1.6.2zm-372.4 0l-1.6-.2c.1-1.1.3-2.1.5-3.2l1.6.2c-.2 1.1-.3 2.2-.5 3.2zm371.1-7.9c-.2-1.1-.4-2.1-.6-3.1l1.6-.3c.2 1.1.4 2.1.6 3.2l-1.6.2zm-369.8 0l-1.6-.3c.2-1.1.4-2.1.6-3.2l1.6.3c-.2 1.1-.4 2.2-.6 3.2zm368.2-7.8c-.2-1-.5-2.1-.7-3.1l1.6-.4c.3 1 .5 2.1.7 3.1l-1.6.4zm-366.6 0l-1.6-.4c.2-1.1.5-2.1.7-3.1l1.6.4c-.3 1-.5 2-.7 3.1zm364.7-7.8c-.3-1-.6-2.1-.9-3.1l1.5-.4c.3 1 .6 2.1.9 3.1l-1.5.4zm-362.8 0l-1.6-.4c.3-1 .6-2.1.9-3.1l1.5.4c-.2 1.1-.5 2.1-.8 3.1zm360.6-7.6c-.3-1-.7-2-1-3l1.5-.5c.3 1 .7 2 1 3.1l-1.5.4zm-358.4-.1l-1.5-.5c.3-1 .7-2.1 1-3.1l1.5.5c-.3 1.1-.6 2.1-1 3.1zm355.8-7.5c-.4-1-.7-2-1.1-3l1.5-.6c.4 1 .8 2 1.1 3l-1.5.6zm-353.2-.1l-1.5-.6c.4-1 .7-2 1.1-3l1.5.6c-.3 1-.7 2-1.1 3zm350.3-7.4c-.4-1-.8-2-1.2-2.9l1.5-.6c.4 1 .8 2 1.3 3l-1.6.5zm-347.4 0l-1.5-.6c.4-1 .8-2 1.3-3l1.5.6c-.4 1-.9 2-1.3 3zm344.2-7.3c-.4-1-.9-1.9-1.4-2.9l1.4-.7c.5 1 .9 1.9 1.4 2.9l-1.4.7zm-340.9-.1l-1.5-.7c.5-1 .9-2 1.4-2.9l1.4.7c-.4 1-.9 2-1.3 2.9zm337.4-7c-.5-.9-1-1.9-1.5-2.8l1.4-.8c.5.9 1 1.9 1.5 2.8l-1.4.8zm-333.9-.2l-1.4-.7c.5-1 1-1.9 1.5-2.9l1.4.8c-.5.9-1 1.9-1.5 2.8zm330.1-6.8c-.5-.9-1.1-1.8-1.6-2.8l1.4-.8c.5.9 1.1 1.8 1.6 2.8l-1.4.8zm-326.3-.2l-1.4-.8c.5-.9 1.1-1.9 1.6-2.8l1.4.8c-.5.9-1 1.9-1.6 2.8zm322.2-6.7c-.6-.9-1.1-1.8-1.7-2.7l1.3-.9c.6.9 1.2 1.8 1.7 2.7l-1.3.9zm-318-.2l-1.4-.9c.6-.9 1.2-1.8 1.7-2.7l1.3.9c-.5.9-1.1 1.8-1.6 2.7zm313.6-6.4c-.6-.9-1.2-1.7-1.8-2.6l1.3-.9c.6.9 1.2 1.8 1.9 2.6l-1.4.9zm-309.2-.2l-1.3-.9c.6-.9 1.2-1.8 1.9-2.6l1.3.9c-.7.8-1.3 1.7-1.9 2.6zm304.5-6.3c-.6-.8-1.3-1.7-1.9-2.5l1.3-1c.7.8 1.3 1.7 2 2.6l-1.4.9zm-299.8-.2l-1.3-1c.7-.9 1.3-1.7 2-2.6l1.3 1c-.7.9-1.4 1.7-2 2.6zm294.8-6.1l-2.1-2.4 1.2-1c.7.8 1.4 1.6 2.1 2.5l-1.2.9zm-289.9-.2l-1.2-1c.7-.8 1.4-1.7 2.1-2.5l1.2 1c-.7.9-1.4 1.7-2.1 2.5zm284.7-5.8c-.7-.8-1.4-1.6-2.2-2.4l1.2-1.1c.7.8 1.5 1.6 2.2 2.4l-1.2 1.1zm-279.4-.3l-1.2-1.1c.7-.8 1.4-1.6 2.2-2.4l1.2 1.1c-.8.9-1.5 1.6-2.2 2.4zm274-5.6c-.7-.8-1.5-1.5-2.3-2.3l1.1-1.1 2.3 2.3-1.1 1.1zm-268.5-.2l-1.1-1.1 2.3-2.3 1.1 1.1-2.3 2.3zm262.7-5.4c-.8-.7-1.6-1.5-2.4-2.2l1.1-1.2c.8.7 1.6 1.5 2.4 2.2l-1.1 1.2zm-257-.2l-1.1-1.2c.8-.7 1.6-1.5 2.4-2.2l1.1 1.2c-.9.8-1.7 1.5-2.4 2.2zm251.1-5.1l-2.4-2.1 1-1.2c.8.7 1.6 1.4 2.5 2.1l-1.1 1.2zm-245.2-.2l-1-1.2c.8-.7 1.6-1.4 2.5-2.1l1 1.2c-.9.7-1.7 1.4-2.5 2.1zm239-4.9c-.8-.7-1.7-1.3-2.5-2l1-1.3c.9.7 1.7 1.3 2.5 2l-1 1.3zm-232.8-.2l-1-1.3c.8-.7 1.7-1.3 2.5-2l1 1.3c-.8.7-1.7 1.3-2.5 2zm226.5-4.7c-.9-.6-1.7-1.2-2.6-1.9l.9-1.3c.9.6 1.8 1.2 2.6 1.9l-.9 1.3zm-220.1-.1l-.9-1.3c.9-.6 1.7-1.2 2.6-1.9l.9 1.3c-.9.6-1.8 1.3-2.6 1.9zm213.5-4.4c-.9-.6-1.8-1.2-2.7-1.7l.9-1.4 2.7 1.8-.9 1.3zm-207-.2l-.9-1.3 2.7-1.8.9 1.4c-.9.6-1.8 1.2-2.7 1.7zm200.2-4.1c-.9-.6-1.8-1.1-2.8-1.6l.8-1.4c.9.5 1.9 1.1 2.8 1.6l-.8 1.4zm-193.4-.1l-.8-1.4c.9-.6 1.8-1.1 2.8-1.6l.8 1.4c-1 .5-1.9 1-2.8 1.6zm186.5-3.9c-.9-.5-1.9-1-2.8-1.5l.7-1.4c1 .5 1.9 1 2.9 1.5l-.8 1.4zm-179.6-.1l-.8-1.4c.9-.5 1.9-1 2.8-1.5l.7 1.4c-.8.5-1.8 1-2.7 1.5zm172.4-3.6c-1-.5-1.9-.9-2.9-1.4l.7-1.5c1 .5 1.9.9 2.9 1.4l-.7 1.5zm-165.3 0l-.7-1.4c1-.5 1.9-.9 2.9-1.4l.7 1.5c-1 .3-2 .8-2.9 1.3zm158.1-3.4c-1-.4-2-.9-2.9-1.3l.6-1.5c1 .4 2 .8 3 1.3l-.7 1.5zm-150.9 0l-.6-1.5c1-.4 2-.9 3-1.3l.6 1.5c-1 .5-2 .9-3 1.3zm143.5-3c-1-.4-2-.8-3-1.1l.6-1.5c1 .4 2 .8 3 1.1l-.6 1.5zm-136.1 0l-.6-1.5c1-.4 2-.8 3-1.1l.6 1.5c-1 .3-2 .7-3 1.1zm7.5-2.8l-.5-1.5c1-.3 2-.7 3.1-1l.5 1.5c-1.1.3-2.1.7-3.1 1zm113.4-2.4c-1-.3-2-.6-3.1-.9l.4-1.6c1 .3 2.1.6 3.1.9l-.4 1.6zm-105.8 0l-.5-1.5c1-.3 2.1-.6 3.1-.9l.4 1.5c-.9.3-1.9.6-3 .9zm98.1-2.1c-1-.3-2.1-.5-3.1-.7l.4-1.6c1 .2 2.1.5 3.1.7l-.4 1.6zm-90.3 0l-.4-1.6c1-.3 2.1-.5 3.1-.7l.4 1.6c-1.1.2-2.1.5-3.1.7zm82.5-1.7c-1-.2-2.1-.4-3.1-.6l.3-1.6c1.1.2 2.1.4 3.2.6l-.4 1.6zm-74.7 0l-.3-1.6c1.1-.2 2.1-.4 3.2-.6l.3 1.6c-1.1.2-2.2.4-3.2.6zm66.8-1.4c-1.1-.2-2.1-.3-3.2-.5l.2-1.6c1.1.1 2.1.3 3.2.5l-.2 1.6zm-59 0l-.2-1.6c1.1-.2 2.1-.3 3.2-.5l.2 1.6c-1.1.2-2.1.3-3.2.5zm51.1-1.1c-1.1-.1-2.1-.2-3.2-.3l.2-1.6c1.1.1 2.1.2 3.2.3l-.2 1.6zm-43.1 0l-.2-1.6c1.1-.1 2.1-.2 3.2-.3l.2 1.6c-1.1.1-2.2.2-3.2.3zm35.1-.7c-1.1-.1-2.1-.1-3.2-.2l.1-1.6c1.1.1 2.1.1 3.2.2l-.1 1.6zm-27.2 0l-.1-1.6c1.1-.1 2.1-.1 3.2-.2l.1 1.6c-1.1 0-2.1.1-3.2.2zm19.2-.4c-1.1 0-2.1-.1-3.2-.1v-1.6c1.1 0 2.2 0 3.2.1v1.6zm-11.2 0v-1.6c1.1 0 2.1-.1 3.2-.1v1.6c-1.1 0-2.1 0-3.2.1z"/><path fill="#1498C8" d="M288.6 568.5h-3.2v-1.6h3.2v1.6zm4.8 0v-1.6c1.1 0 2.1-.1 3.2-.1l.1 1.6c-1.1 0-2.2.1-3.3.1zm-12.9-.2c-1.1 0-2.2-.1-3.2-.2l.1-1.6c1.1.1 2.1.1 3.2.2l-.1 1.6zm21-.2l-.1-1.6c1.1-.1 2.1-.1 3.2-.2l.1 1.6c-1.1.1-2.2.2-3.2.2zm-29-.3c-1.1-.1-2.1-.2-3.2-.3l.2-1.6c1.1.1 2.1.2 3.2.3l-.2 1.6zm37-.3l-.2-1.6c1.1-.1 2.1-.2 3.2-.4l.2 1.6c-1.1.1-2.1.3-3.2.4zm-45.1-.6c-1.1-.1-2.1-.3-3.2-.4l.2-1.6c1.1.2 2.1.3 3.2.4l-.2 1.6zm53.1-.4l-.2-1.6c1.1-.2 2.1-.3 3.2-.5l.3 1.6c-1.2.1-2.2.3-3.3.5zm-61-.8c-1.1-.2-2.1-.4-3.2-.6l.3-1.6c1 .2 2.1.4 3.1.6l-.2 1.6zm69-.6l-.3-1.6c1-.2 2.1-.4 3.1-.6l.3 1.6c-1 .2-2.1.4-3.1.6zm-76.9-1c-1.1-.2-2.1-.5-3.1-.7l.4-1.6c1 .2 2.1.5 3.1.7l-.4 1.6zm84.7-.7l-.4-1.6c1-.2 2.1-.5 3.1-.8l.4 1.6c-1 .3-2 .5-3.1.8zm-92.6-1.2c-1-.3-2.1-.6-3.1-.9l.4-1.5c1 .3 2.1.6 3.1.8l-.4 1.6zm100.4-.8l-.4-1.5c1-.3 2.1-.6 3.1-.9l.5 1.5c-1.1.3-2.1.6-3.2.9zM233 560c-1-.3-2.1-.7-3.1-1l.5-1.5c1 .3 2 .7 3.1 1l-.5 1.5zm115.9-1l-.5-1.5c1-.3 2-.7 3-1l.5 1.5c-1 .3-2 .7-3 1zm-123.6-1.6c-1-.4-2-.7-3-1.1l.6-1.5c1 .4 2 .7 3 1.1l-.6 1.5zm131.2-1.1l-.6-1.5 3-1.2.6 1.5-3 1.2zm7.4-3l-.6-1.5c1-.4 2-.8 2.9-1.3l.7 1.5c-1 .4-2 .9-3 1.3zm-153.6-2c-1-.5-2-.9-2.9-1.4l.7-1.4c1 .5 1.9.9 2.9 1.4l-.7 1.4zm161-1.3l-.7-1.4c1-.5 1.9-.9 2.9-1.4l.7 1.4c-1 .4-2 .9-2.9 1.4zM203 547.8c-1-.5-1.9-1-2.9-1.5l.8-1.4c.9.5 1.9 1 2.8 1.5l-.7 1.4zm175.4-1.5l-.7-1.4c.9-.5 1.9-1 2.8-1.5l.8 1.4c-1 .5-1.9 1-2.9 1.5zm-182.5-2.4c-.9-.5-1.9-1.1-2.8-1.6l.8-1.4c.9.5 1.8 1.1 2.8 1.6l-.8 1.4zm189.5-1.5l-.8-1.4c.9-.5 1.8-1.1 2.7-1.6l.8 1.4c-.8.5-1.7 1.1-2.7 1.6zM189 539.8c-.9-.6-1.8-1.2-2.7-1.7l.9-1.3c.9.6 1.8 1.2 2.7 1.7l-.9 1.3zm203.3-1.6l-.9-1.3 2.7-1.8.9 1.3-2.7 1.8zm-210.1-2.9c-.9-.6-1.8-1.2-2.6-1.9l.9-1.3c.9.6 1.7 1.2 2.6 1.8l-.9 1.4zm216.8-1.7l-.9-1.3c.9-.6 1.7-1.2 2.6-1.9l1 1.3c-1 .7-1.9 1.3-2.7 1.9zm-223.3-3c-.9-.6-1.7-1.3-2.6-2l1-1.3c.8.7 1.7 1.3 2.5 1.9l-.9 1.4zm229.7-1.8l-1-1.3c.8-.7 1.7-1.3 2.5-2l1 1.3c-.8.7-1.6 1.4-2.5 2zm-236.1-3.2c-.8-.7-1.7-1.4-2.5-2.1l1-1.2c.8.7 1.6 1.4 2.5 2.1l-1 1.2zm242.4-1.8l-1-1.2 2.4-2.1 1.1 1.2c-.9.7-1.7 1.4-2.5 2.1zm-248.5-3.4c-.8-.7-1.6-1.4-2.4-2.2l1.1-1.2c.8.7 1.6 1.4 2.4 2.2l-1.1 1.2zm254.5-2l-1.1-1.2c.8-.7 1.6-1.5 2.3-2.2l1.1 1.2c-.7.8-1.5 1.5-2.3 2.2zm-260.4-3.5l-2.3-2.3 1.1-1.1 2.3 2.3-1.1 1.1zm266.2-2.1l-1.1-1.1c.8-.8 1.5-1.5 2.2-2.3l1.2 1.1c-.7.8-1.5 1.6-2.3 2.3zm-271.9-3.6c-.7-.8-1.5-1.6-2.2-2.4l1.2-1.1c.7.8 1.4 1.6 2.2 2.3l-1.2 1.2zm277.5-2.2l-1.2-1.1 2.1-2.4 1.2 1.1c-.6.8-1.4 1.6-2.1 2.4zm-282.9-3.8c-.7-.8-1.4-1.6-2.1-2.5l1.2-1 2.1 2.4-1.2 1.1zm288.2-2.2l-1.2-1c.7-.8 1.4-1.6 2-2.5l1.2 1c-.6.8-1.3 1.6-2 2.5zm-293.3-4c-.7-.8-1.3-1.7-2-2.5l1.3-1c.7.8 1.3 1.7 2 2.5l-1.3 1zm298.4-2.3l-1.3-1c.7-.8 1.3-1.7 1.9-2.6l1.3 1c-.6.9-1.2 1.7-1.9 2.6zm-303.3-4.1c-.6-.9-1.3-1.7-1.9-2.6l1.3-.9c.6.9 1.2 1.7 1.9 2.6l-1.3.9zm308.1-2.4l-1.3-.9c.6-.9 1.2-1.8 1.8-2.6l1.3.9c-.6.8-1.2 1.7-1.8 2.6zM131.6 484l-1.8-2.7 1.4-.9c.6.9 1.2 1.8 1.7 2.7l-1.3.9zm317.2-2.5l-1.4-.9c.6-.9 1.1-1.8 1.7-2.7l1.4.8c-.5 1-1.1 1.9-1.7 2.8zm-321.5-4.3c-.6-.9-1.1-1.8-1.6-2.8l1.4-.8c.5.9 1.1 1.8 1.6 2.7l-1.4.9zm325.7-2.6l-1.4-.8c.5-.9 1.1-1.8 1.6-2.8l1.4.8c-.5.9-1 1.9-1.6 2.8zm-329.8-4.4c-.5-.9-1-1.9-1.5-2.8l1.4-.8c.5.9 1 1.9 1.5 2.8l-1.4.8zm333.8-2.7l-1.4-.8c.5-.9 1-1.9 1.5-2.8l1.4.7c-.5 1-1 2-1.5 2.9zm-337.5-4.4c-.5-1-.9-1.9-1.4-2.9l1.5-.7c.5 1 .9 1.9 1.4 2.9l-1.5.7zm341.1-2.8l-1.5-.7c.5-1 .9-1.9 1.4-2.9l1.5.7c-.5 1-.9 1.9-1.4 2.9zm-344.5-4.5c-.4-1-.9-2-1.3-3l1.5-.6c.4 1 .8 2 1.3 2.9l-1.5.7zm347.8-2.9l-1.5-.6 1.2-3 1.5.6c-.3 1-.8 2-1.2 3zM113 448.4l-1.2-3 1.5-.6c.4 1 .8 2 1.1 3l-1.4.6zm353.9-3l-1.5-.6c.4-1 .7-2 1.1-3l1.5.5c-.3 1.1-.7 2.1-1.1 3.1zm-356.7-4.6c-.4-1-.7-2-1-3.1l1.5-.5c.3 1 .7 2 1 3l-1.5.6zm359.4-3l-1.5-.5c.3-1 .7-2 1-3.1l1.5.5c-.4 1-.7 2.1-1 3.1zm-361.9-4.7c-.3-1-.6-2.1-.9-3.1l1.5-.4c.3 1 .6 2.1.9 3.1l-1.5.4zm364.2-3.1l-1.5-.4c.3-1 .6-2.1.8-3.1l1.6.4c-.3 1.1-.6 2.1-.9 3.1zm-366.3-4.7c-.3-1-.5-2.1-.8-3.1l1.6-.4c.2 1 .5 2.1.8 3.1l-1.6.4zm368.3-3.1l-1.6-.4c.2-1 .5-2.1.7-3.1l1.6.3c-.2 1.1-.4 2.2-.7 3.2zm-370.1-4.7c-.2-1.1-.4-2.1-.6-3.2l1.6-.3c.2 1 .4 2.1.6 3.1l-1.6.4zm371.8-3.2l-1.6-.3c.2-1 .4-2.1.6-3.1l1.6.3c-.2 1-.4 2.1-.6 3.1zm-373.3-4.7c-.2-1.1-.3-2.1-.5-3.2l1.6-.2c.2 1.1.3 2.1.5 3.2l-1.6.2zm374.6-3.2l-1.6-.2c.2-1.1.3-2.1.4-3.2l1.6.2c-.1 1-.2 2.1-.4 3.2zm-375.7-4.8c-.1-1.1-.2-2.1-.4-3.2l1.6-.2c.1 1.1.2 2.1.3 3.2l-1.5.2zm376.7-3.2l-1.6-.2c.1-1.1.2-2.1.3-3.2l1.6.1-.3 3.3zm-377.4-4.9c-.1-1.1-.2-2.1-.2-3.2l1.6-.1c.1 1.1.1 2.1.2 3.2l-1.6.1zm378-3.2l-1.6-.1c.1-1.1.1-2.1.2-3.2l1.6.1c0 1.1-.1 2.2-.2 3.2zM100 385.5c0-1.1-.1-2.1-.1-3.2h1.6c0 1.1 0 2.1.1 3.2H100zm378.8-3.2h-1.6v-3.2h1.6c.1 1 .1 2.1 0 3.2zm-1.5-4.8c0-1.1 0-2.1-.1-3.2h1.6c0 1.1 0 2.1.1 3.2h-1.6zm-375.8-.1h-1.6c0-1.1 0-2.2.1-3.2h1.6c-.1 1.1-.1 2.2-.1 3.2zm375.5-7.9c-.1-1.1-.1-2.1-.2-3.2l1.6-.1c.1 1.1.1 2.1.2 3.2l-1.6.1zm-375.2-.1l-1.6-.1c.1-1.1.1-2.2.2-3.2l1.6.1c-.1 1.1-.2 2.2-.2 3.2zm374.7-7.9c-.1-1.1-.2-2.1-.3-3.2l1.6-.2c.1 1.1.2 2.1.3 3.2l-1.6.2zm-374.2 0l-1.6-.1c.1-1.1.2-2.1.3-3.2l1.6.2c-.1.9-.2 2-.3 3.1zm373.2-8c-.1-1.1-.3-2.1-.5-3.2l1.6-.2c.2 1.1.3 2.1.5 3.2l-1.6.2zm-372.3 0l-1.6-.2c.1-1.1.3-2.1.5-3.2l1.6.2c-.2 1.1-.3 2.2-.5 3.2zm371.1-7.9c-.2-1.1-.4-2.1-.6-3.1l1.6-.3c.2 1.1.4 2.1.6 3.2l-1.6.2zm-369.8 0l-1.6-.3c.2-1.1.4-2.1.6-3.2l1.6.3c-.2 1.1-.4 2.2-.6 3.2zm368.2-7.8c-.2-1-.5-2.1-.7-3.1l1.6-.4c.3 1 .5 2.1.7 3.1l-1.6.4zm-366.6 0l-1.6-.4c.2-1.1.5-2.1.7-3.1l1.6.4c-.3 1-.5 2-.7 3.1zm364.7-7.8c-.3-1-.6-2.1-.9-3.1l1.5-.4c.3 1 .6 2.1.9 3.1l-1.5.4zM108 330l-1.6-.4c.3-1 .6-2.1.9-3.1l1.5.4c-.3 1.1-.5 2.1-.8 3.1zm360.6-7.6c-.3-1-.7-2-1-3l1.5-.5c.3 1 .7 2 1 3.1l-1.5.4zm-358.4-.1l-1.5-.5c.3-1 .7-2.1 1-3.1l1.5.5c-.3 1.1-.7 2.1-1 3.1zm355.8-7.5c-.4-1-.7-2-1.1-3l1.5-.6c.4 1 .8 2 1.1 3l-1.5.6zm-353.2-.1l-1.5-.6c.4-1 .7-2 1.1-3l1.5.6c-.4 1-.7 2-1.1 3zm350.3-7.4c-.4-1-.8-2-1.2-2.9l1.5-.6c.4 1 .8 2 1.3 3l-1.6.5zm-347.4 0l-1.5-.6c.4-1 .8-2 1.3-3l1.5.6c-.5 1-.9 2-1.3 3zm344.2-7.3c-.4-1-.9-1.9-1.4-2.9l1.4-.7c.5 1 .9 1.9 1.4 2.9l-1.4.7zm-341-.1l-1.5-.7c.5-1 .9-2 1.4-2.9l1.4.7c-.3 1-.8 1.9-1.3 2.9zm337.5-7c-.5-.9-1-1.9-1.5-2.8l1.4-.8c.5.9 1 1.9 1.5 2.8l-1.4.8zm-333.9-.2l-1.4-.7c.5-1 1-1.9 1.5-2.9l1.4.8c-.5.9-1 1.9-1.5 2.8zm330.1-6.8c-.5-.9-1.1-1.8-1.6-2.8l1.4-.8c.5.9 1.1 1.8 1.6 2.8l-1.4.8zm-326.3-.2l-1.4-.8c.5-.9 1.1-1.9 1.6-2.8l1.4.8c-.5.9-1.1 1.9-1.6 2.8zm322.2-6.7c-.6-.9-1.1-1.8-1.7-2.7l1.3-.9c.6.9 1.2 1.8 1.7 2.7l-1.3.9zm-318.1-.2l-1.4-.9c.6-.9 1.2-1.8 1.7-2.7l1.3.9c-.4.9-1 1.8-1.6 2.7zm313.7-6.4c-.6-.9-1.2-1.7-1.8-2.6l1.3-.9c.6.9 1.2 1.8 1.9 2.6l-1.4.9zm-309.2-.3l-1.3-.9c.6-.9 1.2-1.8 1.9-2.6l1.3.9c-.7.9-1.3 1.8-1.9 2.6zm304.5-6.2c-.6-.8-1.3-1.7-1.9-2.5l1.3-1c.7.8 1.3 1.7 2 2.6l-1.4.9zm-299.8-.2l-1.3-1c.7-.9 1.3-1.7 2-2.6l1.3 1c-.7.9-1.4 1.7-2 2.6zm294.8-6.1l-2.1-2.4 1.2-1c.7.8 1.4 1.6 2.1 2.5l-1.2.9zm-289.9-.2l-1.2-1c.7-.8 1.4-1.7 2.1-2.5l1.2 1c-.7.9-1.4 1.7-2.1 2.5zm284.7-5.8c-.7-.8-1.4-1.6-2.2-2.4l1.2-1.1c.7.8 1.5 1.6 2.2 2.4l-1.2 1.1zm-279.4-.3l-1.2-1.1c.7-.8 1.4-1.6 2.2-2.4l1.2 1.1c-.8.9-1.5 1.6-2.2 2.4zm273.9-5.6c-.7-.8-1.5-1.5-2.3-2.3l1.1-1.1 2.3 2.3-1.1 1.1zm-268.5-.2l-1.1-1.1 2.3-2.3 1.1 1.1-2.3 2.3zm262.8-5.4c-.8-.7-1.6-1.5-2.4-2.2l1.1-1.2c.8.7 1.6 1.5 2.4 2.2l-1.1 1.2zm-257-.2l-1.1-1.2c.8-.7 1.6-1.5 2.4-2.2l1.1 1.2c-.9.8-1.7 1.5-2.4 2.2zm251.1-5.1l-2.4-2.1 1-1.2c.8.7 1.6 1.4 2.5 2.1l-1.1 1.2zm-245.2-.2l-1-1.2c.8-.7 1.6-1.4 2.5-2.1l1 1.2c-.9.7-1.7 1.4-2.5 2.1zm239-4.9c-.8-.7-1.7-1.3-2.5-2l1-1.3c.9.7 1.7 1.3 2.5 2l-1 1.3zm-232.8-.2l-1-1.3c.8-.7 1.7-1.3 2.5-2l1 1.3c-.8.7-1.7 1.3-2.5 2zm226.4-4.7c-.9-.6-1.7-1.2-2.6-1.9l.9-1.3c.9.6 1.8 1.2 2.6 1.9l-.9 1.3zm-220-.1l-.9-1.3c.9-.6 1.7-1.2 2.6-1.9l.9 1.3c-.9.6-1.8 1.3-2.6 1.9zm213.5-4.4c-.9-.6-1.8-1.2-2.7-1.7l.9-1.4 2.7 1.8-.9 1.3zm-207-.2l-.9-1.3 2.7-1.8.9 1.4c-.9.6-1.8 1.2-2.7 1.7zm200.2-4.1c-.9-.6-1.8-1.1-2.8-1.6l.8-1.4c.9.5 1.9 1.1 2.8 1.6l-.8 1.4zm-193.4-.1l-.8-1.4c.9-.6 1.8-1.1 2.8-1.6l.8 1.4c-1 .5-1.9 1-2.8 1.6zm186.4-3.9c-.9-.5-1.9-1-2.8-1.5l.7-1.4c1 .5 1.9 1 2.9 1.5l-.8 1.4zm-179.5-.1l-.8-1.4c.9-.5 1.9-1 2.8-1.5l.7 1.4c-.8.5-1.8 1-2.7 1.5zm172.4-3.6c-1-.5-1.9-.9-2.9-1.4l.7-1.5c1 .5 1.9.9 2.9 1.4l-.7 1.5zm-165.3 0l-.7-1.4c1-.5 1.9-.9 2.9-1.4l.7 1.5c-1 .3-2 .8-2.9 1.3zm158.1-3.4c-1-.4-2-.9-2.9-1.3l.6-1.5c1 .4 2 .8 3 1.3l-.7 1.5zm-150.9 0l-.6-1.5c1-.4 2-.9 3-1.3l.6 1.5c-1 .5-2 .9-3 1.3zm143.4-3c-1-.4-2-.8-3-1.1l.6-1.5c1 .4 2 .8 3 1.1l-.6 1.5zm-136 0l-.6-1.5c1-.4 2-.8 3-1.1l.6 1.5c-1 .3-2 .7-3 1.1zm128.5-2.8c-1-.3-2-.7-3-1l.5-1.5c1 .3 2.1.7 3.1 1l-.6 1.5zm-121 0l-.5-1.5c1-.3 2-.7 3.1-1l.5 1.5c-1.1.3-2.1.7-3.1 1zm113.4-2.4c-1-.3-2-.6-3.1-.9l.4-1.6c1 .3 2.1.6 3.1.9l-.4 1.6zm-105.8 0l-.5-1.5c1-.3 2.1-.6 3.1-.9l.4 1.5c-.9.3-2 .6-3 .9zm98-2.1c-1-.3-2.1-.5-3.1-.7l.4-1.6c1 .2 2.1.5 3.1.7l-.4 1.6zm-90.3 0l-.4-1.6c1-.3 2.1-.5 3.1-.7l.4 1.6c-1 .2-2 .5-3.1.7zm82.5-1.7c-1-.2-2.1-.4-3.1-.6l.3-1.6c1.1.2 2.1.4 3.2.6l-.4 1.6zm-74.7 0l-.3-1.6c1.1-.2 2.1-.4 3.2-.6l.3 1.6c-1.1.2-2.1.4-3.2.6zm66.9-1.4c-1.1-.2-2.1-.3-3.2-.5l.2-1.6c1.1.1 2.1.3 3.2.5l-.2 1.6zm-59 0l-.2-1.6c1.1-.2 2.1-.3 3.2-.5l.2 1.6c-1.1.1-2.1.3-3.2.5zm51-1.1c-1.1-.1-2.1-.2-3.2-.3l.2-1.6c1.1.1 2.1.2 3.2.3l-.2 1.6zm-43.1 0l-.2-1.6c1.1-.1 2.1-.2 3.2-.3l.2 1.6c-1 .1-2.1.2-3.2.3zm35.2-.7c-1.1-.1-2.1-.1-3.2-.2l.1-1.6c1.1.1 2.1.1 3.2.2l-.1 1.6zm-27.2 0l-.1-1.6c1.1-.1 2.1-.1 3.2-.2l.1 1.6c-1.1 0-2.1.1-3.2.2zm19.2-.4c-1.1 0-2.1-.1-3.2-.1v-1.6c1.1 0 2.2 0 3.2.1v1.6zm-11.2 0v-1.6c1.1 0 2.1-.1 3.2-.1v1.6c-1.1 0-2.1 0-3.2.1z"/><path fill="#C69EC7" d="M414.2 547.7H411v-1.6h3.2v1.6zm4.8-.1V546c1.1 0 2.1-.1 3.2-.1l.1 1.6c-1.1.1-2.2.1-3.3.1zm-12.9-.1c-1.1 0-2.2-.1-3.2-.2l.1-1.6c1.1.1 2.1.1 3.2.2l-.1 1.6zm21-.2l-.1-1.6c1.1-.1 2.1-.1 3.2-.2l.1 1.6c-1.1.1-2.2.1-3.2.2zm-29-.4c-1.1-.1-2.1-.2-3.2-.3l.2-1.6c1.1.1 2.1.2 3.2.3l-.2 1.6zm37-.3l-.2-1.6c1.1-.1 2.1-.2 3.2-.4l.2 1.6c-1.1.2-2.1.3-3.2.4zm-45-.5c-1.1-.1-2.1-.3-3.2-.4l.2-1.6c1.1.2 2.1.3 3.2.4l-.2 1.6zm53-.5l-.2-1.6c1.1-.2 2.1-.3 3.2-.5l.3 1.6c-1.2.2-2.2.3-3.3.5zm-61-.8c-1.1-.2-2.1-.4-3.2-.6l.3-1.6c1 .2 2.1.4 3.1.6l-.2 1.6zm69-.6l-.3-1.6c1-.2 2.1-.4 3.1-.6l.3 1.6c-1 .2-2.1.4-3.1.6zm-76.9-.9c-1.1-.2-2.1-.5-3.1-.7l.4-1.6c1 .2 2.1.5 3.1.7l-.4 1.6zm84.7-.7l-.4-1.6c1-.2 2.1-.5 3.1-.8l.4 1.6c-1 .2-2 .5-3.1.8zm-92.6-1.2c-1-.3-2.1-.6-3.1-.9l.4-1.5c1 .3 2.1.6 3.1.8l-.4 1.6zm100.5-.9l-.4-1.5c1-.3 2.1-.6 3.1-.9l.5 1.5c-1.2.3-2.2.6-3.2.9zm-108.2-1.4c-1-.3-2.1-.7-3.1-1l.5-1.5c1 .3 2 .7 3.1 1l-.5 1.5zm115.9-.9l-.5-1.5c1-.3 2-.7 3-1l.5 1.5c-1 .3-2 .6-3 1zm-123.6-1.6c-1-.4-2-.7-3-1.1l.6-1.5c1 .4 2 .7 3 1.1l-.6 1.5zm131.2-1.1l-.6-1.5 3-1.2.6 1.5-3 1.2zm-138.8-1.8c-1-.4-2-.8-3-1.3l.6-1.5 3 1.2-.6 1.6zm146.2-1.2l-.6-1.5c1-.4 2-.8 2.9-1.3l.7 1.5c-1 .4-2 .8-3 1.3zm-153.6-2.1c-1-.5-2-.9-2.9-1.4l.7-1.4c1 .5 1.9.9 2.9 1.4l-.7 1.4zm161-1.3l-.7-1.4c1-.5 1.9-.9 2.9-1.4l.7 1.4c-1 .5-2 1-2.9 1.4zm-168.3-2.2c-1-.5-1.9-1-2.9-1.5l.8-1.4c.9.5 1.9 1 2.8 1.5l-.7 1.4zm175.4-1.4l-.8-1.4c.9-.5 1.9-1 2.8-1.5l.8 1.4c-.9.5-1.8 1-2.8 1.5zm-182.5-2.4c-.9-.5-1.9-1.1-2.8-1.6l.8-1.4c.9.5 1.8 1.1 2.8 1.6l-.8 1.4zm189.6-1.5l-.8-1.4c.9-.5 1.8-1.1 2.7-1.6l.8 1.4c-.9.5-1.8 1-2.7 1.6zm-196.5-2.7c-.9-.6-1.8-1.2-2.7-1.7l.9-1.3c.9.6 1.8 1.2 2.7 1.7l-.9 1.3zm203.3-1.6l-.9-1.3 2.7-1.8.9 1.3-2.7 1.8zm-210.1-2.8c-.9-.6-1.8-1.2-2.6-1.9l.9-1.3c.9.6 1.7 1.2 2.6 1.8l-.9 1.4zm216.8-1.7l-.9-1.3c.9-.6 1.7-1.2 2.6-1.9l1 1.3c-1 .7-1.9 1.3-2.7 1.9zm-223.3-3c-.9-.6-1.7-1.3-2.6-2l1-1.3c.8.7 1.7 1.3 2.5 1.9l-.9 1.4zM531 508l-1-1.3c.8-.7 1.7-1.3 2.5-2l1 1.3c-.8.7-1.6 1.3-2.5 2zm-236.1-3.2c-.8-.7-1.7-1.4-2.5-2.1l1-1.2c.8.7 1.6 1.4 2.5 2.1l-1 1.2zm242.4-1.9l-1-1.2 2.4-2.1 1.1 1.2c-.9.7-1.7 1.4-2.5 2.1zm-248.5-3.3c-.8-.7-1.6-1.4-2.4-2.2l1.1-1.2c.8.7 1.6 1.4 2.4 2.2l-1.1 1.2zm254.5-2l-1.1-1.2c.8-.7 1.6-1.5 2.3-2.2l1.1 1.2c-.7.7-1.5 1.5-2.3 2.2zm-260.4-3.5l-2.3-2.3 1.1-1.1 2.3 2.3-1.1 1.1zm266.3-2.1l-1.1-1.1c.8-.8 1.5-1.5 2.2-2.3l1.2 1.1c-.8.8-1.6 1.5-2.3 2.3zm-272-3.7c-.7-.8-1.5-1.6-2.2-2.4l1.2-1.1c.7.8 1.4 1.6 2.2 2.3l-1.2 1.2zm277.5-2.1l-1.2-1.1 2.1-2.4 1.2 1.1c-.6.8-1.3 1.6-2.1 2.4zm-282.9-3.9c-.7-.8-1.4-1.6-2.1-2.5l1.2-1 2.1 2.4-1.2 1.1zm-5.1-6.2c-.7-.8-1.3-1.7-2-2.5l1.3-1c.7.8 1.3 1.7 2 2.5l-1.3 1zm-4.9-6.4c-.6-.9-1.3-1.7-1.9-2.6l1.3-.9c.6.9 1.2 1.7 1.9 2.6l-1.3.9zm-4.6-6.6l-1.8-2.7 1.4-.9c.6.9 1.2 1.8 1.7 2.7l-1.3.9zm317.2-2.5l-1.4-.9c.6-.9 1.1-1.8 1.7-2.7l1.4.8c-.5 1-1.1 1.9-1.7 2.8zm-321.5-4.3c-.6-.9-1.1-1.8-1.6-2.8l1.4-.8c.5.9 1.1 1.8 1.6 2.7l-1.4.9zm325.8-2.5l-1.4-.8c.5-.9 1.1-1.8 1.6-2.8l1.4.8c-.6.9-1.1 1.8-1.6 2.8zm-329.9-4.4c-.5-.9-1-1.9-1.5-2.8l1.4-.8c.5.9 1 1.9 1.5 2.8l-1.4.8zm333.8-2.7l-1.4-.8c.5-.9 1-1.9 1.5-2.8l1.4.7c-.5 1-1 1.9-1.5 2.9zm-337.5-4.5c-.5-1-.9-1.9-1.4-2.9l1.5-.7c.5 1 .9 1.9 1.4 2.9l-1.5.7zm341.1-2.7l-1.5-.7c.5-1 .9-1.9 1.4-2.9l1.5.7c-.5.9-.9 1.9-1.4 2.9zm-344.5-4.6c-.4-1-.9-2-1.3-3l1.5-.6c.4 1 .8 2 1.3 2.9l-1.5.7zm347.8-2.8l-1.5-.6 1.2-3 1.5.6c-.3 1-.8 2-1.2 3zm-350.9-4.6l-1.2-3 1.5-.6c.4 1 .8 2 1.1 3l-1.4.6zm353.9-2.9l-1.5-.6c.4-1 .7-2 1.1-3l1.5.5c-.3 1-.7 2.1-1.1 3.1zM235.8 420c-.4-1-.7-2-1-3.1l1.5-.5c.3 1 .7 2 1 3l-1.5.6zm359.4-3.1l-1.5-.5c.3-1 .7-2 1-3.1l1.5.5c-.3 1.1-.7 2.1-1 3.1zm-361.9-4.6c-.3-1-.6-2.1-.9-3.1l1.5-.4c.3 1 .6 2.1.9 3.1l-1.5.4zm364.2-3.1l-1.5-.4c.3-1 .6-2.1.8-3.1l1.6.4c-.3 1-.6 2.1-.9 3.1zm-366.3-4.7c-.3-1-.5-2.1-.8-3.1l1.6-.4c.2 1 .5 2.1.8 3.1l-1.6.4zm368.3-3.1l-1.6-.4c.2-1 .5-2.1.7-3.1l1.6.3c-.2 1.1-.4 2.1-.7 3.2zm-370.1-4.8c-.2-1.1-.4-2.1-.6-3.2l1.6-.3c.2 1 .4 2.1.6 3.1l-1.6.4zm371.8-3.1l-1.6-.3c.2-1 .4-2.1.6-3.1l1.6.3c-.2 1-.4 2-.6 3.1zM228 388.7c-.2-1.1-.3-2.1-.5-3.2l1.6-.2c.2 1.1.3 2.1.5 3.2l-1.6.2zm374.5-3.2l-1.6-.2c.2-1.1.3-2.1.4-3.2l1.6.2c-.1 1.1-.2 2.2-.4 3.2zm-375.7-4.8c-.1-1.1-.2-2.1-.4-3.2l1.6-.2c.1 1.1.2 2.1.3 3.2l-1.5.2zm376.7-3.2l-1.6-.2c.1-1.1.2-2.1.3-3.2l1.6.1c-.1 1.2-.2 2.3-.3 3.3zm-377.4-4.8c-.1-1.1-.2-2.1-.2-3.2l1.6-.1c.1 1.1.1 2.1.2 3.2l-1.6.1zm378-3.2l-1.6-.1c.1-1.1.1-2.1.2-3.2l1.6.1c0 1-.1 2.1-.2 3.2zm-378.5-4.9c0-1.1-.1-2.1-.1-3.2h1.6c0 1.1 0 2.1.1 3.2h-1.6zm378.8-3.2h-1.6v-3.2h1.6c.1 1.1.1 2.2 0 3.2zm-1.5-4.8c0-1.1 0-2.1-.1-3.2h1.6c0 1.1 0 2.1.1 3.2h-1.6zm-375.8 0h-1.6c0-1.1 0-2.2.1-3.2h1.6c0 1.1-.1 2.1-.1 3.2zm375.5-8c-.1-1.1-.1-2.1-.2-3.2l1.6-.1c.1 1.1.1 2.1.2 3.2l-1.6.1zm-375.2 0l-1.6-.1c.1-1.1.1-2.2.2-3.2l1.6.1c-.1 1.1-.2 2.1-.2 3.2zm374.7-8c-.1-1.1-.2-2.1-.3-3.2l1.6-.2c.1 1.1.2 2.1.3 3.2l-1.6.2zm-374.2 0l-1.6-.1c.1-1.1.2-2.1.3-3.2l1.6.2c-.1 1-.2 2.1-.3 3.1zm373.3-7.9c-.1-1.1-.3-2.1-.5-3.2l1.6-.2c.2 1.1.3 2.1.5 3.2l-1.6.2zm-372.4 0l-1.6-.2c.1-1.1.3-2.1.5-3.2l1.6.2c-.2 1.1-.3 2.1-.5 3.2zm371.1-7.9c-.2-1.1-.4-2.1-.6-3.1l1.6-.3c.2 1.1.4 2.1.6 3.2l-1.6.2zm-369.8 0l-1.6-.3c.2-1.1.4-2.1.6-3.2l1.6.3c-.2 1.1-.4 2.1-.6 3.2zm368.2-7.8c-.2-1-.5-2.1-.7-3.1l1.6-.4c.3 1 .5 2.1.7 3.1l-1.6.4zm-366.6-.1l-1.6-.4c.2-1.1.5-2.1.7-3.1l1.6.4c-.3 1-.5 2.1-.7 3.1zm364.7-7.7c-.3-1-.6-2.1-.9-3.1l1.5-.4c.3 1 .6 2.1.9 3.1l-1.5.4zm-362.8 0l-1.6-.4c.3-1 .6-2.1.9-3.1l1.5.4c-.3 1-.5 2-.8 3.1zm360.6-7.7c-.3-1-.7-2-1-3l1.5-.5c.3 1 .7 2 1 3.1l-1.5.4zm-358.4 0l-1.5-.5c.3-1 .7-2.1 1-3.1l1.5.5c-.3 1-.6 2.1-1 3.1zm355.8-7.6c-.4-1-.7-2-1.1-3l1.5-.6c.4 1 .8 2 1.1 3l-1.5.6zm-353.2 0l-1.5-.6c.4-1 .7-2 1.1-3l1.5.6c-.3 1-.7 2-1.1 3zm350.3-7.4c-.4-1-.8-2-1.2-2.9l1.5-.6c.4 1 .8 2 1.3 3l-1.6.5zm-347.4-.1l-1.5-.6c.4-1 .8-2 1.3-3l1.5.6c-.5 1-.9 2-1.3 3zm344.2-7.2c-.4-1-.9-1.9-1.4-2.9l1.4-.7c.5 1 .9 1.9 1.4 2.9l-1.4.7zm-341-.1l-1.5-.7c.5-1 .9-2 1.4-2.9l1.4.7c-.3.9-.8 1.9-1.3 2.9zM582 272c-.5-.9-1-1.9-1.5-2.8l1.4-.8c.5.9 1 1.9 1.5 2.8l-1.4.8zm-333.9-.1l-1.4-.7c.5-1 1-1.9 1.5-2.9l1.4.8c-.5.9-1 1.8-1.5 2.8zm330.1-6.9c-.5-.9-1.1-1.8-1.6-2.8l1.4-.8c.5.9 1.1 1.8 1.6 2.8l-1.4.8zm-326.3-.2l-1.4-.8c.5-.9 1.1-1.9 1.6-2.8l1.4.8c-.5 1-1 1.9-1.6 2.8zm322.2-6.6c-.6-.9-1.1-1.8-1.7-2.7l1.3-.9c.6.9 1.2 1.8 1.7 2.7l-1.3.9zm-318-.2l-1.4-.9c.6-.9 1.2-1.8 1.7-2.7l1.3.9c-.5.9-1.1 1.8-1.6 2.7zm313.6-6.5c-.6-.9-1.2-1.7-1.8-2.6l1.3-.9c.6.9 1.2 1.8 1.9 2.6l-1.4.9zm-309.2-.2l-1.3-.9c.6-.9 1.2-1.8 1.9-2.6l1.3.9c-.7.9-1.3 1.7-1.9 2.6zM565 245c-.6-.8-1.3-1.7-1.9-2.5l1.3-1c.7.8 1.3 1.7 2 2.6l-1.4.9zm-299.8-.2l-1.3-1c.7-.9 1.3-1.7 2-2.6l1.3 1c-.7.9-1.4 1.8-2 2.6zm294.8-6l-2.1-2.4 1.2-1c.7.8 1.4 1.6 2.1 2.5l-1.2.9zm-289.9-.3l-1.2-1c.7-.8 1.4-1.7 2.1-2.5l1.2 1c-.7.9-1.4 1.7-2.1 2.5zm284.7-5.8c-.7-.8-1.4-1.6-2.2-2.4l1.2-1.1c.7.8 1.5 1.6 2.2 2.4l-1.2 1.1zm-279.4-.2l-1.2-1.1c.7-.8 1.4-1.6 2.2-2.4l1.2 1.1c-.8.8-1.5 1.6-2.2 2.4zm274-5.6c-.7-.8-1.5-1.5-2.3-2.3l1.1-1.1 2.3 2.3-1.1 1.1zm-268.6-.2l-1.1-1.1 2.3-2.3 1.1 1.1c-.8.7-1.5 1.5-2.3 2.3zm262.8-5.4c-.8-.7-1.6-1.5-2.4-2.2l1.1-1.2c.8.7 1.6 1.5 2.4 2.2l-1.1 1.2zm-257-.2l-1.1-1.2c.8-.7 1.6-1.5 2.4-2.2l1.1 1.2c-.9.7-1.7 1.4-2.4 2.2zm251.1-5.2l-2.4-2.1 1-1.2c.8.7 1.6 1.4 2.5 2.1l-1.1 1.2zm-245.2-.2l-1-1.2c.8-.7 1.6-1.4 2.5-2.1l1 1.2c-.9.7-1.7 1.4-2.5 2.1zm239-4.9c-.8-.7-1.7-1.3-2.5-2l1-1.3c.9.7 1.7 1.3 2.5 2l-1 1.3zm-232.8-.2l-1-1.3c.8-.7 1.7-1.3 2.5-2l1 1.3c-.8.7-1.7 1.4-2.5 2zm226.5-4.6c-.9-.6-1.7-1.2-2.6-1.9l.9-1.3c.9.6 1.8 1.2 2.6 1.9l-.9 1.3zm-220.1-.2l-.9-1.3c.9-.6 1.7-1.2 2.6-1.9l.9 1.3c-.9.7-1.8 1.3-2.6 1.9zm213.5-4.4c-.9-.6-1.8-1.2-2.7-1.7l.9-1.4 2.7 1.8-.9 1.3zm-207-.1l-.9-1.3 2.7-1.8.9 1.4c-.9.5-1.8 1.1-2.7 1.7zm200.2-4.1c-.9-.6-1.8-1.1-2.8-1.6l.8-1.4c.9.5 1.9 1.1 2.8 1.6l-.8 1.4zm-193.4-.2l-.8-1.4c.9-.6 1.8-1.1 2.8-1.6l.8 1.4c-1 .5-1.9 1.1-2.8 1.6zm186.4-3.8c-.9-.5-1.9-1-2.8-1.5l.7-1.4c1 .5 1.9 1 2.9 1.5l-.8 1.4zm-179.5-.1l-.8-1.4c.9-.5 1.9-1 2.8-1.5l.7 1.4c-.8.5-1.8 1-2.7 1.5zm172.4-3.6c-1-.5-1.9-.9-2.9-1.4l.7-1.5c1 .5 1.9.9 2.9 1.4l-.7 1.5zm-165.3-.1l-.7-1.4c1-.5 1.9-.9 2.9-1.4l.7 1.5c-1 .4-2 .8-2.9 1.3zm158.1-3.3c-1-.4-2-.9-2.9-1.3l.6-1.5c1 .4 2 .8 3 1.3l-.7 1.5zm-150.9 0l-.6-1.5c1-.4 2-.9 3-1.3l.6 1.5c-1 .4-2 .8-3 1.3zm143.5-3.1c-1-.4-2-.8-3-1.1l.6-1.5c1 .4 2 .8 3 1.1l-.6 1.5zM347 183l-.6-1.5c1-.4 2-.8 3-1.1l.6 1.5c-1 .3-2 .7-3 1.1zm128.5-2.7c-1-.3-2-.7-3-1l.5-1.5c1 .3 2.1.7 3.1 1l-.6 1.5zm-121 0l-.5-1.5c1-.3 2-.7 3.1-1l.5 1.5c-1.1.3-2.1.6-3.1 1zm113.4-2.4c-1-.3-2-.6-3.1-.9l.4-1.6c1 .3 2.1.6 3.1.9l-.4 1.6zm-105.8 0l-.5-1.5c1-.3 2.1-.6 3.1-.9l.4 1.5c-.9.3-1.9.6-3 .9zm98.1-2.1c-1-.3-2.1-.5-3.1-.7l.4-1.6c1 .2 2.1.5 3.1.7l-.4 1.6zm-90.3 0l-.4-1.6c1-.3 2.1-.5 3.1-.7l.4 1.6c-1.1.2-2.1.4-3.1.7zm82.4-1.8c-1-.2-2.1-.4-3.1-.6l.3-1.6c1.1.2 2.1.4 3.2.6l-.4 1.6zm-74.6 0l-.3-1.6c1.1-.2 2.1-.4 3.2-.6l.3 1.6c-1.2.2-2.2.4-3.2.6zm66.8-1.4c-1.1-.2-2.1-.3-3.2-.5l.2-1.6c1.1.1 2.1.3 3.2.5l-.2 1.6zm-59 0l-.2-1.6c1.1-.2 2.1-.3 3.2-.5l.2 1.6c-1.1.2-2.1.4-3.2.5zm51.1-1.1c-1.1-.1-2.1-.2-3.2-.3l.2-1.6c1.1.1 2.1.2 3.2.3l-.2 1.6zm-43.1 0l-.2-1.6c1.1-.1 2.1-.2 3.2-.3l.2 1.6c-1.1.1-2.2.2-3.2.3zm35.1-.7c-1.1-.1-2.1-.1-3.2-.2l.1-1.6c1.1.1 2.1.1 3.2.2l-.1 1.6zm-27.2 0l-.1-1.6c1.1-.1 2.1-.1 3.2-.2l.1 1.6c-1.1.1-2.1.1-3.2.2zm19.2-.4c-1.1 0-2.1-.1-3.2-.1v-1.6c1.1 0 2.2 0 3.2.1v1.6zm-11.2 0v-1.6c1.1 0 2.1-.1 3.2-.1v1.6c-1.1.1-2.1.1-3.2.1z"/><path fill="#A27D5E" d="M305.1 661h-3.2v-1.6h3.2v1.6zm4.9-.1v-1.6c1.1 0 2.1-.1 3.2-.1l.1 1.6c-1.2.1-2.2.1-3.3.1zm-12.9-.1c-1.1 0-2.2-.1-3.2-.2l.1-1.6c1.1.1 2.1.1 3.2.2l-.1 1.6zm20.9-.2l-.1-1.6c1.1-.1 2.1-.1 3.2-.2l.1 1.6c-1 .1-2.1.1-3.2.2zm-29-.4c-1.1-.1-2.1-.2-3.2-.3l.2-1.6c1.1.1 2.1.2 3.2.3l-.2 1.6zm37.1-.3l-.2-1.6c1.1-.1 2.1-.2 3.2-.4l.2 1.6c-1.1.2-2.2.3-3.2.4zm-45.1-.5c-1.1-.1-2.1-.3-3.2-.4l.2-1.6c1.1.2 2.1.3 3.2.4l-.2 1.6zm53.1-.5l-.2-1.6c1.1-.2 2.1-.3 3.2-.5l.3 1.6c-1.2.2-2.3.4-3.3.5zm-61.1-.8c-1.1-.2-2.1-.4-3.2-.6l.3-1.6c1 .2 2.1.4 3.1.6l-.2 1.6zm69-.5l-.3-1.6c1-.2 2.1-.4 3.1-.6l.3 1.6c-1 .1-2 .4-3.1.6zm-76.9-1c-1.1-.2-2.1-.5-3.1-.7l.4-1.6c1 .2 2.1.5 3.1.7l-.4 1.6zm84.8-.7l-.4-1.6c1-.2 2.1-.5 3.1-.8l.4 1.6c-1 .3-2 .5-3.1.8zm-92.6-1.2c-1-.3-2.1-.6-3.1-.9l.4-1.5c1 .3 2.1.6 3.1.8l-.4 1.6zm100.4-.9l-.4-1.5c1-.3 2.1-.6 3.1-.9l.5 1.5c-1.1.3-2.1.6-3.2.9zm-108.2-1.4c-1-.3-2.1-.7-3.1-1l.5-1.5c1 .3 2 .7 3.1 1l-.5 1.5zm115.9-.9l-.5-1.5c1-.3 2-.7 3-1l.5 1.5c-.9.3-1.9.6-3 1zm-123.5-1.6c-1-.4-2-.7-3-1.1l.6-1.5c1 .4 2 .7 3 1.1l-.6 1.5zm131.1-1.1l-.6-1.5 3-1.2.6 1.5-3 1.2zM234.3 647c-1-.4-2-.8-3-1.3l.6-1.5 3 1.2-.6 1.6zm146.2-1.2l-.6-1.5c1-.4 2-.8 2.9-1.3l.7 1.5c-1 .4-2 .8-3 1.3zm-153.6-2c-1-.5-2-.9-2.9-1.4l.7-1.4c1 .5 1.9.9 2.9 1.4l-.7 1.4zm160.9-1.4l-.7-1.4c1-.5 1.9-.9 2.9-1.4l.7 1.4c-.9.5-1.9 1-2.9 1.4zm-168.2-2.2c-1-.5-1.9-1-2.9-1.5l.8-1.4c.9.5 1.9 1 2.8 1.5l-.7 1.4zm175.4-1.4l-.8-1.4c.9-.5 1.9-1 2.8-1.5l.8 1.4c-.9.5-1.9 1-2.8 1.5zm-182.5-2.4c-.9-.5-1.9-1.1-2.8-1.6l.8-1.4c.9.5 1.8 1.1 2.8 1.6l-.8 1.4zm189.5-1.5l-.8-1.4c.9-.5 1.8-1.1 2.7-1.6l.8 1.4c-.8.5-1.8 1-2.7 1.6zm-196.4-2.7c-.9-.6-1.8-1.2-2.7-1.7l.9-1.3c.9.6 1.8 1.2 2.7 1.7l-.9 1.3zm203.3-1.6l-.9-1.3 2.7-1.8.9 1.3c-.9.7-1.8 1.3-2.7 1.8zm-210.1-2.8c-.9-.6-1.8-1.2-2.6-1.9l.9-1.3c.9.6 1.7 1.2 2.6 1.8l-.9 1.4zm216.7-1.7l-.9-1.3c.9-.6 1.7-1.2 2.6-1.9l1 1.3c-.9.7-1.8 1.3-2.7 1.9zm-223.2-3c-.9-.6-1.7-1.3-2.6-2l1-1.3c.8.7 1.7 1.3 2.5 1.9l-.9 1.4zm229.7-1.8l-1-1.3c.8-.7 1.7-1.3 2.5-2l1 1.3c-.8.7-1.7 1.4-2.5 2zm-236.1-3.2c-.8-.7-1.7-1.4-2.5-2.1l1-1.2c.8.7 1.6 1.4 2.5 2.1l-1 1.2zm242.4-1.9l-1-1.2 2.4-2.1 1.1 1.2c-.9.7-1.7 1.4-2.5 2.1zm-248.5-3.3c-.8-.7-1.6-1.4-2.4-2.2l1.1-1.2c.8.7 1.6 1.4 2.4 2.2l-1.1 1.2zm254.5-2l-1.1-1.2c.8-.7 1.6-1.5 2.3-2.2l1.1 1.2c-.7.7-1.5 1.5-2.3 2.2zm-260.4-3.5l-2.3-2.3 1.1-1.1 2.3 2.3-1.1 1.1zm266.2-2.1l-1.1-1.1c.8-.8 1.5-1.5 2.2-2.3l1.2 1.1c-.8.8-1.5 1.6-2.3 2.3zm-271.9-3.7c-.7-.8-1.5-1.6-2.2-2.4l1.2-1.1c.7.8 1.4 1.6 2.2 2.3l-1.2 1.2zm277.5-2.1l-1.2-1.1 2.1-2.4 1.2 1.1-2.1 2.4zm-282.9-3.9c-.7-.8-1.4-1.6-2.1-2.5l1.2-1 2.1 2.4-1.2 1.1zm288.2-2.2l-1.2-1c.7-.8 1.4-1.6 2-2.5l1.2 1c-.6.9-1.3 1.7-2 2.5zm-293.4-4c-.7-.8-1.3-1.7-2-2.5l1.3-1c.7.8 1.3 1.7 2 2.5l-1.3 1zm298.5-2.3l-1.3-1c.7-.8 1.3-1.7 1.9-2.6l1.3 1c-.6.9-1.3 1.8-1.9 2.6zM152.8 583c-.6-.9-1.3-1.7-1.9-2.6l1.3-.9c.6.9 1.2 1.7 1.9 2.6l-1.3.9zm308.1-2.4l-1.3-.9c.6-.9 1.2-1.8 1.8-2.6l1.3.9c-.6.9-1.2 1.8-1.8 2.6zm-312.7-4.2l-1.8-2.7 1.4-.9c.6.9 1.2 1.8 1.7 2.7l-1.3.9zm317.2-2.5l-1.4-.9c.6-.9 1.1-1.8 1.7-2.7l1.4.8c-.6 1-1.1 1.9-1.7 2.8zm-321.6-4.3c-.6-.9-1.1-1.8-1.6-2.8l1.4-.8c.5.9 1.1 1.8 1.6 2.7l-1.4.9zm325.8-2.5l-1.4-.8c.5-.9 1.1-1.8 1.6-2.8l1.4.8c-.5.9-1 1.8-1.6 2.8zm-329.8-4.4c-.5-.9-1-1.9-1.5-2.8l1.4-.8c.5.9 1 1.9 1.5 2.8l-1.4.8zm333.7-2.7l-1.4-.8c.5-.9 1-1.9 1.5-2.8l1.4.7c-.5 1-1 2-1.5 2.9zm-337.4-4.5c-.5-1-.9-1.9-1.4-2.9l1.5-.7c.5 1 .9 1.9 1.4 2.9l-1.5.7zm341.1-2.7l-1.5-.7c.5-1 .9-1.9 1.4-2.9l1.5.7c-.5.9-1 1.9-1.4 2.9zm-344.5-4.5c-.4-1-.9-2-1.3-3l1.5-.6c.4 1 .8 2 1.3 2.9l-1.5.7zm347.8-2.9l-1.5-.6 1.2-3 1.5.6-1.2 3zm-350.9-4.6l-1.2-3 1.5-.6c.4 1 .8 2 1.1 3l-1.4.6zm353.9-2.9l-1.5-.6c.4-1 .7-2 1.1-3l1.5.5c-.4 1.1-.7 2.1-1.1 3.1zm-356.7-4.6c-.4-1-.7-2-1-3.1l1.5-.5c.3 1 .7 2 1 3l-1.5.6zm359.4-3.1l-1.5-.5c.3-1 .7-2 1-3.1l1.5.5c-.4 1.1-.7 2.1-1 3.1zm-361.9-4.6c-.3-1-.6-2.1-.9-3.1l1.5-.4c.3 1 .6 2.1.9 3.1l-1.5.4zm364.2-3.1l-1.5-.4c.3-1 .6-2.1.8-3.1l1.6.4c-.3 1-.6 2.1-.9 3.1zm-366.3-4.7c-.3-1-.5-2.1-.8-3.1l1.6-.4c.2 1 .5 2.1.8 3.1l-1.6.4zm368.3-3.1l-1.6-.4c.2-1 .5-2.1.7-3.1l1.6.3c-.2 1.1-.5 2.1-.7 3.2zM120.4 510c-.2-1.1-.4-2.1-.6-3.2l1.6-.3c.2 1 .4 2.1.6 3.1l-1.6.4zm371.8-3.2l-1.6-.3c.2-1 .4-2.1.6-3.1l1.6.3c-.3 1-.4 2-.6 3.1zM118.9 502c-.2-1.1-.3-2.1-.5-3.2l1.6-.2c.2 1.1.3 2.1.5 3.2l-1.6.2zm374.6-3.2l-1.6-.2c.2-1.1.3-2.1.4-3.2l1.6.2c-.1 1.1-.3 2.2-.4 3.2zM117.8 494c-.1-1.1-.2-2.1-.4-3.2l1.6-.2c.1 1.1.2 2.1.3 3.2l-1.5.2zm376.7-3.2l-1.6-.2c.1-1.1.2-2.1.3-3.2l1.6.1c-.1 1.2-.2 2.3-.3 3.3zM117 486c-.1-1.1-.2-2.1-.2-3.2l1.6-.1c.1 1.1.1 2.1.2 3.2l-1.6.1zm378.1-3.2l-1.6-.1c.1-1.1.1-2.1.2-3.2l1.6.1c-.1 1.1-.1 2.1-.2 3.2zm-378.5-4.9c0-1.1-.1-2.1-.1-3.2h1.6c0 1.1 0 2.1.1 3.2h-1.6zm378.8-3.2h-1.6v-3.2h1.6v3.2zm-1.6-4.8c0-1.1 0-2.1-.1-3.2h1.6c0 1.1 0 2.1.1 3.2h-1.6zm-375.7 0h-1.6c0-1.1 0-2.2.1-3.2h1.6c-.1 1.1-.1 2.1-.1 3.2zm375.5-8c-.1-1.1-.1-2.1-.2-3.2l1.6-.1c.1 1.1.1 2.1.2 3.2l-1.6.1zm-375.3 0l-1.6-.1c.1-1.1.1-2.2.2-3.2l1.6.1c-.1 1.1-.1 2.1-.2 3.2zM493 454c-.1-1.1-.2-2.1-.3-3.2l1.6-.2c.1 1.1.2 2.1.3 3.2l-1.6.2zm-374.1-.1l-1.6-.1c.1-1.1.2-2.1.3-3.2l1.6.2c-.1 1-.2 2.1-.3 3.1zm373.2-7.9c-.1-1.1-.3-2.1-.5-3.2l1.6-.2c.2 1.1.3 2.1.5 3.2l-1.6.2zm-372.3 0l-1.6-.2c.1-1.1.3-2.1.5-3.2l1.6.2c-.2 1.1-.4 2.1-.5 3.2zm371.1-7.9c-.2-1.1-.4-2.1-.6-3.1l1.6-.3c.2 1.1.4 2.1.6 3.2l-1.6.2zm-369.9 0l-1.6-.3c.2-1.1.4-2.1.6-3.2l1.6.3c-.2 1.1-.4 2.1-.6 3.2zm368.3-7.8c-.2-1-.5-2.1-.7-3.1l1.6-.4c.3 1 .5 2.1.7 3.1l-1.6.4zm-366.7-.1l-1.6-.4c.2-1.1.5-2.1.7-3.1l1.6.4c-.2 1.1-.4 2.1-.7 3.1zm364.8-7.7c-.3-1-.6-2.1-.9-3.1l1.5-.4c.3 1 .6 2.1.9 3.1l-1.5.4zm-362.9 0l-1.6-.4c.3-1 .6-2.1.9-3.1l1.5.4c-.2 1-.5 2-.8 3.1zm360.6-7.7c-.3-1-.7-2-1-3l1.5-.5c.3 1 .7 2 1 3.1l-1.5.4zm-358.3 0l-1.5-.5c.3-1 .7-2.1 1-3.1l1.5.5c-.4 1.1-.7 2.1-1 3.1zm355.8-7.5c-.4-1-.7-2-1.1-3l1.5-.6c.4 1 .8 2 1.1 3l-1.5.6zm-353.2-.1l-1.5-.6c.4-1 .7-2 1.1-3l1.5.6c-.4 1-.8 2-1.1 3zm350.3-7.4c-.4-1-.8-2-1.2-2.9l1.5-.6c.4 1 .8 2 1.3 3l-1.6.5zm-347.4-.1l-1.5-.6c.4-1 .8-2 1.3-3l1.5.6c-.5 1-.9 2-1.3 3zm344.2-7.2c-.4-1-.9-1.9-1.4-2.9l1.4-.7c.5 1 .9 1.9 1.4 2.9l-1.4.7zm-341-.1l-1.5-.7c.5-1 .9-2 1.4-2.9l1.4.7c-.4.9-.8 1.9-1.3 2.9zm337.4-7.1c-.5-.9-1-1.9-1.5-2.8l1.4-.8c.5.9 1 1.9 1.5 2.8l-1.4.8zm-333.9-.1l-1.4-.7c.5-1 1-1.9 1.5-2.9l1.4.8c-.5.9-1 1.8-1.5 2.8zm330.1-6.9c-.5-.9-1.1-1.8-1.6-2.8l1.4-.8c.5.9 1.1 1.8 1.6 2.8l-1.4.8zm-326.2-.1l-1.4-.8c.5-.9 1.1-1.9 1.6-2.8l1.4.8c-.5.9-1.1 1.8-1.6 2.8zm322.1-6.7c-.6-.9-1.1-1.8-1.7-2.7l1.3-.9c.6.9 1.2 1.8 1.7 2.7l-1.3.9zm-318-.2l-1.4-.9c.6-.9 1.2-1.8 1.7-2.7l1.3.9c-.4.9-1 1.8-1.6 2.7zm313.6-6.5c-.6-.9-1.2-1.7-1.8-2.6l1.3-.9c.6.9 1.2 1.8 1.9 2.6l-1.4.9zm-309.2-.2l-1.3-.9c.6-.9 1.2-1.8 1.9-2.6l1.3.9c-.6.9-1.3 1.7-1.9 2.6zm304.5-6.2c-.6-.8-1.3-1.7-1.9-2.5l1.3-1c.7.8 1.3 1.7 2 2.6l-1.4.9zm-299.8-.3l-1.3-1c.7-.9 1.3-1.7 2-2.6l1.3 1c-.7.9-1.3 1.8-2 2.6zm294.9-6l-2.1-2.4 1.2-1c.7.8 1.4 1.6 2.1 2.5l-1.2.9zm-289.9-.2l-1.2-1c.7-.8 1.4-1.7 2.1-2.5l1.2 1c-.7.8-1.4 1.6-2.1 2.5zm284.7-5.9c-.7-.8-1.4-1.6-2.2-2.4l1.2-1.1c.7.8 1.5 1.6 2.2 2.4l-1.2 1.1zm-279.5-.2l-1.2-1.1c.7-.8 1.4-1.6 2.2-2.4l1.2 1.1c-.7.8-1.5 1.6-2.2 2.4zm274-5.6c-.7-.8-1.5-1.5-2.3-2.3l1.1-1.1 2.3 2.3-1.1 1.1zm-268.5-.2l-1.1-1.1 2.3-2.3 1.1 1.1-2.3 2.3zm262.8-5.4c-.8-.7-1.6-1.5-2.4-2.2l1.1-1.2c.8.7 1.6 1.5 2.4 2.2l-1.1 1.2zm-257.1-.2l-1.1-1.2c.8-.7 1.6-1.5 2.4-2.2l1.1 1.2c-.8.7-1.6 1.5-2.4 2.2zm251.2-5.2l-2.4-2.1 1-1.2c.8.7 1.6 1.4 2.5 2.1l-1.1 1.2zm-245.2-.2l-1-1.2c.8-.7 1.6-1.4 2.5-2.1l1 1.2c-.9.8-1.7 1.4-2.5 2.1zm239-4.9c-.8-.7-1.7-1.3-2.5-2l1-1.3c.9.7 1.7 1.3 2.5 2l-1 1.3zm-232.9-.1l-1-1.3c.8-.7 1.7-1.3 2.5-2l1 1.3c-.8.6-1.6 1.3-2.5 2zm226.5-4.7c-.9-.6-1.7-1.2-2.6-1.9l.9-1.3c.9.6 1.8 1.2 2.6 1.9l-.9 1.3zm-220.1-.2l-.9-1.3c.9-.6 1.7-1.2 2.6-1.9l.9 1.3c-.8.7-1.7 1.3-2.6 1.9zm213.5-4.4c-.9-.6-1.8-1.2-2.7-1.7l.9-1.4 2.7 1.8-.9 1.3zm-206.9-.1l-.9-1.3 2.7-1.8.9 1.4c-.9.5-1.8 1.1-2.7 1.7zm200.2-4.1c-.9-.6-1.8-1.1-2.8-1.6l.8-1.4c.9.5 1.9 1.1 2.8 1.6l-.8 1.4zm-193.5-.2l-.8-1.4c.9-.6 1.8-1.1 2.8-1.6l.8 1.4c-.9.6-1.8 1.1-2.8 1.6zm186.5-3.8c-.9-.5-1.9-1-2.8-1.5l.7-1.4c1 .5 1.9 1 2.9 1.5l-.8 1.4zm-179.5-.1l-.8-1.4c.9-.5 1.9-1 2.8-1.5l.7 1.4-2.7 1.5zm172.4-3.6c-1-.5-1.9-.9-2.9-1.4l.7-1.5c1 .5 1.9.9 2.9 1.4l-.7 1.5zm-165.3-.1l-.7-1.4c1-.5 1.9-.9 2.9-1.4l.7 1.5c-1 .4-2 .9-2.9 1.3zm158-3.3c-1-.4-2-.9-2.9-1.3l.6-1.5c1 .4 2 .8 3 1.3l-.7 1.5zm-150.8 0l-.6-1.5c1-.4 2-.9 3-1.3l.6 1.5c-1.1.4-2 .8-3 1.3zm143.4-3.1c-1-.4-2-.8-3-1.1l.6-1.5c1 .4 2 .8 3 1.1l-.6 1.5zm-136 0l-.6-1.5c1-.4 2-.8 3-1.1l.6 1.5c-1.1.4-2.1.7-3 1.1zm128.5-2.7c-1-.3-2-.7-3-1l.5-1.5c1 .3 2.1.7 3.1 1l-.6 1.5zm-121 0l-.5-1.5c1-.3 2-.7 3.1-1l.5 1.5c-1.1.3-2.1.6-3.1 1zm113.3-2.4c-1-.3-2-.6-3.1-.9l.4-1.6c1 .3 2.1.6 3.1.9l-.4 1.6zm-105.7 0l-.5-1.5c1-.3 2.1-.6 3.1-.9l.4 1.5-3 .9zm98-2.1c-1-.3-2.1-.5-3.1-.7l.4-1.6c1 .2 2.1.5 3.1.7l-.4 1.6zm-90.3 0l-.4-1.6c1-.3 2.1-.5 3.1-.7l.4 1.6c-1 .2-2.1.4-3.1.7zm82.5-1.7c-1-.2-2.1-.4-3.1-.6l.3-1.6c1.1.2 2.1.4 3.2.6l-.4 1.6zm-74.7-.1l-.3-1.6c1.1-.2 2.1-.4 3.2-.6l.3 1.6c-1.1.2-2.1.4-3.2.6zm66.8-1.4c-1.1-.2-2.1-.3-3.2-.5l.2-1.6c1.1.1 2.1.3 3.2.5l-.2 1.6zm-58.9 0l-.2-1.6c1.1-.2 2.1-.3 3.2-.5l.2 1.6c-1.1.2-2.2.4-3.2.5zm51-1c-1.1-.1-2.1-.2-3.2-.3l.2-1.6c1.1.1 2.1.2 3.2.3l-.2 1.6zm-43.1 0l-.2-1.6c1.1-.1 2.1-.2 3.2-.3l.2 1.6c-1.1 0-2.1.1-3.2.3zm35.2-.8c-1.1-.1-2.1-.1-3.2-.2l.1-1.6c1.1.1 2.1.1 3.2.2l-.1 1.6zm-27.2 0l-.1-1.6c1.1-.1 2.1-.1 3.2-.2l.1 1.6c-1.1.1-2.2.1-3.2.2zm19.2-.4c-1.1 0-2.1-.1-3.2-.1V282c1.1 0 2.2 0 3.2.1v1.6zm-11.2 0v-1.6c1.1 0 2.1-.1 3.2-.1v1.6c-1.1.1-2.2.1-3.2.1z"/></g><path fill="#C828BD" d="M209.6 530.3c-14.2 0-25.7 11.5-25.7 25.7s11.5 25.7 25.7 25.7 25.7-11.5 25.7-25.7-11.5-25.7-25.7-25.7zm-17 37.7c-.8 0-1.4-.6-1.4-1.4s.6-1.4 1.4-1.4c.8 0 1.4.6 1.4 1.4 0 .7-.6 1.4-1.4 1.4zm11.1-14.7c-.8 0-1.4-.6-1.4-1.4s.6-1.4 1.4-1.4c.8 0 1.4.6 1.4 1.4-.1.7-.7 1.4-1.4 1.4zm16 19.2c-2 0-3.7-1.6-3.7-3.7 0-2 1.6-3.7 3.7-3.7 2 0 3.7 1.6 3.7 3.7s-1.6 3.7-3.7 3.7zm-2.7-19.2c-3.5 0-6.4-2.9-6.4-6.4 0-3.6 2.9-6.4 6.4-6.4 3.6 0 6.4 2.9 6.4 6.4s-2.9 6.4-6.4 6.4z"/><g fill="#03709C"><circle cx="115.5" cy="396.2" r="5.9"/><circle cx="531.3" cy="496.6" r="5.9"/><circle cx="399.3" cy="587" r="3.3"/><circle cx="365.4" cy="669.8" r="3.3"/><circle cx="205.3" cy="249.7" r="2.7"/><circle cx="356" cy="203.2" r="2.2"/><circle cx="492.3" cy="334.7" r="4.3"/><circle cx="419.5" cy="602.3" r="13.3"/><circle cx="126.7" cy="410.6" r="2.1"/></g><g fill="#FFF"><ellipse cx="429.7" cy="330.7" rx="9.6" ry="10.4"/><circle cx="401.8" cy="330" r="2.4"/><circle cx="357.6" cy="522.8" r="11.2"/><circle cx="460.2" cy="479.5" r="1.6"/><circle cx="291.9" cy="332" r="1.6"/><circle cx="313.5" cy="531.6" r="2.4"/></g><g fill="#FFF"><path d="M284.2 474.6c.2-2-.6-4.1-1.9-5.5l-14.9-15.2c-3.1-3.1-4.7-7.6-4.3-12s2.6-8.5 6.1-11.2 8.1-3.7 12.5-2.9c4.3.9 8.1 3.6 10.4 7.5 1.2 2.1.5 4.8-1.7 6.1-2.1 1.2-4.8.5-6-1.7-1-1.7-2.6-2.8-4.4-3.2-1.9-.4-3.8.1-5.4 1.3-1.6 1.1-2.5 2.9-2.6 4.8-.2 1.8.5 3.7 1.8 5.1l14.7 15.2c3.2 3.3 4.9 7.9 4.5 12.4-.4 4.6-2.7 8.8-6.3 11.6-3.7 2.8-8.3 3.8-12.9 3-4.5-.9-8.4-3.8-10.6-7.7-1.3-2.1-.6-4.9 1.6-6.1 2.1-1.2 4.8-.5 6.1 1.7 1 1.8 2.7 3 4.7 3.4s4.1-.1 5.7-1.4c1.8-1.3 2.7-3.2 2.9-5.2zM305.1 474.5v-31.4c0-7 4.7-13.2 11.5-15s14 1.1 17.5 7.2c1.3 2.1.6 4.8-1.6 6.1-2.1 1.2-4.8.5-6.1-1.7-1.5-2.6-4.5-3.9-7.5-3.1-2.9.7-4.9 3.4-4.9 6.4v31.4c0 3.1 2 5.6 4.9 6.5 3 .7 6-.6 7.5-3.1 1.3-2.1 4-2.9 6.1-1.7 2.1 1.3 2.9 4 1.6 6.1-3.5 6.1-10.6 9.1-17.5 7.2-6.8-1.7-11.5-7.9-11.5-14.9zM346.7 474.5v-31.4c0-8.6 6.9-15.5 15.5-15.5s15.5 6.9 15.5 15.5v31.4c0 8.6-6.9 15.5-15.5 15.5s-15.5-6.9-15.5-15.5zm8.9-31.5v31.4c0 3.7 3 6.7 6.7 6.7s6.7-3 6.7-6.7V443c0-3.7-3-6.7-6.7-6.7s-6.7 3-6.7 6.7zM391.2 474.5v-31.4c0-8.6 6.9-15.5 15.5-15.5s15.5 6.9 15.5 15.5v31.4c0 8.6-6.9 15.5-15.5 15.5s-15.5-6.9-15.5-15.5zm8.9-31.5v31.4c0 3.7 3 6.7 6.7 6.7s6.7-3 6.7-6.7V443c0-3.7-3-6.7-6.7-6.7s-6.7 3-6.7 6.7zM441.2 427.9h11.1c8.6 0 15.5 6.9 15.5 15.5v5.2c0 8.6-6.9 15.5-15.5 15.5h-6.6v21.5c0 2.5-2 4.4-4.4 4.4-2.5 0-4.4-1.9-4.4-4.4v-53.3c-.1-2.4 1.8-4.4 4.3-4.4zm11.1 8.9h-6.6v18.5h6.7c3.7 0 6.7-3 6.7-6.7v-5.2c-.1-3.7-3.1-6.6-6.8-6.6z"/></g><path fill="#03709C" d="M190.2 527l-1.8-2.8.6-.4 1.8 2.9M185.8 519.9l-3.3-5.8.8-.4 3.2 5.8M180.1 509.6l-2.9-6 1.1-.5 2.7 6.1M175.2 499l-2.5-6.2 1.3-.5 2.3 6.2M171 488l-2.1-6.4 1.5-.5 2 6.5M167.5 476.7l-1.6-6.5 1.8-.4 1.5 6.5M164.9 465.3l-1.2-6.6 2-.4 1.1 6.7M163 453.6l-.7-6.6 2.3-.2.5 6.6M161.9 441.9l-.2-6.7 2.5-.1.1 6.7M161.7 430.1l.2-6.7 2.7.1-.3 6.7M162.2 418.3l.7-6.6 2.9.3-.8 6.6M163.6 406.6l1.1-6.6 3.1.5-1.2 6.6M165.7 395l1.6-6.5 3.2.8-1.6 6.5M168.7 383.5l2-6.4 3.3 1.1-2.1 6.4M182.1 350.7l3.2-5.8 3.5 2-3.3 5.8M188 340.5l3.7-5.6 3.4 2.3-3.7 5.5M194.6 330.7l4.1-5.4 3.4 2.7-4.1 5.3M201.9 321.3l4.4-5 3.4 3-4.5 4.9M209.8 312.5l4.8-4.8 3.3 3.4-4.8 4.6M218.3 304.2l5.1-4.4 3.2 3.7-5.1 4.3M227.4 296.5l5.3-4 3 4-5.3 4M237 289.5s1.4-.9 2.8-1.9l2.8-1.8 2.8 4.4s-1.4.9-2.8 1.7l-2.8 1.8-2.8-4.2zM247 283.1l5.8-3.3 2.6 4.7-5.8 3.2M257.4 277.4l6-2.9 2.4 5.1-6 2.7M268.2 272.4l6.2-2.5 2.2 5.4-6.3 2.4M279.3 268.1l6.4-2 1.8 5.7-6.4 2M290.7 264.6l6.5-1.6 1.5 6.1-6.5 1.5M302.4 261.9l6.6-1.1 1 6.3-6.6 1.1M314.2 260.1l6.6-.7.7 6.5-6.7.6M326.1 259.1l6.6-.3.2 6.7-6.7.2M338 258.9l6.7.3-.3 6.6-6.7-.3M349.9 259.6l6.6.7-.7 6.5-6.6-.7M361.7 261.1l6.6 1.2-1.1 6.3-6.6-1.1M373.4 263.4l6.5 1.7-1.5 6-6.5-1.5M384.9 266.6l6.3 2.1-1.8 5.7-6.4-2M396.1 270.5l6.2 2.6-2.1 5.3-6.2-2.4M407.1 275.3l5.9 2.9-2.3 4.9-6.1-2.8M417.6 280.7l5.8 3.4-2.5 4.3-5.9-3.2M427.7 286.9l5.5 3.8-2.4 3.8-5.7-3.6M437.4 293.8l5.2 4.2-2.4 3.1-5.4-3.9M446.5 301.4l4.9 4.5-2.3 2.6-5.1-4.3M455 309.5l4.6 4.9-2 2-4.8-4.6M463 318.3l4.2 5.2-1.6 1.3-4.5-4.9M470.2 327.5l3.9 5.5-1.1.8-4.2-5.2M476.9 337.4l1.7 2.9-.5.3-2-2.7"/><g><path fill="#03709C" d="M548.7 503.3l-1.4 3-.7-.3 1.5-3M545.1 510.9l-3.1 5.9-.8-.5 3.2-5.8M539.5 521.2l-3.5 5.7-1-.6 3.6-5.7M533.2 531.1l-3.9 5.4-1.1-.8 4-5.3M526.2 540.6l-4.2 5.1-1.3-1 4.4-5.1M518.6 549.5l-4.6 4.9-1.3-1.3 4.7-4.7M510.4 558l-4.9 4.5-1.4-1.5 5-4.4M501.6 565.8l-5.2 4.2-1.4-1.8 5.3-4.1M492.3 573.1l-5.5 3.8-1.4-2.1 5.6-3.7M482.5 579.7l-5.7 3.4-1.4-2.3 5.8-3.4M472.3 585.6l-6 3-1.3-2.6 6.1-2.9M461.7 590.8l-6.1 2.6-1.3-2.9 6.2-2.5M450.8 595.2l-6.3 2.2-1.1-3.1 6.3-2.1M439.6 598.9l-6.5 1.8-.9-3.4 6.5-1.7M428.1 601.9l-6.6 1.3-.7-3.6 6.6-1.2M416.5 604l-6.7.9-.4-3.8 6.6-.8M404.7 605.4l-6.7.4-.2-4 6.7-.3M392.9 605.9h-6.7l.1-4.2 6.6.1M381 605.7l-6.6-.6.3-4.3 6.7.6M369.2 604.6l-6.6-1 .7-4.5 6.6 1.1M357.5 602.7l-6.5-1.4 1-4.6 6.5 1.5M346 600l-6.5-1.9 1.4-4.6 6.4 1.9M334.6 596.5l-6.3-2.3 1.8-4.7 6.2 2.4M323.5 592.3s-1.5-.7-3.1-1.3c-1.5-.7-3.1-1.4-3.1-1.4l2.2-4.7 3 1.4 3.1 1.4-2.1 4.6zM312.7 587.3l-5.9-3.1 2.6-4.8 5.8 3.2M302.3 581.6l-5.7-3.5 3-4.8 5.6 3.6M292.2 575.2l-5.4-3.9 3.4-4.7 5.4 4M282.6 568.2l-5.1-4.3 3.9-4.6 5 4.3M273.5 560.4l-4.8-4.6 4.3-4.5 4.8 4.7M265 552.1l-4.5-4.9 4.7-4.3 4.5 4.9M257.1 543.2l-4.2-5.3 5.2-4 4.1 5.3M249.8 533.7l-3.8-5.5 5.5-3.7 3.8 5.5M243.2 523.8l-3.4-5.8 5.7-3.3 3.4 5.7M237.3 513.4l-2.9-6 5.8-2.9 3 6M232.2 502.6l-2.5-6.2 5.9-2.4 2.6 6.1M227.9 491.5l-2.1-6.3 5.9-2 2.2 6.3M224.3 480.1l-1.6-6.4 5.8-1.6 1.7 6.5M221.6 468.6l-1.2-6.6 5.6-1.1 1.3 6.6M219.7 456.8l-.8-6.6 5.3-.7 1 6.6M218.6 445l-.3-6.7 5-.3.4 6.7M218.3 433.1l.3-6.7 4.4.1.1 6.7M218.9 421.3l.7-6.7 3.9.4-.4 6.6M220.3 409.5l1.2-6.6 3.4.6-.9 6.6M222.6 397.9l1.6-6.5 2.8.7-1.3 6.5M225.7 386.5l2.1-6.3 1.9.6-1.7 6.4M229.5 375.4l2.6-6.2 1.2.5-2.1 6.3M234.2 364.5l1.5-3 .6.2-1.2 3.2"/></g><g><path fill="#03709C" d="M347.7 220l3.3-.3v.7l-3.3.2M356 219.4l6.7-.2v.9l-6.7.1M367.8 219.2l6.7.3-.1 1.1-6.7-.4M379.5 219.8l6.7.7-.2 1.4-6.6-.8M391.2 221.2l6.6 1.2-.3 1.6-6.6-1.3M402.7 223.5l6.5 1.6-.4 1.7-6.5-1.7M414.1 226.5l6.4 2-.7 2-6.3-2.2M425.3 230.3l6.2 2.4-.9 2.1-6.1-2.6M436.1 234.8l6.1 2.9-1.1 2.2-6-3M446.7 240.1l5.8 3.3-1.4 2.3-5.7-3.4M456.9 246.1l5.5 3.7-1.6 2.4-5.5-3.8M466.6 252.7l5.3 4.1-1.9 2.5-5.3-4.2M475.9 260.1l5 4.4-2.3 2.5-4.9-4.5M484.6 268l4.7 4.8-2.5 2.4-4.6-4.8M507.3 295.2l3.7 5.6-3.4 2.2-3.6-5.7M513.6 305.2l3.3 5.9-3.7 2-3.2-5.9M519.2 315.7l2.8 6.1-3.9 1.8-2.8-6.1M524.1 326.5l2.4 6.2-4.3 1.6-2.3-6.2M528.2 337.6l1.9 6.4-4.4 1.4-1.9-6.4M531.5 349l1.5 6.5-4.7 1.1-1.4-6.5M534 360.6l1.1 6.6-4.9.8-1-6.6M535.8 372.3s.2 1.7.4 3.3c.2 1.7.3 3.4.3 3.4l-5.2.4s-.1-1.6-.2-3.3c-.2-1.7-.3-3.3-.3-3.3l5-.5zM536.8 384.2l.2 6.7-5.4.1-.1-6.7M537 396.1l-.3 6.7-5.6-.3.4-6.6M536.3 408l-.7 6.7-5.8-.7.9-6.7M534.9 419.8l-1.2 6.6-5.9-1.1 1.3-6.6M532.6 431.5L531 438l-6-1.5 1.7-6.5M529.6 443.1l-2.1 6.3-6.1-2 2.2-6.3M525.7 454.4l-2.5 6.2-6.1-2.5 2.6-6.2M521.1 465.3l-3 6.1-6-3 3-6M515.6 476l-3.3 5.7-5.8-3.3 3.4-5.8M509.5 486.2l-3.8 5.5-5.4-3.7 3.7-5.5M502.6 495.9l-4.1 5.3-5.1-4 4.1-5.3M495.1 505.2l-4.5 4.9-4.7-4.1 4.4-5.1M486.9 513.8l-4.8 4.7-4.2-4.3 4.7-4.7M478.2 521.9l-5.2 4.3-3.7-4.3 5.1-4.4M468.9 529.4l-5.5 3.9-3.1-4.3 5.3-4.1M459.1 536.1l-5.7 3.6-2.7-4.2 5.6-3.7M448.9 542.2l-5.9 3.1-2.2-3.9 5.8-3.4M438.3 547.5l-6.2 2.6-1.6-3.5 6-3M427.4 552l-6.4 2.2-1.2-3.1 6.2-2.5M416.1 555.8l-6.4 1.7-.8-2.6 6.3-2.1M404.7 558.7l-6.6 1.3-.4-2 6.5-1.7M393.1 560.8l-6.6.8-.2-1.3 6.5-1.2M381.3 562l-3.4.2v-.6l3.3-.5"/></g><circle fill="#FFF" cx="363.5" cy="421.3" r=".2"/><g fill="#FFF"><path d="M283.1 401.4c.2-1.9-.5-3.9-1.8-5.3l-14-14.4c-3-3-4.5-7.2-4.1-11.4.3-4.2 2.5-8.1 5.8-10.6s7.7-3.5 11.8-2.7c4.1.9 7.7 3.4 9.8 7.1 1.1 2 .4 4.6-1.6 5.8-2 1.1-4.6.4-5.7-1.6-1-1.6-2.5-2.6-4.2-3.1-1.8-.4-3.6.1-5.1 1.2s-2.4 2.7-2.5 4.6c-.2 1.8.4 3.5 1.8 4.8l13.9 14.4c3.1 3.2 4.6 7.5 4.3 11.8-.3 4.4-2.5 8.3-6 11-3.5 2.6-7.9 3.6-12.2 2.8-4.3-.9-8-3.6-10.1-7.3-1.2-2-.5-4.6 1.5-5.8 2-1.1 4.6-.4 5.8 1.6 1 1.7 2.5 2.8 4.5 3.2 1.9.3 3.9-.1 5.4-1.3 1.7-1.2 2.5-2.9 2.7-4.8zM312.5 357.1H323c8.2 0 14.7 6.6 14.7 14.7v4.9c0 8.2-6.6 14.7-14.7 14.7h-6.3v20.3c0 2.4-1.9 4.2-4.2 4.2-2.4 0-4.2-1.8-4.2-4.2v-50.5c0-2.2 1.8-4.1 4.2-4.1zm10.5 8.4h-6.3V383h6.3c3.5 0 6.3-2.8 6.3-6.3v-4.9c0-3.5-2.8-6.3-6.3-6.3zM396.2 401.3v-29.8c0-6.7 4.5-12.5 10.9-14.2 6.5-1.8 13.2 1.1 16.6 6.8 1.2 2 .5 4.6-1.5 5.8-2 1.1-4.6.4-5.8-1.6-1.4-2.5-4.3-3.7-7.1-2.9-2.7.7-4.6 3.2-4.6 6.1v29.8c0 2.9 1.9 5.4 4.6 6.1 2.8.7 5.7-.5 7.1-3 1.2-2 3.8-2.7 5.8-1.6 2 1.2 2.7 3.8 1.5 5.8-3.3 5.8-10.1 8.6-16.6 6.8-6.4-1.6-10.9-7.5-10.9-14.1zM444.4 357.1h17.5c2.4 0 4.2 1.9 4.2 4.2 0 2.4-1.8 4.2-4.2 4.2h-13.2v15.8h11.6c2.4 0 4.2 1.9 4.2 4.2 0 2.4-1.8 4.2-4.2 4.2h-11.6v17.5H462c2.4 0 4.2 1.9 4.2 4.2 0 2.4-1.8 4.2-4.2 4.2h-17.5c-2.3 0-4.2-1.8-4.2-4.2v-50.2c-.1-2.2 1.9-4.1 4.1-4.1zM382.5 400.2l-14-50.9c-.4-1.8-2.1-3.1-4-3.1s-3.6 1.2-4 3.1l-14 50.9c-.6 2.3.7 4.6 2.9 5.2 2.3.6 4.6-.7 5.2-2.9 0 0 1.1-3.8 2.5-9.2l6.6-23.9c.3-1 .6-2.1.8-3 .3 1.2.7 2.4 1 3.7l6.4 23.3c.4 1.4.8 2.7 1.1 3.9l1 3.5c.3 1.2.5 1.9.5 1.9.6 2.2 2.9 3.5 5.2 2.9 2.1-.9 3.4-3.1 2.8-5.4z"/></g><path fill="#03709C" d="M185.8 347.3s-16.3 6.6-21.5 20.4c-1.5 3.9-2.4 7.8-2.9 11.5h-.3c-.5 0-1 0-1.4.1-.9.2-1.8.5-2.6.9-.7.4-1.4 1-1.9 1.5-1 1.1-1.7 2.4-2.2 3.6-1 2.4-1.3 4.9-1.3 7.3s.4 4.7 1 6.9c0-2.3.4-4.5 1-6.6s1.6-4.1 2.8-5.6c.6-.7 1.3-1.4 2-1.7.3-.2.7-.3.9-.3.3 0 .5 0 .7.1.1 0 .2.1.3.1l.2.2.5.5.2.2c.2 2.5.7 4.8 1.6 6.6 1 2.1 8 4.8 10.1 4 1.9-.8 3.9-2.2 5.9-4.1.2-.1.5-.1.7-.1h.3s.2 0 .3.1c.2.1.4.2.6.4.2.2.4.5.5.9.3.7.4 1.6.3 2.6-.1 1.9-.7 4-1.6 6-.9 2-2.1 3.9-3.6 5.6 1.9-1.2 3.7-2.7 5.3-4.5s3-3.8 3.9-6.3c.4-1.2.7-2.6.7-4.1 0-.8-.1-1.6-.4-2.4-.3-.8-.7-1.7-1.3-2.4-.3-.4-.6-.7-1-1l-.1-.1c2.1-3 3.9-6.6 5.4-10.6 4.7-14-3.1-29.7-3.1-29.7zm-1.3 20.7c-1.2 3.1-4.7 4.7-7.8 3.5s-4.7-4.7-3.5-7.8c1.2-3.1 4.6-4.7 7.8-3.5 3.1 1.2 4.7 4.7 3.5 7.8zM501.3 267c-3.7-4.4-7.8-8.2-11.8-11.2.1-.1.2-.3.3-.4.4-.6.6-1.2.8-1.8.4-1.2.6-2.5.6-3.7s-.3-2.3-.6-3.3c-.7-2-1.7-3.6-2.8-5-2.3-2.8-5-4.8-7.9-6.4-2.9-1.6-5.9-2.7-9-3.4 2.7 1.6 5.2 3.5 7.3 5.6 2.1 2.1 3.8 4.6 4.8 7.1.5 1.2.8 2.5.8 3.5 0 .5-.1 1-.2 1.3-.1.4-.3.6-.5.8-.1.1-.2.2-.3.2-.1.1-.2.1-.4.1-.3.1-.5.1-.9.2h-.4c-3.2-1.5-6.2-2.3-9-2.5-3.2-.2-11.2 6.4-11.5 9.4-.3 2.9 0 6.2 1 9.8-.1.3-.2.6-.3.8-.1.1-.1.2-.2.3 0 .1-.2.2-.3.3-.2.2-.5.3-.9.4s-.8.1-1.4 0c-1-.2-2.2-.6-3.4-1.3-2.3-1.4-4.4-3.5-6.2-5.9-1.8-2.4-3.2-5.2-4.3-8.1.2 3.1.8 6.3 1.8 9.4 1.1 3.1 2.6 6.1 5 8.8 1.2 1.3 2.6 2.6 4.5 3.6.9.5 2 .9 3.2 1.1s2.5.3 3.8 0c.7-.1 1.2-.3 1.9-.5.1 0 .2-.1.2-.1 2.3 4.5 5.3 9.1 9.1 13.6 13.1 15.5 37.2 16.6 37.2 16.6s3-23.8-10-39.3zm-2.3 25.1c-3.5 2.9-8.7 2.5-11.7-1s-2.5-8.7 1-11.7 8.7-2.5 11.7 1 2.5 8.7-1 11.7z"/><path fill="#72C800" d="M338.4 198.5c0-.3 0-.4-.1-.8-.1-.3-.1-.6-.2-.9-.3-1.2-.8-2.2-1.4-3.2-1.3-1.9-2.8-3.2-4.5-4.3-3.3-2.1-6.6-3.1-9.5-3.8s-5.6-.9-7.7-1-3.8-.1-5 0c-1.1.1-1.7.1-1.7.1s.6 0 1.7.1 2.8.3 4.9.6c2.1.4 4.6.9 7.3 1.8s5.8 2.2 8.5 4.3c1.4 1 2.6 2.3 3.4 3.7.4.7.7 1.5.9 2.3.1.2.1.4.1.6 0 .1 0 .5.1.7v1.3c-.3 3.6-2.6 7.1-5.7 10-3.1 3-7.1 5.2-11.3 7-4.2 1.8-8.7 3.2-13.2 3.6-4.6.4-9.4.3-13.5-.9-2-.6-3.8-1.6-4.9-2.9-1.1-1.3-1.4-2.7-.8-4.2v-.2l.2-.3c.1-.2.3-.6.4-.7.1-.1.2-.3.3-.5l.4-.5c.5-.6 1.1-1.1 1.7-1.6-.2.6-.5 1.2-.5 2v1.2l.1.6.1.5c.6 1.8 1.8 2.8 2.9 3.6 2.3 1.4 4.8 1.9 7.2 2.1 2.5.2 4.9 0 7.5-.5.6-.1 1.3-.3 1.9-.4.7-.2 1.3-.3 1.9-.5 1.3-.4 2.5-.9 3.8-1.4 2.5-1.1 4.9-2.5 7.2-4.4 1.1-1 2.3-2.1 3.2-3.4.9-1.4 1.8-3.1 1.9-5 .1-1 0-2-.2-2.9l-.1-.3-.1-.4-.2-.5c-.2-.4-.5-1-.7-1.3-1-1.6-2.4-2.8-3.8-3.7-2.9-1.8-6-2.5-9.1-2.9-6.2-.7-12.4.2-18.2 2-5.9 1.7-11.5 4.4-16.2 8.4-2.3 2-4.3 4.5-5.8 7.2s-2.3 5.9-2.2 9c.2 3.1 1.4 6.1 3.1 8.4 1.8 2.4 4 4.1 6.3 5.5 4.6 2.7 9.4 4.2 13.8 4.9 8.9 1.5 16.3 1.1 21.4.7 2.6-.2 4.6-.5 5.9-.7 1.4-.2 2.1-.4 2.1-.4s-.7 0-2.1.1-3.4.1-5.9.1c-2.6 0-5.7-.1-9.2-.5s-7.5-.9-11.7-1.9c-4.1-1.1-8.6-2.5-12.7-5.1-2-1.3-3.9-2.9-5.2-4.7-1.4-2-2.2-4.2-2.2-6.6-.1-4.8 2.9-9.6 7-13 4.1-3.5 9.4-5.8 14.8-7.3 5.5-1.6 11.1-2.2 16.4-1.5 2.6.4 5.2 1.1 7.1 2.4 1.9 1.2 3 3 2.8 4.6-.1 1.1-.7 2.2-1.7 3.3v-.7s0-.7-.1-.9V203.9c-.3-1-.8-2-1.5-2.7s-1.5-1.3-2.4-1.7c-3.4-1.6-7.1-1.7-11-1.4-1.9.2-3.9.5-6 1-2.1.6-4.1 1.4-6.1 2.4s-3.9 2.2-5.8 3.7c-.9.7-1.8 1.6-2.7 2.6l-.6.8-.6.9c-.2.4-.3.6-.5.8l-.2.4c-.1.3-.1.1-.1.2v.1l-.1.3c-.5 1.4-.7 3-.4 4.6.3 1.6 1.1 3 2 4.1 1.9 2.2 4.5 3.5 7 4.3 5.1 1.5 10.2 1.5 15.2 1 5.2-.6 10-2.1 14.5-4.2s8.7-4.7 12.2-8.1c1.7-1.7 3.3-3.6 4.4-5.7 1.2-2.1 1.9-4.5 2-6.8-.1-.8-.1-1.4-.2-2z"/><g><g fill="#00A8DE"><path d="M621.6 438.4c-1.6.8-3.8 2-6.5 3.3s-5.9 2.9-9.3 4.4c-1.7.8-3.5 1.6-5.3 2.4s-3.7 1.6-5.6 2.3c-3.8 1.4-8 2.2-11.8 3.2-1.9.4-3.8.9-5.5 1.3-1.8.4-3.4.7-5 1-3.1.6-5.8 1.1-7.6 1.3-1.9.3-2.9.4-2.9.4-3.9.4-7.7 2.5-10.1 5.9-4.6 6.4-3.1 15.4 3.3 20s15.4 3.1 20-3.3c0 0 .6-.9 1.8-2.4s2.8-3.6 4.9-6c1-1.2 2.2-2.5 3.4-3.9s2.5-2.7 3.8-4.2c2.7-2.9 5.5-6 8.6-8.7 1.5-1.3 3.1-2.6 4.7-3.7 1.6-1.2 3.2-2.3 4.7-3.4 3.1-2.2 6-4.2 8.4-5.9 2.5-1.7 4.6-3 6.1-4s2.3-1.5 2.3-1.5-.9.7-2.4 1.5zm-51 34.2c.5 1.2.5 3.1-.5 4.4-1.2 1.7-3.1 2.2-4.7 3.2-1.2.7-2 .6-3.1.2-1.9-.7-4.1-1.5-5.3-3.1-.6-.8-.3-1.7-.3-2.7 0-1.3-.7-2.3-.6-3.6.1-.9 1.1-1.7 1.4-2.6.4-.9.2-2.1 1-2.8.8-.7 1.7-.8 2.4-1.7 1.1-1.2 2.6-3 3.8-1.8.5.5 3.8 2.2 5 2.6s1.6 2 .8 2.8c-.5.9-.4 3.8.1 5.1z"/><path d="M563.6 465.7c-.8 1.6-1 .9-2.5 1.3.1.6 1.1 2.6 2 2.3.7-.2 2.1-2.5 2-2.9-.2-.4-1.3-1.2-1.5-.7zM558.5 471.3c-.2 0-.4.1-.5.3.4-.5.9 2 .9 2.1.1.6 0 2 .6 2.3.7.3.8-1.2 1.2-2.5.3-.9-1.2-2.2-2.2-2.2zM568.4 472.6c-.3-.1-.7 0-1 .2s-.6.3-.7.5c-.4.6-1.4 2.8-.8 3.2.5.4 2.1-.3 2.4-.9.5-.8-.4-1.1-.5-1.7.1-.5.5-.9.6-1.3z"/></g></g><path fill="#03709C" d="M603 344.3c.4-5.5-2.4-10.8-7.5-13.4s-11-1.6-15.2 1.9c-5.6-2.2-10.3-3.5-13.1-3.5-1.8 0-3 .5-3.5 1.6-1 2.1.8 4.7 5.9 8.6 1.6 1.2 3.4 2.4 5.4 3.7-.4 5.5 2.4 10.8 7.5 13.4s11 1.6 15.2-1.9c5.6 2.2 10.3 3.5 13.1 3.5 1.8 0 3-.5 3.5-1.6 1.6-3.2-4.8-8.2-11.3-12.3zm-36.1-11.7h.4c1.9 0 5.6.9 10.7 2.8-.5.7-.9 1.4-1.3 2.1-.4.8-.7 1.6-.9 2.4-5.3-3.4-8.1-6.1-8.9-7.3zm43.9 22.4c-1.9 0-5.6-.9-10.7-2.8.5-.7.9-1.4 1.3-2.1.4-.8.7-1.6.9-2.4 5.2 3.4 8 6 8.8 7.3h-.3z"/></svg>