<svg id="Layer_1" xmlns="http://www.w3.org/2000/svg" viewBox="-127 250.7 340.2 340.2"><style>.st0{fill:#5FA6DB;} .st1{fill:#FFFFFF;}</style><g id="Layer_18"><circle class="st0" cx="43.1" cy="420.8" r="160"/><path class="st1" d="M34.4 345c-15.3 8.1-23.9 21.1-37.6 31.3-8.6 6.5-17.8 12.5-24.9 20.6-19.6 22.4-11.8 52.9 4 75 10.4 14.6 24.6 27.8 42.2 31.3 19.9 4 39.8-4.9 57.9-14.2 18.9-9.7 39-21.4 46.6-41.2 8.2-21.1-.2-44.6-8.5-65.7-5.3-13.4-11.1-27.5-22.6-36.2-16-12.1-39.4-10.3-57.1-.9z"/><path class="st0" d="M80.7 450.5c.8 2.5 2 5 4.1 6.6s5.2 2.1 7.3.6c2.5-1.7 2.8-5.4 1.9-8.2-.9-2.9-2.8-5.3-3.9-8.1-4.1-9.7.7-22.9 10.9-26.5-15.7.4-24.4 22.2-20.3 35.6zM59.4 373.3c6.6-.7 13.2-1.9 18.9-5.3 4.2-2.5 7.8-6.5 8.1-11.4.3-4.8-4.2-9.9-8.9-8.8 2.8 4.3-.3 10.5-5 12.6-4.4 2-10.1 1.8-14.5.4 8.3-7 1.2-13.5-7.9-11.9-5.1.9-10.5 2.7-13.3 7-9.8 15.1 14.5 18.4 22.6 17.4zM51.6 490.7c-.1-5.9 4.9-11.5 10.9-11.9 2.2-.1 4.9 1.1 4.6 3.2-.2 1.5-1.8 2.3-3.2 2.9-3.8 1.6-7.5 3.1-11.3 4.7-2.5 1.1-.8-3.1-.5-.3 1.8-.4 3.7-.9 5.5-1.3M29.8 474.3c-.4 2.1-1.1 4.3-1.9 6.4-2.7 6.8-11 11.9-17.5 8.5 11.8 6.3 13.3-17.2 12.1-22.8-2.1-10.4-8.7-22.5-19.1-26.4-7.8-2.9-6 4.6-13.8 7.9-6.5 2.7-11.8 1.3-14.6-5.7-11-27.8 14-33.6 32.7-17.4 14.2 12.1 26 30.4 22.1 49.5zM53.9 400.5l-.3-.3c-1.2-.9-2.9-1.2-4.4-1.4-3.8-.5-7.6-1.1-11.4-1.6-1.9-.3-4.1-.5-5.7.6-2.1 1.4-2.3 4.4-1.8 6.9.7 3.9.8 10.8 4.7 13.1 6.6 3.9 17.3-4.3 19.9-10.3 1-2.2.9-5.3-1-7z"/></g></svg>