<svg id="Layer_1" xmlns="http://www.w3.org/2000/svg" viewBox="-1269 730.8 340.2 340.2"><style>.st0{fill:#009A9A;} .st1{fill:#FFFFFF;}</style><g id="Layer_18"><circle class="st0" cx="-1098.9" cy="900.9" r="160"/><path class="st1" d="M-1083.7 884.4c-.9-5.3-5.6-9.4-11.2-9.4-3.8 0-7.2 1.9-9.3 4.8-1.8-1.3-4-2-6.3-2-6 0-10.9 4.9-10.9 10.9 0 .5 0 .9.1 1.3-3.5 1.9-5.8 5.5-5.8 9.8 0 4.2 2.4 7.9 5.9 9.8-.3 1-.5 2-.5 3 0 5.7 4.6 10.3 10.3 10.3 1.1 0 2.2-.2 3.2-.5 2.1 2.7 5.3 4.4 9 4.4 4 0 7.5-2.1 9.5-5.2.6.1 1.3.2 1.9.2 6.1 0 11-4.9 11-11 0-2.1-.6-4-1.6-5.7 3.5-1.8 5.9-5.5 5.9-9.7 0-6.1-4.9-11-11-11h-.2z"/><path class="st1" d="M-984.3 886.8c-1.3-10.4-14.4-18.1-38.1-22.2-8.5-1.5-17.9-2.4-28-2.8 4.4-20.3 6-38.6 3.6-51.5 2.4-1.7 4-4.5 4-7.7 0-5.2-4.2-9.4-9.4-9.4-1.2 0-2.4.2-3.4.7-.7-.5-1.5-.9-2.3-1.2-14.6-5.8-35.3 15.5-53.8 46.6-9-6.6-17.8-12.2-26.1-16.6-20.8-11-36.2-13-43.5-5.7-7.3 7.3-5.2 22.8 6 43.5 2.9 5.4 6.4 11 10.2 16.8-6.7 2.2-12.9 4.5-18.5 7-2.1.9-4.2 1.9-6.1 2.9-1.7-1.7-4-2.7-6.6-2.7-5.2 0-9.4 4.2-9.4 9.4 0 1 .2 2 .5 2.9-7.3 6-10.7 12.1-10 18.2 1.3 10.4 14.4 18.1 38.1 22.2 7.9 1.4 16.5 2.2 25.8 2.7-7.5 34.5-6.9 63.4 7.5 69.1 1.6.6 3.3 1 5.1 1 9 0 20.2-8.1 32.6-23.8 6.4-8.1 12.8-17.8 19-28.7 8.8 6.5 17.5 12 25.6 16.4-.3.9-.4 1.8-.4 2.7 0 5.2 4.2 9.4 9.4 9.4 3.4 0 6.4-1.8 8-4.5 5.6 1.9 10.6 2.8 14.8 2.8 5.3 0 9.4-1.4 12.3-4.4 7.3-7.3 5.2-22.8-6-43.5-2.3-4.2-4.9-8.6-7.8-13.1 28.6-9.7 48.6-22.7 46.9-36.5zm-78.7-90c1.1 0 2.1.2 3.1.5-1.1 1.5-1.7 3.4-1.7 5.4 0 5.2 4.2 9.4 9.4 9.4h.7c1.9 11.4.8 28.6-3.8 49.7-9-.2-18.6.1-28.4.7-8-7.4-16.1-14.2-24.1-20.2 17.1-29.1 34.2-45.5 44.8-45.5zm-8.3 115.8c-2.4 6-4.9 11.8-7.4 17.4-5.5.9-11.2 1.8-17.2 2.5-4.1.5-8.2.9-12.3 1.3-4.5-4.1-9-8.3-13.5-12.8-5.2-5.1-10.1-10.3-14.8-15.6 1.8-5.3 3.9-10.8 6.1-16.3 2.3-5.9 4.7-11.5 7.2-16.8 6.4-1.1 13-2.1 19.7-2.9 6.1-.7 12.1-1.3 18.1-1.8 2.9 2.7 5.8 5.5 8.6 8.3 4.8 4.7 9.3 9.5 13.7 14.3-2.5 7.2-5.2 14.7-8.2 22.4zm11.9-18.1c7.7 8.8 14.7 17.7 20.6 26.2-10.1 3.1-21.4 5.9-34 8.2 2.1-4.7 4.2-9.6 6.1-14.5 2.6-6.6 5.1-13.3 7.3-19.9zm-21.9 40.9c-2.4 5-4.9 9.9-7.4 14.5-4.8-3.6-9.6-7.6-14.4-11.7 2.6-.3 5.1-.5 7.7-.9 4.8-.4 9.4-1.1 14.1-1.9zm-33.7-1.1c-10.5.7-20.7 1-30.2.8 1.9-7.6 4.2-15.7 6.9-24.2 4.2 4.6 8.6 9.2 13.1 13.7 3.3 3.3 6.7 6.5 10.2 9.7zm-25.3-33.1c-6.1-7.1-11.8-14.2-16.8-21.1 8.7-2.5 18-4.8 27.8-6.7-2 4.6-4 9.2-5.9 13.9-1.7 4.5-3.4 9.2-5.1 13.9zm19.6-34.5c3.4-7.2 6.9-13.9 10.4-20.2 6.5 5 13.1 10.5 19.7 16.4-4.5.4-9.1.8-13.6 1.4-5.6.7-11.1 1.5-16.5 2.4zm47.3 5.6c-1.8-1.8-3.5-3.5-5.3-5.2 5.9-.3 11.8-.5 17.4-.5h4.8c-1.4 5.7-3 11.8-5 18-3.8-4.1-7.8-8.2-11.9-12.3zm-97.5-14.1c-9.9-18.3-12.4-32-6.8-37.6 2-2 5-3 8.8-3 7 0 16.9 3.2 28.8 9.5 8.2 4.3 16.9 9.9 25.9 16.5-4.3 7.6-8.5 15.7-12.5 24.1-11.8 2.2-23.1 4.9-33.4 8-4.1-6-7.7-11.9-10.8-17.5zm-5.4 74c-20.6-3.6-33-10.1-34-17.9-.5-4.2 2.2-8.8 7.8-13.4 1.6 1.4 3.8 2.3 6.1 2.3 5.2 0 9.4-4.2 9.4-9.4 0-.8-.1-1.6-.3-2.4 1.8-.9 3.7-1.8 5.6-2.6 5.9-2.6 12.5-5 19.5-7.3 5.8 8.2 12.5 16.6 19.9 25-3.2 9.5-5.9 19.1-8.1 28.3-9.2-.3-18-1.2-25.9-2.6zm66.3 50.8c-13 16.4-24.7 24.1-32 21.2-10-4-12.4-28.6-4.4-64.2 2.7.1 5.4.1 8.2.1 9.1 0 18.6-.4 28.3-1.2 6.3 5.6 12.6 10.7 18.8 15.5-6.2 10.9-12.5 20.6-18.9 28.6zm82.3-44.3c9.9 18.3 12.4 32 6.8 37.6-3.8 3.9-11.6 3.9-22.2.3v-.1c0-5.2-4.2-9.4-9.4-9.4-2.4 0-4.7.9-6.3 2.5-8.2-4.4-16.9-10-25.8-16.5 3.2-5.9 6.4-12.1 9.4-18.6 13.8-2.5 27.2-5.7 39.3-9.5 3 4.6 5.8 9.2 8.2 13.7zm-6.2-19.6c-6.7-9.8-14.7-20-23.8-30.2 2.3-7.5 4.4-14.9 6.1-22.1 10.2.4 19.8 1.3 28.3 2.7 20.6 3.6 33 10.1 34 17.9 1.2 9.7-15.4 22-44.6 31.7z"/></g></svg>