<svg id="Layer_1" xmlns="http://www.w3.org/2000/svg" viewBox="-127 250.7 340.2 340.2"><style>.st0{fill:#702381;} .st1{fill:#FFFFFF;} .st2{fill:#7D2E82;}</style><g id="Layer_18"><circle class="st0" cx="44" cy="420.8" r="160"/><path class="st1" d="M-43.9 523c-27-38-36-89-8-131l9-12s6-7 10-10 7-5 11-8c4-2 7-4 11-6s8-3 12-4c8-2 15-3 23-3 7 0 14 1 21 4-17-23-50-22-75-13-12 5-22 12-32 20-12 10-20 22-27 36 18-42 62-76 110-73 10 1 19 2 28 5s16 8 24 13c10 8 18 16 23 27 3 7 5 13 7 20 5-7 3-17 2-25-1-11-6-21-13-31s-16-15-25-22c-21-13-44-19-68-17 51-7 106 22 124 72 3 9 4 18 5 27 0 13-1 25-7 37-4 7-7 13-12 19-2 3-5 5-7 7 24-2 39-26 46-47 3-12 4-24 3-36-1-9-3-18-6-27-4-9-8-18-13-27 33 45 35 114-11 153-4 3-7 5-11 8-7 4-15 8-23 10s-16 3-24 3c-7-1-13-3-20-4 20 25 58 22 85 8 8-4 15-9 22-15 12-10 20-22 27-36-22 52-82 87-138 68-9-3-16-7-24-13-7-5-12-10-17-17-2-3-4-7-6-10-3-6-5-13-7-20-10 18 0 40 11 56 10 13 22 21 36 28 8 4 17 7 26 9 10 2 20 3 31 2-52 7-106-21-124-72-3-9-4-19-5-28 0-8 1-17 3-25 1-4 2-7 4-11 4-7 7-13 12-19 2-3 5-5 7-7-24 1-39 26-46 47-3 12-4 24-3 36 2 19 8 38 19 54z"/><path class="st2" d="M45.1 446c-14 0-27-11-27-25 1-4 1-9 3-13 3-5 7-8 12-11 4-2 8-2 13-2 4 1 7 2 10 3s5 4 7 6 3 4 4 6 2 4 2 6c1 8-1 16-6 22-5 5-11 9-18 8z"/></g></svg>