<svg xmlns="http://www.w3.org/2000/svg" viewBox="-127 250.7 340.2 340.2"><circle fill="#702381" cx="43.1" cy="420.8" r="160"/><circle fill="#FFF" cx="43.1" cy="420.8" r="107.5"/><g fill="#702381"><path d="M41.7 368.5s-.5.1 0 0zM94.9 418.6v-.1c0 .1-.1-.4 0 .1z"/><path d="M157.8 366.7c-3.9-8.6-8.9-16.7-14.8-24.1-5.9-7.4-12.8-14.1-20.5-19.8-7.7-5.7-16.1-10.5-24.9-14.3-8.9-3.8-18.2-6.4-27.7-8-9.5-1.7-19.2-2.2-28.9-1.5l-1.8.1-.9.1h-.5c-.1 0 .1-.1-.4 0h-.2l-3.4.4-1.7.2-1.9.3-3.8.7-3.6.9-1.8.4-1.8.5-3.5 1.1-3.5 1.3c-.5.2-1.1.4-1.7.6l-1.7.7c-1.1.5-2.3 1-3.4 1.5-2.2 1.1-4.5 2.1-6.6 3.4-4.4 2.3-8.4 5.1-12.4 8.1l-2.9 2.3c-1 .7-1.9 1.6-2.8 2.4-1.9 1.6-3.6 3.4-5.4 5.1-.8.9-1.7 1.8-2.5 2.7-.9.9-1.7 1.8-2.5 2.8l-2.4 2.8-2.2 2.9-1.1 1.5-1 1.5-2.1 3c-1.3 2.1-2.7 4.1-3.8 6.3-2.4 4.3-4.4 8.8-6.3 13.3-.9 2.3-1.8 4.5-2.5 6.9-.8 2.3-1.5 4.7-2.1 7.1-1.1 4.8-2.1 9.6-2.6 14.5-.6 4.8-.8 9.8-.8 14.7.1 2.5.1 4.9.4 7.4.1 2.4.5 4.9.8 7.3l.1.9v.2l.1.4.1.4.3 1.7.3 1.7c.1.6.3 1.3.4 1.9.3 1.3.5 2.6.9 3.8l1.1 3.6c1.6 4.8 3.6 9.4 5.9 13.8 9.2 17.7 24.7 32 42.8 40 9 4 18.8 6.5 28.6 7.3 4.9.5 9.9.4 14.8 0 1.3-.1 2.5-.2 3.7-.4l1.8-.2.9-.1h.2l.4-.1.6-.2 1.7-.3c.6-.1 1.1-.2 1.8-.4 1.3-.3 2.6-.5 3.8-.9 9.6-2.7 18.7-7.4 26.4-13.8 7.7-6.4 14-14.4 18.4-23.3 4.5-8.9 7-18.8 7.4-28.7v-3.7s0-2.5-.1-3.7c-.1-1.2-.1-2.5-.3-3.7l-.2-1.8-.1-.9c-.1-.2 0 .1-.1-.5v-.2l-.1-.4-.7-3.3-.2-.8-.1-.4-.1-.5-.6-1.9c-.4-1.2-.7-2.5-1.2-3.7l-1.5-3.5c-.3-.6-.5-1.1-.8-1.7l-.9-1.7c-.6-1.1-1.2-2.2-1.9-3.3-1.5-2.1-2.8-4.2-4.5-6.1-3.1-4-7-7.2-11-10.2l-3.2-2.1-.8-.5c-.2-.1-.5-.3-.8-.4l-1.7-.9-1.7-.9-.8-.4-.9-.4-3.5-1.4c-4.7-1.6-9.6-2.9-14.6-3.2-2.5-.3-5-.2-7.5-.2h-.9l-.9.1-1.9.2-1.9.2-.9.1c.1 0-.5.1-.5.1H40l-.4.1-3.3.7c-1.2.4-2.5.8-3.8 1.2l-1 .3c-.3.1-.6.3-.9.4l-1.7.8-1.7.8-1.7.9c-9 4.8-16 12.8-20.1 22-2.1 4.6-3.3 9.6-3.7 14.6l-.2 1.9v4.7l.1.9.2 1.9.1.9.1.5v.2c.1.1 0-.1.1.4l.7 3.4c.4 1.2.8 2.5 1.2 3.8.6 1.2 1 2.4 1.6 3.5.6 1.1 1.2 2.2 1.9 3.3.7 1 1.4 2.1 2.2 3.1 3.2 3.9 7.2 7.2 11.7 9.6s9.5 3.8 14.5 4.2c1.3.2 2.5.1 3.8.1 1.3 0 2.6-.2 3.8-.3l.9-.1h.2c.1 0 .5-.1.4-.1l.4-.1 1.7-.4.4-.1.5-.1 1-.3c.6-.2 1.3-.3 1.9-.6 2.9-1.1 5.5-2.7 7.9-4.6-.5.5-1.1.9-1.6 1.3-.8.6-1.7 1.1-2.5 1.7-.9.5-1.8.9-2.7 1.4-.9.4-1.9.7-2.8 1.1l-2.7.8-3.4.6H42.5l-.8.1-1.5.1-.8.1h-3.8l-1.5-.2c-4.1-.4-8.1-1.5-11.8-3.3-7.4-3.6-13.7-9.4-17.3-16.7l-.7-1.3-.6-1.4-.6-1.4c-.1-.2-.2-.5-.3-.7l-.2-.7-.8-2.8-.6-3.4-.1-.4v-.1-.1l-.1-.8-.1-1.6-.1-1.6-.1-.8v-.8c0-2.1 0-4.2.3-6.2.4-4.1 1.6-8.1 3-12l1.2-2.8.3-.7.4-.7.8-1.3.8-1.4c.1-.3.3-.5.4-.7l.4-.6 1.8-2.5c2.6-3.2 5.3-6.3 8.6-8.8 1.5-1.3 3.3-2.3 5-3.5.9-.6 1.8-1 2.7-1.5l1.4-.7c.4-.2.9-.4 1.4-.6l2.8-1.2c1-.3 1.9-.5 2.8-.8l1.4-.4.3-.1.4-.1.8-.2 3.4-.6.4-.1h.1l.8-.1 1.6-.2c1-.1 2.1-.1 3.1-.2s2.1-.1 3.1-.1 2.1.1 3.1.1c8.3.5 16.4 2.8 23.8 6.7 7.3 3.8 13.9 9.2 19 15.7s8.9 14 10.9 22c.3 1 .5 1.9.7 2.9.1.5.2 1 .3 1.6l.3 1.7.1.4v.2l.1.8.2 1.6c.1 1 .1 2.1.2 3.1.2 4.2.2 8.4-.3 12.6-1 8.3-3.2 16.5-6.9 24-7.2 15.1-19.6 27.5-34.5 34.7-3.7 1.8-7.5 3.3-11.5 4.5l-3 .8c-1 .3-1.9.5-2.9.7l-1.5.3-1.7.3-1.7.3-.4.1h-.2l-.8.1c-8.4 1-16.9 1-25.2-.1-8.4-1.1-16.6-3.3-24.4-6.4-3.9-1.6-7.7-3.3-11.4-5.4-1.8-.9-3.6-2.1-5.4-3.2l-2.6-1.8-1.3-.9-1.3-.9-2.5-1.9-2.4-2-2.4-2.1c-.7-.7-1.5-1.4-2.3-2.1-3-2.9-5.9-6-8.5-9.3-2.6-3.3-5-6.7-7.1-10.3-1.1-1.8-2-3.7-3-5.5-.4-1-.9-2-1.3-2.9l-.7-1.4-.6-1.5-1.2-2.9-1-3-.5-1.5-.4-1.5-.8-3-.6-3-.3-1.5-.3-1.7-.5-3.4-.3-3c-.5-4.3-.6-8.6-.6-12.9.1-2.2.1-4.4.3-6.5.3-2.1.4-4.3.7-6.4 2.3-17.1 8.3-33.8 18-48.3 1.2-1.8 2.5-3.5 3.8-5.3l2-2.5c.7-.8 1.4-1.7 2.1-2.5 1.4-1.6 2.8-3.3 4.4-4.8l2.3-2.3c.8-.7 1.6-1.5 2.4-2.2 6.4-5.9 13.7-11 21.5-15.2 7.8-4.2 16.1-7.4 24.8-9.8l3.3-.8c1.1-.3 2.2-.6 3.3-.8 2.2-.4 4.4-.9 6.6-1.3 2.2-.3 4.4-.7 6.7-1l6.8-.7-.2-2.2c-18.3-.6-37.1 2.4-54.4 10-8.6 3.7-16.7 8.7-24.2 14.6-7.4 5.9-14.2 12.7-19.9 20.4-5.7 7.6-10.6 16-14.4 24.8s-6.4 18.1-8.1 27.6c-1.7 9.5-2.2 19.2-1.6 28.9l.1 1.8.1.9v.5c0 .1-.1-.1 0 .4v.2l.4 3.4.2 1.7.3 1.9.7 3.8.9 3.6.4 1.8.5 1.8 1.1 3.5 1.3 3.5c.2.5.4 1.1.6 1.7l.7 1.7c.5 1.1 1 2.3 1.5 3.4 1.1 2.2 2.2 4.5 3.4 6.6 2.3 4.3 5.1 8.4 8 12.4l2.3 2.9c.7 1 1.6 1.9 2.4 2.8 1.6 1.9 3.4 3.6 5.1 5.4.9.8 1.8 1.7 2.7 2.5.9.9 1.8 1.7 2.8 2.5l2.8 2.4 2.9 2.3 1.5 1.1 1.5 1.1 3 2.1c2.1 1.3 4.1 2.6 6.3 3.8 4.3 2.5 8.8 4.5 13.3 6.4 2.3.9 4.5 1.8 6.9 2.5 2.4.8 4.7 1.5 7.1 2.1 4.8 1.2 9.6 2.1 14.5 2.7 4.8.7 9.8.9 14.7.9 2.5 0 4.9-.1 7.4-.3 2.4-.1 4.9-.5 7.3-.8l.9-.1h.2l.4-.1.4-.1 1.7-.3 1.7-.3c.6-.1 1.3-.3 1.9-.4 1.3-.3 2.6-.5 3.8-.9l3.6-1c4.7-1.6 9.4-3.5 13.8-5.8 17.9-9.2 32.2-24.5 40.3-42.6 4.1-9 6.6-18.8 7.5-28.6.4-4.9.4-9.9 0-14.8-.1-1.3-.2-2.5-.4-3.7l-.2-1.8-.1-.9v-.2l-.1-.4-.1-.4-.3-1.7c-.1-.6-.2-1.1-.4-1.8-.3-1.3-.5-2.6-.9-3.8-2.6-9.7-7.4-18.8-13.7-26.5s-14.3-14-23.2-18.5c-8.9-4.5-18.8-7.1-28.7-7.5-1.2-.1-2.5-.1-3.7-.1s-2.5 0-3.7.1-2.5.1-3.7.3l-1.8.2-.9.1c-.2.1.1 0-.5.1h-.2l-.4.1-3.4.7-.8.2-.4.1-.5.1-1.9.6c-1.3.4-2.6.7-3.8 1.2l-3.5 1.5c-.6.3-1.1.5-1.7.8l-1.7.9c-1.1.7-2.2 1.2-3.3 1.9-2.1 1.5-4.2 2.8-6.1 4.5-3.6 2.8-6.6 6.3-9.4 9.9 3.1-4.3 6.7-8.1 10.9-11.4 6.4-5.1 13.9-8.9 21.9-11 1-.3 1.9-.5 2.9-.7.5-.1 1-.2 1.6-.3l1.7-.3.4-.1h.2l.8-.1 1.6-.2c1-.2 2.1-.2 3.1-.3 4.2-.3 8.4-.3 12.6.2 8.3.9 16.5 3.1 24 6.7 15.1 7 27.6 19.4 34.9 34.2 1.8 3.7 3.3 7.6 4.5 11.5l.8 3c.3 1 .5 1.9.7 2.9l.3 1.5.3 1.7.3 1.7.1.4v.2l.1.8c1 8.4 1.1 16.8 0 25.2-1 8.3-3.2 16.5-6.2 24.4-1.6 3.9-3.3 7.7-5.4 11.4-1 1.9-2.1 3.7-3.2 5.5l-1.7 2.6-.9 1.3-.9 1.3-1.9 2.5-2 2.4-2.1 2.4c-.7.7-1.4 1.5-2.1 2.3-3 3-6 5.9-9.3 8.5-3.3 2.6-6.7 5.1-10.3 7.2-1.8 1.2-3.7 2.1-5.5 3.1-.9.4-1.9.9-2.8 1.3l-1.4.7-1.5.6-2.9 1.2-3 1-1.5.5-1.5.4-3 .8-2.9.6-1.5.3-1.7.3-3.4.5-3 .3c-4.3.5-8.6.7-12.9.7-2.2 0-4.4-.1-6.5-.2-2.1-.2-4.3-.3-6.4-.6-17.2-2.1-33.9-8-48.5-17.6-1.9-1.2-3.6-2.5-5.4-3.8l-2.6-2c-.8-.7-1.7-1.4-2.5-2.1-1.7-1.5-3.4-2.8-4.9-4.4l-2.4-2.3c-.7-.8-1.4-1.6-2.2-2.4-6-6.4-11.1-13.6-15.4-21.4-4.3-7.8-7.5-16.2-10-24.8l-.9-3.3c-.3-1.1-.6-2.2-.8-3.3-.4-2.2-.9-4.4-1.3-6.6-.3-2.2-.7-4.4-1-6.7l-.7-6.8-.9-.4c-.6 18.3 2.6 37.2 10.3 54.4 3.8 8.6 8.9 16.7 14.8 24.1 5.9 7.4 12.8 14.2 20.5 19.8 7.7 5.7 16.1 10.4 24.9 14.2 8.9 3.7 18.2 6.3 27.7 7.9 9.5 1.6 19.2 2.1 28.9 1.4l1.8-.1.9-.1h.5c.1 0-.1.1.4 0h.2l3.4-.4 1.7-.2 1.9-.3 3.8-.7 3.6-.9 1.8-.4 1.8-.5 3.5-1.1 3.5-1.3c.5-.3 1.1-.5 1.7-.7l1.7-.7c1.1-.5 2.3-1 3.4-1.5 2.2-1.1 4.5-2.1 6.6-3.4 4.4-2.3 8.4-5.1 12.4-8.1l2.9-2.3c1-.7 1.9-1.6 2.8-2.4 1.9-1.6 3.6-3.4 5.4-5.1.8-.9 1.7-1.8 2.5-2.7.8-.9 1.6-1.8 2.4-2.8l2.4-2.8 2.2-2.9 1.1-1.5 1-1.5c.7-1.1 1.4-2.1 2.1-3.1 1.3-2.1 2.7-4.1 3.8-6.3 2.4-4.3 4.4-8.7 6.3-13.3.9-2.3 1.8-4.5 2.5-6.9.8-2.3 1.5-4.7 2.1-7.1 1.1-4.8 2.1-9.6 2.6-14.5.6-4.8.8-9.8.8-14.7-.1-2.5-.1-4.9-.4-7.4-.2-2.4-.6-4.9-.9-7.3l-.1-.9v-.2l-.1-.4-.1-.4-.3-1.7-.3-1.7c-.1-.6-.3-1.3-.4-1.9-.4-1.3-.6-2.6-1-3.8l-1.1-3.6c-1.6-4.8-3.6-9.4-5.9-13.8-9.3-17.8-24.8-32-42.9-40-9.1-4.1-18.9-6.5-28.7-7.3-4.9-.4-9.9-.3-14.8.1-1.3.1-2.5.2-3.7.4l-1.8.3-.9.1H40l-.4.1-.4.1-1.7.3c-.6.1-1.1.2-1.8.4-1.3.4-2.6.6-3.8 1-9.7 2.7-18.7 7.5-26.4 13.9-7.7 6.4-14 14.4-18.4 23.3-4.4 8.9-6.9 18.8-7.3 28.7v3.7c.1 1.2.1 2.5.2 3.7.1 1.2.1 2.5.3 3.7l.2 1.8.1.9c.1.2 0-.1.1.5v.2l.1.4.7 3.3.2.8.1.4.1.5.6 1.9c.4 1.2.7 2.5 1.2 3.7l1.5 3.5c.3.6.5 1.1.8 1.7l.9 1.7c.6 1.1 1.2 2.2 1.9 3.3 1.5 2.1 2.8 4.2 4.5 6.1 3.2 4 7.1 7.2 11.1 10.2l3.2 2 .8.5c.2.1.5.3.8.4l1.7.9 1.7.9.8.4.9.4 3.5 1.4c4.7 1.6 9.6 2.9 14.6 3.2 2.3.3 4.6.2 6.8.2-1 .1-2.1.1-3 .1-1 0-2.1-.1-3.1-.1-8.3-.4-16.5-2.6-23.9-6.4-7.4-3.8-14-9.1-19.2-15.5-5.3-6.4-9.1-13.9-11.2-21.9-.3-1-.5-1.9-.7-2.9-.1-.5-.2-1-.3-1.6l-.3-1.7-.1-.4v-.2l-.1-.8-.2-1.6c-.2-1-.2-2.1-.3-3.1-.2-4.2-.2-8.4.2-12.6.9-8.3 3-16.5 6.6-24.1 7-15.2 19.3-27.8 34.1-35.1 3.7-1.8 7.6-3.4 11.5-4.6l3-.8c1-.3 1.9-.5 2.9-.7l1.5-.3 1.7-.3 1.7-.3.4-.1h.2l.8-.1c8.4-1.1 16.8-1.2 25.2-.2 8.4 1 16.6 3.1 24.5 6.1 4 1.6 7.8 3.2 11.5 5.3 1.9 1 3.7 2.2 5.5 3.2l2.6 1.7 1.3.9 1.3.9 2.6 1.9 2.5 2c.8.6 1.6 1.3 2.4 2l2.4 2.1c3.1 2.9 6 5.9 8.6 9.2 2.7 3.3 5.2 6.7 7.3 10.3 1.2 1.8 2.1 3.7 3.1 5.5.5.9.9 1.9 1.4 2.8l.7 1.4.6 1.5 1.2 2.9 1 3 .5 1.5.4 1.5.9 3 .7 2.9.3 1.5.3 1.7.6 3.4.3 3c.5 4.3.6 8.6.7 12.9 0 2.2-.1 4.3-.2 6.5-.2 2.1-.3 4.3-.6 6.4-2 17.2-7.9 34-17.4 48.6-1.2 1.9-2.5 3.6-3.7 5.4l-2 2.6c-.7.9-1.4 1.8-2.1 2.6-1.5 1.6-2.8 3.4-4.4 4.9l-2.3 2.4c-.8.8-1.6 1.5-2.4 2.3-6.4 6-13.6 11.2-21.3 15.5s-16.1 7.6-24.7 10.1l-3.3.9c-1.1.3-2.2.6-3.3.8-2.2.5-4.4 1-6.6 1.4-2.2.4-4.4.8-6.7 1.1l-6.8.8-.2.9c18.3.5 37.1-2.8 54.3-10.6 8.5-3.8 16.6-8.9 24-14.9s14.1-12.9 19.7-20.6c5.7-7.7 10.4-16.1 14.1-25 3.7-8.8 6.2-18.2 7.8-27.7 1.6-9.5 2-19.2 1.3-28.9l-.1-1.8-.1-.9v-.5c0-.1.1.1 0-.4v-.2l-.5-3.4-.2-1.7-.4-1.9-.7-3.8-.9-3.6-.5-1.8-.5-1.8-1.1-3.5-1.3-3.5c-.3-.5-.5-1.1-.7-1.7l-.7-1.7c-.5-1.1-1-2.3-1.5-3.4-1.1-2.2-2.1-4.5-3.4-6.6-2.4-4.3-5.2-8.4-8.2-12.3l-2.3-2.9c-.7-1-1.6-1.9-2.4-2.8-1.6-1.8-3.4-3.5-5.1-5.3-.9-.8-1.8-1.7-2.7-2.5-.9-.8-1.8-1.6-2.8-2.4l-2.8-2.4-3-2.2-1.5-1.1-1.5-1c-1.1-.7-2.1-1.4-3.1-2.1-2.1-1.2-4.2-2.6-6.4-3.7-4.3-2.4-8.8-4.4-13.4-6.2-2.3-.8-4.6-1.7-7-2.4-2.3-.8-4.7-1.4-7.1-2-4.8-1.1-9.6-2-14.5-2.5-4.8-.6-9.8-.8-14.7-.7-2.5.1-5 .1-7.4.4-2.4.2-4.9.5-7.3.9l-.9.1h-.2l-.4.1-.4.1-1.7.3-1.7.3c-.6.1-1.3.3-1.9.4-1.3.3-2.6.6-3.8 1l-3.6 1.1c-4.8 1.6-9.4 3.6-13.8 6-17.7 9.4-31.8 24.9-39.7 43.1-4 9.1-6.3 18.8-7.1 28.7-.5 4.9-.3 9.9.1 14.8.1 1.3.2 2.5.4 3.7l.3 1.8.1.9v.2l.1.4.1.4.3 1.7c.1.6.2 1.1.4 1.8.3 1.3.6 2.6 1 3.8 2.7 9.6 7.6 18.7 14 26.3 6.4 7.7 14.5 13.9 23.4 18.3 8.9 4.4 18.8 6.9 28.7 7.2h3.7c1.2-.1 2.5-.1 3.7-.2 1.2-.2 2.5-.2 3.7-.4l1.8-.3.9-.1c.2 0-.1 0 .5-.1h.2l.4-.1 3.3-.7.8-.2.4-.1.5-.1 1.9-.6c1.2-.5 2.5-.8 3.7-1.3l3.5-1.5c.6-.3 1.2-.5 1.7-.8l1.6-.9c1.1-.6 2.2-1.2 3.3-1.9 2-1.5 4.2-2.8 6-4.5 3.9-3.2 7.2-7 10.1-11.1l2-3.2.5-.8c.1-.2.3-.5.4-.8l.9-1.7.9-1.7.4-.8.4-.9 1.4-3.5c1.6-4.7 2.8-9.6 3.1-14.6.3-2.5.1-5 .1-7.5v-.9l-.1-.9-.2-1.9-.2-1.9-.1-.9c0 .1-.1-.5-.1-.5v-.2l-.1-.4-.7-3.3c-.3-1.2-.8-2.5-1.2-3.8l-.3-.9c-.1-.3-.3-.6-.4-.9l-.8-1.7-.8-1.7-.9-1.7c-4.9-8.9-12.9-15.9-22.1-19.9-4.6-2.1-9.6-3.2-14.6-3.6l-1.9-.2h-4.7l-.9.1-1.9.2-.9.1-.5.1h-.2c-.1.1.1 0-.4.1l-3.4.7c-1.2.4-2.5.9-3.8 1.3-1.2.5-2.4 1-3.5 1.6-1.1.6-2.2 1.2-3.3 1.9-1 .8-2.1 1.5-3.1 2.3-3.9 3.2-7.2 7.2-9.5 11.7-2.3 4.5-3.8 9.5-4.1 14.5-.2 1.3-.1 2.5-.1 3.8s.2 2.6.3 3.8l.1.9v.2c0 .1.1.5.1.4l.1.4.4 1.7.1.4.1.5.3 1c.3.6.4 1.3.7 1.9 3 7.7 9.4 13.8 16.9 16.8-1.7-.6-3.3-1.3-4.8-2.2-3.5-2-6.6-4.7-9.1-7.9-.6-.8-1.1-1.7-1.7-2.5-.5-.9-.9-1.8-1.4-2.7-.5-.9-.8-1.9-1.2-2.8l-.8-2.7-.7-3.4V420.1l-.1-.8-.1-1.5-.1-.8v-3.8l.2-1.5c.4-4.1 1.4-8.1 3.2-11.8 3.5-7.4 9.3-13.7 16.6-17.4l1.3-.7 1.4-.6 1.4-.6c.2-.1.5-.2.7-.3l.7-.2 2.7-.8 3.4-.6.4-.1h.2l.8-.1 1.6-.1 1.6-.1.8-.1h.8c2.1.1 4.2 0 6.2.3 4.1.3 8.1 1.5 12 2.9l2.8 1.2.7.3.7.4 1.4.7 1.4.7c.2.2.5.3.7.4l.6.4 2.6 1.7c3.3 2.5 6.4 5.2 8.9 8.5 1.4 1.5 2.4 3.3 3.6 5 .6.9 1 1.8 1.5 2.7l.7 1.3c.2.4.4.9.6 1.4l1.2 2.8c.4 1 .6 1.9.9 2.8l.4 1.4.1.3.1.4.2.8.7 3.4.1.4v.1l.1.8.2 1.6c.1 1 .1 2.1.2 3.1s.1 2.1.1 3.1-.1 2.1-.1 3.1c-.5 8.3-2.8 16.5-6.6 23.9-3.8 7.4-9.1 14-15.6 19.1-6.5 5.2-14 8.9-22 11-1 .3-1.9.5-2.9.7-.5.1-1 .2-1.6.3l-1.7.3-.4.1h-.2l-.8.1-1.6.2c-1 .2-2.1.2-3.1.3-4.2.3-8.4.3-12.6-.2-8.3-.9-16.5-3.1-24-6.7-15.1-7.1-27.7-19.5-34.9-34.3-1.8-3.7-3.3-7.6-4.5-11.5l-.8-3c-.3-1-.5-1.9-.7-2.9l-.3-1.5-.3-1.7-.3-1.7-.1-.4v-.2l-.1-.8c-1-8.4-1.1-16.8 0-25.2 1.1-8.3 3.3-16.5 6.3-24.4 1.6-3.9 3.3-7.7 5.4-11.4 1-1.8 2.1-3.6 3.2-5.4l1.7-2.6.9-1.3.9-1.3 1.9-2.5 2-2.4 2.1-2.4c.7-.7 1.4-1.5 2.1-2.3 3-3 6-5.9 9.3-8.5 3.3-2.6 6.7-5.1 10.3-7.2 1.8-1.1 3.7-2 5.5-3 .9-.4 1.9-.9 2.8-1.3l1.4-.7 1.5-.6 2.9-1.2 3-1 1.5-.5 1.5-.4 3-.8 2.9-.6 1.5-.3 1.7-.3 3.4-.5 3-.3c4.3-.5 8.6-.7 12.9-.7 2.2 0 4.4.1 6.5.2 2.1.2 4.3.3 6.4.6 17.1 2.1 33.8 8.1 48.4 17.7 1.8 1.2 3.5 2.5 5.3 3.8l2.6 2c.8.7 1.7 1.4 2.5 2.1 1.7 1.5 3.4 2.8 4.9 4.4l2.4 2.3c.7.8 1.5 1.6 2.2 2.4 6 6.5 11.1 13.7 15.4 21.5s7.6 16.2 10 24.8l.9 3.3c.3 1.1.6 2.2.8 3.3.4 2.2.9 4.4 1.3 6.6.3 2.2.7 4.4 1 6.7l.7 6.8 1.8.4c.6-18.3-2.5-37.2-10.2-54.4zM44.4 503s-.1 0 0 0zm-9.7-91.5l.1-.1.3-.3c.3-.3.7-.7 1.1-1l.6-.5.6-.4c.2-.1.4-.2.5-.3-.3.2-.5.3-.7.5-.5.4-1 .9-1.5 1.3-.3.2-.5.5-.7.7l-.3.4-.1.1-.1.1-.1.2c-.1.2-.3.4-.5.7l-.6.9c-.2.5-.5 1-.6 1.5.2-.6.4-1.2.7-1.8.2-.5.4-.8.7-1.2l.6-.8v-.1c.1 0-.1.2 0 .1zm7.2 7.6l1 .8c.3-.3.9-.4 1.4-.3l-.5.5c.5.5.5 1.4 0 1.9l-.1.1-.5-.4c-.5.5-1.3.5-1.8 0l.6-.7c-.6-.5-.6-1.4-.1-1.9zM54.8 431c-.1.1-.1.2-.2.3.1-.1.1-.2.2-.3zm.9-1.5c0-.1.1-.1.1-.2-.1.3-.3.5-.4.8l.3-.6zM33.4 463c-4.1-.3-8.1-1.5-12-2.9l-2.8-1.2-.7-.3-.7-.4-1.4-.7-1.4-.7c-.2-.2-.5-.3-.7-.4l-.6-.4-2.6-1.7c-3.3-2.5-6.4-5.2-8.9-8.5-1.4-1.5-2.4-3.3-3.6-5-.6-.9-1-1.8-1.5-2.7l-.7-1.3c-.2-.4-.4-.9-.6-1.4l-1.2-2.8c-.4-1-.6-1.9-.9-2.8l-.4-1.4-.1-.3-.1-.4-.2-.8-.7-3.4-.1-.4v-.1l-.1-.8-.2-1.6c-.1-.6-.1-1.2-.1-1.8l.1 1.1.2 1.9.1.9c0-.1.1.5.1.5v.2l.1.4.7 3.4c.4 1.2.8 2.5 1.2 3.8l.3 1c.1.3.3.6.4.9l.8 1.8.8 1.7.9 1.7c4.8 9 12.7 16.1 21.9 20.2 4.5 2.1 9.5 3.4 14.5 3.8l1.9.2h4.7l.9-.1 1.9-.2.9-.1.5-.1h.2c.1-.1-.1 0 .4-.1l3.4-.7c1.2-.4 2.5-.8 3.8-1.2 1.2-.5 2.4-.9 3.5-1.5s2.2-1.2 3.3-1.9c1-.7 2.1-1.4 3.1-2.2 4-3.2 7.3-7.1 9.7-11.6 2.4-4.4 3.9-9.4 4.3-14.4.2-1.3.1-2.5.1-3.8s-.2-2.5-.3-3.8l-.1-.9v-.2c0-.1-.1-.5-.1-.4l-.1-.4-.4-1.7-.1-.4-.1-.5-.3-1c-.2-.6-.4-1.3-.6-1.9-2.5-6.6-7.5-12.1-13.6-15.5.7.3 1.3.6 2 1 3.5 2 6.6 4.7 9.1 7.9.6.8 1.1 1.7 1.7 2.5.5.9.9 1.8 1.4 2.7.5.9.8 1.9 1.2 2.8l.8 2.7.7 3.4V421.3l.1.8.1 1.5.1.8v3.8l-.2 1.5c-.4 4.1-1.4 8.1-3.2 11.8-3.4 7.4-9.3 13.7-16.5 17.4l-1.3.7-1.4.6-1.4.6c-.2.1-.5.2-.7.3l-.7.2-2.7.8-3.4.7-.4.1h-.1-.1l-.8.1-1.6.1-1.6.1-.8.1h-.8c-2.1-.1-4.2 0-6.2-.3zM17 419.8c-.1-1.1-.3-2.1-.2-3.1 0-1.1-.1-2.1.1-3.1.4-4.1 1.6-8 3.6-11.6 1.9-3.6 4.6-6.7 7.8-9.2.8-.6 1.7-1.1 2.5-1.7.8-.6 1.7-1 2.6-1.5.9-.4 1.9-.8 2.8-1.2l2.7-.8 3.3-.7H42.8l.8-.1 1.5-.1.8-.1h3.8l1.5.2c4.1.4 8.1 1.4 11.8 3.2 7.4 3.4 13.8 9.2 17.5 16.4l.7 1.3.6 1.4.6 1.4c.1.2.2.5.3.7l.1.2c-.5-1.1-.9-2.2-1.5-3.2-.6-1.1-1.2-2.2-1.9-3.3-.7-1-1.4-2.1-2.2-3.1-3.2-4-7.2-7.2-11.7-9.6S56 388.4 51 388c-1.3-.2-2.5-.1-3.8-.1s-2.6.2-3.8.3l-.9.1h-.2c-.1 0-.5.1-.4.1l-.4.1-1.7.4-.4.1-.5.1-1 .3c-.6.3-1.3.4-1.9.7-9.6 3.7-16.9 12.6-18.5 22.7l-.2.9-.1.9-.2 1.9v1.9c0 .6 0 1.3.1 1.9l.1.9-.1-.4v-.2l-.1-.8zm-56.6 2.4s-.1-.1 0 0zM-8.5 422.9s.1.5 0 0z"/></g><circle fill="#702381" cx="43.1" cy="420.8" r="46.6"/></svg>