<svg xmlns="http://www.w3.org/2000/svg" viewBox="0 0 340.2 340.2"><circle fill="#007BC4" cx="171" cy="170.1" r="160"/><path fill="#FFF" d="M61.1 53.8v.2l-1 .8c-4.8 4.6-9.3 9.5-13.5 14.7L61 57.8v.1s3.9-3.9 6.8-3.4c1.9.3 3.9 2.9 5.1 4.7L83.3 77c.1.2.1.4.1.4s1.8 2.9 3.3 6.2l-.2-.2s2.3 4.1-1.2 6.2c-3.7 2.2-36.5 13.3-41.5 15.2-4.4 1.6-6.3-.4-6.7-.9l-7-9.9c-.5 1-1.1 2-1.6 3l5.5 7.7-.3-.2s3.1 3.8 2.2 5.5c-1.4 2.5-6.2 6.3-9.4 9.2-1.4 1.3-3 2.2-3.9 2.7-1.3.3-2.4.9-3.2 2.4-.5.9-1.4 1.5-2.3 1.9-.4 1.2-.7 2.5-1 3.7 1.3-.3 4.3-.8 5.2.1 1.1 1.1 2 6.8 2.4 10.7l5.6 46h-.1s1.4 6.7-.6 7.6c-.8.4-2.7-1.8-4.1-3.4L11 172.7c0 1.8.1 3.5.2 5.3l9.9 13.4-.1.1s3.8 5.4 4.8 7.8c.6 1.3.6 2.3.5 2.9-.1.2-.2.5-.2.7v.1c-.1.5-.2 1.1-.2 1.6-.1 1.2-.2 2.9 0 4.8.2 1.7-.9 3.9-2.2 5.9L21 219c-.2.3-.4.5-.4.5v.1l-1.2 1.6c.4 1.2.8 2.3 1.2 3.4l.6-.9s6.2-8.2 7.9-9.9c1.7-1.8 2.6-2.3 5.9-1.7 1.7.3 3.5 2.5 5 4.6l2.3 3.8c.2.3.3.5.3.5l36.8 60.7s3.2 6.7 1.9 8c-1.3 1.3-8.2-.8-8.2-.8l-18.6-9.2c2.1 2.3 4.3 4.5 6.6 6.6l11.5 5.7v.1s8.7 4.8 9.4 7.5c.3 1 .1 2.2-.2 3.3 1.4.9 2.7 1.8 4.1 2.7.3-.1.6-.3.9-.3.9-.2 1.8-.1 2.7.4 1 .6 2 2.2 2.8 3.8 1.6.9 3.2 1.8 4.9 2.6-.1-.2-.2-.4-.2-.6l-.7-1.9c-.4-1.1-.6-2.2-.2-2.6.5-.6 2.7.6 4.4 1.7l17.2 12.2c3.1 1.1 6.2 2.1 9.4 3l-23.5-16.7c-1.2-1.1-5.2-5-5.9-6.3-.8-1.6-1-3-.6-5.3.3-1.5 3.9-4.7 6.6-6.9l44.5-31.8c1.9-1.2 7-4.4 7.8-3.9 1 .7-.3 9.1-.3 9.1l-11.9 65.7c1 .2 2 .3 3 .5l11.9-65.6h.1s1.2-7.1 2.5-7.3 5 5.3 5 5.3l.1-.1 27.5 36.9c1.6 2.4 5 8.5 3.6 13-1.3 3.9-16.8 10.9-16.8 10.9l-21.1 8.3c2.4.2 4.8.3 7.3.4l17.8-7c4.4-1.5 11.6-4 12.6-4.2 1.5-.3 2.5 1.2 3.2 2.4.4.7.1 2.2-.3 3.5l-1.1 2.9c1.2-.2 2.3-.4 3.4-.7 0-.1 1.3-3.8 3.9-4.1 2-.3 3 .9 3.4 1.5l.4.9c1-.2 2-.5 3-.8l-.3-.5s-1.5-3.1-.6-3.8c.4-.3.9-.1 1.5.2l1.6 1.1 2.3 1.6c1.2-.4 2.4-.7 3.6-1.1l-1.9-1.3c-1.6-1.4-4.6-4.1-3.9-5.2.5-.8 3.8-1.2 6.7-1.4 6.9.1 13 .1 18.4.2 2-.9 3.9-1.9 5.8-3-6.8 0-14.3-.1-21.5-.2-2.6-.1-7.6-.3-9.5-.9-2.6-.8-3.3-3.9-3.5-6.6-.2-2.9 1.5-9.4 2.1-11.9l21.7-68.7.1.2s2.2-8.6 4.9-8.6c1 0 1.8 1.3 2.3 2.8l1.2 4.8c.2.9.2 1.5.2 1.5l.1-.1 19.3 76.7c.9-.6 1.8-1.3 2.6-1.9l-19.1-75.8s-2.2-8.3 0-10.4 10 3.1 10 3.1l-.1-.2 52.7 33.9c.5-.9 1-1.7 1.5-2.6l-57.2-36.7c-1.1-.9-2.6-2.6-2.8-4.7-.3-2.7 2.2-4 3.2-4.4l42.4-6.8c2.9-.2 7-.3 9.1.8 1.8 1 3.2 4.7 4 7.9l6.9 32.6c.8-1.7 1.5-3.4 2.2-5.2l-4.8-23.9c-.1-1.1-.7-6.8-.6-9.1.1-2.5 1.8-4.3 3.3-6.6 1.5-2.3 5.7-4 5.7-4v-.1l7.5-3.1c.1-1.1.2-2.2.2-3.3l-8.3 3.4c-1.4.5-5.2 1.7-6.2 1.7-1.3.1-3.6-1.6-4.7-2.6-.9-.8-2.1-5.7-2.6-7.7l-2.7-15.5c0-.4-1.1-10.8.2-11.4 1-.5 5 2.1 7.3 3.7l17.1 12.1c-.1-1.3-.1-2.6-.2-3.8l-16.2-11.5c-1.5-1.3-3.5-3.1-4.1-3.9-.4-.5-.5-1.4-.5-2.1.1-.5.2-1.1.2-1.6v-.5c-.1-1-.4-2-.8-2.8-.5-.8-1.1-1.6-1.8-2.2-.6-.8-1.3-1.8-1.8-2.7-1.3-2.3.4-11.9.4-11.9l-.1-.1 4.4-28.9c-.8-1.4-1.6-2.8-2.4-4.1l-4.7 31.3c-.4 1.8-2.6 13.5-4.5 14.4-1.7.8-6.2-2.8-7.7-4-4-3.9-8.4-8.1-12.5-12l.1-.1s-8.8-7.3-9.7-11.1-1.2-6.8 0-9.6 6.6-9 6.6-9l-.2-.1c4.8-6 10.7-13.3 17.1-21.1-.7-.8-1.3-1.5-2-2.3l-2.4 3c-6.5 7.9-11.4 14-15.2 18.8 0 0-6.6 7.8-10.2 8.4-3.5.7-7-2.8-9-5.2l-5.2-8.3.1-.1s-6.3-9.6-6.4-13.3c0-1.2.2-2.5.5-3.9.5-.9.8-1.9 1-3 .8-1.8 1.8-3.3 3-4C249 54.5 258 52 258 52l15.2-4.4c-.9-.8-1.9-1.5-2.8-2.3l-12 3.5v-.1s-13.7 3.8-16.8 1.2c-2.3-1.9-.8-10.2-.3-12.2l3.3-9c-.9-.5-1.8-.9-2.7-1.4l-3.2 8.8c-.4 1.1-3.8 9.4-8.9 9.5-5.4.2-13.6-8.4-13.6-8.4v.2l-1.6-1.9s-5.5-6.4-5.5-9.2c0-2.2 2.6-4.8 3.7-5.8l4.3-3c-1.2-.4-2.5-.7-3.7-1.1l-1.6 1.1v-.1l-.3.3-2.9 2c-1 .5-2.1.9-3.3.8-3.3-.2-7.2-4-7.2-4l-3.6-4.1-4.5-.6 5.6 6.4h-.1l.9.9.8.9c1 1.2 2.1 2.9 2 4.1-.2 2.2-7.5 7.2-7.5 7.2l-27.2 18.8c-3.4 2.1-8.3 4.5-10.5 3.3-3.8-2-.2-14.8-.2-14.8l8.7-27.9c-1.1.1-2.1.1-3.2.2L151 37.5h-.1s-2.8 11.4-7.7 13.2c-4.8 1.8-8.6-1-10.8-3.5l-12.2-18.1c-.5-.9-2.2-3.8-3.3-7-.4-1 0-1.8.7-2.5-5 1.8-9.9 3.8-14.6 6 7.2-3.1 10.5-.7 11.6.5l14 20.9.2.2 2.6 3.9c.5 1.1.9 2.5 1 3.9 0 .7-.1 2.4-2 2.9-2.3.7-50.2-11.3-52.2-11.8s-2.4-2.9.1-6.1c-5.1 3.6-10 7.5-14.6 11.7-.8 1-2.5 2-2.6 2.1zm249.9 133c1.7 0 3 1.3 3 3s-1.3 3-3 3-3-1.3-3-3 1.4-3 3-3zM92.7 97.1c2 .3 1.6-.2 2.7 1.1s6.2 13.7 6.2 13.7l10.4 25.6c.7 1.9 1.6 4.8.9 5.4-1 .9-19.2-3.4-19.2-3.4l-28.8-8.3c-2.6-.9-6.1-2.3-6.4-3.5-.6-1.9 5.6-8.2 5.6-8.2l22.4-18.8c1.5-1.5 4.5-3.9 6.2-3.6zm-2.2-5.8c0-1.3 1.1-2.4 2.4-2.4s2.4 1.1 2.4 2.4-1.1 2.4-2.4 2.4-2.4-1.1-2.4-2.4zm114.7 34.6c.2-.3.3-.5.5-.7 1.8-1 3.9-.8 5 1 2 3.3 16.8 32.5 17.4 35.5.4 2.4 1.1 5.3-1.3 6.8l-31.6 12.3c-.4.2-4 1.5-5.8 1.6-1.9.1-1.9-.6-2.4-1.6s.6-6.1.6-6.1l13.4-38.4c.9-2.8 3.4-8.8 4.2-10.4zm-2.7-9.1c0-2.2 1.8-4 4-4s4 1.8 4 4-1.8 4-4 4-4-1.8-4-4zm-21.8 82.1c.7-.5 2.3-1.4 4-2.3.4-.2.8-.4 1.2-.7 1.3-.7 2.4-1.4 3.1-1.8 1.2-.7 3.1-.5 4.3-.2l.5.1c.3.1.5.1.5.1l31.8 6.9c2 .7 3.3 1.9 3.4 3 .1 1.2-.3 2.4-2.7 3.8l-54.7 30.4c-2.6 1.3-7 3.3-7.6 2.6-.6-.6.2-3.7.8-5.6l9.9-26.2v.1c.1 0 4.1-9.3 5.5-10.2zm-3.7-10.3c0-2.3 1.9-4.2 4.2-4.2s4.2 1.9 4.2 4.2-1.9 4.2-4.2 4.2-4.2-1.9-4.2-4.2zm20.9-53l-13.3 38.3s0 .1-.1.2l-.7 2.1c-.6 1.5-1.4 3.1-2 3.1-.6 0-1.3-1.3-1.8-2.6l-11.3-34.1c-.3-1.4-.5-4.5 2.3-6.5 2.1-1.4 23.7-13.7 26.2-14.6 2.4-.9 3.5 1.7 3.5 1.7 1.1 3.1-2.8 12.3-2.8 12.3v.1zm-21.6 39.9c1.4 5.8-.4 6.2-.4 6.2-1.6.9-5.6-1.1-5.6-1.2l-39.6-24.9c-1.2-.9-2.3-2-2.7-3v-.1c-.1-.3-.5-1.5.9-3 2-2.3 26-7.5 31.5-8.3 5.6-.8 5.9 4.2 5.9 4.2v-.5l10 30.6zm-40.6-13.1c.2.1.3.1.4.2l34.8 21.9v.2s1.7 1.7.9 2.8c-.4.6-1.8 1.1-3.1 1.4l-2.2.5h-.1l-31.2 6.7c-.5 0-1.1.1-1.8.3-2.1.5-4 .4-5.8.2h-.1c-.4-.5-.9-.9-1.5-1.2-.9-.8-1.8-2-2.1-3.5-.6-3.8-3.6-27-3.2-30.3.5-4.4 4.8-3.4 4.9-3.3 4.4.7 8.6 3.3 10.1 4.1zm-10.2 38.2c0 1.5-1.2 2.8-2.8 2.8s-2.8-1.2-2.8-2.8 1.2-2.8 2.8-2.8 2.8 1.3 2.8 2.8zm-4-8.9c.6 3.5-2.6 6-2.6 6-1.3.8-2.9 1.4-4 1.7l-14.5 2v-.1s-10.6 2.2-11.7 0c-.6-1.2.9-4.3 2.4-6.9l18.3-27.5c1.6-2.3 2.8-4 4.1-5.3 2.6-2.6 3.5-1.4 4.3-.1 1 1.4 3.1 26.7 3.7 30.2zM75.6 186l-15.7-38.5c-.3-1-3.4-10.3-2.5-12.5.7-1.7 5.1-1.2 7.3-.8l26.9 7.8s18.1 5.9 19.2 10.7c.9 3.9-1.1 8.3-2.5 10.8l-16.5 24.8-.1-.1s-5 7.4-9.1 7.1c-2.2-.2-5.2-5.7-7-9.3zm6.9 18.1c0 1.5-1.2 2.7-2.7 2.7s-2.7-1.2-2.7-2.7c0-1.5 1.2-2.7 2.7-2.7s2.7 1.2 2.7 2.7zm33.8-50.8c-1.8 0-3.2-1.5-3.2-3.2s1.5-3.2 3.2-3.2 3.2 1.5 3.2 3.2-1.4 3.2-3.2 3.2zm-71.1-45.5c1.7-1 35.5-13 38.3-13.8 4.2-1.2 3.3 1.2 2.6 2.6-.3.3-.5.6-.8.9l-21 17.6v-.1s-8.9 7.7-11.2 7.6c-1.7-.1-7-6.2-9.4-9.2-1.7-2.6-.1-4.6 1.5-5.6zm9.3 22.8c0 1.8-1.5 3.2-3.2 3.2s-3.2-1.5-3.2-3.2 1.5-3.3 3.2-3.3 3.2 1.5 3.2 3.3zM39 108.3c.8 0 1.4.6 1.4 1.4 0 .8-.6 1.4-1.4 1.4s-1.4-.6-1.4-1.4c-.1-.7.6-1.4 1.4-1.4zm-10.4 13.4c1-1.2 5.2-5.5 8.5-7.1 1.9-.9 3.4 0 4.3.9 1.4 2.2 3.7 5.8 4.2 7.3.4 1.2.3 2.5.1 3.4 0 0-.8 2.3-3.3 2.1s-11.3-1-12.3-1.2c-1.3-.3-1.9-1.1-2.1-1.8 0 0-.4-2.4.6-3.6zm-5.8 6.6c-1 0-1.8-.8-1.8-1.8s.8-1.8 1.8-1.8 1.8.8 1.8 1.8-.8 1.8-1.8 1.8zm9.7 79c-1.9 0-3.5-1.6-3.5-3.5s1.6-3.5 3.5-3.5 3.5 1.6 3.5 3.5-1.5 3.5-3.5 3.5zm3.4-20.8s-1.2 3.6-2.2 3.5c-.9-.1-1.5-4.3-1.5-4.3h-.1l-5.6-46.6c-.2-1.7-.3-4.3-.2-6.6.3-1.8 1.1-3.1 4.8-2.7 4.3.5 10.2.2 11.9 1.3.9.6 1.7 1.9 2.2 2.9 0 .1.1.1.1.2.3.6.5 1.1.5 1.3.2.7.4 1.5.4 2.5.2 3.2-1.4 12.7-1.4 12.7l-8.9 35.8zm2.6 11.5c-1.1-2.3-.7-5.8-.4-7.8l10.7-43.7c.9-2.7 2-5.5 2.9-5.6 1.9-.2 5.4 8.2 5.4 8.2l.1-.1 14.2 34.7s4.5 11.8 2.6 16.4c-1 2.5-5.8 3.3-10 3.4h-4.6c-1.1-.1-1.8-.1-1.8-.1v.1l-11.4-.1c-.9-.1-6.2-2.2-7.7-5.4zm46.1 83.3c-1.1.4-3.3-2.3-3.3-2.3v.1l-36.9-60.8.1-.1s-4.2-6.9-3-9.4c.9-2 6-2 6-2v-.1l9.8.1s14.5.4 16.2.9c.5.2 1 .5 1.4.9.4.8 1 1.5 1.6 2.1.3.3.7.6 1.1.8.6.5 1.5 1.2 2.3 2.1.8.8 1.2 2.8 1.5 4.8l3.5 54.6s0 .4.1 1.1l.2 3.7c0 1.7-.1 3.3-.6 3.5zm4.3 15.3c-1.9 0-3.4-1.5-3.4-3.4s1.5-3.4 3.4-3.4 3.4 1.5 3.4 3.4c0 1.8-1.5 3.4-3.4 3.4zm5.6-21.3s-2.3 6.4-4.1 6.2c-1.6-.2-2.6-9.4-2.6-9.4l-3.2-48.8h.1s0-11.2 2.7-14.2c2.9-3.2 14.1-4.8 14.1-4.8v-.1l11.8-1.7h.3c3.6-.3 4.5.9 4.8 2.3.7 2.8-1.3 6.9-1.3 6.9l.1.1-22.7 63.5zm59.1-27.3c-.4.9-1.8 2.3-3.3 3.6l-45.4 32.5c-2 1.1-7.9 4-8.9 2.9-1.3-1.3-.6-4.9.2-7.7l24.4-68.2c1-2.3 2.6-5.1 4-5.6 1.2-.4 3.1 1.7 4.4 3.2l19.2 25.8c.2.5.6 1.1 1.3 1.9 4.5 5.8 5 9.5 4.1 11.6zm5.9 2.2c-1.6 0-3-1.3-3-3 0-1.6 1.3-3 3-3 1.6 0 3 1.3 3 3-.1 1.7-1.4 3-3 3zm3.5-17.4s-2.4 6.7-4.5 6.9c-1.8.2-5.6-3.9-6.4-4.8l-19.6-26.4s-3.3-4.5-2.6-6.8c.4-1.2 2.9-2.1 4.5-2.5l32.3-6.9s4.2-.6 5.1-.5c.9.1 1.4.8 1.4.8.3.5.6 1.1 1 1.5.2.3.5.6.8.9.4.5.9 1.3 1 2 .1.4 0 .9-.2 1.6L163 232.8zm42 84.5c-2.2 0-4-1.8-4-4s1.8-4 4-4 4 1.8 4 4-1.7 4-4 4zm29.1-98.8l-23.1 73c-.7 1.8-3.4 8.8-7.3 9.4-2.5.4-5.8-3.1-7.6-5.2l-27.7-37.2c-.5-.8-3.7-5.7-4-6.7-.4-1.1-.4-3 .4-4.8.7-1.7 8.9-6 8.9-6v-.2l55.4-30.8s.8-.8 2.6 0c1.7.8 2.7 1.8 3 3 .3 1.3-.7 5.5-.6 5.5zm.7-22.6c-.2.2-.5.4-.7.5l-.6.6c-.3.2-.8.4-1.5.6-1.7.5-9.2-.6-10.4-.7l-24.9-5.4s-6.1-1.7-6.1-3.7 6.1-4.4 6.1-4.4v-.1L226 172c1.6-.3 3.6-.5 4.6.1 2.2 1.3 4.6 12.3 5.5 16.6.7 3.7-.2 6.1-1.3 7.2zm8.9-30.7l42.9-16.6c1.1-.3 3.8-1 4.2-.1.2.3-.2 1-.7 1.6l-2.6 2.7c-.3.2-.4.4-.4.4l-39.8 40.5c-.4.2-.9.3-1.5.3h-2c-1.1-.3-3.1-1.1-4.5-3.4-1-1.7-4.9-16-4.4-19.1.6-3.8 9.1-6.4 9.1-6.4l-.3.1zm-1.7 45.6c-3 0-5.5-2.5-5.5-5.5s2.5-5.5 5.5-5.5 5.5 2.5 5.5 5.5-2.4 5.5-5.5 5.5zm59.8-74.5c2.1 0 3.8 1.7 3.8 3.8s-1.7 3.8-3.8 3.8-3.8-1.7-3.8-3.8 1.7-3.8 3.8-3.8zm-2.1 11.4c1.8.8 3.6 12.8 3.6 12.8l.1-.1 2.5 14.5s.6 3.6.7 6.1c.1 2.4-.9 5.4-3.2 7.4-1.7 1.4-7.6 2.3-7.6 2.3l-.1.1-41.2 6.6c-1.5.2-4.5.4-5.1-.1-.8-.8 2-3.4 2-3.4l-.1-.1 39.6-40.3c2.2-2 7.5-6.4 8.8-5.8zM261 99.3c1.9 0 3.5 1.6 3.5 3.5s-1.6 3.5-3.5 3.5-3.5-1.6-3.5-3.5 1.6-3.5 3.5-3.5zm-4.3 9.4c1 .7 2.2 1.2 3.4 1.3h.7c.8 0 1.5-.1 2.2-.3 1 0 2.1.2 3 .8 2.3 1.5 10.5 8.8 10.5 8.8l.1-.1c3.4 3.3 7.2 6.9 11.1 10.6.7 1 4.6 6.3 4.6 9.5 0 3.5-8.3 6.9-8.3 6.9l.1.1-44.8 17.4c-1.6.4-4.1.7-5.5-.6-3.1-2.8-18.5-35.5-19.8-38.8-.7-1.9-1.8-7.1 5.8-9.6l4.9-1.2h.5v-.1l15.8-3.8h.1l6.5-1.5c2.5-.5 5.1-.8 6.3-.4.8.3 1.9.6 2.8 1zm-14.3-32.2l7.8 12.5v.1s4.2 6.2 4.2 8.5c0 .9 0 1.8-.1 2.5-.2.4-.3.9-.4 1.3-.3.6-.8 1.1-1.5 1.4-2.1.8-14.1 4.3-14.1 4.3l-14.2 3.4c-2.7.4-9.9 1.4-11-.2-.9-1.4.1-5.3 1.2-8.3l8.2-18.7c1-2.1 5.5-11.5 7.4-12.7 2.1-1.4 4.5-2 6.9-1 1.1.7 3.5 3.8 5.6 6.9zm-11.9-23.7c2.8 0 5 2.2 5 5s-2.2 5-5 5-5-2.2-5-5 2.3-5 5-5zm-26.3-31c.9 0 1.7.7 1.7 1.7 0 .9-.7 1.7-1.7 1.7-.9 0-1.7-.7-1.7-1.7 0-.9.8-1.7 1.7-1.7zM169 50.3l26.1-18c2.4-1.5 5.8-3.3 7.8-3.1 3.3.3 9.3 7.4 9.3 7.4l6.6 7.6c1.1 1.4 2.7 3.6 2.7 5.3 0 2.6-.8 4.4-.8 4.4-.1.2-.1.4-.2.6-.3.5-1 1.3-2.8 2-3.2 1.2-20.5 3.6-20.5 3.6v.1l-21.5 2.6v-.1s-15.2 2-16.2-1.2c-1.1-3.4 9.5-11.2 9.5-11.2zm-9.6 22.3c1-4 10.1-6 14.4-6.7l28.1-3.4c5.3-.5 14.3-1.3 16.4-.6 1.7.5 2.8 1.3 3.6 1.9.6.9 1.2 1.7 2 2.4.3.6.4 1.5.3 2.5-.3 2-3.1 9.7-4.5 13.7L212 99.9c-1.2 2-4.6 7.1-8.3 8-3.1.7-7.3-1-9.5-2.2l-28.7-22.9c-3.2-2.8-6.9-7-6.1-10.2zm6.2 14.2l30.2 24.1c2.4 2.4 2.7 3.8 2.6 4.4v1.4c-.2.8-.6 1.7-1.6 2.6-1.7 1.6-22.6 12.4-26.7 14-3 1.2-4.6-.6-5.3-2.2l-.3-1c-.1-.2-.1-.4-.1-.6v.2l-11.1-33.6c-1.4-4.7-3.9-14-1.5-15.4 2.3-1.3 9.9 3.4 13.8 6.1zm-20.3-28.5c4 0 7.2 3.2 7.2 7.2s-3.2 7.2-7.2 7.2-7.2-3.2-7.2-7.2c-.1-3.9 3.2-7.2 7.2-7.2zm-3.3 23c3.1.2 9.2 19.1 9.2 19.1l.1-.1 11.1 33.6c.1 1.6-.1 3.7-2.3 4.4-3.3 1-25 5.9-30.7 7-2.3.4-3.4.5-4.1.3-.4-.7-1-1.3-1.6-1.8-.3-.4-.9-1.6-.2-5.4l12.8-47.6c1.5-4 3.8-9.6 5.7-9.5zm-9.2-6.5c1.9.8 2.8 2.2 2.9 3.7.1 1.4-2.1 11.3-2.4 12.6l-11.2 41.4-.1.1s-2 7.1-3.3 7.3c-1.4.3-2.8-1.5-3.7-3.1l-10.9-26.9c-1-2.5-4.4-11.6-4.2-14.3.3-3.2.5-4.6 2.1-6 1.2-1.1 6.7-4.1 9.4-5.5l15-7.6c2.1-1 5.2-2.3 6.4-1.7zM76.4 49c3.5.8 49.7 11.7 51.3 12.8 1.5 1.1 3.5 2.5 3.1 5.5-.2.5-.5 1-.8 1.4-1.6 2.1-5.4 5-6.8 6L112.8 80s-.1 0-.1.1l-3.9 2c-3.5 1.7-8.2 3.8-9.8 3.6-2.6-.3-6.1-.4-11.9-8.3L74.8 56.5v-.1s-1.6-2.1-2.1-4.7c0-1.2.6-3.4 3.7-2.7z"/></svg>