<?xml version="1.0" encoding="utf-8"?>
<!-- Generator: Adobe Illustrator 16.0.0, SVG Export Plug-In . SVG Version: 6.00 Build 0)  -->
<!DOCTYPE svg PUBLIC "-//W3C//DTD SVG 1.1//EN" "http://www.w3.org/Graphics/SVG/1.1/DTD/svg11.dtd">
<svg version="1.1" id="Layer_1" xmlns="http://www.w3.org/2000/svg" xmlns:xlink="http://www.w3.org/1999/xlink" x="0px" y="0px"
	 width="1000px" height="1000px" viewBox="0 0 1000 1000" enable-background="new 0 0 1000 1000" xml:space="preserve">
<g>
	<circle fill="#66B2CC" cx="500" cy="500" r="500"/>
	<g>
		<circle fill="#FFFFFF" cx="500" cy="500" r="311"/>
	</g>
	<g>
		<g>
			<g>
				<g>
					<path fill="#66B2CC" d="M643.456,457.057c-38.035-6.604-2.733,27.025,14.37,32.269c16.991,5.208-4.438,23.466-26.807,32.551
						c-16.736,6.797-56.168,22.978-52.338,24.892c3.83,1.915,39.572,0.639,35.105,7.021c-4.468,6.383-76.066,40.393-87.259,79.887
						c-6.211,21.918-0.942,37.674-20.972,53.765c-5.283,4.244-21.338,17.94-54.216,42.271c-20.897,15.465-65.564,6.052-70.896,5.008
						c-10.268-2.011-16.73-6.363-21.396-17.174c-2.118-4.906-2.73-11.621-2.053-20.192c3.107-39.36-22.285-83.798-13.774-108.673
						c11.091-32.42,22.732-43.38,2.689-55.549c-18.33-11.129-63.529-16.145-79.302-53.243
						c-18.838-44.309,13.137-93.117,48.982-111.125c30.709-15.427,38.83-24.162,42.103-28.09c3.273-3.928-3.927-7.856,1.964-15.057
						c5.892-7.201,16.365-24.221,23.566-24.875c0,0,9.165-1.964,17.02,1.309c7.855,3.273,17.675,3.928,14.402-2.618
						c-3.273-6.546-6.546-14.402-3.273-15.057c3.273-0.655,20.022-2.078,6.307-4.319c-5.327-0.871-28.893-10.772-13.507-19.248
						c16.433-9.053,23.176-14.534,25.832-11.357c9.449,11.297,7.553-8.281,19.336-7.626c11.783,0.654,23.566-0.655,18.33,8.51
						c-5.237,9.165-14.402,15.711-4.583,17.675c9.82,1.964,22.353-1.396,26.281-7.288c3.927-5.892,0.558-10.387-5.333-15.624
						c-5.892-5.237-17.021-11.128-5.237-18.33c11.784-7.2,49.751-15.71,62.843-15.056c13.094,0.654,17.677,0.362,28.805,6.073
						c11.129,5.709,2.617,15.529,18.328,12.256c15.712-3.273,24.375-8.147,24.375-8.147
						c227.859,101.484,178.715,342.768,178.715,342.768s-7.023-10.872-15.32-31.297s-6.873-27.946-12.994-28.165
						c-9.133-0.326-13.428,25.097-17.641,45.398c-4.053,19.516-14.979,28.814-20.426,26.179
						c-4.375-2.116-7.471-19.674-11.775-42.912C713.707,533.865,706.329,467.975,643.456,457.057z M545.313,406.579
						 M543.465,401.115c-4.129-7.998-14.748-19.505-40.361-15.02c-10.435,1.827-15.465-12.796-17.638-18.383
						c-2.172-5.587-9.985-0.86-14.951,2.243s-11.484,4.035-16.14,3.414c-4.655-0.621-9.621-10.552-11.794-14.277
						c-2.172-3.724,8.445-3.332,15.829-2.173c4.066,0.639,5.622,2.677,4.691-1.048c-0.931-3.725-9.187-8.735-10.643-23.296
						c-0.529-5.287-12.315-8.49-21.981-2.658c-25.115,15.153-40.969,14.277-40.969,14.277c-11.824,0.165,1.862,5.276,10.553,5.586
						c8.69,0.31,27.623,4.345,34.451,8.691c6.828,4.345,2.482,8.69-2.483,17.07c-4.966,8.379,1.323,5.771,8.461,12.289
						c7.139,6.518,7.321,5.682,15.437,19.989c4.129,7.277,8.651,2.688,14.328-4.379c3.633-4.523,9.65-3.16,12.364-1.208
						c4.077,2.931,13.86,13.697,34.451,16.76C517.069,418.993,554.383,422.269,543.465,401.115z M567.443,528.151
						c9.822-5.667-26.447-81.23-26.447-81.23C521.729,428.787,557.621,533.817,567.443,528.151z"/>
				</g>
			</g>
			<g>
				<path fill="#66B2CC" d="M760.291,595.182c0,0-4.416-24.59,2.865-22.972S767.137,603.995,760.291,595.182z"/>
			</g>
			<path fill="#66B2CC" d="M556.695,685.867c-66.469,17.936-45.652,58.121-37.667,62.268
				C534.621,756.232,587.902,677.446,556.695,685.867z"/>
		</g>
	</g>
</g>
</svg>
