<svg id="Layer_1" xmlns="http://www.w3.org/2000/svg" viewBox="-127 250.7 340.2 340.2"><style>.st0{fill:#373988;} .st1{fill:#FFFFFF;}</style><circle class="st0" cx="43.1" cy="420.8" r="160"/><circle class="st1" cx="12.2" cy="410.2" r="9"/><circle class="st1" cx="25.4" cy="405" r="11.8"/><circle class="st1" cx="45.7" cy="401.7" r="8.5"/><circle class="st1" cx="44.1" cy="423.7" r="6.8"/><circle class="st1" cx="30.6" cy="428.6" r="9.3"/><circle class="st1" cx="19.4" cy="445.1" r="7.2"/><circle class="st1" cx="37.3" cy="417" r="6.8"/><circle class="st1" cx="59.1" cy="416.6" r="8.2"/><circle class="st1" cx="57.2" cy="434.4" r="10.7"/><circle class="st1" cx="41.7" cy="449.1" r="11.2"/><circle class="st1" cx="50.1" cy="438.8" r="10.2"/><circle class="st1" cx="20.5" cy="436.8" r="8.2"/><circle class="st1" cx="9.8" cy="430.3" r="6.5"/><circle class="st1" cx="48.1" cy="412.6" r="10.9"/><circle class="st1" cx="59.7" cy="387.2" r="14"/><circle class="st1" cx="41.5" cy="390" r="12.8"/><circle class="st1" cx="41.5" cy="390" r="11.5"/><circle class="st1" cx="26.6" cy="397.2" r="16.9"/><circle class="st1" cx="66.2" cy="410.4" r="13.3"/><circle class="st1" cx="96.1" cy="425.5" r="8.9"/><circle class="st1" cx="75.3" cy="428.8" r="16.2"/><circle class="st1" cx="60.4" cy="446.9" r="16.3"/><circle class="st1" cx="33.4" cy="429.8" r="17.1"/><circle class="st1" cx="13" cy="435" r="15.8"/><circle class="st1" cx="28.1" cy="452.7" r="15.9"/><circle class="st1" cx="38.7" cy="493.5" r="5.3"/><circle class="st1" cx="80.7" cy="481.2" r="7"/><circle class="st1" cx="51.1" cy="469.6" r="9.3"/><circle class="st1" cx="86.4" cy="444.1" r="9.7"/><circle class="st1" cx="121.7" cy="455.7" r="3.5"/><circle class="st1" cx="81.3" cy="400.8" r="7.6"/><circle class="st1" cx="98.2" cy="371" r="6.8"/><circle class="st1" cx="-2.3" cy="393.7" r="6.4"/><circle class="st1" cx="-19.3" cy="423.1" r="10.5"/><circle class="st1" cx="-45.3" cy="471.1" r="2.5"/><circle class="st1" cx="33.9" cy="333.6" r="3.3"/><circle class="st1" cx="-26.4" cy="367.6" r="3.4"/><circle class="st1" cx="1.2" cy="484.7" r="3.5"/><circle class="st1" cx="109.1" cy="401.3" r="4.1"/><circle class="st1" cx="56.6" cy="523.6" r="2.4"/><circle class="st1" cx="149.6" cy="414.8" r="4.4"/><circle class="st1" cx="89.8" cy="318.9" r="3.4"/><circle class="st1" cx="15.8" cy="356.8" r="3.6"/><circle class="st1" cx="133.7" cy="497" r="3.5"/><circle class="st1" cx="-65.8" cy="414.6" r="2"/><circle class="st1" cx="6.7" cy="339.1" r="5.5"/><circle class="st1" cx="53.9" cy="361.5" r="2.8"/><circle class="st1" cx="2" cy="460.5" r="4.7"/><circle class="st1" cx="-5.6" cy="509.4" r="3.2"/></svg>