<svg id="Layer_1" xmlns="http://www.w3.org/2000/svg" viewBox="-127 250.7 340.2 340.2"><style>.st0{fill:#E93842;} .st1{fill:#FFFFFF;} .st2{fill:none;stroke:#FFFFFF;stroke-width:6;stroke-linecap:round;stroke-miterlimit:10;} .st3{fill:none;stroke:#FFFFFF;stroke-width:8;stroke-linecap:round;stroke-miterlimit:10;}</style><g id="Layer_18"><circle class="st0" cx="44" cy="420.8" r="160"/><circle class="st1" cx="44" cy="420.8" r="72"/><circle class="st1" cx="44.1" cy="293.8" r="7"/><path class="st2" d="M46.8 306.5l11.6 17.1M29.5 323.6l11.7-17.1"/><path class="st3" d="M42.7 322.5l-7 25.2M45.3 322.5l7 25.2"/><path class="st1" d="M47 303.3h-5.7c-1.8 0-3.3 1.5-3.3 3.3v19.8c0 1.8 1.5 3.3 3.3 3.3H47c1.8 0 3.3-1.5 3.3-3.3v-19.8c0-1.8-1.5-3.3-3.3-3.3z"/><g><circle class="st1" cx="43.8" cy="546.7" r="7"/><path class="st2" d="M41.1 534l-11.6-17.1M58.4 516.9L46.7 534"/><path class="st3" d="M45.2 518l7-25.2M42.6 518l-7-25.2"/><path class="st1" d="M40.9 537.2h5.7c1.8 0 3.3-1.5 3.3-3.3v-19.8c0-1.8-1.5-3.3-3.3-3.3h-5.7c-1.8 0-3.3 1.5-3.3 3.3v19.8c0 1.8 1.5 3.3 3.3 3.3z"/></g><g><circle class="st1" cx="-82.5" cy="420.1" r="7"/><path class="st2" d="M-69.8 417.4l17.1-11.6M-52.7 434.7L-69.8 423"/><path class="st3" d="M-53.8 421.5l25.2 7M-53.8 418.9l25.2-7"/><path class="st1" d="M-73 417.2v5.7c0 1.8 1.5 3.3 3.3 3.3h19.8c1.8 0 3.3-1.5 3.3-3.3v-5.7c0-1.8-1.5-3.3-3.3-3.3h-19.8c-1.8 0-3.3 1.5-3.3 3.3z"/></g><g><circle class="st1" cx="170.4" cy="420.4" r="7"/><path class="st2" d="M157.7 423.1l-17.1 11.6M140.6 405.8l17.1 11.7"/><path class="st3" d="M141.7 419l-25.2-7M141.7 421.6l-25.2 7"/><path class="st1" d="M160.9 423.3v-5.7c0-1.8-1.5-3.3-3.3-3.3h-19.8c-1.8 0-3.3 1.5-3.3 3.3v5.7c0 1.8 1.5 3.3 3.3 3.3h19.8c1.8 0 3.3-1.5 3.3-3.3z"/></g></g></svg>