<svg id="Layer_1" xmlns="http://www.w3.org/2000/svg" viewBox="-127 250.7 340.2 340.2"><style>.st0{fill:#F8DC28;} .st1{fill:#FFFFFF;} .st2{fill:none;stroke:#FFFFFF;stroke-width:20;stroke-miterlimit:10;}</style><g id="Layer_18"><circle class="st0" cx="43.1" cy="420.8" r="160"/><circle class="st1" cx="47.3" cy="426.7" r="42.8"/><path class="st2" d="M19 352.8c7.5-11.7 18.1-19 30-19 22.7 0 41.1 27 41.1 60.3s-18.8 58.5-39 65.2"/><path class="st1" d="M133 449.3v.9s.1 1.5.1 2.7c0 2.4-.2 5.9-1.1 10.4-.9 4.4-2.4 9.7-5.3 15.4-1.4 2.8-3.2 5.7-5.3 8.6s-4.5 5.8-7.4 8.5c-5.6 5.5-12.6 10.6-20.9 14.5-8.2 3.9-17.6 6.6-27.6 7.6l-1.9.2-1.9.1-1.9.1h-5.7c-1.3 0-2.7-.1-4-.2-5.2-.3-10.4-1.2-15.6-2.6-10.3-2.7-20.5-7.4-29.3-14.2C.8 497.9-3.3 494-7 489.8c-3.7-4.3-6.8-9.1-9.4-14.2-2.5-5.1-4.5-10.5-5.5-16.1-.2-1.4-.5-2.8-.7-4.2s-.3-2.8-.4-4.2l-.1-1.1v-.8V445l.2-2.2c.1-1.5.3-2.8.5-4.2s.5-2.7.8-4c.3-1.3.7-2.6 1.1-3.9.4-1.3.9-2.5 1.3-3.8 1.9-5 4.4-9.5 7.3-13.6C-6.2 405.2.9 399 8 394.6c3.5-2.2 7.1-4 10.5-5.4 1.7-.7 3.4-1.4 5.1-1.9.8-.3 1.7-.6 2.5-.8l2.4-.6c6.4-1.6 12-2.1 16.6-2.2 4.6-.1 8.2.4 10.6.7 2.4.4 3.7.7 3.7.7v2s-1.2.3-3.5.8c-2.3.6-5.5 1.4-9.5 2.9-4 1.4-8.7 3.3-13.7 6-2.5 1.4-5 2.9-7.6 4.7-2.6 1.8-5.1 3.8-7.6 6s-4.9 4.7-7 7.4c-2.2 2.7-4.2 5.7-6 8.8-1.7 3.2-3.2 6.5-4.3 10-.3.9-.5 1.8-.8 2.7-.2.9-.5 1.8-.6 2.7-.2.9-.4 1.8-.5 2.8-.1.9-.3 1.9-.4 2.7l-.1 1.3v1.6l-.1 1.8v2.7s.1 1 .1 1.5c0 1 .1 1.9.2 2.9.4 3.9 1.3 7.9 2.8 11.7 1.4 3.9 3.4 7.6 5.8 11.2 2.4 3.5 5.4 6.8 8.7 9.7 6.6 5.9 14.6 10.3 23.1 13.2 4.2 1.4 8.6 2.4 13 3.1 1.1.2 2.2.3 3.2.4.5.1 1 .1 1.6.2l1.8.1 1.6.1H64.4c8.7-.2 17.1-1.8 24.6-4.6 7.6-2.8 14.2-6.7 19.7-11.2s9.8-9.5 13-14.4c1.6-2.4 2.9-4.8 3.9-7.2.3-.6.5-1.1.8-1.7.2-.6.4-1.1.6-1.7.5-1.1.8-2.1 1.1-3.1 1.3-4 1.8-7.4 2.1-9.6.1-1.1.2-2.1.2-2.6.1-.6.1-.9.1-.9l2.5.2zM-23.6 356.7c.7-1.1 1.3-2.2 1.7-3.5.6-2.1.1-4.9-1.9-5.8-2.5-1.1-5.2 1.1-7 3.2-7.6 8.6-31.7 26.4-19.3 38.8 10.7 7.3 20-5.8 21.7-15.1.9-5.1.9-10.5 3.4-15.1.4-.9.9-1.7 1.4-2.5z"/><ellipse transform="rotate(-56.954 18.993 358.674)" class="st1" cx="19" cy="358.7" rx="26.9" ry="13.3"/><path class="st1" d="M5.2 459.6c-7.5 6.6 1.8 22 6.8 27.4 6.6 7.2 15.6 12.3 23.4 17.7 1.1.7 2.2 1.6 2.6 2.8.5 1.7-.8 3.6-2.5 4.3-1.7.7-3.6.5-5.4.2-17.4-2.9-31.9-14.6-44.4-26.9-19.5-19.3-32.3-49.8-15.7-75.4 8.1-12.5 16.3-11.7 28.8-14.7 12.9-3.2 23.1-11 37.2-11.9 7.4-.5 15.4.1 21.8-3.7 9-5.3 11.4-18.9 5.1-27.2s-19.7-9.8-28-3.6c-2.3 1.7-4.5 4-7.3 3.9-4.2-.2-6.2-5.9-4.2-9.6 2-3.7 6.3-5.4 10.4-6.3 14.1-3.2 29.5 0 41 8.7 21.8 16.5 26.1 52.6 21.6 77.7-1.8 9.9-5.1 19.8-10.3 28.3-3.5 5.7-7.8 10.7-13.1 14.8-13.3 10.1-33.6 12.2-46.5 1.6-3.2-2.6-5.9-5.9-9.5-8.1s-8.7-2.8-11.8 0zM144.2 379c.4-10.9-3.2-21.4-11.8-30.4-12.6-13-20-8.2-12.8 8.6 5 11.6 6.6 24.6 4.8 37.2-.4 2.9-1.1 5.9-.4 8.9.6 2.9 2.9 5.7 5.9 5.8 3.3.1 5.8-3.1 7.4-6 4.1-8 6.5-16.1 6.9-24.1z"/></g></svg>