<svg id="Layer_1" xmlns="http://www.w3.org/2000/svg" viewBox="-127 250.7 340.2 340.2"><style>.st0{fill:#009547;} .st1{fill:#FFFFFF;} .st2{fill:none;stroke:#FFFFFF;stroke-width:5;stroke-miterlimit:10;} .st3{fill:none;stroke:#FFFFFF;stroke-width:3;stroke-miterlimit:10;} .st4{fill:none;stroke:#FFFFFF;stroke-width:5;stroke-linecap:round;stroke-miterlimit:10;} .st5{fill:none;stroke:#FFFFFF;stroke-width:5;stroke-linecap:round;stroke-miterlimit:10;stroke-dasharray:11.1174,11.1174;}</style><g id="Layer_18"><circle class="st0" cx="44" cy="420.8" r="160"/><path class="st1" d="M98.9 463.2l-12.7 12.7c-4.7 4.7-12.3 4.7-17 0L24 430.7c-4.7-4.7-4.7-12.3 0-17L36.7 401c4.7-4.7 12.3-4.7 17 0L99 446.3c4.6 4.6 4.6 12.2-.1 16.9z"/><path class="st1" d="M53.6 403.8l-26.8 26.8c-1.9 1.9-4.9 1.9-6.8 0L9.8 420.4c-1.9-1.9-1.9-4.9 0-6.8l26.8-26.8c1.9-1.9 4.9-1.9 6.8 0L53.6 397c1.9 1.9 1.9 5 0 6.8z"/><path class="st1" d="M40 397.9l-19.2 19.2c-1.9 1.9-4.9 1.9-6.8 0l-6.4-6.4c-1.9-1.9-1.9-4.9 0-6.8l19.2-19.2c1.9-1.9 4.9-1.9 6.8 0l6.4 6.4c1.9 1.9 1.9 4.9 0 6.8zM135.9 464.9c9.1 9.1-38.9 57.1-48 48-9.1-9.1-5.8-27.2 7.5-40.5 13.2-13.3 31.4-16.6 40.5-7.5zM140.2 372.1l-44.6 43.8c-2.4 2.3-6.2 2.3-8.5-.1L71.6 400c-2.3-2.4-2.3-6.2.1-8.5l44.6-43.8c2.4-2.3 6.2-2.3 8.5.1l15.5 15.8c2.3 2.3 2.3 6.2-.1 8.5zM38.3 472.6l-44.6 43.8c-2.4 2.3-6.2 2.3-8.5-.1l-15.5-15.8c-2.3-2.4-2.3-6.2.1-8.5l44.6-43.8c2.4-2.3 6.2-2.3 8.5.1l15.5 15.8c2.3 2.3 2.3 6.2-.1 8.5z"/><path class="st2" d="M4.5 481.6l98.7-96.9"/><path class="st3" d="M92.1 508.4h39.3v-39.3"/><path class="st1" d="M138.478 509.19l-6.293 6.293-8.06-8.06 6.293-6.295z"/><g><path class="st4" d="M23.9 400.9l-4.3-4.2"/><path class="st5" d="M11.7 388.9l-91-89.8"/><path class="st4" d="M-83.3 295.2l-4.2-4.2"/></g></g></svg>