<svg id="Layer_1" xmlns="http://www.w3.org/2000/svg" viewBox="-127 250.7 340.2 340.2"><style>.st0{fill:#8B478F;} .st1{fill:#FFFFFF;}</style><g id="Layer_18"><circle class="st0" cx="43.1" cy="420.8" r="160"/><circle class="st1" cx="33.1" cy="412.7" r="10.7"/><circle class="st1" cx="61.9" cy="352.3" r="5.5"/><circle class="st1" cx="86" cy="406.2" r="2.4"/><circle class="st1" cx="-20.1" cy="438.9" r="6.5"/><circle class="st1" cx="27.7" cy="372.1" r="5.4"/><circle class="st1" cx="64.6" cy="489.9" r="2.8"/><circle class="st1" cx="68.1" cy="431.4" r="6.2"/><circle class="st1" cx="32.2" cy="444.9" r="4.4"/><circle class="st1" cx="-30.1" cy="355.8" r="3.5"/><circle class="st1" cx="128.1" cy="349.5" r="2.8"/><circle class="st1" cx="128.9" cy="478.3" r="3.5"/><circle class="st1" cx="62.9" cy="397.2" r="6.5"/><circle class="st1" cx="50.1" cy="463.1" r="6.3"/><circle class="st1" cx="47" cy="305.9" r="3.1"/><circle class="st1" cx="15" cy="396.4" r="5.6"/><circle class="st1" cx="9.7" cy="472.5" r="5.3"/><circle class="st1" cx="-34.9" cy="519.5" r="4.8"/><circle class="st1" cx="155.1" cy="419.4" r="2.7"/><circle class="st1" cx="-68.9" cy="419.4" r="2.7"/><circle class="st1" cx="94.9" cy="425.9" r="6.5"/><circle class="st1" cx="85.8" cy="460.9" r="2.2"/><circle class="st1" cx="-11.1" cy="386" r="2.5"/></g></svg>