<svg id="Layer_1" xmlns="http://www.w3.org/2000/svg" viewBox="-127 250.7 340.2 340.2"><style>.st0{fill:#C22332;} .st1{fill:#FFFFFF;}</style><g id="Layer_18"><circle class="st0" cx="43.1" cy="420.8" r="160"/><circle class="st1" cx="44.3" cy="421" r="46"/><path class="st1" d="M28.8 464.2s-.9-.2-2.4-.7c-.4-.1-.8-.2-1.3-.4s-1-.4-1.6-.7c-.6-.2-1.2-.5-1.8-.8-.6-.3-1.3-.7-2-1-2.8-1.5-6.1-3.7-9.4-6.7-3.3-3-6.8-6.9-9.8-11.8-3-4.8-5.6-10.6-7.2-17.1-1.6-6.4-2.3-13.6-1.4-20.9.4-3.6 1.3-7.3 2.4-10.9s2.8-7 4.5-10.4c1.8-3.4 3.9-6.6 6.1-9.6 1.1-1.5 2.3-3 3.5-4.5.6-.7 1.2-1.5 1.8-2.2l2-2.3 1.7-1.7.9-.9 1.1-1c.7-.7 1.5-1.4 2.2-2l2.1-1.8c2.9-2.3 5.9-4.4 9.1-6.2 6.3-3.7 13-6.2 19.5-7.8 3.3-.8 6.6-1.3 9.8-1.6 3.2-.3 6.4-.3 9.4-.2 6.1.3 11.7 1.3 16.7 2.8s9.3 3.4 12.9 5.4c.9.5 1.8 1 2.6 1.5s1.6 1 2.3 1.5c1.5 1 2.8 1.9 3.9 2.9.6.5 1.1.9 1.6 1.3s.9.8 1.4 1.2c.8.7 1.6 1.4 2.1 1.9l1.7 1.7-1.8 2.2s-.7-.4-2-1.1c-.6-.4-1.4-.8-2.4-1.3-.5-.2-1-.5-1.5-.8-.5-.3-1.1-.5-1.7-.8-2.5-1.1-5.5-2.3-9.1-3.3s-7.6-1.8-12.1-2.2c-4.4-.4-9.2-.2-14.1.5-4.9.8-9.9 2.1-14.7 4.3-4.8 2.1-9.4 4.9-13.6 8.3-2.1 1.7-4 3.6-5.9 5.5L33 374c-.5.5-.8 1-1.2 1.4l-.6.7c-.1.1-.2.3-.3.4l-.4.5-1.4 1.9c.4-.4.1-.1.1-.2v.1l-.1.1-.1.2-.3.4-.5.8c-.4.5-.7 1.1-1 1.7-.3.6-.7 1.1-.9 1.7l-.8 1.8c-1 2.4-1.9 4.8-2.5 7.3s-1.1 4.9-1.4 7.3c-.3 2.4-.6 4.8-.8 7.1-.2 1.2-.2 2.3-.3 3.4 0 1.1-.2 2.3-.2 3.4-.1 2.3-.2 4.5-.2 6.7.1 4.4.4 8.7 1.1 12.7.7 4 1.6 7.8 2.6 11.2s2.1 6.5 3.2 9c.3.6.5 1.2.7 1.8s.5 1.1.7 1.6c.4 1 .8 1.9 1.2 2.7.7 1.5 1 2.3 1 2.3l-1.8 2.2z"/><path class="st1" d="M128.5 450.4s.4-.7 1.1-2c.4-.7.8-1.5 1.2-2.5.2-.5.5-1 .7-1.6s.5-1.2.7-1.8c1-2.6 2.1-5.7 2.9-9.4.8-3.7 1.4-7.9 1.6-12.5.1-4.6-.3-9.5-1.3-14.6-1.1-5.1-2.8-10.3-5.4-15.2-2.5-5-5.8-9.7-9.7-13.9-1.9-2.1-4.1-4.1-6.3-5.9-2.2-1.8-4.7-3.4-7.1-5 .3.2 0 0 .1.1h-.1l-.1-.1-.3-.1-.5-.3-1-.6c-.3-.2-.7-.4-1-.6l-.9-.4c-.6-.3-1.2-.6-1.9-.9l-2-.8c-2.7-1-5.4-1.8-8.1-2.4-5.5-1.2-10.9-1.6-16.1-1.5h-2c-.6 0-1.3 0-1.9.1-1.3.1-2.6.1-3.8.3-2.5.2-5 .6-7.4 1-2.4.5-4.7 1-6.9 1.7-1.1.3-2.2.7-3.3 1-1.1.4-2.1.8-3.1 1.1-4 1.6-7.7 3.4-10.8 5.3-3.2 1.8-5.8 3.7-8 5.4-.5.4-1.1.8-1.6 1.2-.5.4-.9.7-1.3 1.1-.8.7-1.6 1.3-2.1 1.8-1.1 1-1.8 1.5-1.8 1.5l-1.3-.9s.3-.8.8-2.3c.3-.8.7-1.6 1.2-2.7.2-.5.5-1.1.8-1.7s.7-1.2 1-1.8c1.5-2.6 3.5-5.6 6.3-8.8 2.8-3.2 6.4-6.4 10.7-9.4 4.4-3 9.6-5.6 15.4-7.6 2.9-.9 6-1.8 9.2-2.3s6.5-.8 9.9-.8c6.8.1 13.7 1.4 20.3 3.8 3.3 1.2 6.5 2.7 9.6 4.3 1.5.9 3.1 1.7 4.7 2.7l1.2.7c.4.2.7.5 1 .7l2.1 1.4c2.8 2.1 5.6 4.3 8.1 6.7 2.5 2.4 4.8 5 6.9 7.7 4.2 5.4 7.4 11.3 9.7 17.3 1.2 3 2.1 6 2.8 9 .7 3 1.2 6 1.5 8.9.5 5.8.4 11.3-.4 16.3-.7 5-2 9.4-3.3 13.2-.4.9-.7 1.9-1.1 2.7-.4.9-.7 1.7-1.1 2.5-.8 1.5-1.5 3-2.2 4.2-.4.6-.7 1.2-1 1.8-.3.5-.7 1-1 1.5-.6.9-1.1 1.7-1.6 2.3-.9 1.2-1.3 1.9-1.3 1.9l-1.4-.8z"/><path class="st1" d="M57.3 377.3s.9.2 2.4.7c.4.1.8.2 1.3.4s1 .4 1.6.7c.6.2 1.2.5 1.8.8.6.3 1.3.7 2 1 2.8 1.5 6.1 3.7 9.4 6.7 3.3 3 6.8 6.9 9.8 11.8 3 4.8 5.6 10.6 7.2 17.1 1.6 6.4 2.3 13.6 1.4 20.9-.4 3.6-1.3 7.3-2.4 10.9-1.1 3.6-2.8 7-4.5 10.4-1.8 3.4-3.9 6.6-6.1 9.6-2.3 3-4.6 6-7.2 8.7-.4.5-.1.2-.2.3l-.1.1-.1.1-.2.2-.4.4-.8.9-.9.9-1.1 1c-.7.7-1.5 1.4-2.2 2l-2 1.8c-2.9 2.3-5.9 4.4-9.1 6.2-6.3 3.7-13 6.2-19.5 7.8-3.3.8-6.6 1.3-9.8 1.6-3.2.3-6.4.3-9.4.2-6.1-.3-11.7-1.3-16.7-2.8s-9.3-3.4-12.9-5.4c-.9-.5-1.8-1-2.6-1.5s-1.6-1-2.3-1.5c-1.5-1-2.8-1.9-3.9-2.9-.6-.5-1.1-.9-1.6-1.3s-.9-.8-1.4-1.2c-.8-.7-1.6-1.4-2.1-1.9l-1.7-1.7 1.8-2.2s.7.4 2 1.1c.6.4 1.4.8 2.4 1.3.5.2 1 .5 1.5.8.5.3 1.1.5 1.7.8 2.5 1.1 5.5 2.3 9.1 3.3s7.6 1.8 12.1 2.2c4.4.4 9.2.2 14.1-.5 4.9-.8 9.9-2.1 14.7-4.3 4.8-2.1 9.4-4.9 13.6-8.3 2.1-1.7 4-3.6 5.9-5.5l1.3-1.5c.5-.5.8-1 1.2-1.4l.6-.7c.1-.1.2-.3.3-.4l.4-.5.7-1 .4-.5.2-.2.1-.1v-.1c-.1.1.2-.3-.1.2 3-4.4 5.1-9.3 6.3-14.3.6-2.5 1.1-4.9 1.4-7.3.3-2.4.6-4.8.8-7.1.2-1.2.2-2.3.3-3.4 0-1.1.2-2.3.2-3.4.1-2.3.2-4.5.2-6.7-.1-4.4-.4-8.7-1.1-12.7-.7-4-1.6-7.8-2.6-11.2s-2.1-6.5-3.2-9c-.3-.6-.5-1.2-.7-1.8s-.5-1.1-.7-1.6c-.4-1-.8-1.9-1.2-2.7-.7-1.5-1-2.3-1-2.3l1.6-2z"/><path class="st1" d="M-42.3 391.2s-.4.7-1.1 2c-.4.7-.8 1.5-1.2 2.5-.2.5-.5 1-.7 1.6s-.5 1.2-.7 1.8c-1 2.6-2.1 5.7-2.9 9.4-.8 3.7-1.4 7.9-1.6 12.5-.1 4.6.3 9.5 1.3 14.6 1.1 5.1 2.8 10.3 5.4 15.2 2.5 5 5.8 9.7 9.7 13.9 1.9 2.1 4.1 4.1 6.3 5.9 1.1.9 2.3 1.8 3.5 2.6l1.8 1.2 1.7 1.1 2.1 1.2c.3.2.7.4 1 .6l.9.4c.6.3 1.2.6 1.9.9l2 .8c2.7 1 5.4 1.8 8.1 2.4 5.5 1.2 10.9 1.6 16.1 1.5h2c.6 0 1.3 0 1.9-.1 1.3-.1 2.6-.1 3.8-.3 2.5-.2 5-.6 7.4-1 2.4-.5 4.7-1 6.9-1.7 1.1-.3 2.2-.7 3.3-1 1.1-.4 2.1-.8 3.1-1.1 4-1.6 7.7-3.4 10.8-5.3 3.2-1.8 5.8-3.7 8-5.4.5-.4 1.1-.8 1.6-1.2s.9-.7 1.3-1.1c.8-.7 1.6-1.3 2.1-1.8 1.1-1 1.8-1.5 1.8-1.5l1.3.9s-.3.8-.8 2.3c-.3.8-.7 1.6-1.2 2.7-.2.5-.5 1.1-.8 1.7-.3.6-.7 1.2-1 1.8-1.5 2.6-3.5 5.6-6.3 8.8-2.8 3.2-6.4 6.4-10.7 9.4-4.4 3-9.6 5.6-15.4 7.6-2.9.9-6 1.8-9.2 2.3s-6.5.8-9.9.8c-6.8-.1-13.7-1.4-20.3-3.8-3.3-1.2-6.5-2.7-9.6-4.3-1.5-.9-3.1-1.7-4.7-2.7l-1.2-.7c-.4-.2-.7-.5-1-.7l-2-1.4c-.3-.2-.1-.1-.2-.1h-.1l-.1-.1-.3-.2-.5-.4-1-.8c-.7-.5-1.4-1.1-2-1.6-1.4-1.1-2.6-2.3-3.9-3.5-2.5-2.4-4.8-5-6.9-7.7-4.2-5.4-7.4-11.3-9.7-17.3-1.2-3-2.1-6-2.8-9-.7-3-1.2-6-1.5-8.9-.5-5.8-.4-11.3.4-16.3.7-5 2-9.4 3.3-13.2.4-.9.7-1.9 1.1-2.7.4-.9.7-1.7 1.1-2.5.8-1.5 1.5-3 2.2-4.2.4-.6.7-1.2 1-1.8.3-.5.7-1 1-1.5.6-.9 1.1-1.7 1.6-2.3.9-1.2 1.3-1.9 1.3-1.9l1.2.7z"/></g></svg>