<svg id="Layer_1" xmlns="http://www.w3.org/2000/svg" viewBox="-127 250.7 340.2 340.2"><style>.st0{fill:#C20071;} .st1{fill:#FFFFFF;}</style><g id="Layer_18"><circle class="st0" cx="43.1" cy="420.8" r="160"/><circle class="st1" cx="43.1" cy="420.8" r="38"/><path class="st1" d="M43.1 320.5s.1.8.4 2.3c.2 1.5.6 3.6 1 6.4.8 5.5 1.8 13.3 2.6 22.7.9 9.4 1.6 20.4 2.2 32.1.2 2.9.2 5.9.3 8.9s.2 6.1.2 9.2c.2 6.2.2 12.4.2 18.7 0 6.3-.1 12.5-.2 18.7 0 3.1-.1 6.1-.2 9.2-.1 3-.2 6-.3 8.9-.2 5.9-.6 11.6-.9 16.9-.4 5.4-.8 10.5-1.2 15.2-.9 9.4-1.9 17.2-2.7 22.7-.4 2.7-.8 4.9-1 6.4-.3 1.5-.4 2.3-.4 2.3s-.1-.8-.4-2.3c-.2-1.5-.6-3.6-1-6.4-.8-5.5-1.8-13.3-2.7-22.7-.4-4.7-.8-9.8-1.2-15.2s-.7-11.1-.9-16.9c-.2-2.9-.2-5.9-.3-8.9s-.2-6.1-.2-9.2c-.2-6.2-.2-12.4-.2-18.7 0-6.3.1-12.5.2-18.7 0-3.1.1-6.1.2-9.2.1-3 .2-6 .3-8.9.5-11.7 1.3-22.7 2.2-32.1s1.8-17.2 2.6-22.7c.4-2.7.8-4.9 1-6.4.2-1.5.4-2.3.4-2.3z"/><path class="st1" d="M-43.9 420.8s.7-.2 2-.4 3.1-.6 5.5-1c4.8-.8 11.6-1.8 19.7-2.6 8.2-.9 17.7-1.6 27.9-2.2 2.5-.2 5.1-.2 7.8-.3 2.6-.1 5.3-.2 8-.2 5.4-.2 10.8-.2 16.2-.2s10.9.1 16.2.2c2.7 0 5.3.1 8 .2l7.8.3c5.1.2 10 .6 14.7.9 4.7.4 9.1.8 13.2 1.2 8.2.9 15 1.9 19.7 2.7 2.4.4 4.2.8 5.5 1 1.3.2 2 .4 2 .4s-.7.2-2 .4-3.1.6-5.5 1c-4.8.8-11.6 1.8-19.7 2.7-4.1.4-8.5.8-13.2 1.2s-9.6.7-14.7.9c-2.5.2-5.1.2-7.8.3-2.6.1-5.3.2-8 .2-5.4.2-10.8.2-16.2.2s-10.9-.1-16.2-.2c-2.7 0-5.3-.1-8-.2l-7.8-.3c-10.2-.5-19.7-1.3-27.9-2.2s-15-1.8-19.7-2.6c-2.4-.4-4.2-.8-5.5-1-1.3-.3-2-.4-2-.4z"/></g></svg>