<svg id="Layer_1" xmlns="http://www.w3.org/2000/svg" viewBox="-127 250.7 340.2 340.2"><style>.st0{fill:#93B93B;} .st1{fill:#FFFFFF;}</style><g id="Layer_18"><circle class="st0" cx="43.1" cy="420.8" r="160"/><path class="st1" d="M-10.8 371.8c-6 4.2-12.2 7.9-18.3 11.8-12.4 7.9-24.9 16.8-32.3 29.5-7.4 12.7-8.8 30.1.6 41.5 13.8 16.6 42.3 13.1 56.7 29.2 4.8 5.4 7.6 12.7 13.6 16.8 6.9 4.8 16.5 3.9 24 0 8.4-4.4 13.9-12.1 20.9-18.2 4.9-4.3 10-7.8 14.1-13 5.3-6.7 9.7-13.8 19.1-14.4 6.1-.4 13.2 2.2 15.2 8.6.7 2.4.7 4.9 1.2 7.3 2.2 10.1 15.4 15.4 24.8 11 9.4-4.3 14.3-15.8 12.9-26.1-1.6-11.7-9.7-21.3-14-32.2-6.2-15.6-1.7-27.1 1.9-42.2 2.3-9.6-7.3-17.8-15.7-9.6-4.5 4.4-2.2 10.2-7.3 13.9-5.3 3.8-9.9 2.2-15-1-2.8-1.8-4.7-4.1-8.3-2.6-5.5 2.2-6.5 9.2-8.7 13.9-3 6.3-8 8.4-15 8.3-5.2-.1-9.4-1.5-11.6-6.5-2.5-5.5 0-26.6-12.2-16.8-8.4 6.7-.4 23-1.6 32.3-1.1 9-6.1 18-14.5 21.4-8.5 3.4-18.8 0-24.7-7.1s-7.5-17-5.6-25.9c1.9-9 6.9-17 13.1-23.7 8.7-9.4 24.2-16 28.1-28.9 1.9-6.3-1.4-14.9-8-15.3-5.5-.4-9.8 4.8-11.6 10-3.8 10.9-5.4 15.3-14.7 22.8-2.4 1.8-4.7 3.5-7.1 5.2z"/><circle class="st1" cx="133.2" cy="363.3" r="5.9"/><circle class="st1" cx="12.1" cy="391.4" r="1.5"/><circle class="st1" cx="32.2" cy="291.1" r="2.5"/><circle class="st1" cx="102.2" cy="378.1" r="1.2"/><circle class="st1" cx="-1.3" cy="326.4" r="1.8"/><circle class="st1" cx="-18.3" cy="365.1" r="1.7"/><circle class="st1" cx="-45.3" cy="445.6" r="1.5"/><circle class="st1" cx="74.7" cy="333.6" r="3"/><circle class="st1" cx="11.2" cy="414" r="5"/><circle class="st1" cx="85.5" cy="375.1" r="4.8"/><circle class="st1" cx="21.2" cy="324.1" r="11.5"/><circle class="st1" cx="40.2" cy="370.3" r="7"/><circle class="st1" cx="106.7" cy="333.6" r="4.8"/><circle class="st1" cx="100" cy="354.4" r="2.2"/><circle class="st1" cx="62.2" cy="381.6" r="1"/><circle class="st1" cx="68.5" cy="369.2" r="1.2"/><circle class="st1" cx="41.7" cy="329.6" r="1.4"/><circle class="st1" cx="154.2" cy="392.1" r="4"/><circle class="st1" cx="138.2" cy="376.6" r="1.5"/><circle class="st1" cx="56.2" cy="346.1" r="1.2"/><circle class="st1" cx="100" cy="483.4" r="2"/><circle class="st1" cx="92.2" cy="498.1" r="2"/><circle class="st1" cx="139.7" cy="501.6" r="1.5"/><circle class="st1" cx="85.5" cy="477.1" r="3.5"/><circle class="st1" cx="69.2" cy="494.2" r="1.5"/><circle class="st1" cx="37.4" cy="517.4" r="2.2"/><circle class="st1" cx="11.2" cy="530.6" r="2"/><circle class="st1" cx="115.7" cy="496.1" r="8.2"/><circle class="st1" cx="13.2" cy="304.9" r="4.8"/><circle class="st1" cx="96" cy="306.6" r="1.8"/><circle class="st1" cx="19.1" cy="382.6" r="2.5"/><circle class="st1" cx="158.2" cy="375.1" r="1.8"/><circle class="st1" cx="133.2" cy="517.4" r="2.5"/><circle class="st1" cx="143.2" cy="339.1" r="2"/><circle class="st1" cx="127.2" cy="485.6" r="2.8"/><circle class="st1" cx="-41.8" cy="498.1" r="2"/><circle class="st1" cx=".1" cy="509.5" r="1.4"/><circle class="st1" cx="141.2" cy="422.8" r="2"/><circle class="st1" cx="139.7" cy="483.4" r="2.2"/><circle class="st1" cx="-39.8" cy="333.6" r="2"/></g></svg>