<svg id="Layer_1" xmlns="http://www.w3.org/2000/svg" viewBox="-127 250.7 340.2 340.2"><style>.st0{fill:#F6A000;} .st1{fill:#FFFFFF;} .st2{fill:none;stroke:#FFFFFF;stroke-width:12;stroke-linecap:round;stroke-miterlimit:10;}</style><g id="Layer_18"><circle class="st0" cx="44" cy="420.8" r="160"/><path class="st1" d="M112.9 444.7L-19 401.4c-3.7-1.2-5.7-5.2-4.5-9l15.3-46.2c1.2-3.7 5.3-5.8 9-4.6l131.8 43.3c3.7 1.2 5.7 5.2 4.5 9l-15.3 46.2c-1.2 3.8-5.2 5.8-8.9 4.6z"/><path class="st1" d="M140.4 427l-16.5-5.4 3.8-11.5 16.5 5.4zM-20.6 404.1l-10.3-3.4c-1.7-.6-2.7-2.5-2.1-4.2l19.6-59.3c.6-1.8 2.5-2.7 4.2-2.1l10.4 3.4c1.7.6 2.7 2.5 2.1 4.2L-16.3 402c-.6 1.7-2.5 2.7-4.3 2.1zM64.6 441l-29.3-9.6c-4.4-1.4-6.8-6.2-5.3-10.6 1.5-4.4 6.2-6.8 10.6-5.4l29.3 9.6c4.4 1.4 6.8 6.2 5.3 10.6-1.4 4.4-6.2 6.8-10.6 5.4z"/><path class="st1" d="M-24.8 386.3l-8.9-2.9c-1-.3-1.5-1.4-1.2-2.4l10.7-32.4c.3-1 1.4-1.5 2.4-1.2l8.9 2.9c1 .3 1.5 1.4 1.2 2.4l-10.7 32.4c-.3 1-1.4 1.5-2.4 1.2z"/><path class="st2" d="M77.8 518.2l-26.2-90-39.2 90M106.8 377.5l3.5-11.5M121.8 368.5L81.3 355"/></g></svg>