<svg id="Layer_2" data-name="Layer 2" xmlns="http://www.w3.org/2000/svg" viewBox="0 0 2453 2453"><defs><style>.cls-1{fill:#03709c;}</style></defs><title>SS_bottom slogan_SI</title><g id="SI"><path class="cls-1" d="M816.34 523.64a13 13 0 0 0-1-1.05 7.34 7.34 0 0 0-1-.79 2.89 2.89 0 0 0-.84-.41.8.8 0 0 0-.64.05 1.61 1.61 0 0 0-.71.86 3.84 3.84 0 0 0-.13 1.5 5.05 5.05 0 0 1-.2 2.14 2.46 2.46 0 0 1-1 1.18 2.3 2.3 0 0 1-2 .28 2.87 2.87 0 0 1-1.59-1.3 3.69 3.69 0 0 1-.53-1.71 5.13 5.13 0 0 1 .24-1.89 6 6 0 0 1 1-1.82 5.87 5.87 0 0 1 1.64-1.46 4.86 4.86 0 0 1 2.6-.73 6.32 6.32 0 0 1 2.78.69 10.48 10.48 0 0 1 2.74 2 17.11 17.11 0 0 1 2.5 3.23q-5.39 3.29-6.16 5.45a4.25 4.25 0 0 0 .25 3.72 4.38 4.38 0 0 0 1.84 1.79 4.19 4.19 0 0 0 2.38.3 10.44 10.44 0 0 0 3-1 38.74 38.74 0 0 0 3.57-2 18.46 18.46 0 0 0 4.12-3.31 11.41 11.41 0 0 0 2.33-3.72 8.4 8.4 0 0 0 .45-4 10.38 10.38 0 0 0-1.51-4.11 17.14 17.14 0 0 0-3.86-4.47 15.86 15.86 0 0 0-4.7-2.67 12.39 12.39 0 0 0-5-.7 10.06 10.06 0 0 0-4.63 1.46 13.18 13.18 0 0 0-2.33 1.8 13.4 13.4 0 0 0-1.89 2.29 12.47 12.47 0 0 0-1.33 2.7 13.12 13.12 0 0 0-.67 3h-2.76a15.06 15.06 0 0 1 .75-3.69 15.74 15.74 0 0 1 1.57-3.33 16.32 16.32 0 0 1 2.28-2.86 15.11 15.11 0 0 1 2.84-2.25 12.7 12.7 0 0 1 5.79-1.87 15.53 15.53 0 0 1 6.09.79 18.28 18.28 0 0 1 5.68 3.17 20.22 20.22 0 0 1 4.57 5.27 17.23 17.23 0 0 1 2.46 6.43 14.13 14.13 0 0 1-.32 6 14.39 14.39 0 0 1-2.68 5.16 17.69 17.69 0 0 1-4.63 4 18.19 18.19 0 0 1-5 2.17 12.09 12.09 0 0 1-4.46.35 8.71 8.71 0 0 1-3.75-1.35 9.15 9.15 0 0 1-2.81-3 7.77 7.77 0 0 1-1.11-3.13 7.14 7.14 0 0 1 .38-3.27 10 10 0 0 1 1.92-3.19 14.59 14.59 0 0 1 3.47-2.7z"/><path class="cls-1" d="M810.41 520.74a8.1 8.1 0 0 1-2.14-.18 9.44 9.44 0 0 1-2-.67 7.55 7.55 0 0 1-1.68-1.07 5.23 5.23 0 0 1-1.17-1.36 7.18 7.18 0 0 1-.23-7.09 13 13 0 0 1 2.75-3.57 28.67 28.67 0 0 1 10.11-5.87 13 13 0 0 1 4.48-.62 7.31 7.31 0 0 1 3.52 1.07 7.52 7.52 0 0 1 2.51 2.66 5.32 5.32 0 0 1 .6 1.63 7.5 7.5 0 0 1 .13 1.93 8.87 8.87 0 0 1-.38 2.07 8.72 8.72 0 0 1-.92 2l-2.32-1.37q1.37-2.88.5-4.37a2.51 2.51 0 0 0-1.28-1.12 3.89 3.89 0 0 0-2.1-.08 14.6 14.6 0 0 0-3.1 1 53.41 53.41 0 0 0-8.35 4.84 13.23 13.23 0 0 0-2.41 2.19 4 4 0 0 0-.94 1.89 2.56 2.56 0 0 0 .34 1.68 2.83 2.83 0 0 0 1.57 1.27 7.75 7.75 0 0 0 2.43.39zM867.16 501.53a24.7 24.7 0 0 1 2.24 5.21 11.58 11.58 0 0 1 .48 4 5.7 5.7 0 0 1-.94 2.84 5.87 5.87 0 0 1-2 1.81 5.59 5.59 0 0 1-2.08.67 5.42 5.42 0 0 1-2-.14A5 5 0 0 1 861 515a4.92 4.92 0 0 1-1.31-1.54 5.84 5.84 0 0 1-.78-2.67 5.52 5.52 0 0 1 .53-2.5 7.66 7.66 0 0 1 1.63-2.23 11.76 11.76 0 0 1 2.55-1.85l.28-.15a2.33 2.33 0 0 1 .4-.16 11.54 11.54 0 0 0-2.45-3 8.94 8.94 0 0 0-2.78-1.62 6.79 6.79 0 0 0-2.84-.37 6.59 6.59 0 0 0-2.64.79 5.16 5.16 0 0 0-2.42 3.12 12.59 12.59 0 0 0-.32 5.3 4 4 0 0 1 1.86-.47 4.27 4.27 0 0 1 1.81.41 5.74 5.74 0 0 1 1.64 1.16 7.7 7.7 0 0 1 1.31 1.76 7.31 7.31 0 0 1 .83 2.82 8.73 8.73 0 0 1-.3 3.24 9.83 9.83 0 0 1-1.55 3.14 8.78 8.78 0 0 1-2.94 2.52 7.62 7.62 0 0 1-3.69 1 9.43 9.43 0 0 1-3.74-.77 11.75 11.75 0 0 1-3.42-2.25 13.78 13.78 0 0 1-2.7-3.5 17.63 17.63 0 0 1-1.21-2.78 16.54 16.54 0 0 1-.74-3.1 14.05 14.05 0 0 1-.07-3.2 10.88 10.88 0 0 1 .76-3.11 9.72 9.72 0 0 1 1.78-2.82 11 11 0 0 1 3-2.3q.5-.28 1.05-.53a11.86 11.86 0 0 1 1.15-.46l.9 2.72a4.24 4.24 0 0 0-.86.34l-.78.43a6.69 6.69 0 0 0-2.51 2.3 8.31 8.31 0 0 0-1.16 3 9.13 9.13 0 0 0 0 3.16 8.86 8.86 0 0 0 .94 2.79 8.32 8.32 0 0 0 2 2.45 7.28 7.28 0 0 0 2.52 1.38 7 7 0 0 0 2.78.27 7.33 7.33 0 0 0 2.8-.9 7.13 7.13 0 0 0 1.29-.89 4 4 0 0 0 .89-1.1 2.64 2.64 0 0 0 .32-1.29 3.11 3.11 0 0 0-.44-1.48 3 3 0 0 0-1.2-1.36 1.13 1.13 0 0 0-1.06 0q-.91.5-.65 2.29l-2.36.36a44.88 44.88 0 0 1-1.05-6.92 20.16 20.16 0 0 1 .28-5.25 9.6 9.6 0 0 1 1.6-3.79 8.83 8.83 0 0 1 2.91-2.52 8.65 8.65 0 0 1 3-1 8 8 0 0 1 2.82.11 8.69 8.69 0 0 1 2.59 1 13.85 13.85 0 0 1 2.33 1.76 16.6 16.6 0 0 1 2 2.27 22.81 22.81 0 0 1 1.58 2.52zm-1.34 4.67a12.48 12.48 0 0 0-1.26.6 6.19 6.19 0 0 0-1.75 1.35 4.15 4.15 0 0 0-.85 1.46 3.24 3.24 0 0 0-.12 1.42 3.64 3.64 0 0 0 .4 1.25 2.08 2.08 0 0 0 .5.6 2 2 0 0 0 .74.39 2.3 2.3 0 0 0 .94.06 3 3 0 0 0 1.06-.37 3.23 3.23 0 0 0 .82-.7 3.43 3.43 0 0 0 .68-1.21 4.15 4.15 0 0 0 .16-1.66 5.3 5.3 0 0 0-.7-2.07z"/><path class="cls-1" d="M859.78 497.71l-8.83-17 2-1.06q.75.14 1.69.23t2.07.13a14 14 0 0 1 2.28.22 6.76 6.76 0 0 1 1.72.56 4.28 4.28 0 0 1 1.28 1 6.41 6.41 0 0 1 .95 1.39 4.71 4.71 0 0 1 .51 1.74 4.43 4.43 0 0 1-.19 1.78 4.86 4.86 0 0 1-2.45 2.85 7.77 7.77 0 0 1-.81.36 8.1 8.1 0 0 1-1.08.32l3.27 6.31zm-2.15-10.16a4.33 4.33 0 0 0 1.41-.42 1.89 1.89 0 0 0 .85-2.63 3.55 3.55 0 0 0-.66-.92 2.62 2.62 0 0 0-.93-.57 6 6 0 0 0-1.34-.3q-.79-.1-1.93-.16zM878.7 489a12.75 12.75 0 0 0-.88-1.14 7.43 7.43 0 0 0-.89-.87 2.89 2.89 0 0 0-.8-.49.79.79 0 0 0-.64 0 1.61 1.61 0 0 0-.78.79 3.85 3.85 0 0 0-.26 1.48 5 5 0 0 1-.39 2.11 2.46 2.46 0 0 1-1.15 1.08 2.3 2.3 0 0 1-2 .1 2.87 2.87 0 0 1-1.47-1.44 3.69 3.69 0 0 1-.37-1.75 5.13 5.13 0 0 1 .41-1.86 6 6 0 0 1 1.12-1.72 5.86 5.86 0 0 1 1.76-1.31 4.85 4.85 0 0 1 2.65-.49 6.32 6.32 0 0 1 2.7.94 10.53 10.53 0 0 1 2.55 2.27 17.12 17.12 0 0 1 2.19 3.45q-5.67 2.78-6.63 4.87a4.25 4.25 0 0 0-.09 3.73 4.38 4.38 0 0 0 1.67 2 4.18 4.18 0 0 0 2.34.51 10.39 10.39 0 0 0 3-.68 38.4 38.4 0 0 0 3.73-1.62 18.43 18.43 0 0 0 4.4-2.92 11.41 11.41 0 0 0 2.65-3.5 8.4 8.4 0 0 0 .81-3.93 10.38 10.38 0 0 0-1.13-4.23 17.14 17.14 0 0 0-3.44-4.8 15.85 15.85 0 0 0-4.44-3.09 12.38 12.38 0 0 0-4.89-1.15 10.06 10.06 0 0 0-4.75 1 13.2 13.2 0 0 0-2.48 1.58 13.42 13.42 0 0 0-2.09 2.11 12.5 12.5 0 0 0-1.57 2.57 13.12 13.12 0 0 0-.94 2.95l-2.75-.26a15.07 15.07 0 0 1 1.15-3.59 15.73 15.73 0 0 1 1.87-3.17 16.31 16.31 0 0 1 2.53-2.64 15.14 15.14 0 0 1 3-2 12.69 12.69 0 0 1 5.94-1.33 15.55 15.55 0 0 1 6 1.34 18.3 18.3 0 0 1 5.37 3.67 20.21 20.21 0 0 1 4.07 5.66 17.24 17.24 0 0 1 1.87 6.62 14.13 14.13 0 0 1-.86 5.91 14.38 14.38 0 0 1-3.14 4.89 17.69 17.69 0 0 1-5 3.58 18.18 18.18 0 0 1-5.13 1.71 12.09 12.09 0 0 1-4.48-.06 8.71 8.71 0 0 1-3.61-1.68 9.15 9.15 0 0 1-2.53-3.2 7.77 7.77 0 0 1-.82-3.22 7.14 7.14 0 0 1 .67-3.22 10 10 0 0 1 2.2-3 14.6 14.6 0 0 1 3.75-2.56zM927.06 486.6a7.18 7.18 0 0 1-7.06-.6 8.17 8.17 0 0 1-1.62 3.48 7.73 7.73 0 0 1-2.93 2.17 8 8 0 0 1-3.55.69 8.39 8.39 0 0 1-3.43-.88 10.36 10.36 0 0 1-3-2.32 13 13 0 0 1-2.32-3.64 11.63 11.63 0 0 1-1-4.45 10.73 10.73 0 0 1 .76-4.22 11.51 11.51 0 0 1 2.39-3.68 13.1 13.1 0 0 1 3.94-2.79l1.06 2.64a9.27 9.27 0 0 0-2.73 1.81 8.75 8.75 0 0 0-1.88 2.59 8.11 8.11 0 0 0-.77 3.06 7 7 0 0 0 .6 3.2 5.8 5.8 0 0 0 1.21 1.82 4.69 4.69 0 0 0 1.7 1.09 5.11 5.11 0 0 0 2.12.28 7.33 7.33 0 0 0 2.46-.64 8 8 0 0 0 1.91-1.13 3.4 3.4 0 0 0 1.07-1.52 4.39 4.39 0 0 0 .13-2.1 11.82 11.82 0 0 0-.9-2.86l2.56-1.11a12.3 12.3 0 0 0 1.47 2.61 4.45 4.45 0 0 0 1.59 1.35 3.24 3.24 0 0 0 1.78.28 7.41 7.41 0 0 0 2.06-.6 9.66 9.66 0 0 0 2.14-1.26 6.07 6.07 0 0 0 1.46-1.61 4.14 4.14 0 0 0 .23-4q-1.77-4.06-6.78-1.88l-5.52 2.4a18.78 18.78 0 0 1-1.14-4.05 9.81 9.81 0 0 1 0-3.41 6.13 6.13 0 0 1 1.23-2.67 6.33 6.33 0 0 1 2.47-1.82 5.68 5.68 0 0 1 1.9-.47 5.34 5.34 0 0 1 1.84.18 4.17 4.17 0 0 1 1.55.82 3.81 3.81 0 0 1 1.05 1.42 12.29 12.29 0 0 1 .64 2 8.37 8.37 0 0 1 .25 2.16 8 8 0 0 1 5.82 4.74 9.63 9.63 0 0 1 .8 3.69 10.51 10.51 0 0 1-.6 3.73 10.06 10.06 0 0 1-1.89 3.25 8.5 8.5 0 0 1-3.07 2.25zm-9.17-15.51q2.08-.91 3.36-1.43a17.24 17.24 0 0 1 2-.71c-.05-.12-.11-.25-.16-.41s-.11-.29-.16-.41a1.28 1.28 0 0 0-1.06-.73 3 3 0 0 0-1.68.25 3.82 3.82 0 0 0-1.89 1.52 2.85 2.85 0 0 0-.41 1.91zM964.43 455.75a18.82 18.82 0 0 1-.87-4.12 9.81 9.81 0 0 1 .25-3.4 6.14 6.14 0 0 1 1.4-2.58 6.34 6.34 0 0 1 2.59-1.65 5.26 5.26 0 0 1 3.92-.11 4.07 4.07 0 0 1 2.27 2.48 12.31 12.31 0 0 1 .51 2 8.37 8.37 0 0 1 .11 2.17 7.91 7.91 0 0 1 3.33 1.83 8 8 0 0 1 2.17 3.29 10 10 0 0 1 .58 3.73 10.5 10.5 0 0 1-.78 3.66 9.61 9.61 0 0 1-2.05 3.1 8.42 8.42 0 0 1-3.22 2 10.64 10.64 0 0 1-1.71.47 5.24 5.24 0 0 1-1.63 0 6.47 6.47 0 0 1-1.72-.5 10.41 10.41 0 0 1-1.92-1.13 9.6 9.6 0 0 1-2 3.39 7.62 7.62 0 0 1-3.12 2.06 8.73 8.73 0 0 1-3.85.52 8.85 8.85 0 0 1-3.44-1.06 9.77 9.77 0 0 1-2.77-2.29 10.35 10.35 0 0 1-1.83-3.19 9 9 0 0 1-.56-3.26 7.87 7.87 0 0 1 .64-3 7.25 7.25 0 0 1 1.76-2.46 8 8 0 0 1 2.78-1.65l2.83-1a5.12 5.12 0 0 0-1.74-2.18 2.14 2.14 0 0 0-1.95-.33 1.38 1.38 0 0 0-.7 1l-.38 1.3a2.76 2.76 0 0 1-1.73 2 2.19 2.19 0 0 1-3.14-1.55 3 3 0 0 1-.1-1.5 4.76 4.76 0 0 1 .6-1.62 6.08 6.08 0 0 1 1.22-1.47 5.37 5.37 0 0 1 1.79-1 5.77 5.77 0 0 1 5.64.78 10 10 0 0 1 2.31 2.48 19.43 19.43 0 0 1 1.93 3.74l-4.74 1.7q-5.2 1.86-3.71 6a4.85 4.85 0 0 0 2.84 3.09 6.69 6.69 0 0 0 4.74-.2 6.17 6.17 0 0 0 1.86-1 3.53 3.53 0 0 0 1.09-1.54 5.24 5.24 0 0 0 .25-2.18 11.35 11.35 0 0 0-.7-3l2.63-.94a13.43 13.43 0 0 0 1.29 2.75 4.92 4.92 0 0 0 1.5 1.55 3.37 3.37 0 0 0 1.77.51 6 6 0 0 0 2.08-.4 7.33 7.33 0 0 0 2.18-1.2 5.78 5.78 0 0 0 1.43-1.68 5 5 0 0 0 .32-4.14q-1.49-4.17-6.64-2.33zm4.42-6.87a3.73 3.73 0 0 0-2 1.42 3 3 0 0 0-.53 1.86q2.09-.75 3.42-1.18a18.58 18.58 0 0 1 2-.57c0-.14-.07-.3-.12-.46s-.09-.3-.13-.4a1.28 1.28 0 0 0-1-.79 3.06 3.06 0 0 0-1.64.12z"/><path class="cls-1" d="M955.29 450a8.1 8.1 0 0 1-2.06-.61 9.47 9.47 0 0 1-1.82-1.07 7.52 7.52 0 0 1-1.42-1.39 5.22 5.22 0 0 1-.87-1.57 7.18 7.18 0 0 1 1.23-7 13 13 0 0 1 3.42-2.93 28.72 28.72 0 0 1 11.1-3.68 13 13 0 0 1 4.51.31 7.33 7.33 0 0 1 3.22 1.77 7.51 7.51 0 0 1 1.91 3.11 5.32 5.32 0 0 1 .25 1.72 7.49 7.49 0 0 1-.27 1.92 8.89 8.89 0 0 1-.79 1.95 8.71 8.71 0 0 1-1.32 1.8l-2-1.82q1.92-2.54 1.38-4.17a2.51 2.51 0 0 0-1-1.36 3.89 3.89 0 0 0-2-.5 14.61 14.61 0 0 0-3.24.38 44.58 44.58 0 0 0-4.64 1.31 45.14 45.14 0 0 0-4.53 1.73 13.27 13.27 0 0 0-2.81 1.65 4 4 0 0 0-1.31 1.66 2.56 2.56 0 0 0 0 1.72 2.83 2.83 0 0 0 1.28 1.56 7.73 7.73 0 0 0 2.29.88zM999.55 444.15a18.79 18.79 0 0 1-.67-4.16 9.81 9.81 0 0 1 .41-3.38 6.13 6.13 0 0 1 1.52-2.51 6.33 6.33 0 0 1 2.66-1.53 5.26 5.26 0 0 1 3.93.07 4.07 4.07 0 0 1 2.15 2.59 12.28 12.28 0 0 1 .42 2 8.38 8.38 0 0 1 0 2.17 7.9 7.9 0 0 1 3.24 2 8 8 0 0 1 2 3.39 10 10 0 0 1 .4 3.75 10.5 10.5 0 0 1-1 3.62 9.62 9.62 0 0 1-2.2 3 8.42 8.42 0 0 1-3.31 1.88 10.51 10.51 0 0 1-1.73.38 5.22 5.22 0 0 1-1.63 0 6.48 6.48 0 0 1-1.69-.58 10.39 10.39 0 0 1-1.86-1.22 9.61 9.61 0 0 1-2.11 3.29 7.62 7.62 0 0 1-3.22 1.91 8.74 8.74 0 0 1-3.87.34 8.87 8.87 0 0 1-3.39-1.22 9.77 9.77 0 0 1-2.65-2.42 10.35 10.35 0 0 1-1.67-3.28 9 9 0 0 1-.4-3.28 7.87 7.87 0 0 1 .78-3 7.25 7.25 0 0 1 1.88-2.37 8 8 0 0 1 2.85-1.51l2.88-.88a5.12 5.12 0 0 0-1.63-2.26 2.14 2.14 0 0 0-1.93-.43 1.38 1.38 0 0 0-.74.94l-.44 1.28a2.76 2.76 0 0 1-1.82 1.9 2.19 2.19 0 0 1-3.06-1.7 3 3 0 0 1 0-1.51 4.75 4.75 0 0 1 .67-1.59 6.05 6.05 0 0 1 1.29-1.41 5.36 5.36 0 0 1 1.84-1 5.77 5.77 0 0 1 5.6 1 10 10 0 0 1 2.19 2.59 19.42 19.42 0 0 1 1.75 3.83l-4.81 1.47q-5.28 1.61-4 5.85a4.85 4.85 0 0 0 2.69 3.23 6.69 6.69 0 0 0 4.74 0 6.17 6.17 0 0 0 1.9-.92 3.54 3.54 0 0 0 1.16-1.48 5.24 5.24 0 0 0 .35-2.17 11.37 11.37 0 0 0-.56-3l2.67-.81a13.41 13.41 0 0 0 1.16 2.81 4.92 4.92 0 0 0 1.42 1.62 3.37 3.37 0 0 0 1.74.6 6 6 0 0 0 2.1-.3 7.35 7.35 0 0 0 2.24-1.1 5.79 5.79 0 0 0 1.51-1.61 5 5 0 0 0 .52-4.12q-1.29-4.24-6.52-2.64zm4.74-6.65a3.72 3.72 0 0 0-2 1.32 3 3 0 0 0-.61 1.83q2.12-.65 3.48-1a18.82 18.82 0 0 1 2.07-.47c0-.14-.06-.3-.1-.47s-.08-.3-.11-.41a1.28 1.28 0 0 0-1-.84 3.06 3.06 0 0 0-1.73.04zM1016.84 440a7 7 0 0 1-.2-2.71 6.76 6.76 0 0 1 .81-2.48 6.65 6.65 0 0 1 1.74-2 7.19 7.19 0 0 1 2.61-1.26q7.87-2.11 10.47 7.59 1.39 5.2.08 8.5a7.07 7.07 0 0 1-5.09 4.31 6.74 6.74 0 0 1-5.51-.51 7.83 7.83 0 0 1-3.15-4.88l2.69-.72a4.08 4.08 0 0 0 1.52 2.45 2.93 2.93 0 0 0 2.51.32 4.38 4.38 0 0 0 1.53-.72 2.65 2.65 0 0 0 .91-1.4 6.8 6.8 0 0 0 .16-2.42 21.79 21.79 0 0 0-.73-3.77 10.07 10.07 0 0 0-2.24-4.61 3.25 3.25 0 0 0-3.31-.79 2.49 2.49 0 0 0-1.08.62 3.54 3.54 0 0 0-.76 1.07 4.17 4.17 0 0 0-.37 1.33 3.72 3.72 0 0 0 .1 1.38zM1050.47 446.09a12.51 12.51 0 0 1-4.9.24 10.65 10.65 0 0 1-4.11-1.55 11 11 0 0 1-3.1-3 12.21 12.21 0 0 1-1.83-4.19 12.14 12.14 0 0 1 1.18-9 17.64 17.64 0 0 1 2.94-3.86 41.77 41.77 0 0 1 4.18-3.66q2.15-1.63 3.79-3.12t2.85-2.8a26.22 26.22 0 0 0 2-2.46 20.46 20.46 0 0 0 1.34-2.08 3.32 3.32 0 0 1 1.23-1.35 1.93 1.93 0 0 1 1 0 2 2 0 0 1 .7.34 1.67 1.67 0 0 1 .43.47 1.61 1.61 0 0 1 .17.35 2.85 2.85 0 0 1-.55 1.86 18 18 0 0 1-2 2.71q-1.29 1.5-3 3.14t-3.59 3.12a12.63 12.63 0 0 1 4.35.64 11.75 11.75 0 0 1 3.55 1.92 11.47 11.47 0 0 1 2.61 2.94 12.27 12.27 0 0 1 1.53 3.7 10.91 10.91 0 0 1 0 5.23 13.57 13.57 0 0 1-2.2 4.7 15.49 15.49 0 0 1-3.77 3.67 14 14 0 0 1-4.8 2.04zm-2.34-5.32a12.51 12.51 0 0 0 6.52-4 9.66 9.66 0 0 0 1.83-3.28 6.91 6.91 0 0 0 .12-3.78 6.52 6.52 0 0 0-1.34-2.72 7.54 7.54 0 0 0-2.34-1.88 8.7 8.7 0 0 0-3-.91 9 9 0 0 0-3.2.18 8.59 8.59 0 0 0-3.36 1.62 10.81 10.81 0 0 0-2.53 2.8 10.67 10.67 0 0 0-1.41 3.46 8.2 8.2 0 0 0 0 3.63 7 7 0 0 0 1.13 2.53 6 6 0 0 0 1.92 1.74 6.73 6.73 0 0 0 2.56.82 8.7 8.7 0 0 0 3.09-.21zM1063.55 428.54a7 7 0 0 1 0-2.71 6.76 6.76 0 0 1 1-2.43 6.67 6.67 0 0 1 1.86-1.9 7.2 7.2 0 0 1 2.68-1.1q8-1.61 10 8.22 1.07 5.28-.45 8.49a7.07 7.07 0 0 1-5.35 4 6.75 6.75 0 0 1-5.47-.85 7.83 7.83 0 0 1-2.84-5.06l2.73-.55a4.08 4.08 0 0 0 1.36 2.54 2.94 2.94 0 0 0 2.48.47 4.38 4.38 0 0 0 1.45-.66 2.65 2.65 0 0 0 1-1.34 6.81 6.81 0 0 0 .31-2.41 21.78 21.78 0 0 0-.49-3.81 10.07 10.07 0 0 0-1.95-4.74 3.25 3.25 0 0 0-3.25-1 2.47 2.47 0 0 0-1.12.55 3.54 3.54 0 0 0-.83 1 4.17 4.17 0 0 0-.45 1.3 3.71 3.71 0 0 0 0 1.38zM1122.46 417.59a10.09 10.09 0 0 0-.38-1.56q-.28-.88-.67-1.81a19.52 19.52 0 0 0-.84-1.77 13.41 13.41 0 0 0-.91-1.47 8.6 8.6 0 0 1-2.16 1.52 8.12 8.12 0 0 1-2.39.76 5.93 5.93 0 0 1-2.36-.09 5.33 5.33 0 0 1-1.92-.9 5 5 0 0 1-1.35-1.55 5.86 5.86 0 0 1-.69-2 6.87 6.87 0 0 1-.08-1.12 6.26 6.26 0 0 1 .13-1.1 14.27 14.27 0 0 1 .38-1.44l.67-2.17a8 8 0 0 0 .24-1.09l.2-1.33 1.68-.25a47.64 47.64 0 0 1 5.22 4.3 37.55 37.55 0 0 1 4 4.47 25.49 25.49 0 0 1 2.72 4.41 14.75 14.75 0 0 1 1.32 4.12 18.09 18.09 0 0 1-.07 6.33 11.92 11.92 0 0 1-2.23 5 12.62 12.62 0 0 1-4.32 3.49 20.39 20.39 0 0 1-6.3 1.91 19.32 19.32 0 0 1-5.43.1 12.62 12.62 0 0 1-4.36-1.35 9 9 0 0 1-3.06-2.67 8.65 8.65 0 0 1-1.51-3.84 8.79 8.79 0 0 1 0-2.74 5.68 5.68 0 0 1 .87-2.26l-2.22.33-.37-2.52 11.66-1.74a6.81 6.81 0 0 0-.5-1.75 6.1 6.1 0 0 0-.81-1.37 3.26 3.26 0 0 0-1-.85 1.62 1.62 0 0 0-1-.21.91.91 0 0 0-.59.57q-.27.52-.64 1.16a6.34 6.34 0 0 1-.93 1.2 2.37 2.37 0 0 1-1.39.69 2.19 2.19 0 0 1-2.78-2.13 2.41 2.41 0 0 1 .27-1.45 5.25 5.25 0 0 1 1-1.4 7 7 0 0 1 1.52-1.12 5.11 5.11 0 0 1 1.72-.6 5.43 5.43 0 0 1 3 .36 6.93 6.93 0 0 1 2.48 1.87 11.11 11.11 0 0 1 1.83 3.09 17.47 17.47 0 0 1 1.07 4l-5.22.78a6.64 6.64 0 0 0-4 1.68 3.48 3.48 0 0 0-.92 3 4 4 0 0 0 1 2.24 4.46 4.46 0 0 0 2.14 1.2 11.5 11.5 0 0 0 3.27.31 36.58 36.58 0 0 0 4.38-.42q5.9-.88 8.57-3.54t2.06-7.28zm-7.17-7.31a4.61 4.61 0 0 0 1.44-.46 3.68 3.68 0 0 0 1.17-.95q-1.58-1.7-3-3a29.53 29.53 0 0 0-2.5-2.06q-.38 1.33-.58 2.22a4.3 4.3 0 0 0-.1 1.56 2.89 2.89 0 0 0 .43 1.15 3.22 3.22 0 0 0 .84.88 3.58 3.58 0 0 0 1.09.53 2.73 2.73 0 0 0 1.21.13zM1153.21 408.12a10.79 10.79 0 0 0-2.06.42 17.35 17.35 0 0 0-2.16.81 20.23 20.23 0 0 0-2.13 1.13 22.5 22.5 0 0 0-2 1.36l.32-.06h.3a9.87 9.87 0 0 1 3.46.27 9.07 9.07 0 0 1 3 1.42 8.3 8.3 0 0 1 2.26 2.47 8.66 8.66 0 0 1 .45 7.63 9.25 9.25 0 0 1-2.49 3.24 13 13 0 0 1-3.84 2.2 19.65 19.65 0 0 1-12.91.17 11.35 11.35 0 0 1-5.57-4.46l1.68-1.4a3.22 3.22 0 0 0 1.73 1.12 2.09 2.09 0 0 0 1.08-1.19q.64-1.15 1.67-3.31 1.18-2.53 2.12-4.3a18.63 18.63 0 0 1 1.8-2.84 9.78 9.78 0 0 0-.48-1.73 7.2 7.2 0 0 0-.7-1.39 3.67 3.67 0 0 0-.8-.9 1.14 1.14 0 0 0-.8-.28 1.11 1.11 0 0 0-.63.25 2.15 2.15 0 0 0-.46.59 5.47 5.47 0 0 0-.39.92q-.18.54-.45 1.2a6.54 6.54 0 0 1-.27.88 3.28 3.28 0 0 1-.49.86 2.85 2.85 0 0 1-.79.68 2.73 2.73 0 0 1-1.15.35 2.44 2.44 0 0 1-2-.59 3.1 3.1 0 0 1-.89-2 4.13 4.13 0 0 1 .3-1.86 6.66 6.66 0 0 1 1.15-1.92 7.53 7.53 0 0 1 1.85-1.58 5.66 5.66 0 0 1 2.45-.8 4.76 4.76 0 0 1 2.08.24 5.65 5.65 0 0 1 1.78 1 7.76 7.76 0 0 1 1.45 1.69 12.22 12.22 0 0 1 1.12 2.21 30.68 30.68 0 0 1 2.93-2.51A24.84 24.84 0 0 1 1148 406a22.21 22.21 0 0 1 3.36-1.47 14.93 14.93 0 0 1 3.36-.74 15.12 15.12 0 0 1 3.91.11 14.21 14.21 0 0 1 6.74 3 14 14 0 0 1 2.54 2.71 14.71 14.71 0 0 1 1.8 3.38 15.29 15.29 0 0 1 .91 4 13.54 13.54 0 0 1-.19 4 12.27 12.27 0 0 1-1.22 3.46 8.16 8.16 0 0 1-2 2.49 4.84 4.84 0 0 1-2.61 1.1q-1.74.17-4.38-1.58l1.5-2.37a4.38 4.38 0 0 0 2.56 1.18 2.14 2.14 0 0 0 1.26-.6 4.21 4.21 0 0 0 1-1.4 8 8 0 0 0 .56-2 9 9 0 0 0 .06-2.33 8.26 8.26 0 0 0-.74-2.62 13 13 0 0 0-1.6-2.61 15.88 15.88 0 0 0-2.29-2.36 15 15 0 0 0-2.81-1.87 13.81 13.81 0 0 0-3.15-1.16 10.11 10.11 0 0 0-3.36-.2zm-7.57 6.37a8.23 8.23 0 0 0-1.07.19q-.6.14-1.23.34t-1.2.42q-.57.22-.91.39a26.33 26.33 0 0 0-2.65 5.26q-.53 1.29-1 2.2t-.87 1.5a26.17 26.17 0 0 0 5.57 0 29.92 29.92 0 0 0 6.62-1.14 5.4 5.4 0 0 0 2.51-1.71 3.91 3.91 0 0 0 .65-2.82 4.4 4.4 0 0 0-.64-1.89 5.47 5.47 0 0 0-1.4-1.53 6 6 0 0 0-2-1 6.42 6.42 0 0 0-2.38-.21zM1205.39 425.91a22 22 0 0 1-5.81-.54 13.13 13.13 0 0 1-4.36-1.86 8.61 8.61 0 0 1-2.76-3 8.89 8.89 0 0 1-1-4 8.68 8.68 0 0 1 .51-3.27 6.83 6.83 0 0 1 1.76-2.65 8.85 8.85 0 0 1 3.06-1.81 13.91 13.91 0 0 1 4.4-.75 12.87 12.87 0 0 0-.33-1.4 7.37 7.37 0 0 0-.44-1.16 2.71 2.71 0 0 0-.54-.78.84.84 0 0 0-.6-.27 1.64 1.64 0 0 0-1 .4 3.61 3.61 0 0 0-.88 1.24 4.82 4.82 0 0 1-1.21 1.76 2.46 2.46 0 0 1-1.49.51 2.29 2.29 0 0 1-1.87-.74 2.91 2.91 0 0 1-.72-1.92 3.69 3.69 0 0 1 .39-1.75 5.13 5.13 0 0 1 1.15-1.52 6 6 0 0 1 1.73-1.1 5.87 5.87 0 0 1 2.15-.46 4.86 4.86 0 0 1 2.62.65 6.32 6.32 0 0 1 2.06 2 10.51 10.51 0 0 1 1.37 3.12 17.09 17.09 0 0 1 .56 4q-1.91.11-3.59.32a11.19 11.19 0 0 0-2.93.74 4.69 4.69 0 0 0-2 1.46 3.83 3.83 0 0 0-.67 2.49 4.12 4.12 0 0 0 .72 2.43 4 4 0 0 0 2 1.34 11.9 11.9 0 0 0 3.2.54q1.9.1 4.36 0a48.19 48.19 0 0 0 4.9-.35 15.13 15.13 0 0 0 3.53-.84 5.12 5.12 0 0 0 2.14-1.43 3.13 3.13 0 0 0 .68-2.15 3.85 3.85 0 0 0-.59-2 4.93 4.93 0 0 0-1.53-1.52 7.35 7.35 0 0 0-2.35-.95 12 12 0 0 0-3-.27l-2.87.08a17.33 17.33 0 0 1 .52-3.86 12.27 12.27 0 0 1 1.29-3.22 7.23 7.23 0 0 1 2-2.21 4.4 4.4 0 0 1 2.51-.86 5.37 5.37 0 0 1 2 .3 4.91 4.91 0 0 1 1.63 1 4.64 4.64 0 0 1 1.12 1.53 5.09 5.09 0 0 1 .45 2v1a10.85 10.85 0 0 1-.15 1.14 12.1 12.1 0 0 1-.28 1.2 6.89 6.89 0 0 1-.43 1.13 7.06 7.06 0 0 1 3.07 6.13 8 8 0 0 1-.93 4.1 9.22 9.22 0 0 1-2.87 3.16 14.88 14.88 0 0 1-4.55 2.08 24.41 24.41 0 0 1-6.13.79zm6.36-20.5a2.28 2.28 0 0 0-1.69.7 4.22 4.22 0 0 0-.93 1.64 20 20 0 0 1 2.64.15 13.39 13.39 0 0 1 2.3.48 4.25 4.25 0 0 0 .15-.88v-.66a1.25 1.25 0 0 0-.71-1.06 3.34 3.34 0 0 0-1.76-.37z"/><path class="cls-1" d="M1216.89 435.86l-.3-18.48 3.25-.05.34 21.22-24.66.4a6.6 6.6 0 0 1-2.3-.35 5.14 5.14 0 0 1-1.79-1.05 4.67 4.67 0 0 1-1.16-1.68 6 6 0 0 1-.43-2.22 5.65 5.65 0 0 1 .4-2.22 5.59 5.59 0 0 1 1.17-1.82 5.78 5.78 0 0 1 1.78-1.25 5.5 5.5 0 0 1 2.21-.49 6.27 6.27 0 0 1 3.64 1.08 7.36 7.36 0 0 1 2.64 3.36l-2.36 1.16q-1.66-2.84-3.57-2.81a3.32 3.32 0 0 0-2.28.84 2.61 2.61 0 0 0-.87 2.05 2.58 2.58 0 0 0 .8 2 3 3 0 0 0 2.09.66zM1235.85 407.59a12.9 12.9 0 0 0-.26-1.41 7.4 7.4 0 0 0-.39-1.18 2.91 2.91 0 0 0-.49-.8.8.8 0 0 0-.57-.3 1.61 1.61 0 0 0-1.06.35 3.85 3.85 0 0 0-.91 1.2 5 5 0 0 1-1.31 1.7 2.46 2.46 0 0 1-1.51.44 2.29 2.29 0 0 1-1.82-.82 2.87 2.87 0 0 1-.65-2 3.69 3.69 0 0 1 .47-1.73 5.13 5.13 0 0 1 1.21-1.47 6 6 0 0 1 1.78-1 5.87 5.87 0 0 1 2.17-.36 4.85 4.85 0 0 1 2.59.77 6.32 6.32 0 0 1 2 2.07 10.51 10.51 0 0 1 1.23 3.18 17.09 17.09 0 0 1 .39 4.07q-6.32-.1-8.12 1.32a4.25 4.25 0 0 0-1.78 3.28 4.38 4.38 0 0 0 .6 2.5 4.18 4.18 0 0 0 1.85 1.52 10.41 10.41 0 0 0 3 .77 38.5 38.5 0 0 0 4.06.26 18.46 18.46 0 0 0 5.25-.6 11.42 11.42 0 0 0 4-1.9 8.4 8.4 0 0 0 2.51-3.13 10.37 10.37 0 0 0 .92-4.28 17.14 17.14 0 0 0-.88-5.84 15.87 15.87 0 0 0-2.55-4.77 12.38 12.38 0 0 0-3.83-3.25A10.06 10.06 0 0 0 1239 395a13.22 13.22 0 0 0-2.93.28 13.44 13.44 0 0 0-2.82.93 12.5 12.5 0 0 0-2.57 1.57 13.12 13.12 0 0 0-2.18 2.19l-2.33-1.49a15.07 15.07 0 0 1 2.6-2.72 15.75 15.75 0 0 1 3.11-2 16.32 16.32 0 0 1 3.45-1.2 15.11 15.11 0 0 1 3.6-.38 12.7 12.7 0 0 1 5.9 1.52 15.54 15.54 0 0 1 4.72 3.92 18.28 18.28 0 0 1 3.11 5.71 20.22 20.22 0 0 1 1.05 6.89 17.24 17.24 0 0 1-1.35 6.75 14.13 14.13 0 0 1-3.46 4.87 14.4 14.4 0 0 1-5 2.93 17.68 17.68 0 0 1-6.06.93 18.19 18.19 0 0 1-5.35-.81 12.09 12.09 0 0 1-4-2.09 8.71 8.71 0 0 1-2.45-3.14 9.15 9.15 0 0 1-.8-4 7.77 7.77 0 0 1 .74-3.24 7.13 7.13 0 0 1 2.07-2.56 10 10 0 0 1 3.32-1.67 14.59 14.59 0 0 1 4.48-.6zM1258.88 424.53q3.56-11.4 9.52-17a3.9 3.9 0 0 0-.18-.92 3.49 3.49 0 0 0-.41-.87 2.68 2.68 0 0 0-.59-.65 1.27 1.27 0 0 0-.71-.28.74.74 0 0 0-.69.34 5.51 5.51 0 0 0-.57 1.39 12.51 12.51 0 0 1-.57 1.61 3.28 3.28 0 0 1-.65 1 1.92 1.92 0 0 1-.85.49 3.71 3.71 0 0 1-1.2.09 2.46 2.46 0 0 1-1-.3 2.63 2.63 0 0 1-.81-.68 2.8 2.8 0 0 1-.49-.95 3.13 3.13 0 0 1-.12-1.1 5.35 5.35 0 0 1 .5-1.86 6.44 6.44 0 0 1 1.22-1.8 5.94 5.94 0 0 1 1.86-1.31 5.07 5.07 0 0 1 2.45-.41 5 5 0 0 1 3.21 1.32 7.48 7.48 0 0 1 1.95 3.05 15.2 15.2 0 0 1 2.34-1.57 17.31 17.31 0 0 1 2.51-1.12 14.78 14.78 0 0 1 2.46-.64 10 10 0 0 1 2.24-.13 13.24 13.24 0 0 1 5 1.3 12.84 12.84 0 0 1 4 3 13.25 13.25 0 0 1 2.61 4.53 15.38 15.38 0 0 1-.08 9.71 13.23 13.23 0 0 1-1.69 3.33 8.39 8.39 0 0 1-2.32 2.25 4.45 4.45 0 0 1-2.72.74 7 7 0 0 1-4.05-2.25l1.86-2.1a4.17 4.17 0 0 0 2.31 1.57 2.29 2.29 0 0 0 1.31-.32 3.44 3.44 0 0 0 1.11-1.05 6.16 6.16 0 0 0 .79-1.69 9.36 9.36 0 0 0 .38-2.2 11.69 11.69 0 0 0-.59-4.38 13.55 13.55 0 0 0-2.12-4 12.35 12.35 0 0 0-3.33-3 9 9 0 0 0-4.26-1.35 9.43 9.43 0 0 0-3.83.52 12.8 12.8 0 0 0-3.6 2.09l1.11-.07a9.92 9.92 0 0 1 1 0 10.84 10.84 0 0 1 4 1 10 10 0 0 1 3 2.15 8.77 8.77 0 0 1 1.88 3 8.52 8.52 0 0 1 .52 3.55 7.38 7.38 0 0 1-1.16 3.61 9.25 9.25 0 0 1-2.63 2.67 11.51 11.51 0 0 1-3.65 1.6 13.52 13.52 0 0 1-4.17.38 10.71 10.71 0 0 1-6.18-2.33 6 6 0 0 0-.92-.6 1.9 1.9 0 0 0-.7-.23q-.9-.06-1.87 1.94zM1273 411.6a9.41 9.41 0 0 0-5.79 1.39 13.37 13.37 0 0 0-1 1.45q-.55.93-1.14 2t-1.13 2.27q-.54 1.17-.93 2.16a7 7 0 0 1 1.87-.13q.49 0 1.27.12l1.58.18 1.51.16 1.06.09a23.07 23.07 0 0 0 4.14-.06 9.36 9.36 0 0 0 2.8-.72 3.79 3.79 0 0 0 1.62-1.31 3.75 3.75 0 0 0 .6-1.87 4 4 0 0 0-.4-1.94 6 6 0 0 0-1.31-1.81 7.35 7.35 0 0 0-2.08-1.38 7.64 7.64 0 0 0-2.67-.6z"/><path class="cls-1" d="M1289.36 409l1.68-19.12 2.29.2q.56.52 1.3 1.1t1.68 1.22a13.93 13.93 0 0 1 1.81 1.41 6.74 6.74 0 0 1 1.15 1.39 4.28 4.28 0 0 1 .57 1.49 6.43 6.43 0 0 1 .06 1.68 4.71 4.71 0 0 1-.5 1.74 4.43 4.43 0 0 1-1.11 1.4 4.86 4.86 0 0 1-3.6 1.1 7.81 7.81 0 0 1-.88-.13 8.12 8.12 0 0 1-1.08-.31l-.62 7.08zm3.62-9.73a4.3 4.3 0 0 0 1.42.4 1.89 1.89 0 0 0 2.13-1.76 3.54 3.54 0 0 0-.07-1.13 2.61 2.61 0 0 0-.48-1 6 6 0 0 0-1-1q-.61-.51-1.54-1.16zM1345.64 419.11l-18.13-2.4a13.4 13.4 0 0 0-2.5-.1 13.92 13.92 0 0 0-2.5.37 9.15 9.15 0 0 0 .57 3.07 8.06 8.06 0 0 0 1.55 2.56 8.42 8.42 0 0 0 2.46 1.87 10 10 0 0 0 3.29 1 15.93 15.93 0 0 0 2.88.15 8.92 8.92 0 0 0 2.37-.43 8 8 0 0 0 2.07-1 12.65 12.65 0 0 0 1.94-1.72l2 1.82q-5.24 6.45-11.75 5.59a11.38 11.38 0 0 1-7.2-3.45 12.28 12.28 0 0 1-2.91-7.74 5.13 5.13 0 0 0-1.08 1.52 6.87 6.87 0 0 0-.46 1.8 12.87 12.87 0 0 0 0 3.7 14.91 14.91 0 0 0 1 3.6 16.67 16.67 0 0 0 1.89 3.3 16.35 16.35 0 0 0 2.58 2.78 14.18 14.18 0 0 0 3.14 2 11.89 11.89 0 0 0 3.54 1 15.53 15.53 0 0 0 4.75 0 10.4 10.4 0 0 0 3.89-1.47A8.77 8.77 0 0 0 1342 434a11.13 11.13 0 0 0 1.43-4.33l2.74.36a14.68 14.68 0 0 1-1.74 5.4 11.19 11.19 0 0 1-3.55 3.82 13.91 13.91 0 0 1-5.32 2 22.8 22.8 0 0 1-7 0 20.4 20.4 0 0 1-6.71-2.06 17.63 17.63 0 0 1-5.2-4 15.48 15.48 0 0 1-3.14-5.44 14.23 14.23 0 0 1-.57-6.46 10.41 10.41 0 0 1 .79-2.82 11.51 11.51 0 0 1 1.52-2.53 11.24 11.24 0 0 1 2.17-2.08 11 11 0 0 1 2.72-1.46 11.7 11.7 0 0 1 1.14-3.31 9 9 0 0 1 1.92-2.49 7.17 7.17 0 0 1 2.55-1.48 6.71 6.71 0 0 1 3-.26 7.39 7.39 0 0 1 2.83 1 7.49 7.49 0 0 1 2.25 2 6.13 6.13 0 0 1 2.67-1.45 9 9 0 0 1 3.35-.12 6.18 6.18 0 0 1 2.67 1 7.5 7.5 0 0 1 2 2 8.33 8.33 0 0 1 1.35 5.76zm-13.39-5.36a4.09 4.09 0 0 0-.4-1.6 4.16 4.16 0 0 0-.85-1.15 4.46 4.46 0 0 0-1.2-.81 4.89 4.89 0 0 0-1.41-.41 3.65 3.65 0 0 0-1.66.17 5.18 5.18 0 0 0-1.55.84 6.19 6.19 0 0 0-1.29 1.39 7.08 7.08 0 0 0-.89 1.8 20.82 20.82 0 0 1 2.66-.09 27.17 27.17 0 0 1 2.76.23l14.77 2a5.43 5.43 0 0 0-.25-1.73 5 5 0 0 0-.76-1.48 4.17 4.17 0 0 0-1.19-1.08 4.09 4.09 0 0 0-1.6-.54 4.85 4.85 0 0 0-1.51 0 4.66 4.66 0 0 0-1.42.5 4.45 4.45 0 0 0-1.19.95 3.94 3.94 0 0 0-.79 1.37zM1365.2 438a15.9 15.9 0 0 1-5.77-2.18 13.82 13.82 0 0 1-4-3.79 13.25 13.25 0 0 1-2.08-4.87 13.92 13.92 0 0 1-.05-5.4 14.3 14.3 0 0 1 1.3-3.9 13.64 13.64 0 0 1 2.09-3.09 8.48 8.48 0 0 1 2.51-1.93 4 4 0 0 1 2.51-.43 3.88 3.88 0 0 1 1.51.55 2.18 2.18 0 0 1 .79 1 4.07 4.07 0 0 1 .26 1.49q0 .88-.1 2.05a9.88 9.88 0 0 0 .07 3.85 3.12 3.12 0 0 0 .58 1 4.63 4.63 0 0 0 .92.83 5.89 5.89 0 0 0 1.13.61 6.08 6.08 0 0 0 1.23.36 5.22 5.22 0 0 0 1.94 0 4.54 4.54 0 0 0 1.65-.66 4.29 4.29 0 0 0 1.23-1.24 4.66 4.66 0 0 0 .68-1.75 1.47 1.47 0 0 0 0-.33 4.26 4.26 0 0 1-4.66 2.4 4.3 4.3 0 0 1-1.68-.67 4.16 4.16 0 0 1-1.77-2.69 4.48 4.48 0 0 1 0-1.7 4.41 4.41 0 0 1 .6-1.56 4.13 4.13 0 0 1 1.12-1.2 4.42 4.42 0 0 1 1.51-.68 4.24 4.24 0 0 1 1.79 0 8.38 8.38 0 0 1 2.78 1 6.41 6.41 0 0 1 1.93 1.7 5.81 5.81 0 0 1 1 2.19 6 6 0 0 1 0 2.43 6.56 6.56 0 0 1-1.12 2.71 6.74 6.74 0 0 1-2 1.86 7.51 7.51 0 0 1-2.65.95 8.52 8.52 0 0 1-2.93 0 8.85 8.85 0 0 1-2.48-.83 7.59 7.59 0 0 1-2-1.43 7 7 0 0 1-1.33-1.9 6.21 6.21 0 0 1-.59-2.23 11 11 0 0 1 0-1.89q.09-.93.18-1.68a11.16 11.16 0 0 0 .1-1.23.44.44 0 0 0-.26-.53 2 2 0 0 0-1.46.4 6.5 6.5 0 0 0-1.52 1.46 11.25 11.25 0 0 0-1.3 2.17 10.36 10.36 0 0 0-.81 2.52 7.23 7.23 0 0 0 .25 3.74 8.35 8.35 0 0 0 2 3.14 12.16 12.16 0 0 0 3.4 2.37 17.41 17.41 0 0 0 4.48 1.43 18.53 18.53 0 0 0 5.7.22 13.45 13.45 0 0 0 4.67-1.43 10.08 10.08 0 0 0 3.36-2.85 9.46 9.46 0 0 0 1.74-4 15.26 15.26 0 0 0 .21-3.81 15.59 15.59 0 0 0-.71-3.72 16.54 16.54 0 0 0-1.53-3.39 14 14 0 0 0-2.28-2.89 13.24 13.24 0 0 0-3-2.17 12 12 0 0 0-3.55-1.23 10.4 10.4 0 0 0-2.76-.1 14.78 14.78 0 0 0-3.06.61 16.74 16.74 0 0 0-3.09 1.31 15.41 15.41 0 0 0-2.86 2l-1.71-2.18a14.35 14.35 0 0 1 3.15-2.4 16 16 0 0 1 3.61-1.48 17.58 17.58 0 0 1 7.72-.34 13 13 0 0 1 3.75 1.31 15.66 15.66 0 0 1 3.36 2.39 17.95 17.95 0 0 1 4.71 7.31 19.46 19.46 0 0 1 .95 4.54 18 18 0 0 1-.24 4.89 17.76 17.76 0 0 1-2.24 6 14.9 14.9 0 0 1-9.85 7 17.86 17.86 0 0 1-7.03-.01zm4.26-18.12a1.5 1.5 0 0 0 1.17-.24 1.54 1.54 0 0 0 .65-1 1.46 1.46 0 0 0-.25-1.16 1.53 1.53 0 0 0-1-.63 1.57 1.57 0 0 0-1.19.23 1.46 1.46 0 0 0-.64 1 1.54 1.54 0 0 0 1.26 1.78zM1386.93 427.69a7 7 0 0 1 1.06-2.5 6.76 6.76 0 0 1 1.86-1.83 6.67 6.67 0 0 1 2.47-1 7.19 7.19 0 0 1 2.89.07q8 1.74 5.81 11.55-1.15 5.26-3.83 7.59a7.07 7.07 0 0 1-6.5 1.49 6.74 6.74 0 0 1-4.67-3 7.83 7.83 0 0 1-.55-5.78l2.72.6a4.08 4.08 0 0 0 .22 2.88 2.94 2.94 0 0 0 2.08 1.44 4.4 4.4 0 0 0 1.69.06 2.64 2.64 0 0 0 1.46-.83 6.8 6.8 0 0 0 1.25-2.08 21.79 21.79 0 0 0 1.09-3.68 10.07 10.07 0 0 0 .13-5.12 3.25 3.25 0 0 0-2.58-2.22 2.48 2.48 0 0 0-1.24 0 3.55 3.55 0 0 0-1.17.6 4.18 4.18 0 0 0-.94 1 3.71 3.71 0 0 0-.54 1.27zM1430 452.7a22 22 0 0 1-5.41-2.21 13.14 13.14 0 0 1-3.63-3.05 8.6 8.6 0 0 1-1.76-3.7 8.89 8.89 0 0 1 .19-4.16 8.68 8.68 0 0 1 1.44-3 6.83 6.83 0 0 1 2.45-2 8.84 8.84 0 0 1 3.45-.84 13.91 13.91 0 0 1 4.43.56 12.89 12.89 0 0 0 .1-1.43 7.41 7.41 0 0 0-.08-1.24 2.72 2.72 0 0 0-.29-.9.84.84 0 0 0-.49-.43 1.65 1.65 0 0 0-1.09.08 3.61 3.61 0 0 0-1.21.93 4.82 4.82 0 0 1-1.67 1.33 2.46 2.46 0 0 1-1.57.05 2.29 2.29 0 0 1-1.57-1.25 2.9 2.9 0 0 1-.13-2 3.69 3.69 0 0 1 .88-1.56 5.14 5.14 0 0 1 1.54-1.12 6 6 0 0 1 2-.55 5.87 5.87 0 0 1 2.19.19 4.86 4.86 0 0 1 2.31 1.39 6.32 6.32 0 0 1 1.4 2.5 10.51 10.51 0 0 1 .4 3.39 17.1 17.1 0 0 1-.64 4q-1.86-.45-3.53-.74a11.2 11.2 0 0 0-3-.15 4.69 4.69 0 0 0-2.31.83 3.83 3.83 0 0 0-1.37 2.19 4.12 4.12 0 0 0 0 2.53 4 4 0 0 0 1.5 1.86 11.88 11.88 0 0 0 2.91 1.45q1.79.65 4.17 1.3a48.35 48.35 0 0 0 4.79 1.09 15.12 15.12 0 0 0 3.62.23 5.13 5.13 0 0 0 2.46-.74 3.13 3.13 0 0 0 1.28-1.86 3.85 3.85 0 0 0 0-2.07 4.94 4.94 0 0 0-1-1.9 7.36 7.36 0 0 0-2-1.59 11.93 11.93 0 0 0-2.81-1.14l-2.77-.76a17.32 17.32 0 0 1 1.62-3.54 12.25 12.25 0 0 1 2.17-2.71 7.22 7.22 0 0 1 2.52-1.55 4.4 4.4 0 0 1 2.65-.1 5.37 5.37 0 0 1 1.79.86 4.9 4.9 0 0 1 1.28 1.39 4.65 4.65 0 0 1 .63 1.79 5.08 5.08 0 0 1-.16 2.07q-.11.4-.31.91a10.77 10.77 0 0 1-.47 1 12.24 12.24 0 0 1-.62 1.06 6.9 6.9 0 0 1-.74 1 7.06 7.06 0 0 1 1.15 6.75 8 8 0 0 1-2.08 3.65 9.21 9.21 0 0 1-3.66 2.19 14.88 14.88 0 0 1-5 .67 24.41 24.41 0 0 1-5.95-.95zm12-17.76a2.29 2.29 0 0 0-1.82.18 4.22 4.22 0 0 0-1.36 1.3 20.09 20.09 0 0 1 2.49.91 13.41 13.41 0 0 1 2.06 1.13 4.25 4.25 0 0 0 .4-.8q.16-.41.21-.62a1.25 1.25 0 0 0-.37-1.22 3.33 3.33 0 0 0-1.61-.89zM1460 461.59a12.51 12.51 0 0 1-4.33-2.32 10.66 10.66 0 0 1-2.73-3.44 11 11 0 0 1-1.1-4.19 12.21 12.21 0 0 1 .59-4.53 12.14 12.14 0 0 1 5.66-7.13 17.67 17.67 0 0 1 4.51-1.8 41.72 41.72 0 0 1 5.47-1q2.68-.29 4.86-.73t3.89-.94a26.25 26.25 0 0 0 3-1.06 20.32 20.32 0 0 0 2.22-1.1 3.32 3.32 0 0 1 1.75-.53 1.93 1.93 0 0 1 .84.48 2 2 0 0 1 .42.65 1.68 1.68 0 0 1 .13.63 1.6 1.6 0 0 1 0 .39 2.85 2.85 0 0 1-1.42 1.31 18 18 0 0 1-3.1 1.3q-1.88.62-4.2 1.14t-4.69.83a12.62 12.62 0 0 1 3.4 2.78 11.75 11.75 0 0 1 2.06 3.47 11.47 11.47 0 0 1 .73 3.87 12.26 12.26 0 0 1-.59 4 10.91 10.91 0 0 1-2.71 4.47 13.57 13.57 0 0 1-4.3 2.9 15.49 15.49 0 0 1-5.12 1.2 14 14 0 0 1-5.24-.65zm.73-5.77a12.51 12.51 0 0 0 7.65-.08 9.68 9.68 0 0 0 3.25-1.87 6.91 6.91 0 0 0 2-3.18 6.52 6.52 0 0 0 .25-3 7.53 7.53 0 0 0-1-2.82 8.72 8.72 0 0 0-2.08-2.3 9.06 9.06 0 0 0-2.84-1.5 8.61 8.61 0 0 0-3.71-.34 10.81 10.81 0 0 0-3.61 1.1 10.65 10.65 0 0 0-3 2.25 8.21 8.21 0 0 0-1.85 3.13 7 7 0 0 0-.33 2.75 6 6 0 0 0 .76 2.48 6.71 6.71 0 0 0 1.78 2 8.69 8.69 0 0 0 2.76 1.38zM1490.86 472.14a22 22 0 0 1-5.2-2.65 13.15 13.15 0 0 1-3.36-3.34 8.61 8.61 0 0 1-1.45-3.84 8.89 8.89 0 0 1 .54-4.13 8.67 8.67 0 0 1 1.69-2.85 6.82 6.82 0 0 1 2.61-1.81 8.86 8.86 0 0 1 3.51-.55 13.9 13.9 0 0 1 4.36.93 12.88 12.88 0 0 0 .22-1.42 7.39 7.39 0 0 0 0-1.25 2.73 2.73 0 0 0-.21-.92.84.84 0 0 0-.45-.47 1.65 1.65 0 0 0-1.09 0 3.61 3.61 0 0 0-1.28.83 4.82 4.82 0 0 1-1.77 1.18 2.45 2.45 0 0 1-1.57-.08 2.29 2.29 0 0 1-1.46-1.38 2.91 2.91 0 0 1 0-2.05 3.69 3.69 0 0 1 1-1.48 5.13 5.13 0 0 1 1.63-1 6 6 0 0 1 2-.38 5.87 5.87 0 0 1 2.16.37 4.86 4.86 0 0 1 2.19 1.57 6.32 6.32 0 0 1 1.19 2.61 10.51 10.51 0 0 1 .12 3.41 17.1 17.1 0 0 1-1 4q-1.82-.61-3.45-1a11.23 11.23 0 0 0-3-.4 4.7 4.7 0 0 0-2.37.63 3.83 3.83 0 0 0-1.55 2.07 4.12 4.12 0 0 0-.23 2.52 4 4 0 0 0 1.34 2 11.9 11.9 0 0 0 2.77 1.69q1.73.8 4 1.64a48.32 48.32 0 0 0 4.68 1.49 15.17 15.17 0 0 0 3.59.53 5.12 5.12 0 0 0 2.51-.54 3.13 3.13 0 0 0 1.43-1.75 3.85 3.85 0 0 0 .19-2.06 5 5 0 0 0-.86-2 7.36 7.36 0 0 0-1.83-1.75 12 12 0 0 0-2.7-1.37l-2.7-1a17.36 17.36 0 0 1 1.91-3.39 12.27 12.27 0 0 1 2.39-2.51 7.22 7.22 0 0 1 2.64-1.33 4.39 4.39 0 0 1 2.65.13 5.36 5.36 0 0 1 1.71 1 4.89 4.89 0 0 1 1.16 1.49 4.64 4.64 0 0 1 .48 1.83 5.08 5.08 0 0 1-.33 2q-.14.39-.38.88a10.86 10.86 0 0 1-.56 1 12.28 12.28 0 0 1-.7 1 6.9 6.9 0 0 1-.82.89 7.06 7.06 0 0 1 .58 6.83 8 8 0 0 1-2.38 3.47 9.22 9.22 0 0 1-3.83 1.87 14.89 14.89 0 0 1-5 .25 24.4 24.4 0 0 1-5.72-1.41zm13.49-16.69a2.28 2.28 0 0 0-1.83 0 4.22 4.22 0 0 0-1.47 1.18 20.08 20.08 0 0 1 2.4 1.11 13.32 13.32 0 0 1 2 1.3 4.29 4.29 0 0 0 .47-.76c.13-.26.21-.46.26-.6a1.25 1.25 0 0 0-.27-1.25 3.33 3.33 0 0 0-1.56-.98z"/><path class="cls-1" d="M1497.69 485.51l6.75-17.21 3 1.19-7.74 19.75-23-9a6.6 6.6 0 0 1-2-1.19 5.15 5.15 0 0 1-1.26-1.65 4.67 4.67 0 0 1-.44-2 6 6 0 0 1 .44-2.22 5.64 5.64 0 0 1 1.22-1.9 5.57 5.57 0 0 1 1.78-1.24 5.78 5.78 0 0 1 2.12-.47 5.5 5.5 0 0 1 2.23.39 6.27 6.27 0 0 1 3 2.38 7.36 7.36 0 0 1 1.16 4.11l-2.62.18q-.45-3.26-2.24-4a3.32 3.32 0 0 0-2.43-.09 2.61 2.61 0 0 0-1.58 1.57 2.58 2.58 0 0 0 0 2.15 3 3 0 0 0 1.68 1.41zM1520.06 483.52a12.51 12.51 0 0 1-4.12-2.67 10.66 10.66 0 0 1-2.43-3.66 11 11 0 0 1-.75-4.26 12.21 12.21 0 0 1 1-4.47 12.14 12.14 0 0 1 6.23-6.63 17.63 17.63 0 0 1 4.64-1.42 41.76 41.76 0 0 1 5.53-.53q2.69-.07 4.9-.32t4-.61a26.35 26.35 0 0 0 3.09-.81 20.28 20.28 0 0 0 2.3-.91 3.33 3.33 0 0 1 1.79-.38 1.94 1.94 0 0 1 .79.55 2 2 0 0 1 .37.68 1.68 1.68 0 0 1 .08.64 1.59 1.59 0 0 1-.07.38 2.85 2.85 0 0 1-1.53 1.19 18 18 0 0 1-3.2 1q-1.92.46-4.28.78t-4.74.43a12.64 12.64 0 0 1 3.16 3.06 11.76 11.76 0 0 1 1.76 3.63 11.47 11.47 0 0 1 .4 3.91 12.27 12.27 0 0 1-.92 3.9 10.91 10.91 0 0 1-3.07 4.23 13.59 13.59 0 0 1-4.53 2.53 15.5 15.5 0 0 1-5.21.77 14 14 0 0 1-5.19-1.01zm1.21-5.69a12.51 12.51 0 0 0 7.63.56 9.67 9.67 0 0 0 3.4-1.59 6.91 6.91 0 0 0 2.31-3 6.52 6.52 0 0 0 .5-3 7.54 7.54 0 0 0-.8-2.89 8.71 8.71 0 0 0-1.88-2.47 9 9 0 0 0-2.7-1.73 8.59 8.59 0 0 0-3.67-.65 10.8 10.8 0 0 0-3.69.79 10.66 10.66 0 0 0-3.16 2 8.2 8.2 0 0 0-2.1 3 7 7 0 0 0-.56 2.71 6 6 0 0 0 .55 2.54 6.72 6.72 0 0 0 1.6 2.16 8.69 8.69 0 0 0 2.57 1.57zM1567.95 485.19a13 13 0 0 0 .36-1.39 7.39 7.39 0 0 0 .15-1.24 2.92 2.92 0 0 0-.11-.93.8.8 0 0 0-.39-.51 1.61 1.61 0 0 0-1.11-.13 3.84 3.84 0 0 0-1.33.7 5 5 0 0 1-1.91 1 2.46 2.46 0 0 1-1.56-.24 2.3 2.3 0 0 1-1.3-1.52 2.87 2.87 0 0 1 .24-2 3.7 3.7 0 0 1 1.16-1.37 5.14 5.14 0 0 1 1.72-.82 6 6 0 0 1 2-.17 5.85 5.85 0 0 1 2.11.59 4.85 4.85 0 0 1 2 1.79 6.33 6.33 0 0 1 .91 2.71 10.51 10.51 0 0 1-.23 3.4 17.12 17.12 0 0 1-1.38 3.85q-5.68-2.77-7.91-2.25a4.25 4.25 0 0 0-3 2.22 4.38 4.38 0 0 0-.51 2.52 4.18 4.18 0 0 0 1 2.16 10.44 10.44 0 0 0 2.4 2 38.48 38.48 0 0 0 3.56 2 18.44 18.44 0 0 0 5 1.68 11.4 11.4 0 0 0 4.39 0 8.41 8.41 0 0 0 3.6-1.77 10.38 10.38 0 0 0 2.65-3.49 17.13 17.13 0 0 0 1.68-5.66 15.86 15.86 0 0 0-.28-5.4 12.37 12.37 0 0 0-2.09-4.57 10.07 10.07 0 0 0-3.73-3.12 13.18 13.18 0 0 0-2.77-1 13.35 13.35 0 0 0-2.94-.36 12.44 12.44 0 0 0-3 .33 13.14 13.14 0 0 0-2.91 1.06l-1.48-2.33a15.06 15.06 0 0 1 3.51-1.36 15.79 15.79 0 0 1 3.65-.47 16.29 16.29 0 0 1 3.64.38 15.08 15.08 0 0 1 3.42 1.19 12.7 12.7 0 0 1 4.69 3.88 15.54 15.54 0 0 1 2.61 5.55 18.29 18.29 0 0 1 .39 6.49 20.22 20.22 0 0 1-2 6.69 17.22 17.22 0 0 1-4.09 5.53 14.13 14.13 0 0 1-5.19 2.94 14.4 14.4 0 0 1-5.79.52 17.71 17.71 0 0 1-5.88-1.73 18.21 18.21 0 0 1-4.5-3 12.08 12.08 0 0 1-2.7-3.57 8.71 8.71 0 0 1-.89-3.89 9.15 9.15 0 0 1 1-4 7.76 7.76 0 0 1 2-2.62 7.14 7.14 0 0 1 3-1.45 10 10 0 0 1 3.72-.1 14.59 14.59 0 0 1 4.42 1.28zM1611 514.36a10.85 10.85 0 0 0-.25-8.71 12.9 12.9 0 0 0-2.6-3.66 17 17 0 0 0-3.93-2.9 12.72 12.72 0 0 0-4-1.38 13.62 13.62 0 0 0-4.22-.05 10.38 10.38 0 0 0-3.76 1.3 6.91 6.91 0 0 0-2.64 2.7 6.45 6.45 0 0 0-.81 2.89 6.66 6.66 0 0 0 .59 3 9.43 9.43 0 0 0 2 2.8 14.29 14.29 0 0 0 3.35 2.45q4.06 2.21 6.85 2.09a4.59 4.59 0 0 0 4.09-2.52 3.79 3.79 0 0 0 .35-3 5.84 5.84 0 0 0-2-2.81 6.6 6.6 0 0 1-.19.84 4.53 4.53 0 0 1-.37.87 4.24 4.24 0 0 1-1.07 1.28 4.63 4.63 0 0 1-1.47.81 4.35 4.35 0 0 1-1.67.21 4 4 0 0 1-1.69-.5 4.6 4.6 0 0 1-2.08-2.41 4.35 4.35 0 0 1-.27-1.66 3.89 3.89 0 0 1 .51-1.76 4.16 4.16 0 0 1 1.47-1.59 4.86 4.86 0 0 1 2-.69 6.84 6.84 0 0 1 2.29.14 9 9 0 0 1 2.36.9 11.59 11.59 0 0 1 3 2.33 8.27 8.27 0 0 1 1.75 2.87 7.52 7.52 0 0 1 .38 3.18 8.5 8.5 0 0 1-1.05 3.3 9.35 9.35 0 0 1-2.65 3.06 9.93 9.93 0 0 1-3.74 1.72 12.17 12.17 0 0 1-4.47.15 14.23 14.23 0 0 1-4.84-1.67 14.91 14.91 0 0 1-4.4-3.5 12.53 12.53 0 0 1-2.4-4.29 11.4 11.4 0 0 1-.46-4.64 12 12 0 0 1 1.42-4.53 11.55 11.55 0 0 1 2.3-3 11.39 11.39 0 0 1 3-2 13.08 13.08 0 0 1 3.43-1 16 16 0 0 1 3.68-.16 17.61 17.61 0 0 1 3.75.69 18.66 18.66 0 0 1 3.63 1.51 17.38 17.38 0 0 1 4.29 3.3 15.74 15.74 0 0 1 3 4.47 14.11 14.11 0 0 1 1.21 5.28 13 13 0 0 1-1.16 5.7zm-12.24-6.79a1.61 1.61 0 0 0 1.22.16 1.47 1.47 0 0 0 1.02-.73 1.59 1.59 0 0 0-.65-2.19 1.52 1.52 0 0 0-1.22-.13 1.59 1.59 0 0 0-.95.79 1.49 1.49 0 0 0-.14 1.2 1.57 1.57 0 0 0 .76.9zM1611.22 526.59q8.45-8.43 16.32-10.59a3.91 3.91 0 0 0 .27-.89 3.49 3.49 0 0 0 0-1 2.69 2.69 0 0 0-.22-.85 1.27 1.27 0 0 0-.5-.58.74.74 0 0 0-.77 0 5.49 5.49 0 0 0-1.15 1 12.37 12.37 0 0 1-1.25 1.16 3.27 3.27 0 0 1-1 .58 1.92 1.92 0 0 1-1 0 3.73 3.73 0 0 1-1.1-.48 2.47 2.47 0 0 1-.79-.75 2.63 2.63 0 0 1-.4-1 2.81 2.81 0 0 1 0-1.07 3.13 3.13 0 0 1 .4-1 5.35 5.35 0 0 1 1.31-1.41 6.42 6.42 0 0 1 1.92-1 5.94 5.94 0 0 1 2.26-.29 5.07 5.07 0 0 1 2.36.78 5 5 0 0 1 2.22 2.66 7.49 7.49 0 0 1 .3 3.61 15.23 15.23 0 0 1 2.8-.3 17.3 17.3 0 0 1 2.74.18 14.69 14.69 0 0 1 2.48.58 9.94 9.94 0 0 1 2 .92 13.24 13.24 0 0 1 3.81 3.47 12.84 12.84 0 0 1 2.16 4.58 13.25 13.25 0 0 1 .2 5.23 15.38 15.38 0 0 1-4.59 8.55 13.23 13.23 0 0 1-3 2.17 8.38 8.38 0 0 1-3.1.92 4.45 4.45 0 0 1-2.75-.61 7.05 7.05 0 0 1-2.54-3.88l2.62-1a4.16 4.16 0 0 0 1.32 2.46 2.29 2.29 0 0 0 1.3.33 3.44 3.44 0 0 0 1.47-.42 6.16 6.16 0 0 0 1.49-1.13 9.38 9.38 0 0 0 1.36-1.77 11.69 11.69 0 0 0 1.51-4.15 13.56 13.56 0 0 0 0-4.57 12.35 12.35 0 0 0-1.54-4.23 9 9 0 0 0-3.14-3.17 9.43 9.43 0 0 0-3.63-1.32 12.79 12.79 0 0 0-4.16.18l1 .46a9.8 9.8 0 0 1 .88.47 10.83 10.83 0 0 1 3.06 2.71 10 10 0 0 1 1.68 3.31 8.77 8.77 0 0 1 .27 3.54 8.52 8.52 0 0 1-1.19 3.39 7.37 7.37 0 0 1-2.7 2.66 9.25 9.25 0 0 1-3.57 1.14 11.51 11.51 0 0 1-4-.29 13.51 13.51 0 0 1-3.87-1.6 10.71 10.71 0 0 1-4.39-4.94 6 6 0 0 0-.53-1 1.9 1.9 0 0 0-.51-.53q-.77-.47-2.56.84zm18.54-4.86a9.4 9.4 0 0 0-5.77-1.46 13.37 13.37 0 0 0-1.53.83q-.92.56-2 1.26t-2.06 1.49q-1 .79-1.83 1.48a7 7 0 0 1 1.72.75q.42.26 1.07.7l1.31.89 1.26.85.9.58a23.06 23.06 0 0 0 3.69 1.88 9.36 9.36 0 0 0 2.81.67 3.79 3.79 0 0 0 2-.41 3.75 3.75 0 0 0 1.4-1.37 4 4 0 0 0 .55-1.91 6 6 0 0 0-.32-2.21 7.36 7.36 0 0 0-1.2-2.19 7.64 7.64 0 0 0-2.01-1.83z"/></g></svg>