<svg xmlns="http://www.w3.org/2000/svg" viewBox="0 0 2453 2453"><title>SS_bottom slogan_PT</title><path fill="#03709C" d="M677.8 613.7l4.6-4.3c2-1.9 4.5-2.8 7.3-2.7 2.8.1 5.2 1.2 7.1 3.2 1.9 2 2.8 4.5 2.7 7.3-.1 2.8-1.2 5.2-3.2 7.1l-3.4 3.2 6.4 6.9c.3.3.4.7.4 1.1 0 .4-.2.8-.5 1.1-.3.3-.7.4-1.1.4-.4 0-.8-.2-1.1-.5l-19.2-20.6c-.3-.3-.4-.7-.4-1.1-.1-.4.1-.8.4-1.1zm3.2 1.2l9.6 10.3 3.4-3.2c1.4-1.3 2.2-3 2.2-4.9.1-1.9-.6-3.6-1.9-5-1.3-1.4-3-2.2-4.9-2.2-1.9-.1-3.6.6-5 1.9l-3.4 3.1zM725.1 608.6c-.2 3.1-1.4 5.6-3.7 7.6-2.3 2-4.9 2.9-7.9 2.7-3-.2-5.5-1.4-7.5-3.7-2-2.3-2.9-4.9-2.7-7.9.2-3 1.4-5.5 3.7-7.5 2.3-2 4.9-2.9 7.9-2.7 3 .2 5.5 1.4 7.5 3.7l6.2 7c.3.3.4.7.4 1.1 0 .4-.2.8-.5 1.1-.3.3-.7.4-1.1.4-.4 0-.8-.2-1.1-.5l-1.2-1.3zm-16-6.5c-1.6 1.4-2.5 3.2-2.6 5.4-.1 2.1.5 4 1.9 5.7 1.4 1.6 3.2 2.5 5.4 2.6s4-.5 5.7-1.9c1.6-1.4 2.5-3.2 2.6-5.4.1-2.1-.5-4-1.9-5.7-1.4-1.6-3.2-2.5-5.4-2.6-2.2-.2-4.1.5-5.7 1.9zM718.9 591.5c-.3-.3-.4-.7-.4-1.1 0-.4.2-.8.6-1.1.3-.3.7-.4 1.1-.4.4 0 .8.2 1.1.6l1.1 1.3c.3-3.1 1.6-5.6 3.9-7.5 1.2-1 2.4-1.7 3.7-2.1.2-.1.5-.1.8-.1.4 0 .8.2 1.1.6.3.3.4.7.4 1.1 0 .4-.2.8-.6 1.1-.2.2-.4.3-.6.3-1 .3-1.9.8-2.7 1.5-1.7 1.4-2.6 3.1-2.8 5.3-.2 2.1.4 4.1 1.8 5.7l6 7.2c.3.3.4.7.4 1.1 0 .4-.2.8-.6 1.1-.3.3-.7.4-1.1.4-.4 0-.8-.2-1.1-.6l-12.1-14.4zM752.9 586c.3-.3.7-.4 1.1-.3.4 0 .8.2 1 .6.3.3.4.7.3 1.1 0 .4-.2.8-.6 1-4.1 3.2-7.7 2.8-11-1.3l-6.8-8.6-1.2 1c-.3.3-.7.4-1.1.3-.4 0-.8-.2-1-.6-.3-.3-.4-.7-.3-1.1 0-.4.2-.8.6-1l1.2-1-4.9-6.1c-.3-.3-.4-.7-.3-1.1 0-.4.2-.8.6-1s.7-.4 1.1-.3.8.2 1 .6l4.9 6.1 2.5-2c.3-.3.7-.4 1.2-.3.4 0 .8.2 1 .6.3.3.4.7.3 1.1s-.2.8-.6 1l-2.5 2 6.8 8.6c2 2.4 4.2 2.7 6.7.7zM746.3 561.5c.3.4.5.9.4 1.4-.1.5-.3 1-.7 1.3-.4.3-.9.5-1.4.4-.5-.1-1-.3-1.3-.7-.3-.4-.5-.9-.4-1.4.1-.5.3-1 .7-1.3s.9-.5 1.4-.4c.5 0 .9.3 1.3.7zm1 7.1c-.3-.3-.4-.7-.3-1.2.1-.4.3-.8.6-1 .3-.3.7-.4 1.2-.3.4.1.8.3 1 .6l11.4 14.9c.3.3.4.7.3 1.2s-.3.8-.6 1-.7.4-1.2.3c-.4-.1-.8-.3-1-.6l-11.4-14.9zM748 556.3c-.3-.3-.4-.7-.3-1.2.1-.4.3-.8.6-1 .3-.3.7-.4 1.2-.3.4.1.8.3 1 .6l15.9 21.3 1.3-.9c.3-.3.7-.4 1.2-.3.4.1.8.3 1 .6.3.3.4.7.3 1.2-.1.4-.3.8-.6 1l-2.5 1.9c-.3.3-.7.4-1.2.3-.4-.1-.8-.3-1-.6L748 556.3zM755.9 550.4c-.2-.3-.3-.7-.3-1.2.1-.4.3-.8.6-1 .3-.2.7-.3 1.2-.3.4.1.8.3 1 .6l6.2 8.6c.5-2.7 1.8-4.8 4.1-6.4 2.3-1.6 4.8-2.2 7.5-1.8 2.8.5 5 1.8 6.6 4.1l5.9 8.2c.2.3.3.7.3 1.2-.1.4-.3.8-.6 1-.3.2-.7.3-1.2.3-.4-.1-.8-.3-1-.6l-5.9-8.2c-1.1-1.6-2.6-2.5-4.6-2.8-1.9-.3-3.6.1-5.2 1.2-1.6 1.1-2.5 2.6-2.8 4.6-.3 1.9.1 3.6 1.2 5.2l5.9 8.2c.2.3.3.7.3 1.2-.1.4-.3.8-.6 1-.3.2-.7.3-1.2.3-.4-.1-.8-.3-1-.6l-16.4-22.8zM805.8 547.8c-.6 3-2.2 5.4-4.7 7.1-2.5 1.7-5.2 2.2-8.2 1.6-3-.6-5.3-2.1-7-4.6-1.7-2.5-2.2-5.2-1.6-8.2.6-3 2.1-5.3 4.6-7 2.5-1.7 5.2-2.2 8.2-1.6 3 .6 5.3 2.1 7 4.6l5.2 7.8c.2.4.3.7.2 1.2s-.3.8-.7 1-.7.3-1.2.2c-.4-.1-.8-.3-1-.7l-.8-1.4zm-15.1-8.5c-1.8 1.2-2.9 2.9-3.3 5-.4 2.1 0 4.1 1.2 5.9 1.2 1.8 2.9 2.9 5 3.3s4.1 0 5.9-1.2c1.8-1.2 2.9-2.9 3.3-5 .4-2.1 0-4.1-1.2-5.9s-2.9-2.9-5-3.3c-2.2-.4-4.1 0-5.9 1.2zM801.9 530c-.2-.4-.3-.8-.2-1.2.1-.4.3-.7.7-1 .4-.2.8-.3 1.2-.2.4.1.7.3 1 .7l.7 1.1c.7-2.6 2.2-4.7 4.5-6.1 2.4-1.5 4.9-1.9 7.7-1.3 2.7.6 4.9 2.1 6.3 4.5l5.4 8.6c.2.4.3.8.2 1.2-.1.4-.3.7-.7 1-.4.2-.8.3-1.2.2-.4-.1-.7-.3-1-.7l-5.4-8.6c-1-1.6-2.5-2.7-4.4-3.1-1.9-.4-3.7-.1-5.3.9-1.6 1-2.7 2.5-3.1 4.4-.4 1.9-.1 3.7.9 5.3l5.4 8.6c.2.4.3.8.2 1.2-.1.4-.3.7-.7 1-.4.2-.8.3-1.2.2-.4-.1-.7-.3-1-.7l-10-16zM833.6 499.8c-.2-.4-.3-.8-.2-1.2.1-.4.4-.7.7-1 .4-.2.8-.3 1.2-.2.4.1.7.4 1 .7l9.5 16.2c1.5 2.6 1.9 5.4 1.1 8.3-.8 2.9-2.5 5.1-5.1 6.7s-5.4 1.9-8.3 1.1c-2.9-.8-5.1-2.5-6.7-5.1s-1.9-5.4-1.1-8.3c.8-2.9 2.5-5.1 5.1-6.7 2.6-1.5 5.4-1.9 8.3-1.1h.1l-5.6-9.4zm9.4 16.3c-1.1-1.9-2.7-3.1-4.8-3.6-2.1-.5-4.1-.3-5.9.8-1.9 1.1-3.1 2.7-3.6 4.8-.5 2.1-.3 4.1.8 5.9 1.1 1.9 2.7 3.1 4.8 3.6 2.1.5 4.1.3 5.9-.8 1.9-1.1 3.1-2.7 3.6-4.8.6-2.1.3-4.1-.8-5.9zM867.8 502.4c1.5 2.7 1.7 5.4.9 8.3-.9 2.9-2.6 5.1-5.3 6.5-2.7 1.5-5.4 1.7-8.3.9-2.9-.9-5.1-2.6-6.5-5.3s-1.7-5.4-.9-8.3c.9-2.9 2.6-5.1 5.3-6.5 2.7-1.5 5.4-1.7 8.3-.9 2.9.9 5 2.6 6.5 5.3zm-13.4-1.6c-1.9 1-3.2 2.6-3.8 4.7-.6 2.1-.4 4.1.6 6s2.6 3.2 4.7 3.8c2.1.6 4.1.4 6-.6 1.9-1 3.2-2.6 3.8-4.7.6-2.1.4-4.1-.6-6s-2.6-3.2-4.7-3.8c-2.1-.7-4.1-.5-6 .6zM877.1 487.2c-.2-.4-.2-.8-.1-1.2.1-.4.4-.7.8-.9s.8-.2 1.2-.1c.4.1.7.4.9.8l.6 1.1c.9-2.5 2.6-4.4 5.1-5.6 2.5-1.2 5.1-1.4 7.8-.4 2.7.9 4.6 2.7 5.8 5.2l4.4 9.2c.2.4.2.8.1 1.2s-.4.7-.8.9c-.4.2-.8.2-1.2.1-.4-.1-.7-.4-.9-.8l-4.4-9.2c-.8-1.7-2.2-2.9-4-3.6s-3.6-.5-5.4.3c-1.7.8-2.9 2.2-3.6 4-.6 1.8-.5 3.6.3 5.4l4.4 9.2c.2.4.2.8.1 1.2-.1.4-.4.7-.8.9s-.8.2-1.2.1c-.4-.1-.7-.4-.9-.8l-8.2-17zM922.4 476.6c1.2 2.8 1.3 5.6.2 8.4-1.1 2.8-3 4.8-5.8 6.1-2.8 1.2-5.6 1.3-8.4.2-2.8-1.1-4.8-3-6.1-5.8-1.2-2.8-1.3-5.6-.2-8.4s3-4.8 5.8-6.1c2.8-1.2 5.6-1.3 8.4-.2 2.9 1.1 4.9 3.1 6.1 5.8zm-13.1-2.7c-2 .9-3.4 2.3-4.1 4.3s-.7 4 .2 6 2.3 3.4 4.3 4.1c2 .8 4 .7 6-.2 2-.9 3.4-2.3 4.1-4.3.8-2 .7-4-.2-6s-2.3-3.4-4.3-4.1c-2.1-.7-4-.7-6 .2zM938.5 478.5c.4-.2.8-.2 1.2 0 .4.2.7.4.8.8.2.4.2.8 0 1.2-.2.4-.4.7-.8.8-4.8 2-8.2.6-10.2-4.2l-4.2-10.1-1.4.6c-.4.2-.8.2-1.2 0-.4-.2-.7-.4-.8-.8-.2-.4-.2-.8 0-1.2s.4-.7.8-.8l1.4-.6-3-7.2c-.2-.4-.2-.8 0-1.2.2-.4.4-.7.8-.8.4-.2.8-.2 1.2 0 .4.2.7.4.8.8l3 7.2 2.9-1.2c.4-.2.8-.2 1.2 0 .4.2.7.4.8.8.2.4.2.8 0 1.2-.2.4-.4.7-.8.8l-2.9 1.2 4.2 10.1c1.3 2.9 3.3 3.8 6.2 2.6zM940.4 450.3l-2.7 6.2c-.2.4-.5.6-.8.8-.4.2-.8.1-1.2 0-.4-.2-.7-.5-.8-.9-.1-.4-.2-.8 0-1.1l2.7-6.2c.2-.4.5-.7.9-.8.4-.2.8-.1 1.2 0 .4.2.7.5.8.9 0 .3 0 .7-.1 1.1zm-2.4 9.9c-.2-.4-.1-.8 0-1.2.2-.4.5-.7.9-.8.4-.2.8-.1 1.2 0 .4.2.7.5.8.9l6.9 17.4c.2.4.1.8 0 1.2-.2.4-.5.7-.9.8s-.8.1-1.2 0c-.4-.2-.7-.5-.8-.9l-6.9-17.4zM966.6 465.3c.4-.1.8-.1 1.2 0 .4.2.7.5.8.9.1.4.1.8-.1 1.3-1.3 2.3-3.2 4-5.8 4.9-2.8 1-5.6.9-8.4-.3-2.7-1.3-4.6-3.3-5.7-6.1s-.9-5.6.3-8.4c1.3-2.7 3.3-4.6 6.1-5.7 2.6-.9 5.1-.9 7.6 0 .5.2.8.5.9.9.1.4.1.8 0 1.2-.2.4-.5.7-.9.8-.4.1-.7.1-1.1 0-1.8-.7-3.6-.7-5.5 0-2 .7-3.5 2.1-4.4 4.1-.9 2-1 4-.2 6s2.1 3.5 4.1 4.4c2 .9 3.9 1 6 .2 1.8-.7 3.2-1.9 4.1-3.6.4-.2.7-.4 1-.6zM969 442c.2.5.1 1-.1 1.5s-.6.8-1.1 1c-.5.2-1 .1-1.5-.1s-.8-.6-1-1.1c-.2-.5-.1-1 .1-1.5s.6-.8 1.1-1c.5-.2 1-.1 1.5.1.5.3.9.6 1 1.1zm-1.2 7.1c-.1-.4-.1-.8.1-1.2.2-.4.5-.7.9-.8.4-.1.8-.1 1.2.1.4.2.7.5.8.9l6.1 17.7c.1.4.1.8-.1 1.2-.2.4-.5.7-.9.8-.4.1-.8.1-1.2-.1-.4-.2-.7-.5-.8-.9l-6.1-17.7zM998.5 456.9c-1.4 2.8-3.6 4.6-6.4 5.5-2.9.9-5.7.7-8.3-.7-2.7-1.4-4.5-3.5-5.4-6.4s-.7-5.7.7-8.3c1.4-2.7 3.5-4.5 6.4-5.4 2.9-.9 5.7-.7 8.3.7 2.7 1.4 4.5 3.5 5.4 6.4l2.9 8.9c.1.4.1.8-.1 1.2-.2.4-.5.6-.9.8-.4.1-.8.1-1.2-.1-.4-.2-.6-.5-.8-.9l-.6-1.7zm-12.2-12.4c-2.1.7-3.6 2-4.6 3.9-1 1.9-1.1 3.9-.5 6 .7 2.1 2 3.6 3.9 4.6 1.9 1 3.9 1.1 6 .5 2.1-.7 3.6-2 4.6-3.9 1-1.9 1.1-3.9.5-6-.7-2.1-2-3.6-3.9-4.6-2-1-4-1.1-6-.5zM1005.9 446.6c-1.3-.1-2.2-.3-2.8-.6-1.1-.6-1.9-1.5-2.2-2.8s-.2-2.5.4-3.6c1.3-2.4 3.4-4 6.3-4.8 3.1-.9 6.2-.4 9.2 1.4.3.2.4.4.5.8.1.4.1.8-.1 1.2-.2.4-.5.6-.9.7-.4.1-.8.1-1.1-.1-.3-.2-.6-.3-.7-.4-1.9-1-3.9-1.3-5.9-.7s-3.5 1.7-4.4 3.4c-.2.5-.2.9-.1 1.4.2.6.6.9 1.3.9l10.1.4c1.3.1 2.2.3 2.8.6 1.1.6 1.9 1.5 2.2 2.8s.2 2.5-.4 3.6c-1.3 2.4-3.4 4-6.3 4.8-3.2.9-6.2.4-9.2-1.4-.3-.2-.4-.5-.5-.8-.1-.4-.1-.8.1-1.2.2-.4.5-.6.9-.7.4-.1.8-.1 1.1.1.3.2.6.3.7.4 1.9 1 3.9 1.3 5.9.7s3.5-1.7 4.4-3.4c.2-.5.2-.9.1-1.4-.2-.6-.6-.9-1.3-.9l-10.1-.4zM1047.4 416.2c-.1-.4 0-.8.2-1.2.2-.4.5-.6 1-.7.4-.1.8 0 1.2.2.4.2.6.5.7 1l4.4 18.3c.7 2.9.3 5.7-1.3 8.3-1.6 2.6-3.8 4.2-6.8 4.9-2.9.7-5.7.3-8.3-1.3-2.6-1.6-4.2-3.8-4.9-6.8-.7-2.9-.3-5.7 1.3-8.3s3.8-4.2 6.8-4.9c2.9-.7 5.7-.3 8.3 1.3 0 0 .1 0 .1.1l-2.7-10.9zm4.4 18.3c-.5-2.1-1.7-3.7-3.5-4.8-1.8-1.1-3.8-1.4-5.9-.9-2.1.5-3.7 1.7-4.8 3.5-1.1 1.8-1.4 3.8-.9 5.9.5 2.1 1.7 3.7 3.5 4.8 1.8 1.1 3.8 1.4 5.9.9 2.1-.5 3.7-1.7 4.8-3.5 1.1-1.8 1.4-3.8.9-5.9zM1079.5 428.7c.6 3 .1 5.7-1.6 8.2-1.7 2.5-4 4.1-6.9 4.7-3 .6-5.7.1-8.2-1.6-2.5-1.7-4.1-4-4.7-6.9-.6-3-.1-5.7 1.6-8.2 1.7-2.5 4-4.1 6.9-4.7 3-.6 5.7-.1 8.2 1.6 2.5 1.6 4.1 3.9 4.7 6.9zm-12.3-5.5c-2.1.4-3.8 1.5-5 3.3-1.2 1.8-1.6 3.8-1.1 5.9.4 2.1 1.5 3.8 3.3 5 1.8 1.2 3.8 1.6 5.9 1.1 2.1-.4 3.8-1.5 5-3.3 1.2-1.8 1.6-3.8 1.1-5.9-.4-2.1-1.5-3.8-3.3-5s-3.8-1.5-5.9-1.1zM1091.2 407.3c-.1-.4 0-.8.3-1.2.3-.4.6-.6 1-.6.4-.1.8 0 1.2.3.4.3.6.6.6 1l3 18.6c.3 2.1 1.4 3.8 3.1 5.1 1.8 1.3 3.7 1.7 5.8 1.4 2.1-.3 3.8-1.4 5.1-3.1 1.3-1.8 1.7-3.7 1.4-5.8l-3-18.6c-.1-.4 0-.8.3-1.2.3-.4.6-.6 1-.6.4-.1.8 0 1.2.3.4.3.6.6.6 1l3 18.6c.5 3-.2 5.7-1.9 8.2-1.8 2.5-4.2 3.9-7.1 4.4-3 .5-5.7-.2-8.2-1.9-2.5-1.8-3.9-4.2-4.4-7.1l-3-18.8zM1117.8 412.8c-.1-.4 0-.8.3-1.2.3-.3.6-.5 1-.6.4-.1.8 0 1.2.3.3.3.5.6.6 1l.2 1.3c1.7-2.1 3.9-3.4 6.6-3.7 2.8-.4 5.3.3 7.5 2s3.5 3.9 3.9 6.7l1.3 10.1c.1.4 0 .8-.3 1.2-.3.3-.6.5-1 .6-.4.1-.8 0-1.2-.3-.3-.3-.5-.6-.6-1l-1.3-10.1c-.3-1.9-1.1-3.5-2.7-4.7-1.5-1.2-3.3-1.6-5.2-1.4-1.9.3-3.5 1.1-4.7 2.7-1.2 1.5-1.6 3.3-1.4 5.2l1.3 10.1c.1.4 0 .8-.3 1.2-.3.3-.6.5-1 .6-.4.1-.8 0-1.2-.3-.3-.3-.5-.6-.6-1l-2.4-18.7zM1145.8 403.2c.1.5-.1 1-.4 1.4s-.8.7-1.3.7c-.5.1-1-.1-1.4-.4-.4-.3-.7-.8-.7-1.3s.1-1 .4-1.4c.3-.4.8-.7 1.3-.7.5-.1 1 .1 1.4.4.4.3.6.7.7 1.3zm-2.8 6.6c0-.4.1-.8.3-1.1.3-.3.6-.5 1-.6.4 0 .8.1 1.1.3.3.3.5.6.6 1l2 18.6c0 .4-.1.8-.3 1.1-.3.3-.6.5-1 .6-.4 0-.8-.1-1.1-.3-.3-.3-.5-.6-.6-1l-2-18.6zM1163.9 427.8c-.3.3-.6.5-1.1.5-.5 0-.8-.1-1.1-.4-.1-.1-.2-.2-.3-.4l-10.2-18.2c-.1-.2-.1-.4-.2-.6 0-.4.1-.8.4-1.1.3-.3.6-.5 1.1-.5.4 0 .8.1 1.1.4.1.1.2.2.3.4l8.4 15.1 5.9-16.3c.1-.2.2-.3.3-.4.3-.3.6-.5 1.1-.5.4 0 .8.1 1.1.4.3.3.5.6.5 1.1 0 .2 0 .4-.1.6l-7.2 19.6c.2.1.1.2 0 .3zM1192.5 421c.4 0 .8.1 1.1.4.3.3.5.6.5 1.1 0 .4-.1.8-.4 1.1-1.9 1.9-4.3 2.9-7 3-3 .2-5.6-.8-7.9-2.8s-3.4-4.5-3.6-7.6c-.2-3 .8-5.6 2.8-7.9 2-2.2 4.5-3.4 7.6-3.6 3-.2 5.6.8 7.9 2.8 2.2 2 3.4 4.5 3.6 7.6 0 .4-.1.8-.4 1.1s-.6.5-1.1.5l-17 .9c.4 1.5 1.1 2.8 2.4 3.8 1.6 1.4 3.5 2.1 5.6 2 2-.1 3.6-.8 4.9-2.1.3-.1.6-.2 1-.3zm1.3-7.2c-.4-1.5-1.1-2.8-2.4-3.8-1.6-1.4-3.5-2.1-5.6-2-2.2.1-4 1-5.4 2.6-1.1 1.2-1.7 2.6-1.9 4.1l15.3-.9zM1200.1 405.7c0-.4.1-.8.4-1.1.3-.3.7-.5 1.1-.5.4 0 .8.1 1.1.4.3.3.5.7.5 1.1v1.7c2.1-2.2 4.7-3.4 7.7-3.5 1.5 0 2.9.2 4.2.7.2.1.5.2.7.4.3.3.5.7.5 1.1 0 .4-.1.8-.4 1.1-.3.3-.7.5-1.1.5-.2 0-.5 0-.7-.1-.9-.4-2-.5-3.1-.5-2.2.1-4 .9-5.5 2.4-1.5 1.6-2.2 3.4-2.2 5.6l.2 9.4c0 .4-.1.8-.4 1.1-.3.3-.7.5-1.1.5-.4 0-.8-.1-1.1-.4-.3-.3-.5-.7-.5-1.1l-.3-18.8zM1223.2 414.6c-1.2-.5-2-.9-2.5-1.4-.9-.9-1.3-2-1.3-3.3 0-1.3.5-2.4 1.5-3.4 1.9-1.9 4.4-2.8 7.4-2.7 3.3.1 6 1.4 8.3 4.1.2.3.3.6.3.9 0 .4-.2.8-.5 1.1-.3.3-.7.4-1.1.4-.4 0-.8-.2-1-.4-.3-.3-.4-.5-.6-.6-1.5-1.6-3.3-2.4-5.5-2.4s-3.9.6-5.2 1.9c-.3.4-.5.8-.5 1.3 0 .6.3 1 .9 1.3l9.5 3.4c1.2.5 2 .9 2.5 1.4.9.9 1.3 2 1.3 3.3 0 1.3-.5 2.4-1.5 3.4-1.9 1.9-4.4 2.8-7.4 2.7-3.3-.1-6.1-1.4-8.3-4.1-.2-.3-.3-.6-.3-.9 0-.4.2-.8.5-1.1.3-.3.7-.4 1.1-.4.4 0 .8.2 1 .4.3.3.4.5.6.6 1.5 1.6 3.3 2.4 5.5 2.4s3.9-.6 5.2-1.9c.3-.4.5-.8.5-1.3 0-.6-.3-1-.9-1.3l-9.5-3.4zM1261.8 415.3c-.1 3-1.2 5.6-3.4 7.6-2.2 2.1-4.8 3.1-7.8 3s-5.6-1.2-7.6-3.4c-2.1-2.2-3.1-4.8-3-7.8.1-3 1.2-5.6 3.4-7.6 2.2-2.1 4.8-3.1 7.8-3 3 .1 5.6 1.2 7.6 3.4 2.1 2.2 3.1 4.8 3 7.8zm-10.7-8.1c-2.2-.1-4 .6-5.6 2.1-1.6 1.5-2.4 3.3-2.4 5.5s.6 4 2.1 5.6c1.5 1.6 3.3 2.4 5.5 2.4 2.2.1 4-.6 5.6-2.1s2.4-3.3 2.4-5.5-.6-4-2.1-5.6c-1.5-1.5-3.3-2.3-5.5-2.4zM1295 425.2c-2.3 2-5 2.9-8 2.7s-5.5-1.5-7.5-3.8-2.8-4.9-2.6-8c.2-3 1.5-5.5 3.8-7.5s4.9-2.8 8-2.6 5.5 1.5 7.5 3.8 2.8 4.9 2.6 8l-.7 9.3c0 .4-.2.8-.5 1.1-.3.3-.7.4-1.1.4-.4 0-.8-.2-1.1-.5s-.4-.7-.4-1.1v-1.8zm-6.6-16c-2.2-.2-4.1.5-5.7 1.9-1.6 1.4-2.5 3.2-2.7 5.3-.2 2.2.5 4 1.9 5.7 1.4 1.6 3.2 2.5 5.3 2.7 2.2.2 4.1-.5 5.7-1.9 1.6-1.4 2.5-3.2 2.7-5.3.2-2.2-.5-4.1-1.9-5.7-1.4-1.6-3.2-2.5-5.3-2.7zM1329.7 426.9c.4.1.8.2 1 .6.3.3.4.7.3 1.1-.1.4-.3.8-.6 1.1-2.2 1.5-4.7 2.1-7.4 1.8-3-.4-5.4-1.7-7.3-4.1-1.9-2.4-2.6-5.1-2.2-8 .4-3 1.7-5.4 4.1-7.3 2.4-1.9 5-2.6 8-2.2 2.7.3 5 1.5 6.7 3.5.3.4.5.8.4 1.3-.1.4-.2.8-.6 1-.3.3-.7.4-1.1.3-.4 0-.7-.2-.9-.5-1.3-1.5-2.9-2.3-4.8-2.5-2.1-.3-4.1.3-5.7 1.6-1.7 1.3-2.7 3.1-2.9 5.2s.3 4.1 1.6 5.7c1.3 1.7 3.1 2.7 5.2 2.9 1.9.2 3.7-.2 5.3-1.3.2-.1.6-.2.9-.2zM1336.8 412.8c.1-.4.3-.8.6-1 .3-.3.7-.4 1.2-.3s.8.3 1 .6c.3.3.4.7.3 1.2l-.3 1.7c2.5-1.8 5.2-2.5 8.2-2.1 1.5.2 2.9.7 4 1.4.2.1.4.3.6.5.3.4.3.7.3 1.2-.1.4-.3.8-.6 1-.3.3-.7.4-1.2.3-.2 0-.5-.1-.7-.3-.9-.5-1.8-.9-2.9-1-2.1-.3-4.1.2-5.8 1.4-1.7 1.3-2.8 3-3.1 5.1l-1.4 9.3c-.1.4-.3.8-.6 1-.3.3-.7.4-1.2.3s-.8-.3-1-.6c-.3-.3-.4-.7-.3-1.2l2.9-18.5zM1357.2 415.9c.1-.4.3-.8.6-1 .4-.3.7-.3 1.2-.3.4.1.8.3 1 .6.2.4.3.7.3 1.2l-3.2 18.6c-.1.4-.3.8-.6 1-.4.3-.7.3-1.2.3-.4-.1-.8-.3-1-.6-.2-.4-.3-.7-.3-1.2l3.2-18.6zm4.6-5.6c-.1.5-.4 1-.8 1.3-.4.3-.9.4-1.5.3-.5-.1-1-.4-1.3-.8-.3-.4-.4-.9-.3-1.5.1-.5.4-1 .8-1.3s.9-.4 1.5-.3c.5.1.9.4 1.3.8.2.5.3 1 .3 1.5zM1380.3 437.5c-2.6 1.7-5.3 2.3-8.3 1.8s-5.3-2.1-7-4.6c-1.7-2.5-2.3-5.2-1.7-8.2.6-3 2.1-5.3 4.6-7 2.5-1.7 5.2-2.3 8.2-1.7 3 .6 5.3 2.1 7 4.6 1.7 2.5 2.3 5.2 1.7 8.2l-1.8 9.2c-.1.4-.3.8-.7 1-.4.2-.7.3-1.2.2s-.8-.3-1-.7c-.2-.4-.3-.7-.2-1.2l.4-1.6zm-4.8-16.7c-2.1-.4-4.1 0-5.9 1.2-1.8 1.2-2.9 2.9-3.3 5-.4 2.1 0 4.1 1.2 5.9 1.2 1.8 2.9 2.9 5 3.3 2.1.4 4.1 0 5.9-1.2 1.8-1.2 2.9-2.9 3.3-5 .4-2.1 0-4.1-1.2-5.9-1.2-1.8-2.8-2.9-5-3.3zM1390.1 422.1c.1-.4.3-.7.7-1s.8-.3 1.2-.2c.4.1.7.3 1 .7.2.4.3.8.2 1.2l-.3 1.2c2.3-1.4 4.8-1.8 7.5-1.2 2.7.6 4.8 2.1 6.4 4.5 1.5 2.4 2 4.9 1.3 7.7l-2.2 9.9c-.1.4-.3.7-.7 1-.4.2-.8.3-1.2.2-.4-.1-.7-.3-1-.7-.2-.4-.3-.8-.2-1.2l2.2-9.9c.4-1.9.1-3.7-.9-5.3-1-1.6-2.5-2.7-4.4-3.1-1.9-.4-3.7-.1-5.3.9-1.6 1-2.7 2.5-3.1 4.4l-2.2 9.9c-.1.4-.3.7-.7 1s-.8.3-1.2.2-.7-.3-1-.7c-.2-.4-.3-.8-.2-1.2l4.1-18.3zM1426.1 446.1c.4.1.7.3 1 .7.2.4.3.8.2 1.2-.1.4-.4.7-.8 1-2.4 1.2-4.9 1.5-7.6.8-2.9-.8-5.2-2.4-6.7-5s-1.9-5.4-1.2-8.3c.8-2.9 2.4-5.2 5-6.7s5.4-1.9 8.3-1.2c2.7.7 4.7 2.1 6.3 4.3.3.4.3.8.2 1.3-.1.4-.3.7-.7 1-.4.2-.8.3-1.2.2-.4-.1-.7-.3-.9-.6-1.1-1.6-2.6-2.7-4.5-3.2-2.1-.5-4.1-.3-5.9.8-1.9 1.1-3.1 2.7-3.6 4.8-.5 2.1-.3 4.1.8 5.9 1.1 1.9 2.7 3.1 4.8 3.6 1.9.5 3.7.3 5.4-.6.4-.1.7-.1 1.1 0zm-8.8 2.1c.4-.2.8-.3 1.2-.2s.7.3 1 .7c.2.4.3.8.2 1.2 0 .1-.1.2-.1.4l-.6 1.1c.4.3.8.7 1.1 1.1.7 1 .9 2.1.6 3.2-.3 1.1-1 2-2.1 2.5s-2.3.6-3.5.3c-.7-.2-1.4-.6-2-1.1l-1.5-1.5c-.3-.5-.5-1-.3-1.4.1-.4.3-.7.7-1 .4-.2.8-.3 1.2-.2.3.1.6.2.8.4l1.2 1.3c.2.2.4.3.7.4.4.1.8.1 1.1 0 .3-.1.5-.3.6-.6.1-.3 0-.6-.3-.8-.3-.2-.6-.4-1-.5-.4-.1-.7-.3-1-.7-.2-.4-.3-.8-.2-1.2 0-.2.1-.3.2-.5l1.4-2.4c.1-.2.3-.3.6-.5zM1448.2 454.4c-2.7 1.5-5.5 1.8-8.4 1-2.9-.8-5.1-2.6-6.5-5.2-1.5-2.6-1.8-5.4-.9-8.3.8-2.9 2.6-5.1 5.2-6.5s5.4-1.8 8.3-.9c2.9.8 5.1 2.6 6.5 5.2s1.8 5.4.9 8.3l-2.6 9c-.1.4-.4.7-.7.9s-.8.3-1.2.1c-.4-.1-.7-.4-.9-.7-.2-.4-.3-.8-.1-1.2l.4-1.7zm-3.3-17c-2.1-.6-4.1-.4-5.9.7-1.9 1-3.1 2.6-3.7 4.7-.6 2.1-.4 4.1.7 5.9 1 1.9 2.6 3.1 4.7 3.7 2.1.6 4.1.4 5.9-.7 1.9-1 3.1-2.6 3.7-4.7.6-2.1.4-4.1-.7-5.9-1-1.8-2.6-3.1-4.7-3.7zM1460.1 450.1c-1-.8-1.6-1.5-1.9-2.1-.6-1.2-.7-2.3-.3-3.6s1.2-2.2 2.4-2.8c2.4-1.2 5-1.4 7.9-.5 3.1 1 5.4 3.1 6.8 6.3.1.3.1.6 0 1s-.4.7-.8.9c-.4.2-.8.2-1.2.1s-.7-.4-.9-.7c-.2-.3-.3-.6-.4-.7-1-1.9-2.5-3.2-4.6-3.9-2.1-.7-3.9-.5-5.5.4-.4.3-.7.6-.9 1.1-.1.6 0 1.1.5 1.5l8.2 6c1 .8 1.6 1.5 1.9 2.1.6 1.2.7 2.3.3 3.6s-1.2 2.2-2.4 2.8c-2.4 1.3-5 1.4-7.9.5-3.1-1-5.4-3.1-6.8-6.3-.1-.3-.1-.6 0-1s.4-.7.8-.9c.4-.2.8-.2 1.2-.1s.7.4.9.7c.2.3.3.6.4.7 1 1.9 2.5 3.2 4.6 3.9 2.1.7 3.9.5 5.5-.4.4-.3.7-.6.9-1.1.1-.6 0-1.1-.5-1.5l-8.2-6zM1511.6 448c.2-.4.4-.7.8-.9.4-.2.8-.2 1.2 0 .4.2.7.4.9.8.2.4.2.8 0 1.2l-6.6 17.7c-1.1 2.8-3 4.9-5.7 6.1-2.8 1.3-5.6 1.4-8.4.3s-4.9-3-6.1-5.7-1.4-5.6-.3-8.4c1.1-2.8 3-4.9 5.7-6.1 2.8-1.3 5.6-1.4 8.4-.3s4.9 3 6.1 5.7v.1l4-10.5zm-6.6 17.7c.8-2 .7-4-.2-6s-2.4-3.3-4.4-4.1c-2-.8-4-.7-6 .2-2 .9-3.3 2.4-4.1 4.4-.8 2-.7 4 .2 6 .9 2 2.4 3.3 4.4 4.1 2 .8 4 .7 6-.2 2-.9 3.3-2.4 4.1-4.4zM1524.5 479.6c.4.2.7.4.9.8.2.4.2.8 0 1.2s-.4.7-.8.9c-2.5.9-5.1.8-7.6-.3-2.8-1.1-4.8-3.1-6-5.9-1.2-2.8-1.2-5.6 0-8.4 1.1-2.8 3.1-4.8 5.9-6 2.8-1.2 5.6-1.2 8.4 0 2.8 1.1 4.8 3.1 6 5.9 1.2 2.8 1.2 5.6 0 8.4-.2.4-.4.7-.8.9s-.8.2-1.2 0l-15.9-6.5c-.3 1.5-.1 3 .5 4.5.8 2 2.3 3.4 4.3 4.2 1.8.7 3.6.8 5.4.2.2-.1.6-.1.9.1zm4.3-6.1c.3-1.5.1-3-.5-4.5-.8-2-2.3-3.4-4.3-4.2-2-.8-4-.8-6 0-1.5.6-2.7 1.6-3.5 2.9l14.3 5.8zM1551.5 493.9c.4.2.7.5.8.9.2.4.1.8 0 1.2s-.5.7-.9.8c-.4.2-.8.1-1.2 0-4.7-2.2-6-5.6-3.9-10.4l4.6-9.9-1.4-.7c-.4-.2-.7-.5-.8-.9s-.1-.8 0-1.2.5-.7.9-.8c.4-.2.8-.1 1.2 0l1.4.7 3.3-7.1c.2-.4.5-.7.9-.8.4-.2.8-.1 1.2 0s.7.5.8.9c.2.4.1.8 0 1.2l-3.3 7.1 2.9 1.3c.4.2.7.5.8.9.2.4.1.8 0 1.2-.2.4-.5.7-.9.8-.4.2-.8.1-1.2 0l-2.9-1.3-4.6 9.9c-1.3 2.8-.5 4.9 2.3 6.2zM1577.7 497.9c-1.3 2.7-3.4 4.6-6.3 5.5-2.9 1-5.6.8-8.4-.5-2.7-1.3-4.6-3.4-5.5-6.3-1-2.9-.8-5.6.5-8.4 1.3-2.7 3.4-4.6 6.3-5.5s5.6-.8 8.4.5 4.6 3.4 5.5 6.3c1 2.9.9 5.7-.5 8.4zm-6.4-11.8c-1.9-.9-3.9-1.1-6-.4-2 .7-3.5 2-4.5 4-.9 1.9-1.1 3.9-.4 6 .7 2 2 3.5 4 4.5 1.9.9 3.9 1.1 6 .4s3.5-2 4.5-4c.9-1.9 1.1-3.9.4-6s-2-3.6-4-4.5zM1606 491.7c.2-.4.5-.6.9-.8.4-.1.8-.1 1.2.1.4.2.6.5.8.9.1.4.1.8-.1 1.2l-8.8 16.5c-1.4 2.7-3.6 4.4-6.5 5.3-2.9.9-5.7.6-8.3-.8-2.7-1.4-4.4-3.6-5.3-6.5-.9-2.9-.6-5.7.8-8.3 1.4-2.7 3.6-4.4 6.5-5.3 2.9-.9 5.7-.6 8.3.8 2.7 1.4 4.4 3.6 5.3 6.5v.1l5.2-9.7zm-8.8 16.5c1-1.9 1.2-3.9.6-5.9-.6-2.1-1.9-3.6-3.8-4.6-1.9-1-3.9-1.2-5.9-.6-2.1.6-3.6 1.9-4.6 3.8-1 1.9-1.2 3.9-.6 5.9.6 2.1 1.9 3.6 3.8 4.6 1.9 1 3.9 1.2 5.9.6 2-.6 3.5-1.9 4.6-3.8zM1621.8 522c-1.5 2.6-3.7 4.3-6.6 5.1s-5.7.4-8.3-1.1c-2.6-1.5-4.3-3.7-5.1-6.6-.8-2.9-.4-5.7 1.1-8.3 1.5-2.6 3.7-4.3 6.6-5.1 2.9-.8 5.7-.4 8.3 1.1 2.6 1.5 4.3 3.7 5.1 6.6s.4 5.7-1.1 8.3zm-5.6-12.2c-1.9-1.1-3.9-1.3-5.9-.8-2.1.6-3.7 1.8-4.7 3.7-1.1 1.9-1.3 3.9-.8 5.9.6 2.1 1.8 3.7 3.7 4.7s3.9 1.3 5.9.8c2.1-.6 3.7-1.8 4.7-3.7 1.1-1.9 1.3-3.9.8-5.9-.6-2.1-1.8-3.6-3.7-4.7zM1653.1 541.5c-1.6 2.5-3.9 4.2-6.9 4.8-2.9.7-5.7.2-8.2-1.4s-4.2-3.9-4.8-6.9c-.7-2.9-.2-5.7 1.4-8.2s3.9-4.2 6.9-4.8c2.9-.7 5.7-.2 8.2 1.4s4.2 3.9 4.8 6.9c.7 2.9.2 5.7-1.4 8.2zm-5-12.5c-1.8-1.2-3.8-1.5-5.9-1-2.1.5-3.7 1.6-4.9 3.4-1.2 1.8-1.5 3.8-1 5.9.5 2.1 1.6 3.7 3.4 4.9s3.8 1.5 5.9 1c2.1-.5 3.7-1.6 4.9-3.4 1.2-1.8 1.5-3.8 1-5.9-.4-2.1-1.6-3.7-3.4-4.9zM1662.8 559.3c-.2.3-.6.6-1 .6-.4.1-.8 0-1.2-.3s-.6-.6-.6-1c-.1-.4 0-.8.3-1.2l10.9-15.2c.2-.3.6-.6 1-.6.4-.1.8 0 1.2.3s.6.6.6 1c.1.4 0 .8-.3 1.2l-.2.3c2-.2 3.9.4 5.6 1.6 1.9 1.4 3.1 3.2 3.5 5.6.1.5.1 1 .1 1.5.5-.2.9-.3 1.4-.3 2.3-.4 4.5.1 6.4 1.5 1.9 1.4 3.1 3.2 3.5 5.6.4 2.3-.1 4.5-1.5 6.4l-6.8 9.5c-.2.3-.6.6-1 .6-.4.1-.8 0-1.2-.3-.3-.2-.6-.6-.6-1-.1-.4 0-.8.3-1.2l6.8-9.5c.9-1.2 1.2-2.6.9-4.1s-1-2.7-2.2-3.5c-1.2-.9-2.6-1.2-4.1-.9-1.5.2-2.7 1-3.5 2.2l-6.8 9.5c-.2.3-.6.6-1 .6s-.8 0-1.2-.3c-.3-.2-.6-.6-.6-1-.1-.4 0-.8.3-1.2l6.8-9.5c.9-1.2 1.2-2.6.9-4.1-.2-1.5-1-2.7-2.2-3.5s-2.6-1.2-4.1-.9c-1.5.2-2.7 1-3.5 2.2l-6.9 9.4zM1704 589.8c-.3.3-.6.5-1 .6-.4.1-.8 0-1.2-.3-.3-.3-.5-.6-.6-1s0-.8.3-1.2l.8-1c-2.7.3-5.1-.4-7.3-2.1-2.2-1.7-3.5-4-3.9-6.7-.4-2.8.3-5.3 2-7.5l6.2-8c.3-.3.6-.5 1-.6.4-.1.8 0 1.2.3.3.3.5.6.6 1 .1.4 0 .8-.3 1.2l-6.2 8c-1.2 1.5-1.7 3.3-1.4 5.2.2 1.9 1.1 3.5 2.7 4.7 1.5 1.2 3.3 1.7 5.2 1.4 1.9-.2 3.5-1.1 4.7-2.7l6.2-8c.3-.3.6-.5 1-.6.4-.1.8 0 1.2.3.3.3.5.6.6 1 .1.4 0 .8-.3 1.2l-11.5 14.8zM1718.3 577.2c.3-.3.6-.5 1.1-.6.4 0 .8.1 1.1.3.3.3.5.6.6 1.1 0 .4-.1.8-.3 1.1l-.8 1c2.7-.2 5.1.5 7.2 2.3 2.2 1.8 3.4 4.1 3.7 6.9.3 2.8-.5 5.3-2.3 7.4l-6.4 7.9c-.3.3-.6.5-1.1.6-.4 0-.8-.1-1.1-.3-.3-.3-.5-.6-.6-1.1 0-.4.1-.8.3-1.1l6.4-7.8c1.2-1.5 1.8-3.2 1.6-5.1s-1-3.5-2.5-4.7c-1.5-1.2-3.2-1.8-5.1-1.6-1.9.2-3.5 1-4.7 2.5l-6.4 7.8c-.3.3-.6.5-1.1.6-.4 0-.8-.1-1.1-.3-.3-.3-.5-.6-.6-1.1 0-.4.1-.8.3-1.1l11.8-14.7zM1756.9 597.6c.3-.3.6-.5 1.1-.5s.8.1 1.1.4c.3.3.5.6.5 1.1s-.1.8-.4 1.1l-12.4 14.1c-2 2.3-4.5 3.5-7.5 3.7-3 .2-5.7-.7-7.9-2.7s-3.5-4.5-3.7-7.5c-.2-3 .7-5.7 2.7-7.9 2-2.3 4.5-3.5 7.5-3.7 3-.2 5.7.7 7.9 2.7 2.3 2 3.5 4.5 3.7 7.5v.1l7.4-8.4zm-12.3 14.1c1.4-1.6 2.1-3.5 1.9-5.7-.1-2.1-1-3.9-2.7-5.4s-3.5-2.1-5.7-1.9c-2.1.1-3.9 1-5.4 2.7-1.4 1.6-2.1 3.5-1.9 5.7.1 2.2 1 3.9 2.7 5.4 1.6 1.4 3.5 2.1 5.7 1.9 2.2-.2 4-1 5.4-2.7zM1765.4 630.9c-2.1 2.2-4.6 3.4-7.6 3.5-3 .1-5.6-.9-7.8-2.9-2.2-2.1-3.4-4.6-3.5-7.6s.9-5.6 2.9-7.8 4.6-3.4 7.6-3.5 5.6.9 7.8 2.9 3.4 4.6 3.5 7.6c.1 3-.9 5.6-2.9 7.8zm-2.7-13.2c-1.6-1.5-3.4-2.2-5.6-2.1-2.2.1-4 .9-5.4 2.5s-2.2 3.4-2.1 5.6c.1 2.2.9 4 2.5 5.4 1.6 1.5 3.4 2.2 5.6 2.1 2.2-.1 4-.9 5.4-2.5 1.5-1.6 2.2-3.4 2.1-5.6-.1-2.1-.9-3.9-2.5-5.4z"/></svg>