<svg id="Layer_2" data-name="Layer 2" xmlns="http://www.w3.org/2000/svg" viewBox="0 0 2453 2453"><defs><style>.cls-1{fill:#03709c;}</style></defs><title>SS_bottom slogan_RO</title><g id="RO"><path class="cls-1" d="M766.75 565.65l2.71 10.35a1.79 1.79 0 0 1 0 .61 1.55 1.55 0 0 1-.64 1 1.57 1.57 0 0 1-2.18-.35 1.55 1.55 0 0 1-.28-.62l-7.61-29a1.65 1.65 0 0 1 0-.76 1.49 1.49 0 0 1 .62-1 1.55 1.55 0 0 1 1.17-.29 1.75 1.75 0 0 1 .69.29l25.19 16.23a1.55 1.55 0 0 1 .5.46 1.57 1.57 0 0 1-.35 2.18 1.49 1.49 0 0 1-1.15.28 1.61 1.61 0 0 1-.58-.2l-9-5.8zm6.26-8.4l-10.2-6.57 3.08 11.73zM789.14 527.11a1.56 1.56 0 0 1 2.59-1.75l10.5 15.58a10.94 10.94 0 1 1-7-4.62h.11zm10.5 15.58a7.8 7.8 0 1 0 1.2 5.86 7.53 7.53 0 0 0-1.2-5.86zM827.13 536.29a1.56 1.56 0 0 1-2.64 1.67l-.68-1.07a10.16 10.16 0 0 1-18.45 3l-5.36-8.64a1.56 1.56 0 0 1 2.64-1.67l5.41 8.59a7 7 0 0 0 11.9-7.49l-5.41-8.59a1.56 1.56 0 0 1 2.64-1.67zM842.4 522.86a1.57 1.57 0 0 1 2.14.55 1.62 1.62 0 0 1 .16 1.24 10.94 10.94 0 1 1-8.43-14.3 1.56 1.56 0 0 1 1.09.76 1.57 1.57 0 0 1-1.59 2.34 7.81 7.81 0 1 0 6 10.16 1.54 1.54 0 0 1 .63-.75zM861.45 512.3a1.57 1.57 0 0 1 2.12.62 1.55 1.55 0 0 1 .14 1.19 10.94 10.94 0 1 1-.66-9.11 1.57 1.57 0 0 1-.62 2.12l-14.94 8.21a7.85 7.85 0 0 0 9.74 1.78 7.37 7.37 0 0 0 3.52-4.05 1.56 1.56 0 0 1 .7-.76zm-2-7.1a7.84 7.84 0 0 0-13.45 7.39zM880.43 504.32a9.23 9.23 0 0 0 4.78-.81c2.29-1.14 2.8-2.82 2.09-4.25s-2.05-1.88-4.81-1.59c-3.67.44-6-.56-7-2.63-1.39-2.79-.27-6.21 3.46-8.06a9.67 9.67 0 0 1 4.8-1l.35 2.68a7.54 7.54 0 0 0-4 .76c-1.86.92-2.37 2.51-1.73 3.8s2.07 1.56 4.75 1.3c3.58-.35 5.87.39 7.15 3 1.51 3 .21 6.37-3.91 8.41a11 11 0 0 1-5.46 1.24zm6.9 8.68c1.29-.91 2.22-2.26 1.51-3.7a3.31 3.31 0 0 0-2.28-1.55l2.12-1.67a3.62 3.62 0 0 1 2.69 1.92c1.32 2.65-.55 4.92-2.7 6.16zM903.87 493.5a1.56 1.56 0 0 1 1.33 2.83q-7.07 3.33-10.4-3.74l-4.66-9.89-1.41.67a1.56 1.56 0 0 1-1.33-2.83l1.41-.67-3.33-7.07a1.56 1.56 0 0 1 2.83-1.33l3.33 7.07 2.84-1.34a1.56 1.56 0 0 1 1.33 2.83l-2.81 1.34 4.66 9.89q1.97 4.24 6.21 2.24zM903.07 468.12a2 2 0 1 1-1.09-1 1.88 1.88 0 0 1 1.09 1zm-.63 7.14a1.56 1.56 0 0 1 2.85-1.29l7.71 17.09a1.56 1.56 0 0 1-2.85 1.29zM909.76 471.95a1.56 1.56 0 0 1 2.87-1.23l.68 1.58a10.67 10.67 0 0 1 5.88-6.1 11 11 0 0 1 4.17-.94 2 2 0 0 1 .75.12 1.56 1.56 0 0 1 .85.85 1.56 1.56 0 0 1-1.51 2.18 7.75 7.75 0 0 0-3 .66 7.8 7.8 0 0 0-4.09 10.26l3.7 8.61a1.56 1.56 0 0 1-2.87 1.23zM929.57 456.81a2 2 0 1 1-1.05-1.06 1.88 1.88 0 0 1 1.05 1.06zm-.89 7.12a1.56 1.56 0 0 1 2.89-1.18l7.09 17.36a1.56 1.56 0 0 1-2.89 1.18zM932.64 452.21a1.56 1.56 0 0 1 2.91-1.15l9.74 24.71 1.45-.57a1.56 1.56 0 0 1 1.15 2.91l-2.89 1.15a1.57 1.57 0 0 1-2-.88zM966.15 465.55a1.57 1.57 0 0 1 2 .93 1.55 1.55 0 0 1 0 1.2 10.94 10.94 0 1 1 .7-9.11 1.57 1.57 0 0 1-.93 2l-16 5.89a7.85 7.85 0 0 0 9.36 3.21 7.37 7.37 0 0 0 4.09-3.48 1.55 1.55 0 0 1 .78-.64zm-.93-7.32a7.84 7.84 0 0 0-14.41 5.31zM995.29 430.17a1.56 1.56 0 0 1 3-.94l5.64 17.92a10.94 10.94 0 1 1-5.38-6.42l.1.05zm5.64 17.92a7.8 7.8 0 1 0-.52 6 7.53 7.53 0 0 0 .52-6zM1007.53 429.88a2 2 0 1 1-.94-1.16 1.88 1.88 0 0 1 .94 1.16zm-1.63 7a1.56 1.56 0 0 1 3-.87l5.23 18a1.56 1.56 0 0 1-3 .87zM1013.66 434.57a1.56 1.56 0 0 1 3-.81l.34 1.24a10.16 10.16 0 0 1 18.5 2.63l2.62 9.81a1.56 1.56 0 0 1-3 .81l-2.62-9.81a7 7 0 0 0-13.59 3.63l2.62 9.81a1.56 1.56 0 0 1-3 .81zM1046.29 416.5a1.56 1.56 0 0 1 3.05-.67l4 18.32a7.81 7.81 0 1 0 15.27-3.33l-4-18.32a1.56 1.56 0 0 1 3.05-.67l4 18.32a10.94 10.94 0 1 1-21.37 4.66zM1073.14 420.32a1.56 1.56 0 0 1 3.07-.57l.23 1.25a10.16 10.16 0 0 1 18.23 4.07l1.85 10a1.56 1.56 0 0 1-3.07.57l-1.85-10a7 7 0 0 0-13.83 2.56l1.85 10a1.56 1.56 0 0 1-3.07.57zM1100.48 409.12a2 2 0 1 1-.79-1.27 1.88 1.88 0 0 1 .79 1.27zm-2.46 6.73a1.56 1.56 0 0 1 3.08-.5l3 18.51a1.56 1.56 0 0 1-3.08.5zM1119.95 432.62a1.51 1.51 0 0 1-1 .58 1.47 1.47 0 0 1-1.17-.29 1.08 1.08 0 0 1-.3-.33l-11.28-17.48a1.52 1.52 0 0 1-.2-.58 1.57 1.57 0 0 1 1.33-1.77 1.55 1.55 0 0 1 1.17.29 1.76 1.76 0 0 1 .35.36l9.32 14.54 4.92-16.56a1.63 1.63 0 0 1 1.27-1 1.57 1.57 0 0 1 1.73 1.94l-5.94 19.92a1.35 1.35 0 0 1-.2.38zM1148.1 424.28a1.57 1.57 0 0 1 1.72 1.38 1.55 1.55 0 0 1-.33 1.16 10.94 10.94 0 1 1 2.88-8.67 1.57 1.57 0 0 1-1.38 1.72l-16.95 1.86a7.85 7.85 0 0 0 8.31 5.38 7.37 7.37 0 0 0 4.81-2.39 1.55 1.55 0 0 1 .94-.44zm.9-7.28a7.84 7.84 0 0 0-15.26 1.67zM1154.84 408.54a1.56 1.56 0 0 1 3.11-.25l.14 1.71a10.67 10.67 0 0 1 7.52-3.9 11 11 0 0 1 4.25.44 2 2 0 0 1 .68.36 1.56 1.56 0 0 1 .54 1.07 1.56 1.56 0 0 1-2.12 1.58 7.77 7.77 0 0 0-3.08-.34 7.8 7.8 0 0 0-7.15 8.42l.76 9.34a1.56 1.56 0 0 1-3.11.25zM1178.25 416.17a6.9 6.9 0 0 1-2.55-1.25 4.47 4.47 0 0 1-1.57-3.22 4.63 4.63 0 0 1 1.25-3.45 9.82 9.82 0 0 1 7.17-3.28 10.87 10.87 0 0 1 8.6 3.45 1.3 1.3 0 0 1 .34.9A1.57 1.57 0 0 1 1190 411a1.36 1.36 0 0 1-1.06-.35l-.6-.55a7.53 7.53 0 0 0-5.65-2 6.81 6.81 0 0 0-5.05 2.32 2 2 0 0 0-.39 1.37 1.34 1.34 0 0 0 1 1.19l9.77 2.64a6.92 6.92 0 0 1 2.55 1.25 4.47 4.47 0 0 1 1.57 3.22 4.63 4.63 0 0 1-1.25 3.45 9.82 9.82 0 0 1-7.17 3.28 10.82 10.82 0 0 1-8.6-3.45 1.54 1.54 0 0 1-.34-.9 1.57 1.57 0 0 1 1.47-1.65 1.36 1.36 0 0 1 1.06.35l.6.55a7.53 7.53 0 0 0 5.65 2 6.81 6.81 0 0 0 5.05-2.32 2 2 0 0 0 .39-1.4 1.34 1.34 0 0 0-1-1.19zM1224 420.2a1.57 1.57 0 0 1 1.59 1.54 1.62 1.62 0 0 1-.47 1.16 10.94 10.94 0 1 1-.27-16.6 1.56 1.56 0 0 1 .57 1.2 1.57 1.57 0 0 1-1.54 1.59 1.53 1.53 0 0 1-1-.33 7.81 7.81 0 1 0 .17 11.78 1.54 1.54 0 0 1 .95-.34zM1250.78 414.94a10.94 10.94 0 1 1-3.08-7.79 10.54 10.54 0 0 1 3.08 7.79zM1240 407a7.8 7.8 0 1 0 5.49 2.37A7.53 7.53 0 0 0 1240 407zM1256.26 433.92a1.56 1.56 0 0 1-3.12-.15L1254 415a10.94 10.94 0 1 1 2.83 7.88l-.07-.08zm.89-18.73a7.8 7.8 0 1 0 2.55-5.41 7.53 7.53 0 0 0-2.55 5.41zM1281.29 407.12a1.56 1.56 0 0 1 3.12.22L1283.1 426a1.56 1.56 0 0 1-3.12-.22zm3.94-6a2 2 0 1 1-.48-1.41 1.88 1.88 0 0 1 .48 1.42zM1290.81 407.82a1.56 1.56 0 0 1 3.11.25l-1.53 18.69a1.56 1.56 0 0 1-3.11-.26zm4-5.94a2 2 0 1 1-.46-1.42 1.88 1.88 0 0 1 .47 1.42zM1299.62 399.16a1.56 1.56 0 0 1 3.11.29l-2.49 26.45 1.56.15a1.56 1.56 0 0 1-.29 3.11l-3.11-.29a1.57 1.57 0 0 1-1.41-1.7zM1329 421.19a10.94 10.94 0 1 1-2.29-8.05 10.54 10.54 0 0 1 2.29 8.05zm-10-9a7.8 7.8 0 1 0 5.23 2.91 7.53 7.53 0 0 0-5.23-2.93zM1333.57 412.38a1.56 1.56 0 0 1 3.09.45l-.25 1.7a10.67 10.67 0 0 1 8.2-2.12 11 11 0 0 1 4 1.38 2 2 0 0 1 .58.5 1.55 1.55 0 0 1 .28 1.17 1.57 1.57 0 0 1-2.42 1.07 7.75 7.75 0 0 0-2.93-1 7.8 7.8 0 0 0-8.85 6.61l-1.35 9.28a1.56 1.56 0 0 1-3.09-.45zM1384.43 411.36a1.56 1.56 0 0 1 3.07.58l-3.5 18.46a10.94 10.94 0 1 1-1.7-8.2l.06.09zm-3.51 18.46a7.8 7.8 0 1 0-3.28 5 7.53 7.53 0 0 0 3.29-5zM1390.6 422.27a1.56 1.56 0 0 1 3.06.65l-3.91 18.34a1.56 1.56 0 0 1-3.06-.65zm4.74-5.38a2 2 0 1 1-.28-1.47 1.88 1.88 0 0 1 .28 1.48zM1398.52 423.92a1.56 1.56 0 0 1 3 .72l-.29 1.24a10.16 10.16 0 0 1 15 11.07l-2.33 9.89a1.56 1.56 0 0 1-3-.72l2.33-9.89a7 7 0 0 0-13.69-3.23l-2.33 9.89a1.56 1.56 0 0 1-3-.72zM1435.6 423.46a1.56 1.56 0 0 1 3 .83l-7 25.61 1.51.41a1.56 1.56 0 0 1-.83 3l-3-.83a1.57 1.57 0 0 1-1.09-1.92zM1456.54 458.78a1.56 1.56 0 0 1-3-.89l.36-1.22a10.16 10.16 0 0 1-14.38-11.93l2.9-9.73a1.56 1.56 0 0 1 3 .89l-2.9 9.73a7 7 0 0 0 13.48 4l2.9-9.73a1.56 1.56 0 0 1 3 .89zM1462.3 460.57a1.56 1.56 0 0 1-3-1l6-17.76a1.56 1.56 0 0 1 3 1l-.13.39a8.18 8.18 0 0 1 5.81-.11 8.28 8.28 0 0 1 4.94 4.34 9.65 9.65 0 0 1 .55 1.36 9.53 9.53 0 0 1 1.26-.75 8.59 8.59 0 0 1 11.94 10.46l-3.77 11.1a1.56 1.56 0 0 1-3-1l3.77-11.1a5.47 5.47 0 1 0-10.36-3.51l-3.77 11.1a1.56 1.56 0 0 1-3-1l3.76-11.1a5.47 5.47 0 1 0-10.36-3.51zM1508.83 473.25a1.57 1.57 0 0 1 .9 2 1.55 1.55 0 0 1-.82.88 10.94 10.94 0 1 1 6.53-6.39 1.57 1.57 0 0 1-2 .9l-15.92-6.1a7.85 7.85 0 0 0 4.93 8.58 7.37 7.37 0 0 0 5.37.07 1.55 1.55 0 0 1 1.01.06zm4.12-6.12a7.84 7.84 0 0 0-14.34-5.49zM1532.76 485.29a10.67 10.67 0 0 1-8.47 0 10.94 10.94 0 1 1 14.32-5.84l-3.64 8.64a1.56 1.56 0 0 1-2.88-1.21zm-1.2-17.29a7.8 7.8 0 1 0 4.21 4.25 7.53 7.53 0 0 0-4.21-4.25zM1558.35 478.15a1.56 1.56 0 0 1 2.83 1.32l-7.93 17a1.56 1.56 0 0 1-2.83-1.32zm6.47-8l2.92 4.79a1.69 1.69 0 0 1 .13 1.57 1.57 1.57 0 0 1-2.82 0l-2.32-3.8-4.4.66a1.57 1.57 0 0 1-1.78-2.19 1.69 1.69 0 0 1 1.29-.91l5.54-.84a1.6 1.6 0 0 1 1.45.77zM1566.4 481.87a1.56 1.56 0 0 1 2.8 1.39l-.56 1.14a10.16 10.16 0 0 1 12.16 14.18l-4.5 9.1a1.56 1.56 0 0 1-2.8-1.38l4.5-9.1a7 7 0 0 0-12.61-6.23l-4.5 9.1a1.56 1.56 0 0 1-2.8-1.38zM1589.35 512.8a1.56 1.56 0 0 1-1.46 2.77q-6.91-3.64-3.27-10.55l5.09-9.68-1.38-.73a1.56 1.56 0 0 1 1.46-2.76l1.38.73 3.64-6.91a1.56 1.56 0 0 1 2.77 1.46l-3.64 6.91 2.78 1.46a1.56 1.56 0 0 1-1.46 2.77l-2.78-1.46-5.09 9.68q-2.19 4.13 1.96 6.31zM1601.75 499.93a1.56 1.56 0 0 1 2.73 1.52l-.83 1.5a10.66 10.66 0 0 1 8.42.92 11 11 0 0 1 3.29 2.72 2 2 0 0 1 .36.67 1.56 1.56 0 0 1-.15 1.19 1.56 1.56 0 0 1-2.65.14 7.75 7.75 0 0 0-2.38-2 7.8 7.8 0 0 0-10.62 3l-4.55 8.2a1.56 1.56 0 0 1-2.73-1.52zM1625.39 530.75a1.57 1.57 0 0 1 .55 2.14 1.55 1.55 0 0 1-1 .73 10.94 10.94 0 1 1 7.51-5.2 1.57 1.57 0 0 1-2.14.55l-14.67-8.69a7.85 7.85 0 0 0 3.42 9.29 7.37 7.37 0 0 0 5.28 1 1.55 1.55 0 0 1 1.05.18zm5.09-5.34a7.84 7.84 0 0 0-13.21-7.83zM1647 546.66a10.67 10.67 0 0 1-8.35-1.43 10.94 10.94 0 1 1 15.1-3.35l-5 7.91a1.56 1.56 0 0 1-2.64-1.68zm1.72-17.24a7.8 7.8 0 1 0 3.43 4.9 7.53 7.53 0 0 0-3.47-4.9zM1667.58 560.58h-.11a10.94 10.94 0 1 1 7-4.58l-6.17 9a8.22 8.22 0 0 1-5.38 3.51 11.72 11.72 0 0 1-13.69-9.36 11.64 11.64 0 0 1-.18-3.41 1.44 1.44 0 0 1 .27-.81 1.57 1.57 0 0 1 2.17-.41 1.55 1.55 0 0 1 .67 1 2.37 2.37 0 0 1 0 .57 8.9 8.9 0 0 0 .13 2.48 8.58 8.58 0 0 0 10 6.86 5.85 5.85 0 0 0 3.4-2.2zm2.28-17.18a7.8 7.8 0 1 0 3.27 5 7.53 7.53 0 0 0-3.27-5zM1687.73 575.14a10.67 10.67 0 0 1-8.24-2 10.94 10.94 0 1 1 15.29-2.37l-5.54 7.56a1.56 1.56 0 0 1-2.52-1.85zm2.83-17.1a7.8 7.8 0 1 0 3.11 5.11 7.53 7.53 0 0 0-3.11-5.15zm1.05-11.82a1.56 1.56 0 0 1 2.52 1.85 1.33 1.33 0 0 0 .09 1.43 4.89 4.89 0 0 0 1.51 1.67 5 5 0 0 0 2.06.94 1.33 1.33 0 0 0 1.4-.34 1.56 1.56 0 0 1 2.52 1.85 4.14 4.14 0 0 1-3.43 1.58 7.79 7.79 0 0 1-7.15-5.22 4 4 0 0 1 .48-3.75z"/></g></svg>