<svg xmlns="http://www.w3.org/2000/svg" viewBox="0 0 2453 2453"><title>SS_bottom slogan_NO</title><path fill="#03709C" d="M677.5 655.7c.3.3.5.7.5 1.1s-.2.8-.5 1.1-.7.5-1.1.5-.8-.2-1.1-.5l-20-20c-.3-.3-.5-.7-.5-1.1 0-.4.2-.8.5-1.1.3-.3.8-.5 1.3-.5l31 3.9-16.7-16.7c-.3-.3-.5-.7-.5-1.1 0-.4.2-.8.5-1.1s.7-.5 1.1-.5c.4 0 .8.2 1.1.5l20 20c.3.3.5.7.5 1.1s-.2.8-.5 1.1c-.3.3-.7.5-1.2.5l-31.1-3.9 16.7 16.7zM700.7 633l-17.7-8c-.2-.1-.4-.2-.6-.4-.3-.3-.4-.7-.4-1.1 0-.4.2-.8.5-1.1.3-.3.7-.4 1.1-.4.2 0 .5.1.7.2l14.9 6.8-5.7-15.4c-.1-.2-.1-.4-.1-.7 0-.4.2-.8.5-1.1.3-.3.7-.4 1.1-.4.4 0 .8.2 1.1.5.2.2.3.4.4.6l10.5 28.3c.1.2.1.4.1.7 0 .4-.2.8-.5 1.1-.3.3-.7.4-1.1.4-.4 0-.8-.2-1.1-.5-.2-.2-.3-.4-.4-.6l-3.3-8.9zM692.4 602.3c-.3-.3-.4-.7-.4-1.1s.2-.8.5-1.1.7-.4 1.1-.4c.4 0 .8.2 1.1.5l7 8c.2-2.7 1.4-5 3.4-6.8 2.1-1.8 4.5-2.7 7.3-2.5 2.8.2 5.1 1.3 7 3.4l6.7 7.6c.3.3.4.7.4 1.1 0 .4-.2.8-.5 1.1s-.7.4-1.1.4c-.4 0-.8-.2-1.1-.5l-6.7-7.6c-1.3-1.5-2.9-2.2-4.8-2.4-1.9-.1-3.6.5-5.1 1.7-1.5 1.3-2.2 2.9-2.4 4.8-.1 1.9.5 3.6 1.7 5.1l6.7 7.6c.3.3.4.7.4 1.1 0 .4-.2.8-.5 1.1s-.7.4-1.1.4c-.4 0-.8-.2-1.1-.5l-18.5-21zM739 594.3c.3-.3.7-.4 1.1-.4.4 0 .8.2 1.1.6s.4.7.4 1.1c-.4 2.6-1.7 4.8-3.8 6.6-2.3 1.9-5 2.8-8 2.5-3-.3-5.5-1.6-7.4-3.9-1.9-2.3-2.8-5-2.5-8 .3-3 1.6-5.5 3.9-7.4 2.3-1.9 5-2.8 8-2.5 3 .3 5.5 1.6 7.4 3.9.3.3.4.7.4 1.1s-.2.8-.6 1.1l-13.1 10.9c1.2 1 2.6 1.5 4.2 1.7 2.1.2 4-.4 5.7-1.8 1.5-1.2 2.4-2.8 2.7-4.6.1-.4.2-.7.5-.9zm-3.3-6.6c-1.2-1-2.6-1.5-4.2-1.7-2.1-.2-4.1.4-5.7 1.8s-2.6 3.1-2.8 5.3c-.1 1.6.1 3.1.9 4.4l11.8-9.8zM755.2 584.2c.3-.3.7-.4 1.2-.3.4.1.8.2 1 .6.3.3.4.7.3 1.2-.1.4-.2.8-.6 1-4.1 3.2-7.7 2.8-11-1.3l-6.8-8.6-1.2 1c-.3.3-.7.4-1.2.3-.4-.1-.8-.2-1-.6-.3-.3-.4-.7-.3-1.2.1-.4.2-.8.6-1l1.2-1-4.8-6.1c-.3-.3-.4-.7-.3-1.2.1-.4.2-.8.6-1 .3-.3.7-.4 1.2-.3.4.1.8.2 1 .6l4.8 6.1 2.5-1.9c.3-.3.7-.4 1.2-.3.4.1.8.2 1 .6.3.3.4.7.3 1.2-.1.4-.2.8-.6 1l-2.5 1.9 6.8 8.6c1.9 2.4 4.1 2.6 6.6.7zM770.1 570.1c.3-.3.7-.4 1.2-.3.4.1.8.3 1 .6.3.3.4.7.3 1.2-.6 2.6-1.9 4.7-4.1 6.4-2.4 1.8-5.1 2.5-8.1 2.1-3-.4-5.4-1.9-7.2-4.3-1.8-2.4-2.5-5.1-2.1-8.1.4-3 1.9-5.4 4.3-7.2 2.4-1.8 5.1-2.5 8.1-2.1 3 .4 5.4 1.9 7.2 4.3.3.3.4.7.3 1.2-.1.4-.3.8-.6 1l-13.7 10.2c1.1 1 2.5 1.7 4.1 1.9 2.1.3 4.1-.2 5.8-1.5 1.6-1.2 2.5-2.7 2.9-4.5.1-.4.3-.6.6-.9zm-3-6.7c-1.1-1-2.5-1.7-4.1-1.9-2.1-.3-4.1.2-5.8 1.5-1.7 1.3-2.7 3-3.1 5.1-.2 1.6 0 3.1.7 4.5l12.3-9.2zM767.9 553.2c-.2-.4-.3-.7-.3-1.2.1-.4.3-.8.6-1 .4-.2.7-.3 1.2-.3.4.1.8.3 1 .6l1 1.4c.5-3 2-5.4 4.5-7.2 1.2-.9 2.5-1.5 3.9-1.8.2-.1.5-.1.8 0 .4.1.8.3 1 .7.2.4.3.7.3 1.2-.1.4-.3.8-.6 1l-.6.3c-1 .2-1.9.6-2.8 1.3-1.8 1.2-2.8 2.9-3.2 5.1-.4 2.1.1 4.1 1.3 5.8l5.4 7.7c.2.4.3.7.3 1.2-.1.4-.3.8-.6 1-.4.2-.7.3-1.2.3-.4-.1-.8-.3-1-.6l-11-15.5zM797.8 519.5c.4-.2.8-.3 1.2-.2.4.1.8.3 1 .7.2.4.3.8.2 1.2-.1.4-.3.8-.7 1-3.5 2.3-4.1 5.2-1.8 8.7l.6 1 4-2.6c.4-.2.8-.3 1.2-.2.4.1.8.3 1 .7.2.4.3.8.2 1.2-.1.4-.3.8-.7 1l-4 2.6 8.8 13.5c.2.4.3.8.2 1.2-.1.4-.3.8-.7 1-.4.2-.8.3-1.2.2-.4-.1-.8-.3-1-.7l-8.8-13.5-1.3.9c-.4.2-.8.3-1.2.2-.4-.1-.8-.3-1-.7-.2-.4-.3-.8-.2-1.2.1-.4.3-.8.7-1l1.3-.9-.6-1c-3.4-5.3-2.5-9.7 2.8-13.1zM806.7 526.9c-.2-.4-.3-.8-.2-1.2.1-.4.3-.7.7-1s.8-.3 1.2-.2.7.3 1 .7l.9 1.5c.7-3 2.3-5.3 4.9-6.9 1.3-.8 2.6-1.3 4-1.5h.8c.4.1.7.3 1 .7s.3.8.2 1.2c-.1.4-.3.7-.7 1-.2.1-.4.2-.7.2-1 .2-2 .5-2.9 1.1-1.8 1.1-3 2.8-3.5 4.9s-.2 4.1 1 5.9l4.9 8c.2.4.3.8.2 1.2s-.3.7-.7 1-.8.3-1.2.2c-.4-.1-.7-.3-1-.7l-9.9-16.1zM847.7 522.2c-.8 3-2.5 5.2-5.1 6.7s-5.3 1.9-8.3 1.1c-2.9-.8-5.1-2.5-6.6-5-1.5-2.6-1.9-5.3-1.1-8.3.8-2.9 2.5-5.1 5-6.6s5.3-1.9 8.3-1.1c2.9.8 5.1 2.5 6.6 5l4.7 8.1c.2.4.3.8.2 1.2-.1.4-.4.7-.7.9s-.8.3-1.2.2c-.4-.1-.7-.3-.9-.7l-.9-1.5zm-14.5-9.4c-1.9 1.1-3.1 2.7-3.6 4.7-.5 2.1-.3 4 .8 5.9s2.7 3.1 4.7 3.6c2.1.5 4 .3 5.9-.8 1.9-1.1 3.1-2.7 3.6-4.7.5-2.1.3-4-.8-5.9s-2.7-3.1-4.7-3.6-4-.2-5.9.8zM851.2 490.1c-.2-.4-.2-.8-.1-1.2.1-.4.4-.7.8-.9.4-.2.8-.2 1.2-.1.4.1.7.4.9.8l4.9 9.4c.9-2.6 2.5-4.5 4.9-5.8 2.5-1.3 5.1-1.5 7.7-.7 2.7.8 4.7 2.5 6 5l4.7 9c.2.4.2.8.1 1.2-.1.4-.4.7-.8.9-.4.2-.8.2-1.2.1-.4-.1-.7-.4-.9-.8l-4.7-9c-.9-1.7-2.3-2.9-4.1-3.5-1.9-.6-3.6-.4-5.4.5-1.7.9-2.9 2.3-3.5 4.1-.6 1.9-.4 3.6.5 5.4l4.7 9c.2.4.2.8.1 1.2-.1.4-.4.7-.8.9-.4.2-.8.2-1.2.1s-.7-.4-.9-.8l-12.9-24.8zM898.4 493.7c.4-.2.8-.2 1.2-.1.4.1.7.4.9.8s.2.8.1 1.2c-1.1 2.5-2.8 4.3-5.3 5.4-2.7 1.3-5.5 1.4-8.3.4-2.8-1-4.9-2.9-6.2-5.6-1.3-2.7-1.4-5.5-.4-8.3 1-2.8 2.9-4.9 5.6-6.2 2.7-1.3 5.5-1.4 8.3-.4 2.8 1 4.9 2.9 6.2 5.6.2.4.2.8.1 1.2-.1.4-.4.7-.8.9l-15.3 7.3c.9 1.2 2.1 2.1 3.6 2.6 2 .7 4 .6 6-.3 1.8-.8 3-2.1 3.7-3.8.1-.3.3-.6.6-.7zm-1.6-7.2c-.9-1.2-2.1-2.1-3.6-2.6-2-.7-4-.6-6 .3-1.9.9-3.3 2.4-4 4.4-.5 1.5-.6 3-.2 4.5l13.8-6.6zM895.6 468.1c-.2-.4-.2-.8 0-1.2.2-.4.4-.7.8-.9s.8-.2 1.2 0c.4.2.7.4.9.8l11 24.2 1.4-.6c.4-.2.8-.2 1.2 0 .4.2.7.4.9.8s.2.8 0 1.2c-.2.4-.4.7-.8.9l-2.8 1.3c-.4.2-.8.2-1.2 0-.4-.2-.7-.4-.9-.8l-11.7-25.7zM929.8 479.7c.4-.2.8-.2 1.2 0s.7.4.9.8c.2.4.2.8 0 1.2-1.2 2.4-3 4.2-5.5 5.2-2.8 1.2-5.6 1.2-8.4.1-2.8-1.1-4.8-3.1-6-5.9-1.2-2.8-1.2-5.6-.1-8.4 1.1-2.8 3.1-4.8 5.9-6 2.8-1.2 5.6-1.2 8.4-.1 2.8 1.1 4.8 3.1 6 5.9.2.4.2.8 0 1.2-.2.4-.4.7-.8.9l-15.7 6.7c.9 1.3 2 2.2 3.5 2.8 2 .8 4 .8 6-.1 1.8-.8 3.1-2 3.9-3.7.1-.2.3-.5.7-.6zm-1.3-7.3c-.9-1.3-2-2.2-3.5-2.8-2-.8-4-.8-6 .1-2 .8-3.4 2.3-4.2 4.3-.6 1.5-.7 3-.4 4.5l14.1-6.1zM968.4 468.7c.1.4.1.8 0 1.2-.2.4-.5.7-.9.8-.4.2-.8.1-1.2 0-.4-.2-.7-.5-.8-.9l-.4-1.2c-1.2 2.5-3 4.2-5.6 5.1-2.6 1-5.2.9-7.8-.3-2.6-1.2-4.3-3.1-5.3-5.7l-3.6-9.5c-.2-.4-.1-.8 0-1.2.2-.4.5-.7.9-.8.4-.2.8-.1 1.2 0 .4.2.7.5.8.9l3.6 9.5c.7 1.8 1.9 3.1 3.7 4 1.8.8 3.6.9 5.4.2 1.8-.7 3.1-1.9 4-3.7.8-1.8.9-3.6.2-5.4l-3.6-9.5c-.2-.4-.1-.8 0-1.2.2-.4.5-.7.9-.8.4-.1.8-.1 1.2 0 .4.2.7.5.8.9l6.5 17.6zM965.1 450c-.1-.4-.1-.8.1-1.2.2-.4.5-.7.9-.8s.8-.1 1.2.1c.4.2.7.5.8.9l.4 1.2c1.2-2.4 3.2-4.1 5.8-4.9 2.7-.9 5.2-.7 7.8.5 2.5 1.2 4.2 3.2 5.1 5.8l3.3 9.6c.1.4.1.8-.1 1.2-.2.4-.5.7-.9.8-.4.1-.8.1-1.2-.1-.4-.2-.7-.5-.8-.9l-3.3-9.6c-.6-1.8-1.8-3.2-3.5-4-1.7-.9-3.5-1-5.4-.4-1.8.6-3.2 1.8-4 3.5s-1 3.5-.4 5.4l3.3 9.6c.1.4.1.8-.1 1.2-.2.4-.5.7-.9.8s-.8.1-1.2-.1c-.4-.2-.7-.5-.8-.9l-6.1-17.7zM990.6 435.1c.2.5.1 1-.1 1.5s-.6.8-1.1 1-1 .1-1.5-.1-.8-.6-1-1.1-.1-1 .1-1.5.6-.8 1.1-1 1-.1 1.5.1.8.6 1 1.1zm-1.5 7c-.1-.4-.1-.8.1-1.2.2-.4.5-.6.9-.8.4-.1.8-.1 1.2.1.4.2.6.5.8.9l5.6 17.8c.1.4.1.8-.1 1.2-.2.4-.5.6-.9.8-.4.1-.8.1-1.2-.1-.4-.2-.6-.5-.8-.9l-5.6-17.8zM1013.2 455.4c-.2.4-.5.6-.9.7-.4.1-.8.1-1.2-.1-.1 0-.2-.1-.3-.3L997.2 440c-.1-.2-.2-.3-.3-.5-.1-.4-.1-.8.1-1.2.2-.4.5-.6.9-.7.4-.1.8-.1 1.2.1.1.1.3.2.4.3l11.3 13.1 2.5-17.1c0-.2.1-.3.2-.5.2-.4.5-.6.9-.7.4-.1.8-.1 1.2.1.4.2.6.5.7.9.1.2.1.4.1.6l-3 20.6c-.1.2-.2.3-.2.4zM1039.9 443.2c.4-.1.8-.1 1.2.2.4.2.6.5.7 1 .1.4.1.8-.2 1.2-1.5 2.2-3.6 3.7-6.3 4.3-2.9.8-5.7.4-8.3-1.2-2.6-1.5-4.3-3.8-5-6.7-.8-2.9-.4-5.7 1.2-8.3 1.5-2.6 3.8-4.3 6.7-5 2.9-.8 5.7-.4 8.3 1.2 2.6 1.5 4.3 3.8 5 6.7.1.4.1.8-.2 1.2s-.5.6-1 .7l-16.5 4.3c.7 1.4 1.7 2.5 3.1 3.3 1.9 1.1 3.8 1.4 5.9.8 1.9-.5 3.4-1.5 4.4-3.1.4-.4.6-.6 1-.6zm-.2-7.4c-.7-1.4-1.7-2.5-3.1-3.3-1.9-1.1-3.8-1.4-5.9-.8-2.1.5-3.7 1.7-4.8 3.6-.8 1.4-1.2 2.9-1.1 4.4l14.9-3.9zM1044.3 426.6c-.1-.4 0-.8.2-1.2s.6-.6 1-.7c.4-.1.8 0 1.2.2.4.2.6.6.7 1l.4 1.7c1.6-2.6 3.9-4.3 6.9-4.9 1.5-.3 2.9-.4 4.3-.2.2 0 .5.1.7.3.4.2.6.6.7 1 .1.4 0 .8-.2 1.2-.2.4-.6.6-1 .7-.2.1-.5.1-.7 0-1-.2-2-.1-3.1.1-2.1.5-3.7 1.6-4.9 3.5-1.1 1.8-1.5 3.8-1 5.9l2.1 9.1c.1.4 0 .8-.2 1.2-.2.4-.6.6-1 .7s-.8 0-1.2-.2c-.4-.2-.6-.6-.7-1l-4.2-18.4zM1068.5 430.8c-1.2-.2-2.2-.5-2.7-.9-1.1-.7-1.8-1.7-2-3-.3-1.3 0-2.5.7-3.6 1.5-2.3 3.7-3.7 6.6-4.3 3.2-.7 6.2.1 9 2.2.3.2.4.5.5.8.1.4 0 .8-.2 1.2-.2.4-.6.6-1 .7-.4.1-.8 0-1.1-.2s-.5-.4-.7-.5c-1.8-1.2-3.8-1.6-5.9-1.1-2.1.4-3.7 1.4-4.7 3-.2.4-.3.9-.2 1.4.2.6.6.9 1.2 1l10.1 1.2c1.2.2 2.2.5 2.7.9 1.1.7 1.8 1.7 2 3 .3 1.3 0 2.5-.7 3.6-1.5 2.3-3.7 3.7-6.6 4.3-3.2.7-6.2-.1-9-2.2-.2-.2-.4-.5-.5-.8-.1-.4 0-.8.2-1.2.2-.4.6-.6 1-.7.4-.1.8 0 1.1.2.3.2.5.4.7.5 1.8 1.2 3.8 1.6 5.9 1.1 2.1-.4 3.7-1.4 4.7-3 .2-.4.3-.9.2-1.4-.2-.6-.6-.9-1.2-1l-10.1-1.2zM1102.9 430.2c.4-.1.8 0 1.2.3.4.3.6.6.6 1s0 .8-.3 1.2c-1.7 2.1-3.9 3.3-6.6 3.8-3 .5-5.7-.1-8.2-1.9-2.5-1.7-3.9-4.1-4.5-7.1-.5-3 .1-5.7 1.9-8.2 1.7-2.5 4.1-3.9 7.1-4.5 3-.5 5.7.1 8.2 1.9 2.5 1.7 3.9 4.1 4.5 7.1.1.4 0 .8-.3 1.2-.3.4-.6.6-1 .6l-16.8 2.9c.5 1.4 1.5 2.6 2.8 3.5 1.8 1.2 3.7 1.7 5.8 1.3 1.9-.3 3.5-1.2 4.7-2.7.2-.1.5-.3.9-.4zm.4-7.3c-.5-1.4-1.5-2.6-2.8-3.5-1.8-1.2-3.7-1.7-5.8-1.3s-3.8 1.4-5.1 3.2c-.9 1.3-1.4 2.7-1.5 4.3l15.2-2.7zM1121.9 429.6c.4-.1.8 0 1.2.3.3.3.5.6.6 1 .1.4 0 .8-.3 1.2-.3.3-.6.5-1 .6-5.2.7-8.1-1.5-8.8-6.6l-1.6-10.8-1.5.2c-.4.1-.8 0-1.2-.3-.3-.3-.5-.6-.6-1-.1-.4 0-.8.3-1.2.3-.3.6-.5 1-.6l1.5-.2-1.1-7.7c-.1-.4 0-.8.3-1.2.3-.3.6-.5 1-.6.4-.1.8 0 1.2.3.3.3.5.6.6 1l1.1 7.7 3.1-.4c.4-.1.8 0 1.2.3.3.3.5.6.6 1 .1.4 0 .8-.3 1.2-.3.3-.6.5-1 .6l-3.1.4 1.6 10.8c.3 3.1 2.1 4.5 5.2 4zM1148.9 426.4c.4 0 .8.1 1.1.3.3.3.5.6.6 1 0 .4-.1.8-.3 1.1-.3.3-.6.5-1 .6-5.2.6-8-1.8-8.6-6.9l-1.2-10.9-1.6.2c-.4 0-.8-.1-1.1-.3-.3-.3-.5-.6-.6-1 0-.4.1-.8.3-1.1.3-.3.6-.5 1-.6l1.6-.2-.8-7.8c0-.4.1-.8.3-1.1.3-.3.6-.5 1-.6s.8.1 1.1.3c.3.3.5.6.6 1l.8 7.8 3.1-.3c.4 0 .8.1 1.1.3.3.3.5.6.6 1 0 .4-.1.8-.3 1.1-.3.3-.6.5-1 .6l-3.1.3 1.2 10.9c.3 3.3 2.1 4.6 5.2 4.3zM1156.4 402.2c0 .5-.1 1-.4 1.4-.3.4-.8.7-1.3.7s-1-.1-1.4-.4-.6-.8-.7-1.3c0-.5.1-1 .4-1.4.3-.4.8-.7 1.3-.7s1 .1 1.4.4c.4.3.7.7.7 1.3zm-2.9 6.5c0-.4.1-.8.4-1.1.3-.3.6-.5 1.1-.6.4 0 .8.1 1.1.4.3.3.5.6.6 1.1l1.7 18.7c0 .4-.1.8-.4 1.1-.3.3-.6.5-1.1.6-.4 0-.8-.1-1.1-.4-.3-.3-.5-.6-.6-1.1l-1.7-18.7zM1160.6 398.6c0-.4.1-.8.4-1.1.3-.3.6-.5 1.1-.5.4 0 .8.1 1.1.4.3.3.5.6.5 1.1l2.1 26.6 1.6-.1c.4 0 .8.1 1.1.4.3.3.5.6.5 1.1 0 .4-.1.8-.4 1.1-.3.3-.6.5-1.1.5l-3.1.2c-.4 0-.8-.1-1.1-.4-.3-.3-.5-.6-.5-1.1l-2.2-28.2zM1186.2 408c2.1-2.3 4.7-3.5 7.7-3.6 3-.1 5.6.8 7.9 2.9 2.2 2.1 3.4 4.6 3.5 7.6.1 3-.8 5.6-2.9 7.9-2.1 2.2-4.6 3.4-7.6 3.5-3 .1-5.6-.8-7.9-2.9-2.2-2.1-3.4-4.6-3.5-7.6l-.8-18.8c0-.4.1-.8.4-1.1.3-.3.7-.5 1.1-.5.4 0 .8.1 1.1.4.3.3.5.7.5 1.1l.5 11.1zm8.4 15.2c2.2-.1 4-.9 5.4-2.5 1.5-1.6 2.1-3.5 2.1-5.6-.1-2.2-.9-4-2.5-5.4-1.6-1.5-3.5-2.2-5.6-2.1-2.2.1-4 .9-5.4 2.5-1.5 1.6-2.1 3.5-2.1 5.6.1 2.2.9 4 2.5 5.4 1.6 1.5 3.5 2.2 5.6 2.1zM1227.3 422.2c-2.1 2.2-4.7 3.4-7.7 3.4-3 .1-5.6-1-7.8-3-2.2-2.1-3.3-4.6-3.4-7.7-.1-3 1-5.6 3-7.8 2.1-2.2 4.6-3.3 7.7-3.4 3-.1 5.6 1 7.8 3 2.2 2.1 3.3 4.6 3.4 7.7l.2 9.4c0 .4-.1.8-.4 1.1-.3.3-.7.5-1.1.5-.4 0-.8-.1-1.1-.4-.3-.3-.5-.7-.5-1.1l-.1-1.7zm-8.1-15.3c-2.2 0-4 .8-5.5 2.4-1.5 1.6-2.2 3.4-2.2 5.6 0 2.2.8 4 2.4 5.5 1.6 1.5 3.4 2.2 5.6 2.2 2.2 0 4-.8 5.5-2.4 1.5-1.6 2.2-3.4 2.2-5.6 0-2.2-.8-4-2.4-5.5-1.6-1.6-3.5-2.3-5.6-2.2zM1233.8 405.3c0-.4.2-.8.5-1.1.3-.3.7-.4 1.1-.4.4 0 .8.2 1.1.5.3.3.4.7.4 1.1v1.7c2.2-2.1 4.9-3.2 7.9-3.1 1.5 0 2.9.3 4.2.9.2.1.4.2.6.4.3.3.4.7.4 1.1s-.2.8-.5 1.1c-.3.3-.7.4-1.1.4-.2 0-.5-.1-.7-.2-.9-.4-1.9-.6-3-.6-2.2 0-4 .7-5.6 2.2-1.6 1.5-2.4 3.3-2.4 5.5l-.2 9.4c0 .4-.2.8-.5 1.1-.3.3-.7.4-1.1.4-.4 0-.8-.2-1.1-.5-.3-.3-.4-.7-.4-1.1l.4-18.8zM1252.7 405.6c0-.4.2-.8.5-1.1.3-.3.7-.4 1.1-.4s.8.2 1.1.5c.3.3.4.7.4 1.1l-.1 1.3c2-1.8 4.4-2.7 7.1-2.6 2.8.1 5.2 1.2 7.1 3.3 1.9 2.1 2.8 4.5 2.7 7.3l-.4 10.2c0 .4-.2.8-.5 1.1-.3.3-.7.4-1.1.4s-.8-.2-1.1-.5c-.3-.3-.4-.7-.4-1.1l.4-10.2c.1-1.9-.5-3.6-1.9-5.1s-2.9-2.2-4.9-2.3-3.6.5-5.1 1.9c-1.4 1.3-2.2 2.9-2.3 4.9l-.4 10.2c0 .4-.2.8-.5 1.1-.3.3-.7.4-1.1.4s-.8-.2-1.1-.5c-.3-.3-.4-.7-.4-1.1l.9-18.8zM1301.7 397.6c.4 0 .8.2 1.1.5.3.3.4.7.4 1.1s-.2.8-.5 1.1c-.3.3-.7.4-1.1.4-4.2-.3-6.4 1.6-6.8 5.8l-.1 1.2 4.7.4c.4 0 .8.2 1.1.5.3.3.4.7.4 1.1s-.2.8-.5 1.1c-.3.3-.7.4-1.1.4l-4.7-.4-1.3 16c0 .4-.2.8-.5 1.1s-.7.4-1.1.4c-.4 0-.8-.2-1.1-.5-.3-.3-.4-.7-.4-1.1l1.3-16-1.6-.1c-.4 0-.8-.2-1.1-.5-.3-.3-.4-.7-.4-1.1s.2-.8.5-1.1c.3-.3.7-.4 1.1-.4l1.6.1.1-1.2c.4-6.4 3.8-9.3 10-8.8zM1304.3 409.1c0-.4.2-.8.6-1 .3-.3.7-.4 1.1-.3.4 0 .8.2 1 .6.3.3.4.7.3 1.1l-.2 1.7c2.4-1.9 5.1-2.7 8.1-2.4 1.5.2 2.9.6 4.1 1.2.2.1.4.3.6.5.3.3.4.7.3 1.2 0 .4-.2.8-.6 1s-.7.4-1.1.3c-.2 0-.5-.1-.7-.2-.9-.5-1.9-.8-3-.9-2.1-.2-4 .3-5.7 1.7-1.7 1.3-2.6 3.1-2.9 5.2l-1 9.3c0 .4-.2.8-.6 1-.3.3-.7.4-1.1.3-.4 0-.8-.2-1-.6-.3-.3-.4-.7-.3-1.1l2.1-18.6zM1339.6 430.3c-2.4 1.9-5.2 2.6-8.2 2.2s-5.4-1.8-7.2-4.2c-1.8-2.4-2.6-5.1-2.2-8.1.4-3 1.8-5.4 4.2-7.2 2.4-1.8 5.1-2.6 8.1-2.2s5.4 1.8 7.2 4.2c1.8 2.4 2.6 5.1 2.2 8.1l-1.2 9.3c-.1.4-.3.8-.6 1-.3.3-.7.4-1.2.3s-.8-.3-1-.6c-.3-.3-.4-.7-.3-1.2l.2-1.6zm-5.8-16.3c-2.1-.3-4.1.2-5.8 1.5-1.7 1.3-2.7 3-3 5.2-.3 2.1.2 4.1 1.5 5.8 1.3 1.7 3 2.7 5.2 3 2.1.3 4.1-.2 5.8-1.5 1.7-1.3 2.7-3 3-5.2.3-2.1-.2-4.1-1.5-5.8-1.3-1.7-3-2.7-5.2-3zM1375.6 436.6c-2.5 1.8-5.3 2.4-8.3 1.8-3-.5-5.3-2.1-7-4.6-1.7-2.5-2.3-5.2-1.7-8.2.5-3 2.1-5.3 4.6-7 2.5-1.7 5.2-2.3 8.2-1.7 3 .5 5.3 2.1 7 4.6 1.7 2.5 2.3 5.2 1.7 8.2l-1.7 9.2c-.1.4-.3.8-.7 1-.4.2-.7.3-1.2.3-.4-.1-.8-.3-1-.7-.2-.4-.3-.7-.2-1.2l.3-1.7zm-4.9-16.7c-2.1-.4-4.1 0-5.8 1.2-1.8 1.2-2.9 2.9-3.3 5-.4 2.1 0 4.1 1.2 5.9s2.9 2.9 5 3.3c2.1.4 4.1 0 5.8-1.2 1.8-1.2 2.9-2.9 3.3-5 .4-2.1 0-4.1-1.2-5.9-1.2-1.8-2.9-2.9-5-3.3zM1386.9 411.9c.1-.4.3-.8.7-1 .4-.2.8-.3 1.2-.2s.8.3 1 .7c.2.4.3.8.2 1.2l-5.3 26 1.5.3c.4.1.8.3 1 .7.2.4.3.8.2 1.2-.1.4-.3.8-.7 1-.4.2-.8.3-1.2.2l-3.1-.6c-.4-.1-.8-.3-1-.7s-.3-.8-.2-1.2l5.7-27.6zM1396.5 413.9c.1-.4.3-.7.7-1 .4-.2.8-.3 1.2-.2.4.1.7.3 1 .7.2.4.3.8.2 1.2l-5.7 25.9 1.5.3c.4.1.7.3 1 .7.2.4.3.8.2 1.2-.1.4-.3.7-.7 1-.4.2-.8.3-1.2.2l-3.1-.7c-.4-.1-.7-.3-1-.7-.2-.4-.3-.8-.2-1.2l6.1-27.4zM1416.8 443.8c.4.1.7.3 1 .7.2.4.3.8.2 1.2-.1.4-.3.7-.7 1-2.4 1.2-4.9 1.5-7.5.8-2.9-.7-5.2-2.4-6.7-5-1.6-2.6-2-5.3-1.2-8.3.7-2.9 2.4-5.2 5-6.7 2.6-1.6 5.3-2 8.3-1.3 2.9.7 5.2 2.4 6.7 5 1.6 2.6 2 5.3 1.3 8.3-.1.4-.3.7-.7 1-.4.2-.8.3-1.2.2l-16.5-4.1c-.1 1.5.3 3 1.1 4.4 1.1 1.8 2.7 3 4.8 3.5 1.9.5 3.7.3 5.3-.6.1-.2.4-.2.8-.1zm3.3-6.6c.1-1.5-.3-3-1.1-4.4-1.1-1.8-2.7-3-4.8-3.5-2.1-.5-4.1-.2-5.9.9-1.4.8-2.4 1.9-3 3.3l14.8 3.7zM1441.1 444.4c-1-.8-1.7-1.4-2-2-.6-1.1-.8-2.3-.4-3.6.4-1.2 1.1-2.2 2.3-2.8 2.3-1.3 5-1.5 7.9-.7 3.1.9 5.5 3 7 6.1.1.3.1.6 0 1s-.4.7-.8.9c-.4.2-.8.3-1.2.1-.4-.1-.7-.3-.9-.7-.2-.3-.3-.6-.4-.7-1-1.9-2.6-3.1-4.7-3.7s-3.9-.4-5.5.5c-.4.3-.7.7-.8 1.2-.1.6.1 1.1.6 1.5l8.3 5.8c1 .8 1.7 1.4 2 2 .6 1.1.8 2.3.4 3.6s-1.1 2.2-2.3 2.8c-2.3 1.3-5 1.5-7.9.7-3.2-.9-5.5-3-7-6.1-.1-.3-.1-.6 0-1s.4-.7.8-.9c.4-.2.8-.3 1.2-.1.4.1.7.3.9.7.2.3.3.6.4.7 1 1.9 2.6 3.1 4.7 3.7 2.1.6 3.9.4 5.5-.5.4-.3.7-.7.8-1.2.1-.6-.1-1.1-.6-1.5l-8.3-5.8zM1465.4 460c.4.1.7.4.9.8.2.4.2.8.1 1.2-.1.4-.4.7-.8.9-.4.2-.8.2-1.2.1-5-1.6-6.7-4.9-5.1-9.8l3.3-10.4-1.5-.5c-.4-.1-.7-.4-.9-.8-.2-.4-.2-.8-.1-1.2.1-.4.4-.7.8-.9.4-.2.8-.2 1.2-.1l1.5.5 2.4-7.4c.1-.4.4-.7.8-.9.4-.2.8-.2 1.2-.1.4.1.7.4.9.8.2.4.2.8.1 1.2l-2.4 7.4 3 1c.4.1.7.4.9.8.2.4.2.8.1 1.2-.1.4-.4.7-.8.9-.4.2-.8.2-1.2.1l-3-1-3.3 10.4c-.9 2.9.1 4.9 3.1 5.8zM1485.4 464.5c.4.1.7.4.9.8.2.4.2.8.1 1.2-.1.4-.4.7-.8.9-2.5 1-5 1.1-7.6.2-2.9-1-4.9-2.8-6.3-5.6-1.3-2.7-1.5-5.5-.5-8.4s2.8-4.9 5.6-6.3c2.7-1.3 5.5-1.5 8.4-.5 2.9 1 4.9 2.8 6.3 5.6 1.3 2.7 1.5 5.5.5 8.4-.1.4-.4.7-.8.9-.4.2-.8.2-1.2.1l-16.1-5.6c-.2 1.5 0 3 .7 4.4.9 1.9 2.4 3.3 4.5 4 1.8.6 3.6.6 5.4-.1.2-.1.6-.1.9 0zm3.9-6.3c.2-1.5 0-3-.7-4.4-.9-1.9-2.4-3.3-4.5-4-2-.7-4-.6-6 .4-1.5.7-2.6 1.7-3.3 3l14.5 5zM1519.2 451.1c.2-.4.4-.7.8-.9.4-.2.8-.2 1.2 0 .4.2.7.4.9.8.2.4.2.8 0 1.2l-6.7 17.5c-1.1 2.8-3 4.8-5.8 6.1-2.8 1.2-5.5 1.3-8.4.2-2.8-1.1-4.8-3-6.1-5.8-1.2-2.8-1.3-5.5-.2-8.4 1.1-2.8 3-4.8 5.8-6.1 2.8-1.2 5.5-1.3 8.4-.2 2.8 1.1 4.8 3 6.1 5.8v.1l4-10.3zm-6.7 17.5c.8-2 .7-4-.2-6s-2.3-3.3-4.3-4.1-4-.7-6 .2c-2 .9-3.3 2.3-4.1 4.3-.8 2-.7 4 .2 6 .9 2 2.3 3.3 4.3 4.1 2 .8 4 .7 6-.2s3.3-2.3 4.1-4.3zM1531.8 482.7c.4.2.7.5.8.9.2.4.2.8 0 1.2-.2.4-.4.7-.8.9-2.5.8-5.1.7-7.6-.3-2.8-1.2-4.7-3.2-5.9-6-1.1-2.8-1.1-5.6 0-8.4 1.2-2.8 3.2-4.7 6-5.9s5.6-1.1 8.4 0c2.8 1.2 4.7 3.2 5.9 6 1.1 2.8 1.1 5.6 0 8.4-.2.4-.5.7-.9.8-.4.2-.8.2-1.2 0l-15.7-6.6c-.3 1.5-.2 3 .4 4.5.8 2 2.2 3.4 4.2 4.2 1.8.8 3.6.8 5.4.2.4-.1.7 0 1 .1zm4.4-6c.3-1.5.2-3-.4-4.5-.8-2-2.2-3.4-4.2-4.3-2-.8-4-.9-6 0-1.5.6-2.7 1.6-3.5 2.8l14.1 6zM1545.3 472.2c.2-.4.5-.7.9-.8.4-.2.8-.1 1.2 0 .4.2.7.5.8.9.2.4.1.8 0 1.2l-.7 1.6c2.9-1.1 5.7-1 8.5.2 1.4.6 2.6 1.4 3.5 2.4.2.2.3.4.4.6.1.4.1.8 0 1.2-.2.4-.5.7-.9.8-.4.2-.8.1-1.2 0-.2-.1-.4-.2-.6-.4-.7-.7-1.5-1.3-2.5-1.8-2-.9-4-.9-6-.2-2 .8-3.5 2.1-4.3 4.1l-3.8 8.5c-.2.4-.5.7-.9.8-.4.2-.8.1-1.2 0-.4-.2-.7-.5-.8-.9-.2-.4-.1-.8 0-1.2l7.6-17zM1563.6 511.8c-.2.4-.5.6-.9.8-.4.1-.8.1-1.2-.1s-.6-.5-.8-.9c-.1-.4-.1-.8.1-1.2l8.5-16.7c1.4-2.7 3.5-4.5 6.4-5.4 2.9-.9 5.7-.7 8.3.6 2.7 1.4 4.5 3.5 5.4 6.4.9 2.9.7 5.7-.6 8.3-1.4 2.7-3.5 4.5-6.4 5.4s-5.7.7-8.3-.6c-2.7-1.4-4.5-3.5-5.4-6.4v-.1l-5.1 9.9zm8.5-16.7c-1 1.9-1.1 3.9-.5 6 .7 2 2 3.6 3.9 4.5s3.9 1.1 6 .5c2-.7 3.6-2 4.5-3.9 1-1.9 1.1-3.9.5-6s-2-3.6-3.9-4.5-3.9-1.1-6-.5-3.6 2-4.5 3.9zM1604.5 520.8c-3 .9-5.8.6-8.4-.9s-4.4-3.6-5.3-6.5c-.9-2.9-.6-5.7.9-8.3 1.4-2.7 3.6-4.4 6.5-5.3 2.9-.9 5.7-.6 8.3.9s4.4 3.6 5.3 6.5c.9 2.9.6 5.7-.9 8.3l-4.5 8.2c-.2.4-.5.6-.9.8-.4.1-.8.1-1.2-.1-.4-.2-.6-.5-.8-.9-.1-.4-.1-.8.1-1.2l.9-1.5zm.5-17.4c-1.9-1-3.9-1.3-6-.6-2.1.6-3.6 1.9-4.7 3.8-1 1.9-1.3 3.9-.6 6 .6 2.1 1.9 3.6 3.8 4.7 1.9 1 3.9 1.3 6 .6 2.1-.6 3.6-1.9 4.7-3.8 1-1.9 1.3-3.9.6-6-.6-2.1-1.9-3.6-3.8-4.7zm7.6-5.6c-.5 1-1.3 1.6-2.4 1.9-1 .3-2 .2-3-.3s-1.6-1.3-1.9-2.4c-.3-1-.2-2 .3-3s1.3-1.6 2.3-1.9c1-.3 2-.2 3 .3s1.6 1.3 1.9 2.3c.4 1.1.3 2.1-.2 3.1zm-2.5-3.6c-.5-.3-1-.3-1.5-.2-.5.2-.9.5-1.2.9-.3.5-.3 1-.2 1.5.2.5.5.9 1 1.2.5.3 1 .3 1.5.2.5-.2.9-.5 1.2-1 .3-.5.3-1 .2-1.5-.2-.5-.5-.9-1-1.1zM1623.5 535.8l10.5-17.4c.2-.4.5-.6 1-.7s.8 0 1.2.2.6.5.7 1c.1.4 0 .8-.2 1.2l-10.5 17.4c-1.3 2.2-3.3 3.6-5.8 4.3-2.5.6-4.9.3-7.1-1.1-.4-.2-.6-.5-.7-1-.1-.4 0-.8.2-1.2.2-.4.5-.6 1-.7.4-.1.8 0 1.2.2 1.5.9 3.1 1.1 4.7.7 1.6-.4 2.9-1.4 3.8-2.9zm16.7-20.9c-.3.5-.7.8-1.2.9-.5.1-1 .1-1.5-.2s-.8-.7-.9-1.2c-.1-.5-.1-1 .2-1.5.3-.5.7-.8 1.2-.9.5-.1 1-.1 1.5.2s.8.7.9 1.2c.1.5 0 1-.2 1.5zM1653.3 541.6c-1.6 2.5-3.9 4.2-6.9 4.8s-5.7.2-8.2-1.5c-2.5-1.6-4.2-3.9-4.8-6.9s-.2-5.7 1.5-8.2c1.6-2.5 3.9-4.2 6.9-4.8 2.9-.7 5.7-.2 8.2 1.4 2.5 1.6 4.2 3.9 4.8 6.9.6 3 .1 5.8-1.5 8.3zm-5.1-12.5c-1.8-1.2-3.8-1.5-5.9-1-2.1.5-3.7 1.6-4.9 3.4-1.2 1.8-1.5 3.8-1 5.9.5 2.1 1.6 3.7 3.4 4.9 1.8 1.2 3.8 1.5 5.9 1s3.7-1.6 4.9-3.4 1.5-3.8 1-5.9c-.4-2.1-1.5-3.7-3.4-4.9zM1661.2 535.6c.2-.4.6-.6 1-.7.4-.1.8 0 1.2.2.4.2.6.6.7 1 .1.4 0 .8-.2 1.2l-1 1.4c3-.6 5.8 0 8.3 1.7 1.3.9 2.3 1.9 3 3 .1.2.2.4.3.7.1.4 0 .8-.2 1.2-.2.4-.6.6-1 .7-.4.1-.8 0-1.2-.2-.2-.1-.4-.3-.5-.5-.5-.8-1.3-1.6-2.2-2.2-1.8-1.2-3.8-1.6-5.9-1.2-2.1.4-3.8 1.5-5 3.3l-5.2 7.8c-.2.4-.6.6-1 .7-.4.1-.8 0-1.2-.2-.4-.2-.6-.6-.7-1-.1-.4 0-.8.2-1.2l10.6-15.7zM1697.6 549.6c.2-.3.6-.6 1-.6.4-.1.8 0 1.2.3.3.2.6.6.6 1 .1.4 0 .8-.3 1.2l-10.9 15.2c-1.8 2.4-4.1 3.9-7.1 4.4-3 .5-5.7-.1-8.1-1.9-2.4-1.8-3.9-4.1-4.4-7.1-.5-3 .1-5.7 1.9-8.1 1.8-2.4 4.1-3.9 7.1-4.4 3-.5 5.7.1 8.1 1.9 2.4 1.8 3.9 4.1 4.4 7.1v.1l6.5-9.1zm-10.9 15.3c1.3-1.8 1.7-3.7 1.4-5.8-.4-2.1-1.4-3.8-3.2-5.1-1.8-1.3-3.7-1.7-5.8-1.4-2.1.4-3.8 1.4-5.1 3.2-1.3 1.8-1.7 3.7-1.4 5.8.3 2.1 1.4 3.8 3.2 5.1 1.8 1.3 3.7 1.7 5.8 1.4 2.2-.4 3.8-1.5 5.1-3.2zM1695.7 569l15.7 1.3c.3 0 .6.1.8.3.3.3.5.6.6 1 .1.4 0 .8-.3 1.2-.3.3-.6.5-1 .6h-.3l-10.8-.9 1 13.9c0 .4-.1.8-.3 1.1-.3.3-.6.5-1 .6-.4.1-.8 0-1.2-.3-.3-.3-.5-.6-.6-1.1l-1-14.6-3.8-.3-4.7 6.1c-.3.3-.6.5-1 .6-.4.1-.8 0-1.2-.3-.3-.3-.5-.6-.6-1-.1-.4 0-.8.3-1.2l17.2-22.2c.3-.3.6-.5 1-.6.4-.1.8 0 1.2.3.3.3.5.6.6 1 .1.4 0 .8-.3 1.2l-10.3 13.3zM1721 567.4c.3-.3.6-.5 1-.6.4 0 .8.1 1.1.3.3.3.5.6.6 1 0 .4-.1.8-.3 1.1l-16.6 20.8 1.2 1c.3.3.5.6.6 1 0 .4-.1.8-.3 1.1-.3.3-.6.5-1 .6-.4 0-.8-.1-1.1-.3l-2.4-1.9c-.3-.3-.5-.6-.6-1 0-.4.1-.8.3-1.1l17.5-22zM1733.6 601.9c-1.9 2.3-4.4 3.6-7.4 3.9-3 .3-5.7-.6-8-2.5s-3.6-4.4-3.9-7.4c-.3-3 .6-5.7 2.5-8s4.4-3.6 7.4-3.9c3-.3 5.7.6 8 2.5s3.6 4.4 3.9 7.4c.2 3-.6 5.7-2.5 8zm-3.5-13c-1.7-1.4-3.6-2-5.7-1.8-2.1.2-3.9 1.1-5.3 2.8-1.4 1.7-2 3.6-1.8 5.7.2 2.1 1.1 3.9 2.8 5.3s3.6 2 5.7 1.8c2.1-.2 3.9-1.1 5.3-2.8 1.4-1.7 2-3.6 1.8-5.7-.2-2.1-1.1-3.9-2.8-5.3zM1762.5 602.6c.3-.3.6-.5 1.1-.5.4 0 .8.1 1.1.4.3.3.5.6.5 1.1 0 .4-.1.8-.4 1.1l-12.5 14c-2 2.3-4.5 3.5-7.5 3.6-3 .2-5.7-.7-7.9-2.8-2.3-2-3.5-4.5-3.6-7.5-.2-3 .7-5.7 2.8-7.9 2-2.3 4.5-3.5 7.5-3.6 3-.2 5.7.7 7.9 2.8 2.3 2 3.5 4.5 3.6 7.5v.1l7.4-8.3zm-12.5 14c1.4-1.6 2.1-3.5 2-5.6s-1-3.9-2.6-5.4-3.5-2.1-5.6-2-3.9 1-5.4 2.6c-1.4 1.6-2.1 3.5-2 5.6.1 2.2 1 3.9 2.6 5.4 1.6 1.4 3.5 2.1 5.6 2 2.1-.1 3.9-1 5.4-2.6zM1763.1 636.6c.3.3.5.7.5 1.1 0 .4-.1.8-.4 1.1-.3.3-.7.5-1.1.5-2.7-.1-5-1.1-7-3-2.2-2.1-3.3-4.6-3.4-7.7-.1-3 .9-5.6 3-7.8s4.6-3.3 7.6-3.4c3-.1 5.6.9 7.8 3s3.3 4.6 3.4 7.6c.1 3-.9 5.6-3 7.8-.3.3-.7.5-1.1.5-.4 0-.8-.1-1.1-.4l-12.4-11.7c-.8 1.3-1.2 2.7-1.2 4.4.1 2.2.9 4 2.4 5.5 1.4 1.3 3.1 2.1 4.9 2.1.5 0 .8.1 1.1.4zm6.2-4.1c.8-1.3 1.2-2.7 1.2-4.4-.1-2.2-.9-4-2.4-5.5-1.6-1.5-3.4-2.2-5.6-2.2-1.6 0-3 .5-4.3 1.4l11.1 10.7zM1779.5 631.6c.3-.3.7-.5 1.1-.4.4 0 .8.2 1.1.5.3.3.5.7.4 1.1s-.2.8-.5 1.1l-.9.9c2.7.1 5 1.1 7 3 2 2 2.9 4.4 2.9 7.2s-1 5.2-3 7.2l-7.2 7.1c-.3.3-.7.5-1.1.4-.4 0-.8-.2-1.1-.5-.3-.3-.5-.7-.5-1.1 0-.4.2-.8.5-1.1l7.2-7.1c1.4-1.4 2.1-3 2.1-5 0-1.9-.7-3.6-2-5-1.4-1.4-3-2.1-5-2.1-1.9 0-3.6.7-5 2l-7.2 7.1c-.3.3-.7.5-1.1.4-.4 0-.8-.2-1.1-.5-.3-.3-.5-.7-.4-1.1 0-.4.2-.8.5-1.1l13.3-13z"/></svg>