<svg xmlns="http://www.w3.org/2000/svg" viewBox="0 0 2453 2453"><title>SS_bottom slogan_IS</title><path fill="#03709C" d="M741.8 559l15-11.2c.3-.3.7-.4 1.2-.3.4.1.8.3 1 .6s.4.7.3 1.2c-.1.4-.3.8-.6 1l-13.8 10.3 6.6 8.8 10-7.5c.3-.3.7-.4 1.2-.3.4.1.8.3 1 .6s.4.7.3 1.2c-.1.4-.3.8-.6 1l-10 7.5 7.5 10c.3.3.4.7.3 1.2-.1.4-.3.8-.6 1s-.7.4-1.2.3c-.4-.1-.8-.3-1-.6l-16.9-22.5c-.3-.3-.4-.7-.3-1.2 0-.5.2-.8.6-1.1zM792.5 556.7l1 1.4c.2.4.3.7.2 1.2-.1.4-.3.8-.6 1-.4.2-.7.3-1.2.2-.4-.1-.8-.3-1-.6l-1-1.4c-.6 3-2.1 5.4-4.6 7.1-2.5 1.7-5.2 2.3-8.2 1.7-3-.5-5.3-2.1-7-4.6-1.7-2.5-2.3-5.2-1.7-8.2.5-3 2.1-5.3 4.6-7 2.5-1.7 5.2-2.3 8.2-1.7.9.2 1.7.4 2.5.8 0-.9 0-1.7.2-2.6.5-3 2.1-5.3 4.6-7s5.2-2.3 8.2-1.7 5.3 2.1 7 4.6c.2.4.3.7.2 1.2-.1.4-.3.8-.6 1l-14 9.7c1.1 1.1 2.4 1.8 4 2 2.1.4 4.1 0 5.8-1.3 1.6-1.1 2.6-2.6 3.1-4.4.1-.3.3-.6.6-.8.4-.2.7-.3 1.2-.2.4.1.8.3 1 .6.2.4.3.7.3 1.2-.7 2.6-2.1 4.7-4.4 6.2-2.5 1.6-5.3 2.2-8.4 1.6zm-17.7-6.5c-1.8 1.2-2.9 2.9-3.3 5-.4 2.1 0 4.1 1.3 5.8 1.2 1.8 2.9 2.9 5 3.3 2.1.4 4.1 0 5.8-1.3 1.8-1.2 2.9-2.9 3.3-5 .4-2.1 0-4.1-1.3-5.8-1.2-1.8-2.9-2.9-5-3.3s-4.1.1-5.8 1.3zm25.3-9.8c-1.1-1.1-2.4-1.8-4-2-2.1-.4-4.1 0-5.8 1.3s-2.9 2.9-3.3 5c-.3 1.6-.1 3.1.5 4.5l12.6-8.8zM801.5 530.3c-.2-.4-.3-.8-.2-1.2.1-.4.3-.7.7-1s.8-.3 1.2-.2c.4.1.7.3 1 .7l.9 1.5c.7-3 2.3-5.3 4.9-6.9 1.3-.8 2.6-1.3 4-1.6h.8c.4.1.7.3 1 .7.2.4.3.8.2 1.2-.1.4-.3.7-.7 1-.2.1-.4.2-.7.2-1 .2-2 .5-2.9 1.1-1.8 1.2-3 2.8-3.5 4.9-.5 2.1-.1 4.1 1 5.9l5 7.9c.2.4.3.8.2 1.2-.1.4-.3.7-.7 1s-.8.3-1.2.2c-.4-.1-.7-.3-1-.7l-10-15.9zM818.7 512.2c.3.5.3.9.2 1.5-.1.5-.4.9-.9 1.2-.5.3-.9.3-1.5.2-.5-.1-.9-.4-1.2-.9-.3-.5-.3-.9-.2-1.5.1-.5.4-.9.9-1.2.5-.3.9-.3 1.5-.2.6.2 1 .5 1.2.9zm.3 7.2c-.2-.4-.3-.8-.2-1.2.1-.4.3-.7.7-1 .4-.2.8-.3 1.2-.2.4.1.7.3 1 .7l9.7 16c.2.4.3.8.2 1.2-.1.4-.3.7-.7 1-.4.2-.8.3-1.2.2-.4-.1-.7-.3-1-.7l-9.7-16zM825.8 515.2c-.2-.4-.3-.8-.2-1.2.1-.4.4-.7.7-1s.8-.3 1.2-.2c.4.1.7.4 1 .7l.9 1.5c.8-3 2.5-5.2 5.1-6.8 1.3-.8 2.7-1.2 4-1.4h.8c.4.1.7.4.9.7.2.4.3.8.2 1.2-.1.4-.4.7-.7 1-.2.1-.4.2-.7.2-1 .1-2 .5-2.9 1-1.9 1.1-3.1 2.7-3.6 4.8s-.3 4.1.8 5.9l4.7 8.1c.2.4.3.8.2 1.2-.1.4-.4.7-.7 1s-.8.3-1.2.2c-.4-.1-.7-.4-1-.7l-9.5-16.2zM856.4 499.9v-.1c.9-2.9 2.7-5 5.4-6.4 2.7-1.4 5.5-1.7 8.3-.8 2.9.9 5 2.7 6.4 5.4 1.4 2.7 1.7 5.5.8 8.3-.9 2.9-2.7 5-5.4 6.4-2.7 1.4-5.5 1.7-8.3.8s-5-2.7-6.4-5.4l-8.7-16.6c-.2-.4-.2-.8-.1-1.2.1-.4.4-.7.8-.9.4-.2.8-.2 1.2-.1.4.1.7.4.9.8l5.1 9.8zm14.1 10.1c1.9-1 3.2-2.5 3.8-4.6.6-2.1.5-4-.5-6s-2.5-3.2-4.6-3.8c-2.1-.6-4-.5-6 .5-1.9 1-3.2 2.5-3.8 4.6-.6 2.1-.5 4 .5 6 1 1.9 2.5 3.2 4.6 3.8 2.1.7 4.1.5 6-.5zM880 478.9c.2.5.3 1 .1 1.5-.2.5-.5.9-1 1.1-.5.2-1 .3-1.5.1-.5-.2-.9-.5-1.1-1-.2-.5-.3-1-.1-1.5.2-.5.5-.9 1-1.1.5-.2 1-.3 1.5-.1.5.2.9.5 1.1 1zm19.1 8.1c1.3 2.7 1.5 5.5.5 8.4-1 2.9-2.8 4.9-5.6 6.2-2.7 1.3-5.5 1.5-8.4.5-2.9-1-4.9-2.8-6.2-5.6-1.3-2.7-1.5-5.5-.5-8.4 1-2.9 2.8-4.9 5.6-6.2 2.7-1.3 5.5-1.5 8.4-.5 2.8 1 4.9 2.9 6.2 5.6zm-13.2-2.3c-1.9.9-3.3 2.4-4 4.5-.7 2-.6 4 .3 6 .9 1.9 2.4 3.3 4.5 4 2 .7 4 .6 6-.3 1.9-.9 3.3-2.4 4-4.5.7-2 .6-4-.3-6s-2.4-3.3-4.5-4c-2.1-.7-4.1-.6-6 .3zm2.6-9.9c.2.5.3 1 .1 1.5-.2.5-.5.9-1 1.1s-1 .3-1.5.1c-.5-.2-.9-.5-1.1-1-.2-.5-.3-1-.1-1.5.2-.5.5-.9 1-1.1.5-.2 1-.3 1.5-.1.5.2.8.5 1.1 1zM898.2 477.1c-.2-.4-.2-.8 0-1.2.2-.4.4-.7.8-.9.4-.2.8-.2 1.2 0 .4.2.7.4.9.8l.7 1.6c1.1-2.9 3-5 5.8-6.2 1.4-.6 2.8-1 4.2-1 .3 0 .5 0 .8.1.4.2.7.4.9.8s.2.8 0 1.2c-.2.4-.4.7-.8.9-.2.1-.5.1-.7.1-1 0-2 .3-3 .7-2 .9-3.3 2.3-4.1 4.3s-.7 4 .2 6l3.8 8.6c.2.4.2.8 0 1.2-.2.4-.4.7-.8.9-.4.2-.8.2-1.2 0-.4-.2-.7-.4-.9-.8l-7.8-17.1zM915.8 469.4c-.2-.4-.2-.8 0-1.2.2-.4.4-.7.8-.8.4-.2.8-.2 1.2 0 .4.2.7.4.8.8l.5 1.2c1.1-2.5 2.9-4.2 5.4-5.3 2.6-1.1 5.2-1.1 7.7 0 2.6 1.1 4.4 2.9 5.5 5.5l3.9 9.3c.2.4.2.8 0 1.2-.2.4-.4.7-.8.8-.4.2-.8.2-1.2 0-.4-.2-.7-.4-.8-.8l-3.9-9.3c-.7-1.8-2-3-3.8-3.8-1.8-.7-3.6-.7-5.4 0-1.8.7-3 2-3.8 3.8-.7 1.8-.7 3.6 0 5.4l3.9 9.3c.2.4.2.8 0 1.2-.2.4-.4.7-.8.8-.4.2-.8.2-1.2 0-.4-.2-.7-.4-.8-.8l-7.2-17.3zM963.4 470.5c.2.4.1.8 0 1.2-.2.4-.5.7-.9.8-.4.2-.8.1-1.2 0-.4-.2-.7-.5-.8-.9l-.5-1.2c-1.2 2.5-3 4.2-5.6 5.2-2.6 1-5.2.9-7.8-.2s-4.3-3-5.3-5.6l-3.6-9.5c-.2-.4-.1-.8 0-1.2.2-.4.5-.7.9-.8.4-.2.8-.1 1.2 0 .4.2.7.5.8.9l3.6 9.5c.7 1.8 1.9 3.1 3.7 3.9 1.8.8 3.6.8 5.4.2 1.8-.7 3.1-1.9 3.9-3.7.8-1.8.8-3.6.2-5.4l-3.6-9.5c-.2-.4-.1-.8 0-1.2.2-.4.5-.7.9-.8.4-.2.8-.1 1.2 0 .4.2.7.5.8.9l6.7 17.4zM969 468.4c.1.4.1.8-.1 1.2-.2.4-.5.7-.9.8-.4.1-.8.1-1.2-.1-.4-.2-.7-.5-.8-.9l-6-17.8c-.1-.4-.1-.8.1-1.2.2-.4.5-.7.9-.8.4-.1.8-.1 1.2.1.4.2.7.5.8.9l.1.4c1-1.7 2.6-3 4.5-3.6 2.2-.8 4.4-.6 6.6.4.4.2.9.5 1.3.7.1-.5.3-.9.5-1.4 1.1-2.1 2.7-3.6 4.9-4.3 2.2-.8 4.4-.6 6.6.4s3.6 2.7 4.3 4.9l3.8 11.1c.1.4.1.8-.1 1.2-.2.4-.5.7-.9.8-.4.1-.8.1-1.2-.1-.4-.2-.7-.5-.8-.9l-3.8-11.1c-.5-1.4-1.4-2.5-2.8-3.1-1.4-.7-2.7-.8-4.2-.3-1.4.5-2.5 1.4-3.1 2.8-.7 1.4-.8 2.7-.3 4.2l3.8 11.1c.1.4.1.8-.1 1.2-.2.4-.5.7-.9.8-.4.1-.8.1-1.2-.1-.4-.2-.7-.5-.8-.9l-3.8-11.1c-.5-1.4-1.4-2.5-2.8-3.1-1.4-.7-2.7-.8-4.2-.3s-2.5 1.4-3.1 2.8-.8 2.7-.3 4.2l4 11.1zM1029.2 449.8c.1.4.1.8-.1 1.2-.2.4-.5.6-.9.7s-.8.1-1.2-.1c-.4-.2-.6-.5-.7-.9l-.3-1.2c-1.4 2.3-3.4 3.9-6 4.6-2.7.8-5.3.4-7.7-.9-2.4-1.4-4-3.4-4.8-6.1l-2.7-9.8c-.1-.4-.1-.8.1-1.2.2-.4.5-.6.9-.7.4-.1.8-.1 1.2.1.4.2.6.5.7.9l2.7 9.8c.5 1.9 1.6 3.3 3.3 4.2 1.7 1 3.5 1.2 5.3.6 1.9-.5 3.3-1.6 4.2-3.3 1-1.7 1.2-3.5.6-5.3l-2.7-9.8c-.1-.4-.1-.8.1-1.2.2-.4.5-.6.9-.7.4-.1.8-.1 1.2.1.4.2.6.5.7.9l5.2 18.1zM1035 448.2c.1.4 0 .8-.2 1.2-.2.4-.5.6-1 .7-.4.1-.8 0-1.2-.2-.4-.2-.6-.5-.7-1l-4.3-18.2c-.1-.4 0-.8.2-1.2.2-.4.5-.6 1-.7.4-.1.8 0 1.2.2.4.2.6.5.7 1l.1.4c1.2-1.6 2.8-2.7 4.9-3.2 2.3-.5 4.5-.2 6.5 1 .4.3.8.5 1.2.9.2-.4.4-.9.7-1.3 1.2-2 3-3.3 5.3-3.8s4.5-.2 6.5 1 3.3 3 3.8 5.3l2.7 11.4c.1.4 0 .8-.2 1.2-.2.4-.5.6-1 .7-.4.1-.8 0-1.2-.2-.4-.2-.6-.5-.7-1l-2.7-11.4c-.3-1.5-1.2-2.6-2.4-3.4-1.3-.8-2.7-1-4.1-.7-1.5.3-2.6 1.2-3.4 2.4-.8 1.3-1 2.7-.7 4.1l2.7 11.4c.1.4 0 .8-.2 1.2-.2.4-.5.6-1 .7-.4.1-.8 0-1.2-.2-.4-.2-.6-.5-.7-1l-2.7-11.4c-.3-1.5-1.2-2.6-2.4-3.4-1.3-.8-2.7-1-4.1-.7-1.5.3-2.6 1.2-3.4 2.4-.8 1.3-1 2.7-.7 4.1l2.7 11.7zM1094.7 433.7c-1.7 2.5-4.1 4.1-7.1 4.6s-5.7 0-8.2-1.7c-2.5-1.7-4-4-4.5-7s0-5.7 1.7-8.2c1.7-2.5 4-4 7-4.5s5.7 0 8.2 1.7c2.5 1.7 4 4 4.5 7l1.7 9.2c.1.4 0 .8-.3 1.2-.2.4-.6.6-1 .6s-.8 0-1.2-.3c-.4-.2-.6-.6-.6-1l-.2-1.6zm-10.5-13.8c-2.1.4-3.8 1.5-5 3.2-1.2 1.8-1.6 3.7-1.2 5.8.4 2.1 1.5 3.8 3.2 5 1.8 1.2 3.7 1.6 5.8 1.2 2.1-.4 3.8-1.5 5-3.2 1.2-1.8 1.6-3.7 1.2-5.8-.4-2.1-1.5-3.8-3.2-5-1.7-1.1-3.6-1.6-5.8-1.2zM1096.6 406.6c-.1-.4 0-.8.3-1.2.3-.4.6-.6 1-.6.4-.1.8 0 1.2.3s.6.6.6 1l4.2 26.2 1.5-.2c.4-.1.8 0 1.2.3.3.3.6.6.6 1 .1.4 0 .8-.3 1.2-.3.4-.6.6-1 .6l-3.1.5c-.4.1-.8 0-1.2-.3-.4-.3-.6-.6-.6-1l-4.4-27.8zM1106.2 405.1c-.1-.4 0-.8.3-1.2.3-.3.6-.6 1-.6.4-.1.8 0 1.2.3.3.3.6.6.6 1l3.9 26.3 1.5-.2c.4-.1.8 0 1.2.3.3.3.6.6.6 1 .1.4 0 .8-.3 1.2-.3.3-.6.6-1 .6l-3.1.5c-.4.1-.8 0-1.2-.3-.3-.3-.6-.6-.6-1l-4.1-27.9zM1137.8 427.3c-1.9 2.5-4.3 3.9-7.3 4.3-3 .4-5.7-.3-8.1-2.2-2.4-1.8-3.8-4.3-4.2-7.2s.3-5.7 2.2-8.1c1.8-2.4 4.2-3.8 7.2-4.2 3-.4 5.7.3 8.1 2.2 2.4 1.8 3.8 4.3 4.2 7.2l1.2 9.3c.1.4 0 .8-.3 1.2-.3.3-.6.5-1 .6-.4.1-.8 0-1.2-.3-.3-.3-.5-.6-.6-1l-.2-1.8zM1128 413c-2.1.3-3.9 1.3-5.2 3-1.3 1.7-1.8 3.6-1.5 5.8s1.3 3.9 3 5.2c1.7 1.3 3.6 1.8 5.8 1.5 2.1-.3 3.9-1.3 5.2-3 1.3-1.7 1.8-3.6 1.5-5.8s-1.3-3.9-3-5.2c-1.7-1.2-3.7-1.7-5.8-1.5zM1142.3 409.8c0-.4.1-.8.4-1.1.3-.3.6-.5 1.1-.6.4 0 .8.1 1.1.4.3.3.5.6.6 1.1l.1 1.3c1.8-2.1 4-3.2 6.7-3.5 2.8-.3 5.3.5 7.4 2.3 2.2 1.8 3.4 4.1 3.6 6.9l1 10.1c0 .4-.1.8-.4 1.1-.3.3-.6.5-1.1.6s-.8-.1-1.1-.4c-.3-.3-.5-.6-.6-1.1l-1-10.1c-.2-1.9-1-3.5-2.5-4.8-1.5-1.2-3.2-1.8-5.1-1.6-1.9.2-3.5 1-4.8 2.5-1.2 1.5-1.8 3.2-1.6 5.1l1 10.1c0 .4-.1.8-.4 1.1-.3.3-.6.5-1.1.6-.4 0-.8-.1-1.1-.4-.3-.3-.5-.6-.6-1.1l-1.6-18.5zM1177.5 397.4c0-.4.1-.8.4-1.1s.7-.5 1.1-.5c.4 0 .8.1 1.1.4.3.3.5.7.5 1.1l.5 10.6c1.9-2 4.2-3 6.9-3.2 2.8-.1 5.2.7 7.3 2.6 2.1 1.9 3.2 4.2 3.3 7l.5 10.1c0 .4-.1.8-.4 1.1-.3.3-.7.5-1.1.5-.4 0-.8-.1-1.1-.4-.3-.3-.5-.7-.5-1.1l-.5-10.1c-.1-1.9-.9-3.6-2.3-4.9-1.4-1.3-3.1-1.9-5.1-1.8-1.9.1-3.6.9-4.9 2.3s-1.9 3.1-1.8 5.1l.5 10.1c0 .4-.1.8-.4 1.1-.3.3-.7.5-1.1.5-.4 0-.8-.1-1.1-.4-.3-.3-.5-.7-.5-1.1l-1.3-27.9zM1219 420.3c.4 0 .8.1 1.1.4.3.3.5.7.5 1.1s-.1.8-.4 1.1c-2 1.8-4.3 2.7-7.1 2.8-3 .1-5.6-1-7.8-3.1s-3.3-4.7-3.3-7.7c-.1-3 1-5.6 3.1-7.8s4.7-3.3 7.7-3.3c3-.1 5.6 1 7.8 3.1s3.3 4.7 3.3 7.7c0 .4-.1.8-.4 1.1-.3.3-.7.5-1.1.5l-17 .3c.3 1.5 1.1 2.8 2.2 3.9 1.6 1.5 3.4 2.2 5.6 2.2 2 0 3.6-.7 5-1.9.1-.3.4-.4.8-.4zm1.5-7.2c-.3-1.5-1.1-2.8-2.2-3.9-1.6-1.5-3.4-2.2-5.6-2.2-2.2 0-4 .8-5.5 2.4-1.1 1.2-1.8 2.5-2.1 4l15.4-.3zM1228.9 405.3c0-.4.2-.8.5-1.1s.7-.4 1.1-.4c.4 0 .8.2 1.1.5.3.3.4.7.4 1.1l-.4 18.7c0 .4-.2.8-.5 1.1-.3.3-.7.4-1.1.4-.4 0-.8-.2-1.1-.5s-.4-.7-.4-1.1l.4-18.7zm3.6-6.2c0 .5-.2 1-.6 1.4-.4.4-.9.6-1.4.5-.5 0-1-.2-1.4-.6-.4-.4-.6-.9-.5-1.4 0-.5.2-1 .6-1.4.4-.4.9-.6 1.4-.5.5 0 1 .2 1.4.6.3.4.5.9.5 1.4zM1239.3 424c0 .4-.2.8-.5 1.1-.3.3-.7.4-1.1.4-.4 0-.8-.2-1.1-.5-.3-.3-.4-.7-.4-1.1l.6-18.8c0-.4.2-.8.5-1.1.3-.3.7-.4 1.1-.4.4 0 .8.2 1.1.5.3.3.4.7.4 1.1v.4c1.6-1.3 3.4-1.9 5.5-1.8 2.4.1 4.4 1 6 2.7.3.4.6.7.9 1.1.3-.4.6-.7 1-1.1 1.7-1.6 3.8-2.4 6.1-2.3 2.4.1 4.4 1 6 2.7 1.6 1.7 2.4 3.8 2.3 6.1l-.4 11.7c0 .4-.2.8-.5 1.1-.3.3-.7.4-1.1.4-.4 0-.8-.2-1.1-.5-.3-.3-.4-.7-.4-1.1l.4-11.7c0-1.5-.5-2.8-1.5-3.9s-2.3-1.7-3.8-1.7-2.8.5-3.9 1.5-1.7 2.3-1.7 3.8l-.4 11.7c0 .4-.2.8-.5 1.1-.3.3-.7.4-1.1.4-.4 0-.8-.2-1.1-.5-.3-.3-.4-.7-.4-1.1l.4-11.7c0-1.5-.4-2.8-1.5-3.9-1-1.1-2.3-1.7-3.8-1.7s-2.8.5-3.9 1.5-1.7 2.3-1.7 3.8l-.4 11.8zM1296.9 397.2c.4 0 .8.2 1.1.5.3.3.4.7.4 1.1 0 .4-.2.8-.5 1.1-.3.3-.7.4-1.1.4-4.2-.3-6.4 1.6-6.8 5.8l-.1 1.2 4.7.4c.4 0 .8.2 1.1.5.3.3.4.7.4 1.1 0 .4-.2.8-.5 1.1-.3.3-.7.4-1.1.4l-4.7-.4-1.3 16c0 .4-.2.8-.5 1.1-.3.3-.7.4-1.1.4-.4 0-.8-.2-1.1-.5-.3-.3-.4-.7-.4-1.1l1.3-16-1.6-.1c-.4 0-.8-.2-1.1-.5-.3-.3-.4-.7-.4-1.1 0-.4.2-.8.5-1.1.3-.3.7-.4 1.1-.4l1.6.1.1-1.2c.3-6.4 3.7-9.3 10-8.8zM1299.3 408.5c0-.4.2-.8.6-1.1.3-.3.7-.4 1.1-.3.4 0 .8.2 1.1.6s.4.7.3 1.1l-.2 1.7c2.4-2 5.1-2.8 8.1-2.5 1.5.2 2.9.6 4.1 1.2.2.1.4.3.6.5.3.3.4.7.3 1.2 0 .4-.2.8-.6 1.1-.3.3-.7.4-1.1.3-.2 0-.5-.1-.7-.2-.9-.5-1.9-.8-3-.9-2.2-.2-4.1.4-5.7 1.7s-2.6 3.1-2.8 5.3l-.9 9.3c0 .4-.2.8-.6 1.1-.3.3-.7.4-1.1.3-.4 0-.8-.2-1.1-.6-.3-.3-.4-.7-.3-1.1l1.9-18.7zM1333.2 427.5c.4.1.8.3 1 .6.3.3.4.7.3 1.2-.1.4-.3.8-.6 1-2.2 1.5-4.7 2.1-7.4 1.7-3-.4-5.4-1.8-7.3-4.2-1.8-2.4-2.6-5.1-2.2-8.1.4-3 1.8-5.4 4.2-7.3 2.4-1.8 5.1-2.6 8.1-2.2 3 .4 5.4 1.8 7.3 4.2 1.8 2.4 2.6 5.1 2.2 8.1-.1.4-.3.8-.6 1-.3.3-.7.4-1.2.3l-16.9-2.2c.1 1.5.6 2.9 1.6 4.2 1.3 1.7 3 2.7 5.2 3 1.9.2 3.7-.1 5.2-1.2.4-.1.7-.2 1.1-.1zm2.6-6.9c-.1-1.5-.6-2.9-1.6-4.2-1.3-1.7-3-2.7-5.2-3s-4.1.2-5.8 1.6c-1.3 1-2.2 2.2-2.6 3.7l15.2 1.9zm-1.4-16.4l-5.3 4.1c-.3.2-.7.3-1.1.3-.4-.1-.8-.3-1-.6-.3-.3-.4-.7-.3-1.2.1-.4.2-.7.5-1l5.3-4.1c.3-.3.7-.4 1.2-.3.4.1.8.3 1 .6.3.3.4.7.3 1.2 0 .4-.2.7-.6 1zM1351.6 432.5c.4.1.8.3 1 .6.3.3.3.7.3 1.2-.1.4-.3.8-.6 1s-.7.3-1.2.3c-5.1-.8-7.3-3.8-6.5-8.9l1.7-10.8-1.5-.2c-.4-.1-.8-.3-1-.6-.3-.3-.3-.7-.3-1.2.1-.4.3-.8.6-1 .3-.3.7-.3 1.2-.3l1.5.2 1.2-7.7c.1-.4.3-.8.6-1s.7-.3 1.2-.3c.4.1.8.3 1 .6.3.3.3.7.3 1.2l-1.2 7.7 3.1.5c.4.1.8.3 1 .6.3.3.3.7.3 1.2-.1.4-.3.8-.6 1-.4.3-.7.3-1.2.3l-3.1-.5-1.7 10.8c-.5 3 .8 4.8 3.9 5.3zM1366.9 435.1c.4.1.8.3 1 .6.2.4.3.7.3 1.2-.1.4-.3.8-.6 1-.4.2-.7.3-1.2.3-5.1-.9-7.2-3.9-6.3-9.1l1.9-10.8-1.5-.3c-.4-.1-.8-.3-1-.6-.2-.4-.3-.7-.3-1.2.1-.4.3-.8.6-1 .4-.2.7-.3 1.2-.3l1.5.3 1.4-7.7c.1-.4.3-.8.6-1 .4-.2.7-.3 1.2-.3.4.1.8.3 1 .6.2.4.3.7.3 1.2l-1.4 7.7 3.1.5c.4.1.8.3 1 .6.2.4.3.7.3 1.2-.1.4-.3.8-.6 1s-.7.3-1.2.3l-3.1-.5-1.9 10.8c-.6 3.1.6 5 3.7 5.5zM1376.3 419.4c.1-.4.3-.8.7-1 .4-.2.7-.3 1.2-.2s.8.3 1 .7c.2.4.3.7.2 1.2l-3.6 18.4c-.1.4-.3.8-.7 1-.4.2-.7.3-1.2.2s-.8-.3-1-.7c-.2-.4-.3-.7-.2-1.2l3.6-18.4zm4.6-5.5c-.1.5-.4.9-.8 1.2-.5.3-.9.4-1.5.3-.5-.1-.9-.4-1.2-.8-.3-.5-.4-.9-.3-1.5.1-.5.4-.9.8-1.2.4-.3.9-.4 1.5-.3.5.1.9.4 1.2.8.3.5.4 1 .3 1.5zM1384.2 420.9c.1-.4.3-.8.7-1 .4-.2.8-.3 1.2-.2.4.1.8.3 1 .7.2.4.3.8.2 1.2l-.4 1.7c2.6-1.7 5.4-2.2 8.3-1.6 1.5.3 2.8.9 4 1.6.2.1.4.3.5.5.2.4.3.8.2 1.2-.1.4-.3.7-.7 1-.4.2-.8.3-1.2.2-.2-.1-.5-.2-.6-.3-.8-.6-1.8-1-2.9-1.2-2.1-.5-4.1-.1-5.9 1.1-1.8 1.2-2.9 2.8-3.4 4.9l-2 9.2c-.1.4-.3.8-.7 1-.4.2-.8.3-1.2.2-.4-.1-.8-.3-1-.7-.2-.4-.3-.8-.2-1.2l4.1-18.3zM1428.4 448.8c-2.7 1.6-5.5 2-8.4 1.2-2.9-.8-5.2-2.4-6.7-5s-1.9-5.4-1.2-8.3c.8-2.9 2.4-5.2 5-6.7s5.4-1.9 8.3-1.2c2.9.8 5.2 2.4 6.7 5s1.9 5.4 1.2 8.3l-2.3 9.1c-.1.4-.3.7-.7 1s-.8.3-1.2.2-.7-.3-1-.7c-.2-.4-.3-.8-.2-1.2l.5-1.7zm-3.7-17c-2.1-.5-4.1-.3-5.9.8-1.9 1.1-3.1 2.7-3.6 4.8-.5 2.1-.3 4.1.8 5.9 1.1 1.9 2.7 3.1 4.8 3.6 2.1.5 4.1.3 5.9-.8 1.9-1.1 3.1-2.7 3.6-4.8.5-2.1.3-4.1-.8-5.9-1.1-1.8-2.7-3-4.8-3.6zM1454.1 427.1c.4.1.7.4.9.8s.3.8.1 1.2-.4.7-.8.9c-.4.2-.8.3-1.2.1-4-1.2-6.6.2-7.8 4.2l-.3 1.1 4.5 1.3c.4.1.7.4.9.8s.3.8.1 1.2-.4.7-.8.9c-.4.2-.8.3-1.2.1l-4.5-1.3-4.5 15.4c-.1.4-.4.7-.8.9-.4.2-.8.3-1.2.1-.4-.1-.7-.4-.9-.7-.2-.4-.3-.8-.1-1.2l4.5-15.4-1.5-.4c-.4-.1-.7-.4-.9-.7-.2-.4-.3-.8-.1-1.2s.4-.7.7-.9c.4-.2.8-.3 1.2-.1l1.5.4.3-1.1c2.1-6 5.9-8.1 11.9-6.4zM1468.8 433.1c.1-.4.4-.7.8-.9.4-.2.8-.2 1.2-.1.4.1.7.4.9.8.2.4.2.8.1 1.2l-3.4 10.1c2.5-1.2 5-1.3 7.6-.4 2.7.9 4.6 2.6 5.9 5.1s1.4 5.1.5 7.8l-3.2 9.6c-.1.4-.4.7-.8.9-.4.2-.8.2-1.2.1-.4-.1-.7-.4-.9-.8-.2-.4-.2-.8-.1-1.2l3.2-9.6c.6-1.8.5-3.6-.4-5.4-.9-1.7-2.2-2.9-4.1-3.5-1.8-.6-3.6-.5-5.4.4-1.7.9-2.9 2.2-3.5 4.1l-3.2 9.6c-.1.4-.4.7-.8.9-.4.2-.8.2-1.2.1-.4-.1-.7-.4-.9-.8-.2-.4-.2-.8-.1-1.2l9-26.8zM1489.6 450.1c.1-.4.4-.7.8-.9.4-.2.8-.2 1.2-.1s.7.4.9.8c.2.4.2.8.1 1.2l-6.3 17.7c-.1.4-.4.7-.8.9-.4.2-.8.2-1.2.1-.4-.1-.7-.4-.9-.8s-.2-.8-.1-1.2l6.3-17.7zm5.5-4.7c-.2.5-.5.9-1 1.1-.5.2-1 .3-1.5.1-.5-.2-.9-.5-1.1-1s-.3-1-.1-1.5c.2-.5.5-.9 1-1.1.5-.2 1-.3 1.5-.1s.9.5 1.1 1c.2.5.2 1 .1 1.5zM1493.5 471.3c-.2.4-.4.7-.8.9-.4.2-.8.2-1.2 0-.4-.2-.7-.4-.9-.8-.2-.4-.2-.8 0-1.2l6.8-17.4c.2-.4.4-.7.8-.9.4-.2.8-.2 1.2 0 .4.2.7.4.9.8.2.4.2.8 0 1.2l-.1.4c1.9-.7 3.8-.6 5.8.1 2.2.9 3.8 2.4 4.7 4.5.2.5.4.9.5 1.4.4-.3.8-.5 1.3-.7 2.2-1 4.4-1 6.6-.2 2.2.9 3.8 2.4 4.7 4.5s1 4.4.2 6.6l-4.2 10.9c-.2.4-.4.7-.8.9-.4.2-.8.2-1.2 0-.4-.2-.7-.4-.9-.8s-.2-.8 0-1.2l4.2-10.9c.5-1.4.5-2.8-.1-4.2-.6-1.4-1.6-2.3-3-2.9-1.4-.5-2.8-.5-4.2.1-1.4.6-2.3 1.6-2.9 3l-4.2 10.9c-.2.4-.4.7-.8.9-.4.2-.8.2-1.2 0-.4-.2-.7-.4-.9-.8-.2-.4-.2-.8 0-1.2l4.2-10.9c.5-1.4.5-2.8-.1-4.2-.6-1.4-1.6-2.3-3-2.9-1.4-.5-2.8-.5-4.2.1s-2.3 1.6-2.9 3l-4.3 11zM1531.2 466.1c.2-.4.5-.7.9-.8.4-.2.8-.2 1.2 0 .4.2.7.5.8.9.2.4.2.8 0 1.2l-7.3 17.3c-.2.4-.5.7-.9.8-.4.2-.8.2-1.2 0-.4-.2-.7-.5-.8-.9-.2-.4-.2-.8 0-1.2l7.3-17.3zm5.6-4.4c-.2.5-.6.8-1.1 1-.5.2-1 .2-1.5 0s-.8-.6-1-1.1-.2-1 0-1.5.6-.8 1.1-1c.5-.2 1-.2 1.5 0s.8.6 1 1.1c.2.6.2 1 0 1.5zM1538.6 469.3c.2-.4.5-.7.9-.8.4-.2.8-.1 1.2 0 .4.2.7.5.8.9.2.4.1.8 0 1.2l-.5 1.2c2.6-.9 5.1-.8 7.6.3 2.6 1.1 4.3 3 5.3 5.6s.9 5.2-.2 7.8l-4.1 9.3c-.2.4-.5.7-.9.8-.4.2-.8.1-1.2 0-.4-.2-.7-.5-.8-.9-.2-.4-.1-.8 0-1.2l4.1-9.3c.8-1.8.8-3.6.1-5.4-.7-1.8-1.9-3.1-3.7-3.9-1.8-.8-3.6-.8-5.4-.1-1.8.7-3.1 1.9-3.9 3.7l-4.1 9.3c-.2.4-.5.7-.9.8-.4.2-.8.1-1.2 0-.4-.2-.7-.5-.8-.9-.2-.4-.1-.8 0-1.2l7.7-17.2zM1569.8 502.6h-.1c-2.9 1-5.7.8-8.4-.5s-4.6-3.4-5.6-6.3-.8-5.7.5-8.4 3.4-4.6 6.3-5.6 5.7-.8 8.4.5 4.6 3.4 5.6 6.3.8 5.7-.5 8.4l-4.8 9.8c-1 2.1-2.6 3.5-4.8 4.3-3.1 1.1-6.1.9-9-.6-2.9-1.4-4.9-3.7-5.9-6.7-.4-1.1-.6-2.2-.7-3.4 0-.3 0-.6.1-.8.2-.4.5-.7.9-.8.4-.1.8-.1 1.2.1.4.2.7.5.8.9.1.2.1.4.1.6 0 .8.2 1.6.5 2.4.8 2.3 2.2 3.9 4.4 4.9 2.1 1 4.3 1.2 6.6.4 1.5-.7 2.5-1.6 3-2.7l1.4-2.8zm-.2-17.4c-1.9-1-3.9-1.1-6-.4-2 .7-3.5 2-4.5 4-1 1.9-1.1 3.9-.4 6 .7 2 2 3.5 4 4.5 1.9 1 3.9 1.1 6 .4 2-.7 3.5-2 4.5-4 1-1.9 1.1-3.9.4-6s-2-3.5-4-4.5zM1591.3 511.3c.4.2.6.5.8.9.1.4.1.8-.1 1.2-.2.4-.5.6-.9.8-2.6.6-5.1.3-7.5-1-2.7-1.4-4.5-3.6-5.4-6.4-.9-2.9-.6-5.7.8-8.3 1.4-2.7 3.6-4.5 6.4-5.4 2.9-.9 5.7-.6 8.3.8s4.5 3.5 5.4 6.4c.9 2.9.6 5.7-.8 8.3-.2.4-.5.6-.9.8-.4.1-.8.1-1.2-.1l-15.1-7.9c-.4 1.5-.4 3 .1 4.5.6 2.1 1.9 3.6 3.8 4.6 1.7.9 3.5 1.1 5.3.7.3-.1.6 0 1 .1zm4.8-5.6c.4-1.5.4-3-.1-4.5-.6-2.1-1.9-3.6-3.8-4.6s-3.9-1.2-6-.5c-1.5.5-2.8 1.3-3.7 2.5l13.6 7.1zM1606.9 502.8c.2-.4.5-.6.9-.7s.8-.1 1.2.1c.4.2.6.5.7.9s.1.8-.1 1.2l-9.1 16.4c-.2.4-.5.6-.9.7-.4.1-.8.1-1.2-.1-.4-.2-.6-.5-.7-.9-.1-.4-.1-.8.1-1.2l9.1-16.4zm6.1-3.8c-.3.5-.7.8-1.2.9-.5.1-1 .1-1.5-.2-.5-.3-.8-.6-.9-1.2-.2-.5-.1-1 .2-1.5.3-.5.6-.8 1.2-.9.5-.1 1-.1 1.5.2.5.3.8.6.9 1.2.1.6.1 1.1-.2 1.5zM1607.3 524.4c-.2.4-.5.6-1 .7-.4.1-.8.1-1.2-.2-.4-.2-.6-.5-.7-1-.1-.4-.1-.8.2-1.2l9.6-16.1c.2-.4.5-.6 1-.7.4-.1.8-.1 1.2.2.4.2.6.5.7 1 .1.4.1.8-.2 1.2l-.2.4c2-.3 3.9 0 5.7 1.1 2 1.2 3.4 3 3.9 5.3.1.5.2 1 .3 1.4.4-.2.9-.3 1.4-.5 2.3-.6 4.5-.3 6.5.9s3.4 3 3.9 5.3c.6 2.3.3 4.5-.9 6.5l-6 10.1c-.2.4-.5.6-1 .7-.4.1-.8.1-1.2-.2-.4-.2-.6-.5-.7-1-.1-.4-.1-.8.2-1.2l6-10.1c.8-1.3 1-2.7.6-4.1-.4-1.5-1.2-2.6-2.5-3.3-1.3-.8-2.7-1-4.1-.6-1.5.4-2.6 1.2-3.3 2.5l-6 10.1c-.2.4-.5.6-1 .7s-.8.1-1.2-.2c-.4-.2-.6-.5-.7-1-.1-.4-.1-.8.2-1.2l6-10.1c.8-1.3 1-2.7.6-4.1s-1.2-2.6-2.5-3.3c-1.3-.8-2.7-1-4.1-.6-1.5.4-2.6 1.2-3.3 2.5l-6.2 10.1zM1644.1 524.6c.2-.4.6-.6 1-.7s.8 0 1.2.2c.4.2.6.6.7 1 .1.4 0 .8-.2 1.2l-.7 1.1c2.7-.5 5.1-.1 7.4 1.4 2.4 1.5 3.8 3.6 4.4 6.4s.1 5.3-1.4 7.6l-5.5 8.5c-.2.4-.6.6-1 .7-.4.1-.8 0-1.2-.2s-.6-.6-.7-1c-.1-.4 0-.8.2-1.2l5.5-8.5c1.1-1.6 1.4-3.4 1-5.3-.4-1.9-1.4-3.4-3.1-4.4-1.6-1.1-3.4-1.4-5.3-1-1.9.4-3.4 1.4-4.4 3.1l-5.5 8.5c-.2.4-.6.6-1 .7-.4.1-.8 0-1.2-.2-.4-.2-.6-.6-.7-1-.1-.4 0-.8.2-1.2l10.3-15.7zM1670.1 564.6c-.2.4-.6.6-1 .6-.4.1-.8 0-1.2-.3-.4-.2-.6-.6-.6-1-.1-.4 0-.8.3-1.2l.7-1c-2.7.4-5.1-.1-7.4-1.7-2.3-1.6-3.7-3.8-4.2-6.5-.5-2.8.1-5.3 1.6-7.6l5.8-8.3c.2-.4.6-.6 1-.6s.8 0 1.2.3c.4.2.6.6.6 1 .1.4 0 .8-.3 1.2l-5.8 8.3c-1.1 1.6-1.5 3.3-1.1 5.3.3 1.9 1.3 3.4 2.9 4.5s3.3 1.5 5.3 1.1c1.9-.3 3.4-1.3 4.5-2.9l5.8-8.3c.2-.4.6-.6 1-.6s.8 0 1.2.3c.4.2.6.6.6 1 .1.4 0 .8-.3 1.2l-10.6 15.2zM1675.1 568c-.3.3-.6.5-1 .6-.4.1-.8 0-1.2-.3s-.5-.6-.6-1c-.1-.4 0-.8.3-1.2l11.2-15c.3-.3.6-.5 1-.6.4-.1.8 0 1.2.3s.5.6.6 1c.1.4 0 .8-.3 1.2l-.2.3c2-.1 3.9.4 5.6 1.7 1.9 1.4 3 3.3 3.3 5.7.1.5.1 1 .1 1.5.5-.1.9-.2 1.4-.3 2.4-.3 4.5.2 6.4 1.6 1.9 1.4 3 3.3 3.3 5.7s-.2 4.5-1.6 6.4l-7 9.4c-.3.3-.6.5-1 .6-.4.1-.8 0-1.2-.3s-.5-.6-.6-1c-.1-.4 0-.8.3-1.2l7-9.4c.9-1.2 1.3-2.6 1-4.1-.2-1.5-.9-2.7-2.1-3.6-1.2-.9-2.6-1.3-4.1-1-1.5.2-2.7.9-3.6 2.1l-7 9.4c-.3.3-.6.5-1 .6-.4.1-.8 0-1.2-.3s-.5-.6-.6-1c-.1-.4 0-.8.3-1.2l7-9.4c.9-1.2 1.3-2.6 1-4.1-.2-1.5-.9-2.7-2.1-3.6-1.2-.9-2.6-1.3-4.1-1-1.5.2-2.7.9-3.6 2.1l-6.9 9.4z"/></svg>