<svg xmlns="http://www.w3.org/2000/svg" viewBox="0 0 2453 2453"><title>SS_bottom slogan_EL</title><path fill="#03709C" d="M646.2 647.8c-.3-.3-.5-.7-.5-1.1 0-.4.1-.8.4-1.1s.7-.5 1.1-.5.8.1 1.1.4l1.2 1.1c2.7-2.5 5.7-4 9.1-4.5 3.9-.5 7.1.4 9.6 2.7 2.5 2.4 3.6 5.5 3.3 9.4-.3 3.4-1.6 6.6-3.9 9.4l1.2 1.1c.3.3.5.7.5 1.1 0 .4-.1.8-.4 1.1-.3.3-.7.5-1.1.5-.4 0-.8-.1-1.1-.4l-1.2-1.1c-2.7 2.5-5.7 4-9.1 4.4-3.9.6-7.1-.3-9.6-2.7-2.5-2.4-3.6-5.5-3.3-9.4.3-3.4 1.6-6.5 3.9-9.4l-1.2-1zm3.5 3.2c-1.7 2.2-2.7 4.6-3 7.1-.3 3 .4 5.4 2.3 7.2s4.3 2.4 7.3 1.9c2.5-.4 4.9-1.6 6.9-3.4L649.7 651zm2.1-2.2l13.6 12.8c1.7-2.2 2.7-4.6 3-7.2.3-3-.4-5.4-2.3-7.2-1.9-1.8-4.3-2.4-7.3-1.9-2.6.4-4.9 1.6-7 3.5zM670.1 624.9v6.7c0 .4-.2.8-.5 1-.3.3-.7.5-1.1.5-.4 0-.8-.2-1.1-.5-.3-.3-.4-.6-.5-1v-6.7c0-.4.2-.8.5-1.1.3-.3.7-.5 1.1-.5.4 0 .8.2 1.1.5.3.3.5.7.5 1.1zm.6 8.8c2.1-2.1 4.7-3.2 7.7-3.2.5 0 .9.2 1.2.5s.5.7.5 1.1c0 .4-.2.8-.5 1.1-.3.3-.7.4-1.3.4-2.1 0-3.9.8-5.4 2.3-.6.6-.9 1.3-.9 2.2s.3 1.6.9 2.2c.6.6 1.3.9 2.2.9s1.6-.3 2.2-.9l1.1-1.1c.3-.3.7-.5 1.1-.5.4 0 .8.2 1.1.5.3.3.5.7.5 1.1 0 .4-.2.8-.5 1.1l-1.1 1.1c-.6.6-.9 1.3-.9 2.2 0 .9.3 1.6.9 2.2.6.6 1.3.9 2.2.9.9 0 1.6-.3 2.2-.9 1.5-1.5 2.3-3.3 2.3-5.4 0-.6.1-1 .4-1.3.3-.3.7-.5 1.1-.5.4 0 .8.2 1.1.5.3.3.5.7.5 1.2 0 3-1.1 5.6-3.2 7.7-1.2 1.2-2.7 1.8-4.4 1.8-1.7 0-3.2-.6-4.4-1.8-1.3-1.3-1.9-2.9-1.8-4.8-1.9.1-3.5-.5-4.8-1.8-1.2-1.2-1.8-2.7-1.8-4.4 0-1.7.6-3.2 1.8-4.4zM701.4 645.2c.3.3.4.7.4 1.1 0 .4-.2.8-.5 1.1-.3.3-.7.4-1.1.4-.4 0-.8-.2-1.1-.5l-12.9-13.6c-2.1-2.2-3.1-4.8-3-7.8.1-3 1.2-5.6 3.4-7.6 2.2-2.1 4.8-3.1 7.8-3 3 .1 5.6 1.2 7.6 3.4 2.1 2.2 3.1 4.8 3 7.8-.1 3-1.2 5.6-3.4 7.6s-4.8 3.1-7.8 3h-.1l7.7 8.1zm-12.9-13.7c1.5 1.6 3.3 2.4 5.5 2.5 2.2.1 4-.6 5.6-2.1 1.6-1.5 2.4-3.3 2.5-5.5.1-2.2-.6-4-2.1-5.6s-3.3-2.4-5.5-2.5c-2.2-.1-4 .6-5.6 2.1s-2.4 3.3-2.5 5.5c-.1 2.2.6 4.1 2.1 5.6zM720 616.9c0 .4-.2.8-.5 1.1-.3.3-.7.4-1.1.4-.1 0-.3 0-.4-.1l-19-8.4c-.2-.1-.3-.2-.5-.4-.3-.3-.4-.7-.4-1.1 0-.4.2-.8.5-1.1.3-.3.7-.4 1.1-.4.1 0 .3 0 .5.1l15.8 7-5-16.5c0-.2-.1-.4 0-.5 0-.4.2-.8.5-1.1s.7-.4 1.1-.4c.4 0 .8.2 1.1.5.1.2.3.3.3.5l6 19.9v.5zM739.1 586.9c1.9 2.3 2.8 5 2.5 8-.3 3-1.6 5.5-3.9 7.4-2.3 1.9-5 2.8-8 2.5-3-.3-5.5-1.6-7.4-3.9s-2.8-5-2.5-8c.3-3 1.6-5.5 3.9-7.4 2.3-1.9 5-2.8 8-2.5 3 .3 5.4 1.6 7.4 3.9zm-13.5 1c-1.7 1.4-2.6 3.1-2.8 5.3-.2 2.1.4 4 1.8 5.7s3.1 2.6 5.3 2.8c2.1.2 4-.4 5.7-1.8 1.7-1.4 2.6-3.1 2.8-5.3.2-2.1-.4-4-1.8-5.7s-3.1-2.6-5.3-2.8c-2.1-.1-4 .4-5.7 1.8zM756.3 587.3c-2.2 1.7-4.7 2.4-7.5 2.1-2.8-.3-5-1.6-6.8-3.8l-6.2-8c-.3-.3-.4-.7-.3-1.2.1-.4.2-.8.6-1 .3-.3.7-.4 1.2-.3.4.1.8.2 1 .6l6.2 8c1.2 1.5 2.8 2.4 4.7 2.7 1.9.2 3.7-.2 5.2-1.4s2.4-2.8 2.7-4.7c.2-1.9-.2-3.7-1.4-5.2l-6.2-8c-.3-.3-.4-.7-.3-1.2.1-.4.2-.8.6-1s.7-.4 1.2-.3c.4.1.8.2 1 .6l6.2 8c1.7 2.2 2.4 4.7 2.1 7.5-.5 2.6-1.8 4.9-4 6.6zM763.2 569.2c1.1 1.6 2.7 2.5 4.6 2.8 1.9.3 3.7-.1 5.2-1.3 1.6-1.1 2.5-2.7 2.8-4.6.3-1.9-.1-3.7-1.3-5.2l-6-8.2c-.3-.3-.3-.7-.3-1.2.1-.4.3-.8.6-1 .3-.3.7-.3 1.2-.3.4.1.8.3 1 .6l11.1 15.2c.3.3.3.7.3 1.2-.1.4-.3.8-.6 1-.3.3-.7.3-1.2.3-.4-.1-.8-.3-1-.6l-.7-1c-.5 2.7-1.8 4.8-4 6.4s-4.7 2.2-7.4 1.9l6.3 8.6c.3.3.3.7.3 1.2-.1.4-.3.8-.6 1-.3.3-.7.3-1.2.3-.4-.1-.8-.3-1-.6l-16.6-22.8c-.3-.3-.3-.7-.3-1.2.1-.4.3-.8.6-1 .3-.3.7-.3 1.2-.3.4.1.8.3 1 .6l6 8.2zM778.1 544.1c2.5-1.7 5.2-2.3 8.2-1.8.5.1.8.3 1.1.7.2.4.3.7.2 1.2-.1.4-.3.8-.6 1-.4.2-.8.3-1.4.2-2.1-.3-3.9.1-5.7 1.3-.7.5-1.1 1.2-1.3 2-.2.9 0 1.6.5 2.3.5.7 1.2 1.1 2 1.3.9.2 1.6 0 2.3-.5l1.3-.9c.4-.2.7-.3 1.2-.3.4.1.8.3 1 .6.2.4.3.7.3 1.2-.1.4-.3.8-.6 1l-1.3.9c-.7.5-1.1 1.2-1.3 2s0 1.6.5 2.3c.5.7 1.2 1.1 2 1.3.9.2 1.6 0 2.3-.5 1.7-1.2 2.8-2.8 3.2-4.9.1-.6.3-1 .7-1.2.4-.2.7-.3 1.2-.3.4.1.8.3 1 .6.2.4.3.8.3 1.2-.5 3-2 5.3-4.5 7-1.4 1-3 1.3-4.7 1-1.7-.3-3-1.2-4-2.6-1.1-1.5-1.4-3.2-.9-5.1-1.9-.2-3.3-1.1-4.4-2.7-1-1.4-1.3-3-1-4.7.1-1.3 1-2.6 2.4-3.6zM800.4 532.9c-.4.2-.8.3-1.2.2-.4-.1-.8-.3-1-.7-.2-.4-.3-.8-.2-1.2.1-.4.3-.7.7-1l13.2-8.4c.4-.2.8-.3 1.2-.2.4.1.7.3 1 .7.2.4.3.8.2 1.2-.1.4-.3.7-.7 1l-5.3 3.3 9.2 14.5c.2.4.3.8.2 1.2-.1.4-.3.7-.7 1-.4.2-.8.3-1.2.2s-.7-.3-1-.7l-9.2-14.5-5.2 3.4zM818.3 519.9c-.2-.4-.3-.8-.2-1.2.1-.4.3-.7.7-1s.8-.3 1.2-.2c.4.1.7.3 1 .7l9.8 15.9c.2.4.3.8.2 1.2-.1.4-.3.7-.7 1s-.8.3-1.2.2c-.4-.1-.7-.3-1-.7l-9.8-15.9zM847.9 533.1c.7-.4 1.2-1.1 1.4-1.9.2-.8.1-1.6-.3-2.4-.4-.7-1.1-1.2-1.9-1.4-.8-.2-1.6-.1-2.4.3-2.6 1.5-5.3 1.9-8.3 1.1-2.9-.8-5.1-2.5-6.6-5-1.5-2.6-1.9-5.3-1.1-8.3.8-2.9 2.5-5.1 5-6.6 1.7-1 3.5-1.5 5.4-1.5.6 0 1.1.3 1.4.8.2.4.3.8.2 1.2-.1.4-.3.7-.7.9-.3.2-.6.2-.9.2-1.3 0-2.5.4-3.7 1.1-1.9 1.1-3.1 2.7-3.6 4.7-.5 2.1-.3 4 .8 5.9 1.1 1.9 2.7 3.1 4.7 3.6 2.1.5 4 .3 5.9-.8 1.5-.9 3.1-1.1 4.7-.6 1.7.4 2.9 1.4 3.8 2.9s1.1 3.1.6 4.7c-.4 1.7-1.4 2.9-2.9 3.8-.4.2-.8.3-1.2.2-.4-.1-.7-.3-.9-.7-.2-.4-.3-.8-.2-1.2.2-.5.4-.8.8-1zM849.9 489l16.6-8.7c.4-.2.8-.2 1.2-.1.4.1.7.4.9.8s.2.8.1 1.2c-.1.4-.4.7-.8.9l-15.2 8 5.1 9.7 11.1-5.8c.4-.2.8-.2 1.2-.1.4.1.7.4.9.8s.2.8.1 1.2c-.1.4-.4.7-.8.9l-11.1 5.8 5.1 9.7 15.2-8c.4-.2.8-.2 1.2-.1.4.1.7.4.9.8s.2.8.1 1.2c-.1.4-.4.7-.8.9l-16.6 8.7c-.4.2-.8.2-1.2.1-.4-.1-.7-.4-.9-.8l-13-24.9c-.2-.4-.2-.8-.1-1.2.1-.5.4-.8.8-1zM877.4 487.2c-.2-.4-.2-.8-.1-1.2.1-.4.4-.7.8-.9s.8-.2 1.2-.1c.4.1.7.4.9.8l8.3 16.8c.2.4.2.8.1 1.2-.1.4-.4.7-.8.9-.4.2-.8.2-1.2.1-.4-.1-.7-.4-.9-.8l-8.3-16.8zM897 465.7c.4-.2.8-.2 1.2-.1.4.1.7.4.9.8.2.4.2.8.1 1.2s-.4.7-.8.9l-10.3 4.8 13.2 3.5c3.4 1 5.8 3 7.2 6 1.3 2.7 1.4 5.5.4 8.4-1 2.8-2.9 4.9-5.7 6.2-2.7 1.3-5.5 1.4-8.4.4-2.8-1-4.9-2.9-6.2-5.7-1.3-2.7-1.4-5.5-.4-8.4.9-2.6 2.6-4.5 4.9-5.8l-10.2-2.7c-.4-.1-.7-.4-.8-.8-.2-.4-.2-.8-.1-1.2.1-.4.4-.7.8-.9l14.2-6.6zm-1.8 14.6c-2 .9-3.3 2.4-4 4.4-.7 2-.6 4 .3 6 .9 2 2.4 3.3 4.4 4 2 .7 4 .6 6-.3s3.3-2.4 4-4.4c.7-2 .6-4-.3-6-.9-2-2.4-3.3-4.4-4-2-.7-4-.6-6 .3zM926.9 473.9c-.8-1.8-2-3-3.9-3.8-1.8-.7-3.6-.7-5.4.1s-3 2-3.8 3.9c-.7 1.8-.7 3.6.1 5.4l4 9.3c.2.4.2.8 0 1.2-.2.4-.4.7-.8.9-.4.2-.8.2-1.2 0-.4-.2-.7-.4-.9-.8l-7.4-17.2c-.2-.4-.2-.8 0-1.2.2-.4.4-.7.8-.9.4-.2.8-.2 1.2 0 .4.2.7.4.9.8l.5 1.2c1-2.5 2.8-4.3 5.3-5.4 2.6-1.1 5.2-1.1 7.8-.1 2.6 1 4.5 2.8 5.6 5.4l7.7 17.9c.2.4.2.8 0 1.2-.2.4-.4.7-.8.9-.4.2-.8.2-1.2 0-.4-.2-.7-.4-.9-.8l-7.6-18zm-8.7-14.6l-2.5 6.2c-.2.4-.4.6-.8.8-.4.2-.8.2-1.2 0-.4-.2-.7-.4-.9-.8-.2-.4-.2-.7-.1-1.1l2.5-6.2c.2-.4.5-.7.8-.9.4-.2.8-.2 1.2 0 .4.2.7.4.9.8.2.4.2.8.1 1.2zM947.5 458.1h.1c2.8 1.2 4.7 3.2 5.8 6 1.1 2.8 1 5.6-.2 8.4-1.2 2.8-3.2 4.7-6 5.8s-5.6 1-8.4-.2c-2.8-1.2-4.7-3.2-5.8-6-1.1-2.8-1-5.6.2-8.4 1.2-2.8 3.2-4.7 6-5.8l11.6-4.5c.4-.2.8-.1 1.2 0 .4.2.7.5.8.9.2.4.1.8 0 1.2-.2.4-.5.7-.9.8l-4.4 1.8zm3 7.2c-.8-2-2.2-3.5-4.1-4.3-2-.9-4-.9-6-.1s-3.5 2.2-4.3 4.1c-.9 2-.9 4-.1 6s2.2 3.5 4.1 4.3c2 .9 4 .9 6 .1s3.5-2.2 4.3-4.1c.9-2 .9-4 .1-6zM961.6 449.6c2.8-1 5.6-.9 8.4.4.4.2.7.5.8.9.1.4.1.8-.1 1.2-.2.4-.5.7-.9.8-.4.1-.9.1-1.4-.2-1.9-.9-3.8-.9-5.8-.2-.8.3-1.4.8-1.8 1.6-.4.8-.4 1.6-.1 2.4.3.8.8 1.4 1.6 1.8.8.4 1.6.4 2.4.1l1.5-.5c.4-.1.8-.1 1.2.1.4.2.7.5.8.9.1.4.1.8-.1 1.2-.2.4-.5.7-.9.8l-1.5.5c-.8.3-1.4.8-1.8 1.6-.4.8-.4 1.6-.1 2.4.3.8.8 1.4 1.6 1.8.8.4 1.6.4 2.4.1 2-.7 3.4-2 4.4-3.9.2-.5.6-.9 1-1s.8-.1 1.2.1c.4.2.7.5.8.9.1.4.1.8-.1 1.2-1.3 2.7-3.4 4.6-6.2 5.6-1.6.6-3.2.5-4.8-.2-1.6-.7-2.6-1.9-3.2-3.6-.6-1.8-.5-3.5.4-5.1-1.7-.7-2.9-2-3.6-3.7-.6-1.6-.5-3.2.2-4.8.9-1.5 2.1-2.6 3.7-3.2zM974.1 446.9c-.1-.4-.1-.8.1-1.2.2-.4.5-.7.9-.8.4-.1.8-.1 1.2.1.4.2.7.5.8.9l6 17.8c.1.4.1.8-.1 1.2-.2.4-.5.7-.9.8-.4.1-.8.1-1.2-.1-.4-.2-.7-.5-.8-.9l-6-17.8zM1000.2 466.3c.8-.3 1.4-.8 1.8-1.5.4-.8.5-1.6.2-2.4s-.8-1.4-1.5-1.8c-.8-.4-1.6-.5-2.4-.2-2.9.9-5.7.7-8.3-.7-2.7-1.4-4.5-3.5-5.4-6.4s-.7-5.7.7-8.3c1.4-2.7 3.5-4.5 6.4-5.4 1.9-.6 3.8-.7 5.6-.3.6.2 1 .5 1.2 1.1.1.4.1.8-.1 1.2-.2.4-.5.6-.9.8-.3.1-.6.1-1 0-1.3-.3-2.5-.2-3.9.2-2.1.7-3.6 1.9-4.6 3.8-1 1.9-1.2 3.9-.5 6s1.9 3.6 3.8 4.6c1.9 1 3.9 1.2 6 .5 1.7-.5 3.2-.4 4.8.4 1.5.8 2.6 2 3.1 3.7.5 1.7.4 3.2-.4 4.8s-2 2.6-3.7 3.1c-.4.1-.8.1-1.2-.1-.4-.2-.6-.5-.8-.9-.1-.4-.1-.8.1-1.2.3-.6.6-.8 1-1zM1014.9 435.9c-.4.1-.8.1-1.2-.2-.4-.2-.6-.5-.7-.9s-.1-.8.2-1.2.5-.6.9-.7l15.1-4.1c.4-.1.8-.1 1.2.2s.6.5.7.9.1.8-.2 1.2-.5.6-.9.7l-6 1.6 4.5 16.6c.1.4.1.8-.2 1.2-.2.4-.5.6-.9.7s-.8.1-1.2-.2c-.4-.2-.6-.5-.7-.9l-4.5-16.6-6.1 1.7zM1056.7 433.4c.7 2.9.3 5.7-1.3 8.2s-3.8 4.2-6.8 4.9c-2.9.7-5.7.3-8.2-1.3-2.6-1.6-4.2-3.8-4.9-6.8s-.3-5.7 1.3-8.2c1.6-2.6 3.8-4.2 6.8-4.9 2.9-.7 5.7-.3 8.2 1.3 2.5 1.7 4.2 3.9 4.9 6.8zm-12.4-5c-2.1.5-3.7 1.7-4.8 3.5-1.1 1.8-1.4 3.8-.9 5.9.5 2.1 1.7 3.7 3.5 4.8 1.8 1.1 3.8 1.4 5.9.9 2.1-.5 3.7-1.7 4.8-3.5 1.1-1.8 1.4-3.8.9-5.9-.5-2.1-1.7-3.7-3.5-4.8-1.9-1.1-3.8-1.4-5.9-.9zM1072 441.3c-2.7.6-5.3.1-7.6-1.5-2.3-1.5-3.8-3.7-4.4-6.4l-2-9.9c-.1-.4 0-.8.2-1.2.2-.4.6-.6 1-.7s.8 0 1.2.2c.4.2.6.6.7 1l2 9.9c.4 1.9 1.4 3.4 3 4.5s3.4 1.4 5.3 1c1.9-.4 3.4-1.4 4.5-3s1.4-3.4 1-5.3l-2-9.9c-.1-.4 0-.8.2-1.2.2-.4.6-.6 1-.7.4-.1.8 0 1.2.2.4.2.6.6.7 1l2 9.9c.6 2.7.1 5.3-1.5 7.6-1.6 2.5-3.7 4-6.5 4.5zM1111.4 402.6c.4-.1.8 0 1.2.3.3.3.6.6.6 1 .1.4 0 .8-.3 1.2-.3.4-.6.6-1 .6l-15.4 2.4 10.7 10c.2.2.4.5.4.9s0 .7-.1 1l-7.1 12.8 15.4-2.4c.4-.1.8 0 1.2.3.3.3.6.6.6 1 .1.4 0 .8-.3 1.2-.3.3-.6.6-1 .6l-18.5 2.9c-.4.1-.8 0-1.2-.3-.4-.3-.6-.6-.6-1-.1-.3 0-.6.1-.9l8.1-14.6-12.2-11.4c-.2-.2-.3-.5-.4-.8-.1-.4 0-.8.3-1.2.3-.3.6-.6 1-.6l18.5-3zM1130.8 431.7c-2.8.3-5.3-.4-7.5-2.1-2.2-1.7-3.5-4-3.8-6.7l-1.2-10.1c-.1-.4.1-.8.3-1.1.3-.3.6-.5 1-.6.4-.1.8.1 1.1.3.3.3.5.6.6 1l1.2 10.1c.2 1.9 1.1 3.5 2.6 4.7 1.5 1.2 3.2 1.7 5.2 1.4 1.9-.2 3.5-1.1 4.7-2.6 1.2-1.5 1.7-3.2 1.4-5.2l-1.2-10.1c-.1-.4.1-.8.3-1.1.3-.3.6-.5 1-.6.4-.1.8.1 1.1.3.3.3.5.6.6 1l1.2 10.1c.3 2.8-.4 5.3-2.1 7.5-1.5 2.2-3.8 3.4-6.5 3.8zm1.3-28.9l-4.1 5.3c-.3.3-.6.5-1 .5-.4.1-.8-.1-1.1-.3-.3-.3-.5-.6-.6-1 0-.4 0-.8.3-1.1l4.1-5.3c.3-.3.6-.5 1-.6.4-.1.8.1 1.1.3.3.3.5.6.6 1 0 .5-.1.8-.3 1.2zM1146 419.6c.2 1.9 1 3.5 2.5 4.8 1.5 1.2 3.2 1.8 5.2 1.6 1.9-.2 3.5-1 4.8-2.5s1.8-3.2 1.6-5.2l-.9-10.2c0-.4.1-.8.4-1.1.3-.3.6-.5 1.1-.6s.8.1 1.1.4.5.6.6 1.1l1.7 18.8c0 .4-.1.8-.4 1.1-.3.3-.6.5-1.1.6s-.8-.1-1.1-.4c-.3-.3-.5-.6-.6-1.1l-.1-1.3c-1.8 2.1-4 3.2-6.8 3.5-2.7.2-5.2-.5-7.3-2.2l1 10.6c0 .4-.1.8-.4 1.1-.3.3-.6.5-1.1.6-.4 0-.8-.1-1.1-.4-.3-.3-.5-.6-.6-1.1l-2.5-28.1c0-.4.1-.8.4-1.1.3-.3.6-.5 1.1-.6.4 0 .8.1 1.1.4.3.3.5.6.6 1.1l.8 10.2zM1167.2 409.1c-.4 0-.8-.1-1.1-.4-.3-.3-.5-.6-.5-1.1s.1-.8.4-1.1c.3-.3.6-.5 1.1-.5l18.7-1.2c.4 0 .8.1 1.1.4.3.3.5.6.5 1.1s-.1.8-.4 1.1c-.3.3-.6.5-1.1.5l-1.6.1 1.1 17.2c0 .4-.1.8-.4 1.1-.3.3-.6.5-1.1.5s-.8-.1-1.1-.4c-.3-.3-.5-.6-.5-1.1l-1.1-17.2-9.4.6 1.1 17.2c0 .4-.1.8-.4 1.1-.3.3-.6.5-1.1.5-.4 0-.8-.1-1.1-.4-.3-.3-.5-.6-.5-1.1l-1.1-17.2-1.5.3zM1212 420c-.5.9-1.1 1.8-1.9 2.6-2.1 2.2-4.6 3.3-7.6 3.4-3 .1-5.6-.9-7.8-3s-3.3-4.6-3.4-7.6c-.1-3 .9-5.6 3-7.8s4.6-3.3 7.6-3.4c3-.1 5.6.9 7.8 3 .8.8 1.5 1.6 2 2.5l1.2-4.7c.1-.2.2-.4.4-.6.3-.3.7-.5 1.1-.5.4 0 .8.1 1.1.4.3.3.5.7.5 1.1v.4l-2.3 9.1 2.9 8.9v.4c0 .4-.1.8-.4 1.1-.3.3-.7.5-1.1.5-.4 0-.8-.1-1.1-.4-.2-.2-.3-.4-.4-.6l-1.6-4.8zm-2.2-3.2l.5-2-.6-2c-.5-1.4-1.2-2.6-2.2-3.5-1.6-1.5-3.4-2.2-5.6-2.1-2.2.1-4 .9-5.5 2.4-1.5 1.6-2.2 3.4-2.1 5.6.1 2.2.9 4 2.4 5.5 1.6 1.5 3.4 2.2 5.6 2.1 2.2-.1 4-.9 5.5-2.4 1-.9 1.7-2.1 2-3.6zM1230.6 425.2c-.3.3-.7.4-1.1.4-.5 0-.8-.2-1.1-.5-.1-.1-.2-.2-.2-.4l-8.3-19.1c-.1-.2-.1-.4-.1-.6 0-.4.2-.8.5-1.1.3-.3.7-.4 1.1-.4.4 0 .8.2 1.1.5.1.1.2.2.3.4l6.9 15.8 7.5-15.6c.1-.2.2-.3.3-.4.3-.3.7-.4 1.1-.4.4 0 .8.2 1.1.5.3.3.4.7.4 1.1 0 .2 0 .4-.1.6l-9.1 18.7c-.1.3-.2.5-.3.5zM1244.9 407c-.4 0-.8-.2-1.1-.5-.3-.3-.4-.7-.4-1.1 0-.4.2-.8.5-1.1.3-.3.7-.4 1.1-.4l15.6.5c.4 0 .8.2 1.1.5.3.3.4.7.4 1.1 0 .4-.2.8-.5 1.1s-.7.4-1.1.4l-6.2-.2-.5 17.2c0 .4-.2.8-.5 1.1s-.7.4-1.1.4c-.4 0-.8-.2-1.1-.5-.3-.3-.4-.7-.4-1.1l.5-17.2-6.3-.2zM1285.7 416.7c-.2 3-1.4 5.5-3.7 7.5-2.3 2-4.9 2.9-7.9 2.7-3-.2-5.5-1.4-7.5-3.7-2-2.3-2.9-4.9-2.7-7.9s1.4-5.5 3.7-7.5 4.9-2.9 7.9-2.7c3 .2 5.5 1.4 7.5 3.7 1.9 2.3 2.8 4.9 2.7 7.9zm-10.5-8.4c-2.2-.1-4 .5-5.7 2-1.6 1.4-2.5 3.2-2.6 5.4-.1 2.2.5 4 2 5.7 1.4 1.6 3.2 2.5 5.4 2.6s4-.5 5.7-2c1.6-1.4 2.5-3.2 2.6-5.4.1-2.2-.5-4-2-5.7-1.5-1.6-3.3-2.5-5.4-2.6zM1298.2 435.1c.9.1 1.6-.2 2.3-.7.7-.6 1-1.3 1.1-2.1.1-.9-.2-1.6-.7-2.3-.6-.7-1.3-1-2.1-1.1-3-.3-5.5-1.6-7.4-3.9-1.9-2.3-2.8-5-2.5-8 .3-3 1.6-5.5 3.9-7.4 2.3-1.9 5-2.8 8-2.5 2 .2 3.8.8 5.3 1.9.5.4.7.8.7 1.4 0 .4-.2.8-.6 1.1-.3.3-.7.4-1.1.4-.3 0-.6-.2-.9-.4-1.1-.7-2.3-1.1-3.7-1.3-2.2-.2-4.1.4-5.7 1.8-1.7 1.4-2.6 3.2-2.8 5.3s.4 4.1 1.8 5.7c1.4 1.7 3.1 2.6 5.3 2.8 1.7.2 3.1.9 4.2 2.2s1.6 2.8 1.4 4.6-.9 3.1-2.2 4.2-2.8 1.6-4.6 1.4c-.4 0-.8-.2-1.1-.6s-.4-.7-.4-1.1c0-.4.2-.8.6-1.1s.7-.3 1.2-.3zM1340.4 415c.1.1.1.1 0 0 1.9 2.5 2.6 5.2 2.2 8.2-.4 3-1.8 5.4-4.3 7.2-2.4 1.8-5.1 2.5-8.1 2.1-3-.4-5.4-1.8-7.2-4.3-1.8-2.4-2.5-5.1-2.1-8.1.4-3 1.8-5.4 4.3-7.2 2.4-1.8 5.1-2.5 8.1-2.1l12.4 1.8c.4.1.8.3 1 .6.3.3.4.7.3 1.2-.1.4-.3.8-.6 1s-.7.4-1.2.3l-4.8-.7zm-.9 7.8c.3-2.1-.2-4.1-1.5-5.8-1.3-1.7-3-2.7-5.2-3-2.1-.3-4.1.2-5.8 1.5s-2.7 3-3 5.2c-.3 2.1.2 4.1 1.5 5.8 1.3 1.7 3 2.7 5.2 3 2.1.3 4.1-.2 5.8-1.5s2.7-3.1 3-5.2zM1351.8 416.6c-.4-.1-.8-.3-1-.6-.3-.4-.3-.7-.3-1.2s.3-.8.6-1c.4-.3.7-.3 1.2-.3l15.5 2.7c.4.1.8.3 1 .6.3.4.3.7.3 1.2-.1.4-.3.8-.6 1-.4.3-.7.3-1.2.3l-6.2-1.1-2.9 17c-.1.4-.3.8-.6 1-.4.3-.7.3-1.2.3-.4-.1-.8-.3-1-.6-.3-.4-.3-.7-.3-1.2l2.9-17-6.2-1.1zM1388.5 436.7c-.7.8-1.5 1.5-2.4 2.1-2.5 1.7-5.3 2.2-8.2 1.6-3-.6-5.3-2.2-6.9-4.7-1.7-2.5-2.2-5.3-1.6-8.2s2.2-5.3 4.7-6.9c2.5-1.7 5.3-2.2 8.2-1.6 3 .6 5.3 2.2 6.9 4.7.6.9 1.1 1.9 1.4 2.9l2.3-4.3c.1-.2.3-.4.5-.5.4-.2.7-.3 1.2-.2.4.1.8.3 1 .7.2.4.3.8.2 1.2 0 .1-.1.2-.1.4l-4.4 8.3.8 9.4v.4c-.1.4-.3.8-.7 1-.4.2-.8.3-1.2.2-.4-.1-.7-.3-1-.7-.1-.2-.2-.4-.3-.7l-.4-5.1zm-1.4-3.5l1-1.8-.2-2.1c-.1-1.5-.6-2.8-1.3-3.9-1.2-1.8-2.8-2.9-5-3.3-2.1-.4-4.1-.1-5.9 1.1-1.8 1.2-2.9 2.8-3.3 5-.4 2.1-.1 4.1 1.1 5.9 1.2 1.8 2.8 2.9 5 3.3 2.1.4 4.1.1 5.9-1.1 1.1-.8 2-1.8 2.7-3.1zM1411.9 428.6c-.4-.1-.7-.3-1-.7-.2-.4-.3-.8-.2-1.2.1-.4.3-.7.7-1 .4-.2.8-.3 1.2-.2l18.2 4.6c.4.1.7.3 1 .7.2.4.3.8.2 1.2-.1.4-.3.7-.7 1-.4.2-.8.3-1.2.2l-1.5-.4-4.2 16.7c-.1.4-.3.7-.7 1-.4.2-.8.3-1.2.2-.4-.1-.7-.3-1-.7-.2-.4-.3-.8-.2-1.2l4.2-16.7-9.1-2.3-4.2 16.7c-.1.4-.3.7-.7 1-.4.2-.8.3-1.2.2-.4-.1-.7-.3-1-.7-.2-.4-.3-.8-.2-1.2l4.2-16.7-1.4-.5zM1451.2 452.8c-.7.7-1.6 1.4-2.6 1.9-2.6 1.5-5.4 1.8-8.3.9-2.9-.8-5.1-2.6-6.5-5.2-1.5-2.6-1.8-5.4-.9-8.3s2.6-5.1 5.2-6.5c2.6-1.5 5.4-1.8 8.3-.9 2.9.8 5.1 2.6 6.5 5.2.5 1 .9 2 1.1 3l2.6-4.1c.1-.2.3-.3.5-.5.4-.2.8-.2 1.2-.1.4.1.7.4.9.7.2.4.3.8.1 1.2 0 .1-.1.2-.1.3l-5 7.9v9.4c0 .1 0 .2-.1.4-.1.4-.4.7-.7.9-.4.2-.8.3-1.2.1-.4-.1-.7-.4-.9-.7-.1-.2-.2-.5-.2-.7l.1-4.9zm-1.2-3.7l1.1-1.7v-2.1c0-1.5-.3-2.8-1-4-1-1.9-2.6-3.1-4.7-3.7-2.1-.6-4.1-.4-5.9.7-1.9 1-3.1 2.6-3.7 4.7s-.4 4.1.7 5.9c1 1.9 2.6 3.1 4.7 3.7 2.1.6 4.1.4 5.9-.6 1.2-.7 2.1-1.6 2.9-2.9zM1464.2 441.6c.1-.4.4-.7.8-.9.4-.2.8-.2 1.2-.1.4.1.7.4.9.8.2.4.2.8.1 1.2l-5.7 17.9c-.1.4-.4.7-.8.9-.4.2-.8.2-1.2.1-.4-.1-.7-.4-.9-.8-.2-.4-.2-.8-.1-1.2l5.7-17.9zM1493.2 439.7c.4.1.7.4.9.8.2.4.2.8.1 1.2-.1.4-.4.7-.8.9-.4.2-.8.2-1.2.1l-10.7-3.7 7.1 11.7c1.7 3.1 2.1 6.2 1 9.3-1 2.9-2.8 5-5.5 6.3-2.7 1.3-5.5 1.5-8.4.5s-5-2.8-6.3-5.5c-1.3-2.7-1.5-5.5-.5-8.4 1-2.9 2.8-5 5.5-6.3 2.4-1.2 5-1.5 7.5-.8l-5.5-9c-.2-.4-.2-.8-.1-1.2.1-.4.4-.7.8-.9.4-.2.8-.2 1.2-.1l14.9 5.1zm-11.4 9.3c-2-.7-4-.6-6 .4s-3.3 2.4-4 4.5c-.7 2-.6 4 .4 6 .9 1.9 2.4 3.3 4.5 4 2 .7 4 .6 6-.4s3.3-2.4 4-4.5c.7-2 .6-4-.4-6s-2.5-3.3-4.5-4zM1497.3 452.9c.1-.4.4-.7.8-.9.4-.2.8-.2 1.2 0 .4.1.7.4.9.8s.2.8 0 1.2l-6.5 17.6c-.1.4-.4.7-.8.9-.4.2-.8.2-1.2.1-.4-.1-.7-.4-.9-.8-.2-.4-.2-.8 0-1.2l6.5-17.7zM1518.7 476.8c-.8.7-1.7 1.2-2.7 1.7-2.8 1.2-5.6 1.2-8.4.1-2.8-1.1-4.8-3.1-6-5.8-1.2-2.8-1.2-5.6-.1-8.4 1.1-2.8 3.1-4.8 5.8-6 2.8-1.2 5.6-1.2 8.4-.1 2.8 1.1 4.8 3.1 6 5.8.4 1 .7 2 .8 3.1l3-3.8c.2-.2.3-.3.6-.4.4-.2.8-.2 1.2 0 .4.2.7.4.9.8.2.4.2.8 0 1.2 0 .1-.1.2-.2.3l-5.8 7.4-.9 9.4c0 .1-.1.2-.1.4-.2.4-.4.7-.8.9-.4.2-.8.2-1.2 0-.4-.2-.7-.4-.9-.8-.1-.2-.1-.5-.1-.7l.5-5.1zm-.7-3.8l1.3-1.6.2-2.1c.1-1.5-.1-2.8-.6-4-.9-2-2.3-3.4-4.3-4.2-2-.8-4-.8-6 .1s-3.4 2.3-4.2 4.3c-.8 2-.8 4 .1 6s2.3 3.4 4.3 4.2 4 .8 6-.1c1.2-.6 2.3-1.4 3.2-2.6zm4.2-19.5l-6.2 2.7c-.4.1-.8.1-1.2 0-.4-.2-.7-.4-.9-.8-.2-.4-.2-.8 0-1.2.1-.4.4-.7.8-.8l6.2-2.7c.4-.2.8-.2 1.2 0 .4.2.7.4.9.8.2.4.2.8 0 1.2-.2.3-.5.6-.8.8zM1558.5 488.5c-1.2 2.8-3.3 4.7-6.1 5.7-2.8 1.1-5.6 1-8.4-.3-2.8-1.2-4.7-3.3-5.7-6.1s-1-5.6.3-8.4 3.3-4.7 6.1-5.7c2.8-1.1 5.6-1 8.4.3 2.8 1.2 4.7 3.3 5.7 6.1s.9 5.6-.3 8.4zm-6.8-11.7c-2-.9-4-1-6-.2s-3.5 2.1-4.4 4.1c-.9 2-1 4-.2 6s2.1 3.5 4.1 4.4c2 .9 4 1 6 .2s3.5-2.1 4.4-4.1c.9-2 1-4 .2-6-.7-2-2.1-3.5-4.1-4.4zm8.5-6.9l-6.3 2.4c-.4.1-.8.1-1.1-.1-.4-.2-.7-.5-.8-.9-.2-.4-.1-.8 0-1.2.2-.4.4-.6.8-.8l6.3-2.4c.4-.1.8-.1 1.2.1.4.2.7.5.8.9.2.4.1.8 0 1.2-.3.3-.5.6-.9.8zM1573 475.4c0-.3.1-.5.2-.7.2-.4.5-.7.9-.8.4-.1.8-.1 1.2.1.4.2.7.5.8.9.1.2.1.5.1.7l-1.8 30.3c0 .3 0 .5-.2.7-.2.4-.5.7-.9.8-.4.1-.8.1-1.2-.1-.4-.2-.6-.5-.8-.9-.1-.2-.1-.5-.1-.7l1-16.4-12.4 10.9c-.2.2-.4.3-.6.4-.4.1-.8.1-1.2-.1-.4-.2-.7-.5-.8-.9-.1-.4-.1-.8.1-1.2.1-.2.3-.4.5-.6l14.7-12.9.5-9.5zM1600.4 509.9c-1.4 2.7-3.6 4.4-6.5 5.3-2.9.9-5.7.6-8.3-.8-2.7-1.4-4.4-3.6-5.3-6.5-.9-2.9-.6-5.7.8-8.3s3.6-4.4 6.5-5.3c2.9-.9 5.7-.6 8.3.8 2.7 1.4 4.4 3.6 5.3 6.5.9 2.8.7 5.6-.8 8.3zm-6-12.1c-1.9-1-3.9-1.2-6-.6s-3.6 1.9-4.6 3.8c-1 1.9-1.2 3.9-.6 6s1.9 3.6 3.8 4.6c1.9 1 3.9 1.2 6 .6s3.6-1.9 4.6-3.8c1-1.9 1.2-3.9.6-6-.6-2-1.9-3.6-3.8-4.6zM1606.7 525.9c-2.4-1.4-4-3.4-4.8-6.1-.7-2.7-.4-5.3 1-7.7l5-8.8c.2-.4.5-.6.9-.7.4-.1.8-.1 1.2.1.4.2.6.5.7.9.1.4.1.8-.1 1.2l-5 8.8c-1 1.7-1.2 3.5-.7 5.3.5 1.9 1.6 3.3 3.3 4.3 1.7 1 3.5 1.2 5.3.7 1.9-.5 3.3-1.6 4.3-3.3l5-8.8c.2-.4.5-.6.9-.7.4-.1.8-.1 1.2.1.4.2.6.5.7.9.1.4.1.8-.1 1.2l-5 8.8c-1.4 2.4-3.4 4-6.1 4.8-2.7.8-5.3.4-7.7-1zM1639.3 523.5c-.4-.2-.6-.6-.7-1-.1-.4 0-.8.2-1.2s.6-.6 1-.7.8 0 1.2.2l13.2 8.3c.4.2.6.6.7 1 .1.4 0 .8-.2 1.2-.2.4-.6.6-1 .7-.4.1-.8 0-1.2-.2l-5.3-3.3-9.2 14.5c-.2.4-.6.6-1 .7-.4.1-.8 0-1.2-.2-.4-.2-.6-.6-.7-1s0-.8.2-1.2l9.2-14.5-5.2-3.3zM1669.4 552.5c-1.7 2.5-4 4-7 4.6-3 .6-5.7 0-8.2-1.7-2.5-1.7-4.1-4-4.6-7-.6-3 0-5.7 1.7-8.2 1.7-2.5 4-4.1 7-4.6s5.7 0 8.2 1.7c2.5 1.7 4.1 4 4.6 7 .6 3 0 5.7-1.7 8.2zm-4.7-12.6c-1.8-1.2-3.7-1.6-5.9-1.2s-3.8 1.5-5 3.3-1.6 3.7-1.2 5.9 1.5 3.8 3.3 5c1.8 1.2 3.7 1.6 5.9 1.2 2.1-.4 3.8-1.5 5-3.3 1.2-1.8 1.6-3.7 1.2-5.9-.4-2.1-1.5-3.8-3.3-5zM1674 569.2c-2.3-1.6-3.6-3.8-4.1-6.6-.5-2.8.1-5.3 1.8-7.6l5.9-8.2c.3-.3.6-.6 1-.6.4-.1.8 0 1.2.3.3.3.6.6.6 1 .1.4 0 .8-.3 1.2l-5.9 8.2c-1.1 1.6-1.5 3.3-1.2 5.2s1.3 3.4 2.8 4.6c1.6 1.1 3.3 1.5 5.2 1.2 1.9-.3 3.4-1.3 4.6-2.8l5.9-8.2c.3-.3.6-.6 1-.6.4-.1.8 0 1.2.3.3.3.6.6.6 1 .1.4 0 .8-.3 1.2l-5.9 8.2c-1.6 2.3-3.8 3.6-6.6 4.1-2.7.3-5.3-.3-7.5-1.9zM1706.4 567.9c.3-.3.6-.5 1-.6.4-.1.8.1 1.2.3s.5.6.6 1c0 .4-.1.8-.3 1.2l-4.5 5.7 15.7 1.4c.3 0 .6.1.8.3.3.3.5.6.6 1 0 .4-.1.8-.3 1.2-.3.4-.8.6-1.3.6l-10.8-1 .8 14c0 .4-.1.8-.3 1.1-.3.3-.6.5-1 .6-.4 0-.8-.1-1.2-.3-.3-.3-.5-.6-.6-1.1l-.9-14.6-3.8-.4-4.8 6.1c-.3.3-.6.5-1 .6-.4.1-.8-.1-1.2-.3s-.5-.6-.6-1c-.1-.4.1-.8.3-1.2l11.6-14.6zM1733.7 602.1c-1.9 2.3-4.4 3.6-7.4 3.9-3 .3-5.7-.6-8-2.5s-3.6-4.4-3.9-7.4c-.3-3 .6-5.7 2.5-8s4.4-3.6 7.4-3.9c3-.3 5.7.6 8 2.5s3.6 4.4 3.9 7.4c.2 3-.6 5.7-2.5 8zm-3.4-13c-1.7-1.4-3.6-2-5.7-1.8-2.1.2-3.9 1.1-5.3 2.8-1.4 1.7-2 3.6-1.8 5.7.2 2.1 1.1 3.9 2.8 5.3 1.7 1.4 3.6 2 5.7 1.8 2.1-.2 3.9-1.1 5.3-2.8 1.4-1.7 2-3.6 1.8-5.7-.2-2.1-1.2-3.9-2.8-5.3zm10-4.5l-6.7.6c-.4 0-.8-.1-1.1-.4-.3-.3-.5-.6-.6-1.1 0-.4.1-.8.4-1.1.3-.3.6-.5 1-.6l6.7-.6c.4 0 .8.1 1.1.4s.5.6.6 1.1-.1.8-.4 1.1c-.3.4-.6.6-1 .6zM1755.4 610.8v.1c.2 3-.8 5.7-2.8 7.9-2 2.3-4.6 3.5-7.6 3.7-3 .2-5.7-.8-7.9-2.8-2.3-2-3.5-4.6-3.7-7.6-.2-3 .8-5.7 2.8-7.9 2-2.3 4.6-3.5 7.6-3.7 3-.2 5.7.8 7.9 2.8l9.4 8.4c.3.3.5.6.5 1.1 0 .4-.1.8-.4 1.1s-.6.5-1.1.5c-.4 0-.8-.1-1.1-.4l-3.6-3.2zm-5.1 6c1.4-1.6 2.1-3.5 2-5.7s-1-4-2.6-5.4c-1.6-1.4-3.5-2.1-5.7-2-2.2.1-4 1-5.4 2.6-1.4 1.6-2.1 3.5-2 5.7.1 2.2 1 4 2.6 5.4 1.6 1.4 3.5 2.1 5.7 2s3.9-1 5.4-2.6zM1758.8 625.9c-1.3 1.4-2 3.1-1.9 5 0 1.9.8 3.6 2.2 4.9 1.4 1.3 3.1 2 5 1.9 1.9 0 3.6-.8 4.9-2.2l7-7.3c.3-.3.7-.5 1.1-.5.4 0 .8.1 1.1.4.3.3.5.7.5 1.1 0 .4-.1.8-.4 1.1l-12.9 13.5c-.3.3-.7.5-1.1.5-.4 0-.8-.1-1.1-.4-.3-.3-.5-.7-.5-1.1 0-.4.1-.8.4-1.1l.9-.9c-2.7 0-5-.9-7-2.8s-3-4.2-3.1-6.9l-7.3 7.7c-.3.3-.7.5-1.1.5-.4 0-.8-.1-1.1-.4-.3-.3-.5-.7-.5-1.1 0-.4.1-.8.4-1.1l19.4-20.2c.3-.3.7-.5 1.1-.5.4 0 .8.1 1.1.4.3.3.5.7.5 1.1 0 .4-.1.8-.4 1.1l-7.2 7.3zM1789.4 655c-2.2 2.1-4.7 3.2-7.8 3.1-3 0-5.6-1.1-7.7-3.3-2.1-2.2-3.2-4.7-3.1-7.8 0-3 1.1-5.6 3.3-7.7 2.2-2.1 4.7-3.2 7.8-3.1 3 0 5.6 1.1 7.7 3.3 2.1 2.2 3.2 4.7 3.1 7.8 0 3-1.1 5.6-3.3 7.7zm-2-13.2c-1.5-1.5-3.4-2.3-5.5-2.3s-4 .7-5.5 2.2-2.3 3.4-2.3 5.5c0 2.2.7 4 2.2 5.5 1.5 1.5 3.3 2.3 5.5 2.3s4-.7 5.5-2.2 2.3-3.3 2.3-5.5-.7-4-2.2-5.5zM1790.5 672.3c-1.9-2.1-2.8-4.5-2.7-7.3.1-2.8 1.2-5.2 3.3-7.1l7.5-6.9c.3-.3.7-.4 1.1-.4.4 0 .8.2 1.1.5.3.3.4.7.4 1.1 0 .4-.2.8-.5 1.1l-7.5 6.9c-1.4 1.3-2.2 2.9-2.3 4.9-.1 1.9.5 3.6 1.9 5.1 1.3 1.4 2.9 2.2 4.9 2.3 1.9.1 3.6-.5 5-1.9l7.5-6.9c.3-.3.7-.4 1.1-.4.4 0 .8.2 1.1.5.3.3.4.7.4 1.1 0 .4-.2.8-.5 1.1l-7.5 6.9c-2.1 1.9-4.5 2.8-7.3 2.7-2.7-.2-5.1-1.3-7-3.3z"/></svg>