<svg xmlns="http://www.w3.org/2000/svg" viewBox="0 0 2453 2453"><title>SS_bottom slogan_D</title><path fill="#03709C" d="M632.3 661.1c0-.4.1-.8.4-1.1.3-.3.6-.5 1.1-.5.3 0 .5 0 .7.1l21.3 10.5-12.9-20c-.1-.2-.2-.4-.2-.7 0-.4.1-.8.4-1.1.3-.3.6-.5 1.1-.5.4 0 .8.1 1.1.4.2.1.3.3.4.5l15.6 24.3c.2.3.3.6.3.9 0 .4-.1.8-.4 1.1-.3.3-.6.5-1.1.5-.3 0-.6 0-.9-.2l-21-10.4 12.7 19.7c.2.3.3.6.3.9 0 .4-.1.8-.4 1.1-.3.3-.6.5-1.1.5-.3 0-.6 0-.9-.2l-25.9-12.8c-.2-.1-.4-.2-.6-.4-.3-.3-.5-.6-.5-1.1 0-.4.1-.8.4-1.1.3-.3.6-.5 1.1-.5.3 0 .5 0 .7.1l21.3 10.5-12.9-20c-.1 0-.1-.2-.1-.5zM654 644.2c.4.4.6.8.6 1.4 0 .5-.2 1-.5 1.4-.4.4-.8.6-1.4.6-.5 0-1-.2-1.4-.5s-.6-.8-.6-1.4c0-.5.2-1 .5-1.4.4-.4.8-.6 1.4-.6.6 0 1 .2 1.4.5zm2.1 6.9c-.3-.3-.5-.7-.5-1.1 0-.4.1-.8.4-1.1.3-.3.7-.5 1.1-.5.4 0 .8.1 1.1.4l13.5 12.9c.3.3.5.7.5 1.1 0 .4-.1.8-.4 1.1-.3.3-.7.5-1.1.5-.4 0-.8-.1-1.1-.4l-13.5-12.9zM661.5 645.2c-.3-.3-.5-.7-.5-1.1 0-.4.1-.8.4-1.1.3-.3.7-.5 1.1-.5.4 0 .8.1 1.1.4l1.2 1.2c0-3.1 1-5.7 3.1-7.9 1.1-1.1 2.2-1.9 3.5-2.4.2-.1.5-.2.7-.2.4 0 .8.2 1.1.5.3.3.5.7.5 1.1 0 .4-.1.8-.4 1.1-.2.2-.4.3-.6.4-.9.4-1.8 1-2.6 1.8-1.5 1.5-2.3 3.4-2.3 5.5 0 2.2.8 4 2.3 5.5l6.7 6.6c.3.3.5.7.5 1.1s-.1.8-.4 1.1c-.3.3-.7.5-1.1.5-.4 0-.8-.1-1.1-.4l-13.2-13.2zM687 622.5v-.1c.1-3 1.3-5.5 3.5-7.6 2.2-2.1 4.8-3 7.8-2.9 3 .1 5.5 1.3 7.6 3.5 2.1 2.2 3 4.8 2.9 7.8-.1 3-1.3 5.5-3.5 7.6-2.2 2.1-4.8 3-7.8 2.9-3-.1-5.5-1.3-7.6-3.5l-12.8-13.7c-.3-.3-.4-.7-.4-1.1 0-.4.2-.8.5-1.1.3-.3.7-.4 1.1-.4.4 0 .8.2 1.1.5l7.6 8.1zm16.2 6c1.6-1.5 2.4-3.3 2.5-5.4.1-2.1-.6-4-2.1-5.6-1.5-1.6-3.3-2.4-5.4-2.5-2.1-.1-4 .6-5.6 2.1-1.6 1.5-2.4 3.3-2.5 5.4-.1 2.1.6 4 2.1 5.6 1.5 1.6 3.3 2.4 5.4 2.5 2.2 0 4-.7 5.6-2.1zM702.2 606.1c-.3-.3-.4-.7-.4-1.1 0-.4.2-.8.5-1.1.3-.3.7-.4 1.1-.4.4 0 .8.2 1.1.5l1.1 1.3c.2-3.1 1.4-5.6 3.7-7.6 1.1-1 2.4-1.7 3.7-2.2.2-.1.5-.1.8-.1.4 0 .8.2 1.1.5.3.3.4.7.4 1.1 0 .4-.2.8-.5 1.1-.2.2-.4.3-.6.3-1 .3-1.8.8-2.7 1.6-1.6 1.4-2.5 3.2-2.6 5.4-.1 2.1.5 4 1.9 5.7l6.2 7c.3.3.4.7.4 1.1 0 .4-.2.8-.5 1.1-.3.3-.7.4-1.1.4-.4 0-.8-.2-1.1-.5l-12.5-14.1zM716.2 585.6c.3.4.5.9.5 1.4 0 .5-.3 1-.7 1.3s-.9.5-1.4.5c-.5 0-1-.3-1.3-.7-.3-.4-.5-.9-.5-1.4 0-.5.3-1 .7-1.3s.9-.5 1.4-.5c.5.1.9.3 1.3.7zm1.4 7.1c-.3-.3-.4-.7-.4-1.1 0-.4.2-.8.5-1.1s.7-.4 1.1-.4c.4 0 .8.2 1.1.5l12.2 14.2c.3.3.4.7.4 1.1 0 .4-.2.8-.5 1.1s-.7.4-1.1.4c-.4 0-.8-.2-1.1-.5l-12.2-14.2zM723.8 587.3c-.3-.3-.4-.7-.3-1.1 0-.4.2-.8.6-1.1.3-.3.7-.4 1.1-.3.4 0 .8.2 1.1.6l.8 1c.3-2.7 1.6-4.9 3.7-6.6 2.2-1.8 4.7-2.5 7.5-2.2 2.8.3 5.1 1.5 6.8 3.7l6.4 7.9c.3.3.4.7.3 1.1 0 .4-.2.8-.6 1.1s-.7.4-1.1.3c-.4 0-.8-.2-1.1-.6l-6.4-7.9c-1.2-1.5-2.8-2.4-4.7-2.6s-3.7.3-5.2 1.5-2.4 2.8-2.6 4.7c-.2 1.9.3 3.7 1.5 5.2l6.4 7.9c.3.3.4.7.3 1.1 0 .4-.2.8-.6 1.1-.3.3-.7.4-1.1.3-.4 0-.8-.2-1.1-.6l-11.7-14.5zM767.6 574.4v.1c-.4 3-1.8 5.4-4.2 7.3-2.4 1.8-5.1 2.6-8.1 2.2-3-.4-5.4-1.8-7.3-4.2-1.8-2.4-2.6-5.1-2.2-8.1.4-3 1.8-5.4 4.2-7.3 2.4-1.8 5.1-2.6 8.1-2.2 3 .4 5.4 1.8 7.3 4.2l6.7 8.8c1.4 1.8 1.9 3.9 1.7 6.3-.4 3.2-2 5.8-4.5 7.8-2.6 2-5.5 2.7-8.7 2.3-1.2-.2-2.3-.5-3.3-.9-.3-.1-.5-.3-.7-.5-.3-.3-.4-.7-.3-1.2.1-.4.3-.8.6-1s.7-.4 1.2-.3c.2 0 .4.1.6.2.7.3 1.5.5 2.4.7 2.4.3 4.5-.2 6.4-1.7 1.9-1.4 3-3.4 3.3-5.7.1-1.6-.3-2.9-1-3.9l-2.2-2.9zm-15.6-7.6c-1.7 1.3-2.7 3.1-3 5.2-.3 2.1.2 4.1 1.5 5.8 1.3 1.7 3.1 2.7 5.2 3 2.1.3 4.1-.2 5.8-1.5s2.7-3.1 3-5.2c.3-2.1-.2-4.1-1.5-5.8-1.3-1.7-3.1-2.7-5.2-3-2.2-.3-4.1.2-5.8 1.5zM785.1 559.4c.4-.2.7-.3 1.2-.3.4.1.8.3 1 .6.2.4.3.7.3 1.2-.6 2.6-2.1 4.7-4.3 6.3-2.5 1.8-5.2 2.4-8.2 1.9-3-.5-5.3-2-7.1-4.4-1.8-2.5-2.4-5.2-1.9-8.2.5-3 2-5.3 4.4-7.1 2.5-1.8 5.2-2.4 8.2-1.9 3 .5 5.3 2 7.1 4.4.2.4.3.7.3 1.2-.1.4-.3.8-.6 1l-13.9 9.9c1.1 1.1 2.5 1.7 4 2 2.1.4 4.1-.1 5.8-1.3 1.6-1.1 2.6-2.6 3-4.4.2-.4.4-.7.7-.9zm-2.8-6.8c-1.1-1.1-2.5-1.7-4-2-2.1-.4-4.1.1-5.8 1.3-1.8 1.3-2.8 2.9-3.2 5.1-.3 1.6-.1 3.1.5 4.5l12.5-8.9zM783.4 542.4c-.2-.4-.3-.7-.2-1.2.1-.4.3-.8.7-1 .4-.2.7-.3 1.2-.2.4.1.8.3 1 .7l.7 1.1c.6-2.6 2-4.7 4.3-6.2s4.9-2 7.6-1.5c2.7.6 4.9 2 6.4 4.3l5.6 8.4c.2.4.3.7.2 1.2-.1.4-.3.8-.7 1-.4.2-.7.3-1.2.2-.4-.1-.8-.3-1-.7l-5.6-8.4c-1.1-1.6-2.5-2.6-4.4-3-1.9-.4-3.6 0-5.3 1-1.6 1.1-2.6 2.5-3 4.4-.4 1.9 0 3.6 1 5.3l5.6 8.4c.2.4.3.7.2 1.2-.1.4-.3.8-.7 1-.4.2-.7.3-1.2.2-.4-.1-.8-.3-1-.7l-10.2-15.5zM825.6 537.2c.2.4.3.8.2 1.2-.1.4-.3.7-.7 1-.4.2-.8.3-1.2.2-.4-.1-.7-.3-1-.7l-14.3-24.2c-.2-.4-.3-.8-.2-1.2.1-.4.3-.7.7-1 .4-.2.8-.3 1.3-.1l29 11.4-12-20.3c-.2-.4-.3-.8-.2-1.2.1-.4.3-.7.7-1 .4-.2.8-.3 1.2-.2.4.1.7.3 1 .7l14.3 24.2c.2.4.3.8.2 1.2-.1.4-.3.7-.7 1-.4.2-.8.3-1.3.2l-29-11.4 12 20.2zM860 513.1c.4-.2.8-.3 1.2-.1.4.1.7.4.9.7.2.4.3.8.1 1.2-.9 2.5-2.6 4.4-5 5.8-2.6 1.5-5.4 1.8-8.3.9-2.9-.8-5.1-2.6-6.5-5.2-1.5-2.6-1.8-5.4-.9-8.3.8-2.9 2.6-5.1 5.2-6.5 2.6-1.5 5.4-1.8 8.3-.9 2.9.8 5.1 2.6 6.5 5.2.2.4.3.8.1 1.2s-.4.7-.7.9l-14.9 8.2c1 1.2 2.2 2 3.8 2.4 2.1.6 4.1.4 5.9-.7 1.7-.9 2.9-2.3 3.5-4.1.2-.3.5-.5.8-.7zm-2.1-7.1c-1-1.2-2.2-2-3.8-2.4-2.1-.6-4.1-.4-5.9.7-1.9 1-3.1 2.6-3.7 4.7-.4 1.6-.4 3.1 0 4.5l13.4-7.5zM886.8 503.4c.2.4.2.8.1 1.2-.1.4-.4.7-.8.9-.4.2-.8.2-1.2.1-.4-.1-.7-.4-.9-.8l-.6-1.1c-.9 2.6-2.5 4.5-5 5.7-2.5 1.3-5.1 1.5-7.7.6-2.7-.9-4.6-2.5-5.9-5l-4.6-9c-.2-.4-.2-.8-.1-1.2.1-.4.4-.7.8-.9.4-.2.8-.2 1.2-.1.4.1.7.4.9.8l4.6 9c.9 1.7 2.2 2.9 4.1 3.5 1.8.6 3.6.5 5.4-.4 1.7-.9 2.9-2.2 3.5-4.1.6-1.8.5-3.6-.4-5.4l-4.6-9c-.2-.4-.2-.8-.1-1.2.1-.4.4-.7.8-.9.4-.2.8-.2 1.2-.1.4.1.7.4.9.8l8.4 16.6zM883.1 477.4c.2.5.3 1 .1 1.5-.2.5-.5.9-1 1.1-.5.2-1 .3-1.5.1s-.9-.5-1.1-1c-.2-.5-.3-1-.1-1.5s.5-.9 1-1.1c.5-.2 1-.3 1.5-.1.5.1.8.5 1.1 1zm-.4 7.1c-.2-.4-.2-.8-.1-1.2.1-.4.4-.7.8-.9.4-.2.8-.2 1.2-.1.4.1.7.4.9.8l8.2 16.9c.2.4.2.8.1 1.2-.1.4-.4.7-.8.9-.4.2-.8.2-1.2.1-.4-.1-.7-.4-.9-.8l-8.2-16.9zM914.2 488.6v.1c-1 2.8-2.9 4.9-5.7 6.2s-5.5 1.4-8.4.3c-2.8-1-4.9-2.9-6.2-5.7-1.3-2.7-1.4-5.5-.3-8.4 1-2.8 2.9-4.9 5.7-6.2 2.7-1.3 5.5-1.4 8.4-.3 2.8 1 4.9 2.9 6.2 5.7l4.6 10c1 2.1 1 4.2.3 6.4-1.1 3-3.2 5.3-6.1 6.6s-5.9 1.5-9 .4c-1.1-.4-2.1-.9-3-1.6-.2-.1-.4-.4-.6-.6-.2-.4-.2-.8 0-1.2.1-.4.4-.7.8-.9.4-.2.8-.2 1.2-.1.2.1.3.2.5.3.7.5 1.4.9 2.2 1.2 2.2.8 4.4.7 6.6-.3 2.2-1 3.6-2.6 4.5-4.8.4-1.6.4-2.9-.1-4.1l-1.6-3zm-13.7-10.8c-2 .9-3.3 2.4-4.1 4.4-.7 2-.7 4 .2 6 .9 2 2.4 3.3 4.4 4.1 2 .7 4 .7 6-.2 2-.9 3.3-2.4 4.1-4.4.7-2 .7-4-.2-6-.9-2-2.4-3.3-4.4-4.1-2-.8-4-.7-6 .2zM918.8 475.9l8.8-13.1c.2-.2.4-.4.7-.5.4-.2.8-.2 1.2 0 .4.2.7.4.9.8s.2.8 0 1.2c0 .1-.1.2-.1.3l-6.1 9 12.6 6c.4.2.7.5.8.8.2.4.2.8 0 1.2-.2.4-.4.7-.8.9-.4.2-.8.2-1.2 0l-13.2-6.3-2.2 3.2 3 7.1c.2.4.2.8 0 1.2-.2.4-.4.7-.8.9-.4.2-.8.2-1.2 0-.4-.2-.7-.4-.9-.8l-10.9-25.9c-.2-.4-.2-.8 0-1.2.2-.4.4-.7.8-.9s.8-.2 1.2 0c.4.2.7.4.9.8l6.5 15.3zM953.7 470.1c.4-.2.8-.1 1.2 0 .4.2.7.5.8.9.2.4.2.8 0 1.2-1.2 2.4-3.1 4-5.7 5-2.8 1.1-5.6 1-8.4-.2-2.8-1.2-4.7-3.2-5.8-6.1-1.1-2.8-1-5.6.2-8.4 1.2-2.8 3.2-4.7 6.1-5.8s5.6-1 8.4.2c2.8 1.2 4.7 3.2 5.8 6.1.2.4.1.8 0 1.2-.2.4-.5.7-.9.8l-15.9 6.2c.8 1.3 2 2.3 3.4 2.9 2 .9 4 .9 6 .1 1.8-.7 3.2-1.9 4-3.6.2-.1.5-.3.8-.5zm-1-7.3c-.8-1.3-2-2.3-3.4-2.9-2-.9-4-.9-6-.1s-3.5 2.2-4.3 4.1c-.7 1.5-.8 3-.6 4.5l14.3-5.6zM958.8 445.7c.2.5.2 1-.1 1.5-.2.5-.6.8-1.1 1s-1 .2-1.5-.1c-.5-.2-.8-.6-1-1.1-.2-.5-.2-1 .1-1.5.2-.5.6-.8 1.1-1s1-.2 1.5.1c.5.2.8.6 1 1.1zm-1.2 7c-.1-.4-.1-.8.1-1.2.2-.4.5-.7.9-.8.4-.1.8-.1 1.2.1.4.2.7.5.8.9l6.4 17.6c.1.4.1.8-.1 1.2-.2.4-.5.7-.9.8-.4.1-.8.1-1.2-.1-.4-.2-.7-.5-.8-.9l-6.4-17.6zM981.1 462.7c.4-.1.8-.1 1.2.1s.7.5.8.9c.1.4.1.8-.1 1.2s-.5.7-.9.8c-4.9 1.7-8.2.1-9.9-4.8l-3.6-10.3-1.5.5c-.4.1-.8.1-1.2-.1-.4-.2-.7-.5-.8-.9s-.1-.8.1-1.2c.2-.4.5-.7.9-.8l1.5-.5-2.5-7.4c-.1-.4-.1-.8.1-1.2.2-.4.5-.7.9-.8s.8-.1 1.2.1c.4.2.7.5.8.9l2.5 7.4 3-1c.4-.1.8-.1 1.2.1.4.2.7.5.8.9.1.4.1.8-.1 1.2-.2.4-.5.7-.9.8l-3 1 3.6 10.3c.9 2.8 2.9 3.8 5.9 2.8zM999.8 454.3c.4-.1.8-.1 1.2.1s.6.5.8.9c.1.4.1.8-.1 1.2-1.4 2.3-3.4 3.8-6 4.7-2.9.9-5.7.7-8.3-.7-2.7-1.4-4.5-3.5-5.4-6.4-.9-2.9-.7-5.7.7-8.3s3.5-4.5 6.4-5.4c2.9-.9 5.7-.7 8.3.7 2.7 1.4 4.5 3.5 5.4 6.4.1.4.1.8-.1 1.2-.2.4-.5.6-.9.8l-16.3 5.1c.7 1.3 1.8 2.4 3.2 3.1 1.9 1 3.9 1.2 6 .5 1.9-.6 3.3-1.7 4.2-3.3.3-.3.6-.5.9-.6zm-.6-7.3c-.7-1.3-1.8-2.4-3.2-3.1-1.9-1-3.9-1.2-6-.5s-3.6 1.9-4.6 3.8c-.7 1.4-1 2.9-.9 4.4l14.7-4.6zM1003.4 437.5c-.1-.4-.1-.8.1-1.2.2-.4.5-.6.9-.7.4-.1.8-.1 1.2.1.4.2.6.5.7.9l.3 1.2c1.4-2.3 3.4-3.9 6-4.6 2.7-.8 5.3-.5 7.7.9 2.5 1.4 4.1 3.4 4.8 6.1l2.8 9.8c.1.4.1.8-.1 1.2-.2.4-.5.6-.9.7-.4.1-.8.1-1.2-.1-.4-.2-.6-.5-.7-.9l-2.8-9.8c-.5-1.9-1.6-3.3-3.3-4.2-1.7-1-3.5-1.2-5.3-.6-1.9.5-3.3 1.6-4.2 3.3-.9 1.7-1.2 3.5-.6 5.3l2.8 9.8c.1.4.1.8-.1 1.2s-.5.6-.9.7c-.4.1-.8.1-1.2-.1s-.6-.5-.7-.9l-5.3-18.1zM1059.9 440.4c-1.6 2.6-3.9 4.3-6.8 5s-5.7.3-8.2-1.3c-2.6-1.6-4.2-3.8-4.9-6.8s-.3-5.7 1.3-8.2c1.6-2.6 3.8-4.2 6.8-4.9s5.7-.3 8.2 1.3c2.6 1.6 4.2 3.8 4.9 6.8l2.2 9.1c.1.4 0 .8-.2 1.2-.2.4-.5.6-1 .7s-.8 0-1.2-.2c-.4-.2-.6-.5-.7-1l-.4-1.7zm-11.1-13.2c-2.1.5-3.7 1.7-4.8 3.5-1.1 1.8-1.4 3.8-.9 5.9.5 2.1 1.7 3.7 3.5 4.8 1.8 1.1 3.8 1.4 5.9.9 2.1-.5 3.7-1.7 4.8-3.5 1.1-1.8 1.4-3.8.9-5.9-.5-2.1-1.7-3.7-3.5-4.8-1.9-1-3.8-1.4-5.9-.9zM1086.2 436.9c.1.4 0 .8-.2 1.2-.2.4-.6.6-1 .7-.4.1-.8 0-1.2-.2-.4-.2-.6-.6-.7-1l-.2-1.2c-1.5 2.2-3.7 3.6-6.3 4.2-2.7.5-5.3 0-7.6-1.5-2.3-1.6-3.8-3.7-4.3-6.5l-2-10c-.1-.4 0-.8.2-1.2.2-.4.6-.6 1-.7.4-.1.8 0 1.2.2.4.2.6.6.7 1l2 10c.4 1.9 1.4 3.4 3 4.5s3.4 1.4 5.3 1c1.9-.4 3.4-1.4 4.5-3s1.4-3.4 1-5.3l-2-10c-.1-.4 0-.8.2-1.2.2-.4.6-.6 1-.7.4-.1.8 0 1.2.2.4.2.6.6.7 1l3.5 18.5zM1091.4 426.5c-1.2-.2-2.1-.6-2.7-1-1.1-.7-1.7-1.8-1.9-3-.2-1.3.1-2.5.9-3.6 1.5-2.2 3.8-3.6 6.8-4.1 3.2-.5 6.2.3 8.9 2.5.2.2.4.5.4.9.1.4 0 .8-.3 1.2-.3.4-.6.6-1 .6s-.8 0-1.1-.2c-.3-.2-.5-.4-.7-.5-1.8-1.2-3.7-1.7-5.8-1.3-2.1.4-3.7 1.3-4.8 2.9-.2.4-.3.9-.2 1.4.1.6.5 1 1.2 1.1l10 1.5c1.2.2 2.1.6 2.7 1 1.1.7 1.7 1.8 1.9 3 .2 1.3-.1 2.5-.9 3.6-1.5 2.2-3.8 3.6-6.8 4.1-3.2.5-6.2-.3-8.9-2.5-.2-.2-.4-.5-.4-.9-.1-.4 0-.8.3-1.2.2-.4.6-.6 1-.6.4-.1.8 0 1.1.2.3.2.5.4.7.5 1.8 1.2 3.7 1.7 5.8 1.3 2.1-.4 3.7-1.3 4.8-2.9.2-.4.3-.9.2-1.4-.1-.6-.5-1-1.2-1.1l-10-1.5zM1136 401c-.1-.4.1-.8.3-1.2.3-.3.6-.5 1-.6.4-.1.8.1 1.2.3.3.3.5.6.6 1l2.3 18.6c.4 3-.4 5.7-2.2 8.1-1.9 2.4-4.3 3.8-7.3 4.1-3 .4-5.7-.4-8.1-2.2-2.4-1.9-3.8-4.3-4.1-7.3-.4-3 .4-5.7 2.2-8.1 1.9-2.4 4.3-3.8 7.3-4.1 3-.4 5.7.4 8.1 2.2 0 0 .1 0 .1.1L1136 401zm2.4 18.7c-.3-2.1-1.2-3.9-2.9-5.2s-3.6-1.9-5.8-1.6c-2.1.3-3.9 1.2-5.2 2.9s-1.9 3.6-1.6 5.8c.3 2.1 1.2 3.9 2.9 5.2s3.6 1.9 5.8 1.6c2.1-.3 3.9-1.2 5.2-2.9s1.8-3.7 1.6-5.8zM1162.1 423c.4 0 .8.1 1.1.4.3.3.5.6.6 1.1 0 .4-.1.8-.3 1.2-1.9 1.9-4.1 3-6.9 3.3-3 .3-5.7-.6-8-2.5s-3.6-4.4-3.9-7.4.6-5.7 2.5-8 4.4-3.6 7.4-3.9c3-.3 5.7.6 8 2.5s3.6 4.4 3.9 7.4c0 .4-.1.8-.4 1.1-.3.3-.6.5-1.1.6l-17 1.6c.4 1.5 1.3 2.7 2.5 3.8 1.7 1.4 3.6 2 5.7 1.8 1.9-.2 3.6-.9 4.8-2.3.4-.5.7-.7 1.1-.7zm1-7.3c-.4-1.5-1.3-2.7-2.5-3.8-1.7-1.4-3.6-2-5.7-1.8-2.2.2-3.9 1.1-5.3 2.8-1 1.2-1.6 2.6-1.8 4.1l15.3-1.3zM1173.4 425.8c0 .4-.1.8-.4 1.1-.3.3-.7.5-1.1.5-.4 0-.8-.1-1.1-.4-.3-.3-.5-.7-.5-1.1l-.9-18.8c0-.4.1-.8.4-1.1s.7-.5 1.1-.5c.4 0 .8.1 1.1.4.3.3.5.7.5 1.1v.4c1.5-1.4 3.3-2.1 5.4-2.2 2.4-.1 4.4.6 6.2 2.2.4.3.7.7 1 1.1l.9-1.2c1.6-1.8 3.6-2.7 5.9-2.8s4.4.6 6.2 2.2c1.8 1.6 2.7 3.6 2.8 5.9l.6 11.7c0 .4-.1.8-.4 1.1-.3.3-.7.5-1.1.5-.4 0-.8-.1-1.1-.4-.3-.3-.5-.7-.5-1.1l-.6-11.7c-.1-1.5-.7-2.8-1.8-3.8s-2.4-1.5-3.9-1.4-2.8.7-3.8 1.8-1.5 2.4-1.4 3.9l.6 11.7c0 .4-.1.8-.4 1.1-.3.3-.7.5-1.1.5-.4 0-.8-.1-1.1-.4-.3-.3-.5-.7-.5-1.1l-.6-11.7c-.1-1.5-.7-2.8-1.8-3.8s-2.4-1.5-3.9-1.4-2.8.7-3.8 1.8-1.5 2.4-1.4 3.9l.5 12zM1215.4 396.1c0-.4.1-.8.4-1.1.3-.3.7-.5 1.1-.5.4 0 .8.1 1.1.4.3.3.5.7.5 1.1l.4 18.8c0 2.2.8 4 2.4 5.5 1.6 1.5 3.4 2.2 5.6 2.2s4-.8 5.5-2.4c1.5-1.6 2.2-3.4 2.2-5.6l-.4-18.8c0-.4.1-.8.4-1.1.3-.3.7-.5 1.1-.5s.8.1 1.1.4c.3.3.5.7.5 1.1l.4 18.8c.1 3-1 5.6-3 7.8-2.1 2.2-4.6 3.3-7.7 3.4s-5.6-1-7.8-3c-2.2-2.1-3.3-4.6-3.4-7.7l-.4-18.8zM1241.4 405.4c0-.4.2-.8.5-1.1.3-.3.7-.4 1.1-.4.4 0 .8.2 1.1.5.3.3.4.7.4 1.1v1.3c2-1.8 4.4-2.7 7.1-2.6 2.8.1 5.2 1.2 7.1 3.2 1.9 2 2.8 4.5 2.8 7.3l-.3 10.2c0 .4-.2.8-.5 1.1-.3.3-.7.4-1.1.4-.4 0-.8-.2-1.1-.5-.3-.3-.4-.7-.4-1.1l.3-10.2c.1-1.9-.6-3.6-1.9-5-1.3-1.4-3-2.2-4.9-2.2s-3.6.6-5 1.9c-1.4 1.3-2.2 3-2.2 4.9l-.3 10.2c0 .4-.2.8-.5 1.1-.3.3-.7.4-1.1.4-.4 0-.8-.2-1.1-.5-.3-.3-.4-.7-.4-1.1l.4-18.9zM1266.6 406.3c0-.4.2-.8.5-1.1.3-.3.7-.4 1.1-.4.4 0 .8.2 1.1.5s.4.7.4 1.1l-1 18.7c0 .4-.2.8-.5 1.1-.3.3-.7.4-1.1.4-.4 0-.8-.2-1.1-.5-.3-.3-.4-.7-.4-1.1l1-18.7zm3.9-6.1c0 .5-.2 1-.6 1.3-.4.4-.9.5-1.4.5-.5 0-1-.2-1.3-.6-.4-.4-.5-.9-.5-1.4s.2-1 .6-1.3c.4-.4.9-.5 1.4-.5s1 .2 1.3.6c.3.4.5.9.5 1.4zM1284.5 427.3c-.3.3-.7.4-1.1.3-.5 0-.8-.2-1.1-.5-.1-.1-.2-.2-.2-.4l-7.3-19.5c-.1-.2-.1-.4-.1-.6 0-.4.2-.8.5-1.1.3-.3.7-.4 1.1-.4.4 0 .8.2 1.1.5.1.1.2.3.3.4l6 16.2 8.3-15.1c.1-.2.2-.3.3-.4.3-.3.7-.4 1.1-.4s.8.2 1.1.5c.3.3.4.7.4 1.1 0 .2-.1.4-.2.6l-10 18.2c0 .4-.1.5-.2.6zM1313.8 425.1c.4 0 .8.2 1.1.6.3.3.4.7.3 1.1s-.2.8-.6 1.1c-2.2 1.5-4.6 2.2-7.4 1.9-3-.3-5.5-1.6-7.4-4-1.9-2.3-2.7-5-2.4-8 .3-3 1.6-5.5 4-7.4 2.3-1.9 5-2.7 8-2.4s5.5 1.6 7.4 4c1.9 2.3 2.7 5 2.4 8 0 .4-.2.8-.6 1-.3.3-.7.4-1.1.3l-17-1.8c.1 1.5.7 2.9 1.7 4.2 1.4 1.7 3.1 2.6 5.3 2.8 1.9.2 3.7-.2 5.2-1.3.4-.1.8-.2 1.1-.1zm2.4-7c-.1-1.5-.7-2.9-1.7-4.2-1.4-1.7-3.1-2.6-5.3-2.8-2.2-.2-4.1.3-5.7 1.7-1.3 1-2.1 2.3-2.5 3.7l15.2 1.6zM1323.7 411.1c.1-.4.3-.8.6-1 .3-.3.7-.4 1.2-.3.4.1.8.3 1 .6.3.3.4.7.3 1.2l-.2 1.7c2.5-1.9 5.2-2.6 8.2-2.2 1.5.2 2.9.6 4.1 1.3.2.1.4.3.6.5.3.3.4.7.3 1.2-.1.4-.3.8-.6 1-.3.3-.7.4-1.2.3-.2 0-.5-.1-.7-.2-.9-.5-1.8-.8-2.9-1-2.1-.3-4.1.2-5.8 1.5-1.7 1.3-2.7 3-3 5.2l-1.2 9.3c-.1.4-.3.8-.6 1-.3.3-.7.4-1.2.3-.4-.1-.8-.3-1-.6-.3-.3-.4-.7-.3-1.2l2.4-18.6zM1345 423.5c-1.1-.6-1.8-1.2-2.2-1.8-.8-1.1-1.1-2.2-.8-3.5.2-1.3.9-2.3 2-3.1 2.2-1.6 4.7-2.2 7.7-1.7 3.2.5 5.8 2.3 7.7 5.2.2.3.2.6.1 1s-.3.8-.6 1c-.4.3-.7.3-1.2.3-.4-.1-.7-.3-1-.6-.2-.3-.4-.5-.5-.7-1.3-1.8-3-2.8-5.1-3.1-2.1-.3-4 0-5.4 1.2-.4.3-.6.7-.7 1.3-.1.6.2 1.1.7 1.4l9 4.7c1.1.6 1.8 1.2 2.2 1.8.8 1.1 1.1 2.2.8 3.5-.2 1.3-.9 2.3-2 3.1-2.2 1.6-4.7 2.2-7.7 1.7-3.2-.5-5.8-2.3-7.7-5.2-.1-.3-.2-.6-.1-1s.3-.8.6-1 .7-.3 1.2-.3.7.3 1 .6c.2.3.4.5.5.7 1.3 1.8 3 2.8 5.1 3.1 2.1.3 4 0 5.4-1.2.4-.3.6-.7.7-1.3.1-.6-.2-1.1-.7-1.4l-9-4.7zM1380 439.2c-.1.4-.3.8-.7 1-.4.2-.7.3-1.2.2-.4-.1-.8-.3-1-.7-.2-.4-.3-.7-.2-1.2l.2-1.2c-2.3 1.5-4.7 2-7.4 1.5-2.8-.5-4.9-1.9-6.5-4.3-1.6-2.3-2.1-4.9-1.6-7.6l1.9-10c.1-.4.3-.8.7-1 .4-.2.7-.3 1.2-.2.4.1.8.3 1 .7.2.4.3.7.2 1.2l-1.9 10c-.4 1.9 0 3.7 1.1 5.3 1.1 1.6 2.6 2.6 4.5 2.9 1.9.4 3.7 0 5.3-1.1 1.6-1.1 2.6-2.6 2.9-4.5l1.9-10c.1-.4.3-.8.7-1 .4-.2.7-.3 1.2-.2.4.1.8.3 1 .7.2.4.3.7.2 1.2l-3.5 18.3zM1385.9 440.3c-.1.4-.3.7-.7 1-.4.2-.8.3-1.2.2-.4-.1-.7-.3-1-.7-.2-.4-.3-.8-.2-1.2l4.2-18.3c.1-.4.3-.7.7-1 .4-.2.8-.3 1.2-.2.4.1.7.3 1 .7s.3.8.2 1.2l-.1.4c1.8-.9 3.7-1.2 5.8-.7 2.3.5 4.1 1.8 5.4 3.8.3.4.5.9.7 1.3l1.2-.9c2-1.3 4.2-1.6 6.5-1.1s4.1 1.8 5.4 3.8c1.3 2 1.6 4.2 1.1 6.5l-2.6 11.4c-.1.4-.3.7-.7 1s-.8.3-1.2.2c-.4-.1-.7-.3-1-.7-.2-.4-.3-.8-.2-1.2l2.6-11.4c.3-1.5.1-2.8-.7-4.1-.8-1.3-1.9-2.1-3.4-2.4-1.5-.3-2.8-.1-4.1.7-1.3.8-2.1 1.9-2.4 3.4l-2.6 11.4c-.1.4-.3.7-.7 1s-.8.3-1.2.2c-.4-.1-.7-.3-1-.7s-.3-.8-.2-1.2l2.6-11.4c.3-1.5.1-2.8-.7-4.1s-1.9-2.1-3.4-2.4c-1.5-.3-2.8-.1-4.1.7-1.3.8-2.1 1.9-2.4 3.4l-2.8 11.4zM1444.3 453.5c.4.1.7.4.9.7.2.4.3.8.1 1.2-.1.4-.4.7-.7.9-.4.2-.8.3-1.2.1l-15-4.2c-.4-.1-.7-.4-.9-.7-.2-.4-.3-.8-.1-1.2.1-.4.3-.6.6-.8l17.4-11.9-11.8-3.3c-.4-.1-.7-.4-.9-.7-.2-.4-.3-.8-.1-1.2.1-.4.4-.7.7-.9.4-.2.8-.3 1.2-.1l15 4.2c.4.1.7.4.9.7s.3.8.1 1.2c-.1.4-.3.7-.6.9l-17.3 11.9 11.7 3.2zM1467.6 462.3c-.1.4-.4.7-.8.9-.4.2-.8.2-1.2.1s-.7-.4-.9-.8c-.2-.4-.2-.8-.1-1.2l.4-1.2c-2.4 1.2-4.9 1.4-7.6.6-2.7-.8-4.7-2.5-6-5-1.3-2.5-1.5-5.1-.7-7.7l3-9.7c.1-.4.4-.7.8-.9.4-.2.8-.2 1.2-.1s.7.4.9.8c.2.4.2.8.1 1.2l-3 9.7c-.6 1.9-.4 3.6.5 5.4.9 1.7 2.3 2.9 4.1 3.5s3.6.4 5.4-.5c1.7-.9 2.9-2.3 3.5-4.1l3-9.7c.1-.4.4-.7.8-.9.4-.2.8-.2 1.2-.1s.7.4.9.8c.2.4.2.8.1 1.2l-5.6 17.7zM1508.7 447c.1-.4.4-.7.8-.9.4-.2.8-.2 1.2-.1.4.1.7.4.9.8.2.4.2.8.1 1.2l-6.5 17.6c-1 2.8-2.9 4.9-5.7 6.2-2.7 1.3-5.5 1.4-8.4.3s-4.9-2.9-6.2-5.7c-1.3-2.7-1.4-5.5-.3-8.4 1-2.8 2.9-4.9 5.7-6.2 2.7-1.3 5.5-1.4 8.4-.3s4.9 2.9 6.2 5.7v.1l3.8-10.3zm-6.4 17.7c.7-2 .7-4-.2-6-.9-2-2.4-3.3-4.4-4s-4-.7-6 .2c-2 .9-3.3 2.4-4 4.4-.7 2-.7 4 .2 6 .9 2 2.4 3.3 4.4 4s4 .7 6-.2c1.9-.9 3.2-2.4 4-4.4zM1521.8 478.5c.4.2.7.4.9.8.2.4.2.8 0 1.2s-.4.7-.8.9c-2.5.9-5.1.8-7.6-.2-2.8-1.1-4.8-3.1-6-5.9-1.2-2.8-1.2-5.6-.1-8.4 1.1-2.8 3.1-4.8 5.9-6 2.8-1.2 5.6-1.2 8.4-.1 2.8 1.1 4.8 3.1 6 5.9 1.2 2.8 1.2 5.6.1 8.4-.2.4-.4.7-.8.9-.4.2-.8.2-1.2 0l-15.8-6.4c-.3 1.5-.1 3 .5 4.5.8 2 2.3 3.4 4.3 4.2 1.8.7 3.6.8 5.4.2.2-.2.5-.2.8 0zm4.3-6.1c.3-1.5.1-3-.5-4.5-.8-2-2.3-3.4-4.3-4.2s-4-.8-6 0c-1.5.6-2.7 1.6-3.5 2.9l14.3 5.8zM1535.3 467.8c.2-.4.5-.7.9-.8.4-.2.8-.1 1.2 0 .4.2.7.5.8.9s.1.8 0 1.2l-.5 1.2c2.5-.9 5.1-.9 7.6.2 2.6 1.1 4.3 3 5.4 5.6s1 5.2-.2 7.8l-4.1 9.3c-.2.4-.5.7-.9.8-.4.2-.8.1-1.2 0-.4-.2-.7-.5-.8-.9-.2-.4-.1-.8 0-1.2l4.1-9.3c.8-1.8.8-3.6.1-5.4-.7-1.8-1.9-3.1-3.7-3.9s-3.6-.8-5.4-.1c-1.8.7-3.1 1.9-3.9 3.7l-4.1 9.3c-.2.4-.5.7-.9.8-.4.2-.8.1-1.2 0-.4-.2-.7-.5-.8-.9-.2-.4-.1-.8 0-1.2l7.6-17.1zM1572 474.2c.2-.4.5-.6.9-.8.4-.1.8-.1 1.2.1s.6.5.8.9c.1.4.1.8-.1 1.2l-6 12 19.4-6.5c.4-.1.9-.1 1.2.1.4.2.6.5.8.9.1.4.1.8-.1 1.2s-.5.7-.9.8l-14.7 4.9 3.3 18.5c.1.3 0 .6-.1.9-.2.5-.6.8-1.1.9-.3.1-.7 0-.9-.1-.5-.3-.8-.6-.9-1.2l-3.2-18-4.7 1.6-4.6 9.2c-.2.4-.5.6-.9.8-.4.1-.8.1-1.2-.1s-.6-.5-.8-.9c-.1-.4-.1-.8.1-1.2l12.5-25.2zM1590.4 493.9c.2-.4.5-.6.9-.8.4-.1.8-.1 1.2.1s.6.5.8.9c.1.4.1.8-.1 1.2l-8.7 16.6c-.2.4-.5.6-.9.8-.4.1-.8.1-1.2-.1s-.6-.5-.8-.9c-.1-.4-.1-.8.1-1.2l8.7-16.6zm6-3.9c-.2.5-.6.8-1.1 1-.5.2-1 .1-1.5-.1s-.8-.6-1-1.1c-.2-.5-.1-1 .1-1.5s.6-.8 1.1-1c.5-.2 1-.1 1.5.1s.8.6 1 1.1c.2.6.2 1.1-.1 1.5zM1597.6 497.7c.2-.4.5-.6.9-.7s.8-.1 1.2.1c.4.2.6.5.7.9.1.4.1.8-.1 1.2l-.6 1.1c2.6-.7 5.1-.4 7.5.9 2.5 1.4 4.1 3.4 4.8 6.1.8 2.7.5 5.3-.9 7.7l-4.9 8.9c-.2.4-.5.6-.9.7-.4.1-.8.1-1.2-.1-.4-.2-.6-.5-.7-.9-.1-.4-.1-.8.1-1.2l4.9-8.9c.9-1.7 1.1-3.5.6-5.3-.5-1.9-1.7-3.3-3.4-4.2s-3.5-1.1-5.3-.6c-1.9.5-3.3 1.7-4.2 3.4l-4.9 8.9c-.2.4-.5.6-.9.7-.4.1-.8.1-1.2-.1-.4-.2-.6-.5-.7-.9-.1-.4-.1-.8.1-1.2l9.1-16.5zM1639.4 510.7c.2-.4.5-.6 1-.7.4-.1.8-.1 1.2.2.4.2.6.5.7 1s.1.8-.2 1.2l-9.6 16.2c-1.5 2.6-3.8 4.3-6.7 5-2.9.7-5.7.4-8.3-1.2-2.6-1.5-4.3-3.8-5-6.7-.7-2.9-.4-5.7 1.2-8.3 1.5-2.6 3.8-4.3 6.7-5 2.9-.7 5.7-.4 8.3 1.2 2.6 1.5 4.3 3.8 5 6.7v.1l5.7-9.7zm-9.6 16.1c1.1-1.9 1.4-3.8.9-5.9-.5-2.1-1.7-3.7-3.6-4.8s-3.8-1.4-5.9-.9c-2.1.5-3.7 1.7-4.8 3.6-1.1 1.9-1.4 3.8-.9 5.9.5 2.1 1.7 3.7 3.6 4.8 1.9 1.1 3.8 1.4 5.9.9s3.7-1.7 4.8-3.6zM1646.5 544.1c.4.2.6.6.7 1 .1.4 0 .8-.2 1.2-.2.4-.6.6-1 .7-2.6.4-5.1-.2-7.4-1.6-2.5-1.6-4.1-3.9-4.8-6.9-.6-2.9-.1-5.7 1.5-8.2 1.6-2.5 3.9-4.1 6.9-4.8 2.9-.6 5.7-.1 8.2 1.5 2.5 1.6 4.1 3.9 4.8 6.9.6 2.9.1 5.7-1.5 8.2-.2.4-.6.6-1 .7-.4.1-.8 0-1.2-.2l-14.3-9.2c-.6 1.4-.7 2.9-.3 4.5.5 2.1 1.6 3.7 3.4 4.9 1.6 1.1 3.4 1.4 5.2 1.2.4-.2.7-.1 1 .1zm5.3-5.2c.6-1.4.7-2.9.3-4.5-.5-2.1-1.6-3.7-3.4-4.9-1.8-1.2-3.8-1.5-5.9-1.1-1.6.3-2.9 1.1-3.9 2.2l12.9 8.3zM1661.7 535.9c.2-.4.6-.6 1-.7.4-.1.8 0 1.2.2s.6.6.7 1c.1.4 0 .8-.2 1.2l-1 1.4c3-.6 5.8 0 8.3 1.7 1.3.9 2.3 1.9 3 3 .1.2.2.4.3.7.1.4 0 .8-.3 1.2-.2.4-.6.6-1 .7-.4.1-.8 0-1.2-.2-.2-.1-.4-.3-.5-.5-.5-.8-1.3-1.6-2.2-2.2-1.8-1.2-3.7-1.6-5.9-1.2-2.1.4-3.8 1.5-5 3.3l-5.3 7.8c-.2.4-.6.6-1 .7-.4.1-.8 0-1.2-.2s-.6-.6-.7-1c-.1-.4 0-.8.2-1.2l10.8-15.7zM1677.5 546.7c.2-.3.6-.6 1-.6.4-.1.8 0 1.2.3.3.2.6.6.6 1 .1.4 0 .8-.3 1.2l-.7 1c2.7-.4 5.1.2 7.4 1.8 2.3 1.6 3.6 3.8 4.1 6.6s-.1 5.3-1.8 7.6l-5.9 8.2c-.2.3-.6.6-1 .6-.4.1-.8 0-1.2-.3-.3-.2-.6-.6-.6-1-.1-.4 0-.8.3-1.2l5.9-8.2c1.1-1.6 1.5-3.3 1.2-5.2-.3-1.9-1.3-3.4-2.8-4.6-1.6-1.1-3.3-1.5-5.2-1.2-1.9.3-3.4 1.3-4.6 2.8l-5.9 8.2c-.2.3-.6.6-1 .6-.4.1-.8 0-1.2-.3-.3-.3-.6-.6-.6-1s0-.8.3-1.2l10.8-15.1zM1726.8 572.2c.3-.3.6-.5 1-.6.4 0 .8.1 1.1.3.3.3.5.6.6 1 0 .4-.1.8-.3 1.1l-11.6 14.7c-1.9 2.4-4.3 3.7-7.3 4-3 .3-5.7-.4-8-2.3-2.4-1.9-3.7-4.3-4-7.3-.3-3 .4-5.7 2.3-8 1.9-2.4 4.3-3.7 7.3-4 3-.3 5.7.4 8 2.3 2.4 1.9 3.7 4.3 4 7.3v.1l6.9-8.6zm-11.7 14.6c1.3-1.7 1.9-3.6 1.6-5.7-.2-2.1-1.2-3.9-2.9-5.2-1.7-1.3-3.6-1.9-5.7-1.6-2.1.2-3.9 1.2-5.2 2.9s-1.9 3.6-1.6 5.7c.2 2.1 1.2 3.9 2.9 5.2 1.7 1.3 3.6 1.9 5.7 1.6 2.1-.2 3.9-1.2 5.2-2.9zM1729.4 606.1c.3.3.5.6.5 1.1 0 .4-.1.8-.4 1.1-.3.3-.6.5-1.1.6-2.7 0-5.1-.9-7.1-2.6-2.3-2-3.6-4.5-3.8-7.5-.2-3 .6-5.7 2.6-8s4.5-3.6 7.5-3.8 5.7.6 8 2.6 3.6 4.5 3.8 7.5-.6 5.7-2.6 8c-.3.3-.6.5-1.1.5-.4 0-.8-.1-1.1-.4l-13-11.1c-.8 1.3-1.1 2.8-.9 4.4.2 2.1 1.1 3.9 2.7 5.3 1.5 1.3 3.2 1.9 5 1.9.4.1.8.2 1 .4zm6-4.3c.8-1.3 1.1-2.8.9-4.4-.2-2.1-1.1-3.9-2.7-5.3s-3.5-2-5.7-1.9c-1.6.1-3 .7-4.2 1.6l11.7 10zM1745.5 600.1c.3-.3.6-.5 1.1-.5.4 0 .8.1 1.1.4.3.3.5.6.5 1.1s-.1.8-.4 1.1l-1.1 1.3c3.1-.2 5.8.7 8 2.8 1.1 1 2 2.1 2.6 3.4.1.2.2.5.2.7 0 .4-.1.8-.4 1.1s-.6.5-1.1.5c-.4 0-.8-.1-1.1-.4-.2-.2-.3-.4-.4-.6-.4-.9-1.1-1.7-1.9-2.5-1.6-1.4-3.5-2.1-5.6-2-2.2.1-3.9 1-5.4 2.6l-6.2 7c-.3.3-.6.5-1.1.5-.4 0-.8-.1-1.1-.4-.3-.3-.5-.6-.5-1.1 0-.4.1-.8.4-1.1l12.4-13.9zM1787.4 624.8c.4 0 .8.1 1.1.4.3.3.5.7.5 1.1 0 .2-.1.5-.1.7l-11.5 20.6 20.5-11.8c.2-.1.4-.1.7-.1.4 0 .8.1 1.1.4.3.3.5.7.5 1.1 0 .4-.1.8-.4 1.1-.2.2-.3.3-.6.4l-24.8 14.3c-.3.2-.6.2-.9.3-.4 0-.8-.1-1.1-.4-.3-.3-.5-.7-.4-1.1 0-.3.1-.6.2-.9l11.3-20.3-20.1 11.6c-.3.2-.6.2-.9.3-.4 0-.8-.1-1.1-.4-.3-.3-.5-.7-.4-1.1 0-.3.1-.6.2-.9l14-25.1c.1-.2.2-.4.4-.6.3-.3.7-.5 1.1-.5.4 0 .8.1 1.1.4.3.3.5.7.5 1.1 0 .2-.1.5-.1.7l-11.5 20.6 20.5-11.8c-.4-.1-.1-.1.2-.1zM1795.1 669.4c.3.3.4.7.4 1.1 0 .4-.2.8-.5 1.1-.3.3-.7.4-1.1.4-2.7-.3-4.9-1.4-6.8-3.4-2.1-2.2-3-4.8-2.9-7.8.1-3 1.3-5.5 3.5-7.6 2.2-2.1 4.8-3 7.8-2.9 3 .1 5.5 1.3 7.6 3.5 2.1 2.2 3 4.8 2.9 7.8-.1 3-1.3 5.5-3.5 7.6-.3.3-.7.4-1.1.4s-.8-.2-1.1-.5l-11.6-12.4c-.9 1.2-1.4 2.6-1.4 4.3-.1 2.1.6 4 2.1 5.6 1.3 1.4 2.9 2.2 4.8 2.4.3 0 .6.1.9.4zm6.3-3.7c.9-1.2 1.4-2.6 1.4-4.3.1-2.1-.6-4-2.1-5.6-1.5-1.6-3.3-2.4-5.4-2.5-1.6-.1-3.1.3-4.4 1.1l10.5 11.3zM1818.7 659c.3-.3.7-.4 1.1-.4.4 0 .8.2 1.1.5.3.3.4.7.4 1.1 0 .4-.2.8-.5 1.1L1801 679l1 1.2c.3.3.4.7.4 1.1 0 .4-.2.8-.5 1.1s-.7.4-1.1.4c-.4 0-.8-.2-1.1-.5l-2.1-2.3c-.3-.3-.4-.7-.4-1.1 0-.4.2-.8.5-1.1l21-18.8zM1812.2 692c.3.3.4.7.4 1.1 0 .4-.2.8-.5 1.1s-.7.4-1.1.4c-.4 0-.8-.2-1.1-.5-3.4-4-3.1-7.6.9-11l8.3-7.1-1-1.2c-.3-.3-.4-.7-.4-1.1 0-.4.2-.8.5-1.1s.7-.4 1.1-.4c.4 0 .8.2 1.1.5l1 1.2 5.9-5.1c.3-.3.7-.4 1.1-.4.4 0 .8.2 1.1.5.3.3.4.7.4 1.1 0 .4-.2.8-.5 1.1l-5.9 5.1 2 2.4c.3.3.4.7.4 1.1 0 .4-.2.8-.5 1.1s-.7.4-1.1.4c-.4 0-.8-.2-1.1-.5l-2-2.4-8.3 7.1c-2.6 2.1-2.7 4.3-.7 6.6z"/></svg>