<svg id="Layer_2" data-name="Layer 2" xmlns="http://www.w3.org/2000/svg" viewBox="0 0 2453 2453"><defs><style>.cls-1{fill:#03709c;}</style></defs><title>SS_bottom slogan_JP</title><g id="JP"><path class="cls-1" d="M854 513.61l-2.33 1.39-.91-1.6-7 4 1 1.77-2.36 1.35-6.69-11.7-6.91 4 9.25 16.18 23-13.12 1.29 2.26-23 13.12 1.53 2.67-2.36 1.35-12.07-21.12-5.35 3.06-1.29-2.26 5.35-3.06-4.57-8 3.18-1.54a.74.74 0 0 1-.42.88l4.17 7.29 6.91-4-5-8.75 3.18-1.54a.78.78 0 0 1-.42.88l4.61 8.06 7-4-4.79-8.34 3.18-1.54a.78.78 0 0 1-.42.88l4.37 7.64 5.52-3.16 1.29 2.26-5.52 3.16zm-11.53 1.52l7-4-4.41-7.71-7 4zM887.71 487.35l-6.53 3.3a26.31 26.31 0 0 0 14.07 1.23 10 10 0 0 0-.61 2.86 29.17 29.17 0 0 1-10.52-.6.89.89 0 0 1-.37.41l6.42 12.71-2.39 1.21-6.78-13.38 2.5-1.08a23 23 0 0 1-5.07-2l-6.18 3.12a25.5 25.5 0 0 1-1.48 5.14l2.77-1.17a.72.72 0 0 1-.48.83l.83 1.64c1.86 3.68 3.4 8.68-2 15.39a8.69 8.69 0 0 0-2.53-1c5.07-6 3.68-10.28 2.16-13.28l-1-1.89a32.18 32.18 0 0 1-5.85 9.18 11.22 11.22 0 0 0-2.58-1.12 28.63 28.63 0 0 0 7.32-12.3l-6.53 3.3-7.56-15 24.78-12.52zm-29-1.6l2.24 4.43 8.71-4.4-2.24-4.43zm3.23 6.39l2.25 4.46 8.71-4.4-2.25-4.46zm19-12.06l-2.24-4.43-8.93 4.51 2.24 4.43zm3.25 6.43L882 482l-8.93 4.51 2.25 4.46zM909.54 465.35a1 1 0 0 1-.66 1c3.7 12 4.27 23.56-1.8 26.24-3.07 1.36-7.21-.49-9.76-6.27a17.55 17.55 0 0 1 9.35-23.4c10.57-4.67 18.1 0 21.25 7.15 3.84 8.71.65 15.14-7.3 21.1a15.76 15.76 0 0 0-2.52-1.55c7.71-5.32 10.22-11.33 7.16-18.24-2.66-6-9-9.81-17.53-6a11.33 11.33 0 0 0-1.07.56zm-3.72 1.07a14.72 14.72 0 0 0-6 18.71c1.73 3.92 4.49 5.62 6.25 4.85 4.38-1.98 3.25-13.13-.25-23.56zM966.43 454.37l1 2.5-15.81 6 4.51 11.85c.68 1.79.48 2.73-.69 3.69s-3.61 1.88-7.31 3.29a11.9 11.9 0 0 0-2.08-2.2c2-.68 3.89-1.35 5.2-1.85 2.36-.9 2.65-1 2.28-2L949 463.87l-15.89 6-1-2.5 15.89-6-2.33-6.13 1.49-.48a51.09 51.09 0 0 0 6.36-9.05l-22 8.38-.94-2.47 24.82-9.44.38-.36 2.81.64a1.24 1.24 0 0 1-.51.58 63.7 63.7 0 0 1-9 13.31l1.54 4zM995.11 440.78a.77.77 0 0 1-.29.14 1.57 1.57 0 0 1-.87 0c-10.21 7-18.81 15.32-17.11 20.4 1.19 3.65 5.63 3.59 11.79 1.58a95.94 95.94 0 0 0 13.18-5.27l1.13 2.7a129.23 129.23 0 0 1-13.39 5.13C982 468 976 468 974.11 462.41c-1.37-4.06 1.53-9 6.5-14-2.05-1.9-3.95-6.16-6.75-14.75l4.29-1a1.17 1.17 0 0 1-.88 1.3c2.14 6.67 3.72 10.74 5.45 12.44a112.81 112.81 0 0 1 10.37-8.44zm-8.74-10.27a25.23 25.23 0 0 1 6.63 4.09l-1.27 1.64a24.32 24.32 0 0 0-6.53-4.14zm4.39-3.83a24 24 0 0 1 6.59 4.08l-1.21 1.57a25.1 25.1 0 0 0-6.45-4zM1025.29 440.21a95.32 95.32 0 0 1-9.09 3c.26 1.38.55 2.92.75 3.65 1.7 6.17 5.92 5.55 9.51 4.56 6.06-1.67 8.59-4.23 7.61-7.78-.55-2-2.32-4.22-5.11-6.23a21.39 21.39 0 0 0 2.2-1.64c3.19 2.4 5.19 5 5.88 7.51 1.78 6.48-5.21 9.44-9.87 10.72-3.7 1-10.41 2.57-12.88-6.42a30.62 30.62 0 0 1-.78-3.73c-3.27.78-8.53 2-9.62-2-.48-1.74.08-3.63 1.91-5.88l2.37.63c-1.41 1.51-2.06 3.06-1.78 4.1.56 2 3.67 1.27 6.62.54-.44-2.66-.93-5.8-1.41-8.91a27.83 27.83 0 0 1-8.68.11v-2.7a26.54 26.54 0 0 0 8.29 0c-.36-2.51-.77-5.06-1.06-7.18l4.15-.6a1.21 1.21 0 0 1-1 1.11c.18 1.69.45 3.9.75 6.18 1.14-.23 2.35-.52 3.58-.86 1.47-.4 3-.85 4.32-1.35l.58 2.58c-1.14.4-2.44.79-3.75 1.15-1.5.41-3 .79-4.39 1.08.41 3 .88 6.06 1.33 8.76a74.43 74.43 0 0 0 8.84-3zM1060.76 418.13a50 50 0 0 1-11.49 4.89c.35 9.31-.05 18.74-1.72 26l-3-.43c1.8-7 2.35-15.6 1.9-24.8-.77.21-6 1.42-7.18 1.64l-.63-2.65c.63-.1 1.45-.28 2.35-.48.35-.08 4.26-.95 5.26-1.21-.17-2.59-.38-5.41-.68-7.84l4.11-.5a1.17 1.17 0 0 1-1 1c.15 1.77.23 4 .4 6.43a46.33 46.33 0 0 0 10.45-4.62zm-3.24 8.26a47.74 47.74 0 0 1 13.73-5.14l.59 2.66a45.21 45.21 0 0 0-13.12 4.76zm19.41 15.43c-1.16.3-2.36.61-3.57.88a40.11 40.11 0 0 1-9.45 1.2 5.55 5.55 0 0 1-5.53-4.42 9.65 9.65 0 0 1 1.16-6.2l2.57.49a7.36 7.36 0 0 0-1.07 4.79c.69 3.08 3.83 3.21 10.93 1.63 1.44-.32 2.92-.69 4.34-1.13zM1104.91 409.22a92.2 92.2 0 0 1-16.55 5.2c.33 5 .32 9.2-.06 10.76a20.36 20.36 0 0 1 10.48-6.1c5.87-1 10 1.53 10.92 6.85 1.35 7.84-6.12 11.85-18.88 14.36a11.84 11.84 0 0 0-1.24-2.47c11.27-2.18 18.27-5.37 17.25-11.32-.61-3.55-3.39-5.58-8-4.8-3.51.6-9.17 3.77-11.1 8.12l-3-.83c1-1.64 1.35-7.5.83-14.06l-9.22 1.59-.47-2.76c1.66-.25 6.51-1.08 9.47-1.59-.23-2.27-.58-4.81-1-7.17l4.25-.32c0 .68-.42.88-1.11 1.08.26 2 .49 4 .65 5.89a77.54 77.54 0 0 0 15.75-5.18zM1121.33 401.72a1.09 1.09 0 0 1-1.23.79 96 96 0 0 0 .05 18.13 44.07 44.07 0 0 0 1.47 7.8c.52-2 1.72-6.41 2.11-7.87l1.88 1.55c-1.14 4.21-2.06 6.62-2.4 8.47a6.86 6.86 0 0 0-.09 1.91 4.24 4.24 0 0 0 .35 1.21l-2.76.86a43.91 43.91 0 0 1-3.4-13.45 117 117 0 0 1-.23-19.6zm7.49 3.93a130.53 130.53 0 0 0 17.14-3.6l.57 2.75a151.45 151.45 0 0 1-17.3 3.58zm21.32 22c-1.42.25-2.89.47-4.35.65a55.16 55.16 0 0 1-7.44.45c-5-.13-7.56-2.55-7.94-5.73-.33-2.74.9-5.23 2.81-8.12l2.72.8c-1.74 2.31-2.9 4.38-2.62 6.64.56 4.61 7.31 3.79 11.44 3.29 1.67-.2 3.45-.5 5.1-.82zM1157.63 402.18l.45 6.5-2.63.18-.62-9 15.2-1.05-.34-4.95h3.61a.74.74 0 0 1-.76.61l.29 4.15 15.36-1.06.62 9-2.75.19-.45-6.5zm32.88 11.68l.18 2.59-16.56 1.15.67 9.7c.24 3.47-2 3.62-9 4.11a10.92 10.92 0 0 0-1.3-2.6c1.52-.06 3-.12 4.12-.2 3.23-.22 3.47-.24 3.41-1.16l-.67-9.66-16.36 1.13-.18-2.59 16.32-1.13-.46-6.7-10.21.71-.17-2.51 23.26-1.61.17 2.51-10.25.71.52 6.69zM1213.9 397l15.4-.28.16 9h-2.76l-.12-6.44-28 .5.12 6.44h-2.64l-.16-9 15.24-.27-.09-5 3.6.18a.74.74 0 0 1-.79.57zm.8 4.47a.74.74 0 0 1-.79.57l.11 5.88 12.16-.22.38 21.08h-2.72v-1.36l-21.44.38v1.36h-2.6l-.38-21.08 11.92-.21-.12-6.68zm-3.32 9l-9.32.17.11 5.92 9.32-.17zm-9.17 8.49l.11 6.36 9.32-.17-.11-6.36zm21.29-8.7l-9.44.17.11 5.92 9.44-.17zm-9.18 14.85l9.44-.17-.11-6.36-9.44.17zM1250.7 394.1c-.1.48-.58.66-1.34.68-.51 2.22-1.36 6.08-1.92 8.46 1.81-.14 3.45-.25 4.45-.21 6.08.12 8 4.23 7.83 10.22a31.2 31.2 0 0 1-1.65 8.91c-1.37 4-4 5.91-7.31 5.8-1.64-.05-3.78-.8-7.12-3.72a15 15 0 0 0 1.16-2.4c3.12 2.58 4.78 3.2 6 3.24 2.28.07 3.69-1.32 4.57-3.85a30.19 30.19 0 0 0 1.55-8.15c.11-4.56-1.28-7.33-5.28-7.42a46.05 46.05 0 0 0-4.89.24c-2.27 8.09-4.85 15-8.9 21.32l-2.6-1.37c4.08-6.07 6.48-12.19 8.61-19.73-2 .17-5 .44-7.15.73l-.15-2.81c2-.18 5.26-.43 7.95-.66.7-2.9 1.45-6.48 2-10zm17.88 19.84a24 24 0 0 0-8.55-14l2.21-1.61a25.64 25.64 0 0 1 9.25 14.55zM1283.89 402.4a1.14 1.14 0 0 1-1.09.59c-.79 5.88-2 10.84-2.58 11.63a27.24 27.24 0 0 1 15.07-3.73c6.14.49 9.71 4 9.19 9.53-.71 7.33-7 10.11-22.51 9.51a11.88 11.88 0 0 0-.79-2.71c14 .52 19.73-1.3 20.31-7 .35-3.82-2.14-6.35-6.8-6.73-7.38-.59-14.39 3.3-15.66 5.16l-2.61-1.53c.86-.69 2.83-7.72 3.54-15.53zm1.3-7.68c5.37 1.07 11.41 2.8 15.19 4.75l-1.22 2.67c-4-2.08-9.81-3.72-15-4.86zM1343.37 429.19l-.35 2.7-32.73-4.23.35-2.7zm-1.07-22.28l-.35 2.74-24.64-3.18.35-2.74zM1375.81 436.57l-.4 2.28-26.86-4.76.4-2.28 16 2.84c1.33-3.87 3.79-11.52 4.89-15.46l-15-2.66.4-2.28 15.79 2.8.5-.07 1.76 1.29a.59.59 0 0 1-.54.27c-1.24 4-4 12.45-5.45 16.54zM1384.52 423.88l32.58 7.38-.63 2.77-31.1-7a1.84 1.84 0 0 1-1.42.46zM1450.6 428.82a.83.83 0 0 1-.62.29 61.86 61.86 0 0 1-11.39 11.12 147 147 0 0 1 10.48 17l-2.92 1.39a130.66 130.66 0 0 0-9.93-16.71c-4.54 3.18-12 7.18-18.43 8.83a15 15 0 0 0-1.43-2.64c12.3-2.9 23.78-11.5 29.57-18.9l-18.93-5.26.73-2.62 20.43 5.67.55-.05zM1490 454a.57.57 0 0 1-.25 0 1 1 0 0 1-.49-.42c-3.2 0-7.93.15-11.54.47q-.32 1.35-.87 3c-.4 1.21-.9 2.57-1.46 4l-2.82-.77c.57-1.33 1.22-3 1.71-4.53.19-.57.37-1.1.47-1.53-5 .66-9.32 2-10.08 4.33s1.54 4.13 6.77 5.87a89.61 89.61 0 0 0 9.66 2.78l-.81 2.56c-2.32-.52-5.76-1.57-9.67-2.87-7.29-2.42-9.94-5.24-8.65-9.11 1.11-3.34 6.58-5.11 13.22-6.06.57-2.47-.11-4-1.62-4.5-2.77-.92-6.17-.32-10.85 2.34-1.45.82-3.43 1.81-5.55 2.75l-1.24-2.48c4.91-2.08 9.53-4.08 14.22-10.83l-2.14-.67-6.34-2.1.82-2.47c2.3.81 5 1.7 6.56 2.22l2.59.82a52.06 52.06 0 0 0 2.83-5.09l3.57 1.69a1 1 0 0 1-1.18.37c-.77 1.43-1.55 2.65-2.35 3.9a54.78 54.78 0 0 0 13.79 2.13l-.39 2.69a60.35 60.35 0 0 1-14.94-2.6 29.11 29.11 0 0 1-4.86 5.51 10.65 10.65 0 0 1 6.93-.44c2.58.86 3.6 3.26 3.07 6.5 3.67-.38 8.21-.6 11.64-.77zM1527.65 463.47l-25.34-9.88-.51 1.3c-2.48 6.37-6.6 15.28-12.91 19.91a11.49 11.49 0 0 0-1.69-2.16c6.11-4.44 9.71-12.7 12.07-18.73l4.3-11 27.87 10.87zm-12.14 1l10.47 4.08-7 18-2.46-1 .55-1.42-18.15-7.07-.55 1.42-2.38-.93 7-18 10.1 3.94 1.74-4.47 3.09 1.42a.78.78 0 0 1-.95.23zm-13.74 5.29l-2 5.1 7.71 3 2-5.1zm10.42-3.92l-7.71-3-1.87 4.81 7.71 3zm15.81-10.77l-22.8-8.89-2 5.1 22.8 8.89zm-18.09 23.72l8 3.12 2-5.1-8-3.12zm12.7-8.91l-8-3.12-1.87 4.81 8 3.12zM1545.23 461a1.09 1.09 0 0 1-1.24.23 85.65 85.65 0 0 0-8.69 14.21 42.78 42.78 0 0 0-2.4 6.29c1.54-1.28 4.89-3.94 7-5.54l.9 2.47c-4.8 3.54-7.84 5.81-8.48 7.23a5.62 5.62 0 0 0-.38 1.63l-2.78-.64a39.32 39.32 0 0 1 3.62-12.5 102.77 102.77 0 0 1 9.22-15.58zm1.66 10.71c2.92 1.32 7.25 3.18 10 4.19 1.69-4.33 3.7-9.48 3.94-10.29l3.69 1.84a1.16 1.16 0 0 1-1.36.39c-.83 2-2.33 5.84-3.61 9.08a48.07 48.07 0 0 0 7.66 2.09l-.91 2.71a58.55 58.55 0 0 1-7.77-2.32c-.1.22-.33.82-1.3 3-3.55 7.88-7.82 12.67-16.44 13a13.37 13.37 0 0 0-1.15-2.71c8.23-.24 11.8-4.37 14.9-11.23l1.33-3c-2.51-1-6.75-2.74-10-4.2zM1574.49 477.64c2.14 1.27 5.09 2.78 7.51 4 1.6.82 3.44 1.71 5 2.44.84-1.73 1.82-3.74 2.46-5l3.51 2a1 1 0 0 1-1.34.26c-.33.55-1.69 3.31-2 3.92a78.48 78.48 0 0 0 12.47 4.74l-.88 2.51a82 82 0 0 1-12.84-4.85c-1.06 2.16-2.15 4.38-3.21 6.63a67.39 67.39 0 0 0 10.75 3.75l-.9 2.46a76.13 76.13 0 0 1-10.93-4l-2.76 6.09a44.46 44.46 0 0 1 7.63 10.91l-2.68 1.37a39 39 0 0 0-6.16-9.75c-.29.57-.58 1.23-.82 1.69-1.77 3.36-4.8 4.29-9.11 2.08-4.52-2.31-6.89-5.86-5.18-9.2s6.59-3.32 10.58-1.28a17.62 17.62 0 0 1 3.52 2.34c.75-1.55 1.62-3.44 2.57-5.38-1.16-.55-2.46-1.17-3.49-1.69-6.09-3.11-7.31-4.95-6.25-7 .69-1.35 2.29-1.93 5.31-2.22l1.15 2c-2.06.07-3.31.42-3.68 1.13-.55 1.07 1 2.14 5.54 4.45.78.4 1.6.82 2.4 1.18l3.15-6.7c-1.57-.71-3.35-1.62-5-2.44-2.28-1.17-5.52-2.82-7.62-4zm3.69 25.29a16.83 16.83 0 0 0-3.7-2.61c-2.71-1.38-6-1.68-7.11.46s.89 4.41 4 6c2.81 1.44 4.52.74 5.79-1.76zM1623.66 504.38c.4-.78 2.48-4.62 2.91-5.53l3.49 2.19a1.09 1.09 0 0 1-1.32.21c-.24.42-.48.83-2.51 4.51 4.34 2.32 8.88 4.79 11.5 6.25l-1.38 2.39c-2.91-1.77-7.14-4.11-11.35-6.35-1.49 2.74-2.85 5.28-3.85 7.25a13.63 13.63 0 0 1-1.68 3.88 17.24 17.24 0 0 1-2.28 3.16c-3.24 3.54-8.27 5.39-15.77 4.31a21.89 21.89 0 0 0-.63-3c6.4 1.15 10.9-.09 13.66-2.89a5 5 0 0 1-4.63-.22 6.83 6.83 0 0 1-2.33-9.42 7.36 7.36 0 0 1 10-2.89 5.93 5.93 0 0 1 2.61 2.93c.34-.59 1.61-3 2.4-4.48-3.65-2-14.82-7.93-16.28-8.68l1.25-2.33 8 4.34zm-6.35 12.55c.78-1.35 2.59-4.51-.94-6.54a4.83 4.83 0 0 0-6.66 2 4.48 4.48 0 0 0 1.53 6.24 4.31 4.31 0 0 0 6.07-1.7z"/></g></svg>