<svg xmlns="http://www.w3.org/2000/svg" viewBox="0 0 2453 2453"><title>SS_bottom slogan_NL</title><path fill="#03709C" d="M577.9 729.4c-.1-.4 0-.8.3-1.2.3-.3.6-.6 1-.6h.7l22.2 8.1-14.9-18.4c-.1-.2-.2-.4-.2-.7-.1-.4 0-.8.3-1.2.3-.3.6-.6 1-.6s.8 0 1.2.3c.2.1.3.3.5.5l18 22.4c.2.3.3.6.4.9.1.4 0 .8-.3 1.2s-.6.6-1 .6c-.3.1-.6 0-1-.1l-21.9-8 14.7 18.1c.2.3.3.6.4.9.1.4 0 .8-.3 1.2-.2.3-.6.6-1 .6-.3.1-.6 0-1-.1l-27-9.9-.6-.3c-.3-.2-.6-.6-.6-1s0-.8.3-1.2c.3-.3.6-.6 1-.6h.7l22.2 8.1-14.9-18.4c-.1-.1-.2-.3-.2-.6zM620.6 714.8c.3-.3.6-.5 1-.6.4-.1.8 0 1.2.3.3.3.5.6.6 1 .2 2.7-.6 5.1-2.3 7.2-1.8 2.4-4.3 3.8-7.2 4.2-3 .4-5.7-.3-8.1-2.2-2.4-1.8-3.8-4.3-4.2-7.2-.4-3 .3-5.7 2.2-8.1 1.8-2.4 4.3-3.8 7.2-4.2 3-.4 5.7.3 8.1 2.2.3.3.5.6.6 1 .1.4 0 .8-.3 1.2L609 723.1c1.4.7 2.8.9 4.4.7 2.1-.3 3.9-1.3 5.2-3 1.2-1.5 1.7-3.2 1.6-5.1.1-.3.2-.6.4-.9zm-4.6-5.7c-1.4-.7-2.8-.9-4.4-.7-2.1.3-3.9 1.3-5.2 3s-1.8 3.6-1.6 5.8c.2 1.6.8 3 1.8 4.1l9.4-12.2zM624.9 688.5v-.1c-.2-3 .6-5.7 2.6-8s4.4-3.6 7.5-3.8c3-.2 5.7.6 8 2.6s3.6 4.4 3.8 7.5c.2 3-.6 5.7-2.6 8s-4.4 3.6-7.5 3.8c-3 .2-5.7-.6-8-2.6l-14.3-12.2c-.3-.3-.5-.6-.5-1.1 0-.4.1-.8.4-1.1s.6-.5 1.1-.5c.4 0 .8.1 1.1.4l8.4 7.1zm16.9 4.1c1.4-1.6 2-3.5 1.9-5.7-.2-2.1-1.1-3.9-2.7-5.3s-3.5-2-5.7-1.9c-2.1.2-3.9 1.1-5.3 2.7s-2 3.5-1.9 5.7c.2 2.1 1.1 3.9 2.7 5.3s3.5 2 5.7 1.9 3.9-1.1 5.3-2.7zM638.2 670.5c-.3-.3-.5-.6-.5-1.1 0-.4.1-.8.4-1.1s.6-.5 1.1-.5c.4 0 .8.1 1.1.4l1.3 1.2c-.2-3.1.8-5.7 2.8-8 1-1.1 2.2-2 3.4-2.6.2-.1.5-.2.7-.2.4 0 .8.1 1.1.4.3.3.5.6.5 1.1 0 .4-.1.8-.4 1.1-.2.2-.4.3-.6.4-.9.4-1.7 1-2.5 1.9-1.4 1.6-2.1 3.5-2 5.6.1 2.1 1 3.9 2.6 5.4l6.9 6.3c.3.3.5.6.5 1.1 0 .4-.1.8-.4 1.1s-.6.5-1.1.5c-.4 0-.8-.1-1.1-.4l-13.8-12.6zM673.5 654.4c.3-.3.7-.5 1.1-.5.4 0 .8.1 1.1.4.3.3.5.7.5 1.1-.1 2.7-1.1 5-3 7-2.1 2.2-4.6 3.3-7.7 3.4s-5.6-.9-7.8-3-3.3-4.6-3.4-7.7.9-5.6 3-7.8 4.6-3.3 7.7-3.4 5.6.9 7.8 3c.3.3.5.7.5 1.1 0 .4-.1.8-.4 1.1l-11.8 12.3c1.3.8 2.7 1.2 4.4 1.2 2.2 0 4-.9 5.5-2.4 1.3-1.4 2.1-3.1 2.1-4.9.1-.3.2-.6.4-.9zm-4-6.2c-1.3-.8-2.7-1.2-4.4-1.2-2.2 0-4 .9-5.5 2.4s-2.2 3.4-2.2 5.6c0 1.6.5 3.1 1.4 4.3l10.7-11.1zM668.6 638c-.3-.3-.5-.7-.4-1.1 0-.4.2-.8.5-1.1.3-.3.7-.4 1.1-.4.4 0 .8.2 1.1.5l.9.9c.1-2.7 1.1-5 3-6.9 2-2 4.4-2.9 7.2-2.9s5.2 1 7.2 3l7.1 7.2c.3.3.5.7.4 1.1 0 .4-.2.8-.5 1.1-.3.3-.7.4-1.1.4-.4 0-.8-.2-1.1-.5l-7.1-7.2c-1.4-1.4-3-2.1-5-2.1-1.9 0-3.6.7-5 2-1.4 1.4-2.1 3-2.1 5 0 1.9.7 3.6 2 5l7.1 7.2c.3.3.4.7.4 1.1 0 .4-.2.8-.5 1.1-.3.3-.7.4-1.1.4-.4 0-.8-.2-1.1-.5l-13-13.3zM711 621.1v.1c-.1 3-1.3 5.6-3.5 7.6s-4.8 3-7.9 2.9c-3-.1-5.6-1.3-7.6-3.5s-3-4.8-2.9-7.9c.1-3 1.3-5.6 3.5-7.6s4.8-3 7.9-2.9 5.6 1.3 7.6 3.5l7.4 8c1.5 1.7 2.3 3.7 2.2 6-.1 3.2-1.4 6-3.8 8.2s-5.2 3.2-8.4 3.1c-1.2 0-2.3-.2-3.4-.6-.3-.1-.5-.2-.7-.4-.3-.3-.4-.7-.4-1.1 0-.4.2-.8.5-1.1.3-.3.7-.4 1.1-.4.2 0 .4.1.6.1.8.3 1.6.4 2.4.4 2.4.1 4.4-.7 6.2-2.3 1.7-1.6 2.7-3.6 2.8-6-.1-1.6-.5-2.9-1.4-3.8l-2.2-2.3zm-16.3-6.1c-1.6 1.5-2.4 3.3-2.5 5.4-.1 2.2.6 4 2.1 5.6 1.5 1.6 3.3 2.4 5.4 2.5 2.2.1 4-.6 5.6-2.1 1.6-1.5 2.4-3.3 2.5-5.4.1-2.2-.6-4-2.1-5.6-1.5-1.6-3.3-2.4-5.4-2.5-2.1 0-4 .6-5.6 2.1zM727.1 604.4c.3-.3.7-.4 1.1-.4s.8.2 1.1.5c.3.3.4.7.4 1.1-.4 2.6-1.6 4.9-3.7 6.6-2.3 2-4.9 2.8-8 2.6s-5.5-1.5-7.5-3.8-2.8-4.9-2.6-8 1.5-5.5 3.8-7.5 4.9-2.8 8-2.6c3 .2 5.5 1.5 7.5 3.8.3.3.4.7.4 1.1 0 .4-.2.8-.5 1.1l-13 11.1c1.2 1 2.6 1.5 4.2 1.6 2.1.2 4-.5 5.7-1.9 1.5-1.3 2.4-2.8 2.6-4.7 0-.1.2-.4.5-.6zm-3.4-6.5c-1.2-1-2.6-1.5-4.2-1.6-2.1-.2-4 .5-5.7 1.9-1.6 1.4-2.5 3.2-2.7 5.3-.1 1.6.2 3.1.9 4.4l11.7-10zM723.6 587.4c-.3-.3-.4-.7-.3-1.1 0-.4.2-.8.6-1.1.3-.3.7-.4 1.1-.3.4 0 .8.2 1.1.6l.8 1c.3-2.7 1.6-4.9 3.7-6.6 2.2-1.8 4.7-2.5 7.5-2.2 2.8.3 5.1 1.5 6.8 3.7l6.4 7.9c.3.3.4.7.3 1.1 0 .4-.2.8-.6 1.1-.3.3-.7.4-1.1.3-.4 0-.8-.2-1.1-.6l-6.4-7.9c-1.2-1.5-2.8-2.4-4.7-2.6-1.9-.2-3.7.3-5.2 1.5s-2.4 2.8-2.6 4.7c-.2 1.9.3 3.7 1.5 5.2l6.4 7.9c.3.3.4.7.3 1.1 0 .4-.2.8-.6 1.1-.3.3-.7.4-1.1.3-.4 0-.8-.2-1.1-.6l-11.7-14.5zM751.6 565.2c-.3-.3-.4-.7-.3-1.2.1-.4.3-.8.6-1s.7-.4 1.2-.3.8.3 1 .6l.8 1c.4-2.7 1.8-4.8 4-6.5 2.2-1.7 4.8-2.3 7.5-1.9 2.8.4 5 1.7 6.7 4l6 8.2c.3.3.4.7.3 1.2-.1.4-.3.8-.6 1s-.7.4-1.2.3c-.4-.1-.8-.3-1-.6l-6-8.2c-1.2-1.6-2.7-2.5-4.6-2.8-1.9-.3-3.7.1-5.2 1.3-1.6 1.2-2.5 2.7-2.8 4.6-.3 1.9.1 3.7 1.3 5.2l6 8.2c.3.3.4.7.3 1.2-.1.4-.3.8-.6 1s-.7.4-1.2.3-.8-.3-1-.6l-11.2-15zM771.2 543.2c.3.4.4.9.3 1.5-.1.5-.4 1-.8 1.3-.4.3-.9.4-1.5.3-.5-.1-1-.4-1.3-.8s-.4-.9-.3-1.5.4-1 .8-1.3c.4-.3.9-.4 1.5-.3.6.1 1 .4 1.3.8zm.8 7.1c-.2-.4-.3-.7-.3-1.2.1-.4.3-.8.6-1 .4-.2.7-.3 1.2-.3.4.1.8.3 1 .6l10.8 15.3c.2.4.3.7.3 1.2s-.3.8-.6 1-.7.3-1.2.3-.8-.3-1-.6L772 550.3zM801 548.5c.4-.2.7-.3 1.2-.2.4.1.8.3 1 .7.2.4.3.7.3 1.2-.7 2.6-2.2 4.6-4.4 6.2-2.5 1.7-5.2 2.2-8.2 1.7s-5.3-2.1-7-4.6c-1.7-2.5-2.2-5.2-1.7-8.2.6-3 2.1-5.3 4.6-7 2.5-1.7 5.2-2.2 8.2-1.7 3 .6 5.3 2.1 7 4.6.2.4.3.7.2 1.2-.1.4-.3.8-.7 1l-14.2 9.5c1.1 1.1 2.4 1.8 4 2.1 2.1.4 4.1 0 5.9-1.2 1.6-1.1 2.7-2.5 3.1-4.4.2-.4.4-.7.7-.9zm-2.6-6.9c-1.1-1.1-2.4-1.8-4-2.1-2.1-.4-4.1 0-5.9 1.2-1.8 1.2-2.9 2.9-3.3 5-.3 1.6-.2 3.1.4 4.5l12.8-8.6zM826.8 536.5c.2.4.3.8.2 1.2-.1.4-.3.7-.7 1-.4.2-.8.3-1.2.2-.4-.1-.7-.3-1-.7l-.7-1.1c-.6 2.6-2.1 4.7-4.4 6.1-2.4 1.5-4.9 1.9-7.7 1.3-2.7-.6-4.9-2.1-6.3-4.5l-5.4-8.6c-.2-.4-.3-.8-.2-1.2s.3-.7.7-1 .8-.3 1.2-.2c.4.1.7.3 1 .7l5.4 8.6c1 1.6 2.5 2.7 4.4 3.1 1.9.4 3.7.1 5.3-.9 1.6-1 2.7-2.5 3.1-4.4.4-1.9.1-3.7-.9-5.3l-5.4-8.6c-.2-.4-.3-.8-.2-1.2.1-.4.3-.7.7-1 .4-.2.8-.3 1.2-.2.4.1.7.3 1 .7l9.9 16zM830.5 511.2c.1-.4.3-.7.7-.9s.8-.3 1.2-.2c.3.1.5.2.7.4l11.2 9.9-3.1-14.9c0-.2 0-.4.1-.6.1-.4.3-.7.7-.9.4-.2.8-.3 1.2-.2s.7.4 1 .7c.1.2.2.4.2.6l4 19.3v.7c-.1.4-.4.7-.7.9-.4.2-.8.3-1.2.2l-.6-.3-11.4-10 3.1 14.8v.7c-.1.4-.4.7-.7.9-.4.2-.8.3-1.2.2l-.6-.3-14.8-13c-.2-.1-.3-.3-.4-.5-.2-.4-.3-.8-.2-1.2.1-.4.4-.7.7-1 .4-.2.8-.3 1.2-.2.2.1.3.1.5.2l11.4 10.1-3.1-14.6c0-.2 0-.5.1-.8zM855.2 509.3c-1.3.2-2.2.2-2.8 0-1.2-.4-2.2-1.1-2.8-2.3-.6-1.1-.7-2.4-.3-3.7.7-2.6 2.4-4.6 5.1-6 2.9-1.5 6-1.7 9.3-.5.3.1.5.3.7.7.2.4.2.8.1 1.2-.1.4-.4.7-.8.9-.4.2-.7.2-1.1.1-.4-.1-.6-.2-.8-.2-2.1-.6-4-.4-6 .6-1.9 1-3.1 2.4-3.6 4.2-.1.5 0 1 .2 1.4.3.5.8.7 1.4.6l10-1.7c1.3-.2 2.2-.2 2.8 0 1.2.4 2.2 1.1 2.8 2.2.6 1.1.7 2.4.3 3.7-.7 2.6-2.4 4.6-5.1 6-2.9 1.6-6 1.7-9.3.5-.3-.1-.5-.4-.7-.7-.2-.4-.2-.8-.1-1.2.1-.4.4-.7.8-.9.4-.2.7-.2 1.1-.1.4.1.6.2.8.2 2.1.6 4 .4 6-.6 1.9-1 3.1-2.4 3.6-4.2.1-.5 0-1-.2-1.4-.3-.5-.8-.7-1.4-.6l-10 1.8zM895.3 500.6c-.1.4-.4.7-.8.9-.4.2-.8.2-1.2.1-.1 0-.2-.1-.4-.2L877 488c-.1-.1-.3-.3-.4-.5-.2-.4-.2-.8-.1-1.2.1-.4.4-.7.8-.9.4-.2.8-.2 1.2-.1.1 0 .3.1.4.2l13.2 11-.3-17.2c0-.2 0-.4.1-.5.1-.4.4-.7.8-.9.4-.2.8-.2 1.2-.1.4.1.7.4.9.8.1.2.1.4.2.6l.3 20.7c.1.4.1.6 0 .7zM922.1 485.1c-1.1 2.9-3 4.9-5.8 6.2-2.8 1.2-5.5 1.3-8.4.2-2.8-1.1-4.8-3-6.1-5.8-1.2-2.8-1.3-5.5-.2-8.4 1.1-2.8 3-4.8 5.8-6.1 2.8-1.2 5.5-1.3 8.4-.2 2.8 1.1 4.8 3 6.1 5.8l3.8 8.6c.2.4.2.8 0 1.2-.2.4-.4.7-.8.9-.4.2-.8.2-1.2 0-.4-.2-.7-.4-.9-.8l-.7-1.6zm-13.4-10.9c-2 .9-3.3 2.3-4.1 4.3-.8 2-.7 4 .2 6 .9 2 2.3 3.4 4.3 4.1 2 .8 4 .7 6-.2 2-.9 3.3-2.3 4.1-4.3.8-2 .7-4-.2-6-.9-2-2.3-3.3-4.3-4.1-2.1-.8-4.1-.7-6 .2zM921.3 466.9c-.2-.4-.2-.8 0-1.2.2-.4.5-.7.8-.8.4-.2.8-.2 1.2 0 .4.2.7.5.8.8l.5 1.2c1.1-2.5 2.9-4.2 5.4-5.3 2.6-1.1 5.2-1 7.8.1 2.6 1.1 4.4 2.9 5.5 5.5l3.8 9.4c.2.4.2.8 0 1.2-.2.4-.5.7-.8.8-.4.2-.8.2-1.2 0-.4-.2-.7-.5-.8-.8l-3.8-9.4c-.7-1.8-2-3.1-3.8-3.8-1.8-.8-3.6-.8-5.4 0-1.8.7-3.1 2-3.8 3.8-.8 1.8-.8 3.6 0 5.4l3.8 9.4c.2.4.2.8 0 1.2-.2.4-.5.7-.8.8-.4.2-.8.2-1.2 0-.4-.2-.7-.5-.8-.8l-7.2-17.5zM969 468.5c.1.4.1.8 0 1.2s-.5.7-.9.8-.8.1-1.2 0c-.4-.2-.7-.5-.8-.9l-.4-1.2c-1.2 2.5-3 4.2-5.6 5.1-2.6 1-5.2.9-7.8-.3-2.6-1.2-4.3-3.1-5.3-5.7l-3.5-9.5c-.2-.4-.1-.8 0-1.2.2-.4.5-.7.9-.8.4-.1.8-.1 1.2 0 .4.2.7.5.8.9l3.5 9.5c.7 1.8 1.9 3.1 3.7 3.9s3.6.9 5.4.2c1.8-.7 3.1-1.9 3.9-3.7s.9-3.6.2-5.4l-3.5-9.5c-.1-.4-.1-.8 0-1.2.2-.4.5-.7.9-.8.4-.1.8-.1 1.2 0 .4.2.7.5.8.9l6.5 17.7zM968.4 442.3c.2.5.1 1-.1 1.5s-.6.8-1.1 1c-.5.2-1 .1-1.5-.1s-.8-.6-1-1.1c-.2-.5-.1-1 .1-1.5s.6-.8 1.1-1c.5-.2 1-.1 1.5.1s.8.6 1 1.1zm-1.3 7c-.1-.4-.1-.8.1-1.2.2-.4.5-.7.9-.8.4-.1.8-.1 1.2.1.4.2.7.5.8.9l6.2 17.7c.1.4.1.8-.1 1.2-.2.4-.5.7-.9.8-.4.1-.8.1-1.2-.1-.4-.2-.7-.5-.8-.9l-6.2-17.7zM990.5 459.6c.4-.1.8-.1 1.2.1s.6.5.8.9c.1.4.1.8-.1 1.2-.2.4-.5.6-.9.8-4.9 1.6-8.2 0-9.9-5l-3.4-10.4-1.5.5c-.4.1-.8.1-1.2-.1-.4-.2-.6-.5-.8-.9s-.1-.8.1-1.2c.2-.4.5-.6.9-.8l1.5-.5-2.4-7.4c-.1-.4-.1-.8.1-1.2.2-.4.5-.6.9-.8.4-.1.8-.1 1.2.1.4.2.6.5.8.9l2.4 7.4 3-1c.4-.1.8-.1 1.2.1.4.2.6.5.8.9s.1.8-.1 1.2c-.2.4-.5.6-.9.8l-3 1 3.4 10.4c.9 3 2.9 4 5.9 3zM998.7 429.2c-.1-.4-.1-.8.1-1.2.2-.4.5-.6.9-.7.4-.1.8-.1 1.2.1s.6.5.7.9l2.9 10.2c1.4-2.4 3.4-3.9 6-4.7 2.7-.8 5.3-.5 7.7.9 2.5 1.4 4.1 3.4 4.8 6.1l2.8 9.8c.1.4.1.8-.1 1.2-.2.4-.5.6-.9.7s-.8.1-1.2-.1c-.4-.2-.6-.5-.7-.9l-2.8-9.8c-.5-1.9-1.6-3.3-3.3-4.2-1.7-.9-3.5-1.1-5.3-.6-1.9.5-3.3 1.6-4.2 3.3s-1.2 3.5-.6 5.3l2.8 9.8c.1.4.1.8-.1 1.2-.2.4-.5.6-.9.7-.4.1-.8.1-1.2-.1s-.6-.5-.7-.9l-7.9-27zM1044.3 442.1c.4-.1.8 0 1.2.2.4.2.6.5.7 1s0 .8-.2 1.2c-1.5 2.2-3.6 3.6-6.3 4.3-2.9.7-5.7.3-8.3-1.2s-4.3-3.8-5-6.7c-.7-2.9-.3-5.7 1.2-8.3 1.5-2.6 3.8-4.3 6.7-5s5.7-.3 8.3 1.2c2.6 1.6 4.3 3.8 5 6.7.1.4 0 .8-.2 1.2-.2.4-.5.6-1 .7l-16.5 4.2c.6 1.4 1.7 2.5 3 3.3 1.8 1.1 3.8 1.4 5.9.9 1.9-.5 3.4-1.5 4.4-3 .5-.4.7-.6 1.1-.7zm-.1-7.4c-.6-1.4-1.7-2.5-3-3.3-1.8-1.1-3.8-1.4-5.9-.9-2.1.5-3.7 1.7-4.8 3.6-.8 1.4-1.2 2.8-1.1 4.4l14.8-3.8zM1063.2 440c.4-.1.8 0 1.2.2.4.2.6.6.7 1 .1.4 0 .8-.2 1.2-.2.4-.6.6-1 .7-5.1 1.1-8.2-.8-9.3-5.9l-2.4-10.7-1.5.3c-.4.1-.8 0-1.2-.2-.4-.2-.6-.6-.7-1-.1-.4 0-.8.2-1.2.2-.4.6-.6 1-.7l1.5-.3-1.7-7.6c-.1-.4 0-.8.2-1.2.2-.4.6-.6 1-.7s.8 0 1.2.2c.4.2.6.6.7 1l1.7 7.6 3.1-.7c.4-.1.8 0 1.2.2.4.2.6.6.7 1 .1.4 0 .8-.2 1.2-.2.4-.6.6-1 .7l-3.1.7 2.4 10.7c.6 3 2.5 4.2 5.5 3.5zM1074.4 410.6c-.1-.4 0-.8.3-1.2.2-.4.6-.6 1-.6.4-.1.8 0 1.2.3.4.2.6.6.6 1l1.9 10.4c1.6-2.2 3.7-3.5 6.4-4s5.3 0 7.6 1.6 3.7 3.8 4.2 6.5l1.8 10c.1.4 0 .8-.3 1.2-.2.4-.6.6-1 .6-.4.1-.8 0-1.2-.3-.4-.2-.6-.6-.6-1l-1.8-10c-.3-1.9-1.3-3.4-2.9-4.5-1.6-1.1-3.3-1.5-5.2-1.1s-3.4 1.3-4.5 2.9c-1.1 1.6-1.5 3.3-1.1 5.2l1.8 10c.1.4 0 .8-.3 1.2-.2.4-.6.6-1 .6-.4.1-.8 0-1.2-.3-.4-.2-.6-.6-.6-1l-5.1-27.5zM1118.5 427.9c.4-.1.8 0 1.2.3.3.3.6.6.6 1 .1.4 0 .8-.3 1.2-1.7 2-4 3.3-6.7 3.7-3 .4-5.7-.2-8.1-2-2.4-1.8-3.9-4.2-4.3-7.2s.2-5.7 2-8.1c1.8-2.4 4.2-3.9 7.2-4.3s5.7.2 8.1 2c2.4 1.8 3.9 4.2 4.3 7.2.1.4 0 .8-.3 1.2-.3.3-.6.6-1 .6l-16.9 2.5c.5 1.4 1.4 2.6 2.7 3.6 1.7 1.3 3.7 1.8 5.8 1.4 1.9-.3 3.5-1.1 4.7-2.6.4-.3.7-.5 1-.5zm.6-7.4c-.5-1.4-1.4-2.6-2.7-3.6-1.7-1.3-3.7-1.8-5.8-1.4s-3.8 1.3-5.1 3.1c-1 1.3-1.5 2.7-1.5 4.2l15.1-2.3zM1123.4 402.6c-.1-.4.1-.8.3-1.2.3-.3.6-.5 1-.6s.8.1 1.2.3c.3.3.5.6.6 1l3.3 26.4 1.6-.2c.4-.1.8.1 1.2.3s.5.6.6 1c.1.4-.1.8-.3 1.2-.3.3-.6.5-1 .6l-3.1.4c-.4.1-.8-.1-1.2-.3-.3-.3-.5-.6-.6-1l-3.6-27.9zM1152.6 423.8c.4 0 .8.1 1.1.3.3.3.5.6.6 1s-.1.8-.3 1.2c-1.8 2-4.1 3.1-6.8 3.4-3 .3-5.7-.5-8-2.4s-3.7-4.4-4-7.4c-.3-3 .5-5.7 2.4-8s4.4-3.7 7.4-4c3-.3 5.7.5 8 2.4s3.7 4.4 4 7.4c0 .4-.1.8-.3 1.1-.3.3-.6.5-1.1.6l-17 1.8c.4 1.5 1.3 2.7 2.5 3.7 1.7 1.4 3.6 1.9 5.7 1.7 1.9-.2 3.5-1 4.8-2.4.3-.2.6-.3 1-.4zm.9-7.3c-.4-1.5-1.3-2.7-2.5-3.7-1.7-1.4-3.6-1.9-5.7-1.7-2.2.2-3.9 1.2-5.3 2.8-1 1.3-1.6 2.6-1.7 4.2l15.2-1.6zM1170.7 397.8c0-.4.1-.8.4-1.1.3-.3.6-.5 1.1-.5.4 0 .8.1 1.1.4.3.3.5.6.5 1.1l.6 10.6c1.8-2 4.1-3.1 6.9-3.3 2.8-.2 5.3.7 7.4 2.5 2.1 1.9 3.2 4.2 3.4 7l.6 10.2c0 .4-.1.8-.4 1.1-.3.3-.6.5-1.1.5-.4 0-.8-.1-1.1-.4-.3-.3-.5-.6-.5-1.1l-.6-10.2c-.1-1.9-.9-3.6-2.4-4.8-1.5-1.3-3.2-1.9-5.1-1.8-1.9.1-3.6.9-4.8 2.4-1.3 1.5-1.9 3.2-1.8 5.1l.6 10.2c0 .4-.1.8-.4 1.1-.3.3-.6.5-1.1.5-.4 0-.8-.1-1.1-.4-.3-.3-.5-.6-.5-1.1l-1.7-28zM1212.5 420.4c.4 0 .8.1 1.1.4.3.3.5.7.5 1.1s-.1.8-.4 1.1c-2 1.8-4.3 2.8-7.1 2.8-3 .1-5.6-.9-7.8-3s-3.3-4.6-3.4-7.6c-.1-3 .9-5.6 3-7.8s4.6-3.3 7.6-3.4c3-.1 5.6.9 7.8 3s3.3 4.6 3.4 7.6c0 .4-.1.8-.4 1.1-.3.3-.7.5-1.1.5l-17 .5c.3 1.5 1.1 2.8 2.3 3.9 1.6 1.5 3.4 2.2 5.6 2.1 2-.1 3.6-.7 5-2 .2-.2.5-.3.9-.3zm1.4-7.2c-.3-1.5-1.1-2.8-2.3-3.9-1.6-1.5-3.4-2.2-5.6-2.1-2.2.1-4 .9-5.5 2.4-1.1 1.2-1.8 2.5-2 4l15.4-.4zM1237.4 420.5c.4 0 .8.2 1.1.5.3.3.4.7.4 1.1 0 .4-.2.8-.5 1.1-2.1 1.7-4.4 2.5-7.2 2.5-3-.1-5.6-1.2-7.7-3.4-2.1-2.2-3.1-4.8-3-7.8.1-3 1.2-5.6 3.4-7.7 2.2-2.1 4.8-3.1 7.8-3s5.6 1.2 7.7 3.4c2.1 2.2 3.1 4.8 3 7.8 0 .4-.2.8-.5 1.1-.3.3-.7.4-1.1.4l-17.1-.3c.3 1.5.9 2.8 2.1 4 1.5 1.6 3.3 2.4 5.5 2.4 2 0 3.6-.5 5.1-1.8.3-.2.6-.3 1-.3zm1.8-7.2c-.3-1.5-.9-2.8-2.1-4-1.5-1.6-3.3-2.4-5.5-2.4s-4 .7-5.6 2.2c-1.2 1.1-1.9 2.4-2.2 3.9l15.4.3zM1246.1 396.1c0-.4.2-.8.5-1.1.3-.3.7-.4 1.1-.4.4 0 .8.2 1.1.5.3.3.4.7.4 1.1l-.7 26.6h1.6c.4 0 .8.2 1.1.5.3.3.4.7.4 1.1 0 .4-.2.8-.5 1.1-.3.3-.7.4-1.1.4l-3.1-.1c-.4 0-.8-.2-1.1-.5-.3-.3-.4-.7-.4-1.1l.7-28.1zM1273.4 423.6c-2.3 2.1-4.9 3-8 2.9-3-.1-5.5-1.3-7.6-3.6-2-2.2-3-4.9-2.8-7.9s1.3-5.5 3.6-7.6c2.2-2 4.9-3 7.9-2.8 3 .1 5.5 1.3 7.6 3.6s3 4.9 2.8 7.9l-.5 9.4c0 .4-.2.8-.5 1.1-.3.3-.7.4-1.1.4-.4 0-.8-.2-1.1-.5-.3-.3-.4-.7-.4-1.1l.1-1.8zm-7-15.8c-2.2-.1-4 .6-5.6 2-1.6 1.4-2.4 3.2-2.6 5.4-.1 2.2.6 4 2 5.6 1.4 1.6 3.2 2.4 5.4 2.6 2.2.1 4-.6 5.6-2 1.6-1.4 2.4-3.2 2.6-5.4.1-2.2-.6-4-2-5.6-1.5-1.6-3.3-2.5-5.4-2.6zM1281.4 397.7c0-.4.2-.8.5-1.1.3-.3.7-.4 1.1-.4.4 0 .8.2 1.1.5s.4.7.4 1.1l-1.9 26.5 1.6.1c.4 0 .8.2 1.1.5.3.3.4.7.4 1.1s-.2.8-.5 1.1c-.3.3-.7.4-1.1.4l-3.1-.2c-.4 0-.8-.2-1.1-.5-.3-.3-.4-.7-.4-1.1l1.9-28zM1302.3 408.9c0-.4.2-.8.6-1 .3-.3.7-.4 1.1-.3.4 0 .8.2 1 .6.3.3.4.7.3 1.1l-.1 1.3c2.1-1.7 4.6-2.3 7.3-2 2.8.3 5 1.6 6.8 3.7 1.7 2.2 2.5 4.7 2.2 7.4l-1.1 10.1c0 .4-.2.8-.6 1-.3.3-.7.4-1.1.3-.4 0-.8-.2-1-.6-.3-.3-.4-.7-.3-1.1l1.1-10.1c.2-1.9-.3-3.6-1.5-5.1-1.2-1.5-2.8-2.4-4.7-2.6-1.9-.2-3.6.3-5.1 1.5-1.5 1.2-2.4 2.8-2.6 4.7l-1.1 10.1c0 .4-.2.8-.6 1-.3.3-.7.4-1.1.3-.4 0-.8-.2-1-.6-.3-.3-.4-.7-.3-1.1l1.8-18.6zM1342.2 430.8c-2.5 1.9-5.2 2.6-8.2 2.2s-5.4-1.8-7.2-4.2-2.5-5.1-2.1-8.1c.4-3 1.8-5.4 4.2-7.2 2.4-1.8 5.1-2.5 8.1-2.1 3 .4 5.4 1.8 7.2 4.2 1.8 2.4 2.5 5.1 2.1 8.1l-1.3 9.3c-.1.4-.3.8-.6 1-.3.3-.7.4-1.2.3-.4-.1-.8-.3-1-.6-.3-.3-.4-.7-.3-1.2l.3-1.7zm-5.6-16.4c-2.1-.3-4.1.2-5.8 1.5-1.7 1.3-2.7 3-3 5.2-.3 2.1.2 4.1 1.5 5.8s3 2.7 5.2 3c2.1.3 4.1-.2 5.8-1.5 1.7-1.3 2.7-3 3-5.2.3-2.1-.2-4.1-1.5-5.8-1.4-1.7-3.1-2.7-5.2-3zM1366.7 434.9c-2.5 1.8-5.3 2.4-8.3 1.9-3-.5-5.3-2-7.1-4.5-1.7-2.5-2.4-5.2-1.8-8.2s2-5.3 4.5-7.1c2.5-1.7 5.2-2.4 8.2-1.8s5.3 2 7.1 4.5c1.7 2.5 2.4 5.2 1.8 8.2l-1.6 9.2c-.1.4-.3.8-.6 1-.4.2-.7.3-1.2.3-.4-.1-.8-.3-1-.6-.2-.4-.3-.7-.3-1.2l.3-1.7zm-5-16.6c-2.1-.4-4.1.1-5.8 1.3-1.8 1.2-2.8 2.9-3.2 5.1-.4 2.1.1 4.1 1.3 5.8 1.2 1.8 2.9 2.8 5.1 3.2 2.1.4 4.1-.1 5.8-1.3 1.8-1.2 2.8-2.9 3.2-5.1.4-2.1-.1-4.1-1.3-5.8-1.3-1.7-3-2.8-5.1-3.2zM1376.1 419.3c.1-.4.3-.8.7-1 .4-.2.8-.3 1.2-.2.4.1.8.3 1 .7s.3.8.2 1.2l-.3 1.7c2.6-1.7 5.3-2.3 8.3-1.7 1.5.3 2.8.8 4 1.6.2.1.4.3.5.5.2.4.3.8.2 1.2s-.3.8-.7 1c-.4.2-.8.3-1.2.2-.2 0-.5-.1-.6-.3-.8-.6-1.8-1-2.9-1.2-2.1-.4-4.1 0-5.9 1.1-1.8 1.2-2.9 2.8-3.3 5l-1.9 9.2c-.1.4-.3.8-.7 1s-.8.3-1.2.2c-.4-.1-.8-.3-1-.7-.2-.4-.3-.8-.2-1.2l3.8-18.3zM1407.8 433.5l14.9-5.2c.3-.1.6-.1.9 0 .4.1.7.3 1 .7s.3.8.2 1.2c-.1.4-.3.7-.7 1-.1.1-.2.1-.3.1l-10.2 3.6 6.5 12.4c.2.4.3.8.2 1.2-.1.4-.3.7-.7 1-.4.2-.8.3-1.2.2s-.7-.3-1-.7l-6.8-12.9-3.6 1.3-1.8 7.5c-.1.4-.3.7-.7 1-.4.2-.8.3-1.2.2-.4-.1-.7-.3-1-.7-.2-.4-.3-.8-.2-1.2l6.7-27.3c.1-.4.3-.7.7-1 .4-.2.8-.3 1.2-.2s.7.3 1 .7c.2.4.3.8.2 1.2l-4.1 15.9zM1429.5 431.5c.1-.4.4-.7.7-.9.4-.2.8-.3 1.2-.2.4.1.7.4.9.7.2.4.3.8.2 1.2l-4.8 18.1c-.1.4-.4.7-.7.9-.4.2-.8.3-1.2.2-.4-.1-.7-.4-.9-.7-.2-.4-.3-.8-.2-1.2l4.8-18.1zm5-5.1c-.1.5-.4.9-.9 1.2-.5.3-1 .3-1.5.2s-.9-.4-1.2-.9c-.3-.5-.3-1-.2-1.5.1-.5.4-.9.9-1.2.5-.3 1-.3 1.5-.2s.9.4 1.2.9.3 1 .2 1.5zM1437.3 433.6c.1-.4.4-.7.7-.9.4-.2.8-.3 1.2-.1.4.1.7.4.9.7.2.4.3.8.1 1.2l-.4 1.2c2.4-1.3 4.9-1.5 7.5-.8 2.7.8 4.7 2.4 6.1 4.9 1.4 2.5 1.6 5 .9 7.7l-2.8 9.8c-.1.4-.4.7-.7.9-.4.2-.8.3-1.2.1-.4-.1-.7-.4-.9-.7-.2-.4-.3-.8-.1-1.2l2.8-9.8c.5-1.9.3-3.6-.6-5.3-.9-1.7-2.3-2.8-4.2-3.4s-3.6-.3-5.3.6c-1.7.9-2.8 2.3-3.4 4.2l-2.8 9.8c-.1.4-.4.7-.7.9s-.8.3-1.2.1c-.4-.1-.7-.4-.9-.7-.2-.4-.3-.8-.1-1.2l5.1-18zM1480.9 437.2c.1-.4.4-.7.8-.9.4-.2.8-.2 1.2-.1.4.1.7.4.9.8s.2.8.1 1.2l-5.8 17.8c-.9 2.9-2.8 5-5.4 6.4-2.7 1.4-5.5 1.6-8.3.6-2.9-.9-5-2.8-6.4-5.4-1.4-2.7-1.6-5.5-.6-8.3s2.7-5 5.4-6.4c2.7-1.4 5.5-1.6 8.3-.6 2.9.9 5 2.8 6.4 5.4v.1l3.4-10.6zm-5.8 17.8c.7-2.1.5-4-.5-6-1-1.9-2.5-3.2-4.5-3.9-2.1-.7-4-.5-6 .5-1.9 1-3.2 2.5-3.9 4.5s-.5 4 .5 6c1 1.9 2.5 3.2 4.5 3.9 2.1.7 4 .5 6-.5 1.9-.9 3.2-2.4 3.9-4.5zM1495.2 468c.4.1.7.4.9.8.2.4.2.8.1 1.2-.1.4-.4.7-.8.9-2.5 1-5 1-7.6.1-2.8-1-4.9-2.9-6.2-5.6-1.3-2.7-1.4-5.5-.4-8.4s2.9-4.9 5.6-6.2c2.7-1.3 5.5-1.4 8.4-.4 2.8 1 4.9 2.9 6.2 5.6 1.3 2.7 1.4 5.5.4 8.4-.1.4-.4.7-.8.9-.4.2-.8.2-1.2.1l-16-5.8c-.2 1.5 0 3 .7 4.5.9 2 2.4 3.3 4.4 4 1.8.7 3.6.7 5.4 0 .2-.2.5-.2.9-.1zm4-6.2c.2-1.5 0-3-.7-4.5-.9-1.9-2.4-3.3-4.4-4-2-.7-4-.6-6 .3-1.5.7-2.6 1.7-3.4 3l14.5 5.2zM1508.2 456.9c.2-.4.4-.7.8-.9.4-.2.8-.2 1.2 0 .4.2.7.4.9.8.2.4.2.8 0 1.2l-.6 1.6c2.8-1.2 5.7-1.3 8.5-.2 1.4.6 2.6 1.3 3.6 2.3.2.2.3.4.4.6.2.4.2.8 0 1.2s-.4.7-.8.9c-.4.2-.8.2-1.2 0-.2-.1-.4-.2-.6-.4-.7-.7-1.6-1.3-2.6-1.7-2-.8-4-.8-6 .1s-3.4 2.3-4.2 4.3l-3.4 8.7c-.2.4-.4.7-.8.9-.4.2-.8.2-1.2 0-.4-.2-.7-.4-.9-.8-.2-.4-.2-.8 0-1.2l6.9-17.4zM1535.7 484.4c.4.2.7.5.8.9.2.4.2.8 0 1.2-.2.4-.5.7-.9.8-2.5.8-5.1.7-7.6-.4-2.8-1.2-4.7-3.2-5.9-6-1.1-2.8-1.1-5.6.1-8.4s3.2-4.7 6-5.9c2.8-1.1 5.6-1.1 8.4.1 2.8 1.2 4.7 3.2 5.9 6 1.1 2.8 1.1 5.6-.1 8.4-.2.4-.5.7-.9.8s-.8.2-1.2 0l-15.7-6.7c-.3 1.5-.2 3 .4 4.5.8 2 2.2 3.4 4.2 4.3 1.8.8 3.6.9 5.4.3.4-.1.7-.1 1.1.1zm4.3-6c.3-1.5.2-3-.4-4.5-.8-2-2.2-3.4-4.2-4.3-2-.8-4-.9-6-.1-1.5.6-2.7 1.5-3.5 2.8l14.1 6.1zM1549.3 473.9c.2-.4.5-.7.9-.8.4-.2.8-.1 1.2 0 .4.2.7.5.8.9.2.4.1.8 0 1.2l-.5 1.2c2.6-.9 5.1-.8 7.6.4 2.5 1.2 4.3 3.1 5.3 5.7s.9 5.2-.3 7.8l-4.3 9.2c-.2.4-.5.7-.9.8-.4.2-.8.1-1.2 0-.4-.2-.7-.5-.8-.9-.1-.4-.1-.8 0-1.2l4.3-9.2c.8-1.8.9-3.6.2-5.4-.7-1.8-1.9-3.1-3.7-4-1.8-.8-3.6-.9-5.4-.2-1.8.7-3.1 1.9-4 3.7l-4.3 9.2c-.2.4-.5.7-.9.8-.4.1-.8.1-1.2 0-.4-.2-.7-.5-.8-.9-.1-.4-.1-.8 0-1.2l8-17.1zM1596.6 507.8c-1.4 2.7-3.5 4.5-6.4 5.4-2.9.9-5.7.7-8.3-.7-2.7-1.4-4.5-3.5-5.4-6.4-.9-2.9-.7-5.7.7-8.3 1.4-2.7 3.5-4.5 6.4-5.4 2.9-.9 5.7-.7 8.3.7 2.7 1.4 4.5 3.5 5.4 6.4 1 2.8.7 5.6-.7 8.3zm-6.1-12c-1.9-1-3.9-1.2-6-.5-2.1.6-3.6 1.9-4.6 3.8-1 1.9-1.2 3.9-.5 6 .6 2.1 1.9 3.6 3.8 4.6 1.9 1 3.9 1.2 6 .5 2.1-.6 3.6-1.9 4.6-3.8 1-1.9 1.2-3.9.5-6-.6-2.1-1.8-3.6-3.8-4.6zM1604.1 524c-.4.1-.8.1-1.2-.2-.4-.2-.6-.5-.7-.9 0-.1-.1-.3 0-.4l1.7-20.7c0-.2.1-.4.2-.6.2-.4.5-.6.9-.7.4-.1.8-.1 1.2.1.4.2.6.5.8.9 0 .1.1.3.1.5l-1.4 17.2 14-10.2c.2-.1.3-.2.5-.2.4-.1.8-.1 1.2.1s.6.5.7.9.1.8-.1 1.2c-.1.2-.2.3-.4.5l-16.8 12.2c-.4.2-.5.3-.7.3zM1631.6 534.5c.4.2.6.5.7 1 .1.4 0 .8-.2 1.2-.2.4-.5.6-1 .7-2.6.5-5.1 0-7.5-1.4-2.6-1.6-4.2-3.8-5-6.7-.7-2.9-.3-5.7 1.3-8.3s3.8-4.2 6.7-5c2.9-.7 5.7-.3 8.3 1.3 2.6 1.6 4.2 3.8 5 6.7.7 2.9.3 5.7-1.3 8.3-.2.4-.5.6-1 .7-.4.1-.8 0-1.2-.2L1622 524c-.5 1.4-.6 2.9-.2 4.5.5 2.1 1.7 3.7 3.5 4.8 1.7 1 3.4 1.4 5.3 1 .3 0 .7 0 1 .2zm5.1-5.3c.5-1.4.6-2.9.2-4.5-.5-2.1-1.7-3.7-3.5-4.8-1.8-1.1-3.8-1.4-5.9-.9-1.6.4-2.9 1.1-3.9 2.3l13.1 7.9zM1646.4 526.1c.2-.4.6-.6 1-.7.4-.1.8 0 1.2.2.4.2.6.6.7 1 .1.4 0 .8-.2 1.2l-.9 1.4c3-.7 5.8-.2 8.3 1.5 1.3.8 2.3 1.8 3.1 2.9.1.2.3.4.3.7.1.4 0 .8-.2 1.2-.2.4-.6.6-1 .7-.4.1-.8 0-1.2-.2-.2-.1-.4-.3-.5-.5-.6-.8-1.3-1.5-2.2-2.1-1.8-1.2-3.8-1.5-5.9-1.1s-3.7 1.6-4.9 3.4l-5.1 7.9c-.2.4-.6.6-1 .7-.4.1-.8 0-1.2-.2-.4-.2-.6-.6-.7-1-.1-.4 0-.8.2-1.2l10.2-15.8zM1693.3 546.2c.2-.4.6-.6 1-.6.4-.1.8 0 1.2.3.4.2.6.6.6 1 .1.4 0 .8-.3 1.2l-10.9 15.4c-1.8 2.5-4.1 4-7.1 4.5s-5.7-.1-8.2-1.9c-2.5-1.8-4-4.1-4.5-7.1s.1-5.7 1.9-8.2 4.1-4 7.1-4.5 5.7.1 8.2 1.9c2.5 1.8 4 4.1 4.5 7.1v.1l6.5-9.2zm-10.9 15.4c1.3-1.8 1.7-3.7 1.3-5.9-.4-2.1-1.4-3.8-3.2-5.1-1.8-1.3-3.7-1.7-5.9-1.3-2.1.4-3.8 1.4-5.1 3.2-1.3 1.8-1.7 3.7-1.3 5.9.4 2.1 1.4 3.8 3.2 5.1 1.8 1.3 3.7 1.7 5.9 1.3 2.2-.3 3.8-1.4 5.1-3.2zM1697.6 580c.3.3.5.6.6 1 .1.4 0 .8-.3 1.2s-.6.5-1 .6c-2.7.2-5.1-.5-7.3-2.2-2.4-1.8-3.8-4.2-4.3-7.2-.4-3 .3-5.7 2.1-8.1 1.8-2.4 4.2-3.8 7.2-4.3 3-.4 5.7.3 8.1 2.1 2.4 1.8 3.8 4.2 4.3 7.2.4 3-.3 5.7-2.1 8.1-.3.3-.6.5-1 .6-.4.1-.8 0-1.2-.3l-13.6-10.2c-.7 1.4-.9 2.9-.7 4.5.3 2.1 1.3 3.8 3.1 5.1 1.6 1.2 3.3 1.7 5.1 1.5.4.1.7.2 1 .4zm5.6-4.8c.7-1.4.9-2.9.7-4.5-.3-2.1-1.3-3.8-3.1-5.1-1.7-1.3-3.7-1.8-5.8-1.5-1.6.2-3 .9-4.1 1.9l12.3 9.2zM1728.7 573.5c.3-.3.6-.5 1.1-.6.4 0 .8.1 1.1.4.3.3.5.6.6 1.1s-.1.8-.4 1.1l-6.8 8.2c2.7-.2 5.1.6 7.2 2.3 2.2 1.8 3.4 4.1 3.6 6.9.3 2.8-.5 5.3-2.3 7.4l-6.5 7.8c-.3.3-.6.5-1.1.6-.4 0-.8-.1-1.1-.4-.3-.3-.5-.6-.6-1.1 0-.4.1-.8.4-1.1l6.5-7.8c1.2-1.5 1.8-3.2 1.6-5.1-.2-1.9-1-3.5-2.5-4.8-1.5-1.2-3.2-1.8-5.1-1.6-1.9.2-3.5 1-4.8 2.5l-6.5 7.8c-.3.3-.6.5-1.1.6-.4 0-.8-.1-1.1-.4-.3-.3-.5-.6-.6-1.1s.1-.8.4-1.1l18-21.6zM1743.7 618.4c.3.3.5.6.5 1.1 0 .4-.1.8-.4 1.1s-.6.5-1.1.5c-2.7 0-5-.9-7.1-2.7-2.3-2-3.5-4.5-3.7-7.5-.2-3 .7-5.6 2.7-7.9 2-2.3 4.5-3.5 7.5-3.7 3-.2 5.6.7 7.9 2.7 2.3 2 3.5 4.5 3.7 7.5.2 3-.7 5.6-2.7 7.9-.3.3-.6.5-1.1.5-.4 0-.8-.1-1.1-.4l-12.8-11.3c-.8 1.3-1.1 2.8-1 4.4.1 2.1 1 3.9 2.6 5.4 1.5 1.3 3.1 1.9 5 1.9.5.1.8.3 1.1.5zm6-4.3c.8-1.3 1.1-2.8 1-4.4-.1-2.1-1-3.9-2.6-5.4-1.6-1.4-3.5-2.1-5.7-1.9-1.6.1-3 .6-4.2 1.6l11.5 10.1zM1766.2 606c.3-.3.7-.5 1.1-.5.4 0 .8.1 1.1.4s.5.7.5 1.1c0 .4-.1.8-.4 1.1l-18.1 19.5 1.1 1.1c.3.3.5.7.5 1.1 0 .4-.1.8-.4 1.1-.3.3-.7.5-1.1.5-.4 0-.8-.1-1.1-.4l-2.3-2.1c-.3-.3-.5-.7-.5-1.1 0-.4.1-.8.4-1.1l19.2-20.7zM1768.6 642c.3.3.5.7.5 1.1 0 .4-.1.8-.4 1.1-.3.3-.7.5-1.1.5-2.7-.1-5-1.2-7-3.1-2.2-2.1-3.3-4.7-3.3-7.7s1-5.6 3.1-7.8 4.7-3.3 7.7-3.3 5.6 1 7.8 3.1 3.3 4.7 3.3 7.7-1 5.6-3.1 7.8c-.3.3-.7.5-1.1.5-.4 0-.8-.1-1.1-.4l-12.2-11.9c-.8 1.3-1.2 2.7-1.2 4.3 0 2.2.8 4 2.4 5.5 1.4 1.4 3 2.1 4.9 2.2.3 0 .6.1.8.4zm6.2-4c.8-1.3 1.2-2.7 1.2-4.3 0-2.2-.8-4-2.4-5.5-1.6-1.5-3.4-2.2-5.6-2.2-1.6 0-3.1.5-4.3 1.4l11.1 10.6zM1803.2 654.4c.4 0 .8.2 1.1.5s.4.7.4 1.1c0 .3-.1.5-.2.8l-7.2 13.1 13.9-6.3c.2 0 .4-.1.6-.1.4 0 .8.2 1.1.5s.4.7.4 1.1c0 .4-.2.8-.5 1.1-.2.1-.3.3-.5.3l-17.9 8.2c-.2.1-.4.1-.7.1-.4 0-.8-.2-1.1-.5s-.4-.7-.4-1.1c0-.2.1-.5.2-.7l7.3-13.3-13.8 6.3c-.2.1-.4.1-.7.1-.4 0-.8-.2-1.1-.5s-.4-.7-.4-1.1c0-.2.1-.5.2-.7l9.4-17.3c.1-.2.2-.4.4-.5.3-.3.7-.4 1.1-.4.4 0 .8.2 1.1.5s.4.7.4 1.1c0 .2-.1.4-.1.5l-7.3 13.4 13.6-6.2c.1.1.4 0 .7 0zM1814.8 691.7c.3.3.4.7.4 1.1 0 .4-.2.8-.5 1.1-.3.3-.7.4-1.1.4-2.6-.4-4.9-1.6-6.6-3.7-2-2.3-2.8-4.9-2.6-8 .2-3 1.5-5.5 3.8-7.5s4.9-2.8 8-2.6c3 .2 5.5 1.5 7.5 3.8s2.8 4.9 2.6 8c-.2 3-1.5 5.5-3.8 7.5-.3.3-.7.4-1.1.4s-.8-.2-1.1-.5l-11.1-13c-1 1.2-1.5 2.6-1.6 4.2-.2 2.1.5 4 1.9 5.7 1.3 1.5 2.8 2.4 4.7 2.6 0 .1.3.3.6.5zm6.5-3.4c1-1.2 1.5-2.6 1.6-4.2.2-2.1-.5-4-1.9-5.7-1.4-1.6-3.2-2.5-5.3-2.7-1.6-.1-3.1.2-4.4.9l10 11.7zM1831.6 688.2c.3-.3.7-.4 1.1-.3.4 0 .8.2 1.1.6.3.3.4.7.3 1.1 0 .4-.2.8-.6 1.1l-1.3 1.1c3.1.3 5.6 1.6 7.5 4 1 1.2 1.6 2.4 2.1 3.7.1.2.1.5.1.8-.1.4-.2.8-.6 1.1-.3.3-.7.4-1.1.3-.4 0-.8-.2-1.1-.6-.2-.2-.3-.4-.3-.6-.3-1-.8-1.9-1.5-2.7-1.4-1.7-3.1-2.6-5.3-2.8-2.1-.2-4.1.4-5.7 1.7l-7.3 5.9c-.3.3-.7.4-1.1.3-.4 0-.8-.2-1.1-.6-.3-.3-.4-.7-.3-1.1 0-.4.2-.8.6-1.1l14.5-11.9zM1842.2 725.6c.3.3.4.7.3 1.2-.1.4-.3.8-.6 1-.3.3-.7.4-1.2.3-2.6-.5-4.8-1.9-6.4-4-1.8-2.4-2.6-5.1-2.2-8.1.4-3 1.8-5.4 4.2-7.2 2.4-1.8 5.1-2.6 8.1-2.2 3 .4 5.4 1.8 7.2 4.2 1.8 2.4 2.6 5.1 2.2 8.1-.4 3-1.8 5.4-4.2 7.2-.3.3-.7.4-1.2.3-.4-.1-.8-.3-1-.6l-10.4-13.5c-1 1.1-1.6 2.5-1.8 4.1-.3 2.1.2 4.1 1.6 5.8 1.2 1.5 2.7 2.5 4.5 2.8.4.1.7.3.9.6zm6.7-3.1c1-1.1 1.6-2.5 1.8-4.1.3-2.1-.2-4.1-1.6-5.8-1.3-1.7-3-2.7-5.2-3-1.6-.2-3.1 0-4.4.7l9.4 12.2zM1866.6 717.6c.3-.3.7-.3 1.2-.3.4.1.8.3 1 .6s.3.7.3 1.2c-.1.4-.3.8-.6 1l-21.4 15.8.9 1.3c.3.3.4.7.3 1.2-.1.4-.3.8-.6 1-.3.3-.7.3-1.2.3s-.8-.3-1-.6l-1.9-2.5c-.3-.3-.4-.7-.3-1.2.1-.4.3-.8.6-1l22.7-16.8zM1883.3 740.8c.4-.2.7-.3 1.2-.3.4.1.8.3 1 .6.2.4.3.7.3 1.2-.1.4-.3.8-.6 1l-15.4 10.8c-2.5 1.7-5.2 2.3-8.2 1.8-3-.5-5.3-2-7.1-4.5s-2.3-5.2-1.8-8.2c.5-3 2-5.3 4.5-7.1 2.5-1.7 5.2-2.3 8.2-1.8s5.3 2 7.1 4.5 2.3 5.2 1.8 8.2v.1l9-6.3zm-15.3 10.8c1.8-1.2 2.8-2.9 3.2-5 .4-2.1-.1-4.1-1.3-5.8s-2.9-2.8-5-3.2c-2.1-.4-4.1.1-5.8 1.3-1.8 1.2-2.8 2.9-3.2 5-.4 2.1.1 4.1 1.3 5.8 1.2 1.8 2.9 2.8 5 3.2 2.1.4 4 0 5.8-1.3z"/></svg>