<svg xmlns="http://www.w3.org/2000/svg" viewBox="0 0 2453 2453"><title>SS_bottom slogan_CZ</title><path fill="#03709C" d="M754 549.7l5.1-3.7c2.3-1.7 4.8-2.3 7.6-1.8s5 1.8 6.6 4.1c1.7 2.3 2.3 4.8 1.8 7.6-.4 2.8-1.8 5-4.1 6.6l-3.8 2.8 5.5 7.6c.3.3.3.7.3 1.2-.1.4-.3.8-.6 1s-.7.3-1.2.3c-.4-.1-.8-.3-1-.6L753.6 552c-.3-.3-.3-.7-.3-1.2.1-.5.3-.8.7-1.1zm3.1 1.6l8.3 11.4 3.8-2.8c1.6-1.1 2.5-2.7 2.8-4.6.3-1.9-.1-3.7-1.3-5.2-1.1-1.6-2.7-2.5-4.6-2.8-1.9-.3-3.7.1-5.2 1.3l-3.8 2.7zM780.8 539.4c-.2.2-.5.3-.8.3l-5.6.1c-.7 0-1.1-.3-1.4-.7-.2-.4-.3-.7-.2-1.2.1-.4.3-.8.7-1 .3-.2.6-.3 1-.3l4.5-.1 1.7-4.1c.1-.3.3-.6.6-.8.4-.2.7-.3 1.2-.2.4.1.8.3 1 .7.3.4.3 1 .1 1.6l-2.1 5.2c-.2.1-.4.3-.7.5zm-4.2 7.6c-.2-.4-.3-.7-.2-1.2.1-.4.3-.8.7-1s.7-.3 1.2-.2c.4.1.8.3 1 .7l1 1.4c.6-3 2.1-5.4 4.6-7.1 1.3-.9 2.6-1.4 3.9-1.7.2-.1.5-.1.8 0 .4.1.8.3 1 .7.2.4.3.7.2 1.2-.1.4-.3.8-.7 1-.2.1-.4.2-.7.3-1 .2-1.9.6-2.8 1.2-1.8 1.2-2.9 2.9-3.3 5s0 4.1 1.2 5.9l5.3 7.7c.2.4.3.7.2 1.2-.1.4-.3.8-.7 1s-.7.3-1.2.2c-.4-.1-.8-.3-1-.7L776.6 547zM794 525.2l-1.4 6.6c-.1.4-.3.7-.7.9-.4.2-.8.3-1.2.2s-.8-.3-1-.7c-.2-.3-.3-.7-.3-1.1l1.4-6.6c.1-.4.3-.8.7-1s.8-.3 1.2-.2c.4.1.8.3 1 .7.3.4.4.8.3 1.2zm-.3 10.2c-.2-.4-.3-.8-.2-1.2.1-.4.3-.8.7-1s.8-.3 1.2-.2c.4.1.8.3 1 .7l10.3 15.8c.2.4.3.8.2 1.2-.1.4-.3.8-.7 1s-.8.3-1.2.2-.8-.3-1-.7l-10.3-15.8zM800.4 531c-.2-.4-.3-.8-.2-1.2.1-.4.3-.7.7-1 .4-.2.8-.3 1.2-.2.4.1.7.3 1 .7l.7 1.1c.6-2.6 2.1-4.7 4.4-6.1 2.4-1.5 4.9-1.9 7.7-1.3 2.7.6 4.9 2.1 6.3 4.5l5.4 8.6c.2.4.3.8.2 1.2-.1.4-.3.7-.7 1s-.8.3-1.2.2c-.4-.1-.7-.3-1-.7l-5.4-8.6c-1-1.6-2.5-2.7-4.4-3.1-1.9-.4-3.7-.1-5.3.9-1.6 1-2.7 2.5-3.1 4.4-.4 1.9-.1 3.7.9 5.3l5.4 8.6c.2.4.3.8.2 1.2-.1.4-.3.7-.7 1-.4.2-.8.3-1.2.2s-.7-.3-1-.7l-9.9-16zM845.4 523.5c-.8 3-2.5 5.3-5.1 6.8-2.6 1.5-5.4 1.9-8.3 1.1-2.9-.8-5.1-2.4-6.7-5.1-1.5-2.6-1.9-5.4-1.1-8.3.8-2.9 2.4-5.1 5.1-6.7 2.6-1.5 5.4-1.9 8.3-1.1 2.9.8 5.1 2.4 6.7 5.1l4.7 8.1c.2.4.3.8.2 1.2-.1.4-.3.7-.7 1s-.8.3-1.2.2c-.4-.1-.7-.3-1-.7l-.9-1.6zm-15.9-20l-1.7 6.5c-.1.4-.4.7-.7.9-.4.2-.8.3-1.2.2-.4-.1-.7-.3-1-.7-.2-.3-.3-.7-.2-1.1l1.7-6.5c.1-.4.4-.7.7-1 .4-.2.8-.3 1.2-.2.4.1.7.3 1 .7.2.4.3.8.2 1.2zm1.3 10.6c-1.9 1.1-3.1 2.7-3.6 4.8s-.3 4.1.8 5.9c1.1 1.9 2.7 3.1 4.8 3.6 2.1.5 4.1.3 5.9-.8 1.9-1.1 3.1-2.7 3.6-4.8.5-2.1.3-4.1-.8-5.9-1.1-1.9-2.7-3.1-4.8-3.6s-4-.3-5.9.8zM848.4 497.8c-.3.1-.5.2-.8.2l-5.6-.5c-.6-.1-1.1-.4-1.3-.8-.2-.4-.2-.8-.1-1.2.1-.4.4-.7.8-.9.3-.2.7-.2 1-.2l4.4.4 2.1-3.9c.1-.3.4-.6.7-.8.4-.2.8-.2 1.2-.1.4.1.7.4.9.8.2.5.2 1 0 1.6l-2.6 5c-.3.1-.5.3-.7.4zm2 14.1c-1.3.2-2.2.2-2.8 0-1.3-.4-2.2-1.1-2.8-2.2-.6-1.1-.7-2.4-.3-3.7.7-2.6 2.4-4.6 5.1-6.1 2.9-1.6 6-1.8 9.3-.6.3.1.5.3.7.7.2.4.2.8.1 1.2-.1.4-.4.7-.8.9-.4.2-.7.3-1.1.1-.4-.1-.6-.2-.8-.2-2.1-.6-4.1-.4-6 .6s-3.1 2.5-3.6 4.3c-.1.5 0 1 .2 1.4.3.5.8.7 1.4.6l10-1.8c1.3-.2 2.2-.2 2.8 0 1.3.4 2.2 1.1 2.8 2.2.6 1.1.7 2.4.3 3.7-.7 2.6-2.4 4.6-5.1 6.1-2.9 1.6-6 1.8-9.3.6-.3-.1-.5-.4-.7-.7-.2-.4-.2-.8-.1-1.2.1-.4.4-.7.8-.9.4-.2.7-.3 1.1-.1.4.1.6.2.8.2 2.1.6 4.1.4 6-.6 1.9-1 3.1-2.5 3.6-4.3.1-.5 0-1-.2-1.4-.3-.5-.8-.7-1.4-.6l-10 1.8zM863.7 484.8l-2 6.4c-.1.4-.4.7-.8.9-.4.2-.8.2-1.2.1-.4-.1-.7-.4-.9-.8-.2-.4-.2-.7-.1-1.1l2-6.4c.1-.4.4-.7.8-.9s.8-.2 1.2-.1c.4.1.7.4.9.8.2.3.2.7.1 1.1zm-1.3 10.1c-.2-.4-.2-.8-.1-1.2.1-.4.4-.7.8-.9s.8-.2 1.2-.1c.4.1.7.4.9.8l8.7 16.6c.2.4.2.8.1 1.2-.1.4-.4.7-.8.9s-.8.2-1.2.1c-.4-.1-.7-.4-.9-.8l-8.7-16.6zM880.6 506.4c.2.4.2.8.1 1.2s-.4.7-.8.9c-.4.2-.8.2-1.2.1-.4-.1-.7-.4-.9-.8l-8.2-16.9c-.2-.4-.2-.8-.1-1.2.1-.4.4-.7.8-.9.4-.2.8-.2 1.2-.1.4.1.7.4.9.8l.2.4c.8-1.9 2.2-3.3 4.1-4.2 2.1-1 4.3-1.2 6.6-.4.5.2.9.4 1.4.6.1-.5.2-1 .4-1.4.8-2.3 2.2-3.9 4.4-4.9 2.1-1 4.3-1.2 6.6-.4 2.3.8 3.9 2.2 4.9 4.4l5.2 10.5c.2.4.2.8.1 1.2-.1.4-.4.7-.8.9-.4.2-.8.2-1.2.1-.4-.1-.7-.4-.9-.8l-5.2-10.5c-.7-1.4-1.7-2.3-3.1-2.8-1.4-.5-2.8-.4-4.2.3-1.4.7-2.3 1.7-2.8 3.1-.5 1.4-.4 2.8.3 4.2l5.2 10.5c.2.4.2.8.1 1.2-.1.4-.4.7-.8.9-.4.2-.8.2-1.2.1-.4-.1-.7-.4-.9-.8l-5.2-10.5c-.7-1.4-1.7-2.3-3.1-2.8-1.4-.5-2.8-.4-4.2.3-1.4.7-2.3 1.7-2.8 3.1-.5 1.4-.4 2.8.3 4.2l4.8 10.4zM922.5 482.8c.4-.2.8-.2 1.2 0 .4.2.7.4.9.8.2.4.2.8 0 1.2-1.1 2.4-3 4.2-5.5 5.3-2.8 1.2-5.6 1.3-8.4.2-2.8-1.1-4.8-3-6-5.8-1.2-2.8-1.3-5.6-.2-8.4 1.1-2.8 3-4.8 5.8-6 2.8-1.2 5.6-1.3 8.4-.2 2.8 1.1 4.8 3 6 5.8.2.4.2.8 0 1.2-.2.4-.4.7-.8.9l-15.6 6.9c.9 1.3 2.1 2.2 3.6 2.8 2 .8 4 .7 6-.1 1.8-.8 3.1-2 3.9-3.7.2-.6.4-.8.7-.9zm-1.3-7.3c-.9-1.3-2.1-2.2-3.6-2.8-2-.8-4-.7-6 .1-2 .9-3.4 2.3-4.1 4.3-.6 1.5-.7 3-.4 4.5l14.1-6.1zM935.3 461.2c-.2-.4-.1-.8 0-1.2s.5-.7.9-.8c.4-.2.8-.1 1.2 0 .4.2.7.5.8.9l.5 1.2c1.1-2.5 3-4.2 5.5-5.2 2.6-1 5.2-.9 7.8.2 2.6 1.1 4.4 3 5.4 5.6l3.6 9.5c.2.4.1.8 0 1.2-.2.4-.5.7-.9.8s-.8.1-1.2 0c-.4-.2-.7-.5-.8-.9l-3.6-9.5c-.7-1.8-1.9-3.1-3.7-3.9-1.8-.8-3.6-.8-5.4-.1-1.8.7-3.1 1.9-3.9 3.7-.8 1.8-.8 3.6-.1 5.4l3.6 9.5c.2.4.1.8 0 1.2-.2.4-.5.7-.9.8s-.8.1-1.2 0c-.4-.2-.7-.5-.8-.9l-6.8-17.5zM981.2 454.3c1 2.8.8 5.6-.5 8.3-1.3 2.7-3.4 4.6-6.2 5.6-2.8 1-5.6.8-8.3-.5-2.7-1.3-4.6-3.4-5.6-6.2-1-2.8-.8-5.6.5-8.3 1.3-2.7 3.4-4.6 6.2-5.6 2.8-1 5.6-.8 8.3.5 2.8 1.3 4.6 3.4 5.6 6.2zm-12.8-3.7c-2 .7-3.5 2-4.4 4-.9 1.9-1 3.9-.3 6 .7 2 2 3.5 4 4.4 1.9.9 3.9 1 6 .3 2-.7 3.5-2 4.4-4 .9-1.9 1-3.9.3-6-.7-2-2-3.5-4-4.4-2-.9-4-1-6-.3zM998.3 459.9c-.2.4-.5.6-.9.7s-.8.1-1.2-.1c-.1 0-.2-.1-.4-.3l-13.9-15.4c-.1-.2-.2-.3-.3-.5-.1-.4-.1-.8.1-1.2.2-.4.5-.6.9-.8.4-.1.8-.1 1.2.1.1.1.3.2.4.3l11.6 12.8 2.2-17.1c0-.2.1-.3.2-.5.2-.4.5-.6.9-.8.4-.1.8-.1 1.2.1.4.2.6.5.8.9.1.2.1.4.1.6l-2.6 20.6c-.2.4-.2.5-.3.6zM1007.4 429.9c.1.5.1 1-.2 1.5-.3.5-.6.8-1.2.9-.5.1-1 .1-1.5-.2-.5-.3-.8-.6-.9-1.2s-.1-1 .2-1.5c.3-.5.6-.8 1.2-.9.5-.1 1-.1 1.5.2.4.3.7.7.9 1.2zm-1.7 7c-.1-.4-.1-.8.1-1.2.2-.4.5-.6.9-.7.4-.1.8-.1 1.2.1.4.2.6.5.8.9l5.2 18c.1.4.1.8-.1 1.2-.2.4-.5.6-.9.7-.4.1-.8.1-1.2-.1-.4-.2-.6-.5-.7-.9l-5.3-18zM1013.5 434.5c-.1-.4-.1-.8.2-1.2.2-.4.5-.6 1-.7.4-.1.8-.1 1.2.2.4.2.6.5.7 1l.3 1.2c1.4-2.3 3.4-3.9 6.1-4.6 2.7-.7 5.3-.4 7.7 1 2.4 1.4 4 3.5 4.8 6.2l2.6 9.9c.1.4.1.8-.2 1.2-.2.4-.5.6-1 .7-.4.1-.8.1-1.2-.2-.4-.2-.6-.5-.7-1l-2.6-9.9c-.5-1.9-1.6-3.3-3.3-4.3-1.7-1-3.5-1.2-5.4-.7-1.9.5-3.3 1.6-4.3 3.3-1 1.7-1.2 3.5-.7 5.4l2.6 9.9c.1.4.1.8-.2 1.2-.2.4-.5.6-1 .7-.4.1-.8.1-1.2-.2-.4-.2-.6-.5-.7-1l-4.7-18.1zM1041.3 434.9l10.9-11.4c.2-.2.5-.3.8-.4.4-.1.8 0 1.2.2.4.2.6.6.7 1 .1.4 0 .8-.2 1.2-.1.1-.1.2-.2.2l-7.5 7.8 11.5 8.1c.3.2.6.6.7 1 .1.4 0 .8-.2 1.2-.2.4-.5.6-1 .7-.4.1-.8 0-1.2-.2l-12-8.4-2.7 2.8 1.8 7.5c.1.4 0 .8-.2 1.2-.2.4-.5.6-1 .7-.4.1-.8 0-1.2-.2-.4-.2-.6-.5-.7-1l-6.5-27.4c-.1-.4 0-.8.2-1.2.2-.4.6-.6 1-.7.4-.1.8 0 1.2.2.4.2.6.6.7 1l3.9 16.1zM1069.5 440.3l-11-16.1c-.2-.2-.3-.4-.3-.7-.1-.4 0-.8.2-1.2.2-.4.6-.6 1-.7s.8 0 1.2.2c.2.1.4.3.5.5l9.2 13.6 3.2-16.1c0-.2.1-.4.3-.7.2-.4.6-.6 1-.7.4-.1.8 0 1.2.2.4.2.6.6.7 1 .1.3 0 .5 0 .7l-5.8 29.7c0 .2-.1.4-.3.6-.2.4-.6.6-1 .7s-.8 0-1.2-.2c-.4-.2-.6-.6-.7-1-.1-.3 0-.5 0-.7l1.8-9.1zM1111.4 431.1c.4-.1.8 0 1.2.3s.6.6.6 1c.1.4 0 .8-.3 1.2-.3.4-.6.6-1 .6l-15.4 2.5c-.4.1-.8 0-1.2-.3s-.6-.6-.6-1c-.1-.4 0-.7.2-1l10.8-18.2-12.1 2c-.4.1-.8 0-1.2-.3s-.6-.6-.6-1c-.1-.4 0-.8.3-1.2.3-.4.6-.6 1-.6l15.4-2.5c.4-.1.8 0 1.2.3.3.3.6.6.6 1 .1.4 0 .7-.2 1.1l-10.7 18.1 12-2zM1139 430.2c-.3.3-.6.5-1.1.6-.5.1-.8-.1-1.2-.3l-.3-.3-10.8-17.8c-.1-.2-.2-.4-.2-.6 0-.4.1-.8.3-1.1s.6-.5 1-.6c.4 0 .8.1 1.2.3.1.1.2.2.3.4l8.9 14.8 5.3-16.4c.1-.2.2-.3.3-.4.3-.3.6-.5 1-.6.4 0 .8.1 1.1.3.3.3.5.6.6 1v.6l-6.4 19.8c.2.1.1.2 0 .3zM1167.4 422.6c.4 0 .8.1 1.1.4.3.3.5.6.5 1.1 0 .4-.1.8-.4 1.1-1.9 1.9-4.2 3-6.9 3.2-3 .3-5.7-.6-8-2.5s-3.6-4.4-3.8-7.4.6-5.7 2.5-8 4.4-3.6 7.4-3.8c3-.3 5.7.6 8 2.5s3.6 4.4 3.8 7.4c0 .4-.1.8-.4 1.1-.3.3-.6.5-1.1.5l-17 1.4c.4 1.5 1.2 2.7 2.5 3.8 1.6 1.4 3.5 2 5.7 1.8 1.9-.2 3.6-.9 4.9-2.3.5-.2.8-.3 1.2-.3zm1-7.3c-.4-1.5-1.2-2.7-2.5-3.8-1.6-1.4-3.5-2-5.7-1.8-2.2.2-3.9 1.1-5.3 2.7-1 1.2-1.6 2.6-1.8 4.1l15.3-1.2zM1178.9 416.1c-1.2-.4-2.1-.8-2.6-1.2-1-.9-1.5-1.9-1.6-3.2s.3-2.4 1.3-3.5c1.8-2 4.2-3.1 7.2-3.3 3.3-.2 6.1 1 8.6 3.5.2.2.3.5.3.9s-.1.8-.4 1.1c-.3.3-.6.5-1.1.5-.4 0-.8-.1-1.1-.4-.3-.3-.5-.4-.6-.6-1.6-1.4-3.5-2.1-5.6-2-2.2.1-3.8.9-5.1 2.3-.3.4-.4.9-.4 1.4.1.6.4 1 1 1.2l9.8 2.7c1.2.4 2.1.8 2.6 1.2 1 .9 1.5 1.9 1.6 3.2.1 1.3-.3 2.4-1.3 3.5-1.8 2-4.2 3.1-7.2 3.3-3.3.2-6.1-1-8.6-3.5-.2-.3-.3-.6-.3-.9 0-.4.1-.8.4-1.1.3-.3.6-.5 1.1-.5.4 0 .8.1 1.1.4.3.3.5.4.6.6 1.6 1.4 3.5 2.1 5.6 2 2.2-.1 3.8-.9 5.1-2.3.3-.4.4-.9.4-1.4-.1-.6-.4-1-1-1.2l-9.8-2.7zM1199.2 424.4c0 .4-.1.8-.4 1.1s-.7.5-1.1.5c-.4 0-.8-.1-1.1-.4-.3-.3-.5-.7-.5-1.1l-.4-18.7c0-.4.1-.8.4-1.1.3-.3.7-.5 1.1-.5.4 0 .8.1 1.1.4.3.3.5.7.5 1.1v.4c1.5-1.3 3.3-2 5.4-2.1 2.4 0 4.4.8 6.1 2.4.4.3.7.7 1 1.1.3-.4.6-.8.9-1.1 1.6-1.7 3.7-2.6 6-2.6 2.4 0 4.4.8 6.1 2.4 1.7 1.6 2.6 3.7 2.6 6l.2 11.7c0 .4-.1.8-.4 1.1s-.7.5-1.1.5c-.4 0-.8-.1-1.1-.4-.3-.3-.5-.7-.5-1.1l-.2-11.7c0-1.5-.6-2.8-1.7-3.8s-2.4-1.6-3.9-1.5c-1.5 0-2.8.6-3.8 1.7s-1.6 2.4-1.5 3.9l.2 11.7c0 .4-.1.8-.4 1.1-.3.3-.7.5-1.1.5s-.8-.1-1.1-.4c-.3-.3-.5-.7-.5-1.1l-.2-11.7c0-1.5-.6-2.8-1.7-3.8s-2.4-1.6-3.9-1.5c-1.5 0-2.8.6-3.8 1.7s-1.6 2.4-1.5 3.9l.3 11.4zM1238.2 397.1l-4.8 4.7c-.3.3-.7.4-1.1.4-.4 0-.8-.2-1.1-.5-.3-.3-.4-.7-.4-1.1 0-.4.1-.8.4-1l4.8-4.7c.3-.3.7-.4 1.1-.4.4 0 .8.2 1.1.5.3.3.4.7.4 1.1 0 .4-.1.7-.4 1zm-6.1 8.2c0-.4.2-.8.5-1.1.3-.3.7-.4 1.1-.4.4 0 .8.2 1.1.5.3.3.4.7.4 1.1l-.4 18.7c0 .4-.2.8-.5 1.1s-.7.4-1.1.4c-.4 0-.8-.2-1.1-.5-.3-.3-.4-.7-.4-1.1l.4-18.7zM1240 405.4c0-.4.2-.8.5-1.1.3-.3.7-.4 1.1-.4s.8.2 1.1.5c.3.3.4.7.4 1.1v1.7c2.2-2.1 4.9-3.2 7.9-3.1 1.5 0 2.9.3 4.2.9.2.1.4.2.6.4.3.3.4.7.4 1.1 0 .4-.2.8-.5 1.1-.3.3-.7.4-1.1.4-.2 0-.5-.1-.7-.2-.9-.4-1.9-.6-3-.7-2.2-.1-4 .7-5.6 2.1-1.6 1.5-2.4 3.3-2.4 5.5l-.2 9.4c0 .4-.2.8-.5 1.1-.3.3-.7.4-1.1.4-.4 0-.8-.2-1.1-.5-.3-.3-.4-.7-.4-1.1l.4-18.6zM1278.4 425.6c0 .4-.2.8-.5 1.1s-.7.4-1.1.4c-.4 0-.8-.2-1.1-.5-.3-.3-.4-.7-.4-1.1l.1-1.3c-2 1.8-4.4 2.6-7.2 2.5-2.8-.1-5.1-1.3-7-3.4-1.9-2.1-2.7-4.5-2.6-7.3l.5-10.1c0-.4.2-.8.5-1.1.3-.3.7-.4 1.1-.4.4 0 .8.2 1.1.5.3.3.4.7.4 1.1l-.5 10.1c-.1 1.9.5 3.6 1.8 5.1s2.9 2.2 4.9 2.3c1.9.1 3.6-.5 5.1-1.8s2.2-2.9 2.3-4.9l.5-10.1c0-.4.2-.8.5-1.1.3-.3.7-.4 1.1-.4.4 0 .8.2 1.1.5.3.3.4.7.4 1.1l-1 18.8zM1314.5 400.4c0-.4.2-.8.6-1.1.3-.3.7-.4 1.2-.3s.8.2 1.1.6c.3.3.4.7.3 1.1l-1.9 18.8c-.3 3-1.6 5.5-4 7.4-2.3 1.9-5 2.7-8.1 2.4-3-.3-5.5-1.6-7.4-4-1.9-2.3-2.7-5-2.4-8.1.3-3 1.6-5.5 4-7.4 2.3-1.9 5-2.7 8.1-2.4 3 .3 5.5 1.6 7.4 4 0 0 0 .1.1.1l1-11.1zm-1.8 18.8c.2-2.2-.4-4.1-1.7-5.8s-3.1-2.6-5.3-2.8c-2.2-.2-4.1.4-5.8 1.7s-2.6 3.1-2.8 5.3c-.2 2.2.4 4.1 1.7 5.8s3.1 2.6 5.3 2.8c2.2.2 4.1-.4 5.8-1.7s2.5-3.1 2.8-5.3zM1334.9 427.7c.4.1.8.3 1 .6.3.3.4.7.3 1.2-.1.4-.3.8-.6 1-2.2 1.5-4.7 2-7.4 1.7-3-.4-5.4-1.8-7.2-4.2-1.8-2.4-2.6-5.1-2.2-8.1.4-3 1.8-5.4 4.2-7.2 2.4-1.8 5.1-2.6 8.1-2.2 3 .4 5.4 1.8 7.2 4.2 1.8 2.4 2.6 5.1 2.2 8.1-.1.4-.3.8-.6 1-.3.3-.7.4-1.2.3l-16.9-2.2c.1 1.5.6 2.9 1.6 4.2 1.3 1.7 3 2.7 5.2 3 1.9.3 3.7-.1 5.2-1.2.4-.2.8-.2 1.1-.2zm2.6-6.9c-.1-1.5-.6-2.9-1.6-4.2-1.3-1.7-3-2.7-5.2-3-2.1-.3-4.1.2-5.8 1.5-1.3 1-2.2 2.2-2.6 3.6l15.2 2.1zm-6.1-12.6c-.3 0-.6-.1-.8-.3l-4.2-3.7c-.5-.5-.7-.9-.6-1.5.1-.4.3-.8.6-1 .3-.3.7-.4 1.2-.3.4 0 .7.2.9.5l3.4 2.9 4-2c.3-.2.6-.3 1-.2.4.1.8.3 1 .6.3.3.4.7.3 1.2-.1.5-.4.9-1 1.3l-5 2.5c-.2 0-.5.1-.8 0zM1353.3 432.7c.4.1.8.3 1 .6.3.3.3.7.3 1.2-.1.4-.3.8-.6 1-.3.3-.7.3-1.2.3-5.1-.8-7.3-3.8-6.5-8.9l1.7-10.8-1.5-.2c-.4-.1-.8-.3-1-.6-.3-.3-.3-.7-.3-1.2.1-.4.3-.8.6-1 .4-.3.7-.3 1.2-.3l1.5.2 1.2-7.7c.1-.4.3-.8.6-1s.7-.3 1.2-.3c.4.1.8.3 1 .6.3.4.3.7.3 1.2l-1.2 7.7 3.1.5c.4.1.8.3 1 .6.3.3.3.7.3 1.2s-.3.8-.6 1c-.4.3-.7.3-1.2.3l-3.1-.5-1.7 10.8c-.5 3.1.8 4.9 3.9 5.3zM1373.8 434.2c.4.1.8.3 1 .7.2.4.3.7.3 1.2-.1.4-.3.8-.6 1-2.3 1.4-4.8 1.8-7.5 1.3-3-.5-5.3-2.1-7-4.6-1.7-2.5-2.3-5.2-1.8-8.2s2.1-5.3 4.6-7c2.5-1.7 5.2-2.3 8.2-1.8s5.3 2.1 7 4.6c1.7 2.5 2.3 5.2 1.8 8.2-.1.4-.3.8-.7 1-.4.2-.7.3-1.2.3l-16.8-3.1c0 1.5.5 3 1.4 4.3 1.2 1.8 2.9 2.9 5 3.2 1.9.4 3.7 0 5.3-.9.3-.2.6-.3 1-.2zm2.9-6.8c0-1.5-.5-3-1.4-4.3-1.2-1.8-2.9-2.9-5-3.2-2.1-.4-4.1 0-5.8 1.2-1.3.9-2.3 2.1-2.8 3.5l15 2.8zM1383.9 439.9c-.1.4-.3.7-.7 1-.4.2-.8.3-1.2.2-.4-.1-.7-.3-1-.7s-.3-.8-.2-1.2l4.1-18.3c.1-.4.3-.7.7-1 .4-.2.8-.3 1.2-.2.4.1.7.3 1 .7.2.4.3.8.2 1.2l-.1.4c1.8-.9 3.7-1.2 5.8-.7 2.3.5 4.1 1.8 5.4 3.8.3.4.5.9.7 1.3l1.2-.9c2-1.3 4.2-1.6 6.5-1.1s4.1 1.8 5.4 3.8c1.3 2 1.6 4.2 1.1 6.5l-2.6 11.4c-.1.4-.3.7-.7 1-.4.2-.8.3-1.2.2-.4-.1-.7-.3-1-.7s-.3-.8-.2-1.2l2.6-11.4c.3-1.5.1-2.8-.7-4.1-.8-1.3-1.9-2.1-3.4-2.4-1.5-.3-2.8-.1-4.1.7-1.3.8-2.1 1.9-2.4 3.4l-2.6 11.4c-.1.4-.3.7-.7 1-.4.2-.8.3-1.2.2-.4-.1-.7-.3-1-.7s-.3-.8-.2-1.2l2.6-11.4c.3-1.5.1-2.8-.7-4.1-.8-1.3-1.9-2.1-3.4-2.4-1.5-.3-2.8-.1-4.1.7-1.3.8-2.1 1.9-2.4 3.4l-2.7 11.4zM1430.4 431.7c.1-.4.4-.7.7-.9.4-.2.8-.3 1.2-.1.4.1.7.4.9.7s.3.8.1 1.2l-.3 1.2c2.4-1.3 4.9-1.6 7.5-.8 2.7.8 4.7 2.4 6.1 4.8 1.4 2.4 1.7 5 .9 7.7l-2.7 9.8c-.1.4-.4.7-.7.9s-.8.3-1.2.1c-.4-.1-.7-.4-.9-.7-.2-.4-.3-.8-.1-1.2l2.7-9.8c.5-1.9.3-3.6-.6-5.3-1-1.7-2.4-2.8-4.2-3.3-1.9-.5-3.6-.3-5.3.6-1.7 1-2.8 2.4-3.3 4.2l-2.7 9.8c-.1.4-.4.7-.7.9-.4.2-.8.3-1.2.1s-.7-.4-.9-.7c-.2-.4-.3-.8-.1-1.2l4.8-18zM1466.2 460.1c-2.7 1.4-5.6 1.7-8.4.8s-5-2.7-6.4-5.4c-1.4-2.7-1.6-5.5-.7-8.3.9-2.9 2.7-5 5.4-6.4s5.5-1.6 8.3-.7c2.9.9 5 2.7 6.4 5.4 1.4 2.7 1.6 5.5.7 8.3l-2.8 8.9c-.1.4-.4.7-.8.9-.4.2-.8.2-1.2.1-.4-.1-.7-.4-.9-.8-.2-.4-.2-.8-.1-1.2l.5-1.6zm-2.8-17.1c-2.1-.6-4-.5-6 .5s-3.2 2.5-3.8 4.6c-.6 2.1-.5 4 .5 6 1 1.9 2.5 3.2 4.6 3.8 2.1.6 4 .5 6-.5 1.9-1 3.2-2.5 3.8-4.6s.5-4-.5-6c-1-1.9-2.6-3.2-4.6-3.8zM1499.7 469.7c.4.1.7.4.9.8.2.4.2.8.1 1.2-.1.4-.4.7-.9.9-2.5 1-5 1-7.6 0-2.8-1-4.9-2.9-6.2-5.7-1.3-2.7-1.4-5.5-.4-8.4s2.9-4.9 5.7-6.2c2.7-1.3 5.5-1.4 8.4-.3 2.6.9 4.5 2.6 5.8 4.9.2.4.3.9.1 1.3-.1.4-.4.7-.8.9-.4.2-.8.2-1.2.1-.4-.1-.6-.4-.8-.7-.9-1.7-2.3-2.9-4.1-3.6-2-.7-4-.7-6 .2-2 .9-3.3 2.4-4 4.4-.7 2-.7 4 .2 6 .9 2 2.4 3.3 4.4 4 1.8.7 3.6.7 5.4 0 .3 0 .6 0 1 .2zM1520 477.6c.4.2.7.4.9.8.2.4.2.8 0 1.2s-.4.7-.8.9c-2.5.9-5.1.8-7.6-.2-2.8-1.1-4.8-3.1-6-5.8-1.2-2.8-1.2-5.6-.1-8.4 1.1-2.8 3.1-4.8 5.8-6 2.8-1.2 5.6-1.2 8.4-.1 2.8 1.1 4.8 3.1 6 5.8 1.2 2.8 1.2 5.6.1 8.4-.2.4-.4.7-.8.9-.4.2-.8.2-1.2 0l-15.9-6.3c-.3 1.5-.1 3 .5 4.5.9 2 2.3 3.4 4.3 4.2 1.8.7 3.6.8 5.4.1.3-.1.6-.1 1 0zm4.2-6c.3-1.5.1-3-.5-4.5-.9-2-2.3-3.4-4.3-4.2-2-.8-4-.8-6 .1-1.5.6-2.6 1.6-3.5 2.9l14.3 5.7zM1536.8 458.4c.2-.4.5-.7.9-.8.4-.2.8-.2 1.2 0 .4.2.7.5.8.9.2.4.2.8 0 1.2l-10.4 24.4 1.4.6c.4.2.7.5.8.9.2.4.2.8 0 1.2-.2.4-.5.7-.9.8-.4.2-.8.2-1.2 0l-2.9-1.2c-.4-.2-.7-.5-.8-.9-.2-.4-.2-.8 0-1.2l11.1-25.9zM1551.3 491.4c.4.2.7.5.8.9.2.4.1.8 0 1.2-.2.4-.5.7-.9.8-2.6.8-5.1.6-7.6-.5-2.8-1.2-4.7-3.3-5.7-6.1-1.1-2.8-1-5.6.3-8.4 1.2-2.8 3.3-4.7 6.1-5.7 2.8-1.1 5.6-1 8.4.3 2.8 1.2 4.7 3.3 5.7 6.1 1.1 2.8 1 5.6-.3 8.4-.2.4-.5.7-.9.8-.4.2-.8.1-1.2 0l-15.5-7c-.4 1.5-.3 3 .3 4.5.8 2 2.1 3.5 4.1 4.4 1.8.8 3.6.9 5.4.4.4-.3.7-.2 1-.1zm4.5-5.8c.4-1.5.3-3-.3-4.5-.8-2-2.1-3.5-4.1-4.4-2-.9-4-1-6-.2-1.5.6-2.7 1.5-3.6 2.7l14 6.4zm3.6-16.1l-6.3 2.4c-.4.1-.8.1-1.1-.1-.4-.2-.7-.5-.8-.9-.2-.4-.1-.8 0-1.2.2-.4.4-.6.8-.8l6.3-2.4c.4-.1.8-.1 1.2.1.4.2.7.5.8.9.2.4.1.8 0 1.2-.3.3-.5.6-.9.8zM1559.7 499.4c-.2.4-.5.6-.9.8-.4.1-.8.1-1.2-.1-.4-.2-.6-.5-.8-.9-.1-.4-.1-.8.1-1.2l8.4-16.7c.2-.4.5-.6.9-.8.4-.1.8-.1 1.2.1.4.2.6.5.8.9.1.4.1.8-.1 1.2l-.2.4c2-.5 3.9-.2 5.8.7 2.1 1.1 3.5 2.7 4.3 5 .2.5.3.9.4 1.4.4-.2.9-.4 1.4-.6 2.2-.7 4.4-.6 6.5.5 2.1 1.1 3.5 2.7 4.3 5 .7 2.2.6 4.4-.5 6.5l-5.3 10.4c-.2.4-.5.6-.9.8-.4.1-.8.1-1.2-.1-.4-.2-.6-.5-.8-.9-.1-.4-.1-.8.1-1.2l5.3-10.4c.7-1.3.8-2.7.3-4.2-.5-1.4-1.4-2.5-2.7-3.2-1.3-.7-2.7-.8-4.2-.3s-2.5 1.4-3.2 2.7l-5.3 10.4c-.2.4-.5.6-.9.8-.4.1-.8.1-1.2-.1-.4-.2-.6-.5-.8-.9-.1-.4-.1-.8.1-1.2l5.3-10.4c.7-1.3.8-2.7.3-4.2s-1.4-2.5-2.7-3.2c-1.3-.7-2.7-.8-4.2-.3-1.4.5-2.5 1.4-3.2 2.7l-5.2 10.6zM1605.6 512.8c-.8-1-1.3-1.8-1.5-2.4-.4-1.2-.2-2.4.4-3.6.6-1.1 1.6-1.9 2.9-2.2 2.6-.7 5.2-.4 7.8 1.1 2.8 1.6 4.6 4.1 5.4 7.6.1.3 0 .6-.2.9-.2.4-.5.6-.9.7-.4.1-.8.1-1.2-.1-.4-.2-.6-.5-.7-.9-.1-.4-.2-.6-.2-.8-.6-2.1-1.8-3.6-3.7-4.7-1.9-1.1-3.7-1.3-5.5-.8-.5.2-.8.5-1.1.9-.3.6-.2 1.1.2 1.6l6.8 7.5c.8 1 1.3 1.8 1.5 2.4.4 1.2.2 2.4-.4 3.6-.6 1.1-1.6 1.9-2.9 2.2-2.6.7-5.2.4-7.8-1.1-2.9-1.6-4.6-4.1-5.4-7.6 0-.3 0-.6.2-.9.2-.4.5-.6.9-.7.4-.1.8-.1 1.2.1.4.2.6.5.7.9.1.4.2.6.2.8.6 2.1 1.8 3.6 3.7 4.7s3.7 1.3 5.5.8c.5-.2.8-.5 1.1-.9.3-.6.2-1.1-.2-1.6l-6.8-7.5zM1624.6 536c-.4.1-.8 0-1.2-.2-.4-.2-.6-.6-.7-1v-.4l2.4-20.6c0-.2.1-.4.2-.6.2-.4.5-.6 1-.7.4-.1.8 0 1.2.2.4.2.6.5.7 1v.5l-2 17.2 14.3-9.7c.2-.1.3-.2.5-.2.4-.1.8 0 1.2.2s.6.5.7 1c.1.4 0 .8-.2 1.2-.1.2-.3.3-.4.5l-17.2 11.7c-.3-.2-.4-.1-.5-.1zM1651.7 547.3c.4.2.6.6.7 1 .1.4 0 .8-.2 1.2-.2.4-.6.6-1 .7-2.7.4-5.1-.2-7.4-1.7-2.5-1.6-4.1-3.9-4.7-6.9s-.1-5.7 1.5-8.2c1.6-2.5 3.9-4.1 6.9-4.7 3-.6 5.7-.1 8.2 1.5s4.1 3.9 4.7 6.9c.6 3 .1 5.7-1.5 8.2-.2.4-.6.6-1 .7-.4.1-.8 0-1.2-.2l-14.3-9.3c-.6 1.4-.7 2.9-.4 4.5.5 2.1 1.6 3.7 3.4 4.9 1.6 1.1 3.4 1.5 5.2 1.2.4 0 .8 0 1.1.2zm5.3-5.1c.6-1.4.7-2.9.4-4.5-.4-2.1-1.6-3.7-3.4-4.9-1.8-1.2-3.8-1.5-5.9-1.1-1.6.3-2.9 1.1-4 2.2l12.9 8.3zm-.1-14c-.3-.2-.4-.4-.6-.6l-2.2-5.1c-.2-.6-.2-1.1.1-1.6.2-.4.6-.6 1-.7.4-.1.8 0 1.2.2.3.2.5.5.6.8l1.8 4.1h4.5c.3 0 .7 0 1 .3.4.2.6.6.7 1s0 .8-.2 1.2c-.3.4-.8.7-1.4.7l-5.6.1c-.4-.2-.6-.2-.9-.4zM1666.1 559.8c.4.2.6.6.6 1 .1.4 0 .8-.3 1.2-.2.4-.6.6-1 .6-.4.1-.8 0-1.2-.3-4.3-3-4.9-6.6-2-10.9l6.2-9-1.3-.9c-.4-.2-.6-.6-.6-1-.1-.4 0-.8.3-1.2.2-.4.6-.6 1-.6.4-.1.8 0 1.2.3l1.3.9 4.5-6.4c.2-.4.6-.6 1-.6.4-.1.8 0 1.2.3.4.2.6.6.6 1 .1.4 0 .8-.3 1.2l-4.5 6.4 2.6 1.8c.4.2.6.6.6 1 .1.4 0 .8-.3 1.2-.2.4-.6.6-1 .6-.4.1-.8 0-1.2-.3l-2.6-1.8-6.2 9c-1.6 2.6-1.2 4.7 1.4 6.5zM1684 569.8c.3.3.6.6.6 1 .1.4 0 .8-.3 1.2-.3.3-.6.6-1 .6-2.7.2-5.1-.4-7.3-2-2.4-1.8-3.9-4.1-4.4-7.1-.5-3 .2-5.7 1.9-8.1 1.8-2.4 4.1-3.9 7.1-4.4 3-.5 5.7.2 8.1 1.9 2.4 1.8 3.9 4.1 4.4 7.1.5 3-.2 5.7-1.9 8.1-.3.3-.6.6-1 .6s-.8 0-1.2-.3l-13.8-10c-.6 1.4-.8 2.9-.6 4.5.3 2.1 1.4 3.8 3.1 5.1 1.6 1.1 3.3 1.6 5.2 1.4.4.1.8.2 1.1.4zm5.5-4.8c.6-1.4.8-2.9.6-4.5-.3-2.1-1.4-3.8-3.1-5.1-1.8-1.3-3.7-1.7-5.8-1.4-1.6.3-3 .9-4.1 2l12.4 9zm.7-14c-.2-.2-.4-.4-.5-.6l-2-5.3c-.2-.6-.1-1.1.2-1.6.3-.3.6-.6 1-.6s.8 0 1.2.3c.3.2.5.5.6.8l1.6 4.2 4.4.2c.4 0 .7.1 1 .3.3.3.6.6.6 1 .1.4 0 .8-.3 1.2-.3.4-.8.6-1.4.7l-5.6-.2c-.3-.1-.6-.2-.8-.4z"/></svg>