<svg id="Layer_2" data-name="Layer 2" xmlns="http://www.w3.org/2000/svg" viewBox="0 0 2453 2453"><defs><style>.cls-1{fill:#03709c;}</style></defs><title>SS_bottom slogan_SW</title><g id="SW"><path class="cls-1" d="M658.26 637.34a1.56 1.56 0 0 1-2.21-2.21l14.36-14.36a1.56 1.56 0 0 1 2.21 2.21l-6.08 6.08 18.78 18.79a1.56 1.56 0 0 1-2.21 2.21l-18.78-18.78z"/><path class="cls-1" d="M703.79 630a1.56 1.56 0 0 1-2.26 2.16l-.88-.92a10.16 10.16 0 0 1-17.48 6.59l-7-7.34a1.56 1.56 0 0 1 2.26-2.16l7 7.34a7 7 0 0 0 10.16-9.72l-7-7.34a1.56 1.56 0 0 1 2.26-2.16zM693.4 614a1.56 1.56 0 0 1 2.32-2.09l.85.94a10.16 10.16 0 0 1 17.67-6.06l6.8 7.55a1.56 1.56 0 0 1-2.32 2.09l-6.8-7.55a7 7 0 0 0-10.45 9.41l6.8 7.55a1.56 1.56 0 0 1-2.32 2.09zM736.47 599a10.67 10.67 0 0 1-3.85 7.55 10.94 10.94 0 1 1 1.29-15.41l6.09 7.16a1.56 1.56 0 0 1-2.39 2zm-16-6.77a7.8 7.8 0 1 0 5.7-1.82 7.53 7.53 0 0 0-5.66 1.82zM724.64 574.58a1.56 1.56 0 0 1 2.43-2l16.7 20.66 1.22-1a1.56 1.56 0 0 1 2 2.43l-2.43 2a1.57 1.57 0 0 1-2.2-.23zM760.61 577.26a1.57 1.57 0 0 1 2.19.28 1.56 1.56 0 0 1 .33 1.16 10.95 10.95 0 1 1-2.06-8.9 1.57 1.57 0 0 1-.28 2.19l-13.49 10.42a7.85 7.85 0 0 0 9.9.25 7.37 7.37 0 0 0 2.85-4.55 1.55 1.55 0 0 1 .56-.85zm-3.08-6.7a7.84 7.84 0 0 0-12.15 9.38zM777.11 567.77a1.56 1.56 0 0 1 1.85 2.52q-6.31 4.61-10.92-1.69l-6.46-8.83-1.26.92a1.56 1.56 0 0 1-1.85-2.52l1.26-.92-4.61-6.3a1.56 1.56 0 0 1 2.52-1.85l4.61 6.31 2.54-1.86a1.56 1.56 0 0 1 1.85 2.52l-2.54 1.86 6.46 8.83q2.77 3.78 6.55 1.01zM795.17 554.89a10.67 10.67 0 0 1-4.55 7.15 10.94 10.94 0 1 1 2.75-15.22l5.35 7.7a1.56 1.56 0 0 1-2.57 1.78zm-15.24-8.25a7.8 7.8 0 1 0 5.84-1.28 7.53 7.53 0 0 0-5.84 1.28zM796 522.67a1.56 1.56 0 0 1 2.65-1.66l5.66 9a10.16 10.16 0 0 1 18.45-2.93l5.4 8.6a1.56 1.56 0 0 1-2.65 1.66l-5.4-8.6a7 7 0 0 0-11.91 7.48l5.4 8.6a1.56 1.56 0 0 1-2.65 1.66zM845.95 523.21a10.67 10.67 0 0 1-5.09 6.78 10.94 10.94 0 1 1 3.92-15l4.73 8.09a1.56 1.56 0 0 1-2.7 1.58zm-14.55-9.41a7.8 7.8 0 1 0 5.92-.82 7.53 7.53 0 0 0-5.93.82zM846.72 505.2v-.11a10.94 10.94 0 1 1 .87 8.33l-9-16.52a1.56 1.56 0 0 1 2.75-1.49zm14.28 9.87a7.8 7.8 0 1 0-5.95.63 7.53 7.53 0 0 0 5.95-.63zM889.92 499.94a10.67 10.67 0 0 1-5.52 6.43 10.94 10.94 0 1 1 4.88-14.68l4.2 8.38a1.56 1.56 0 0 1-2.79 1.4zM876 489.61a7.8 7.8 0 1 0 6-.43 7.53 7.53 0 0 0-6 .43zM888.26 481.83a1.56 1.56 0 0 1 2.83-1.32l.73 1.56a10.67 10.67 0 0 1 5.7-6.27 11 11 0 0 1 4.14-1.07 2 2 0 0 1 .76.1 1.56 1.56 0 0 1 .88.82 1.57 1.57 0 0 1-1.44 2.22 7.75 7.75 0 0 0-3 .75 7.8 7.8 0 0 0-3.81 10.38l4 8.5a1.56 1.56 0 0 1-2.83 1.32zM907.62 466.1a2 2 0 1 1-1.09-1 1.88 1.88 0 0 1 1.09 1zm-.68 7.14a1.56 1.56 0 0 1 2.86-1.27l7.61 17.14a1.56 1.56 0 0 1-2.86 1.27zM947.63 474.81a1.56 1.56 0 0 1 1.17 2.9l-14.5 5.83a1.57 1.57 0 0 1-2-.87 1.54 1.54 0 0 1-.07-1l6.51-20.11-11.4 4.58a1.56 1.56 0 0 1-1.17-2.9l14.5-5.83a1.57 1.57 0 0 1 2.07 1.95l-6.49 20zM968.24 466.94a10.67 10.67 0 0 1-6.19 5.78 10.94 10.94 0 1 1 6.48-14l3.24 8.8a1.56 1.56 0 0 1-2.93 1.08zm-12.68-11.81a7.8 7.8 0 1 0 6 .23 7.53 7.53 0 0 0-6-.23zM985.07 450.89l10-12.19a1.54 1.54 0 0 1 .73-.48 1.57 1.57 0 0 1 2 1 1.49 1.49 0 0 1-.1 1.18 2.71 2.71 0 0 1-.15.25l-6.88 8.35 12 7.16a1.57 1.57 0 0 1 .74.91 1.57 1.57 0 0 1-1 2 1.58 1.58 0 0 1-1.22-.1l-12.56-7.49-2.44 3 2.35 7.39a1.56 1.56 0 0 1-3 .95L977.05 436a1.56 1.56 0 0 1 3-.95zM1025.8 450.66a1.56 1.56 0 0 1-3 .86l-.35-1.22a10.16 10.16 0 0 1-18.54-2.33l-2.79-9.77a1.56 1.56 0 0 1 3-.86l2.79 9.77a7 7 0 0 0 13.52-3.86l-2.79-9.77a1.56 1.56 0 0 1 3-.86zM1038.9 445.68a1.56 1.56 0 0 1 .78 3q-7.56 2-9.52-5.61l-2.73-10.59-1.51.39a1.56 1.56 0 0 1-.78-3l1.51-.39-2-7.56a1.56 1.56 0 0 1 3-.78l2 7.56 3-.79a1.56 1.56 0 0 1 .78 3l-3 .79 2.73 10.59q1.2 4.56 5.74 3.39zM1061.76 432.24a10.94 10.94 0 1 1-4.87-6.81 10.54 10.54 0 0 1 4.87 6.81zm-12.42-5.14a7.8 7.8 0 1 0 5.9 1 7.53 7.53 0 0 0-5.9-1zM1067.59 428.9l11.28-11a1.54 1.54 0 0 1 .78-.39 1.56 1.56 0 0 1 1.61 2.39l-.17.23-7.73 7.56 11.17 8.44a1.57 1.57 0 0 1 .64 1 1.57 1.57 0 0 1-1.23 1.84 1.58 1.58 0 0 1-1.2-.24l-11.66-8.82-2.75 2.68 1.52 7.6a1.56 1.56 0 0 1-3.06.61l-5.51-27.58a1.56 1.56 0 0 1 3.06-.61zM1105 431.93a10.67 10.67 0 0 1-7.15 4.54 10.94 10.94 0 1 1 8.95-12.62l1.57 9.24a1.56 1.56 0 0 1-3.08.52zM1094.75 418a7.8 7.8 0 1 0 5.83 1.33 7.53 7.53 0 0 0-5.83-1.33zM1119.43 403.08a1.56 1.56 0 0 1 3.1-.38l2.26 18.61a7.81 7.81 0 1 0 15.51-1.88l-2.3-18.61a1.56 1.56 0 0 1 3.1-.38l2.26 18.61a10.94 10.94 0 1 1-21.72 2.64zM1144.78 400.13a1.56 1.56 0 0 1 3.11-.31l2.62 26.43 1.55-.15a1.56 1.56 0 0 1 .31 3.11l-3.11.31a1.57 1.57 0 0 1-1.71-1.4zM1159.69 401.88a2 2 0 1 1-.69-1.32 1.88 1.88 0 0 1 .69 1.32zm-3 6.53a1.56 1.56 0 0 1 3.11-.27l1.62 18.68a1.56 1.56 0 0 1-3.11.27zM1169.08 426.11a1.56 1.56 0 0 1-3.12.18l-1.1-18.72a1.56 1.56 0 0 1 3.12-.18v.41a8.18 8.18 0 0 1 5.34-2.29 8.28 8.28 0 0 1 6.21 2.16 9.65 9.65 0 0 1 1 1.06 9.63 9.63 0 0 1 .89-1.17 8.59 8.59 0 0 1 15 5.2l.69 11.7a1.56 1.56 0 0 1-3.12.18l-.69-11.7a5.47 5.47 0 1 0-10.92.64l.69 11.7a1.56 1.56 0 0 1-3.12.18l-.69-11.7a5.47 5.47 0 1 0-10.92.64zM1212.71 404.31a1.49 1.49 0 0 1 1.09-.47 1.56 1.56 0 0 1 1.12.43 1.74 1.74 0 0 1 .42.72l5 14.12 4.58-14.55a1.74 1.74 0 0 1 .32-.45 1.49 1.49 0 0 1 1.09-.47 1.57 1.57 0 0 1 1.59 1.54 1.62 1.62 0 0 1-.11.61l-5.92 18.81a2 2 0 0 1-.34.57 1.59 1.59 0 0 1-1.11.45 1.52 1.52 0 0 1-1.1-.41 1.84 1.84 0 0 1-.38-.56l-5-14.29-4.54 14.45a2 2 0 0 1-.34.57 1.59 1.59 0 0 1-1.11.45 1.52 1.52 0 0 1-1.1-.41 1.84 1.84 0 0 1-.38-.56l-6.54-18.6a1.61 1.61 0 0 1-.13-.6 1.57 1.57 0 0 1 1.54-1.59 1.55 1.55 0 0 1 1.12.43 2 2 0 0 1 .32.44l5.07 14.39 4.49-14.28a1.94 1.94 0 0 1 .35-.74zM1248.14 420.55a1.57 1.57 0 0 1 1.53 1.59 1.56 1.56 0 0 1-.47 1.1 10.95 10.95 0 1 1 4-8.23 1.57 1.57 0 0 1-1.59 1.53l-17-.32a7.85 7.85 0 0 0 7.56 6.39 7.37 7.37 0 0 0 5.07-1.76 1.55 1.55 0 0 1 .9-.3zm1.8-7.16a7.84 7.84 0 0 0-15.35-.29zM1256.87 405.77a1.56 1.56 0 0 1 3.12.16l-.06 1.27a10.16 10.16 0 0 1 16.8 8.17l-.51 10.14a1.56 1.56 0 0 1-3.12-.16l.51-10.14a7 7 0 0 0-14-.7l-.51 10.14a1.56 1.56 0 0 1-3.12-.16zM1298 425.49l-.08.07a10.94 10.94 0 1 1 3.82-7.45l-.88 10.9a8.22 8.22 0 0 1-2.93 5.72 11.72 11.72 0 0 1-16.53-1.34 11.65 11.65 0 0 1-1.84-2.87 1.45 1.45 0 0 1-.17-.84 1.57 1.57 0 0 1 1.68-1.43 1.55 1.55 0 0 1 1.07.54 2.37 2.37 0 0 1 .29.49 8.91 8.91 0 0 0 1.34 2.09 8.58 8.58 0 0 0 12.11 1 5.85 5.85 0 0 0 1.86-3.59zm-6.54-16a7.8 7.8 0 1 0 5.32 2.72 7.53 7.53 0 0 0-5.32-2.77zM1324.1 430a1.56 1.56 0 0 1-3.11-.35l.14-1.26a10.16 10.16 0 0 1-16.26-9.2l1.13-10.09a1.56 1.56 0 0 1 3.11.35l-1.11 10.11a7 7 0 0 0 14 1.57l1.13-10.09a1.56 1.56 0 0 1 3.11.35zM1329.69 411.84a1.56 1.56 0 0 1 3.09.44l-.18 1.26a10.16 10.16 0 0 1 16 9.69l-1.44 10.05a1.56 1.56 0 0 1-3.09-.44l1.44-10.05a7 7 0 0 0-13.92-2l-1.44 10.05a1.56 1.56 0 0 1-3.09-.44zM1354.68 415.56a1.56 1.56 0 0 1 3.08.51l-3.05 18.5a1.56 1.56 0 0 1-3.08-.51zm4.49-5.59a2 2 0 1 1-.34-1.45 1.88 1.88 0 0 1 .34 1.48zM1376 426.71l14.66-5.81a1.54 1.54 0 0 1 .87-.06 1.57 1.57 0 0 1 1.22 1.84 1.49 1.49 0 0 1-.66 1l-.25.15-10 4 7 12.1a1.57 1.57 0 0 1 .2 1.16 1.57 1.57 0 0 1-1.84 1.22 1.58 1.58 0 0 1-1-.68l-7.35-12.63-3.57 1.41-1.53 7.6a1.56 1.56 0 0 1-3.06-.62l5.56-27.57a1.56 1.56 0 0 1 3.06.62zM1409.16 425.29a1.49 1.49 0 0 1 1.17-.18 1.55 1.55 0 0 1 1 .69 1.74 1.74 0 0 1 .23.8l1.31 14.91 8-13a1.74 1.74 0 0 1 .43-.36 1.49 1.49 0 0 1 1.17-.18 1.57 1.57 0 0 1 1.16 1.88 1.61 1.61 0 0 1-.25.56L1413 447.2a2 2 0 0 1-.47.47 1.59 1.59 0 0 1-1.18.16 1.52 1.52 0 0 1-1-.67 1.84 1.84 0 0 1-.23-.64l-1.33-15.09-8 12.88a2 2 0 0 1-.47.47 1.59 1.59 0 0 1-1.18.16 1.52 1.52 0 0 1-1-.67 1.84 1.84 0 0 1-.23-.64l-1.65-19.63a1.62 1.62 0 0 1 0-.62 1.57 1.57 0 0 1 1.88-1.16 1.55 1.55 0 0 1 1 .69 2 2 0 0 1 .2.51l1.34 15.2 7.88-12.72a1.94 1.94 0 0 1 .6-.61zM1440.65 452.25a10.67 10.67 0 0 1-8.4 1.08 10.94 10.94 0 1 1 13.46-7.62l-2.5 9a1.56 1.56 0 0 1-3-.83zm-3.4-17a7.8 7.8 0 1 0 4.72 3.68 7.52 7.52 0 0 0-4.72-3.68zM1481.75 436.29a1.49 1.49 0 0 1 1.18-.08 1.55 1.55 0 0 1 .91.78 1.78 1.78 0 0 1 .16.67l-1.31 23.64 13.3-19.58a1.65 1.65 0 0 1 .56-.43 1.49 1.49 0 0 1 1.18-.08 1.57 1.57 0 0 1 1 2 2.16 2.16 0 0 1-.33.61l-16.12 23.78a2.17 2.17 0 0 1-.73.64 1.52 1.52 0 0 1-1.2.09 1.46 1.46 0 0 1-.89-.79 1.89 1.89 0 0 1-.2-.93l1.31-23.31-13.08 19.31a2.18 2.18 0 0 1-.73.64 1.52 1.52 0 0 1-1.2.09 1.46 1.46 0 0 1-.89-.79 1.89 1.89 0 0 1-.2-.93l1.61-28.71a2.16 2.16 0 0 1 .11-.69 1.57 1.57 0 0 1 2-1 1.55 1.55 0 0 1 .91.78 1.79 1.79 0 0 1 .16.67l-1.31 23.64 13.3-19.58a1.29 1.29 0 0 1 .5-.44zM1509.13 475.53a10.67 10.67 0 0 1-8.47.28 10.94 10.94 0 1 1 14.12-6.32l-3.34 8.76a1.56 1.56 0 0 1-2.92-1.12zm-1.78-17.24a7.8 7.8 0 1 0 4.35 4.11 7.53 7.53 0 0 0-4.35-4.11zM1524.89 482.13a1.56 1.56 0 0 1-1.19 2.89q-7.22-3-4.24-10.2l4.17-10.11-1.44-.6a1.56 1.56 0 0 1 1.19-2.89l1.44.6 3-7.22a1.56 1.56 0 0 1 2.89 1.19l-3 7.22 2.91 1.2a1.56 1.56 0 0 1-1.19 2.89l-2.91-1.2-4.17 10.1q-1.79 4.35 2.54 6.13zM1551.26 485.12a10.94 10.94 0 1 1 .2-8.37 10.54 10.54 0 0 1-.2 8.37zm-6.85-11.57a7.8 7.8 0 1 0 4.13 4.33 7.53 7.53 0 0 0-4.13-4.33zM1560.7 498.26a1.56 1.56 0 0 1-1.34 2.82q-7.06-3.35-3.71-10.41l4.68-9.88-1.41-.67a1.56 1.56 0 0 1 1.34-2.82l1.41.67 3.35-7.06a1.56 1.56 0 0 1 2.82 1.34l-3.35 7.06 2.84 1.35a1.56 1.56 0 0 1-1.34 2.82l-2.84-1.35-4.68 9.88q-2.01 4.24 2.23 6.25zM1586.85 502.57a10.94 10.94 0 1 1 .63-8.35 10.54 10.54 0 0 1-.63 8.35zm-6.24-11.9a7.8 7.8 0 1 0 3.9 4.53 7.53 7.53 0 0 0-3.9-4.53zM1616.93 495.84a15.62 15.62 0 0 1-15.42 27.16l-5.44-3.08a1.57 1.57 0 0 1-.59-2.13l13.88-24.46a1.57 1.57 0 0 1 2.13-.59zM1603 520.3a12.5 12.5 0 0 0 12.34-21.75l-4.08-2.31L1599 518zM1635.72 541.47a1.56 1.56 0 0 1-2.67-1.63l.66-1.08a10.16 10.16 0 0 1-10.85-15.21l5.29-8.67a1.56 1.56 0 0 1 2.67 1.63l-5.29 8.67a7 7 0 0 0 12 7.33l5.29-8.67a1.56 1.56 0 0 1 2.67 1.63zM1648.49 527.36a1.56 1.56 0 0 1 2.62 1.71l-.69 1.06a10.16 10.16 0 0 1 10.38 15.53l-5.55 8.5a1.56 1.56 0 0 1-2.62-1.71l5.55-8.5a7 7 0 0 0-11.77-7.69l-5.55 8.5a1.56 1.56 0 0 1-2.62-1.71zM1669.56 541.3a1.56 1.56 0 0 1 2.58 1.76l-10.58 15.48a1.56 1.56 0 0 1-2.58-1.76zm6.43-3.17a2 2 0 1 1 .3-1.46 1.88 1.88 0 0 1-.29 1.45zM1681.59 570.59a10.67 10.67 0 0 1-8.26-1.88 10.94 10.94 0 1 1 15.26-2.52l-5.46 7.62a1.56 1.56 0 0 1-2.54-1.82zm2.66-17.12a7.8 7.8 0 1 0 3.16 5.08 7.53 7.53 0 0 0-3.16-5.08zM1696.89 560.7a1.56 1.56 0 0 1 2.48 1.9l-.77 1a10.16 10.16 0 0 1 9.2 16.26l-6.17 8.07a1.56 1.56 0 0 1-2.48-1.9l6.17-8.07a7 7 0 0 0-11.17-8.55l-6.17 8.07a1.56 1.56 0 0 1-2.48-1.9zM1716.88 576.17a1.56 1.56 0 0 1 2.44 2l-11.71 14.65a1.56 1.56 0 0 1-2.44-2zm6.65-2.69a2 2 0 1 1 .41-1.44 1.88 1.88 0 0 1-.41 1.44zM1730 596.32l15.63 2.09a1.54 1.54 0 0 1 .79.37 1.56 1.56 0 0 1-.89 2.74h-.29l-10.72-1.43.23 14a1.57 1.57 0 0 1-.39 1.11 1.57 1.57 0 0 1-2.2.17 1.59 1.59 0 0 1-.55-1.09l-.24-14.62-3.81-.51-5.05 5.88a1.56 1.56 0 0 1-2.37-2l18.32-21.34a1.56 1.56 0 0 1 2.37 2zM1758.19 624.11a10.94 10.94 0 1 1 2.83-7.88 10.54 10.54 0 0 1-2.83 7.88zm-2.84-13.11a7.8 7.8 0 1 0 2.55 5.41 7.53 7.53 0 0 0-2.55-5.41zM1763 639.58a1.56 1.56 0 0 1-2.16 2.26q-5.64-5.41-.24-11l7.57-7.9-1.13-1.08a1.56 1.56 0 0 1 2.16-2.26l1.13 1.08 5.41-5.64a1.56 1.56 0 0 1 2.26 2.16l-5.41 5.64 2.27 2.17a1.56 1.56 0 0 1-2.16 2.26l-2.27-2.18-7.57 7.9q-3.23 3.34.14 6.59zM1779 652.4a1.57 1.57 0 0 1 0 2.21 1.55 1.55 0 0 1-1.11.47 10.94 10.94 0 1 1 8.57-3.15 1.57 1.57 0 0 1-2.21 0l-12-12.1a7.85 7.85 0 0 0 1 9.85 7.37 7.37 0 0 0 4.87 2.27 1.55 1.55 0 0 1 .88.45zm6.27-3.89a7.84 7.84 0 0 0-10.82-10.89z"/></g></svg>