<svg xmlns="http://www.w3.org/2000/svg" viewBox="0 0 2453 2453"><title>SS_bottom slogan_PL</title><path fill="#03709C" d="M803.6 517.9c-.2-.4-.3-.8-.2-1.2.1-.4.3-.7.7-1 .4-.2.8-.3 1.2-.2.4.1.7.3 1 .7l7 11.4 4.8-19.8c.1-.5.4-.8.7-1 .4-.2.8-.3 1.2-.2s.7.3 1 .7c.2.4.3.8.2 1.2l-3.6 15 17.3 7c.3.1.5.3.7.6.3.5.3.9.1 1.4-.1.3-.3.6-.6.7-.5.3-1 .3-1.5.1l-16.8-6.9-1.2 4.8 5.3 8.7c.2.4.3.8.2 1.2-.1.4-.3.7-.7 1-.4.2-.8.3-1.2.2-.4-.1-.7-.3-1-.7l-14.6-23.7zM851.7 511.2c1.5 2.6 1.8 5.4 1.1 8.3-.8 2.9-2.5 5.1-5.1 6.6-2.6 1.5-5.4 1.9-8.3 1.1-2.9-.8-5.1-2.5-6.6-5.1-1.5-2.6-1.8-5.4-1.1-8.3.8-2.9 2.5-5.1 5.1-6.6 2.6-1.5 5.4-1.9 8.3-1.1 2.9.7 5.1 2.4 6.6 5.1zm-13.4-1.4c-1.9 1.1-3.1 2.6-3.7 4.7-.6 2.1-.3 4.1.8 5.9 1.1 1.9 2.6 3.1 4.7 3.7 2.1.6 4.1.3 5.9-.8 1.9-1.1 3.1-2.6 3.7-4.7.6-2.1.3-4.1-.8-5.9-1.1-1.9-2.6-3.1-4.7-3.7-2.1-.5-4-.3-5.9.8zM857.9 507.8c-1.3.2-2.2.1-2.8-.1-1.2-.4-2.2-1.1-2.8-2.3s-.7-2.4-.3-3.7c.8-2.6 2.5-4.6 5.1-6 2.9-1.5 6-1.7 9.3-.5.3.1.5.3.7.7.2.4.2.8.1 1.2-.1.4-.4.7-.8.9-.4.2-.7.2-1.1.1-.4-.1-.6-.2-.8-.3-2.1-.6-4-.4-6 .6s-3.1 2.4-3.6 4.2c-.1.5 0 1 .2 1.4.3.5.8.7 1.4.7l10-1.7c1.3-.2 2.2-.1 2.8.1 1.2.4 2.2 1.1 2.8 2.3s.7 2.4.3 3.7c-.8 2.6-2.5 4.6-5.1 6-2.9 1.5-6 1.7-9.3.5-.3-.1-.5-.4-.7-.7-.2-.4-.2-.8-.1-1.2.1-.4.4-.7.8-.9s.7-.2 1.1-.1c.4.1.6.2.8.3 2.1.6 4 .4 6-.6 1.9-1 3.1-2.4 3.6-4.2.1-.5 0-.9-.2-1.4-.3-.5-.8-.7-1.4-.7l-10 1.7zM879.8 506.8c.2.4.2.8.1 1.2-.1.4-.4.7-.8.9s-.8.2-1.2.1c-.4-.1-.7-.4-.9-.8l-8.2-16.9c-.2-.4-.2-.8-.1-1.2.1-.4.4-.7.8-.9.4-.2.8-.2 1.2-.1.4.1.7.4.9.8l.2.4c.8-1.9 2.2-3.3 4.1-4.2 2.1-1 4.3-1.2 6.6-.4.5.2.9.4 1.3.6.1-.5.2-.9.4-1.4.8-2.2 2.2-3.9 4.4-4.9 2.1-1 4.3-1.2 6.6-.4s3.9 2.2 4.9 4.4l5.1 10.5c.2.4.2.8.1 1.2-.1.4-.4.7-.8.9s-.8.2-1.2.1c-.4-.1-.7-.4-.9-.8l-5.1-10.5c-.7-1.4-1.7-2.3-3.1-2.8-1.4-.5-2.8-.4-4.2.3-1.4.7-2.3 1.7-2.8 3.1-.5 1.4-.4 2.8.3 4.2l5.1 10.5c.2.4.2.8.1 1.2-.1.4-.4.7-.8.9-.4.2-.8.2-1.2.1-.4-.1-.7-.4-.9-.8l-5.1-10.5c-.7-1.4-1.7-2.3-3.1-2.8s-2.8-.4-4.2.3-2.3 1.7-2.8 3.1c-.5 1.4-.4 2.8.3 4.2l4.9 10.4zM902.1 468.5c.2.5.2 1 0 1.5s-.5.9-1 1.1c-.5.2-1 .2-1.5 0s-.9-.5-1.1-1c-.2-.5-.2-1 0-1.5s.5-.9 1-1.1c.5-.2 1-.2 1.5 0 .6.2.9.5 1.1 1zm-.6 7.2c-.2-.4-.2-.8 0-1.2s.4-.7.8-.9c.4-.2.8-.2 1.2 0 .4.2.7.4.9.8l7.7 17.1c.2.4.2.8 0 1.2-.2.4-.4.7-.8.9-.4.2-.8.2-1.2 0-.4-.2-.7-.4-.9-.8l-7.7-17.1zM930.4 479.4c.4-.2.8-.2 1.2 0 .4.2.7.4.9.8.2.4.2.8 0 1.3-1.2 2.4-3 4.2-5.5 5.2-2.8 1.2-5.6 1.2-8.4.1-2.8-1.1-4.8-3.1-6-5.8-1.2-2.8-1.2-5.6-.1-8.4 1.1-2.8 3.1-4.8 5.8-6 2.5-1.1 5-1.2 7.6-.4.5.2.8.5 1 .9.2.4.2.8 0 1.2-.2.4-.4.7-.8.9-.3.1-.7.2-1.1.1-1.8-.6-3.7-.5-5.5.2-2 .9-3.4 2.3-4.2 4.3-.8 2-.8 4 .1 6s2.3 3.4 4.3 4.2c2 .8 4 .8 6-.1 1.8-.8 3.1-2 3.9-3.8.2-.4.4-.6.8-.7zM951.6 473.3c.4-.2.8-.2 1.2 0 .4.2.7.5.8.9s.2.8 0 1.2-.5.7-.9.8l-14.5 5.7c-.4.2-.8.2-1.2 0-.4-.2-.7-.5-.8-.9-.1-.3-.2-.7-.1-1l6.6-20.1-11.4 4.5c-.4.2-.8.2-1.2 0-.4-.2-.7-.5-.8-.9-.2-.4-.2-.8 0-1.2.2-.4.5-.7.9-.8l14.5-5.7c.4-.2.8-.2 1.2 0 .4.2.7.5.8.9.1.4.2.7 0 1.1l-6.6 20 11.5-4.5zM950 455.4c-.1-.4-.1-.8.1-1.2.2-.4.5-.7.9-.8.4-.1.8-.1 1.2.1.4.2.7.5.8.9l.4 1.2c1.2-2.4 3.1-4.1 5.6-5.1 2.6-1 5.2-.8 7.8.4s4.3 3.1 5.2 5.7l3.5 9.5c.1.4.1.8-.1 1.2-.2.4-.5.7-.9.8-.4.1-.8.1-1.2-.1-.4-.2-.7-.5-.8-.9l-3.5-9.5c-.7-1.8-1.9-3.1-3.6-4s-3.6-.9-5.4-.2-3.1 1.9-4 3.6c-.8 1.8-.9 3.6-.2 5.4l3.5 9.5c.1.4.1.8-.1 1.2-.2.4-.5.7-.9.8-.4.1-.8.1-1.2-.1-.4-.2-.7-.5-.8-.9l-6.3-17.5zM993.3 456.4c.4-.1.8-.1 1.2.1.4.2.6.5.8.9.1.4.1.8-.1 1.2-1.4 2.3-3.4 3.9-6 4.7-2.9.9-5.7.7-8.3-.6-2.7-1.4-4.5-3.5-5.4-6.4-.9-2.9-.7-5.7.6-8.3 1.4-2.7 3.5-4.5 6.4-5.4 2.9-.9 5.7-.7 8.3.6 2.7 1.4 4.5 3.5 5.4 6.4.1.4.1.8-.1 1.2-.2.4-.5.6-.9.8l-16.2 5.3c.7 1.3 1.8 2.4 3.3 3.1 1.9 1 3.9 1.1 6 .5 1.9-.6 3.3-1.7 4.2-3.3.2-.5.4-.7.8-.8zm-.7-7.4c-.7-1.3-1.8-2.4-3.3-3.1-1.9-1-3.9-1.1-6-.5s-3.6 2-4.5 3.9c-.7 1.4-1 2.9-.8 4.4l14.6-4.7zM1008.1 436.2c-.1-.4-.1-.8.1-1.2.2-.4.5-.6.9-.7.4-.1.8-.1 1.2.1.4.2.6.5.7.9l.3 1.2c1.4-2.3 3.4-3.9 6-4.6 2.7-.7 5.3-.4 7.7 1 2.4 1.4 4 3.4 4.8 6.1l2.7 9.8c.1.4.1.8-.1 1.2-.2.4-.5.6-.9.7-.4.1-.8.1-1.2-.1s-.6-.5-.7-.9l-2.7-9.8c-.5-1.9-1.6-3.3-3.3-4.2-1.7-1-3.5-1.2-5.3-.7-1.9.5-3.3 1.6-4.2 3.3-1 1.7-1.2 3.5-.7 5.3l2.7 9.8c.1.4.1.8-.1 1.2-.2.4-.5.6-.9.7-.4.1-.8.1-1.2-.1-.4-.2-.6-.5-.7-.9l-5.1-18.1zM1054.6 433.8c.7 2.9.3 5.7-1.3 8.3-1.6 2.6-3.8 4.2-6.8 4.9-2.9.7-5.7.3-8.3-1.3-2.6-1.6-4.2-3.8-4.9-6.8-.7-2.9-.3-5.7 1.3-8.3 1.6-2.6 3.8-4.2 6.8-4.9 2.9-.7 5.7-.3 8.3 1.3 2.5 1.6 4.2 3.9 4.9 6.8zm-12.5-5c-2.1.5-3.7 1.7-4.8 3.5-1.1 1.8-1.4 3.8-.9 5.9s1.7 3.7 3.5 4.8c1.8 1.1 3.8 1.4 5.9.9 2.1-.5 3.7-1.7 4.8-3.5 1.1-1.8 1.4-3.8.9-5.9s-1.7-3.7-3.5-4.8c-1.8-1.1-3.8-1.4-5.9-.9zM1068.4 420.2c.2-.4.6-.6 1-.7.4-.1.8 0 1.2.2.2.2.4.4.5.6l7.5 13 1.8-15.1c0-.2.1-.3.2-.5.2-.4.6-.6 1-.7.4-.1.8 0 1.2.2.4.2.6.6.7 1v.6l-2.4 19.6c0 .2-.1.4-.2.6-.2.3-.6.6-1 .6-.4.1-.8 0-1.2-.2-.2-.1-.4-.3-.5-.5l-7.6-13.1-1.8 15c0 .2-.1.4-.2.6-.2.3-.6.6-1 .6-.4.1-.8 0-1.2-.2-.2-.1-.4-.3-.5-.5l-9.8-17.1c-.1-.2-.2-.4-.2-.6-.1-.4 0-.8.2-1.2.2-.4.6-.6 1-.7.4-.1.8 0 1.2.2.2.1.3.2.4.4l7.6 13.2 1.8-14.9c0 .1.1-.1.3-.4zM1090.8 410.7c.1.5 0 1-.3 1.5s-.7.7-1.3.8c-.5.1-1 0-1.5-.3-.4-.3-.7-.7-.8-1.3-.1-.5 0-1 .3-1.5.3-.4.7-.7 1.3-.8.5-.1 1 0 1.5.3.4.4.7.8.8 1.3zm-2.4 6.8c-.1-.4 0-.8.3-1.2.2-.4.6-.6 1-.6.4-.1.8 0 1.2.3.4.2.6.6.6 1l3.2 18.5c.1.4 0 .8-.3 1.2-.2.4-.6.6-1 .6-.4.1-.8 0-1.2-.3-.4-.2-.6-.6-.6-1l-3.2-18.5zM1096.4 416c-.1-.4 0-.8.3-1.2.3-.3.6-.6 1-.6.4-.1.8 0 1.2.3.3.3.6.6.6 1l.2 1.3c1.7-2.2 3.8-3.4 6.5-3.9 2.8-.4 5.3.2 7.6 1.9s3.6 3.9 4 6.7l1.5 10.1c.1.4 0 .8-.3 1.2-.3.3-.6.6-1 .6-.4.1-.8 0-1.2-.3-.3-.3-.6-.6-.6-1l-1.5-10.1c-.3-1.9-1.2-3.5-2.8-4.6-1.6-1.2-3.3-1.6-5.2-1.3s-3.5 1.2-4.6 2.8c-1.2 1.6-1.6 3.3-1.3 5.2l1.5 10.1c.1.4 0 .8-.3 1.2-.3.3-.6.6-1 .6-.4.1-.8 0-1.2-.3-.3-.3-.6-.6-.6-1l-2.8-18.7zM1124 419.4l12.1-10.1c.2-.2.5-.3.8-.3.4-.1.8.1 1.1.3.3.3.5.6.6 1 .1.4-.1.8-.3 1.1-.1.1-.1.2-.2.2l-8.3 6.9 10.5 9.2c.3.3.5.6.6 1 .1.4-.1.8-.3 1.1-.3.3-.6.5-1 .6-.4.1-.8-.1-1.2-.3l-10.9-9.7-2.9 2.5.9 7.7c.1.4-.1.8-.3 1.1-.3.3-.6.5-1 .6-.4.1-.8-.1-1.1-.3-.3-.3-.5-.6-.6-1l-3.4-27.8c-.1-.4.1-.8.3-1.1.3-.3.6-.5 1-.6.4-.1.8.1 1.1.3.3.3.5.6.6 1l1.9 16.6zM1146.3 403.1c.1.5-.1 1-.4 1.4-.3.4-.8.7-1.3.7-.5.1-1-.1-1.4-.4-.4-.3-.7-.8-.7-1.3-.1-.5.1-1 .4-1.4.3-.4.8-.7 1.3-.7.5-.1 1 .1 1.4.4.4.4.7.8.7 1.3zm-2.8 6.6c0-.4.1-.8.3-1.1.3-.3.6-.5 1.1-.6.4 0 .8.1 1.1.3.3.3.5.6.6 1l1.9 18.7c0 .4-.1.8-.3 1.1-.3.3-.6.5-1.1.6-.4 0-.8-.1-1.1-.3-.3-.3-.5-.6-.6-1l-1.9-18.7zM1181.5 397.1c0-.4.1-.8.4-1.1.3-.3.6-.5 1.1-.5.4 0 .8.1 1.1.4.3.3.5.6.5 1.1l1.2 18.7c.2 3-.7 5.7-2.7 7.9-2 2.3-4.5 3.5-7.5 3.7s-5.7-.7-7.9-2.7c-2.3-2-3.5-4.5-3.7-7.5s.7-5.7 2.7-7.9c2-2.3 4.5-3.5 7.5-3.7s5.7.7 7.9 2.7c0 0 .1 0 .1.1l-.7-11.2zm1.2 18.8c-.1-2.2-1-3.9-2.6-5.4-1.6-1.4-3.5-2.1-5.7-1.9-2.2.1-3.9 1-5.4 2.6-1.4 1.6-2.1 3.5-1.9 5.7.1 2.2 1 3.9 2.6 5.4 1.6 1.4 3.5 2.1 5.7 1.9 2.2-.1 3.9-1 5.4-2.6 1.4-1.7 2.1-3.6 1.9-5.7zM1188.2 396.9c0-.4.1-.8.4-1.1.3-.3.7-.5 1.1-.5.4 0 .8.1 1.1.4.3.3.5.7.5 1.1l1.2 26.5 1.6-.1c.4 0 .8.1 1.1.4.3.3.5.7.5 1.1 0 .4-.1.8-.4 1.1-.3.3-.7.5-1.1.5l-3.1.1c-.4 0-.8-.1-1.1-.4-.3-.3-.5-.7-.5-1.1l-1.3-28zM1217.4 422.3c-2.1 2.2-4.7 3.4-7.7 3.5-3 .1-5.6-.9-7.8-3s-3.3-4.6-3.4-7.7c-.1-3 .9-5.6 3-7.8s4.6-3.3 7.7-3.4c3-.1 5.6.9 7.8 3s3.3 4.6 3.4 7.7l.2 9.4c0 .4-.1.8-.4 1.1s-.7.5-1.1.5-.8-.1-1.1-.4c-.3-.3-.5-.7-.5-1.1l-.1-1.8zm-8.2-15.2c-2.2 0-4 .9-5.5 2.4s-2.2 3.4-2.2 5.6c0 2.2.9 4 2.4 5.5 1.6 1.5 3.4 2.2 5.6 2.2 2.2 0 4-.9 5.5-2.4 1.5-1.6 2.2-3.4 2.2-5.6 0-2.2-.9-4-2.4-5.5-1.5-1.6-3.4-2.3-5.6-2.2zM1254.6 396.3c0-.4.2-.8.5-1.1.3-.3.7-.4 1.1-.4s.8.2 1.1.5c.3.3.4.7.4 1.1l-.5 18.8c-.1 3-1.2 5.6-3.4 7.7-2.2 2.1-4.8 3.1-7.8 3-3-.1-5.6-1.2-7.7-3.4-2.1-2.2-3.1-4.8-3-7.8.1-3 1.2-5.6 3.4-7.7 2.2-2.1 4.8-3.1 7.8-3 3 .1 5.6 1.2 7.7 3.4l.1.1.3-11.2zm-.5 18.8c.1-2.2-.7-4-2.2-5.6-1.5-1.6-3.3-2.4-5.5-2.4-2.2-.1-4 .7-5.6 2.2-1.6 1.5-2.4 3.3-2.4 5.5-.1 2.2.7 4 2.2 5.6s3.3 2.4 5.5 2.4c2.2.1 4-.7 5.6-2.2s2.4-3.4 2.4-5.5zM1277.2 424c.4 0 .8.2 1.1.5.3.3.4.7.4 1.1 0 .4-.2.8-.5 1.1-.3.3-.7.4-1.1.4l-15.6-.8c-.4 0-.8-.2-1.1-.5-.3-.3-.4-.7-.4-1.1 0-.4.1-.7.4-.9l14.4-15.5-12.3-.7c-.4 0-.8-.2-1.1-.5-.3-.3-.4-.7-.4-1.1 0-.4.2-.8.5-1.1.3-.3.7-.4 1.1-.4l15.6.8c.4 0 .8.2 1.1.5.3.3.4.7.4 1.1 0 .4-.2.7-.4 1l-14.3 15.4 12.2.7zM1284.6 407.4c0-.4.2-.8.5-1.1.3-.3.7-.4 1.1-.4.4 0 .8.2 1.1.5.3.3.4.7.4 1.1l-1.4 18.7c0 .4-.2.8-.5 1.1-.3.3-.7.4-1.1.4-.4 0-.8-.2-1.1-.5-.3-.3-.4-.7-.4-1.1l1.4-18.7zm4-6c0 .5-.3 1-.7 1.3s-.9.5-1.4.5c-.5 0-1-.3-1.3-.7s-.5-.9-.5-1.4c0-.5.3-1 .7-1.3.4-.4.9-.5 1.4-.5s1 .3 1.3.7.6.8.5 1.4zM1308.2 424.5c.4 0 .8.2 1.1.6.3.3.4.7.4 1.1 0 .4-.2.8-.6 1.1-2.2 1.6-4.6 2.2-7.3 1.9-3-.3-5.5-1.6-7.4-3.9-1.9-2.3-2.7-5-2.4-8 .3-3 1.6-5.5 3.9-7.4 2.3-1.9 5-2.7 8-2.4 3 .3 5.5 1.6 7.4 3.9s2.7 5 2.4 8c0 .4-.2.8-.6 1.1-.3.3-.7.4-1.1.4l-17-1.6c.1 1.5.7 2.9 1.8 4.2 1.4 1.7 3.1 2.6 5.3 2.8 1.9.2 3.7-.3 5.2-1.4.2-.4.5-.5.9-.4zm2.3-7c-.1-1.5-.7-2.9-1.8-4.2-1.4-1.7-3.1-2.6-5.3-2.8s-4.1.4-5.7 1.7c-1.2 1-2.1 2.3-2.5 3.7l15.3 1.6zM1333 427.4c.4.1.8.3 1 .6.3.3.4.7.3 1.2-.1.4-.3.8-.6 1.1-2.2 1.5-4.7 2.1-7.4 1.7-3-.4-5.4-1.8-7.3-4.2-1.8-2.4-2.6-5.1-2.2-8.1s1.8-5.4 4.2-7.3c2.4-1.8 5.1-2.6 8.1-2.2 2.7.3 5 1.5 6.7 3.5.3.4.5.8.4 1.3-.1.4-.3.8-.6 1-.3.3-.7.4-1.2.3-.4 0-.7-.2-.9-.5-1.3-1.5-2.9-2.3-4.8-2.6-2.1-.3-4.1.3-5.8 1.6-1.7 1.3-2.7 3.1-3 5.2s.3 4.1 1.6 5.8c1.3 1.7 3.1 2.7 5.2 3 1.9.2 3.7-.2 5.3-1.3.3-.1.6-.1 1-.1zM1341.5 413.5c.1-.4.3-.8.6-1s.7-.4 1.2-.3c.4.1.8.3 1 .6s.4.7.3 1.2l-2.7 18.5c-.1.4-.3.8-.6 1-.3.3-.7.4-1.2.3-.4-.1-.8-.3-1-.6-.3-.3-.4-.7-.3-1.2l2.7-18.5zm4.4-5.6c-.1.5-.3 1-.8 1.3-.4.3-.9.4-1.4.4-.5-.1-1-.3-1.3-.8-.3-.4-.4-.9-.4-1.4.1-.5.3-1 .8-1.3.4-.3.9-.4 1.4-.4.5.1 1 .3 1.3.8.3.3.5.8.4 1.4zM1375 436.6c.4.1.8.3 1 .7.2.4.3.7.3 1.2-.1.4-.3.8-.7 1-.4.2-.7.3-1.2.3L1359 437c-.4-.1-.8-.3-1-.7-.2-.4-.3-.7-.3-1.2.1-.4.2-.7.5-.9l16.2-13.5-12.1-2.2c-.4-.1-.8-.3-1-.7s-.3-.7-.3-1.2c.1-.4.3-.8.7-1 .4-.2.7-.3 1.2-.3l15.4 2.8c.4.1.8.3 1 .7.2.4.3.7.3 1.2-.1.4-.3.7-.5.9l-16.2 13.5 12.1 2.2zM1407.9 441.5c.4.1.7.3 1 .7.2.4.3.8.2 1.2-.1.4-.3.8-.7 1-2.3 1.3-4.8 1.6-7.5 1-2.9-.7-5.2-2.3-6.8-4.8-1.6-2.5-2.1-5.3-1.4-8.2.7-2.9 2.3-5.2 4.8-6.8 2.5-1.6 5.3-2.1 8.2-1.4 2.7.6 4.8 2 6.3 4.1.3.4.4.8.3 1.3-.1.4-.3.7-.7 1-.4.2-.8.3-1.2.2-.4-.1-.7-.3-.9-.6-1.1-1.6-2.6-2.6-4.5-3-2.1-.5-4.1-.1-5.9 1-1.8 1.1-3 2.8-3.4 4.9-.5 2.1-.1 4.1 1 5.9 1.1 1.8 2.8 3 4.9 3.4 1.9.4 3.7.2 5.4-.7.2-.3.6-.3.9-.2zM1430.4 449.3c-2.7 1.6-5.5 2-8.4 1.2-2.9-.8-5.2-2.4-6.7-5s-1.9-5.4-1.2-8.3 2.4-5.2 5-6.7 5.4-1.9 8.3-1.2c2.9.8 5.2 2.4 6.7 5s1.9 5.4 1.2 8.3l-2.3 9.1c-.1.4-.3.7-.7 1-.4.2-.8.3-1.2.2-.4-.1-.7-.3-1-.7-.2-.4-.3-.8-.2-1.2l.5-1.7zm-3.7-17c-2.1-.5-4.1-.3-5.9.8-1.9 1.1-3.1 2.7-3.6 4.8-.5 2.1-.3 4.1.8 5.9 1.1 1.9 2.7 3.1 4.8 3.6 2.1.5 4.1.3 5.9-.8 1.9-1.1 3.1-2.7 3.6-4.8.5-2.1.3-4.1-.8-5.9-1.1-1.8-2.7-3-4.8-3.6zM1442.9 439.4l3.7-12.8c.1-.4.4-.7.7-.9.4-.2.8-.3 1.2-.1.4.1.7.4.9.8s.3.8.1 1.2l-2.9 9.9 2.5-1.4c.4-.2.8-.3 1.2-.1.4.1.7.4.9.8.2.4.2.8.1 1.2s-.4.7-.7.9l-5.2 2.8-3.3 11.4 1.5.4c.4.1.7.4.9.8s.3.8.1 1.2-.4.7-.8.9c-.4.2-.8.3-1.2.1l-3-.9c-.4-.1-.7-.4-.9-.7-.2-.4-.3-.8-.1-1.2l2.9-10-1.9 1c-.4.2-.8.3-1.2.1-.4-.1-.7-.4-.9-.8-.2-.4-.2-.8-.1-1.2s.4-.7.7-.9l4.8-2.5zM1466.4 458.1c.4.1.7.4.9.8.2.4.2.8.1 1.2-.1.4-.4.7-.8.9-2.5 1.1-5 1.2-7.6.4-2.9-.9-5-2.7-6.4-5.4-1.4-2.7-1.6-5.5-.7-8.3.9-2.9 2.7-5 5.4-6.4 2.7-1.4 5.5-1.6 8.3-.7 2.9.9 5 2.7 6.4 5.4 1.4 2.7 1.6 5.5.7 8.3-.1.4-.4.7-.8.9-.4.2-.8.2-1.2.1l-16.3-5.2c-.2 1.5.1 3 .8 4.4 1 1.9 2.5 3.2 4.6 3.8 1.9.6 3.6.5 5.4-.2.6-.2.9-.2 1.2 0zm3.8-6.4c.2-1.5-.1-3-.9-4.4-1-1.9-2.5-3.2-4.6-3.8s-4-.5-6 .5c-1.4.7-2.5 1.8-3.2 3.1l14.7 4.6zM1491 468.7c-2.8 1.3-5.6 1.5-8.5.5s-4.9-2.9-6.2-5.6c-1.3-2.7-1.5-5.5-.4-8.4 1-2.8 2.9-4.9 5.6-6.2 2.7-1.3 5.5-1.5 8.4-.4 2.8 1 4.9 2.9 6.2 5.6 1.3 2.7 1.5 5.5.4 8.4l-3.6 10.3c-.8 2.1-2.2 3.7-4.3 4.8-2.9 1.4-5.9 1.6-9 .5-3.1-1.1-5.3-3.1-6.7-6-.5-1.1-.9-2.2-1-3.2-.1-.3-.1-.6.1-.9.1-.4.4-.7.8-.9.4-.2.8-.2 1.2-.1.4.1.7.4.9.8.1.2.1.4.2.6.1.8.4 1.6.8 2.4 1 2.1 2.7 3.6 4.9 4.4 2.2.8 4.4.7 6.6-.4 1.4-.8 2.3-1.8 2.7-3l.9-3.2zm-2.2-17.2c-2-.7-4-.6-6 .3-1.9.9-3.3 2.4-4 4.5s-.6 4 .3 6c.9 1.9 2.4 3.3 4.5 4 2 .7 4 .6 6-.3 1.9-.9 3.3-2.4 4-4.5.7-2 .6-4-.3-6-.9-2-2.4-3.3-4.5-4zM1520 471.6c-1.1 2.8-3 4.8-5.8 6-2.8 1.2-5.6 1.3-8.4.2-2.8-1.1-4.8-3-6-5.8-1.2-2.8-1.3-5.6-.2-8.4 1.1-2.8 3-4.8 5.8-6 2.8-1.2 5.6-1.3 8.4-.2 2.8 1.1 4.8 3 6 5.8 1.2 2.8 1.3 5.6.2 8.4zm-7.4-11.3c-2-.8-4-.7-6 .1-2 .9-3.4 2.3-4.1 4.3-.8 2-.7 4 .1 6s2.3 3.4 4.3 4.1c2 .8 4 .7 6-.1 2-.9 3.4-2.3 4.1-4.3.8-2 .7-4-.1-6s-2.3-3.3-4.3-4.1zM1537.3 479c-.9-.9-1.5-1.6-1.7-2.3-.5-1.2-.5-2.4.1-3.6.5-1.2 1.4-2 2.7-2.5 2.5-1 5.1-.9 7.9.4 3 1.3 5 3.7 6.1 7 .1.3.1.6-.1 1s-.5.7-.9.8-.8.1-1.2 0c-.4-.2-.7-.4-.8-.8s-.2-.6-.3-.8c-.8-2-2.2-3.5-4.1-4.3-2-.9-3.8-1-5.6-.2-.4.2-.8.6-1 1-.2.6-.1 1.1.4 1.5l7.5 6.8c.9.9 1.5 1.6 1.7 2.3.5 1.2.5 2.4-.1 3.6s-1.4 2-2.7 2.5c-2.5 1-5.1.9-7.9-.4-3-1.3-5-3.7-6.1-7-.1-.3 0-.6.1-1 .2-.4.5-.7.9-.8.4-.2.8-.1 1.2 0 .4.2.7.4.8.8s.2.6.3.8c.8 2 2.2 3.5 4.1 4.3 2 .9 3.8 1 5.6.2.4-.2.8-.6 1-1 .2-.6.1-1.1-.4-1.5l-7.5-6.8zm15.4-12.6l-6.3 2.4c-.4.1-.8.1-1.1-.1-.4-.2-.7-.5-.8-.9-.2-.4-.1-.8 0-1.2.2-.4.4-.6.8-.8l6.3-2.4c.4-.1.8-.1 1.2 0 .4.2.7.5.8.9.2.4.1.8 0 1.2-.2.5-.5.8-.9.9zM1569.1 482c.4-.1.8-.1 1.2.1.4.2.7.5.8.9.1.3.1.5.1.8l-1.9 14.8 10.6-10.9c.1-.1.3-.2.5-.3.4-.1.8-.1 1.2.1s.7.5.8.9c.1.4.1.8-.1 1.2-.1.2-.2.4-.4.5l-13.8 14.1c-.2.1-.3.3-.6.4-.4.1-.8.1-1.2-.1-.4-.2-.7-.5-.8-.9-.1-.2-.1-.5-.1-.7l2-15-10.6 10.9c-.2.1-.3.3-.6.4-.4.1-.8.1-1.2-.1-.4-.2-.7-.5-.8-.9-.1-.2-.1-.5-.1-.7l2.5-19.6c0-.2.1-.4.2-.6.2-.4.5-.7.9-.8.4-.1.8-.1 1.2.1s.7.5.8.9c.1.2.1.4.1.5l-2 15.1 10.4-10.7c.4-.1.6-.3.9-.4zM1586.7 492c.2-.4.5-.6.9-.8.4-.1.8-.1 1.2.1.4.2.6.5.8.9.1.4.1.8-.1 1.2l-8.6 16.7c-.2.4-.5.6-.9.8-.4.1-.8.1-1.2-.1-.4-.2-.6-.5-.8-.9-.1-.4-.1-.8.1-1.2l8.6-16.7zm6-4c-.2.5-.6.8-1.1 1s-1 .1-1.5-.1-.8-.6-1-1.1-.1-1 .1-1.5.6-.8 1.1-1c.5-.2 1-.1 1.5.1s.8.6 1 1.1c.2.6.2 1.1-.1 1.5zM1602.3 519.6c-3 .9-5.8.6-8.5-.9s-4.4-3.6-5.3-6.5c-.9-2.9-.6-5.7.9-8.3 1.5-2.7 3.6-4.4 6.5-5.3 2.9-.9 5.7-.6 8.3.9 2.7 1.4 4.4 3.6 5.3 6.5.9 2.9.6 5.7-.9 8.3l-4.5 8.2c-.2.4-.5.6-.9.8s-.8.1-1.2-.1c-.4-.2-.6-.5-.8-.9-.1-.4-.1-.8.1-1.2l1-1.5zm.5-17.3c-1.9-1-3.9-1.3-6-.6-2.1.6-3.6 1.9-4.7 3.8-1 1.9-1.3 3.9-.6 6 .6 2.1 1.9 3.6 3.8 4.7 1.9 1 3.9 1.3 6 .6 2.1-.6 3.6-1.9 4.7-3.8 1-1.9 1.3-3.9.6-6-.6-2.1-1.9-3.7-3.8-4.7zM1617 528.3c.4.2.6.5.7 1s.1.8-.2 1.2c-.2.4-.5.6-1 .7-.4.1-.8.1-1.2-.2-4.5-2.6-5.5-6.2-2.8-10.7l5.5-9.5-1.4-.8c-.4-.2-.6-.5-.7-1-.1-.4-.1-.8.2-1.2.2-.4.5-.6 1-.7.4-.1.8-.1 1.2.2l1.4.8 3.9-6.8c.2-.4.5-.6 1-.7.4-.1.8-.1 1.2.2.4.2.6.5.7 1 .1.4.1.8-.2 1.2l-3.9 6.8 2.7 1.6c.4.2.6.5.7 1s.1.8-.2 1.2c-.2.4-.5.6-1 .7-.4.1-.8.1-1.2-.2l-2.7-1.6-5.5 9.5c-1.5 2.6-.9 4.7 1.8 6.3zM1636 539.6c-3 .7-5.8.3-8.4-1.3-2.6-1.6-4.2-3.8-4.9-6.8-.7-2.9-.3-5.7 1.3-8.3s3.8-4.2 6.8-4.9c2.9-.7 5.7-.3 8.3 1.3 2.6 1.6 4.2 3.8 4.9 6.8.7 2.9.3 5.7-1.3 8.3l-4.9 8c-.2.4-.5.6-1 .7s-.8 0-1.2-.2c-.4-.2-.6-.5-.7-1s0-.8.2-1.2l.9-1.4zm1.4-17.2c-1.8-1.1-3.8-1.4-5.9-.9s-3.7 1.7-4.8 3.5c-1.1 1.8-1.4 3.8-.9 5.9.5 2.1 1.7 3.7 3.5 4.8 1.8 1.1 3.8 1.4 5.9.9 2.1-.5 3.7-1.7 4.8-3.5s1.4-3.8.9-5.9c-.5-2.1-1.6-3.7-3.5-4.8z"/></svg>