<svg id="Layer_2" data-name="Layer 2" xmlns="http://www.w3.org/2000/svg" viewBox="0 0 2453 2453"><defs><style>.cls-1{fill:#03709c;}</style></defs><title>SS_bottom slogan_KO</title><g id="KO"><path class="cls-1" d="M870.94 497.82c-2.51 1.33-6.48 3.68-8.24 4.81-.85.71-.7 1.26-1.41 1.62-1 .49-5.82.83-6.12.26-.05-.11.05-.25.3-.38a4.56 4.56 0 0 1 .84-.29 89.54 89.54 0 0 0 8.37-3.84c5.3-2.72 11-6 15.44-8.64 1.76-1.22 1-1.48 2.66-2.35 1-.49 3.77-1.93 4.38-.76a1.24 1.24 0 0 1-.66 1.51c-2.24 1.06-4.26 2-6.68 3.29-1.89 1-4 2.12-6.71 3.57 4.33 8.44 6 11.75 6.44 14.32.1 1 0 1.61-.27 1.76s-.84-.33-1.59-1.7zm-8.66-15.75a.87.87 0 0 0 .53-1.08 1.12 1.12 0 0 0-.67-.51 1.22 1.22 0 0 1-.77-.37c-.07-.14 0-.29.32-.43.85-.44 2.57-.6 2.83-.1.09.18.06 1.09.16 1.27 4.62-1.42 7.88.28 9.24 2.95 1.5 2.92.52 7.24-4 9.58-4.81 2.46-9 .81-10.61-2.29-1.37-2.57-.81-6.09 2.97-9.02zm-.83 8.11c1.19 2.31 4.15 3.71 7.75 1.87 3.35-1.72 3.83-4.89 2.65-7.2a5.23 5.23 0 0 0-7.41-2.09c-3.6 1.85-4.18 5.11-2.99 7.42zM904.75 461.28c1.59-.85 1.12-1 2.36-1.58.8-.36 2.69-1 2.91-.56s-.53 1.16-.79 1.67a61.28 61.28 0 0 1-4.45 8c3.37-.41 4.12-.49 5.69-1.19.88-.39 1.25-.74 1.87-1s5.07-1.4 5.73.06c.16.37-.05.77-.78 1.1-1.39.62-10.1 1.81-13.43 2.21-5 6.07-11.32 10.73-12.45 11.24-.26.11-.42.14-.45.07a1.47 1.47 0 0 1 .66-.87c5.17-4.51 12.06-11.24 14.39-18.64-2.72 1.35-8.67 4.33-10.65 5.39-.9.63-.94 1-1.45 1.26-.73.33-5 .47-5.19 0 0-.11.06-.25.36-.38a2.5 2.5 0 0 1 .49-.18 60.74 60.74 0 0 0 8.3-3.2c2.26-1 4.64-2.17 6.63-3.2zm2.53 19c-2.58 1.2-6.66 3.34-8.47 4.37-.89.66-.77 1.22-1.5 1.55-1 .44-5.86.52-6.12-.06 0-.11.06-.25.32-.36a4.46 4.46 0 0 1 .85-.25 89.84 89.84 0 0 0 8.56-3.4c5.44-2.44 11.33-5.43 15.87-7.82 1.82-1.12 1-1.43 2.78-2.21 1-.44 3.87-1.74 4.41-.53a1.24 1.24 0 0 1-.74 1.47c-2.3.94-4.36 1.82-6.84 2.94-1.93.87-4.14 1.9-6.89 3.22 3.88 8.65 5.4 12 5.69 14.63 0 1-.07 1.61-.36 1.74s-.83-.37-1.5-1.78zM964.63 469.39c-3 .94-7.19 2.36-11.82 4.15a127.34 127.34 0 0 0-12.67 5.6c-1.08.55-1.33 1.12-2.18 1.45s-2 .39-4.72 0a1.27 1.27 0 0 1-1-.37c0-.11 0-.23.38-.36a4.49 4.49 0 0 1 .86-.21 46.57 46.57 0 0 0 7.83-2.48c2.13-.82 4.45-1.81 7-2.87-.31-.69-.83-2-3.41-8.46q-2.92 1.26-4.88 2c-1.58.57-3.08.46-3.8-1.18l-1.58-3.85c-.42-.65-1.78-.51-3.29-.31a.66.66 0 0 1-.74-.14c-.07-.19.21-.68 1.74-1.27a16 16 0 0 1 4.14-1c2-.86 7.22-3.18 10-4.52a11.45 11.45 0 0 0 2.36-1.43 52.1 52.1 0 0 0-1.68-5.78c-3.13 1.43-8.19 3.77-12.51 5.79-1.16.66-1.1 1.15-1.66 1.37s-4.54.13-4.73-.36c0-.11 0-.23.34-.34a2.56 2.56 0 0 1 .5-.15 52.26 52.26 0 0 0 5.51-1.83c3.36-1.3 7-3 10.52-4.72a12.72 12.72 0 0 1 2.32-1.33c1.72-.67 2.63-.85 2.8-.4s-.36 1.3-.43 1.88c.18 1.47.27 4 .4 5.34 1-.35 1.74-.16 1.87.18s-.11.6-.74.85c-5.07 2.09-9.92 4.4-13.8 6.12-.41.38-.83.19-.61.75v.11c.24.72 1 2.74 1.8 4.75.28.62.56.68 1.4.4 2.61-1 6.13-2.55 9.76-4.25 2-1 .76-1.58 3.44-2.62.93-.36 2.44-.9 2.77 0a1.23 1.23 0 0 1-.88 1.37c-3.22 1.55-5.67 2.63-8 3.63 2.05 5.3 2.63 6.79 3.22 8.53 1.7-.7 4.66-1.93 7.86-3.39 1.43-.64 1-1.19 2.71-1.86.9-.35 4.44-1.5 5-.16.17.45-.19 1.06-1.08 1.41zM975.15 447.74c.08 1.15-.24 2.22-.85 2.42-.38.13-.76-.38-1.09-1.28s-2.88-8.52-3.33-9.77c-.31-.7-.44-1-3.11-.87a.92.92 0 0 1-.92-.24c-.06-.19.2-.53 1.07-1 4.08-1 4.67-.78 4.84-.24 0 .11.15.58.19.7l.85 2.58 12.4-4.41-1-3c-.2-.36-1.22-.65-2.91-.77a1.12 1.12 0 0 1-1-.27c-.06-.19.23-.45 1.12-.83 4-.77 4.64-.6 4.86 0 .07.23.09.52.19.82 1.12 3.42 3.27 10 3.1 11.36a2 2 0 0 1-.79 1.56c-.3.1-.71-.23-1.11-1.32zm7.32 3.32c-2.69.92-7 2.63-8.88 3.46-1 .57-.89 1.13-1.65 1.38-1 .34-5.88-.09-6.08-.7 0-.11.09-.24.36-.33a4.46 4.46 0 0 1 .87-.16 89.83 89.83 0 0 0 8.86-2.49c5.66-1.86 11.83-4.22 16.59-6.12 1.93-.93 1.17-1.31 3-1.91 1-.34 4-1.32 4.44-.07a1.24 1.24 0 0 1-.89 1.39c-2.38.7-4.52 1.36-7.1 2.21-2 .66-4.32 1.46-7.18 2.49 3 9 4.12 12.54 4.13 15.14-.05 1-.23 1.59-.54 1.69s-.78-.46-1.31-1.93zm-9.34-10l1.82 5.55 12.41-4.37-1.82-5.55zM1006.46 431.83c-.09-.35-1.72-.69-3.1-.73a.93.93 0 0 1-.95-.28c-.05-.19.23-.52 1.07-1a18.7 18.7 0 0 1 4.54-.69c.67-.14 1.33-.28 2.07-.48 1.24-.34 2.53-.77 3.94-1.2 1.58-.89.49-1.25 3.64-2.15 1.54-.42 2.31 0 2.44.46s-.28 1.11-1.2 1.36c-3.87 1.17-7.87 2.3-9.74 2.89-.31.38-.51.1-.36.8l1.9 7c1-.31 2.42-.7 3.94-1.2s.76-1.33 4.31-2.29c1.35-.37 1.79.18 1.87.49.13.46-.25 1.06-1.24 1.37-2.42.7-5.93 1.82-8.61 2.63l2 7.26c.19.86.57 1.17 1.18 1a1.55 1.55 0 0 0 .38-.14 52.76 52.76 0 0 0 11.75-6.18 3.54 3.54 0 0 1 1-.57c.15 0 .24 0 .27.09a2 2 0 0 1-.74 1.07 60.34 60.34 0 0 1-13.18 8.39c-1.2.33-2.48-1.19-2.84-2zm20.91-11.52c-.37-.77-2.78-1.23-4.06-1.38a1.4 1.4 0 0 1-1.26-.36c-.05-.19.25-.44 1.08-.75 5.24-.55 6.2-.23 6.4.5.09.35 0 .79.14 1.29l7.17 26.41c1.12 4.13.82 6.7.09 6.9-.5.14-.84-.64-1.25-2l-4.91-18.07a36.42 36.42 0 0 0-3.92 1.44 12.09 12.09 0 0 0-1.25.75c-.54.15-3.12-.35-3.22-.7 0-.08.11-.2.46-.29l2.91-.75a47.94 47.94 0 0 0 4.73-1.49zM1063.26 416.43c-.78.36-.86.82-1.37.92-.78.16-3.93-.89-4-1.25 0-.08.09-.18.36-.23a6 6 0 0 1 1-.08 27.38 27.38 0 0 0 3.89-.53c2.67-.53 5.57-1.31 7.12-1.74 1.05-.25.31-.47 2.08-.82.55-.11 1.87-.25 1.95.14a3.81 3.81 0 0 1-.5 1.2 56.12 56.12 0 0 1-3.48 7.74c4.52 3.06 3.88 1.68 6.25 3.33a6 6 0 0 1 2.25 2.94.66.66 0 0 1-.43.9 1.29 1.29 0 0 1-1-.33c-2.25-1.67-5.23-4.18-7.66-6.15-4.83 7.11-10 10.91-10.65 11h-.13a1.9 1.9 0 0 1 .72-.88c5.51-5.54 10.26-12.64 11.42-18.29-1.27.38-7.08 1.82-7.82 2.13zm7.76 19c-.23-.77-1.21-.94-3.33-1.17a.73.73 0 0 1-.79-.29c0-.2.24-.45 1.11-.79a32.41 32.41 0 0 1 4.29-.57c.7 0 .89.19 1 .54s0 .61.09 1.08c.34 1.73.76 3.84 1.09 5.29.17.86.75 1.12 2.14.92l8.18-1.71c2.9-.78 1.31-1.4 4.84-2.1 1.26-.25 2.93-.46 3.17.76a1 1 0 0 1-.89 1.07l-15.26 3c-2.6.47-4.21.14-4.73-1.83zM1081 409c-.23-.93-1.92-1.45-3.53-1.79a1.88 1.88 0 0 1-1.53-.51c0-.2.31-.47 1.4-.77a16.61 16.61 0 0 1 4.48.17c1.1.19 1.35.43 1.43.82s0 .65.11 1.16l3.58 18c1.06 5.95 0 6.8-.35 6.88s-.92-.75-1.31-2.68l-2.46-12.19-4 1.08c-1 .41-1 .85-1.6 1s-3.68-.25-3.79-.84q0-.24.54-.35a3.43 3.43 0 0 1 .6-.08c2.53-.62 4.91-1.14 8-2zM1106.62 410.74c-.1-.43-1.12-1-2.64-1.76-.81-.29-1.08-.73.47-1 .67-.1 4.92.74 5.07 1.77.09.59-2.1 6.69-2.28 7.12a27.48 27.48 0 0 0 2.52 2.3c1.63 1.46 2.86.76 4.06 4.58 0 .12.07.23.09.31a1.11 1.11 0 0 1-.69 1.39 1.33 1.33 0 0 1-1.14-.64c-1.13-1.41-2.91-4.19-5.38-7-3.14 5.67-7.31 10.35-8.42 10.51a.14.14 0 0 1-.18-.1 2.15 2.15 0 0 1 .66-1 36.65 36.65 0 0 0 7.79-16.2zm10.61-4.85c-.14-.95-1.8-1.52-3.45-2a1.49 1.49 0 0 1-1.05-.57c0-.2.27-.4 1.25-.59a22.78 22.78 0 0 1 4.25.35 1.23 1.23 0 0 1 1.23 1v1l3 21.39c.67 5.2-.12 6.73-.63 6.8s-.81-.85-1.09-2.79l-2.12-14.65-3.66.69c-1.12.36-1.26.79-1.73.86s-3.12-.6-3.19-1.11c0-.12.2-.27.64-.33.28 0 1.63-.16 2-.2 2.06-.3 4-.7 5.83-1zm6-3.77c-.14-.67-1.74-1.44-3.45-2.09a1.27 1.27 0 0 1-1-.54c0-.24.34-.41 1.25-.59a38.29 38.29 0 0 1 4.57.59 1.06 1.06 0 0 1 1 .79c0 .28-.07.62 0 1.05l4.06 28c.38 3.7-.06 5.75-.77 6.09-.36.05-.77-.29-1.1-2.3zM1157.85 409.1c-1.06.22-2.56.56-3.63.74-.63.14-.72.47-1.16.51a4.87 4.87 0 0 1-1.89-.51 38.46 38.46 0 0 1-11 16.65 2.54 2.54 0 0 1-1 .57.1.1 0 0 1-.13-.07 2 2 0 0 1 .59-1c5.29-5.71 9.2-13.83 9.94-20.6-1.15.15-3.93.52-5.95.83-1 .25-1 .65-1.5.7s-3.81-.77-3.86-1.37c0-.16.14-.25.5-.29a2.49 2.49 0 0 1 .52 0 40.57 40.57 0 0 0 4.4-.17c1.31-.12 2.78-.3 4.64-.59.39-.08 2.32-.54 2.76-.58 1.56-.1 2.06.13 2.09.49a3.58 3.58 0 0 1-.95 1.45 28.31 28.31 0 0 1-.83 3.17 13 13 0 0 0 1.32 0 33.79 33.79 0 0 0 5-.95l-.73-7.85c-.11-.79-1.9-1.47-3-1.81a1.18 1.18 0 0 1-.84-.36c0-.16.29-.39 1.15-.63 4.38.44 5 .82 5.07 1.42v.88l2 24.27c.12 2.6-.11 4.83-.95 5.35a.24.24 0 0 1-.16.05c-.4 0-.57-1-.87-2.89l-.83-9c-.71.15-3.16.57-4.51.78-.79.19-.87.56-1.35.61-.64.06-2.81-.82-2.84-1.14 0-.12.14-.21.54-.25s1.32 0 1.84-.09a62.17 62.17 0 0 0 6.22-1zm6.18-11.3c-.15-.79-2.08-1.61-3.7-2.23a1.06 1.06 0 0 1-.78-.57c0-.16.29-.35 1.2-.43.6-.06 5.71.51 5.83 1.75 0 .28-.11.57-.08.85l2.23 27.11c.29 4.43-.1 5.87-.58 6.76a.64.64 0 0 1-.44.4c-.32 0-.59-.71-.74-1.94zM1206.57 402.31c-2.68.18-6.19.35-7.79.67a15.66 15.66 0 0 1-1.55.52c-1 0-4.4-1.53-4.41-2 0-.08.16-.12.4-.13a4.66 4.66 0 0 1 1.08.13 36.08 36.08 0 0 0 5.53.23c2.84-.07 5.87-.34 7.91-.51a6.33 6.33 0 0 1 1.79-.36h1.36c.52 0 .76.14.77.38a1.74 1.74 0 0 1-.89 1.1 70.52 70.52 0 0 1-4.66 5.71c2.26 2.51 4.51 1.29 6.31 4.57a2.67 2.67 0 0 1 .58 1.38.71.71 0 0 1-.78.74 1.1 1.1 0 0 1-.52-.07c-1.67-1.2-4.14-4.14-6.34-5.73a47.54 47.54 0 0 1-12.73 8.31 1.91 1.91 0 0 1-.8.22c-.12 0-.2 0-.2-.12a1.38 1.38 0 0 1 .74-.7 41.06 41.06 0 0 0 15.42-14.34zm-5.31-4.51c-1.17-.25-3.45-1.88-3.46-2.4 0-.08.08-.16.28-.17a1.82 1.82 0 0 1 .64.15 39.68 39.68 0 0 0 8.49.36c.88.18 1.21.57 1.22 1a.93.93 0 0 1-.66.86c-.84.1-2.16.17-3.44.2zm1.85 22.16c-.1-.8-1-1.14-3.08-1.73a.73.73 0 0 1-.73-.42c0-.2.31-.41 1.23-.59a32.45 32.45 0 0 1 4.33.18c.68.14.85.34.86.7s-.11.6-.09 1.08c0 1.76.09 3.92.17 5.4 0 .88.55 1.23 2 1.27l8.36-.28c3-.27 1.53-1.16 5.13-1.24 1.28 0 3 0 3 1.29a1 1 0 0 1-1.06.91l-15.56.37c-2.64 0-4.18-.58-4.34-2.62zm14.38-24.24c-.09-.52-1.72-1.6-3.42-2.24a1.3 1.3 0 0 1-1-.66c0-.24.47-.37 1.43-.43a16.4 16.4 0 0 1 4.14.86c1.17.33 1.46.61 1.46 1s-.14.64-.13 1.16l.36 16.8a21.89 21.89 0 0 1-.51 5.61c-.34.93-.77 1.42-1.13 1.43s-.65-.54-.68-1.82zM1257.51 395.88c-4.92-.05-10.49 0-15 .16-1.52.12-1.82.63-2.58.61-1 0-4.32-1.76-4.3-2.24 0-.12.13-.2.49-.19a5.56 5.56 0 0 1 .72.1 37.58 37.58 0 0 0 6.43.61c3.68.1 8 0 12.73 0 1.44-.08 1.33-.4 2.37-.38s3.07.32 3.06.88c0 .4-.86.82-1 1.17-1 3.06-2.55 8.42-4.15 11.62 1 0 2-.07 3 0 2-.07 1.34-.76 3.5-.71.36 0 .8.06 1.36.12 1.44.2 2.18.82 2.17 1.34s-.54.79-1.5.76c-.16 0-.36 0-.52-.05-1.8-.17-3.8-.26-5.91-.32-2.64-.07-5.44-.07-8.2 0l-.4 11.88c-.12 4.56-.56 5.95-1.39 7.17a1 1 0 0 1-.61.46c-.36 0-.58-.62-.56-1.62l.48-17.88c-4.08.09-7.17.17-9.09.24-1.69.24-1.94.71-2.66.69s-5.12-1.78-5.1-2.38c0-.16.21-.19.53-.19a3.47 3.47 0 0 1 .6.06 67.64 67.64 0 0 0 8.07.62c4.44.12 9.56 0 15.05-.08a58.11 58.11 0 0 0 2.32-10.38zM1305.07 414.33c-2.06-.32-4.73-.61-7.4-.82-3.11-.24-6.23-.4-8.23-.48-2.52-.08-9.94-.21-11.66-.26-1.24 0-1.33.54-2 .48-1-.07-4.89-2.19-4.84-2.74 0-.12.18-.23.54-.2a3.24 3.24 0 0 1 .75.18 39.31 39.31 0 0 0 7.07 1c5.54.43 13.19.7 19.64.84 2 0 1.74-.67 3.89-.5 1.91.15 3.86.46 3.76 1.66a1.15 1.15 0 0 1-1.35.9h-.12zm-25.4-16.58c-.09-.93-1.18-1.38-2.85-2.07a.54.54 0 0 1-.49-.36 1.05 1.05 0 0 1 1.07-.4 15.47 15.47 0 0 1 5 1.23c3.11.24 6.78.53 10.71.63 3.17 0 1.75-.87 4.94-.62.84.07 2.87.22 2.79 1.22 0 .48-.71.87-1.91.77-4.2-.13-12.23-.67-16.22-.94-.3.22-.48 0-.54.72-.13 1.64-.3 4.43-.4 6.23 0 1.41.17 1.42 4.36 1.74 2.11.16 4.47.27 7.72.28 2.22-.15 1.08-1 4.87-.75 1.4.11 1.91.67 1.87 1.19a1.41 1.41 0 0 1-1.64 1c-1.4 0-6.19-.36-8.43-.41l-2.64-.08-4.87-.38c-3-.27-3.83-1.3-3.79-2.9zm-.19 26.25c0-.48-.78-.78-2.07-1.24a.91.91 0 0 1-.69-.42 1.94 1.94 0 0 1 1.56-.44 16.6 16.6 0 0 1 4.15.84c3.71.29 5.71.32 9.51.5 1 0 1.17-.11 2.22-.19.18-.83.35-2.38.58-4.37-2.64-.12-7.83-.41-11.68-.51-1.18.15-1.41.53-2.08.48s-3.77-1.58-3.73-2.06c0-.12.18-.19.57-.16a3.47 3.47 0 0 1 .6.09 54.08 54.08 0 0 0 5.53.63c3.15.24 6.83.41 10 .41a3.23 3.23 0 0 1 1.38-.21c2.55.2 2.52.64 2.51.8a4.75 4.75 0 0 1-.61 1.12c-.53 1.2-1.31 2.95-1.57 3.69 1.06.28 1.59.73 1.56 1s-.52.48-1.44.41l-13-.65c-.41.17-.73.1-.76.54l-.27 3.47a.82.82 0 0 0 .93 1c.8.06 2 .19 3.35.3 2 .15 4.35.3 6.71.44 2.41-.09 1.68-.91 4.15-.72 1.12.09 3.11.24 3 1.4a1.19 1.19 0 0 1-1.47.81l-15.76-1.22c-2.91-.23-3.47-1.31-3.38-2.47zM1335.28 404.71c0-.89-1-1.79-2.52-2.67a1.51 1.51 0 0 1-.94-.81c0-.16.36-.28 1.08-.26a19.06 19.06 0 0 1 4 1.4c.92.36 1.09.63 1 1s-.27.85-.37 1.61l-2.34 18c-.75 5.75-1.4 7.68-2 8.82a1.84 1.84 0 0 1-1.16 1.18c-.28 0-.42-.46-.31-1.37l2.14-16.46-1.59-.21c-1.33 0-1.56.52-2.08.46a3.92 3.92 0 0 1-1.54-.85c-.36 2.78-3.28 6-8.24 5.38-4.76-.62-6.94-4.37-6.5-7.7.37-2.82 2.59-5.31 6.72-5.46a1.15 1.15 0 0 0 1.33-.63.83.83 0 0 0-.2-.63 1.29 1.29 0 0 1-.39-.74q0-.24.51-.18c1 .13 2.21 1 2.14 1.53a5.75 5.75 0 0 1-.78 1.07c3.72 1.21 5.38 3.64 5.5 6.08a17.45 17.45 0 0 0 2 .34c1.23.16 2.35.22 3.27.3zm-19 8.14a4.76 4.76 0 0 0 4.32 5.52c3.57.46 5.68-1.76 6-4.18s-1.15-5.15-4.72-5.62a4.77 4.77 0 0 0-5.57 4.29zm25.87-9.39c0-.72-1.18-1.77-3-3.06a1.29 1.29 0 0 1-.9-.8c0-.24.53-.33 1.6-.2 1.47.47 3.27 1.23 3.88 1.51 1.06.5 1.27.81 1.21 1.21s-.2.62-.31 1.13l-3.26 25.11a27.83 27.83 0 0 1-1.65 7.45c-.47.83-.93 1.25-1.25 1.21s-.56-.64-.4-1.91zM1373 423.88c-1.44-.14-3.55-.37-4.8-.43-.77 0-1 .1-1.31 0a10.58 10.58 0 0 1-2.52-1.56c-5.34 6.51-12.88 10.13-13.54 10a.1.1 0 0 1-.1-.1 2 2 0 0 1 .84-.82c6.64-4.07 12.6-10.83 15.14-17.16-1.15-.17-3.92-.56-6-.81-1 0-1.12.36-1.64.27s-3.46-1.77-3.35-2.36c0-.16.2-.21.55-.14a2.47 2.47 0 0 1 .5.13 40.6 40.6 0 0 0 4.29 1c1.3.24 2.76.46 4.63.69.4 0 2.38.11 2.81.19 1.53.32 1.95.68 1.88 1a3.59 3.59 0 0 1-1.31 1.14 33.81 33.81 0 0 1-4.3 6.37c.34.14 2.58.59 2.85.64a53.76 53.76 0 0 0 5.52.73l2.13-11.65c.11-.83-1.13-1.63-2.5-2.57a1 1 0 0 1-.69-.66c0-.16.41-.25 1.31-.25 4.11 1.56 4.65 2.15 4.54 2.74-.05.28-.22.53-.28.84L1373 436.4c-.61 2.45-1.66 3.72-2.21 3.62-.35-.07-.54-.63-.38-1.7zm9.62-13.21c0-.93-1.19-1.93-2.61-3.08a1.24 1.24 0 0 1-.64-.73c0-.16.37-.22 1.19-.07l.39.07c4.05 1.64 4.58 2.3 4.46 3-.06.31-.23.61-.3 1l-5.48 28.6c-.72 2.84-1.74 4.2-2.29 4.09-.35-.06-.55-.75-.37-2zM1415.5 421.93c-.86 0-1.13.37-1.63.24-.78-.2-3.16-2.5-3.07-2.85 0-.08.16-.13.43-.06a6 6 0 0 1 .94.36 27.35 27.35 0 0 0 3.74 1.2c2.64.67 5.59 1.22 7.17 1.5 1.06.23.49-.29 2.23.16.54.14 1.79.58 1.69 1a3.81 3.81 0 0 1-1 .87 56.17 56.17 0 0 1-6.48 5.48c2.76 4.71 2.78 3.19 4.2 5.7a6 6 0 0 1 .77 3.62.66.66 0 0 1-.78.63 1.3 1.3 0 0 1-.71-.78c-1.31-2.48-2.92-6-4.26-8.85-7.43 4.33-13.72 5.53-14.38 5.36-.08 0-.12 0-.11-.07a1.9 1.9 0 0 1 1-.48c7.36-2.62 14.71-7 18.2-11.57-1.29-.21-7.17-1.39-7.95-1.46zm-1.19 20.47c.12-.79-.68-1.37-2.5-2.5a.73.73 0 0 1-.59-.6c0-.19.41-.31 1.34-.24a32.37 32.37 0 0 1 4.12 1.34c.62.32.72.56.64.91s-.27.55-.38 1c-.44 1.71-1 3.8-1.3 5.24-.22.85.2 1.33 1.53 1.75l8.12 2c3 .55 1.79-.7 5.28.19 1.24.32 2.84.85 2.53 2.05a1 1 0 0 1-1.26.58l-15.08-3.86c-2.55-.69-3.86-1.69-3.47-3.7zm20.44-19.51c.2-.94-1.1-2.14-2.42-3.14a1.88 1.88 0 0 1-1.16-1.12c0-.19.49-.29 1.59-.09a16.62 16.62 0 0 1 4 2.09c.91.65 1 1 .93 1.35s-.27.59-.4 1.09l-4.56 17.83c-1.61 5.82-2.9 6.16-3.28 6.06s-.51-1.08 0-3l3-12.06-4.06-.75c-1.1-.07-1.28.33-1.86.18s-3.21-1.81-3.06-2.39q.06-.23.64-.08a3.41 3.41 0 0 1 .57.19c2.55.53 4.92 1.09 8.07 1.69zM1454.4 441c.57.05 1.29.15 1.5-.5a.76.76 0 0 0-.13-.67 1.2 1.2 0 0 1-.1-.62c0-.15.22-.18.49-.1.92.29 1.84 1.37 1.68 1.87a3.32 3.32 0 0 1-.84.83c4.26 2 5.53 5.37 4.68 8.08-1 3.05-4.61 5.22-9.57 3.67s-6.67-5.6-5.76-8.54c.85-2.7 3.65-4.71 8.05-4.02zm5.68-3.42c3.19.79 1.73-.59 5.91.54 1.74.59 2.29 1.39 2.14 1.88 0 .08-.26.84-1.79.36-2.41-.59-9.61-2.62-14.29-3.87-1.31-.11-1.75.25-2.48 0-.92-.29-3.61-2.68-3.43-3.25 0-.12.21-.14.59 0a3.5 3.5 0 0 1 .56.22 51.41 51.41 0 0 0 5.75 2.13c.96.28 5.96 1.61 7.04 1.96zm-11.34 8c-.71 2.29.36 5.14 4 6.26s6.1-.61 6.81-2.9-.34-5.22-3.93-6.34-6.16.64-6.88 2.97zm8.21-13.15c-1.15-.36-3.29-3.29-3.16-3.71 0-.11.17-.16.44-.07a3.85 3.85 0 0 1 .73.35 40.82 40.82 0 0 0 7.74 3c.9.32 1.35.92 1.2 1.38s-1 .8-2.78.31zm15.86 1.14c.16-.66-1.61-2.22-3-3.45a1 1 0 0 1-.53-.71c.07-.23.59-.28 1.75 0a34.07 34.07 0 0 1 4.07 2.4c.71.56.81.88.69 1.26s-.32.61-.5 1.19l-4.34 13.9 1.91.6c1.88.29 1.49-.62 3.94.14.73.23 2.33.73 2 1.91a1.16 1.16 0 0 1-1.61.59l-6.6-2.06-3.49 11.06a15.31 15.31 0 0 1-2.72 5.35 1.3 1.3 0 0 1-1.09.41c-.34-.11-.42-.67 0-1.93zM1508.9 461.67c1.7.37 1.49-.34 3.59.43 1.35.5 3.56 1.32 3.13 2.48a1.11 1.11 0 0 1-1.5.47c-.75-.28-4.21-1.64-5-1.94-7.69-2.85-16-5.41-19.74-6.46-1.67-.32-2.13.11-3-.2s-4.44-3.56-4.23-4.12c.06-.15.23-.17.5-.07a3.53 3.53 0 0 1 .71.39 46.11 46.11 0 0 0 6.61 2.88c4.65 1.72 10.82 3.71 17 5.62zm-22.21 2.27c.17-.7-.53-1.43-2.22-2.65a.89.89 0 0 1-.56-.68c.07-.19.48-.25 1.37-.13a31 31 0 0 1 3.92 1.75c.62.4.69.68.56 1s-.32.52-.51.92c-.62 1.69-1.4 3.79-1.88 5.19-.22.82.11 1.32 1.36 1.87l8.09 2.91c2.81.83 1.84-.47 5.14.75.9.33 2.89 1.07 2.43 2.31a1 1 0 0 1-1.36.44l-14.78-5.47c-2.5-1-3.66-2.08-3.07-4zm7.1-21.47c0-.48-1.17-1.46-2.15-2.25a1.15 1.15 0 0 1-.62-.74c.07-.19.48-.25 1.54 0 4 1.76 4.4 2.18 4.19 2.74-.07.19-.23.38-.32.65l-2.08 5.63c-.42 1.38-.16 1.48 2.09 2.31 2.93 1.08 7.07 2.45 10 3.3 1.64.31 1.48-.65 4 .3.94.35 2.74 1 2.36 2-.17.45-.86.71-1.87.33-4.72-1.53-11.86-4-15.93-5.47-2.85-1.06-3.27-2.45-2.93-3.6zM1545.57 483.42c.16-.36-.15-1-1.45-2.23a1.21 1.21 0 0 1-.72-.94c.13-.29 1.09-.08 1.67.18a33 33 0 0 1 3 1.69c.65.51.7.89.55 1.21s-.44.59-.62 1l-3 6.26c1.35.61 6.49 2.84 8.54 3.54 1.56.44 1.66-.17 3.12.49.51.23 3.85 1.78 3.27 3.06a1.06 1.06 0 0 1-1.53.28l-.22-.1c-3.25-1.55-8.63-4-14.86-6.84-2.44-1.1-8.71-3.54-10.38-4.12-1-.18-1.34.14-1.92-.12s-1.31-1-3-3.12a1.45 1.45 0 0 1-.57-1.18c0-.11.23-.12.56 0a3.15 3.15 0 0 1 .7.4 58.48 58.48 0 0 0 7.05 3.62c2.26 1 4.74 2 7.08 3.07zm5.75-18.68a1.21 1.21 0 0 1-.32-.85c.08-.18.48-.18 1.46.26a17.25 17.25 0 0 1 3.76 4.11 1 1 0 0 1 0 .84c-.3.66-4.06 2.69-4.81 3.18a45.86 45.86 0 0 0 4.27 5.13c2.09 2.17 2.06-.08 6 6.28a2.42 2.42 0 0 1 .42 2.08.75.75 0 0 1-1.1.29 2.91 2.91 0 0 1-1.13-1c-2.09-2.57-6.82-8.21-9.57-12.35-8.5 3.58-17.09 2.86-17.89 2.5-.15-.07-.24-.15-.21-.22a1.65 1.65 0 0 1 1.22-.28c6.32.09 15.13-3 19.22-6.42.36-.72-.31-2-1.32-3.55zM1569.41 490.21c10.06-.31 16.92-5.32 17.17-5.82s-.7-2.57-1.32-3.47a.81.81 0 0 1-.17-.72c.07-.14.32-.19.86.08 1.35.7 4.27 4.45 3.87 5.24-.13.25-4.06 2.46-4.56 2.74a25.13 25.13 0 0 0 1.61 3.17c1.53 2.18 2 1.17 3.12 5.21a2.56 2.56 0 0 1 0 1.84.66.66 0 0 1-1 .26 2.93 2.93 0 0 1-1.2-1.61c-.52-1.26-2.4-5.74-3.63-8.49-5.9 2.54-14.22 2.71-15.5 2-.18-.09-.23-.16-.19-.24a1.4 1.4 0 0 1 .94-.19zm20.94 16.38c-2.26-1-8.06-3.75-12.58-5.9-1.39-.62-1.88-.2-2.62-.59-.92-.48-2.93-3.22-2.73-3.61.05-.11.23-.1.55.06a3 3 0 0 1 .48.29 43.27 43.27 0 0 0 5.33 3.11c3.48 1.8 7.59 3.69 10.55 5 .89.46 1 0 2.09.58a3.43 3.43 0 0 1 .52.31c1.31.77 1.52 1.15 1.4 1.4a10 10 0 0 0-.94 1c-2.55 4.94-3.65 7-5.32 8.92-.76.87-1.57 1.21-2 1s-.37-.68.09-1.57zm10.17-18.52c.33-.64-.35-2-2-3.8a1.41 1.41 0 0 1-.61-1.08q.16-.32 1.5.23c.18.09 4.79 3.28 4.22 4.38-.13.25-.44.5-.67 1l-5.24 10.17a20.5 20.5 0 0 1-3.1 4.61c-.74.65-1.35.88-1.67.71s-.31-.79.27-1.93z"/></g></svg>