<svg xmlns="http://www.w3.org/2000/svg" viewBox="0 0 2453 2453"><title>SS_bottom slogan_SL</title><path fill="#03709C" d="M706 588.1l4.8-4.1c2.1-1.8 4.6-2.6 7.4-2.4 2.8.2 5.1 1.4 6.9 3.5 1.8 2.1 2.6 4.6 2.4 7.4-.2 2.8-1.4 5.1-3.5 6.9l-3.6 3 6.1 7.1c.3.3.4.7.4 1.1 0 .4-.2.8-.5 1.1s-.7.4-1.1.4c-.4 0-.8-.2-1.1-.5l-18.3-21.4c-.3-.3-.4-.7-.4-1.1 0-.4.2-.7.5-1zm3.2 1.4l9.1 10.7 3.6-3c1.5-1.3 2.3-2.9 2.4-4.8.2-1.9-.4-3.6-1.7-5.1s-2.9-2.3-4.8-2.4c-1.9-.2-3.6.4-5.1 1.7l-3.5 2.9zM728.3 583.6c-.3-.3-.4-.7-.3-1.1 0-.4.2-.8.6-1.1.3-.3.7-.4 1.1-.3.4 0 .8.2 1.1.6l1.1 1.3c.3-3.1 1.7-5.6 4-7.5 1.2-1 2.4-1.6 3.8-2 .2-.1.5-.1.8-.1.4.1.8.2 1.1.6.3.3.4.7.3 1.1 0 .4-.2.8-.6 1.1-.2.2-.4.3-.6.3-1 .3-1.9.8-2.7 1.5-1.7 1.4-2.6 3.1-2.9 5.3-.2 2.1.3 4.1 1.7 5.8l5.9 7.3c.3.3.4.7.3 1.1 0 .4-.2.8-.6 1.1-.3.3-.7.4-1.1.3-.4 0-.8-.2-1.1-.6l-11.9-14.7zM743.4 563.7c.3.4.5.9.4 1.4-.1.5-.3 1-.7 1.3-.4.3-.9.5-1.4.4-.5-.1-1-.3-1.3-.7-.3-.4-.5-.9-.4-1.4.1-.5.3-1 .7-1.3.4-.3.9-.5 1.4-.4.6 0 1 .3 1.3.7zm1.1 7.1c-.3-.3-.4-.7-.3-1.2.1-.4.3-.8.6-1s.7-.4 1.2-.3c.4.1.8.3 1 .6l11.5 14.8c.3.3.4.7.3 1.2-.1.4-.3.8-.6 1s-.7.4-1.2.3c-.4-.1-.8-.3-1-.6l-11.5-14.8zM750.9 565.8c-.3-.3-.4-.7-.3-1.2.1-.4.3-.8.6-1 .3-.3.7-.4 1.2-.3.4.1.8.3 1 .6l.8 1c.4-2.7 1.8-4.8 4-6.5 2.2-1.7 4.8-2.3 7.5-1.9 2.8.4 5 1.7 6.7 4l6 8.2c.3.3.4.7.3 1.2-.1.4-.3.8-.6 1s-.7.4-1.2.3c-.4-.1-.8-.3-1-.6l-6-8.2c-1.2-1.6-2.7-2.5-4.6-2.8-1.9-.3-3.7.2-5.2 1.3-1.6 1.2-2.5 2.7-2.8 4.6-.3 1.9.2 3.7 1.3 5.2l6 8.2c.3.3.4.7.3 1.2-.1.4-.3.8-.6 1-.3.3-.7.4-1.2.3-.4-.1-.8-.3-1-.6l-11.2-15zM795.1 554.9c-.5 3-2.1 5.4-4.5 7.1s-5.2 2.3-8.2 1.8c-3-.5-5.3-2-7-4.5-1.7-2.5-2.3-5.2-1.8-8.2.5-3 2-5.3 4.5-7s5.2-2.3 8.2-1.8c3 .5 5.3 2 7 4.5l5.3 7.7c.2.4.3.7.3 1.2s-.3.8-.6 1c-.4.2-.7.3-1.2.3-.4-.1-.8-.3-1-.6l-1-1.5zm-15.2-8.2c-1.8 1.2-2.8 2.9-3.2 5-.4 2.1 0 4.1 1.3 5.8 1.2 1.8 2.9 2.9 5 3.2 2.1.4 4.1 0 5.8-1.3 1.8-1.2 2.8-2.9 3.2-5 .4-2.1 0-4.1-1.3-5.8-1.2-1.8-2.9-2.8-5-3.2-2.1-.4-4 .1-5.8 1.3zM796.2 529.1c-.3.2-.5.2-.8.3l-5.6-.1c-.6 0-1.1-.3-1.4-.7-.2-.4-.3-.8-.2-1.2.1-.4.3-.8.7-1 .3-.2.6-.3 1-.3h4.5l1.8-4.1c.1-.3.3-.6.6-.8.4-.2.8-.3 1.2-.2.4.1.8.3 1 .7.3.4.3 1 .1 1.6l-2.2 5.2c-.3.3-.5.5-.7.6zm3.1 13.9c-1.2.3-2.2.3-2.8.2-1.3-.3-2.3-.9-3-2-.7-1.1-.9-2.3-.6-3.6.5-2.6 2.1-4.8 4.6-6.4 2.7-1.8 5.8-2.2 9.2-1.3.3.1.6.3.7.6.2.4.3.8.2 1.2-.1.4-.3.8-.7 1-.4.2-.7.3-1.1.2-.4-.1-.6-.1-.8-.2-2.1-.4-4.1-.1-5.9 1.1-1.8 1.2-2.9 2.7-3.2 4.5-.1.5.1.9.3 1.4.4.5.9.7 1.5.5l9.8-2.6c1.2-.3 2.2-.3 2.8-.2 1.3.3 2.3.9 3 2 .7 1.1.9 2.3.6 3.6-.5 2.6-2.1 4.8-4.6 6.4-2.7 1.8-5.8 2.2-9.2 1.3-.3-.1-.6-.3-.7-.6-.2-.4-.3-.8-.2-1.2.1-.4.3-.8.7-1 .4-.2.7-.3 1.1-.2s.6.1.8.2c2.1.4 4.1.1 5.9-1.1 1.8-1.2 2.9-2.7 3.2-4.5.1-.5-.1-.9-.3-1.4-.4-.5-.9-.7-1.5-.5l-9.8 2.6zM833.4 530.5c-.7 3-2.4 5.3-4.9 6.9-2.6 1.6-5.3 2-8.2 1.3-2.9-.7-5.2-2.3-6.7-4.9s-2-5.3-1.3-8.2c.7-2.9 2.3-5.2 4.9-6.7 2.6-1.6 5.3-2 8.2-1.3 2.9.7 5.2 2.3 6.7 4.9l4.9 8c.2.4.3.8.2 1.2-.1.4-.3.7-.7 1-.4.2-.8.3-1.2.2s-.7-.3-1-.7l-.9-1.7zm-14.7-9.1c-1.8 1.1-3 2.7-3.5 4.8-.5 2.1-.2 4 .9 5.9s2.7 3 4.8 3.5c2.1.5 4 .2 5.9-.9 1.8-1.1 3-2.7 3.5-4.8.5-2.1.2-4.1-.9-5.9s-2.7-3-4.8-3.5c-2.1-.5-4-.2-5.9.9zM842.2 527.2c.2.4.3.8.1 1.2-.1.4-.4.7-.7.9-.4.2-.8.3-1.2.1-.4-.1-.7-.4-.9-.7l-9.2-16.3c-.2-.4-.3-.8-.1-1.2.1-.4.4-.7.7-.9.4-.2.8-.3 1.2-.1.4.1.7.4.9.7l.2.4c.7-1.9 2-3.4 3.8-4.4 2.1-1.2 4.2-1.4 6.5-.8.5.1.9.3 1.4.5.1-.5.2-1 .3-1.4.6-2.3 2-4 4-5.2 2.1-1.2 4.2-1.4 6.5-.8 2.3.6 4 2 5.2 4l5.7 10.2c.2.4.3.8.1 1.2-.1.4-.4.7-.7.9-.4.2-.8.3-1.2.1-.4-.1-.7-.4-.9-.7l-5.7-10.2c-.7-1.3-1.8-2.2-3.3-2.6-1.5-.4-2.8-.2-4.1.5-1.3.7-2.2 1.8-2.6 3.3-.4 1.5-.2 2.8.5 4.1l5.7 10.2c.2.4.3.8.1 1.2-.1.4-.4.7-.7.9s-.8.3-1.2.1c-.4-.1-.7-.4-.9-.7l-5.7-10.2c-.7-1.3-1.8-2.2-3.3-2.6-1.5-.4-2.8-.2-4.1.5-1.3.7-2.2 1.8-2.6 3.3-.4 1.5-.2 2.8.5 4.1l5.7 10.4zM884.7 494.1c1.4 2.7 1.6 5.5.6 8.3-.9 2.9-2.8 5-5.4 6.3-2.7 1.4-5.5 1.6-8.3.6-2.9-.9-5-2.8-6.3-5.4s-1.6-5.5-.6-8.3c.9-2.9 2.8-5 5.4-6.3 2.7-1.4 5.5-1.6 8.3-.6 2.8.9 4.9 2.7 6.3 5.4zm-13.3-2.1c-1.9 1-3.2 2.5-3.9 4.5-.7 2-.5 4 .5 5.9s2.5 3.2 4.5 3.9c2 .7 4 .5 5.9-.5 1.9-1 3.2-2.5 3.9-4.5.7-2 .5-4-.5-5.9s-2.5-3.2-4.5-3.9c-2-.6-4-.4-5.9.5zM894.4 479c-.2-.4-.2-.8 0-1.2.2-.4.4-.7.8-.9.4-.2.8-.2 1.2 0 .4.2.7.4.9.8l.5 1.2c1-2.5 2.7-4.3 5.2-5.5 2.5-1.1 5.1-1.2 7.8-.2 2.6 1 4.5 2.8 5.7 5.3l4.2 9.2c.2.4.2.8 0 1.2-.2.4-.4.7-.8.9-.4.2-.8.2-1.2 0-.4-.2-.7-.4-.9-.8l-4.2-9.2c-.8-1.8-2.1-3-3.9-3.7-1.8-.7-3.6-.6-5.4.2-1.8.8-3 2.1-3.7 3.9-.7 1.8-.6 3.6.2 5.4l4.2 9.2c.2.4.2.8 0 1.2-.2.4-.4.7-.8.9-.4.2-.8.2-1.2 0-.4-.2-.7-.4-.9-.8l-7.7-17.1zM939.9 469.4c1.2 2.8 1.2 5.6 0 8.4-1.2 2.8-3.1 4.8-5.9 5.9-2.8 1.2-5.6 1.2-8.4 0-2.8-1.2-4.8-3.1-5.9-5.9-1.2-2.8-1.2-5.6 0-8.4 1.2-2.8 3.1-4.8 5.9-5.9 2.8-1.2 5.6-1.2 8.4 0 2.8 1.2 4.7 3.1 5.9 5.9zm-13.1-3c-2 .8-3.4 2.2-4.2 4.2s-.8 4 0 6 2.2 3.4 4.2 4.2c2 .8 4 .8 6 0s3.4-2.2 4.2-4.2c.8-2 .8-4 0-6s-2.2-3.4-4.2-4.2c-2-.8-4-.8-6 0zM957.2 474.1c-.2.4-.5.6-.9.8-.4.2-.8.2-1.2 0-.1 0-.2-.1-.4-.3L939.9 460c-.1-.1-.2-.3-.3-.5-.2-.4-.1-.8 0-1.2.2-.4.5-.7.9-.8.4-.2.8-.1 1.2 0 .1.1.3.2.4.3l12.3 12.1 1.2-17.2c0-.2.1-.4.1-.5.2-.4.5-.7.9-.8.4-.2.8-.1 1.2 0 .4.2.7.5.8.9.1.2.1.4.1.6l-1.4 20.7c-.1.2-.1.4-.1.5zM964.5 443.6c.2.5.1 1-.1 1.5s-.6.8-1.1 1c-.5.2-1 .1-1.5-.1s-.8-.6-1-1.1c-.2-.5-.1-1 .1-1.5s.6-.8 1.1-1c.5-.2 1-.2 1.5.1.5.2.8.6 1 1.1zm-1.2 7.1c-.1-.4-.1-.8.1-1.2.2-.4.5-.7.9-.8.4-.1.8-.1 1.2.1.4.2.7.5.8.9l6.3 17.7c.1.4.1.8-.1 1.2s-.5.7-.9.8c-.4.1-.8.1-1.2-.1-.4-.2-.7-.5-.8-.9l-6.3-17.7zM991.7 456.8c.4-.1.8-.1 1.2.1.4.2.6.5.8.9.1.4.1.8-.1 1.2-1.4 2.3-3.3 3.9-5.9 4.7-2.9 1-5.7.7-8.3-.6-2.7-1.4-4.5-3.5-5.5-6.3-.9-2.9-.7-5.7.6-8.3 1.4-2.7 3.5-4.5 6.3-5.5 2.6-.9 5.1-.8 7.6.3.4.2.7.5.9 1 .1.4.1.8-.1 1.2-.2.4-.5.6-.9.8-.4.1-.7.1-1.1 0-1.8-.8-3.6-.8-5.5-.2-2.1.7-3.6 2-4.5 3.9-1 1.9-1.1 3.9-.4 6 .7 2.1 2 3.6 3.9 4.5 1.9 1 3.9 1.1 6 .4 1.9-.6 3.3-1.8 4.2-3.4.2-.4.5-.6.8-.7zM1012.6 450.5c.4-.1.8-.1 1.2.1.4.2.6.5.8.9.1.4.1.8-.1 1.2-1.4 2.3-3.5 3.8-6.1 4.6-2.9.9-5.7.6-8.3-.9-2.7-1.4-4.4-3.6-5.3-6.5-.9-2.9-.6-5.7.9-8.3 1.4-2.7 3.6-4.4 6.5-5.3 2.9-.9 5.7-.6 8.3.9 2.7 1.4 4.4 3.6 5.3 6.5.1.4.1.8-.1 1.2-.2.4-.5.6-.9.8l-16.3 4.9c.7 1.4 1.8 2.4 3.2 3.2 1.9 1 3.9 1.2 5.9.6 1.9-.6 3.3-1.6 4.3-3.2 0-.4.3-.6.7-.7zm-.5-7.3c-.7-1.4-1.8-2.4-3.2-3.2-1.9-1-3.9-1.2-6-.6s-3.6 1.9-4.6 3.8c-.8 1.4-1.1 2.9-.9 4.4l14.7-4.4zM1031.2 423.5c.1.5.1 1-.2 1.5-.3.5-.7.8-1.2.9-.5.1-1 .1-1.5-.2-.5-.3-.8-.7-.9-1.2-.1-.5-.1-1 .2-1.5s.7-.8 1.2-.9c.5-.1 1-.1 1.5.2s.8.7.9 1.2zm-1.8 6.9c-.1-.4-.1-.8.2-1.2.2-.4.5-.6 1-.7s.8 0 1.2.2c.4.2.6.5.7 1l4.7 18.2c.1.4 0 .8-.2 1.2-.2.4-.5.6-1 .7s-.8 0-1.2-.2-.6-.5-.7-1l-4.7-18.2zM1057.8 441.2c.4-.1.8 0 1.2.2.4.2.6.5.7 1 .1.4 0 .8-.2 1.2-.2.4-.6.6-1 .7l-15.2 3.6c-.4.1-.8 0-1.2-.2-.4-.2-.6-.6-.7-1-.1-.4-.1-.7.1-1l9.5-18.9-12 2.8c-.4.1-.8 0-1.2-.2-.4-.2-.6-.6-.7-1s0-.8.2-1.2c.2-.4.6-.6 1-.7l15.2-3.6c.4-.1.8 0 1.2.2s.6.6.7 1c.1.4 0 .7-.1 1.1l-9.4 18.8 11.9-2.8zM1076 429.3c-1.2-.2-2.1-.5-2.7-.9-1.1-.7-1.7-1.7-2-3-.2-1.3 0-2.5.8-3.6 1.5-2.2 3.7-3.6 6.7-4.2 3.2-.6 6.2.1 9 2.3.2.2.4.5.5.8.1.4 0 .8-.2 1.2-.2.4-.6.6-1 .7-.4.1-.8 0-1.1-.2s-.5-.4-.7-.5c-1.8-1.2-3.7-1.6-5.9-1.2s-3.7 1.4-4.7 3c-.2.4-.3.9-.2 1.4.2.6.5.9 1.2 1l10 1.3c1.2.2 2.1.5 2.7.9 1.1.7 1.7 1.7 2 3s0 2.5-.8 3.6c-1.5 2.2-3.7 3.6-6.7 4.2-3.2.6-6.2-.1-9-2.3-.2-.2-.4-.5-.5-.8-.1-.4 0-.8.2-1.2.2-.4.6-.6 1-.7.4-.1.8 0 1.1.2.3.2.5.4.7.5 1.8 1.2 3.7 1.6 5.9 1.2 2.1-.4 3.7-1.4 4.7-3 .2-.4.3-.9.2-1.4-.2-.6-.5-.9-1.2-1l-10-1.3zm2.4-13.9c-.3.1-.6 0-.8-.1l-5.2-2.2c-.6-.3-.9-.7-1-1.2-.1-.4 0-.8.2-1.2.2-.4.6-.6 1-.7.4-.1.7 0 1 .1l4.1 1.7 3.2-3.1c.2-.3.5-.4.9-.5.4-.1.8 0 1.2.2.4.2.6.6.7 1 .1.5-.1 1-.5 1.5l-4 3.9c-.3.4-.5.5-.8.6zM1095 409.9c.1.5 0 1-.3 1.5-.3.4-.7.7-1.3.8-.5.1-1 0-1.5-.3s-.7-.7-.8-1.3 0-1 .3-1.5c.3-.4.7-.7 1.3-.8.5-.1 1 0 1.5.3s.7.8.8 1.3zm-2.4 6.8c-.1-.4 0-.8.3-1.2.3-.4.6-.6 1-.6.4-.1.8 0 1.2.3.4.3.6.6.6 1l3.2 18.6c.1.4 0 .8-.3 1.2-.3.4-.6.6-1 .6-.4.1-.8 0-1.2-.3-.4-.3-.6-.6-.6-1l-3.2-18.6zM1100.6 415.4c-.1-.4 0-.8.3-1.2.3-.3.6-.6 1-.6.4-.1.8 0 1.2.3.3.3.6.6.6 1l.3 1.7c1.8-2.5 4.3-4 7.2-4.4 1.5-.2 2.9-.2 4.3.1.2.1.5.2.7.3.3.3.5.6.6 1s0 .8-.3 1.2c-.3.3-.6.6-1 .6-.2 0-.5 0-.7-.1-1-.2-2-.3-3.1-.1-2.1.3-3.8 1.4-5.1 3.1-1.3 1.7-1.8 3.7-1.4 5.8l1.4 9.3c.1.4 0 .8-.3 1.2-.3.3-.6.6-1 .6-.4.1-.8 0-1.2-.3-.3-.3-.6-.6-.6-1l-2.9-18.5zM1119.5 412.6c-.1-.4.1-.8.3-1.1.3-.3.6-.5 1-.6.4-.1.8.1 1.1.3.3.3.5.6.6 1l.2 1.3c1.7-2.1 3.9-3.3 6.6-3.6 2.8-.3 5.3.4 7.5 2.1 2.2 1.7 3.5 4 3.8 6.7l1.2 10.1c.1.4-.1.8-.3 1.1-.3.3-.6.5-1 .6-.4.1-.8-.1-1.1-.3-.3-.3-.5-.6-.6-1l-1.2-10.1c-.2-1.9-1.1-3.5-2.6-4.7s-3.2-1.7-5.2-1.4-3.5 1.1-4.7 2.6c-1.2 1.5-1.7 3.2-1.4 5.2l1.2 10.1c.1.4-.1.8-.3 1.1-.3.3-.6.5-1 .6-.4.1-.8-.1-1.1-.3-.3-.3-.5-.6-.6-1l-2.4-18.7zM1161.4 423c.4 0 .8.1 1.1.4.3.3.5.6.6 1.1 0 .4-.1.8-.3 1.1-1.8 1.9-4.1 3-6.9 3.3-3 .3-5.7-.5-8-2.5-2.3-1.9-3.6-4.4-3.9-7.4s.5-5.7 2.5-8c1.9-2.3 4.4-3.6 7.4-3.9 3-.3 5.7.5 8 2.5s3.6 4.4 3.9 7.4c0 .4-.1.8-.4 1.1-.3.3-.6.5-1.1.6l-17 1.6c.4 1.5 1.3 2.7 2.5 3.8 1.7 1.4 3.6 2 5.7 1.8 1.9-.2 3.6-.9 4.8-2.3.4-.4.7-.5 1.1-.6zm1-7.3c-.4-1.5-1.3-2.7-2.5-3.8-1.7-1.4-3.6-2-5.7-1.8-2.2.2-3.9 1.1-5.3 2.8-1 1.2-1.6 2.6-1.8 4.1l15.3-1.3zM1188.2 423.3s-.1 0 0 0c-2.1 2.3-4.6 3.6-7.6 3.7-3 .2-5.7-.7-7.9-2.7-2.3-2-3.5-4.5-3.7-7.5-.2-3 .7-5.7 2.7-7.9 2-2.3 4.5-3.5 7.5-3.7 3-.2 5.7.7 7.9 2.7 2.3 2 3.5 4.5 3.7 7.5l.7 10.9c.1 2.3-.6 4.3-2.1 6.1-2.1 2.4-4.8 3.7-8.1 3.9s-6.1-.8-8.5-2.9c-.9-.8-1.6-1.6-2.2-2.6-.2-.2-.3-.5-.3-.8 0-.4.1-.8.4-1.1.3-.3.6-.5 1.1-.5.4 0 .8.1 1.1.4l.4.4c.4.7 1 1.3 1.6 1.9 1.8 1.6 3.8 2.3 6.2 2.2 2.4-.1 4.3-1.1 5.9-2.9 1-1.3 1.4-2.6 1.3-3.8l-.1-3.3zm-8.7-15c-2.2.1-4 1-5.4 2.6-1.4 1.6-2.1 3.5-1.9 5.7.1 2.2 1 4 2.6 5.4 1.6 1.4 3.5 2.1 5.7 2 2.2-.1 4-1 5.4-2.6s2.1-3.5 1.9-5.7c-.1-2.2-1-4-2.6-5.4-1.7-1.5-3.6-2.1-5.7-2zM1213.1 422.4c-2.1 2.2-4.7 3.4-7.7 3.5-3 .1-5.6-.9-7.8-3s-3.3-4.6-3.4-7.6.9-5.6 3-7.8 4.6-3.3 7.6-3.4c3-.1 5.6.9 7.8 3s3.3 4.6 3.4 7.6l.3 9.4c0 .4-.1.8-.4 1.1-.3.3-.7.5-1.1.5-.4 0-.8-.1-1.1-.4-.3-.3-.5-.7-.5-1.1l-.1-1.8zm-8.3-15.2c-2.2.1-4 .9-5.5 2.4-1.5 1.6-2.2 3.4-2.1 5.6.1 2.2.9 4 2.4 5.5 1.6 1.5 3.4 2.2 5.6 2.1 2.2-.1 4-.9 5.5-2.4 1.5-1.6 2.2-3.4 2.1-5.6-.1-2.2-.9-4-2.4-5.5s-3.4-2.2-5.6-2.1zM1242.1 425.3c-.3.3-.7.4-1.1.4s-.8-.2-1.1-.5c-.1-.1-.2-.2-.2-.4l-8.3-19.1c-.1-.2-.1-.4-.1-.6 0-.4.2-.8.5-1.1.3-.3.7-.4 1.1-.4s.8.2 1.1.5c.1.1.2.2.3.4l6.9 15.8 7.5-15.6c.1-.2.2-.3.3-.4.3-.3.7-.4 1.1-.4s.8.2 1.1.5c.3.3.4.7.4 1.1 0 .2 0 .4-.1.6l-9 18.7c-.2.3-.3.5-.4.5zM1271.2 421.5c.4 0 .8.2 1.1.5.3.3.4.7.4 1.1 0 .4-.2.8-.5 1.1-2.1 1.7-4.5 2.4-7.2 2.3-3-.1-5.5-1.3-7.6-3.6-2-2.2-3-4.9-2.8-7.9.1-3 1.3-5.5 3.6-7.6 2.2-2 4.9-3 7.9-2.8 3 .1 5.5 1.3 7.6 3.6 2 2.2 3 4.9 2.8 7.9 0 .4-.2.8-.5 1.1-.3.3-.7.4-1.1.4l-17-.8c.2 1.5.9 2.9 2 4.1 1.4 1.6 3.3 2.4 5.4 2.5 2 .1 3.7-.4 5.1-1.6.1-.2.4-.3.8-.3zm2-7.1c-.2-1.5-.9-2.9-2-4.1-1.4-1.6-3.3-2.4-5.4-2.5-2.2-.1-4 .6-5.6 2-1.2 1.1-2 2.4-2.3 3.9l15.3.7zM1283.5 416.7c-1.1-.5-1.9-1.1-2.4-1.6-.9-1-1.2-2.1-1.1-3.4.1-1.3.7-2.4 1.7-3.3 2-1.8 4.5-2.5 7.5-2.3 3.3.3 5.9 1.8 8.1 4.6.2.3.3.6.2.9 0 .4-.2.8-.5 1.1-.3.3-.7.4-1.1.4-.4 0-.8-.2-1-.5-.2-.3-.4-.5-.5-.6-1.4-1.6-3.2-2.5-5.3-2.7-2.2-.2-3.9.4-5.3 1.6-.3.4-.5.8-.6 1.3 0 .6.3 1.1.9 1.3l9.3 3.9c1.1.5 1.9 1.1 2.4 1.6.9 1 1.2 2.1 1.1 3.4-.1 1.3-.7 2.4-1.7 3.3-2 1.8-4.5 2.5-7.5 2.3-3.3-.3-6-1.8-8.1-4.6-.2-.3-.2-.6-.2-.9 0-.4.2-.8.5-1.1.3-.3.7-.4 1.1-.4s.8.2 1 .5c.2.3.4.5.5.6 1.4 1.6 3.2 2.5 5.3 2.7 2.2.2 3.9-.4 5.3-1.6.3-.4.5-.8.6-1.3 0-.6-.3-1.1-.9-1.3l-9.3-3.9zM1322.1 420.3c-.3 3-1.7 5.5-4 7.3-2.4 1.9-5 2.7-8 2.4-3-.3-5.5-1.7-7.3-4-1.9-2.4-2.7-5-2.4-8 .3-3 1.7-5.5 4-7.3 2.4-1.9 5-2.7 8-2.4 3 .3 5.5 1.7 7.3 4 1.9 2.3 2.7 5 2.4 8zm-10-8.9c-2.1-.2-4.1.3-5.7 1.7s-2.6 3.1-2.9 5.3c-.2 2.1.3 4.1 1.7 5.7 1.4 1.7 3.1 2.6 5.3 2.9 2.1.2 4.1-.3 5.7-1.7 1.7-1.4 2.6-3.1 2.9-5.3.2-2.1-.3-4.1-1.7-5.7-1.4-1.7-3.2-2.7-5.3-2.9zM1327.7 402.2c.1-.4.3-.8.6-1 .3-.3.7-.4 1.2-.3.4.1.8.3 1 .6.3.3.4.7.3 1.2l-3.4 26.3 1.5.2c.4.1.8.3 1 .6.3.3.4.7.3 1.2-.1.4-.3.8-.6 1-.3.3-.7.4-1.2.3l-3.1-.4c-.4-.1-.8-.3-1-.6-.3-.3-.4-.7-.3-1.2l3.7-27.9zM1335.5 433.2l2.8-20.1c.1-.4.3-.8.6-1 .3-.3.7-.4 1.2-.3.4.1.8.3 1 .6s.4.7.3 1.2l-2.8 20.1c-.4 2.6-1.6 4.6-3.6 6.2s-4.4 2.2-6.9 1.8c-.4-.1-.8-.3-1-.6s-.4-.7-.3-1.2c.1-.4.3-.8.6-1 .3-.3.7-.4 1.2-.3 1.7.2 3.3-.2 4.6-1.2 1.3-1.1 2.1-2.5 2.3-4.2zm7.2-25.8c-.1.5-.3 1-.8 1.3-.4.3-.9.5-1.4.4-.5-.1-1-.3-1.3-.8s-.5-.9-.4-1.4c.1-.5.3-1 .8-1.3.4-.3.9-.5 1.4-.4.5.1 1 .3 1.3.8.3.4.5.8.4 1.4zM1360.9 433.9c-2.5 1.8-5.3 2.5-8.2 2-3-.5-5.4-2-7.1-4.4-1.8-2.5-2.4-5.2-1.9-8.2.5-3 2-5.4 4.4-7.1 2.5-1.8 5.2-2.4 8.2-1.9 3 .5 5.4 2 7.1 4.4 1.8 2.5 2.4 5.2 1.9 8.2l-1.5 9.2c-.1.4-.3.8-.6 1s-.7.3-1.2.3c-.4-.1-.8-.3-1-.6-.3-.4-.3-.7-.3-1.2l.2-1.7zm-5.2-16.6c-2.1-.4-4.1.1-5.8 1.4-1.8 1.3-2.8 2.9-3.2 5.1-.4 2.1.1 4.1 1.4 5.8 1.3 1.8 2.9 2.8 5.1 3.2 2.1.4 4.1-.1 5.8-1.4 1.8-1.3 2.8-3 3.2-5.1.4-2.1-.1-4.1-1.4-5.8-1.3-1.8-3-2.8-5.1-3.2zM1401.4 434.2c-.6 3-2.2 5.3-4.8 6.9-2.5 1.6-5.3 2.1-8.3 1.5-3-.6-5.3-2.2-6.9-4.8s-2.1-5.3-1.5-8.3 2.2-5.3 4.8-6.9c2.5-1.6 5.3-2.1 8.3-1.5 3 .6 5.3 2.2 6.9 4.8 1.7 2.6 2.2 5.3 1.5 8.3zm-9-10c-2.1-.5-4.1-.1-5.9 1.1s-2.9 2.8-3.4 4.9c-.5 2.1-.1 4.1 1.1 5.9 1.2 1.8 2.8 2.9 4.9 3.4 2.1.5 4.1.1 5.9-1.1s2.9-2.8 3.4-4.9c.5-2.1.1-4.1-1.1-5.9-1.2-1.8-2.8-2.9-4.9-3.4zM1413.3 445.1c.4.1.7.3 1 .7.2.4.3.8.2 1.2s-.3.7-.7 1c-.4.2-.8.3-1.2.2-5.1-1.2-7-4.4-5.8-9.4l2.6-10.6-1.5-.4c-.4-.1-.7-.3-1-.7-.2-.4-.3-.8-.2-1.2.1-.4.3-.7.7-1 .4-.2.8-.3 1.2-.2l1.5.4 1.8-7.6c.1-.4.3-.7.7-1 .4-.2.8-.3 1.2-.2.4.1.7.3 1 .7.2.4.3.8.2 1.2l-1.8 7.6 3.1.7c.4.1.7.3 1 .7.2.4.3.8.2 1.2-.1.4-.3.7-.7 1-.4.2-.8.3-1.2.2l-3.1-.7-2.6 10.6c-.8 3 .4 4.9 3.4 5.6zM1422.2 429.5c.1-.4.4-.7.7-1s.8-.3 1.2-.2c.4.1.7.4 1 .7.2.4.3.8.2 1.2l-.4 1.7c2.7-1.6 5.5-1.9 8.4-1.2 1.5.4 2.8 1 3.9 1.9.2.1.4.3.5.6.2.4.3.8.1 1.2-.1.4-.4.7-.7 1-.4.2-.8.3-1.2.2l-.6-.3c-.8-.6-1.7-1.1-2.8-1.4-2.1-.6-4.1-.3-6 .8s-3.1 2.7-3.7 4.8l-2.4 9.1c-.1.4-.4.7-.7 1-.4.2-.8.3-1.2.2-.4-.1-.7-.4-1-.7-.2-.4-.3-.8-.2-1.2l4.9-18.4zM1459 449.7c-.9 2.9-2.6 5.1-5.3 6.5-2.7 1.4-5.4 1.7-8.3.9s-5.1-2.6-6.5-5.3-1.7-5.4-.9-8.3 2.6-5.1 5.3-6.5 5.4-1.7 8.3-.9c2.9.9 5.1 2.6 6.5 5.3 1.4 2.6 1.7 5.4.9 8.3zm-8.3-10.6c-2.1-.6-4.1-.4-5.9.6s-3.1 2.6-3.8 4.7-.4 4.1.6 5.9c1 1.9 2.6 3.1 4.7 3.8s4.1.4 5.9-.6c1.9-1 3.1-2.6 3.8-4.7s.4-4.1-.6-5.9c-1.1-1.9-2.6-3.2-4.7-3.8zM1465.7 449.7l15.2-4c.3-.1.6-.1.9 0 .4.1.7.4.9.8.2.4.2.8.1 1.2s-.4.7-.8.9c-.1 0-.2.1-.3.1l-10.5 2.8 5.6 12.9c.2.4.2.8.1 1.2-.1.4-.4.7-.8.9-.4.2-.8.2-1.2.1s-.7-.4-.9-.8l-5.8-13.4-3.7 1-2.4 7.4c-.1.4-.4.7-.8.9-.4.2-.8.2-1.2.1-.4-.1-.7-.4-.9-.8-.2-.4-.2-.8-.1-1.2l8.8-26.7c.1-.4.4-.7.8-.9.4-.2.8-.2 1.2-.1.4.1.7.4.9.8.2.4.2.8.1 1.2l-5.2 15.6zM1502.3 464.6c-1 2.8-2.9 4.9-5.6 6.2-2.7 1.3-5.5 1.4-8.4.4-2.8-1-4.9-2.9-6.2-5.6-1.3-2.7-1.4-5.5-.4-8.4s2.9-4.9 5.6-6.2c2.7-1.3 5.5-1.4 8.4-.4 2.8 1 4.9 2.9 6.2 5.6 1.3 2.8 1.4 5.6.4 8.4zm-7.6-11c-2-.7-4-.6-6 .3-2 .9-3.3 2.4-4 4.4-.7 2-.6 4 .3 6s2.4 3.3 4.4 4c2 .7 4 .6 6-.3 2-.9 3.3-2.4 4-4.4.7-2 .6-4-.3-6-.9-1.9-2.4-3.3-4.4-4zM1504.8 475.6c-.2.4-.4.7-.8.8s-.8.2-1.2 0c-.4-.2-.7-.4-.8-.8s-.2-.8 0-1.2l7.1-17.4c.2-.4.4-.7.8-.8.4-.2.8-.2 1.2 0 .4.2.7.4.8.8s.2.8 0 1.2l-.2.4c1.9-.6 3.9-.6 5.8.2 2.2.9 3.8 2.4 4.7 4.6.2.5.3.9.5 1.4.4-.3.8-.5 1.3-.7 2.2-.9 4.4-.9 6.6 0 2.2.9 3.8 2.4 4.7 4.6.9 2.2.9 4.4 0 6.6l-4.4 10.9c-.2.4-.4.7-.8.8s-.8.2-1.2 0c-.4-.2-.7-.4-.8-.8-.2-.4-.2-.8 0-1.2l4.4-10.9c.6-1.4.6-2.8 0-4.2s-1.6-2.4-3-2.9c-1.4-.6-2.8-.6-4.2 0-1.4.6-2.4 1.6-2.9 3l-4.4 10.9c-.2.4-.4.7-.8.8-.4.2-.8.2-1.2 0-.4-.2-.7-.4-.8-.8s-.2-.8 0-1.2l4.4-10.9c.6-1.4.6-2.8 0-4.2-.6-1.4-1.6-2.4-3-2.9-1.4-.6-2.8-.6-4.2 0-1.4.6-2.4 1.6-2.9 3l-4.7 10.9zM1551.5 485.3c-.9-.9-1.4-1.7-1.7-2.3-.5-1.2-.4-2.4.1-3.6.5-1.2 1.5-2 2.7-2.5 2.5-.9 5.1-.8 7.9.5 3 1.4 4.9 3.8 5.9 7.1.1.3 0 .6-.1 1-.2.4-.5.7-.9.8-.4.1-.8.1-1.2-.1-.4-.2-.6-.5-.8-.8-.1-.4-.2-.6-.3-.8-.7-2-2.1-3.5-4-4.4s-3.8-1-5.5-.4c-.4.2-.8.6-1 1-.2.6-.1 1.1.3 1.5l7.4 7c.9.9 1.4 1.7 1.7 2.3.5 1.2.4 2.4-.1 3.6s-1.5 2-2.7 2.4c-2.5.9-5.1.8-7.9-.5-3-1.4-5-3.8-5.9-7.1-.1-.3 0-.6.1-1 .2-.4.5-.7.9-.8.4-.1.8-.1 1.2.1.4.2.6.5.8.8.1.4.2.6.3.8.7 2 2.1 3.5 4 4.4 2 .9 3.8 1 5.5.4.4-.2.8-.6 1-1 .2-.6.1-1.1-.3-1.5l-7.4-6.9zm10.1-9.9c-.3-.1-.5-.3-.6-.5l-2.9-4.8c-.3-.6-.3-1.1-.1-1.6.2-.4.5-.7.9-.8.4-.1.8-.1 1.2.1.3.2.6.4.7.7l2.3 3.8 4.4-.7c.3-.1.7 0 1 .1.4.2.7.5.8.9.1.4.1.8-.1 1.2-.2.5-.7.8-1.3.9l-5.5.8c-.2 0-.5 0-.8-.1zM1572.3 484.8c.2-.4.5-.7.9-.8.4-.1.8-.1 1.2.1.4.2.7.5.8.9.1.4.1.8-.1 1.2l-8.2 16.9c-.2.4-.5.6-.9.8-.4.1-.8.1-1.2-.1-.4-.2-.7-.5-.8-.9-.1-.4-.1-.8.1-1.2l8.2-16.9zm6-4.1c-.2.5-.6.8-1.1 1-.5.2-1 .1-1.5-.1s-.8-.6-1-1.1-.1-1 .1-1.5.6-.8 1.1-1 1-.1 1.5.1.8.6 1 1.1c.1.5.1 1-.1 1.5zM1579.6 488.4c.2-.4.5-.6.9-.8.4-.1.8-.1 1.2.1s.6.5.8.9.1.8-.1 1.2l-.8 1.5c3-.9 5.8-.7 8.5.7 1.4.7 2.5 1.6 3.4 2.6.2.2.3.4.4.7.1.4.1.8-.1 1.2-.2.4-.5.6-.9.8-.4.1-.8.1-1.2-.1-.2-.1-.4-.3-.5-.5-.6-.8-1.5-1.4-2.4-1.9-1.9-1-3.9-1.2-6-.5s-3.6 1.9-4.6 3.9l-4.3 8.3c-.2.4-.5.6-.9.8-.4.1-.8.1-1.2-.1s-.6-.5-.8-.9c-.1-.4-.1-.8.1-1.2l8.5-16.7zM1611.3 515.8c-1.4 2.7-3.6 4.4-6.5 5.3-2.9.9-5.7.6-8.3-.9-2.7-1.5-4.4-3.6-5.3-6.5-.9-2.9-.6-5.7.9-8.3 1.5-2.7 3.6-4.4 6.5-5.3 2.9-.9 5.7-.6 8.3.9 2.7 1.4 4.4 3.6 5.3 6.5s.6 5.6-.9 8.3zm-5.9-12.2c-1.9-1-3.9-1.3-6-.6-2.1.6-3.6 1.9-4.7 3.8-1 1.9-1.3 3.9-.6 6 .6 2.1 1.9 3.6 3.8 4.7 1.9 1 3.9 1.3 6 .6 2.1-.6 3.6-1.9 4.7-3.8 1-1.9 1.3-3.9.6-6-.6-2.1-1.9-3.6-3.8-4.7zM1612 527.1c-.2.4-.5.6-1 .7-.4.1-.8 0-1.2-.2-.4-.2-.6-.5-.7-1-.1-.4 0-.8.2-1.2l9.8-16.1c.2-.4.5-.6 1-.7.4-.1.8 0 1.2.2.4.2.6.5.7 1 .1.4 0 .8-.2 1.2l-.2.4c2-.3 3.9.1 5.7 1.1 2 1.2 3.3 3 3.9 5.3.1.5.2 1 .2 1.5.4-.2.9-.3 1.4-.5 2.3-.6 4.5-.2 6.5 1s3.3 3 3.9 5.3c.6 2.3.2 4.5-1 6.5l-6.1 10.1c-.2.4-.5.6-1 .7-.4.1-.8 0-1.2-.2-.4-.2-.6-.5-.7-1-.1-.4 0-.8.2-1.2l6.1-10.1c.8-1.3 1-2.7.6-4.2s-1.2-2.6-2.5-3.4c-1.3-.8-2.7-1-4.2-.6s-2.6 1.2-3.4 2.5l-6.1 10.1c-.2.4-.5.6-1 .7-.4.1-.8 0-1.2-.2-.4-.2-.6-.5-.7-1-.1-.4 0-.8.2-1.2l6.1-10.1c.8-1.3 1-2.7.6-4.2s-1.2-2.6-2.5-3.4-2.7-1-4.2-.6-2.6 1.2-3.4 2.5l-5.8 10.3zM1656.7 543.9c-.7-1-1.2-1.9-1.3-2.5-.3-1.3 0-2.4.7-3.5s1.7-1.7 3.1-2c2.6-.5 5.2 0 7.7 1.7 2.7 1.8 4.3 4.5 4.8 7.9 0 .3-.1.6-.3.9-.2.4-.6.6-1 .7-.4.1-.8 0-1.2-.2-.4-.2-.6-.5-.6-.9-.1-.4-.1-.6-.1-.8-.4-2.1-1.5-3.8-3.3-5s-3.6-1.6-5.4-1.2c-.5.1-.9.4-1.1.9-.3.5-.3 1.1.1 1.6l6.2 8c.7 1 1.2 1.9 1.3 2.5.3 1.3 0 2.4-.7 3.5s-1.7 1.7-3.1 2c-2.6.5-5.2 0-7.7-1.7-2.7-1.8-4.3-4.5-4.8-7.9 0-.3.1-.6.3-.9.2-.4.6-.6 1-.7.4-.1.8 0 1.2.2.4.2.6.5.6.9.1.4.1.6.1.8.4 2.1 1.5 3.8 3.3 5 1.8 1.2 3.6 1.6 5.4 1.2.5-.1.9-.4 1.1-.9.3-.5.3-1.1-.1-1.6l-6.2-8zM1673.7 568.5c-.4.1-.8 0-1.2-.3-.4-.3-.6-.6-.6-1v-.4l3.9-20.3c0-.2.1-.4.3-.6.2-.3.6-.6 1-.6.4-.1.8 0 1.2.3s.6.6.6 1v.5l-3.3 16.9 14.9-8.6c.2-.1.3-.1.5-.2.4-.1.8 0 1.1.3s.6.6.6 1c.1.4 0 .8-.3 1.2-.1.2-.3.3-.4.4l-18 10.3s-.1.1-.3.1zM1699.9 582c.3.3.5.6.6 1 .1.4 0 .8-.3 1.2-.3.3-.6.5-1 .6-2.7.2-5.1-.6-7.2-2.3-2.4-1.8-3.8-4.3-4.2-7.2-.4-3 .3-5.7 2.2-8.1s4.3-3.8 7.2-4.2c3-.4 5.7.3 8.1 2.2 2.4 1.8 3.8 4.3 4.2 7.2.4 3-.3 5.7-2.2 8.1-.3.3-.6.5-1 .6s-.8 0-1.2-.3l-13.5-10.4c-.7 1.4-.9 2.8-.7 4.4.3 2.1 1.3 3.9 3 5.2 1.5 1.2 3.2 1.7 5.1 1.6.2.1.6.2.9.4zm5.7-4.7c.7-1.4.9-2.8.7-4.4-.3-2.1-1.3-3.9-3-5.2-1.7-1.3-3.6-1.8-5.8-1.6-1.6.2-3 .8-4.1 1.8l12.2 9.4zM1713.4 595.4c.3.3.5.6.6 1.1 0 .4-.1.8-.3 1.1-.3.3-.6.5-1.1.6-.4 0-.8-.1-1.2-.3-4.1-3.3-4.5-7-1.2-11l6.9-8.5-1.2-1c-.3-.3-.5-.6-.6-1.1 0-.4.1-.8.3-1.1.3-.3.6-.5 1.1-.6s.8.1 1.2.3l1.2 1 4.9-6.1c.3-.3.6-.5 1.1-.6.4 0 .8.1 1.1.3.3.3.5.6.6 1.1 0 .4-.1.8-.3 1.1l-4.9 6.1 2.5 2c.3.3.5.6.6 1.1 0 .4-.1.8-.3 1.1-.3.3-.6.5-1.1.6-.4 0-.8-.1-1.1-.3l-2.5-2-6.9 8.5c-2.1 2.5-1.8 4.7.6 6.6zM1730.5 609.5c-3.1.3-5.8-.6-8.1-2.5-2.3-2-3.6-4.4-3.8-7.4-.2-3 .6-5.7 2.6-8s4.4-3.6 7.4-3.8c3-.2 5.7.6 8 2.6s3.6 4.4 3.8 7.4c.2 3-.6 5.7-2.6 8l-6.1 7.2c-.3.3-.6.5-1.1.5-.4 0-.8-.1-1.1-.4s-.5-.6-.5-1.1c0-.4.1-.8.4-1.1l1.1-1.4zm4-16.8c-1.6-1.4-3.5-2-5.7-1.8s-3.9 1.1-5.3 2.7-2 3.5-1.8 5.7c.2 2.1 1.1 3.9 2.7 5.3s3.5 2 5.7 1.8 3.9-1.1 5.3-2.7 2-3.5 1.8-5.7-1-3.9-2.7-5.3z"/></svg>