<svg xmlns="http://www.w3.org/2000/svg" viewBox="0 0 2453 2453"><title>SS_bottom slogan_RU</title><path fill="#03709C" d="M665.7 627.4c-.3-.3-.4-.7-.4-1.1 0-.4.2-.8.5-1.1.3-.3.7-.4 1.1-.4.4 0 .8.2 1.1.5l8.7 9 11.2-10.9-8.7-9c-.3-.3-.4-.7-.4-1.1 0-.4.2-.8.5-1.1.3-.3.7-.4 1.1-.4.4 0 .8.2 1.1.5l19.7 20.2c.3.3.4.7.4 1.1 0 .4-.2.8-.5 1.1-.3.3-.7.4-1.1.4-.4 0-.8-.2-1.1-.5l-8.7-9-11.2 10.9 8.7 9c.3.3.4.7.4 1.1 0 .4-.2.8-.5 1.1-.3.3-.7.4-1.1.4-.4 0-.8-.2-1.1-.5l-19.7-20.2zM713.3 616.3c.3-.3.7-.4 1.1-.4.4 0 .8.2 1.1.5.3.3.4.7.4 1.1-.3 2.7-1.5 4.9-3.5 6.7-2.2 2-4.9 3-7.9 2.8-3-.1-5.5-1.3-7.6-3.6-2-2.2-3-4.9-2.8-7.9.1-3 1.3-5.5 3.6-7.6 2.2-2 4.9-3 7.9-2.8 3 .1 5.5 1.3 7.6 3.6.3.3.4.7.4 1.1 0 .4-.2.8-.5 1.1l-12.6 11.5c1.2.9 2.6 1.4 4.3 1.5 2.2.1 4-.6 5.6-2 1.4-1.3 2.3-2.9 2.5-4.8 0-.3.1-.6.4-.8zm-3.6-6.5c-1.2-.9-2.6-1.4-4.3-1.5-2.2-.1-4 .6-5.6 2-1.6 1.5-2.5 3.3-2.6 5.4-.1 1.6.3 3.1 1.1 4.4l11.4-10.3zM732.2 599.9c.3-.3.7-.4 1.1-.4.4 0 .8.2 1.1.5.3.3.4.7.4 1.2-.4 2.6-1.6 4.9-3.7 6.6-2.3 2-5 2.8-8 2.6-3-.2-5.5-1.5-7.5-3.8s-2.8-5-2.6-8c.2-3 1.5-5.5 3.8-7.5 2.1-1.8 4.5-2.6 7.1-2.6.5 0 .9.2 1.2.6.3.3.4.7.4 1.1 0 .4-.2.8-.5 1.1-.3.2-.6.4-1 .4-1.9 0-3.7.6-5.1 1.9-1.6 1.4-2.6 3.2-2.7 5.3-.2 2.1.4 4 1.9 5.7s3.2 2.6 5.3 2.7 4-.4 5.7-1.9c1.5-1.3 2.4-2.9 2.6-4.8 0-.2.2-.5.5-.7zM749.1 586.2c.3-.3.7-.4 1.1-.3s.8.2 1 .6c.3.3.4.7.3 1.1-.5 2.6-1.8 4.8-3.9 6.5-2.4 1.9-5 2.7-8 2.3-3-.3-5.4-1.7-7.3-4-1.9-2.4-2.7-5-2.3-8 .3-3 1.7-5.4 4-7.3s5-2.7 8-2.3c3 .3 5.4 1.7 7.3 4 .3.3.4.7.3 1.1 0 .4-.2.8-.6 1l-13.3 10.7c1.2 1 2.5 1.6 4.2 1.7 2.1.2 4.1-.3 5.7-1.7 1.5-1.2 2.4-2.8 2.8-4.6.2-.3.4-.6.7-.8zm-3.2-6.7c-1.2-1-2.5-1.6-4.2-1.7-2.1-.2-4.1.3-5.7 1.7s-2.6 3.1-2.9 5.2c-.2 1.6.1 3.1.8 4.4l12-9.6zM767.9 577l-12.3-8.6 4.8 14.5v.5c-.1.4-.3.8-.6 1-.3.3-.7.4-1.2.3s-.8-.3-1-.6l-.3-.6-6.2-18.7c-.1-.2-.1-.4 0-.7.1-.4.3-.7.6-1 .3-.3.7-.4 1.1-.3.2.1.4.1.6.2l12.4 8.7-4.7-14.4c-.1-.2-.1-.4 0-.7.1-.4.3-.7.6-1 .3-.3.7-.4 1.1-.3.2.1.4.1.6.2l16.2 11.3c.2.1.3.2.5.4.3.3.4.7.3 1.2s-.3.8-.6 1c-.3.3-.7.4-1.1.3-.2 0-.4-.1-.5-.2l-12.5-8.7 4.7 14.2c.1.3.1.5.1.8-.1.4-.3.8-.6 1-.3.3-.7.4-1.1.3-.4.2-.7.1-.9-.1zM790.3 550.8l4.4 6.5c.2.4.3.7.2 1.2s-.3.8-.7 1c-.4.2-.7.3-1.2.2-.4-.1-.8-.3-1-.7l-10.5-15.6c-.2-.4-.3-.7-.2-1.2.1-.4.3-.8.7-1 .4-.2.7-.3 1.2-.2.4.1.8.3 1 .7l4.4 6.5 9.7-6.5-4.4-6.5c-.2-.4-.3-.7-.2-1.2.1-.4.3-.8.7-1 .4-.2.7-.3 1.2-.2.4.1.8.3 1 .7l10.5 15.6c.2.4.3.7.2 1.2-.1.4-.3.8-.7 1-.4.2-.7.3-1.2.2s-.8-.3-1-.7l-4.4-6.5-9.7 6.5zM823.1 527.9c1.6 2.6 2.1 5.3 1.4 8.3-.7 2.9-2.3 5.2-4.9 6.8-2.6 1.6-5.3 2.1-8.3 1.4-2.9-.7-5.2-2.3-6.8-4.9-1.6-2.6-2.1-5.3-1.4-8.3.7-2.9 2.3-5.2 4.9-6.8 2.6-1.6 5.3-2.1 8.3-1.4 2.9.7 5.2 2.3 6.8 4.9zm-13.4-.9c-1.8 1.1-3 2.8-3.5 4.9-.5 2.1-.2 4.1 1 5.9s2.8 3 4.9 3.5c2.1.5 4.1.2 5.9-1 1.8-1.1 3-2.8 3.5-4.9.5-2.1.2-4.1-1-5.9s-2.8-3-4.9-3.5c-2.1-.5-4.1-.1-5.9 1zM821.5 516l6.7-4c1.5-.9 3.1-1.1 4.7-.7 1.7.4 2.9 1.4 3.8 2.9.8 1.3 1.1 2.7.8 4.2.5 0 1 .1 1.5.2 1.7.4 2.9 1.4 3.8 2.9.9 1.5 1.1 3.1.7 4.7-.4 1.7-1.4 2.9-2.9 3.8l-8.1 4.8c-.4.2-.8.3-1.2.2-.4-.1-.7-.3-1-.7l-9.6-16.1c-.2-.4-.3-.8-.2-1.2.4-.5.7-.8 1-1zm11.5 4.1c.7-.4 1.2-1.1 1.4-1.9.2-.8.1-1.6-.3-2.4-.4-.7-1.1-1.2-1.9-1.4-.8-.2-1.6-.1-2.4.3l-5.4 3.2 3.2 5.4 5.4-3.2zm6.1 7.2c.7-.4 1.2-1.1 1.4-1.9.2-.8.1-1.6-.3-2.4s-1.1-1.2-1.9-1.4c-.8-.2-1.6-.1-2.4.3l-6.7 4 3.2 5.4 6.7-4zM862.5 505.3c1.5 2.6 1.8 5.4.9 8.3-.8 2.9-2.6 5.1-5.2 6.5-2.6 1.5-5.4 1.8-8.3.9-2.9-.8-5.1-2.6-6.5-5.2-1.5-2.6-1.8-5.4-.9-8.3.8-2.9 2.6-5.1 5.2-6.5 2.6-1.5 5.4-1.8 8.3-.9 2.9.8 5.1 2.5 6.5 5.2zm-13.3-1.6c-1.9 1-3.1 2.6-3.7 4.7-.6 2.1-.4 4.1.7 5.9 1 1.9 2.6 3.1 4.7 3.7 2.1.6 4 .4 5.9-.7 1.9-1 3.1-2.6 3.7-4.7.6-2.1.4-4-.7-5.9s-2.6-3.1-4.7-3.7c-2-.6-4-.3-5.9.7zM883.1 501c.4-.2.8-.2 1.2-.1.4.1.7.4.9.8s.2.8.1 1.2c-1 2.5-2.7 4.3-5.1 5.6-2.7 1.4-5.5 1.6-8.3.7-2.9-.9-5-2.7-6.4-5.4s-1.6-5.5-.7-8.3c.9-2.9 2.7-5 5.4-6.4 2.4-1.2 4.9-1.5 7.5-.9.5.1.8.4 1 .8.2.4.2.8.1 1.2-.1.4-.4.7-.8.9-.3.2-.7.2-1 .1-1.9-.5-3.7-.3-5.4.6-1.9 1-3.2 2.5-3.9 4.6s-.5 4 .5 6 2.5 3.2 4.6 3.9 4 .5 6-.5c1.7-.9 3-2.2 3.7-4 0-.4.3-.6.6-.8zM891.8 500.9c.2.4.2.8 0 1.2-.1.4-.4.7-.8.9s-.8.2-1.2 0c-.4-.1-.7-.4-.9-.8l-7.9-17c-.2-.4-.2-.8 0-1.2s.4-.7.8-.9.8-.2 1.2-.1c.4.1.7.4.9.8l.2.4c.8-1.8 2.2-3.2 4.1-4.1 2.1-1 4.3-1.1 6.6-.3.5.2.9.4 1.3.6.1-.5.2-.9.4-1.4.8-2.2 2.3-3.8 4.4-4.8 2.1-1 4.3-1.1 6.6-.3 2.2.8 3.8 2.3 4.8 4.4l5 10.6c.2.4.2.8 0 1.2-.1.4-.4.7-.8.9-.4.2-.8.2-1.2.1-.4-.1-.7-.4-.9-.8l-5-10.6c-.6-1.4-1.7-2.3-3.1-2.8-1.4-.5-2.8-.5-4.2.2-1.4.6-2.3 1.7-2.8 3.1-.5 1.4-.5 2.8.2 4.2l5 10.6c.2.4.2.8 0 1.2-.1.4-.4.7-.8.9-.4.2-.8.2-1.2.1-.4-.1-.7-.4-.9-.8l-5-10.6c-.6-1.4-1.7-2.3-3.1-2.8-1.4-.5-2.8-.5-4.2.2-1.4.6-2.3 1.7-2.8 3.1-.5 1.4-.5 2.8.2 4.2l5.1 10.4zM938.7 480c.2.4.2.8 0 1.2-.2.4-.4.7-.8.9s-.8.2-1.2 0c-.4-.2-.7-.4-.9-.8l-.5-1.2c-1.1 2.5-2.8 4.3-5.4 5.3-2.6 1.1-5.2 1.1-7.8.1-2.6-1.1-4.4-2.9-5.5-5.4l-4-9.3c-.2-.4-.2-.8 0-1.2.2-.4.4-.7.8-.9.4-.2.8-.2 1.2 0 .4.2.7.4.9.8l4 9.3c.8 1.8 2 3 3.8 3.8 1.8.7 3.6.7 5.4 0 1.8-.8 3-2 3.8-3.8.7-1.8.7-3.6 0-5.4l-4-9.3c-.2-.4-.2-.8 0-1.2.2-.4.4-.7.8-.9.4-.2.8-.2 1.2 0 .4.2.7.4.9.8l7.3 17.2zM966.9 465.2c.4-.1.8-.1 1.2 0 .4.2.7.5.8.9.1.4.1.8-.1 1.2-1.3 2.3-3.2 4-5.8 4.9-2.8 1-5.6.9-8.4-.3-2.7-1.3-4.6-3.3-5.7-6.1-1-2.8-.9-5.6.3-8.4 1.3-2.7 3.3-4.6 6.1-5.7 2.6-.9 5.1-.9 7.6 0 .5.2.8.5.9.9.1.4.1.8 0 1.2-.2.4-.5.7-.9.8-.4.1-.7.1-1.1 0-1.8-.7-3.6-.7-5.5 0-2 .7-3.5 2.1-4.4 4.1-.9 2-1 3.9-.2 6s2.1 3.5 4.1 4.4c2 .9 3.9 1 6 .2 1.8-.7 3.2-1.9 4.1-3.6.4-.1.7-.3 1-.5zM990.4 451.3c1 2.9.8 5.6-.6 8.4-1.3 2.7-3.5 4.5-6.3 5.5-2.9 1-5.6.8-8.4-.6-2.7-1.3-4.5-3.5-5.5-6.3-1-2.9-.8-5.6.6-8.4s3.5-4.5 6.3-5.5c2.9-1 5.6-.8 8.4.6 2.7 1.4 4.5 3.5 5.5 6.3zm-12.8-3.9c-2 .7-3.6 2-4.5 3.9-1 1.9-1.1 3.9-.4 6 .7 2 2 3.6 3.9 4.5s3.9 1.1 6 .4c2-.7 3.6-2 4.5-3.9 1-1.9 1.1-3.9.4-6s-2-3.6-3.9-4.5-4-1.1-6-.4zM1003.3 436l7.5-2.1c1.7-.5 3.2-.3 4.8.5 1.5.8 2.5 2.1 3 3.8.4 1.5.3 2.9-.3 4.2.5.1.9.3 1.4.6 1.5.8 2.5 2.1 3 3.8.5 1.7.3 3.3-.5 4.8s-2.1 2.5-3.8 3l-9 2.6c-.4.1-.8.1-1.2-.1-.4-.2-.6-.5-.7-.9l-5.2-18c-.1-.4-.1-.8.1-1.2.1-.7.4-.9.9-1zm10 6.8c.8-.2 1.4-.7 1.9-1.5.4-.8.5-1.5.3-2.4s-.7-1.4-1.5-1.9c-.8-.4-1.5-.5-2.4-.3l-6 1.7 1.7 6 6-1.6zm4.1 8.6c.8-.2 1.4-.7 1.9-1.5.4-.8.5-1.5.3-2.4s-.7-1.4-1.5-1.9c-.8-.4-1.5-.5-2.4-.3l-7.5 2.1 1.7 6 7.5-2zM1042.3 442.5c.4-.1.8 0 1.2.2.4.2.6.5.7 1 .1.4 0 .8-.2 1.2-1.5 2.2-3.6 3.6-6.2 4.3-2.9.8-5.7.4-8.3-1.2-2.6-1.5-4.3-3.8-5-6.7-.8-2.9-.4-5.7 1.2-8.3 1.5-2.6 3.8-4.3 6.7-5 2.6-.7 5.2-.4 7.6.8.4.2.7.6.8 1 .1.4 0 .8-.2 1.2-.2.4-.5.6-1 .7-.4.1-.7.1-1.1-.1-1.7-.9-3.5-1.1-5.4-.6-2.1.5-3.7 1.7-4.8 3.6s-1.4 3.8-.8 5.9c.5 2.1 1.7 3.7 3.6 4.8 1.9 1.1 3.8 1.4 5.9.8 1.9-.5 3.4-1.5 4.5-3.1.1-.2.4-.4.8-.5zM1063.5 437.7c.4-.1.8 0 1.2.2.4.2.6.6.7 1 .1.4 0 .8-.2 1.2-1.6 2.2-3.7 3.5-6.4 4.1-2.9.7-5.7.2-8.2-1.4-2.6-1.6-4.2-3.9-4.8-6.8s-.2-5.7 1.4-8.2c1.6-2.6 3.9-4.2 6.8-4.8 2.9-.7 5.7-.2 8.2 1.4 2.6 1.6 4.2 3.9 4.8 6.8.1.4 0 .8-.2 1.2-.2.4-.6.6-1 .7l-16.6 3.7c.6 1.4 1.6 2.5 3 3.4 1.8 1.2 3.8 1.5 5.9 1 1.9-.4 3.4-1.4 4.5-2.9.2-.4.5-.5.9-.6zm0-7.4c-.6-1.4-1.6-2.5-3-3.4-1.8-1.2-3.8-1.5-5.9-1-2.1.5-3.7 1.6-4.9 3.4-.9 1.4-1.3 2.8-1.2 4.3l15-3.3zM1092 435.9c.1.4 0 .8-.2 1.2-.2.4-.6.6-1 .7-.4.1-.8 0-1.2-.2-.4-.2-.6-.6-.7-1l-.2-1.2c-1.6 2.2-3.7 3.6-6.4 4.1-2.8.5-5.3 0-7.6-1.6s-3.8-3.7-4.3-6.5l-1.9-10c-.1-.4 0-.8.2-1.2.2-.4.6-.6 1-.7.4-.1.8 0 1.2.2.4.2.6.6.7 1l1.9 10c.4 1.9 1.4 3.4 3 4.5s3.4 1.5 5.3 1.1c1.9-.4 3.4-1.4 4.5-3s1.5-3.4 1.1-5.3l-1.9-10c-.1-.4 0-.8.2-1.2.2-.4.6-.6 1-.7.4-.1.8 0 1.2.2.4.2.6.6.7 1l3.4 18.6zm-21.2-23.8c-.1-.4 0-.8.2-1.2.2-.4.6-.6 1-.7.4-.1.8 0 1.2.2.4.2.6.6.7 1s.5.7 1.1.9c.7.2 1.4.2 2.3 0 .8-.2 1.5-.5 2.1-.9.5-.4.8-.8.7-1.3-.1-.4 0-.8.2-1.2.2-.4.6-.6 1-.7.4-.1.8 0 1.2.2.4.2.6.6.7 1 .2 1.4-.2 2.6-1.2 3.6-1 1.1-2.4 1.9-4.1 2.2-1.7.3-3.2.2-4.6-.5-1.4-.4-2.2-1.4-2.5-2.6zM1103.6 403.8l6.2-.9c2.1-.3 4.1.2 5.8 1.5 1.7 1.3 2.7 3 3.1 5.1.3 2.1-.2 4.1-1.5 5.8 1 .3 2 .8 2.9 1.5 2.1 1.6 3.3 3.6 3.7 6.2.4 2.6-.2 4.9-1.8 7-1.5 2.1-3.6 3.3-6.2 3.7l-7.7 1.1c-.4.1-.8 0-1.2-.3-.3-.3-.6-.6-.6-1l-4.1-27.8c-.1-.4 0-.8.3-1.2.3-.4.7-.6 1.1-.7zm2 2.9l1.4 9.3 4.6-.7c1.3-.2 2.3-.8 3.1-1.8.8-1 1.1-2.2.9-3.5-.2-1.3-.8-2.3-1.8-3.1s-2.2-1.1-3.5-.9l-4.7.7zm1.8 12.4l1.8 12.4 6.2-.9c1.7-.2 3.1-1.1 4.1-2.4 1-1.4 1.4-2.9 1.2-4.6-.2-1.7-1.1-3.1-2.4-4.1-1.4-1-2.9-1.4-4.6-1.2l-6.3.8zM1144.3 424.6c.4 0 .8.1 1.1.3.3.3.5.6.6 1 0 .4-.1.8-.4 1.2-1.8 2-4.1 3.1-6.8 3.4-3 .4-5.7-.4-8.1-2.3-2.4-1.9-3.7-4.3-4.1-7.3s.4-5.7 2.3-8.1c1.9-2.4 4.3-3.7 7.3-4.1 2.7-.3 5.2.3 7.4 1.8.4.3.6.7.7 1.1 0 .4-.1.8-.3 1.1-.3.3-.6.5-1 .6-.4 0-.7 0-1-.2-1.6-1.1-3.4-1.6-5.3-1.3-2.1.3-3.9 1.2-5.2 2.9-1.3 1.7-1.9 3.6-1.6 5.8s1.2 3.9 2.9 5.2c1.7 1.3 3.6 1.9 5.8 1.6 1.9-.2 3.6-1.1 4.8-2.5.2 0 .5-.1.9-.2zM1166 422.6c.4 0 .8.1 1.1.4.3.3.5.6.6 1.1 0 .4-.1.8-.3 1.2-1.9 1.9-4.2 3-6.9 3.3-3 .3-5.7-.6-8-2.5s-3.6-4.4-3.9-7.4c-.3-3 .6-5.7 2.5-8s4.4-3.6 7.4-3.9c3-.3 5.7.6 8 2.5s3.6 4.4 3.9 7.4c0 .4-.1.8-.4 1.1-.3.3-.6.5-1.1.6l-17.1 1.5c.4 1.5 1.3 2.7 2.5 3.8 1.7 1.4 3.6 2 5.7 1.8 2-.2 3.6-.9 4.9-2.3.4-.5.7-.6 1.1-.6zm1-7.4c-.4-1.5-1.3-2.7-2.5-3.8-1.7-1.4-3.6-2-5.7-1.8-2.2.2-3.9 1.1-5.3 2.8-1 1.2-1.6 2.6-1.8 4.2l15.3-1.4zM1183.3 405.8l9.7 18.3c.1.2.1.4.2.6 0 .4-.1.8-.4 1.1-.3.3-.6.5-1.1.5-.4 0-.8-.1-1.1-.4-.1-.1-.2-.2-.3-.4l-8.1-15.3-6.3 16.1c-.1.2-.2.3-.3.4-.3.3-.7.5-1.1.5-.4 0-.8-.1-1.1-.4-.3-.3-.5-.6-.5-1.1 0-.2 0-.4.1-.6l7.6-19.3c.1-.2.1-.3.2-.4.3-.3.6-.5 1.1-.5.5 0 .8.1 1.1.4.1.2.2.3.3.5zM1212.9 420.4c.4 0 .8.1 1.1.4s.5.7.5 1.1c0 .4-.1.8-.4 1.1-2 1.8-4.3 2.8-7.1 2.8-3 .1-5.6-.9-7.8-3s-3.3-4.6-3.4-7.6.9-5.6 3-7.8 4.6-3.3 7.6-3.4c3-.1 5.6.9 7.8 3s3.3 4.6 3.4 7.6c0 .4-.1.8-.4 1.1-.3.3-.7.5-1.1.5l-17 .4c.3 1.5 1.1 2.8 2.2 3.9 1.6 1.5 3.4 2.2 5.6 2.1 2 0 3.6-.7 5-2 .4-.1.7-.2 1-.2zm1.5-7.2c-.3-1.5-1.1-2.8-2.2-3.9-1.6-1.5-3.4-2.2-5.6-2.1-2.2.1-4 .9-5.5 2.4-1.1 1.2-1.8 2.5-2 4l15.3-.4zM1224.1 416.2l-.2 7.8c0 .4-.2.8-.5 1.1-.3.3-.7.4-1.1.4-.4 0-.8-.2-1.1-.5-.3-.3-.4-.7-.4-1.1l.4-18.7c0-.4.2-.8.5-1.1.3-.3.7-.4 1.1-.4.4 0 .8.2 1.1.5.3.3.4.7.4 1.1l-.2 7.8 11.7.2.2-7.8c0-.4.2-.8.5-1.1.3-.3.7-.4 1.1-.4.4 0 .8.2 1.1.5s.4.7.4 1.1l-.4 18.7c0 .4-.2.8-.5 1.1-.3.3-.7.4-1.1.4-.4 0-.8-.2-1.1-.5-.3-.3-.4-.7-.4-1.1l.2-7.8-11.7-.2zM1245.2 416.4l-.2 7.8c0 .4-.2.8-.5 1.1-.3.3-.7.4-1.1.4-.4 0-.8-.2-1.1-.5s-.4-.7-.4-1.1l.6-18.8c0-.4.2-.8.5-1.1.3-.3.7-.4 1.1-.4.4 0 .8.2 1.1.5s.4.7.4 1.1l-.2 7.8 11.7.4.2-7.8c0-.4.2-.8.5-1.1.3-.3.7-.4 1.1-.4.4 0 .8.2 1.1.5s.4.7.4 1.1l-.6 18.8c0 .4-.2.8-.5 1.1-.3.3-.7.4-1.1.4-.4 0-.8-.2-1.1-.5s-.4-.7-.4-1.1l.2-7.8-11.7-.4zM1285.2 416.7c-.2 3-1.4 5.5-3.7 7.5-2.3 2-4.9 2.9-7.9 2.7-3-.2-5.5-1.4-7.5-3.7-2-2.3-2.9-4.9-2.7-7.9.2-3 1.4-5.5 3.7-7.5 2.3-2 4.9-2.9 7.9-2.7 3 .2 5.5 1.4 7.5 3.7 2 2.3 2.9 4.9 2.7 7.9zm-10.5-8.4c-2.2-.1-4 .5-5.7 2-1.6 1.4-2.5 3.2-2.6 5.4-.1 2.2.5 4 2 5.7 1.4 1.6 3.2 2.5 5.4 2.6 2.2.1 4-.5 5.7-2 1.6-1.4 2.5-3.2 2.6-5.4.1-2.2-.5-4-2-5.7-1.4-1.6-3.2-2.5-5.4-2.6zM1307.9 428.1c0 .4-.2.8-.6 1.1-.3.3-.7.4-1.1.4-.4 0-.8-.2-1.1-.6-.3-.3-.4-.7-.4-1.1l.1-1.3c-2.1 1.7-4.6 2.4-7.3 2.2-2.8-.3-5.1-1.5-6.9-3.6-1.8-2.2-2.6-4.6-2.3-7.4l.9-10.2c0-.4.2-.8.6-1.1.3-.3.7-.4 1.1-.4.4 0 .8.2 1.1.6.3.3.4.7.4 1.1l-.9 10.2c-.2 1.9.4 3.7 1.6 5.2 1.2 1.5 2.8 2.3 4.8 2.5 1.9.2 3.7-.4 5.2-1.6 1.5-1.2 2.3-2.8 2.5-4.8l.9-10.2c0-.4.2-.8.6-1.1.3-.3.7-.4 1.1-.4.4 0 .8.2 1.1.6.3.3.4.7.4 1.1l-1.8 18.8zm-13.9-28.8c0-.4.2-.8.6-1.1.3-.3.7-.4 1.1-.4.4 0 .8.2 1.1.6.3.3.4.7.4 1.1s.2.8.8 1.2c.6.4 1.3.6 2.2.7.9.1 1.6 0 2.3-.3.6-.2 1-.6 1-1s.2-.8.6-1.1c.3-.3.7-.4 1.1-.4.4 0 .8.2 1.1.6.3.3.4.7.4 1.1-.2 1.4-.9 2.4-2.1 3.1-1.3.8-2.8 1.1-4.6 1-1.7-.2-3.2-.7-4.3-1.8-1.3-.8-1.8-2-1.7-3.3zM1341.1 430.6c0 .1-.1.1 0 0-2.5 1.9-5.2 2.6-8.2 2.2-3-.4-5.4-1.8-7.2-4.2-1.8-2.4-2.5-5.1-2.1-8.1.4-3 1.8-5.4 4.2-7.2 2.4-1.8 5.1-2.5 8.1-2.1 3 .4 5.4 1.8 7.2 4.2 1.8 2.4 2.5 5.1 2.1 8.1l-1.5 10.8c-.3 2.3-1.4 4.1-3.2 5.5-2.6 2-5.5 2.7-8.7 2.3-3.2-.4-5.8-2-7.7-4.5-.7-.9-1.3-1.9-1.7-3-.1-.3-.2-.5-.1-.8.1-.4.3-.8.6-1 .3-.3.7-.4 1.2-.3s.8.3 1 .6c.1.2.2.3.3.5.3.8.7 1.5 1.2 2.2 1.4 1.9 3.3 3 5.7 3.3 2.3.3 4.5-.2 6.4-1.7 1.2-1.1 1.9-2.3 2.1-3.5l.3-3.3zm-5.6-16.3c-2.1-.3-4.1.2-5.8 1.5-1.7 1.3-2.7 3-3 5.2-.3 2.1.2 4.1 1.5 5.8 1.3 1.7 3 2.7 5.2 3 2.1.3 4.1-.2 5.8-1.5 1.7-1.3 2.7-3 3-5.2.3-2.1-.2-4.1-1.5-5.8-1.4-1.7-3.1-2.8-5.2-3zM1361.5 416l5.4 20.1c0 .2.1.4 0 .6-.1.4-.3.8-.6 1-.4.2-.7.3-1.2.3-.4-.1-.8-.3-1-.6-.1-.1-.2-.3-.2-.5l-4.5-16.7-9.7 14.3c-.1.2-.2.3-.4.4-.4.2-.7.3-1.2.3-.4-.1-.8-.3-1-.6s-.3-.7-.3-1.2c0-.2.1-.4.2-.6l11.7-17.1c.1-.2.2-.3.3-.3.3-.2.7-.3 1.2-.3.4.1.8.3 1 .6.2 0 .2.1.3.3zM1388.3 420.2c.4.1.8.3 1 .7.2.4.3.8.2 1.2l-3.7 18.4c-.1.4-.3.8-.7 1s-.8.3-1.2.2c-.4-.1-.8-.3-1-.7-.2-.4-.3-.8-.2-1.2l1.5-7.7-4.6-.9c-.8-.2-1.6 0-2.3.5-.3.2-.5.4-.7.7l-4.8 5.9c-.1.2-.3.3-.4.4-.4.2-.8.3-1.2.2s-.8-.3-1-.7c-.2-.4-.3-.8-.2-1.2.1-.3.2-.6.4-.8l4.8-5.9c.3-.3.6-.7 1-.9-.4-.3-.7-.7-1-1.2-1-1.4-1.3-3-.9-4.7s1.2-3 2.7-4 3-1.3 4.7-.9l7.6 1.6zm-3.3 8.9l1.2-6.1-6.1-1.2c-.8-.2-1.6 0-2.3.5-.7.5-1.2 1.1-1.3 2-.2.8 0 1.6.5 2.3.5.7 1.1 1.2 2 1.3l6 1.2zM1418.8 446.3c-.1.1-.1.1 0 0-2.7 1.6-5.4 2-8.4 1.3-2.9-.7-5.2-2.4-6.7-5-1.6-2.6-2-5.3-1.3-8.3.7-2.9 2.4-5.2 5-6.7s5.3-2 8.3-1.3c2.9.7 5.2 2.4 6.7 5s2 5.3 1.3 8.3l-2.6 10.6c-.5 2.2-1.8 3.9-3.8 5.2-2.8 1.7-5.7 2.1-8.9 1.3-3.1-.8-5.5-2.6-7.2-5.3-.6-1-1.1-2.1-1.4-3.1-.1-.3-.1-.5 0-.9s.3-.7.7-1c.4-.2.8-.3 1.2-.2.4.1.7.3 1 .7.1.2.2.3.2.5.2.8.5 1.5 1 2.3 1.2 2 3 3.3 5.3 3.9 2.3.6 4.5.2 6.5-1 1.3-1 2.1-2 2.4-3.2l.7-3.1zm-3.9-16.8c-2.1-.5-4.1-.2-5.9.9-1.8 1.1-3 2.7-3.5 4.8s-.2 4.1.9 5.9 2.7 3 4.8 3.5c2.1.5 4.1.2 5.9-.9 1.8-1.1 3-2.7 3.5-4.8s.2-4.1-.9-5.9c-1.1-1.8-2.7-3-4.8-3.5zM1441.6 450.4c.4.1.7.4.9.7.2.4.3.8.1 1.2-.1.4-.4.7-.7 1-2.4 1.1-4.9 1.4-7.6.6-2.9-.8-5.1-2.5-6.6-5.2-1.5-2.6-1.8-5.4-1-8.3s2.5-5.1 5.2-6.6c2.6-1.5 5.4-1.8 8.3-1 2.9.8 5.1 2.5 6.6 5.2 1.5 2.6 1.8 5.4 1 8.3-.1.4-.4.7-.7.9-.4.2-.8.3-1.2.1l-16.4-4.6c-.1 1.5.2 3 1 4.4 1.1 1.9 2.6 3.1 4.7 3.7 1.9.5 3.7.4 5.4-.4.3-.1.6-.1 1 0zm3.5-6.5c.1-1.5-.2-3-1-4.4-1.1-1.9-2.6-3.1-4.7-3.7-2.1-.6-4.1-.3-5.9.7-1.4.8-2.5 1.9-3.1 3.2l14.7 4.2zM1451.1 457.1c-.1.4-.4.7-.8.9-.4.2-.8.2-1.2.1-.4-.1-.7-.4-.9-.8-.2-.4-.2-.8-.1-1.2l5.8-17.8c.1-.4.4-.7.8-.9.4-.2.8-.2 1.2-.1s.7.4.9.8c.2.4.2.8.1 1.2l-.1.4c1.9-.8 3.8-.8 5.8-.2 2.3.7 3.9 2.1 5 4.3.2.4.4.9.6 1.4.4-.3.8-.5 1.3-.8 2.1-1.1 4.3-1.3 6.6-.5 2.3.7 3.9 2.1 5 4.3 1.1 2.1 1.3 4.3.5 6.6L1478 466c-.1.4-.4.7-.8.9-.4.2-.8.2-1.2.1-.4-.1-.7-.4-.9-.8s-.2-.8-.1-1.2l3.6-11.2c.5-1.4.3-2.8-.3-4.2s-1.8-2.2-3.2-2.7c-1.4-.5-2.8-.4-4.2.3-1.3.7-2.2 1.8-2.7 3.2l-3.6 11.2c-.1.4-.4.7-.8.9s-.8.2-1.2.1c-.4-.1-.7-.4-.9-.8s-.2-.8-.1-1.2l3.6-11.2c.5-1.4.3-2.8-.3-4.2s-1.8-2.2-3.2-2.7c-1.4-.5-2.8-.3-4.2.3-1.3.7-2.2 1.8-2.7 3.2l-3.7 11.1zM1497.8 469c.4.1.7.4.9.8.2.4.2.8.1 1.2-.1.4-.4.7-.8.9-2.5 1-5 1-7.6.1-2.8-1-4.9-2.9-6.2-5.6-1.3-2.7-1.4-5.5-.4-8.4 1-2.8 2.9-4.9 5.6-6.2s5.5-1.4 8.4-.4c2.8 1 4.9 2.9 6.2 5.6 1.3 2.7 1.4 5.5.4 8.4-.1.4-.4.7-.8.9-.4.2-.8.2-1.2.1l-16-5.8c-.2 1.5 0 3 .7 4.5.9 2 2.4 3.3 4.4 4 1.8.7 3.6.7 5.4 0 .2-.3.6-.3.9-.1zm4-6.2c.2-1.5 0-3-.7-4.5-.9-2-2.4-3.3-4.4-4-2-.7-4-.6-6 .3-1.5.7-2.6 1.7-3.4 3l14.5 5.2zM1522.8 482.9c-.2.4-.4.7-.8.9-.4.2-.8.2-1.2 0-.4-.2-.7-.4-.9-.8-.2-.4-.2-.8 0-1.2l.5-1.2c-2.5 1-5 1-7.6 0-2.6-1-4.4-2.9-5.6-5.4s-1.1-5.2-.1-7.8l3.8-9.4c.2-.4.4-.7.8-.9.4-.2.8-.2 1.2 0s.7.4.9.8c.2.4.2.8 0 1.2l-3.8 9.4c-.7 1.8-.7 3.6.1 5.4.8 1.8 2 3 3.8 3.8 1.8.7 3.6.7 5.4-.1 1.8-.8 3-2 3.8-3.8l3.8-9.4c.2-.4.4-.7.8-.9.4-.2.8-.2 1.2 0s.7.4.9.8c.2.4.2.8 0 1.2l-7 17.4zm-5-31.5c.2-.4.4-.7.8-.9.4-.2.8-.2 1.2 0 .4.2.7.4.9.8s.2.8 0 1.2 0 .9.4 1.4c.5.5 1.1.9 1.9 1.2s1.5.5 2.2.4c.7-.1 1.1-.3 1.3-.7.2-.4.4-.7.8-.9.4-.2.8-.2 1.2 0s.7.4.9.8c.2.4.2.8 0 1.2-.6 1.2-1.5 2-2.9 2.4-1.5.4-3 .3-4.6-.4-1.6-.6-2.8-1.6-3.6-2.9s-1-2.4-.5-3.6zM1543.8 471.5c.2-.4.5-.7.9-.8.4-.2.8-.1 1.2 0 .4.2.7.5.8.9.2.4.1.8 0 1.2l-.5 1.2c2.6-.9 5.1-.8 7.6.3s4.3 3 5.3 5.7c1 2.6.9 5.2-.2 7.8l-4.2 9.2c-.2.4-.5.7-.9.8-.4.2-.8.1-1.2 0-.4-.2-.7-.5-.8-.9-.2-.4-.1-.8 0-1.2l4.2-9.2c.8-1.8.8-3.6.2-5.4-.7-1.8-1.9-3.1-3.7-3.9-1.8-.8-3.6-.9-5.4-.2s-3.1 1.9-3.9 3.7l-4.2 9.2c-.2.4-.5.7-.9.8-.4.2-.8.1-1.2 0-.4-.2-.7-.5-.8-.9-.2-.4-.1-.8 0-1.2l7.7-17.1zM1581 499.6c-1.3 2.7-3.4 4.5-6.3 5.5s-5.6.8-8.4-.6c-2.7-1.3-4.5-3.4-5.5-6.3s-.8-5.6.6-8.4c1.3-2.7 3.4-4.5 6.3-5.5s5.6-.8 8.4.6c2.7 1.3 4.5 3.4 5.5 6.3s.8 5.7-.6 8.4zm-6.3-11.9c-1.9-1-3.9-1.1-6-.4-2 .7-3.5 2-4.5 3.9s-1.1 3.9-.4 6c.7 2 2 3.5 3.9 4.5s3.9 1.1 6 .4c2-.7 3.5-2 4.5-3.9s1.1-3.9.4-6c-.6-2-2-3.5-3.9-4.5zM1601 497.7l6.8 3.8c1.5.8 2.5 2.1 3 3.7.5 1.7.3 3.2-.5 4.8-.7 1.3-1.8 2.3-3.2 2.8.2.4.4.9.6 1.4.5 1.7.3 3.2-.5 4.8-.8 1.5-2.1 2.5-3.7 3-1.7.5-3.2.3-4.8-.5l-8.2-4.5c-.4-.2-.6-.5-.7-.9-.1-.4-.1-.8.1-1.2l9-16.4c.2-.4.5-.6.9-.7.4-.3.8-.3 1.2-.1zm-.8 21c.8.4 1.5.5 2.4.3.8-.2 1.5-.7 1.9-1.5.4-.8.5-1.5.3-2.4-.2-.8-.7-1.5-1.5-1.9l-6.8-3.8-3 5.5 6.7 3.8zm3.1-9c.8.4 1.5.5 2.4.3.8-.2 1.5-.7 1.9-1.5.4-.8.5-1.5.3-2.4-.2-.8-.7-1.5-1.5-1.9l-5.5-3-3 5.5 5.4 3zM1624 530c.4.2.6.5.7 1 .1.4.1.8-.2 1.2-.2.4-.6.6-1 .7-2.6.5-5.1 0-7.5-1.4-2.6-1.5-4.3-3.8-5-6.7-.7-2.9-.4-5.7 1.2-8.3 1.5-2.6 3.8-4.3 6.7-5 2.9-.7 5.7-.4 8.3 1.2 2.4 1.4 3.9 3.4 4.8 5.9.1.5.1.9-.1 1.3s-.5.6-1 .7c-.4.1-.8.1-1.2-.2-.3-.2-.6-.5-.7-.8-.6-1.9-1.7-3.3-3.4-4.3-1.9-1.1-3.8-1.4-5.9-.9-2.1.5-3.7 1.7-4.8 3.6-1.1 1.9-1.4 3.8-.9 5.9.5 2.1 1.7 3.7 3.6 4.8 1.7 1 3.5 1.3 5.4 1 .4 0 .7.1 1 .3zM1642.5 541.4c.4.2.6.6.7 1 .1.4 0 .8-.2 1.2-.2.4-.6.6-1 .7-2.6.4-5.1-.1-7.4-1.6-2.6-1.6-4.2-3.9-4.8-6.8-.7-2.9-.2-5.7 1.4-8.3s3.9-4.2 6.8-4.8c2.9-.7 5.7-.2 8.3 1.4s4.2 3.9 4.8 6.8c.7 2.9.2 5.7-1.4 8.3-.2.4-.6.6-1 .7-.4.1-.8 0-1.2-.2l-14.4-9.1c-.6 1.4-.7 2.9-.3 4.5.5 2.1 1.6 3.7 3.5 4.9 1.7 1 3.4 1.4 5.3 1.1.3-.1.6 0 .9.2zm5.2-5.2c.6-1.4.7-2.9.3-4.5-.5-2.1-1.6-3.7-3.5-4.9-1.8-1.2-3.8-1.5-5.9-1-1.6.4-2.9 1.1-3.9 2.2l13 8.2zM1657.3 556.1l4-14.4-12.1 9.3c-.2.1-.3.2-.5.2-.4.1-.8 0-1.2-.3-.4-.2-.6-.6-.7-1-.1-.4 0-.8.2-1.2.1-.2.3-.3.4-.4l15.6-12 .6-.3c.4-.1.8 0 1.1.3.4.2.6.6.7 1v.7l-4.1 14.6 12-9.2.6-.3c.4-.1.8 0 1.1.3.4.2.6.6.7 1v.7l-5.3 19c0 .2-.1.4-.2.6-.2.4-.6.6-1 .7-.4.1-.8 0-1.2-.2-.4-.2-.6-.6-.7-1v-.6l4.1-14.7-11.9 9.1c-.2.2-.5.3-.7.4-.4.1-.8 0-1.2-.3-.4-.2-.6-.6-.7-1 .4-.5.4-.7.4-1zM1676.4 568.9l4.5-19c0-.2.1-.5.3-.7.3-.3.6-.6 1-.6.4-.1.8 0 1.2.3.3.3.6.6.6 1v.7l-3.8 16 14-8.6c.2-.1.4-.2.7-.2.4-.1.8 0 1.1.3.3.3.6.6.6 1 .1.4 0 .8-.3 1.2-.2.2-.3.4-.6.5l-25.8 15.8c-.2.1-.4.2-.6.2-.4.1-.8 0-1.2-.3s-.6-.6-.6-1c-.1-.4 0-.8.3-1.2.2-.2.3-.4.6-.5l8-4.9zM1706.5 592.4l5.2-14-12.8 8.3c-.2.1-.3.1-.5.2-.4 0-.8-.1-1.1-.3-.3-.3-.5-.6-.6-1 0-.4.1-.8.3-1.1.1-.2.3-.3.5-.4l16.6-10.7c.2-.1.4-.2.6-.2.4 0 .8.1 1.1.4.3.3.5.6.6 1 0 .2 0 .5-.1.7l-5.3 14.2 12.7-8.2c.2-.1.4-.2.6-.2.4 0 .8.1 1.1.3.3.3.5.6.6 1 0 .2 0 .5-.1.7l-6.9 18.5c-.1.2-.2.4-.3.5-.3.3-.6.5-1 .6-.4 0-.8-.1-1.1-.3-.3-.3-.5-.6-.6-1v-.6l5.3-14.3-12.6 8.1c-.2.2-.5.3-.8.3-.4 0-.8-.1-1.1-.3-.3-.3-.5-.6-.6-1 .2-.7.2-1 .3-1.2zM1736.5 617c-.3.3-.6.5-1.1.5-.4 0-.8-.1-1.1-.4-.3-.3-.5-.6-.5-1.1 0-.4.1-.8.4-1.1l.8-1c-2.7.2-5.1-.7-7.2-2.4-2.1-1.8-3.3-4.1-3.5-6.9-.2-2.8.6-5.3 2.4-7.4l6.6-7.7c.3-.3.6-.5 1.1-.5.4 0 .8.1 1.1.4.3.3.5.6.5 1.1 0 .4-.1.8-.4 1.1l-6.6 7.7c-1.3 1.5-1.8 3.2-1.7 5.1s.9 3.5 2.4 4.8c1.5 1.3 3.2 1.8 5.1 1.7 1.9-.1 3.5-.9 4.8-2.4l6.6-7.7c.3-.3.6-.5 1.1-.5s.8.1 1.1.4c.3.3.5.6.5 1.1 0 .4-.1.8-.4 1.1l-12 14.1zM1734.6 628c-.3.3-.7.5-1.1.5-.4 0-.8-.1-1.1-.4-.3-.3-.5-.7-.5-1.1 0-.4.1-.8.4-1.1l12.7-13.8c2-2.2 4.6-3.4 7.6-3.5 3-.1 5.6.8 7.9 2.9 2.2 2 3.4 4.6 3.5 7.6.1 3-.8 5.6-2.9 7.9-2 2.2-4.6 3.4-7.6 3.5-3 .1-5.6-.8-7.9-2.9-2.2-2-3.4-4.6-3.5-7.6v-.1l-7.5 8.1zm12.7-13.8c-1.5 1.6-2.1 3.5-2.1 5.6.1 2.2.9 4 2.5 5.4 1.6 1.5 3.5 2.1 5.6 2.1 2.2-.1 4-.9 5.4-2.5s2.1-3.5 2.1-5.6c-.1-2.2-.9-4-2.5-5.4-1.6-1.5-3.5-2.1-5.6-2.1-2.1.1-3.9.9-5.4 2.5zM1762.5 641.2l7.2-18.2c.1-.2.2-.5.4-.6.3-.3.7-.5 1.1-.5.4 0 .8.1 1.1.4.3.3.5.7.5 1.1 0 .2-.1.5-.1.7l-6.1 15.4 15.2-6.5c.2-.1.4-.1.7-.1.4 0 .8.1 1.1.4.3.3.5.7.5 1.1 0 .4-.1.8-.4 1.1-.2.2-.4.3-.6.4l-27.9 12c-.2.1-.4.1-.7.1-.4 0-.8-.1-1.1-.4s-.5-.7-.5-1.1c0-.4.1-.8.4-1.1.2-.2.4-.3.6-.4l8.6-3.8z"/></svg>