<svg xmlns="http://www.w3.org/2000/svg" viewBox="0 0 2453 2453"><title>SS_bottom slogan_S</title><path fill="#03709C" d="M740.6 592c.3-.3.7-.4 1.1-.4.4 0 .8.2 1.1.6.3.3.4.7.4 1.1-.8 3.6-2.5 6.6-5.3 9-3.3 2.8-7.1 3.9-11.4 3.5-4.3-.4-7.8-2.3-10.6-5.6s-3.9-7.1-3.5-11.4c.4-4.3 2.3-7.8 5.6-10.6 2.9-2.4 6.2-3.6 9.9-3.6.4 0 .8.2 1.1.6s.4.7.4 1.1c0 .4-.2.8-.6 1.1s-.7.4-1.2.4c-2.8 0-5.4 1-7.6 2.9-2.7 2.2-4.1 5-4.5 8.5-.3 3.4.6 6.5 2.8 9.1 2.2 2.7 5 4.1 8.5 4.5 3.4.3 6.5-.6 9.1-2.8 2.3-1.9 3.7-4.3 4.3-7.1 0-.5.1-.7.4-.9zM758.4 571.9c1.8 2.4 2.6 5.1 2.2 8.1-.4 3-1.8 5.4-4.2 7.2s-5.1 2.6-8.1 2.2c-3-.4-5.4-1.8-7.2-4.2-1.8-2.4-2.6-5.1-2.2-8.1.4-3 1.8-5.4 4.2-7.2 2.4-1.8 5.1-2.6 8.1-2.2 3 .5 5.4 1.9 7.2 4.2zm-13.4.5c-1.7 1.3-2.7 3-3 5.2-.3 2.1.2 4.1 1.6 5.8 1.3 1.7 3 2.7 5.2 3 2.1.3 4.1-.2 5.8-1.6s2.7-3 3-5.2c.3-2.1-.2-4.1-1.6-5.8-1.3-1.7-3-2.7-5.2-3-2.1-.2-4.1.3-5.8 1.6zM755.4 562.3c-.3-.3-.3-.7-.3-1.2.1-.4.3-.8.6-1 .3-.3.7-.3 1.2-.3.4.1.8.3 1 .6l.7 1c.5-2.7 1.8-4.8 4-6.4 2.3-1.7 4.8-2.3 7.6-1.8 2.8.4 5 1.8 6.6 4l6 8.2c.3.3.3.7.3 1.2-.1.4-.3.8-.6 1-.3.3-.7.3-1.2.3-.4-.1-.8-.3-1-.6l-6-8.2c-1.1-1.6-2.7-2.5-4.6-2.8-1.9-.3-3.7.1-5.2 1.3-1.6 1.1-2.5 2.7-2.8 4.6-.3 1.9.1 3.7 1.3 5.2l6 8.2c.3.3.3.7.3 1.2s-.3.8-.6 1c-.3.3-.7.3-1.2.3s-.8-.3-1-.6l-11.1-15.2zM793.4 556.3c.4-.2.7-.3 1.2-.3.4.1.8.3 1 .6.2.4.3.7.3 1.2-.1.4-.3.8-.6 1-4.3 3-7.9 2.3-10.9-2l-6.2-9-1.3.9c-.4.2-.7.3-1.2.3-.4-.1-.8-.3-1-.6-.2-.4-.3-.7-.2-1.2.1-.4.3-.8.6-1l1.3-.9-4.4-6.4c-.2-.4-.3-.7-.2-1.2.1-.4.3-.8.6-1 .4-.2.7-.3 1.2-.3.4.1.8.3 1 .6l4.4 6.4 2.6-1.8c.4-.2.7-.3 1.2-.3.4.1.8.3 1 .6.2.4.3.7.3 1.2-.1.4-.3.8-.6 1l-2.6 1.8 6.2 9c1.6 2.8 3.8 3.2 6.3 1.4zM811.9 543.9c-.6 3-2.2 5.4-4.8 7.1-2.5 1.7-5.3 2.2-8.3 1.6-3-.6-5.3-2.2-6.9-4.7-1.7-2.5-2.2-5.3-1.6-8.3.6-3 2.2-5.3 4.7-6.9 2.5-1.7 5.3-2.2 8.3-1.6 3 .6 5.3 2.2 6.9 4.7l5.2 7.9c.2.4.3.8.2 1.2-.1.4-.3.8-.7 1-.4.2-.8.3-1.2.2-.4-.1-.8-.3-1-.7l-.8-1.5zm-15.1-8.7c-1.8 1.2-2.9 2.8-3.4 5-.4 2.1-.1 4.1 1.1 5.9 1.2 1.8 2.8 2.9 5 3.4 2.1.4 4.1.1 5.9-1.1 1.8-1.2 2.9-2.8 3.4-5 .4-2.1.1-4.1-1.1-5.9-1.2-1.8-2.8-2.9-5-3.4-2.1-.5-4-.1-5.9 1.1zM808.1 526.1c-.2-.4-.3-.8-.2-1.2.1-.4.3-.7.7-1s.8-.3 1.2-.2c.4.1.7.3 1 .7l.7 1.1c.7-2.6 2.2-4.6 4.5-6.1 2.4-1.5 4.9-1.9 7.6-1.2s4.8 2.2 6.3 4.6l5.3 8.6c.2.4.3.8.2 1.2-.1.4-.3.7-.7 1s-.8.3-1.2.2-.7-.3-1-.7l-5.3-8.6c-1-1.6-2.5-2.7-4.3-3.2-1.9-.5-3.6-.2-5.3.8-1.6 1-2.7 2.5-3.2 4.3-.5 1.9-.2 3.6.8 5.3l5.3 8.6c.2.4.3.8.2 1.2-.1.4-.3.7-.7 1s-.8.3-1.2.2-.7-.3-1-.7l-9.7-15.9zM840.1 496.2c-.2-.4-.3-.8-.1-1.2.1-.4.4-.7.7-.9.4-.2.8-.3 1.2-.1.4.1.7.4.9.7l9.3 16.3c1.5 2.6 1.8 5.4 1 8.3-.8 2.9-2.5 5.1-5.1 6.6-2.6 1.5-5.4 1.8-8.3 1-2.9-.8-5.1-2.5-6.6-5.1-1.5-2.6-1.8-5.4-1-8.3.8-2.9 2.5-5.1 5.1-6.6 2.6-1.5 5.4-1.8 8.3-1h.1l-5.5-9.7zm9.3 16.3c-1.1-1.9-2.6-3.1-4.7-3.7s-4.1-.3-5.9.8c-1.9 1.1-3.1 2.6-3.7 4.7-.6 2.1-.3 4.1.8 5.9 1.1 1.9 2.6 3.1 4.7 3.7 2.1.6 4.1.3 5.9-.8 1.9-1.1 3.1-2.6 3.7-4.7s.2-4-.8-5.9zM874.3 499.1c1.4 2.7 1.7 5.4.8 8.3s-2.7 5-5.3 6.4-5.4 1.7-8.3.8-5-2.7-6.4-5.3c-1.4-2.7-1.7-5.4-.8-8.3.9-2.9 2.7-5 5.3-6.4 2.7-1.4 5.4-1.7 8.3-.8 2.8.9 5 2.7 6.4 5.3zm-13.3-1.8c-1.9 1-3.2 2.5-3.8 4.6-.6 2.1-.4 4 .6 6 1 1.9 2.5 3.2 4.6 3.8 2.1.6 4 .4 6-.6 1.9-1 3.2-2.5 3.8-4.6.6-2.1.4-4-.6-6-1-1.9-2.5-3.2-4.6-3.8s-4.1-.4-6 .6zM883.7 483.9c-.2-.4-.2-.8-.1-1.2.1-.4.4-.7.8-.9s.8-.2 1.2-.1c.4.1.7.4.9.8l.5 1.2c1-2.6 2.7-4.4 5.2-5.6 2.5-1.2 5.2-1.3 7.8-.4 2.7 1 4.6 2.7 5.8 5.3l4.4 9.2c.2.4.2.8.1 1.2-.1.4-.4.7-.8.9-.4.2-.8.2-1.2.1-.4-.1-.7-.4-.9-.8l-4.4-9.2c-.8-1.8-2.2-3-4-3.6-1.8-.7-3.6-.6-5.4.3-1.8.8-3 2.2-3.6 4s-.6 3.6.3 5.4l4.4 9.2c.2.4.2.8.1 1.2-.1.4-.4.7-.8.9-.4.2-.8.2-1.2.1-.4-.1-.7-.4-.9-.8l-8.2-17.2zM929.1 473.8c1.2 2.8 1.2 5.6.1 8.4-1.1 2.8-3.1 4.8-5.8 6-2.8 1.2-5.6 1.2-8.4.1-2.8-1.1-4.8-3.1-6-5.8-1.2-2.8-1.2-5.6-.1-8.4s3.1-4.8 5.8-6 5.6-1.2 8.4-.1c2.8 1.1 4.8 3 6 5.8zM916 471c-2 .9-3.4 2.3-4.2 4.3s-.8 4 .1 6 2.3 3.4 4.3 4.2 4 .8 6-.1 3.4-2.3 4.2-4.3.8-4-.1-6-2.3-3.4-4.3-4.2c-2-.8-4-.8-6 .1zM945.2 475.8c.4-.2.8-.2 1.2 0 .4.2.7.5.8.9.2.4.2.8 0 1.2-.2.4-.5.7-.9.8-4.8 1.9-8.2.5-10.2-4.3l-4.1-10.2-1.5.6c-.4.2-.8.2-1.2 0-.4-.2-.7-.5-.8-.9-.2-.4-.2-.8 0-1.2.2-.4.5-.7.9-.8l1.5-.6-2.9-7.2c-.2-.4-.2-.8 0-1.2.2-.4.5-.7.9-.8.4-.2.8-.2 1.2 0 .4.2.7.5.8.9l2.9 7.2 2.9-1.2c.4-.2.8-.2 1.2 0s.7.5.8.9c.2.4.2.8 0 1.2-.2.4-.5.7-.9.8L935 463l4.1 10.2c1.2 2.9 3.2 3.8 6.1 2.6zM945.9 450.4c.2.5.2 1 0 1.5s-.6.8-1.1 1c-.5.2-1 .2-1.5 0s-.8-.6-1-1.1-.2-1 0-1.5.6-.8 1.1-1c.5-.2 1-.2 1.5 0 .4.3.8.6 1 1.1zm-1.1 7.1c-.2-.4-.1-.8 0-1.2.2-.4.5-.7.9-.8s.8-.1 1.2 0c.4.2.7.5.8.9l6.7 17.5c.2.4.1.8 0 1.2-.2.4-.5.7-.9.8-.4.2-.8.1-1.2 0-.4-.2-.7-.5-.8-.9l-6.7-17.5zM973.4 462.9c.4-.1.8-.1 1.2.1.4.2.7.5.8.9s.1.8-.1 1.2c-1.3 2.3-3.2 4-5.8 4.9-2.8 1-5.6.9-8.4-.4-2.7-1.3-4.6-3.4-5.6-6.2-1-2.8-.9-5.6.4-8.4 1.3-2.7 3.4-4.6 6.2-5.6 2.6-.9 5.1-.9 7.6.1.5.2.8.5.9 1 .1.4.1.8-.1 1.2s-.5.7-.9.8c-.4.1-.7.1-1.1 0-1.8-.7-3.6-.8-5.5-.1-2 .7-3.5 2.1-4.4 4-.9 1.9-1 3.9-.3 6s2.1 3.5 4 4.4c1.9.9 3.9 1 6 .3 1.8-.7 3.2-1.8 4.2-3.5.3-.3.6-.5.9-.7zM976.1 439.7c.2.5.1 1-.1 1.5s-.6.8-1.1 1-1 .1-1.5-.1-.8-.6-1-1.1c-.2-.5-.1-1 .1-1.5s.6-.8 1.1-1 1-.1 1.5.1.8.6 1 1.1zm-1.4 7c-.1-.4-.1-.8.1-1.2.2-.4.5-.6.9-.8.4-.1.8-.1 1.2.1.4.2.7.5.8.9l6 17.8c.1.4.1.8-.1 1.2-.2.4-.5.7-.9.8-.4.1-.8.1-1.2-.1-.4-.2-.7-.5-.8-.9l-6-17.8zM1005.3 454.7c-1.4 2.7-3.6 4.6-6.4 5.5-2.9.9-5.6.7-8.3-.7-2.7-1.4-4.5-3.5-5.4-6.4-.9-2.9-.7-5.6.7-8.3 1.4-2.7 3.5-4.5 6.4-5.4 2.9-.9 5.6-.7 8.3.7 2.7 1.4 4.5 3.5 5.4 6.4l2.8 8.9c.1.4.1.8-.1 1.2-.2.4-.5.6-.9.8-.4.1-.8.1-1.2-.1-.4-.2-.6-.5-.8-.9l-.5-1.7zm-12.1-12.3c-2.1.6-3.6 1.9-4.6 3.8-1 1.9-1.2 3.9-.5 5.9.6 2.1 1.9 3.6 3.8 4.6 1.9 1 3.9 1.2 5.9.5 2.1-.6 3.6-1.9 4.6-3.8 1-1.9 1.2-3.9.5-5.9-.6-2.1-1.9-3.6-3.8-4.6-1.9-1-3.9-1.2-5.9-.5zM1012.9 444.6c-1.3-.1-2.2-.3-2.8-.7-1.1-.6-1.9-1.6-2.2-2.8-.3-1.2-.2-2.4.5-3.6 1.3-2.3 3.4-3.9 6.3-4.7 3.1-.9 6.2-.4 9.1 1.5.3.2.4.4.5.8.1.4.1.8-.1 1.2-.2.4-.5.6-.9.7-.4.1-.8.1-1.1-.1-.3-.2-.6-.3-.7-.4-1.9-1.1-3.8-1.3-5.9-.7-2.1.6-3.5 1.7-4.4 3.3-.2.4-.2.9-.1 1.4.2.6.6.9 1.3.9l10.1.5c1.3.1 2.2.3 2.8.7 1.1.6 1.9 1.6 2.2 2.8.3 1.2.2 2.4-.5 3.6-1.3 2.3-3.4 3.9-6.3 4.7-3.1.9-6.2.4-9.1-1.5-.3-.2-.4-.5-.5-.8-.1-.4-.1-.8.1-1.2.2-.4.5-.6.9-.7.4-.1.8-.1 1.1.1.3.2.6.3.7.4 1.9 1.1 3.8 1.3 5.9.7 2.1-.6 3.5-1.7 4.4-3.3.2-.4.2-.9.1-1.4-.2-.6-.6-.9-1.3-.9l-10.1-.5zM1054.7 414.6c-.1-.4 0-.8.2-1.2.2-.4.6-.6 1-.7.4-.1.8 0 1.2.2s.6.6.7 1l4.2 18.3c.7 2.9.2 5.7-1.4 8.3-1.6 2.6-3.9 4.2-6.8 4.9-2.9.7-5.7.2-8.3-1.4-2.6-1.6-4.2-3.9-4.9-6.8-.7-2.9-.2-5.7 1.4-8.3 1.6-2.6 3.9-4.2 6.8-4.9 2.9-.7 5.7-.2 8.3 1.4 0 0 .1 0 .1.1l-2.5-10.9zm4.2 18.3c-.5-2.1-1.6-3.7-3.5-4.9-1.8-1.1-3.8-1.5-5.9-1s-3.7 1.6-4.9 3.5c-1.1 1.8-1.5 3.8-1 5.9s1.6 3.7 3.5 4.9c1.8 1.1 3.8 1.5 5.9 1 2.1-.5 3.7-1.6 4.9-3.5 1.2-1.8 1.5-3.8 1-5.9zM1082.8 433.8c.4-.1.8 0 1.2.2.4.2.6.6.7 1 .1.4 0 .8-.2 1.2-1.6 2.1-3.8 3.4-6.5 3.9-3 .6-5.7 0-8.2-1.7-2.5-1.7-4-4-4.6-7-.6-3 0-5.7 1.7-8.2 1.7-2.5 4-4 7-4.6 3-.6 5.7 0 8.2 1.7 2.5 1.7 4 4 4.6 7 .1.4 0 .8-.2 1.2s-.6.6-1 .7l-16.7 3.2c.6 1.4 1.5 2.6 2.9 3.5 1.8 1.2 3.7 1.6 5.9 1.2 1.9-.4 3.4-1.3 4.6-2.8 0-.2.3-.4.6-.5zm.3-7.3c-.6-1.4-1.5-2.6-2.9-3.5-1.8-1.2-3.7-1.6-5.9-1.2s-3.8 1.5-5 3.3c-.9 1.3-1.4 2.8-1.4 4.3l15.2-2.9zM1086.5 408.3c-.1-.4 0-.8.3-1.2s.6-.6 1-.6c.4-.1.8 0 1.2.3.4.2.6.6.6 1l4.6 26.2 1.5-.3c.4-.1.8 0 1.2.3.4.2.6.6.6 1 .1.4 0 .8-.3 1.2-.2.4-.6.6-1 .6l-3.1.5c-.4.1-.8 0-1.2-.3-.4-.2-.6-.6-.6-1l-4.8-27.7zM1108.2 404.7c-.1-.4 0-.8.3-1.2.3-.3.6-.5 1-.6s.8 0 1.2.3c.3.3.5.6.6 1l2.5 18.6c.3 2.1 1.3 3.9 3 5.2 1.7 1.3 3.6 1.8 5.8 1.5 2.1-.3 3.9-1.3 5.2-3 1.3-1.7 1.8-3.6 1.5-5.8l-2.5-18.6c-.1-.4 0-.8.3-1.2.3-.3.6-.5 1-.6s.8 0 1.2.3c.3.3.5.6.6 1l2.5 18.6c.4 3-.3 5.7-2.1 8.1-1.8 2.4-4.2 3.8-7.2 4.2-3 .4-5.7-.3-8.1-2.1-2.4-1.8-3.8-4.2-4.2-7.2l-2.6-18.5zM1134.6 410.6c0-.4.1-.8.3-1.1.3-.3.6-.5 1.1-.6.4 0 .8.1 1.1.3.3.3.5.6.6 1.1l.1 1.3c1.7-2.1 4-3.3 6.7-3.5 2.8-.3 5.3.5 7.4 2.2 2.2 1.8 3.4 4 3.7 6.8l1.1 10.1c0 .4-.1.8-.3 1.1s-.6.5-1 .6c-.4 0-.8-.1-1.1-.3-.3-.3-.5-.6-.6-1l-1.1-10.1c-.2-1.9-1.1-3.5-2.6-4.7-1.5-1.2-3.2-1.7-5.2-1.5s-3.5 1.1-4.7 2.6c-1.2 1.5-1.7 3.2-1.5 5.2l1.1 10.1c0 .4-.1.8-.3 1.1-.3.3-.6.5-1 .6-.4 0-.8-.1-1.1-.3-.3-.3-.5-.6-.6-1l-2.1-19zM1162.8 401.6c0 .5-.1 1-.5 1.4-.4.4-.8.6-1.3.7s-1-.1-1.4-.5c-.4-.4-.6-.8-.7-1.3 0-.5.1-1 .5-1.4.4-.4.8-.6 1.3-.7s1 .1 1.4.5c.4.4.6.8.7 1.3zm-3 6.5c0-.4.1-.8.4-1.1.3-.3.6-.5 1.1-.5s.8.1 1.1.4c.3.3.5.6.5 1.1l1.5 18.7c0 .4-.1.8-.4 1.1-.3.3-.6.5-1.1.5s-.8-.1-1.1-.4c-.3-.3-.5-.6-.5-1.1l-1.5-18.7zM1180.3 426.6c-.3.3-.6.5-1.1.5s-.8-.1-1.1-.4c-.1-.1-.2-.2-.3-.4L1168 408c-.1-.2-.1-.4-.2-.6 0-.4.1-.8.4-1.1.3-.3.6-.5 1.1-.5s.8.1 1.1.4c.1.1.2.2.3.4l8.1 15.2 6.2-16.1c.1-.2.2-.3.3-.4.3-.3.6-.5 1.1-.5.4 0 .8.1 1.1.4.3.3.5.6.5 1.1 0 .2 0 .4-.1.6l-7.5 19.4c.1.1 0 .2-.1.3zM1209 420.5c.4 0 .8.1 1.1.4.3.3.5.7.5 1.1s-.1.8-.4 1.1c-2 1.8-4.3 2.8-7 2.9-3 .1-5.6-.9-7.8-3s-3.3-4.6-3.4-7.6c-.1-3 .9-5.6 3-7.8s4.6-3.3 7.6-3.4c3-.1 5.6.9 7.8 3s3.3 4.6 3.4 7.6c0 .4-.1.8-.4 1.1-.3.3-.7.5-1.1.5l-17 .5c.3 1.5 1.1 2.8 2.3 3.9 1.6 1.5 3.4 2.2 5.6 2.1 2-.1 3.6-.7 5-2 .2-.3.5-.4.8-.4zm1.5-7.3c-.3-1.5-1.1-2.8-2.3-3.9-1.6-1.5-3.4-2.2-5.6-2.1-2.2.1-4 .9-5.5 2.5-1.1 1.2-1.8 2.5-2 4l15.4-.5zM1216.7 405.4c0-.4.1-.8.4-1.1.3-.3.7-.5 1.1-.5.4 0 .8.1 1.1.4.3.3.5.7.5 1.1v1.7c2.1-2.2 4.7-3.4 7.7-3.4 1.5 0 2.9.2 4.2.7.2.1.5.2.7.4.3.3.5.7.5 1.1 0 .4-.1.8-.4 1.1-.3.3-.7.5-1.1.5-.2 0-.5 0-.7-.1-.9-.4-2-.5-3.1-.5-2.2 0-4 .8-5.5 2.4-1.5 1.6-2.2 3.4-2.2 5.6l.2 9.4c0 .4-.1.8-.4 1.1-.3.3-.7.5-1.1.5-.4 0-.8-.1-1.1-.4-.3-.3-.5-.7-.5-1.1l-.3-18.9zM1239.7 414.8c-1.2-.5-2-.9-2.4-1.4-.9-.9-1.3-2-1.3-3.3 0-1.3.5-2.4 1.5-3.3 1.9-1.9 4.4-2.8 7.4-2.7 3.3.1 6 1.4 8.3 4.1.2.3.3.6.3.9 0 .4-.2.8-.5 1.1s-.7.4-1.1.4c-.4 0-.8-.2-1-.4s-.4-.5-.6-.6c-1.5-1.6-3.3-2.4-5.5-2.4s-3.9.6-5.2 1.9c-.3.4-.5.8-.5 1.3 0 .6.3 1 .9 1.3l9.5 3.4c1.2.5 2 .9 2.4 1.4.9.9 1.3 2 1.3 3.3 0 1.3-.5 2.4-1.5 3.3-1.9 1.9-4.4 2.8-7.4 2.7-3.3-.1-6.1-1.4-8.3-4.1-.2-.3-.3-.6-.3-.9 0-.4.2-.8.5-1.1.3-.3.7-.4 1.1-.4.4 0 .8.2 1 .4.3.3.4.5.6.6 1.5 1.6 3.3 2.4 5.5 2.4s3.9-.6 5.2-1.9c.3-.4.5-.8.5-1.3 0-.6-.3-1-.9-1.3l-9.5-3.4zM1278.5 416.3c-.2 3-1.4 5.5-3.6 7.6-2.2 2-4.9 3-7.9 2.8-3-.2-5.5-1.4-7.6-3.6-2-2.2-3-4.9-2.8-7.9s1.4-5.5 3.6-7.6c2.2-2 4.9-3 7.9-2.8 3 .2 5.5 1.4 7.6 3.6 2 2.2 3 4.8 2.8 7.9zm-10.5-8.4c-2.2-.1-4 .6-5.6 2-1.6 1.4-2.5 3.2-2.6 5.4s.6 4 2 5.6c1.4 1.6 3.2 2.5 5.4 2.6s4-.6 5.6-2c1.6-1.4 2.5-3.2 2.6-5.4s-.6-4-2-5.6-3.2-2.5-5.4-2.6zM1311.5 426.9c-2.4 2-5.1 2.8-8.1 2.5-3-.3-5.5-1.6-7.4-4s-2.7-5-2.4-8.1 1.6-5.5 4-7.4 5-2.7 8.1-2.4c3 .3 5.5 1.6 7.4 4s2.7 5 2.4 8.1l-.9 9.4c0 .4-.2.8-.6 1.1-.3.3-.7.4-1.1.3s-.8-.2-1.1-.6c-.3-.3-.4-.7-.3-1.1v-1.8zm-6.2-16.3c-2.2-.2-4.1.4-5.8 1.7s-2.6 3.1-2.8 5.3c-.2 2.2.4 4.1 1.7 5.8s3.1 2.6 5.3 2.8c2.2.2 4.1-.4 5.8-1.7s2.6-3.1 2.8-5.3c.2-2.2-.4-4.1-1.7-5.8s-3.2-2.6-5.3-2.8zM1331.5 412.1c.1-.4.3-.8.6-1 .3-.3.7-.4 1.2-.3.4.1.8.3 1 .6s.4.7.3 1.2l-.2 1.3c2.2-1.6 4.7-2.2 7.4-1.8 2.8.4 5 1.7 6.7 4 1.7 2.2 2.3 4.8 1.9 7.5l-1.4 10.1c-.1.4-.3.8-.6 1-.3.3-.7.4-1.2.3s-.8-.3-1-.6-.4-.7-.3-1.2l1.4-10.1c.3-1.9-.2-3.7-1.3-5.2-1.2-1.6-2.7-2.5-4.6-2.7-1.9-.3-3.7.2-5.2 1.3-1.6 1.2-2.5 2.7-2.7 4.6l-1.4 10.1c-.1.4-.3.8-.6 1-.3.3-.7.4-1.2.3-.4-.1-.8-.3-1-.6-.3-.3-.4-.7-.3-1.2l2.5-18.6zM1356.6 415.8c.1-.4.3-.8.6-1 .4-.3.7-.3 1.2-.3.4.1.8.3 1 .6s.3.7.3 1.2l-3.2 18.6c-.1.4-.3.8-.6 1s-.7.3-1.2.3c-.4-.1-.8-.3-1-.6-.3-.4-.3-.7-.3-1.2l3.2-18.6zm4.6-5.6c-.1.5-.4 1-.8 1.3-.4.3-.9.4-1.5.3s-1-.4-1.3-.8c-.3-.4-.4-.9-.3-1.5s.4-1 .8-1.3.9-.4 1.5-.3 1 .4 1.3.8c.2.5.4 1 .3 1.5zM1364.5 417.2c.1-.4.3-.8.7-1 .4-.2.7-.3 1.2-.2.4.1.8.3 1 .7.2.4.3.7.2 1.2l-.2 1.2c2.3-1.5 4.7-2 7.4-1.5 2.8.5 4.9 1.9 6.5 4.3 1.6 2.3 2.1 4.9 1.6 7.6l-1.9 10c-.1.4-.3.8-.7 1s-.7.3-1.2.2c-.4-.1-.8-.3-1-.7-.2-.4-.3-.7-.2-1.2l1.9-10c.4-1.9 0-3.7-1.1-5.3s-2.6-2.6-4.5-3c-1.9-.4-3.7 0-5.3 1.1-1.6 1.1-2.6 2.6-2.9 4.5l-1.9 10c-.1.4-.3.8-.7 1-.4.2-.7.3-1.2.2-.4-.1-.8-.3-1-.7-.2-.4-.3-.7-.2-1.2l3.5-18.2zm12.2-3.3c-1.3.8-2.8 1.1-4.4.8-1.7-.3-3-1.2-4-2.6-.2-.4-.3-.7-.2-1.2.1-.4.3-.8.7-1 .4-.2.7-.3 1.2-.2.4.1.7.3 1 .6.5.7 1.1 1.2 2 1.3.7.1 1.4 0 2-.3 1.3-.8 2.8-1.1 4.4-.8 1.7.3 3 1.2 4 2.6.2.4.3.7.2 1.2-.1.4-.3.8-.7 1-.4.2-.7.3-1.2.2-.4-.1-.7-.3-1-.6-.5-.7-1.1-1.2-2-1.3-.7-.2-1.4-.1-2 .3zM1407.3 435.5c-.7 2.9-2.3 5.2-4.8 6.9-2.5 1.6-5.3 2.1-8.2 1.4-2.9-.7-5.2-2.3-6.9-4.8-1.6-2.5-2.1-5.3-1.4-8.2s2.3-5.2 4.8-6.9c2.5-1.6 5.3-2.1 8.2-1.4 2.9.7 5.2 2.3 6.9 4.8 1.5 2.5 2 5.3 1.4 8.2zm-9-10c-2.1-.5-4.1-.1-5.9 1-1.8 1.2-3 2.8-3.4 4.9s-.1 4.1 1 5.9c1.2 1.8 2.8 3 4.9 3.4 2.1.5 4.1.1 5.9-1s3-2.8 3.4-4.9.1-4.1-1-5.9-2.8-2.9-4.9-3.4zM1414.1 437.3c-1-.7-1.7-1.4-2.1-2-.7-1.1-.8-2.3-.5-3.5.3-1.2 1.1-2.2 2.2-2.9 2.3-1.4 4.9-1.7 7.8-1 3.2.8 5.6 2.8 7.2 5.9.1.3.2.6.1 1s-.3.7-.7 1c-.4.2-.8.3-1.2.2-.4-.1-.7-.3-.9-.7-.2-.3-.3-.6-.4-.7-1.1-1.9-2.7-3-4.8-3.6s-3.9-.3-5.5.7c-.4.3-.7.7-.8 1.2-.1.6.1 1.1.6 1.4l8.5 5.4c1 .7 1.7 1.4 2.1 2 .7 1.1.8 2.3.5 3.5-.3 1.2-1.1 2.2-2.2 2.9-2.3 1.4-4.9 1.7-7.8 1-3.2-.8-5.6-2.8-7.2-5.9-.1-.3-.1-.6-.1-1 .1-.4.3-.7.7-1 .4-.2.8-.3 1.2-.2.4.1.7.3.9.7s.3.6.4.7c1.1 1.9 2.7 3 4.8 3.6 2.1.5 3.9.3 5.5-.7.4-.3.7-.7.8-1.2.1-.6-.1-1.1-.6-1.4l-8.5-5.4zM1465.3 432c.1-.4.4-.7.8-.9.4-.2.8-.2 1.2-.1s.7.4.9.8c.2.4.2.8.1 1.2l-5.4 18c-.9 2.9-2.6 5.1-5.3 6.5-2.7 1.4-5.4 1.7-8.3.8-2.9-.9-5.1-2.6-6.5-5.3-1.4-2.7-1.7-5.4-.8-8.3s2.6-5.1 5.3-6.5c2.7-1.4 5.4-1.7 8.3-.8 2.9.9 5 2.6 6.5 5.3 0 0 0 .1.1.1l3.1-10.8zm-5.4 18c.6-2.1.4-4.1-.6-6-1-1.9-2.6-3.2-4.6-3.8-2.1-.6-4.1-.4-6 .6-1.9 1-3.2 2.6-3.8 4.6-.6 2.1-.4 4.1.6 6 1 1.9 2.6 3.2 4.6 3.8 2.1.6 4.1.4 6-.6 1.9-1 3.1-2.5 3.8-4.6zM1480.2 462.7c.4.1.7.4.9.8.2.4.2.8.1 1.2-.1.4-.4.7-.8.9-2.5 1-5 1.1-7.6.2-2.9-1-5-2.8-6.3-5.5-1.3-2.7-1.5-5.5-.6-8.4s2.8-5 5.5-6.3c2.7-1.3 5.5-1.5 8.4-.6 2.9 1 5 2.8 6.3 5.5 1.3 2.7 1.5 5.5.6 8.4-.1.4-.4.7-.8.9-.4.2-.8.2-1.2.1l-16.2-5.5c-.2 1.5 0 3 .8 4.4 1 1.9 2.5 3.2 4.5 3.9 1.9.6 3.6.6 5.4-.1.3 0 .7 0 1 .1zm3.9-6.3c.2-1.5 0-3-.8-4.4-1-1.9-2.5-3.2-4.5-3.9-2-.7-4-.6-6 .4-1.5.7-2.6 1.7-3.3 3.1l14.6 4.8zM1508.1 475.3c.4.2.7.4.9.8.2.4.2.8 0 1.2-.2.4-.4.7-.8.9-.4.2-.8.2-1.2 0-4.9-1.9-6.4-5.2-4.5-10.1l3.9-10.2-1.5-.6c-.4-.2-.7-.4-.9-.8s-.2-.8 0-1.2c.2-.4.4-.7.8-.9.4-.2.8-.2 1.2 0l1.5.6 2.8-7.3c.2-.4.4-.7.8-.9s.8-.2 1.2 0 .7.4.9.8c.2.4.2.8 0 1.2l-2.8 7.3 2.9 1.1c.4.2.7.4.9.8s.2.8 0 1.2c-.2.4-.4.7-.8.9-.4.2-.8.2-1.2 0l-2.9-1.1-3.9 10.2c-1.1 3-.2 5 2.7 6.1zM1534.4 477.7c-1.1 2.8-3.1 4.7-5.9 5.9-2.8 1.2-5.6 1.2-8.3 0-2.8-1.1-4.7-3.1-5.9-5.9-1.2-2.8-1.2-5.6 0-8.3 1.1-2.8 3.1-4.7 5.9-5.9 2.8-1.2 5.6-1.2 8.3 0 2.8 1.1 4.7 3.1 5.9 5.9 1.2 2.7 1.2 5.5 0 8.3zm-7-11.4c-2-.8-4-.8-6 0s-3.4 2.2-4.2 4.2c-.8 2-.8 4 0 6s2.2 3.4 4.2 4.2c2 .8 4 .8 6 0s3.4-2.2 4.2-4.2c.8-2 .8-4 0-6-.9-1.9-2.3-3.3-4.2-4.2zM1562.4 469.6c.2-.4.5-.7.9-.8.4-.2.8-.1 1.2 0 .4.2.7.5.8.9.2.4.1.8 0 1.2l-7.7 17.1c-1.2 2.8-3.3 4.7-6.1 5.7-2.8 1.1-5.6 1-8.4-.3-2.8-1.2-4.7-3.3-5.7-6.1-1.1-2.8-1-5.6.3-8.4 1.2-2.8 3.3-4.7 6.1-5.7 2.8-1.1 5.6-1 8.4.3 2.8 1.2 4.7 3.3 5.7 6.1v.1l4.5-10.1zm-7.8 17.1c.9-2 1-4 .2-6s-2.1-3.5-4.1-4.4c-2-.9-4-1-6-.2s-3.5 2.1-4.4 4.1c-.9 2-1 4-.2 6s2.1 3.5 4.1 4.4c2 .9 4 1 6 .2 2.1-.8 3.5-2.1 4.4-4.1zM1580 499c-1.3 2.7-3.4 4.6-6.3 5.5-2.9 1-5.6.8-8.4-.5s-4.6-3.4-5.5-6.3c-1-2.9-.8-5.6.5-8.4s3.4-4.6 6.3-5.5c2.9-1 5.6-.8 8.4.5 2.7 1.3 4.6 3.4 5.5 6.3 1.1 3 .9 5.7-.5 8.4zm-6.3-11.8c-1.9-1-3.9-1.1-6-.4-2 .7-3.5 2-4.5 3.9s-1.1 3.9-.4 6c.7 2 2 3.5 4 4.5 1.9 1 3.9 1.1 6 .4 2-.7 3.5-2 4.5-3.9s1.1-3.9.4-6c-.8-2-2.1-3.5-4-4.5zM1605.4 519.1c.4.2.6.5.7.9s.1.8-.1 1.2c-.2.4-.5.6-.9.8-2.6.6-5.1.2-7.5-1.1-2.6-1.5-4.4-3.6-5.2-6.5-.8-2.9-.5-5.7.9-8.3 1.5-2.6 3.6-4.4 6.5-5.2s5.7-.5 8.3.9c2.6 1.5 4.4 3.6 5.2 6.5.8 2.9.5 5.7-.9 8.3-.2.4-.5.6-.9.7-.4.1-.8.1-1.2-.1l-14.9-8.3c-.5 1.4-.5 3 0 4.5.6 2.1 1.8 3.6 3.7 4.7 1.7.9 3.5 1.2 5.3.8.4 0 .7 0 1 .2zm5-5.5c.5-1.4.5-3 0-4.5-.6-2.1-1.8-3.6-3.7-4.7-1.9-1-3.9-1.3-5.9-.7-1.6.4-2.8 1.3-3.8 2.4l13.4 7.5zM1624.6 502.2c.2-.4.5-.6.9-.7.4-.1.8-.1 1.2.2.4.2.6.5.7.9.1.4.1.8-.2 1.2l-13.3 22.8 1.3.8c.4.2.6.5.7.9s.1.8-.2 1.2c-.2.4-.5.6-.9.7-.4.1-.8.1-1.2-.2l-2.7-1.6c-.4-.2-.6-.5-.7-.9-.1-.4-.1-.8.2-1.2l14.2-24.1zM1631.1 538.6c-.2.4-.6.6-1 .7-.4.1-.8 0-1.2-.2-.4-.2-.6-.6-.7-1-.1-.4 0-.8.2-1.2l10.1-15.8c.2-.4.6-.6 1-.7s.8 0 1.2.2c.4.2.6.6.7 1 .1.4 0 .8-.2 1.2l-.2.3c2-.3 3.9.2 5.7 1.3 2 1.3 3.2 3.1 3.7 5.4.1.5.2 1 .2 1.5.5-.2.9-.3 1.4-.4 2.3-.5 4.5-.1 6.5 1.2s3.2 3.1 3.7 5.4c.5 2.3.1 4.5-1.2 6.5l-6.3 9.8c-.2.4-.6.6-1 .7-.4.1-.8 0-1.2-.2-.4-.2-.6-.6-.7-1s0-.8.2-1.2l6.3-9.8c.8-1.3 1.1-2.6.7-4.1-.3-1.5-1.1-2.6-2.4-3.4-1.3-.8-2.6-1.1-4.1-.7-1.5.3-2.6 1.1-3.4 2.4l-6.3 9.8c-.2.4-.6.6-1 .7-.4.1-.8 0-1.2-.2-.4-.2-.6-.6-.7-1-.1-.4 0-.8.2-1.2l6.3-9.8c.8-1.3 1.1-2.6.7-4.1-.3-1.5-1.1-2.6-2.4-3.4-1.3-.8-2.6-1.1-4.1-.7s-2.6 1.1-3.4 2.4l-6.1 9.6zM1673.8 567.1c-.2.4-.6.6-1 .6s-.8 0-1.2-.3c-.4-.2-.6-.6-.6-1s0-.8.3-1.2l.7-1c-2.7.4-5.1-.1-7.4-1.7-2.3-1.6-3.7-3.8-4.2-6.5-.5-2.8.1-5.3 1.7-7.6l5.8-8.3c.2-.4.6-.6 1-.6.4-.1.8 0 1.2.3.4.2.6.6.6 1 .1.4 0 .8-.3 1.2l-5.8 8.3c-1.1 1.6-1.5 3.3-1.1 5.3.3 1.9 1.3 3.4 2.9 4.5 1.6 1.1 3.3 1.5 5.3 1.1 1.9-.3 3.4-1.3 4.5-2.9l5.8-8.3c.2-.4.6-.6 1-.6.4-.1.8 0 1.2.3.4.2.6.6.6 1 .1.4 0 .8-.3 1.2l-10.7 15.2zM1687.4 553.7c.3-.3.6-.5 1-.6s.8 0 1.2.3c.3.3.5.6.6 1 .1.4 0 .8-.3 1.2l-.8 1c2.7-.4 5.1.3 7.3 1.9 2.2 1.7 3.6 3.9 4 6.7.4 2.8-.2 5.3-1.9 7.5l-6.1 8.2c-.3.3-.6.5-1 .6-.4.1-.8 0-1.2-.3s-.5-.6-.6-1c-.1-.4 0-.8.3-1.2l6.1-8.2c1.2-1.6 1.6-3.3 1.3-5.2-.3-1.9-1.2-3.5-2.8-4.6-1.6-1.2-3.3-1.6-5.2-1.3-1.9.3-3.5 1.2-4.6 2.8l-6.1 8.2c-.3.3-.6.5-1 .6-.4.1-.8 0-1.2-.3-.3-.3-.5-.6-.6-1s0-.8.3-1.2l11.3-15.1zM1727.1 572.2c.3-.3.6-.5 1-.6s.8.1 1.2.3c.3.3.5.6.6 1 .1.4-.1.8-.3 1.2l-11.7 14.7c-1.9 2.4-4.3 3.7-7.3 4.1s-5.7-.4-8.1-2.3c-2.4-1.9-3.7-4.3-4.1-7.3-.3-3 .4-5.7 2.3-8.1 1.9-2.4 4.3-3.7 7.3-4.1 3-.3 5.7.4 8.1 2.3 2.4 1.9 3.7 4.3 4.1 7.3v.1l6.9-8.6zm-11.7 14.8c1.3-1.7 1.9-3.6 1.6-5.8-.2-2.1-1.2-3.9-2.9-5.2-1.7-1.3-3.6-1.9-5.8-1.6-2.1.2-3.9 1.2-5.2 2.9-1.3 1.7-1.9 3.6-1.6 5.8.2 2.1 1.2 3.9 2.9 5.2 1.7 1.3 3.6 1.9 5.8 1.6s3.9-1.2 5.2-2.9zM1737.1 605.1c-1.9 2.3-4.4 3.6-7.4 3.8-3 .3-5.7-.6-8-2.5-2.3-2-3.6-4.4-3.8-7.4-.3-3 .6-5.7 2.5-8s4.4-3.6 7.4-3.8c3-.3 5.7.6 8 2.5s3.6 4.4 3.8 7.4-.5 5.7-2.5 8zm-3.3-13c-1.7-1.4-3.5-2-5.7-1.8s-3.9 1.1-5.3 2.7-2 3.5-1.8 5.7c.2 2.1 1.1 3.9 2.7 5.3 1.7 1.4 3.5 2 5.7 1.8 2.1-.2 3.9-1.1 5.3-2.7 1.4-1.7 2-3.5 1.8-5.7-.1-2.2-1-3.9-2.7-5.3z"/></svg>