<?xml version="1.0" encoding="UTF-8" standalone="no"?>
<svg
   xmlns:dc="http://purl.org/dc/elements/1.1/"
   xmlns:cc="http://creativecommons.org/ns#"
   xmlns:rdf="http://www.w3.org/1999/02/22-rdf-syntax-ns#"
   xmlns:svg="http://www.w3.org/2000/svg"
   xmlns="http://www.w3.org/2000/svg"
   xmlns:sodipodi="http://sodipodi.sourceforge.net/DTD/sodipodi-0.dtd"
   xmlns:inkscape="http://www.inkscape.org/namespaces/inkscape"
   viewBox="929 -806.1 2453 2453"
   id="svg2"
   version="1.1"
   inkscape:version="0.91 r13725"
   sodipodi:docname="earthscape-text-he.svg">
  <metadata
     id="metadata12">
    <rdf:RDF>
      <cc:Work
         rdf:about="">
        <dc:format>image/svg+xml</dc:format>
        <dc:type
           rdf:resource="http://purl.org/dc/dcmitype/StillImage" />
        <dc:title></dc:title>
      </cc:Work>
    </rdf:RDF>
  </metadata>
  <defs
     id="defs10" />
  <sodipodi:namedview
     pagecolor="#ffffff"
     bordercolor="#666666"
     borderopacity="1"
     objecttolerance="10"
     gridtolerance="10"
     guidetolerance="10"
     inkscape:pageopacity="0"
     inkscape:pageshadow="2"
     inkscape:window-width="1680"
     inkscape:window-height="999"
     id="namedview8"
     showgrid="false"
     showguides="true"
     inkscape:guide-bbox="true"
     inkscape:zoom="1.2271424"
     inkscape:cx="1220.4527"
     inkscape:cy="1970.1909"
     inkscape:window-x="0"
     inkscape:window-y="25"
     inkscape:window-maximized="1"
     inkscape:current-layer="layer1" />
  <g
     inkscape:groupmode="layer"
     id="layer1"
     inkscape:label="Layer 1"
     style="display:inline">
    <path
       style="color:#000000;font-style:normal;font-variant:normal;font-weight:normal;font-stretch:normal;font-size:medium;line-height:normal;font-family:sans-serif;text-indent:0;text-align:start;text-decoration:none;text-decoration-line:none;text-decoration-style:solid;text-decoration-color:#000000;letter-spacing:normal;word-spacing:normal;text-transform:none;direction:ltr;block-progression:tb;writing-mode:lr-tb;baseline-shift:baseline;text-anchor:start;white-space:normal;clip-rule:nonzero;display:inline;overflow:visible;visibility:visible;opacity:1;isolation:auto;mix-blend-mode:normal;color-interpolation:sRGB;color-interpolation-filters:linearRGB;solid-color:#000000;solid-opacity:1;fill:none;fill-opacity:1;fill-rule:evenodd;stroke:none;stroke-width:1.18820226px;stroke-linecap:butt;stroke-linejoin:miter;stroke-miterlimit:4;stroke-dasharray:none;stroke-dashoffset:0;stroke-opacity:1;color-rendering:auto;image-rendering:auto;shape-rendering:auto;text-rendering:auto;enable-background:accumulate"
       d="m 2155.2012,1146.2166 c -203.5434,0 -398.7509,-80.8583 -542.6778,-224.78517 -143.9268,-143.92688 -224.7851,-339.13242 -224.7851,-542.67578 0,-203.54335 80.8583,-398.750845 224.7851,-542.67773 143.9269,-143.92688 339.1344,-224.78518 542.6778,-224.78518 203.5433,0 398.7508,80.8583 542.6777,224.78518 143.9269,143.926885 224.7832,339.13438 224.7832,542.67773 0,203.54336 -80.8563,398.7489 -224.7832,542.67578 -143.9269,143.92687 -339.1344,224.78517 -542.6777,224.78517 z m 0,-1.1875 c 203.2287,0 398.1335,-80.7331 541.8379,-224.43751 143.7043,-143.70437 224.4355,-338.60726 224.4355,-541.83594 0,-203.22868 -80.7312,-398.133505 -224.4355,-541.83789 -143.7044,-143.70442 -338.6092,-224.43752 -541.8379,-224.43752 -203.2287,0 -398.1335,80.7331 -541.8379,224.43752 -143.7044,143.704385 -224.4356,338.60921 -224.4356,541.83789 0,203.22868 80.7312,398.13157 224.4356,541.83594 143.7044,143.70441 338.6092,224.43751 541.8379,224.43751 z"
       id="path3349"
       inkscape:connector-curvature="0" />
    <g
       transform="matrix(-0.85142342,0.5244789,-0.5244789,-0.85142342,4186.7157,-421.39709)"
       style="font-style:normal;font-weight:normal;font-size:40px;line-height:125%;font-family:sans-serif;letter-spacing:0px;word-spacing:0px;fill:#03709c;fill-opacity:1;stroke:none;stroke-width:1px;stroke-linecap:butt;stroke-linejoin:miter;stroke-opacity:1"
       id="text3341">
      <path
         d="m 1462.0566,756.57464 -1.9719,-3.75159 q 0.1538,-0.16912 1.2197,-1.45754 1.0486,-1.27933 2.1972,-2.36849 -1.4646,0.15204 -2.6744,-0.0506 -1.2188,-0.21988 -2.0309,-0.63148 -0.8121,-0.4116 -1.5167,-1.12242 -0.7046,-0.71082 -1.1191,-1.33143 -0.4145,-0.62061 -0.8779,-1.50232 -3.6532,-6.94995 5.5097,-11.76626 l 10.4768,-5.50695 5.1071,9.71609 -2.455,1.29041 -3.4168,-6.50044 -8.0219,4.21654 q -3.3712,1.77204 -4.4247,3.67176 -1.0708,1.9088 -0.1893,3.58578 1.6357,3.11191 5.1834,3.14474 2.0094,0.003 5.9525,-1.143 0.2602,-0.0926 0.7033,-0.21521 l 9.431,-2.7949 1.6903,3.21564 -7.9536,2.41546 q -0.3038,0.0935 -0.9898,0.29965 -0.7124,0.19793 -0.9553,0.28149 -0.2693,0.0754 -0.7288,0.25068 -0.4858,0.16712 -0.8234,0.32249 -0.364,0.14717 -0.7443,0.34709 -1.1065,0.58159 -2.9441,2.58459 -1.8641,1.99481 -3.6331,4.80017 z"
         style=""
         id="path5184" />
      <path
         d="m 1484.1065,756.82346 -7.8619,4.46831 q -1.2736,0.72381 -2.0477,1.29858 -0.8007,0.56744 -1.4834,1.38225 -0.6826,0.81482 -0.8373,1.689 -0.1643,0.85721 0.1188,2.06672 0.2564,1.20219 1.096,2.67948 l 3.1848,5.60352 -2.4282,1.38006 -3.1848,-5.60352 q -1.187,-2.08858 -1.6457,-3.80482 -0.4684,-1.73322 -0.298,-3.13306 0.1534,-1.3902 1.0139,-2.64308 0.8339,-1.26022 2.1178,-2.28198 1.2743,-1.03874 3.21,-2.13892 l 7.2506,-4.12088 -1.602,-2.81874 2.4282,-1.38006 9.728,17.11619 -2.4282,1.38006 -6.3309,-11.13911 z"
         style=""
         id="path5186" />
      <path
         d="m 1476.373,781.55991 10.5007,-6.26296 3.1357,2.35965 -11.7755,7.02332 -1.8609,-3.12001 z"
         style=""
         id="path5188" />
      <path
         d="m 1496.4443,787.95376 3.8344,-8.98444 2.2553,3.5884 -5.5983,13.11501 q 0.5225,0.31751 0.8915,0.50085 0.342,0.17718 1.0795,0.35959 0.721,0.1928 1.4434,0.13095 0.6954,-0.068 1.74,-0.42464 1.0447,-0.35665 2.1857,-1.07377 l 4.4317,-2.78535 1.9124,3.0427 -3.0593,1.92272 q -1.3394,0.84184 -2.5844,1.3936 -1.2449,0.55176 -2.1946,0.80258 -0.96,0.23429 -1.8813,0.2366 -0.9378,0.0127 -1.5799,-0.0913 -0.6524,-0.12051 -1.3488,-0.42103 -0.7068,-0.31705 -1.1008,-0.57692 -0.4105,-0.24948 -0.9477,-0.627 l -3.8448,8.96791 -2.2553,-3.58841 5.5983,-13.11501 q -0.4956,-0.31137 -0.8376,-0.48856 -0.369,-0.18333 -1.1065,-0.36574 -0.7375,-0.1824 -1.4433,-0.13094 -0.7224,0.0619 -1.767,0.41849 -1.0446,0.35665 -2.1857,1.07377 l -4.4317,2.78535 -1.9123,-3.0427 3.0592,-1.92272 q 1.356,-0.85224 2.6009,-1.404 1.2284,-0.54136 2.205,-0.78604 0.9497,-0.25082 1.8875,-0.26353 0.9213,-0.002 1.5737,0.1182 0.6359,0.13091 1.3323,0.43142 0.6964,0.30052 1.1069,0.55 0.3941,0.25987 0.9416,0.65393 z"
         style=""
         id="path5190" />
      <path
         d="m 1495.8834,812.76014 10.1973,-6.74567 3.2423,2.2109 -11.4353,7.56463 -2.0043,-3.02986 z"
         style=""
         id="path5192" />
      <path
         d="m 1519.6872,809.12175 11.007,15.82602 -17.9586,12.49017 -5.3864,-7.74464 q -1.5724,-2.26086 -2.178,-4.12358 -0.6056,-1.86271 -0.2213,-3.53362 0.3571,-1.67579 1.5904,-3.15212 1.2173,-1.46518 3.43,-3.00415 l 9.7169,-6.75808 z m -6.733,23.73905 13.3728,-9.30072 -6.8585,-9.86119 -7.8568,5.46445 q -3.1749,2.20809 -3.6205,4.06442 -0.4456,1.85633 1.6175,4.82271 l 3.3455,4.81033 z"
         style=""
         id="path5194" />
      <path
         d="m 1533.2487,848.4064 9.3588,-7.24582 2.2239,2.87251 -9.7758,7.56865 q -3.0578,2.36745 -3.408,4.24413 -0.3502,1.87668 1.8499,4.7183 l 3.3598,4.33965 15.0884,-11.68179 2.212,2.85706 -17.2968,13.39162 -5.5479,-7.16583 q -3.3001,-4.26243 -2.798,-7.44237 0.5021,-3.17995 4.7337,-6.45611 z"
         style=""
         id="path5196" />
      <path
         d="m 1542.6529,872.24169 2.4624,2.98195 14.714,-12.14998 2.3131,2.80123 -14.714,12.14998 7.1507,8.65973 -2.1537,1.77835 -11.9261,-14.44291 2.1536,-1.77835 z"
         style=""
         id="path5198" />
      <path
         d="m 1583.5044,890.80419 2.4293,2.75332 -14.4127,16.72828 -2.3906,-2.70938 6.7747,-7.87913 q -0.6349,-0.69005 -1.2155,-1.14147 -0.6082,-0.45315 -1.2044,-0.65646 -0.6108,-0.19039 -1.1182,-0.26362 -0.522,-0.0603 -1.1716,0.14817 -0.6625,0.19383 -1.1466,0.41265 -0.5118,0.21709 -1.2759,0.70899 -0.7917,0.49019 -1.3413,0.87096 -0.5643,0.3937 -1.5206,1.08116 -0.9838,0.68574 -1.6911,1.15352 l -2.1321,-2.41648 q 4.0403,-3.09616 5.8589,-4.07566 3.0342,-1.60925 5.4403,-0.91918 2.121,0.60305 4.3669,2.97128 l 3.9405,-4.59687 q -1.2664,-1.43524 -2.3381,-2.44319 -1.0993,-1.00967 -2.3355,-1.82033 -1.2362,-0.81066 -2.4044,-1.16043 -1.1957,-0.3515 -2.5905,-0.39716 -1.4223,-0.0474 -2.9308,0.39799 -1.5213,0.43074 -3.3184,1.28705 -1.8117,0.86923 -3.8621,2.23554 -2.0503,1.36631 -4.4788,3.24864 l -2.3907,-2.70938 q 2.6638,-1.88148 4.7804,-3.20213 2.1167,-1.32065 4.1869,-2.33977 2.0572,-1.03378 3.7492,-1.53688 1.6644,-0.50482 3.3598,-0.62025 1.6678,-0.11716 3.1522,0.26621 1.4567,0.38165 3.022,1.24055 1.5378,0.85719 3.0463,2.18303 1.4955,1.31118 3.1625,3.20043 z"
         style=""
         id="path5200" />
      <path
         d="m 1575.6688,914.66376 16.027,-14.88795 2.4725,2.66162 -16.027,14.88796 -2.4725,-2.66163 z"
         style=""
         id="path5202" />
      <path
         d="m 1590.719,916.1131 8.4729,-8.26428 2.5366,2.60061 -8.5009,8.29156 q -1.0347,1.00917 -1.6516,1.74731 -0.6309,0.75178 -1.0845,1.68533 -0.4676,0.94718 -0.4367,1.79008 0.031,0.8429 0.543,1.87136 0.498,1.04209 1.589,2.16063 l 3.3548,3.43952 7.8717,-7.67787 q 2.9922,-2.91841 5.2918,-3.46984 2.286,-0.5654 4.3589,1.55983 0.7227,0.74103 1.5627,2.04981 l -1.9993,1.95015 q -0.6907,-1.09974 -1.209,-1.63104 -0.9682,-0.99271 -2.0788,-0.53696 -1.1107,0.45576 -3.3897,2.67866 l -7.8717,7.67787 2.3592,2.41885 -1.9994,1.95015 -8.2506,-8.45898 q -1.9501,-1.99939 -2.784,-3.80532 -0.8614,-1.80626 -0.6331,-3.50226 0.2283,-1.696 1.1867,-3.23097 0.9583,-1.53497 2.762,-3.2942 z"
         style=""
         id="path5204" />
      <path
         d="m 1628.0336,966.36851 -3.1116,-2.87765 q 0.089,-0.21077 0.6629,-1.78119 0.5612,-1.55608 1.2801,-2.96628 -1.3298,0.63244 -2.5377,0.84548 -1.2223,0.19978 -2.1253,0.083 -0.9029,-0.11676 -1.8044,-0.55146 -0.9016,-0.43471 -1.4995,-0.88127 -0.5979,-0.44656 -1.3293,-1.12288 -5.7643,-5.33094 1.264,-12.93075 l 8.0362,-8.68958 8.0587,7.45271 -1.8831,2.03618 -5.3915,-4.98616 -6.1532,6.65341 q -2.5859,2.79616 -2.9445,4.93863 -0.3718,2.15681 1.0191,3.44314 2.5811,2.38699 5.936,1.23316 1.8951,-0.66834 5.2291,-3.06526 0.2143,-0.17423 0.591,-0.43773 l 7.9562,-5.784 2.6671,2.46655 -6.6902,4.93292 q -0.2552,0.18965 -0.833,0.61303 -0.6054,0.42447 -0.8065,0.58436 -0.2286,0.16096 -0.6032,0.47966 -0.4021,0.31978 -0.6684,0.57896 -0.2939,0.26026 -0.5857,0.57573 -0.8487,0.91771 -1.9119,3.41942 -1.0909,2.50279 -1.8214,5.73785 z"
         style=""
         id="path5206" />
      <path
         d="m 1665.2664,958.67213 -14.1326,16.4401 3.7224,1.24254 13.165,-15.31446 -2.7548,-2.36818 z m -9.5857,2.73172 -18.4229,9.32646 13.2557,11.39526 -1.8079,2.10314 -16.4549,-14.14539 1.4005,-1.6292 19.1413,-9.53304 2.8882,2.48277 z"
         style=""
         id="path5208" />
      <path
         d="m 1671.0688,977.8287 -1.774,23.0639 -3.3214,-2.66403 1.0327,-13.36804 q -0.098,-0.003 -0.2654,-0.0125 -0.5734,-0.0343 -0.9059,-0.0255 -0.3325,0.009 -0.9854,0.13601 -0.6529,0.12729 -1.1657,0.39201 -0.525,0.27996 -1.2121,0.85559 -0.7022,0.56342 -1.3744,1.40139 l -3.275,4.08322 -2.8034,-2.24855 2.2608,-2.81864 q 0.9043,-1.12746 1.8113,-1.97733 0.8948,-0.83465 1.6305,-1.34616 0.7358,-0.51151 1.5628,-0.82465 0.8148,-0.29789 1.3854,-0.41613 0.5705,-0.11824 1.3361,-0.10507 0.7381,0.0162 1.1468,0.0686 0.3965,0.0676 1.0491,0.19045 l 0.5754,-8.80236 0.8677,-1.08175 14.3369,11.49938 -1.7353,2.16349 -10.1775,-8.16321 z"
         style=""
         id="path5210" />
      <path
         d="m 1691.1111,1006.7165 8.0147,-10.68815 2.8908,2.16772 -7.1242,9.50063 -3.7813,-0.9802 z m -10.54,-10.68658 6.679,-8.90682 2.8908,2.16773 -7.1242,9.5006 q -2.531,3.37517 -2.4058,5.32447 0.098,1.9531 3.0042,4.1325 l 7.2818,5.4603 -1.6756,2.2346 -7.2505,-5.4369 q -4.3284,-3.2458 -4.6138,-6.5114 -0.3011,-3.2773 3.2141,-7.96508 z"
         style=""
         id="path5212" />
      <path
         d="m 1723.5284,1029.4266 7.4625,-11.0807 2.997,2.0184 -6.6334,9.8495 -3.8261,-0.7872 z m -11.0682,-10.1385 6.2188,-9.2339 2.997,2.0183 -6.6334,9.8496 q -2.3566,3.4992 -2.1328,5.4395 0.1967,1.9457 3.2099,3.975 l 7.5492,5.0841 -1.5602,2.3166 -7.5167,-5.0623 q -4.4874,-3.0221 -4.938,-6.2691 -0.4669,-3.2578 2.8062,-8.1178 z"
         style=""
         id="path5214" />
      <path
         d="m 1727.8649,1042.4139 6.5957,-10.2949 3.8596,0.7098 -7.3964,11.5448 -3.0589,-1.9597 z"
         style=""
         id="path5216" />
      <path
         d="m 1766.9148,1031.1154 -11.2466,18.5344 3.8758,0.6155 10.4766,-17.2654 -3.1058,-1.8845 z m -9.0083,4.2661 -16.6448,12.2202 14.9444,9.0682 -1.4388,2.3711 -18.5511,-11.2567 1.1145,-1.8368 17.3198,-12.5418 3.256,1.9758 z"
         style=""
         id="path5218" />
      <path
         d="m 1761.66,1062.994 10.8635,-18.9869 3.1532,1.8042 -10.8635,18.9868 -3.1532,-1.8041 z"
         style=""
         id="path5220" />
      <path
         d="m 1782.135,1049.5097 16.9625,9.1593 -10.3934,19.2481 -8.3008,-4.4821 q -2.4232,-1.3085 -3.804,-2.6978 -1.3807,-1.3892 -1.7915,-3.0538 -0.4372,-1.6567 -0,-3.5306 0.4254,-1.8568 1.7061,-4.2284 l 5.6235,-10.4147 z m 4.6995,24.2238 7.7394,-14.333 -10.5693,-5.7071 -4.5471,8.421 q -1.8374,3.4029 -1.3978,5.2606 0.4397,1.8578 3.619,3.5745 l 5.1558,2.784 z"
         style=""
         id="path5222" />
      <path
         d="m 1827.4639,1072.7295 -15.3535,13.8077 12.3506,5.9092 -4.3497,9.0911 -3.2946,-1.5763 3.1442,-6.5717 -12.906,-6.1965 0.9801,-1.9128 15.9933,-14.1945 3.4356,1.6438 z"
         style=""
         id="path5224" />
      <path
         d="m 1827.7022,1096.9469 5.0474,-11.1361 3.9216,0.1477 -5.6602,12.4881 -3.3088,-1.4997 z"
         style=""
         id="path5226" />
      <path
         d="m 1856.4892,1085.7083 -14.7687,14.4316 12.5847,5.3927 -3.9695,9.2635 -3.3571,-1.4386 2.8694,-6.6962 -13.1515,-5.6568 0.9001,-1.9517 15.3919,-14.8446 3.5007,1.5001 z"
         style=""
         id="path5228" />
      <path
         d="m 1857.8024,1106.9678 3.5974,1.4189 7.0015,-17.7511 3.3794,1.3329 -7.0014,17.7512 10.4472,4.1206 -1.0248,2.5981 -17.4241,-6.8724 1.0248,-2.5982 z"
         style=""
         id="path5230" />
      <path
         d="m 1878.7629,1118.1041 4.256,-11.4619 3.9223,-0.127 -4.7727,12.8535 -3.4056,-1.2646 z"
         style=""
         id="path5232" />
      <path
         d="m 1895.8394,1101.1261 18.2228,6.2883 -7.1357,20.6785 -8.9175,-3.0773 q -2.6033,-0.8983 -4.191,-2.0454 -1.5877,-1.1471 -2.2628,-2.723 -0.7001,-1.5639 -0.5748,-3.4836 0.1188,-1.9011 0.9981,-4.449 l 3.8609,-11.1885 z m 8.5641,23.1415 5.3136,-15.398 -11.3547,-3.9183 -3.1219,9.0468 q -1.2615,3.6557 -0.5265,5.4176 0.735,1.7619 4.1506,2.9406 l 5.5389,1.9113 z"
         style=""
         id="path5234" />
      <path
         d="m 1937.1952,1117.5215 -2.5267,8.6828 q -0.4092,1.4065 -0.5641,2.3582 -0.1791,0.9649 -0.1011,2.025 0.078,1.0601 0.5761,1.795 0.4793,0.7294 1.5251,1.3998 1.0215,0.6838 2.653,1.1585 l 6.1886,1.8009 -0.7803,2.6817 -6.1886,-1.8008 q -2.3067,-0.6713 -3.8315,-1.5828 -1.5435,-0.917 -2.3966,-2.0399 -0.8585,-1.1042 -1.1141,-2.6025 -0.2798,-1.485 -0.071,-3.1124 0.1904,-1.633 0.8125,-3.7708 l 2.3302,-8.0077 -3.1131,-0.9059 0.7804,-2.6818 18.9034,5.5009 -0.7804,2.6817 -12.3022,-3.5799 z"
         style=""
         id="path5236" />
      <path
         d="m 1952.7335,1130.6039 2.7898,-10.7776 3.5169,0.9104 -2.7898,10.7776 q -0.3573,1.3802 -0.4381,2.5497 -0.1,1.1645 0.1374,2.2749 0.2133,1.1245 0.7983,1.9821 0.585,0.8576 1.6783,1.5441 1.0884,0.7054 2.6389,1.1067 l 6.3531,1.6446 -0.6999,2.7038 -6.3342,-1.6396 q -2.3824,-0.6167 -4.0465,-1.5922 -1.6879,-0.9615 -2.6113,-2.1487 -0.9282,-1.1684 -1.2992,-2.6968 -0.3948,-1.5145 -0.282,-3.1195 0.089,-1.5909 0.5883,-3.5195 z"
         style=""
         id="path5238" />
      <path
         d="m 1974.9184,1136.9729 2.5995,-11.5469 3.5441,0.7978 -2.7153,12.0615 q -0.8493,3.7727 0.076,5.4425 0.9254,1.6698 4.4315,2.4591 l 5.3542,1.2054 4.1909,-18.6162 3.5251,0.7936 -4.8043,21.3409 -8.8412,-1.9904 q -5.2591,-1.1839 -6.8975,-3.9551 -1.6384,-2.7713 -0.463,-7.9922 z"
         style=""
         id="path5240" />
      <path
         d="m 2007.4674,1134.7179 -1.7007,8.8816 q -0.2755,1.4387 -0.3404,2.4007 -0.088,0.9775 0.089,2.0257 0.1771,1.0481 0.742,1.7329 0.5457,0.6812 1.6497,1.2506 1.0812,0.5849 2.75,0.9044 l 6.3303,1.2122 -0.5252,2.7432 -6.3303,-1.2122 q -2.3595,-0.4519 -3.9631,-1.2163 -1.6228,-0.7681 -2.5774,-1.806 -0.9583,-1.0188 -1.3534,-2.4865 -0.418,-1.4521 -0.3624,-3.092 0.036,-1.6436 0.455,-3.8305 l 1.5685,-8.191 -3.1843,-0.6098 0.5253,-2.7431 19.3362,3.7027 -0.5253,2.7431 -12.5839,-2.4097 z"
         style=""
         id="path5242" />
      <path
         d="m 2021.2733,1156.652 2.0471,-12.0539 3.8301,-0.8552 -2.2956,13.5174 -3.5816,-0.6083 z"
         style=""
         id="path5244" />
      <path
         d="m 2060.3545,1153.8159 1.7147,-13.2489 3.5834,0.4638 -1.5242,11.7768 -3.7739,1.0083 z m -14.4352,-4.1133 1.4289,-11.0408 3.5834,0.4638 -1.5241,11.7768 q -0.5415,4.1838 0.527,5.8189 1.0466,1.6519 4.6494,2.1182 l 9.0263,1.1681 -0.3585,2.7699 -8.9875,-1.1632 q -5.3654,-0.6944 -7.2215,-3.3963 -1.8754,-2.7045 -1.1234,-8.5154 z"
         style=""
         id="path5246" />
      <path
         d="m 2075.5787,1158.5089 -0.5276,5.5217 -3.733,-0.3566 0.5276,-5.5218 q 0.2191,-2.2942 0.5789,-4.006 0.3403,-1.7137 0.9898,-3.3782 0.6283,-1.647 1.61,-2.8873 0.9818,-1.2404 2.4228,-2.3584 1.4392,-1.0986 3.4235,-1.9489 1.9844,-0.8503 4.5993,-1.5226 l 7.7242,-1.9893 -0.3139,3.2858 -5.8705,1.4797 3.9066,20.7193 -3.7719,-0.3603 -3.557,-19.4499 q -2.6723,0.863 -4.2115,2.1875 -1.5392,1.3245 -2.4649,3.8259 -0.9256,2.5014 -1.3324,6.7594 z"
         style=""
         id="path5248" />
      <path
         d="m 2096.8893,1165.9384 1.5666,-21.8188 3.6235,0.2601 -1.5666,21.8189 -3.6235,-0.2602 z"
         style=""
         id="path5250" />
      <path
         d="m 2120.9739,1145.4636 -8.8278,18.667 13.6746,0.6793 -0.5001,10.0657 -3.6479,-0.1812 0.3615,-7.2762 -14.2978,-0.7299 0.1652,-2.1428 9.2684,-19.2709 3.8039,0.189 z"
         style=""
         id="path5252" />
      <path
         d="m 2132.293,1145.9344 19.2744,0.3352 -0.3803,21.8717 -9.4322,-0.164 q -2.7535,-0.048 -4.6183,-0.6468 -1.8649,-0.599 -2.995,-1.8883 -1.15,-1.2702 -1.6254,-3.1342 -0.4758,-1.8445 -0.429,-4.5394 l 0.2058,-11.8342 z m 15.3104,19.3512 0.2832,-16.2866 -12.0099,-0.2089 -0.1664,9.5689 q -0.067,3.8666 1.1773,5.3142 1.2446,1.4477 4.8573,1.5105 l 5.8585,0.1019 z"
         style=""
         id="path5254" />
    </g>
  </g>
</svg>
