<svg id="Layer_2" data-name="Layer 2" xmlns="http://www.w3.org/2000/svg" viewBox="0 0 2453 2453"><defs><style>.cls-1{fill:#03709c;}</style></defs><title>SS_bottom slogan_FA</title><g id="FA"><path class="cls-1" d="M787.25 547.23l3.69 1.94a10.31 10.31 0 0 1 4.07 3.5l1.71 2.48c1.38 2 1.78 4.89 1.48 8.21-.38 2.39-1.18 3.83-2.3 4.61a16 16 0 0 1-7 2.25l-.28-.94a9.67 9.67 0 0 0 2.78-1.32c3.16-2.21 4.52-7.17 3.71-11.52a3 3 0 0 0-.44-1.16 4.78 4.78 0 0 0-1.14-1 43.31 43.31 0 0 0-6.11-3.09c-.15-1.32-.27-2.6-.34-3.92zM809 536.88a23.64 23.64 0 0 1 3.7 2.54c.76.52 1.77 1.76 3.2.84a3.61 3.61 0 0 0 1.22-1.49 3.39 3.39 0 0 0 .16-2.6l-.87-2.63.87-1.69.17.06a13 13 0 0 0 1.24 2.45 2.88 2.88 0 0 0 4.15 1 1.3 1.3 0 0 0 .54-1.84 18.25 18.25 0 0 0-3.15-3.31 21.26 21.26 0 0 1 .66-3.44h.16a28.39 28.39 0 0 1 3.23 3.94 9.69 9.69 0 0 1 1.17 3.41c.27 1.9-.15 3.83-1.58 4.74a4.73 4.73 0 0 1-4.27.17 5.44 5.44 0 0 1-2.53 4.67l-.6.38a11.68 11.68 0 0 1 1.45 4c.54 3.39-1.68 7.43-4.88 9.48-4.47 2.86-8.65 1.24-11.23-2.79a14.41 14.41 0 0 1-2.37-7.57l1.14-.14a12.76 12.76 0 0 0 1.65 5c2.41 3.78 6.17 3.91 9.19 2 2.79-1.78 4.9-6.09 4-8.9-1.92-2.5-3.57-3.2-6.41-4.8a19.31 19.31 0 0 1-.05-3.44zM833 535.17a36.07 36.07 0 0 0-2.55-4.84l-1.38-2.3c-2.57-4.29-6.78-10.25-9.59-14.08a24.88 24.88 0 0 1 .81-3.86l.25-.06c3.56 4.82 7.23 10.68 10.5 16.15a43.34 43.34 0 0 1 2.15 4c.7 1.33.66 2.7.2 5zM835.34 504.68a24.68 24.68 0 0 1 4.3.92 11.05 11.05 0 0 1-.64 3.4c-1.43-.35-2.79-.58-4.2-.85.2-1.15.32-2.37.54-3.47zm10.84 4a23.09 23.09 0 0 1 8.1 8.29c1.35 2.38 2.15 5.48 1.77 7a13.2 13.2 0 0 1-5.85 8.12c-4.47 2.55-9 1.19-11.4-3a14.53 14.53 0 0 1-1.9-8.08h1.19a12.68 12.68 0 0 0 1.2 5.2 6.06 6.06 0 0 0 3.95 3.23 7.79 7.79 0 0 0 5.4-1 11.89 11.89 0 0 0 4.57-5.35c.58-1.4.77-2.46.51-2.91a16.31 16.31 0 0 0-3.13-3.79 23.25 23.25 0 0 0-4.67-3.54c0-1.32 0-2.65.12-4zM858.2 511.64c1.18 2 2.92 3.21 5.94 1.6a11.69 11.69 0 0 0 4.4-4.36.87.87 0 0 0 .17-.84 8.65 8.65 0 0 0-4.71-3.37 20.81 20.81 0 0 0-6.87-1 1.23 1.23 0 0 1-1.25-.48 8.78 8.78 0 0 1-.24-3.41l.18-.13a26.87 26.87 0 0 1 8.43 1.92 10.41 10.41 0 0 1 5.45 4.43 11 11 0 0 1 1.24 4.76 15.36 15.36 0 0 1-5.51 5.82c-2.75 1.47-5.44 1-7.35-2.62a12.19 12.19 0 0 1-.82-1.83zM874.14 483.92a24.8 24.8 0 0 1 4.24 1.15 11.05 11.05 0 0 1-.84 3.41c-1.41-.43-2.75-.74-4.15-1.08.23-1.2.47-2.4.75-3.48zm10.6 4.58a23.09 23.09 0 0 1 7.62 8.73c1.22 2.45 1.84 5.59 1.38 7.11a13.2 13.2 0 0 1-6.29 7.79c-4.6 2.29-9 .69-11.21-3.67a14.53 14.53 0 0 1-1.45-8.17l1.19.05a12.68 12.68 0 0 0 .91 5.26 6.06 6.06 0 0 0 3.76 3.44 7.79 7.79 0 0 0 5.44-.67 11.89 11.89 0 0 0 4.86-5.08c.66-1.37.91-2.41.68-2.87a16.32 16.32 0 0 0-2.92-4 23.28 23.28 0 0 0-4.46-3.8c.07-1.32.15-2.64.35-4zM914 492.85a36.09 36.09 0 0 0-2-5.12l-1.09-2.45c-2-4.57-5.51-11-7.84-15.13a24.91 24.91 0 0 1 1.26-3.74h.26c3 5.21 5.9 11.47 8.5 17.28a43.22 43.22 0 0 1 1.67 4.2c.54 1.41.33 2.76-.4 5zM929.4 475.93a19.64 19.64 0 0 0-7.6 1.53 4.38 4.38 0 0 0-2.67 2.61l1.39 1.91.13 2.29-.25.19-3.14-3.37c-1-2.88.54-5.56 3.56-6.83 1.69-.71 4.61-1.23 9.19-1.28a12.27 12.27 0 0 0 4.65-1l2.21-1-.44 3.18a45.91 45.91 0 0 0-6 4.49c-4.65 4.39-7.21 9-5.8 12.31 2.2 5.24 9 5.94 16.05 3a44.51 44.51 0 0 0 6.25-3.28l.18.22a33.09 33.09 0 0 1-2.85 4.73 27.87 27.87 0 0 1-4.57 2.46c-6.63 2.79-13.51 1.88-16.45-5.13-2.52-6 .54-12.89 6.2-17zm-8.93-11.79a24.69 24.69 0 0 1 4.16 1.43 11 11 0 0 1-1.05 3.35c-1.37-.52-2.7-.91-4.07-1.35.3-1.19.61-2.36.96-3.43zM957.85 475.46c-7.09 2.65-13.52 2.08-15.88-4.21a13.74 13.74 0 0 1-.81-6.76l1.19.05a13.45 13.45 0 0 0 .71 4.17c1.94 5.17 7.83 5.39 14.25 3a40.91 40.91 0 0 0 8.34-4.38 21.39 21.39 0 0 0 3-2.31.35.35 0 0 0 .15-.38c-.45-1.2-2.62-3.25-4.93-5.37a21.64 21.64 0 0 1 .84-3.61h.13c2 1.63 4.53 4.32 5.48 6.85a8.09 8.09 0 0 1 .24 4.78c-1.72 2.13-7.65 6.27-12.71 8.17zm2.62 4.27a24.8 24.8 0 0 1 4.1 1.59 11.05 11.05 0 0 1-1.19 3.3c-1.35-.57-2.66-1-4-1.51.34-1.17.69-2.32 1.09-3.38zM977.58 467.68a36 36 0 0 0-1.49-5.27l-.87-2.54c-1.62-4.73-4.5-11.43-6.45-15.77a24.9 24.9 0 0 1 1.59-3.61h.26c2.48 5.45 4.85 12 6.91 18a43.19 43.19 0 0 1 1.28 4.33c.41 1.45.08 2.77-.85 4.94zM989.42 448.39l3 2.91a10.31 10.31 0 0 1 2.9 4.52l.93 2.86c.75 2.32.3 5.19-.94 8.29-1 2.18-2.23 3.34-3.53 3.76a16.05 16.05 0 0 1-7.33.16v-1a9.64 9.64 0 0 0 3-.47c3.66-1.21 6.39-5.57 6.86-10a3 3 0 0 0-.08-1.24 4.76 4.76 0 0 0-.81-1.26 43.38 43.38 0 0 0-5-4.71c.24-1.31.49-2.57.79-3.85zM1029.07 440.36a23.69 23.69 0 0 1 2.74 3.55c.56.73 1.15 2.21 2.79 1.78a3.6 3.6 0 0 0 1.62-1 3.38 3.38 0 0 0 .95-2.42v-2.76l1.34-1.34.14.1a13 13 0 0 0 .43 2.71 2.88 2.88 0 0 0 3.64 2.24 1.3 1.3 0 0 0 1.08-1.58 18.25 18.25 0 0 0-2-4.11 21.23 21.23 0 0 1 1.68-3.07h.15a28.35 28.35 0 0 1 1.87 4.74 9.68 9.68 0 0 1 .07 3.6c-.32 1.89-1.32 3.6-3 4a4.73 4.73 0 0 1-4.12-1.15h-.05a5.44 5.44 0 0 1-3.84 3.67l-.69.18a11.68 11.68 0 0 1 .16 4.25c-.52 3.39-3.87 6.56-7.55 7.52-5.13 1.35-8.61-1.47-9.83-6.1a14.41 14.41 0 0 1 .07-7.93l1.13.21a12.76 12.76 0 0 0 0 5.28c1.14 4.34 4.67 5.62 8.13 4.71 3.2-.84 6.53-4.29 6.52-7.25-1.06-3-2.42-4.14-4.63-6.53a19.31 19.31 0 0 1 1-3.29zM1057.63 430l2.71 3.17a10.32 10.32 0 0 1 2.48 4.77l.66 2.93c.54 2.37-.17 5.2-1.69 8.17-1.24 2.07-2.52 3.12-3.85 3.42a16 16 0 0 1-7.32-.5l.09-1a9.66 9.66 0 0 0 3.07-.19c3.75-.88 6.87-5 7.73-9.32a3 3 0 0 0 0-1.24 4.77 4.77 0 0 0-.69-1.33 43.29 43.29 0 0 0-4.53-5.14c.35-1.29.72-2.52 1.14-3.76h.17zM1069 442.43a36.05 36.05 0 0 0-.82-5.41l-.55-2.62c-1-4.9-3-11.91-4.43-16.45a24.88 24.88 0 0 1 2-3.38h.26c1.78 5.72 3.32 12.46 4.62 18.7a43.28 43.28 0 0 1 .73 4.46c.23 1.49-.26 2.76-1.46 4.8zM1090.23 426.9a23.66 23.66 0 0 1 2.45 3.76c.5.77 1 2.3 2.63 2a3.6 3.6 0 0 0 1.7-.91 3.38 3.38 0 0 0 1.14-2.34l.2-2.76 1.45-1.23.13.12a13 13 0 0 0 .21 2.74 2.88 2.88 0 0 0 3.45 2.52 1.3 1.3 0 0 0 1.21-1.49 18.27 18.27 0 0 0-1.65-4.26 21.28 21.28 0 0 1 1.92-2.92l.15.06a28.33 28.33 0 0 1 1.48 4.87 9.68 9.68 0 0 1-.22 3.59c-.47 1.86-1.6 3.48-3.27 3.78a4.73 4.73 0 0 1-4-1.48h-.05a5.44 5.44 0 0 1-4.13 3.34l-.7.13a11.68 11.68 0 0 1-.19 4.25c-.79 3.33-4.39 6.22-8.13 6.89-5.22.93-8.47-2.16-9.3-6.87a14.41 14.41 0 0 1 .7-7.9l1.11.3a12.76 12.76 0 0 0-.4 5.26c.79 4.41 4.2 6 7.73 5.34 3.26-.58 6.86-3.75 7.08-6.7-.82-3-2.07-4.32-4.09-6.88a19.31 19.31 0 0 1 1.26-3.2zM1119.55 418.86l2.44 3.38a10.31 10.31 0 0 1 2.08 5l.42 3c.34 2.41-.59 5.17-2.34 8-1.41 2-2.76 2.91-4.12 3.1a16 16 0 0 1-7.25-1.1l.17-1a9.66 9.66 0 0 0 3.07.06c3.81-.57 7.25-4.4 8.46-8.66a3 3 0 0 0 .13-1.23 4.74 4.74 0 0 0-.61-1.41 43.23 43.23 0 0 0-4.09-5.49c.46-1.25.92-2.45 1.44-3.66h.17zM1166.24 417.42a44.05 44.05 0 0 0-8.88-7 3 3 0 0 1-1.2-2.42 3.69 3.69 0 0 1 .47-1.8 4.22 4.22 0 0 1 1.9-1.84 120.69 120.69 0 0 1 14.17-6.74l.21.2c-.5 1.17-1.11 2.35-1.75 3.53-1.36.48-2.84 1.07-4.27 1.72-2.8 1.26-5.66 2.72-8.65 4.36v.08l4.59 1.33-.53 1.42c4.49 3 7.7 6.13 8 9.7v.41c-.12 2.37-.66 4-1.49 4.88-2.32 2-7.17 3.4-12.26 3.85-6.89.61-11.29-1.64-11.83-7.8a12.46 12.46 0 0 1 .53-4.93l1.12.26a10 10 0 0 0-.16 2.9c.38 4.36 4.08 6.48 10.62 5.9 3.95-.35 9.31-1.48 11.62-3.9a5.59 5.59 0 0 0-.67-2 14.13 14.13 0 0 0-1.54-2.11zM1198.69 415.59c-.63-2.3-1.48-3.35-2.24-3.31a8.06 8.06 0 0 0-4.25 2.15c-1.47 1.28-2.55 2.67-2.51 3.65.12 2.43 7.2 1.79 9.19 3.25a3.81 3.81 0 0 1 1.35 3 8.39 8.39 0 0 1-2 5.16 16.74 16.74 0 0 1-10.32 5c-6.36.31-9.66-3.83-9.94-9.56a16.66 16.66 0 0 1 1.12-6.82l1.08.3a15.25 15.25 0 0 0-.61 4.82c.25 5.16 3.91 7.78 8.42 7.56a16.09 16.09 0 0 0 7.26-2.62c1.7-1.12 3.27-2.49 3.25-2.9 0-.82-2.06-1.35-4.35-1.57s-4.33-.67-5.08-1.42a3.51 3.51 0 0 1-1.13-2.41 10 10 0 0 1 2.69-7.17c1.82-2.06 4.7-4.12 6.59-4.21a2.13 2.13 0 0 1 2.06 1.35 6.25 6.25 0 0 1 .78 2.54 10.47 10.47 0 0 1-1 3.09zM1209.83 407.77l.38-.14c1.73 1.55 6.93 4.6 7.92 7.67a9.66 9.66 0 0 1 .47 3.05 9.37 9.37 0 0 1-1.38 5.11 7.53 7.53 0 0 1-5.61 2.63 5.84 5.84 0 0 1-3.3-.76c-1.94-1.19-2.88-3.36-2.93-6a11.33 11.33 0 0 1 1.57-5.28 17 17 0 0 1 2.64-3.53 18.59 18.59 0 0 1 .24-2.75zm-2.77 11.08c0 2 2.29 3.65 4.64 3.6a7.14 7.14 0 0 0 4.24-1.56 2.31 2.31 0 0 0 1.17-1.83 5.67 5.67 0 0 0-1.53-3 16 16 0 0 0-4.47-3.47c-2.54 2.15-4.11 4.21-4.05 6.26zM1223.91 426.09a36.1 36.1 0 0 0 .21-5.47v-2.68c-.08-5-.75-12.27-1.26-17a24.93 24.93 0 0 1 2.63-2.94l.25.08c.67 6 .92 12.87 1 19.24a43.27 43.27 0 0 1-.12 4.52c-.06 1.5-.78 2.67-2.33 4.44zM1248.62 410a23.08 23.08 0 0 1 2.73 11.26c0 2.73-1 5.81-2.07 6.94a13.2 13.2 0 0 1-9.18 4c-5.14-.09-8.33-3.57-8.25-8.44a14.52 14.52 0 0 1 2.49-7.92l1 .59a12.68 12.68 0 0 0-1.62 5.09 6.06 6.06 0 0 0 1.75 4.79 7.79 7.79 0 0 0 5.14 1.92 11.89 11.89 0 0 0 6.66-2.26c1.22-.91 1.92-1.72 1.93-2.24a16.32 16.32 0 0 0-.76-4.85 23.25 23.25 0 0 0-2.2-5.43c.68-1.14 1.35-2.27 2.17-3.41zm-7.28-9a24.73 24.73 0 0 1 3.23 3 11.06 11.06 0 0 1-2.32 2.64c-1-1-2.1-1.92-3.18-2.87.76-.93 1.52-1.88 2.27-2.71zM1285.43 428.88c-7.55-.58-13.15-3.81-12.63-10.51a13.74 13.74 0 0 1 2.11-6.48l1.06.55a13.46 13.46 0 0 0-1.11 4.08c-.42 5.51 4.83 8.19 11.67 8.71a40.93 40.93 0 0 0 9.42-.46 21.37 21.37 0 0 0 3.69-.84.35.35 0 0 0 .3-.28c.1-1.28-1-4.05-2.21-6.94a21.61 21.61 0 0 1 2.28-2.92h.14c1.09 2.3 2.3 5.83 2.09 8.53a8.09 8.09 0 0 1-1.79 4.44c-2.51 1.24-9.62 2.53-15.02 2.12zm.58 5a24.71 24.71 0 0 1 3 3.17 11.06 11.06 0 0 1-2.47 2.5c-1-1.09-2-2-3-3.06.85-.95 1.66-1.85 2.46-2.63zM1312.92 412.21l.4-.09c1.51 1.76 6.27 5.45 6.86 8.63a9.67 9.67 0 0 1 .07 3.09 9.37 9.37 0 0 1-2 4.89 7.53 7.53 0 0 1-5.9 1.88 5.83 5.83 0 0 1-3.17-1.18c-1.77-1.43-2.42-3.71-2.13-6.34a11.33 11.33 0 0 1 2.23-5 17 17 0 0 1 3.07-3.15 18.58 18.58 0 0 1 .57-2.73zm-4.17 10.62c-.22 2 1.8 3.91 4.13 4.17a7.13 7.13 0 0 0 4.4-1 2.31 2.31 0 0 0 1.39-1.66 5.67 5.67 0 0 0-1.14-3.12 16 16 0 0 0-4-4c-2.76 1.78-4.53 3.57-4.79 5.61zM1363.24 426.93a44.07 44.07 0 0 0-6.85-9 3 3 0 0 1-.56-2.64 3.69 3.69 0 0 1 .91-1.62 4.22 4.22 0 0 1 2.3-1.31 120.73 120.73 0 0 1 15.41-3l.15.25c-.78 1-1.66 2-2.58 3-1.43.12-3 .33-4.56.6-3 .52-6.16 1.22-9.46 2.06v.08l4.11 2.43-.87 1.24c3.59 4.06 5.93 7.86 5.34 11.4l-.09.4c-.71 2.27-1.64 3.72-2.66 4.35-2.76 1.4-7.79 1.5-12.84.67-6.83-1.13-10.52-4.41-9.51-10.51a12.46 12.46 0 0 1 1.74-4.65l1 .53a10 10 0 0 0-.88 2.77c-.72 4.32 2.34 7.29 8.81 8.37 3.91.65 9.39.9 12.23-.88a5.59 5.59 0 0 0-.14-2.13 14.1 14.1 0 0 0-1-2.41zM1381.73 438.25c-3.14-.63-5.55-2.65-4.83-6.22a7.5 7.5 0 0 1 2.64-4.27c1.5-1.09 3-1.71 4.28-1.45 1.55.31 2.78 1.7 3.44 3.85a15.74 15.74 0 0 1 .23 7.72 12.93 12.93 0 0 1-3.46 6.64c-3.12 3.14-5.69 4.15-7.92 3.71A13.82 13.82 0 0 1 1369 444l.58-.78a8.52 8.52 0 0 0 3.73 1.7c2.71.55 5.69-.28 8.71-2.51a9 9 0 0 0 3.42-4 13.59 13.59 0 0 1-3.71-.16zm.53-8.74c-1.26-.25-3.28.79-3.48 1.78-.33 1.66 1.79 3.32 4 3.76a12.92 12.92 0 0 0 3.1.26c-.2-2.85-1.31-5.31-3.62-5.8zM1393.8 436.11c-.44 2.31.11 4.34 3.44 5.1a11.69 11.69 0 0 0 6.18-.42.87.87 0 0 0 .68-.52 8.65 8.65 0 0 0-1.36-5.64 20.8 20.8 0 0 0-4.53-5.26 1.24 1.24 0 0 1-.63-1.18 8.79 8.79 0 0 1 2.05-2.73h.22a26.88 26.88 0 0 1 5.12 7 10.41 10.41 0 0 1 1.2 6.92 11 11 0 0 1-2.18 4.41 15.36 15.36 0 0 1-8 .8c-3-.69-4.74-2.84-3.84-6.79a12.21 12.21 0 0 1 .58-1.92zM1432.86 442.57a44.08 44.08 0 0 0-6-9.58 3 3 0 0 1-.31-2.68 3.69 3.69 0 0 1 1.05-1.53 4.22 4.22 0 0 1 2.41-1.09 120.67 120.67 0 0 1 15.62-1.55l.13.26c-.87.93-1.84 1.83-2.84 2.73-1.44 0-3 0-4.6.18-3.06.24-6.25.65-9.61 1.17v.08l3.87 2.8-1 1.16c3.2 4.38 5.18 8.37 4.26 11.84l-.13.39c-.92 2.19-2 3.55-3.05 4.09-2.87 1.14-7.9.78-12.84-.52-6.69-1.76-10.07-5.36-8.5-11.34a12.45 12.45 0 0 1 2.16-4.46l1 .62a10 10 0 0 0-1.13 2.67c-1.11 4.23 1.65 7.47 8 9.14 3.83 1 9.26 1.76 12.26.26a5.59 5.59 0 0 0 .05-2.13 14.09 14.09 0 0 0-.8-2.51zM1441.23 456.36a36 36 0 0 0 1.82-5.16l.75-2.57c1.4-4.8 2.92-11.94 3.83-16.6a24.87 24.87 0 0 1 3.39-2l.21.15c-1.12 5.88-2.93 12.56-4.72 18.68a43.28 43.28 0 0 1-1.45 4.28c-.5 1.42-1.53 2.32-3.55 3.55zM1469.65 448a23.08 23.08 0 0 1-.59 11.57c-.82 2.61-2.56 5.3-4 6.06a13.2 13.2 0 0 1-9.94 1.22c-4.9-1.55-7-5.79-5.51-10.43a14.52 14.52 0 0 1 4.64-6.88l.82.86a12.68 12.68 0 0 0-3 4.42 6.06 6.06 0 0 0 .31 5.09 7.8 7.8 0 0 0 4.38 3.3 11.89 11.89 0 0 0 7-.28c1.43-.52 2.33-1.1 2.48-1.6a16.32 16.32 0 0 0 .65-4.87 23.26 23.26 0 0 0-.57-5.83c1-.9 1.94-1.79 3-2.65h.2zm-4.43-10.66a24.71 24.71 0 0 1 2.25 3.78 11.06 11.06 0 0 1-3 1.87c-.71-1.29-1.47-2.44-2.23-3.66 1.03-.69 2.02-1.38 2.98-1.97zM1505.71 466.23a23.69 23.69 0 0 1 .15 4.48c0 .92-.36 2.47 1.22 3.08a3.61 3.61 0 0 0 1.93.09 3.39 3.39 0 0 0 2.18-1.42l1.6-2.26 1.87-.31.05.17a13 13 0 0 0-1.24 2.45 2.88 2.88 0 0 0 1.65 3.94 1.31 1.31 0 0 0 1.8-.66 18.28 18.28 0 0 0 .79-4.5 21.3 21.3 0 0 1 3.16-1.51l.1.13a28.36 28.36 0 0 1-1.25 4.94 9.7 9.7 0 0 1-2 3c-1.37 1.35-3.17 2.15-4.75 1.54a4.73 4.73 0 0 1-2.67-3.34h-.05a5.44 5.44 0 0 1-5.26.73l-.66-.25a11.68 11.68 0 0 1-2.36 3.55c-2.4 2.45-7 3.06-10.52 1.7-5-1.9-6.14-6.22-4.42-10.69a14.42 14.42 0 0 1 4.68-6.4l.79.83a12.76 12.76 0 0 0-3.06 4.3c-1.61 4.19.51 7.28 3.86 8.57 3.09 1.19 7.81.33 9.53-2.08.87-3 .46-4.77.05-8a19.39 19.39 0 0 1 2.73-2.08zM1535 474.49l.34 4.16a10.31 10.31 0 0 1-.77 5.31l-1.18 2.77c-1 2.24-3.17 4.12-6.14 5.65-2.22 1-3.87 1.06-5.12.53a16 16 0 0 1-5.64-4.68l.64-.74a9.68 9.68 0 0 0 2.6 1.64c3.56 1.48 8.47 0 11.72-3a3 3 0 0 0 .75-1 4.75 4.75 0 0 0 .21-1.48 43.24 43.24 0 0 0-.67-6.82c1-.84 2.05-1.62 3.12-2.39zM1536.95 491.26a36.11 36.11 0 0 0 2.5-4.87l1.09-2.45c2-4.57 4.49-11.44 6-15.94a25 25 0 0 1 3.63-1.56l.19.17c-1.9 5.68-4.58 12.05-7.17 17.87a43.29 43.29 0 0 1-2 4c-.69 1.34-1.83 2.09-4 3zM1563.21 491a23.68 23.68 0 0 1-.21 4.48c0 .92-.56 2.43 1 3.16a3.6 3.6 0 0 0 1.91.25 3.39 3.39 0 0 0 2.29-1.23l1.78-2.12 1.89-.15v.17a13 13 0 0 0-1.43 2.35 2.88 2.88 0 0 0 1.32 4.06 1.3 1.3 0 0 0 1.85-.51 18.26 18.26 0 0 0 1.15-4.42 21.19 21.19 0 0 1 3.27-1.25l.09.13a28.35 28.35 0 0 1-1.65 4.82 9.67 9.67 0 0 1-2.28 2.79c-1.47 1.23-3.33 1.89-4.86 1.15a4.72 4.72 0 0 1-2.39-3.54 5.45 5.45 0 0 1-5.3.3l-.64-.31a11.69 11.69 0 0 1-2.64 3.34c-2.59 2.24-7.2 2.49-10.63.84-4.78-2.3-5.61-6.7-3.54-11a14.41 14.41 0 0 1 5.19-6l.72.89a12.77 12.77 0 0 0-3.4 4c-1.94 4-.08 7.3 3.15 8.85 3 1.43 7.76 1 9.66-1.3 1.12-3 .84-4.72.71-8a19.28 19.28 0 0 1 2.89-1.85zM1591.71 501.63v4.17a10.32 10.32 0 0 1-1.2 5.24l-1.4 2.66c-1.13 2.16-3.5 3.85-6.58 5.13-2.29.78-3.94.74-5.15.11a16 16 0 0 1-5.25-5.13l.7-.68a9.65 9.65 0 0 0 2.46 1.84c3.43 1.77 8.45.66 11.93-2.08a3 3 0 0 0 .78-.89 4.75 4.75 0 0 0 .33-1.46 43.23 43.23 0 0 0-.11-6.85c1.1-.75 2.18-1.45 3.31-2.13zM1611.09 519.89c-1.11 2.07-1.2 4.18 1.76 5.89a11.69 11.69 0 0 0 6 1.45.87.87 0 0 0 .8-.29 8.65 8.65 0 0 0 .39-5.78 20.79 20.79 0 0 0-2.75-6.37 1.24 1.24 0 0 1-.25-1.31 8.79 8.79 0 0 1 2.77-2l.2.09a26.86 26.86 0 0 1 2.8 8.18 10.41 10.41 0 0 1-.92 7 11 11 0 0 1-3.4 3.56 15.37 15.37 0 0 1-7.85-1.62c-2.69-1.57-3.67-4.13-1.64-7.63a12.21 12.21 0 0 1 1.12-1.66zM1644.71 530.31a23.08 23.08 0 0 1-3.42 11.07c-1.44 2.32-3.79 4.5-5.32 4.9A13.2 13.2 0 0 1 1626 545c-4.37-2.71-5.33-7.33-2.77-11.46a14.52 14.52 0 0 1 6.19-5.52l.58 1a12.69 12.69 0 0 0-4 3.54 6.06 6.06 0 0 0-.95 5 7.79 7.79 0 0 0 3.43 4.28 11.89 11.89 0 0 0 6.88 1.46c1.51-.16 2.53-.49 2.8-.94a16.32 16.32 0 0 0 1.83-4.56 23.24 23.24 0 0 0 .89-5.79c1.16-.63 2.33-1.26 3.6-1.82zm-1.71-11.42a24.75 24.75 0 0 1 1.25 4.22 11.07 11.07 0 0 1-3.34 1.08c-.37-1.42-.82-2.73-1.26-4.09 1.18-.45 2.35-.88 3.35-1.21zM1666 550.71c.86-2.22.8-3.57.17-4a8.06 8.06 0 0 0-4.69-.8c-1.94.15-3.64.63-4.19 1.45-1.35 2 4.73 5.72 5.46 8.08a3.81 3.81 0 0 1-.7 3.21 8.39 8.39 0 0 1-4.67 3 16.75 16.75 0 0 1-11.3-2.08c-5.3-3.53-5.49-8.82-2.31-13.6a16.65 16.65 0 0 1 5-4.82l.69.89a15.27 15.27 0 0 0-3.36 3.51c-2.87 4.3-1.48 8.58 2.28 11.08a16.08 16.08 0 0 0 7.4 2.21c2 .11 4.11-.05 4.34-.39.46-.68-.86-2.31-2.56-3.84s-3.09-3.11-3.24-4.16a3.5 3.5 0 0 1 .52-2.61 10 10 0 0 1 6.42-4.16c2.68-.58 6.23-.52 7.8.53a2.13 2.13 0 0 1 .86 2.31 6.26 6.26 0 0 1-.88 2.5 10.46 10.46 0 0 1-2.62 1.9zM1665.35 563.63a36 36 0 0 0 3.39-4.3l1.54-2.19c2.87-4.1 6.6-10.36 9-14.49a25 25 0 0 1 3.86-.83l.15.21c-3 5.21-6.81 11-10.47 16.17a43.27 43.27 0 0 1-2.75 3.58c-.93 1.18-2.19 1.7-4.5 2.22z"/></g></svg>