<svg xmlns="http://www.w3.org/2000/svg" viewBox="0 0 2453 2453"><title>SS_bottom slogan_FR</title><path fill="#03709C" d="M665 655.1l4.5 9.8c.1.2.1.4.1.6 0 .4-.2.8-.5 1.1-.3.3-.7.5-1.1.5-.4 0-.8-.1-1.1-.4-.2-.2-.3-.4-.4-.6L654 638.7c-.1-.2-.2-.5-.2-.7 0-.4.1-.8.4-1.1.3-.3.7-.5 1.1-.5.3 0 .5.1.7.2l27.7 11.7c.2.1.4.2.6.4.3.3.5.7.5 1.1 0 .4-.1.8-.4 1.1-.3.3-.7.5-1.1.5-.2 0-.4 0-.6-.1l-9.9-4.2-7.8 8zm4.8-9.4l-11.2-4.8 5.1 11.1 6.1-6.3zM695.2 651.2c.3.3.4.7.4 1.1 0 .4-.2.8-.5 1.1-.3.3-.7.4-1.1.4-.4 0-.8-.2-1.1-.5l-13-13.5c-2.1-2.2-3.1-4.8-3.1-7.8.1-3 1.2-5.6 3.3-7.7s4.8-3.1 7.8-3.1c3 .1 5.6 1.2 7.7 3.3 2.1 2.2 3.1 4.8 3.1 7.8s-1.2 5.6-3.3 7.7c-2.2 2.1-4.8 3.1-7.8 3.1h-.1l7.7 8.1zm-13-13.5c1.5 1.6 3.3 2.4 5.5 2.4s4-.7 5.6-2.2c1.6-1.5 2.4-3.3 2.4-5.5s-.7-4-2.2-5.6c-1.5-1.6-3.3-2.4-5.5-2.4s-4 .7-5.6 2.2-2.4 3.3-2.4 5.5c-.1 2.2.7 4.1 2.2 5.6zM712.9 634.3c.3.3.4.7.4 1.1 0 .4-.2.8-.5 1.1-.3.3-.7.4-1.1.4-.4 0-.8-.2-1.1-.5L698 622.5c-2-2.2-3-4.9-2.8-7.9.2-3 1.3-5.5 3.6-7.6 2.2-2 4.9-3 7.9-2.8 3 .2 5.5 1.3 7.6 3.6s3 4.9 2.8 7.9c-.2 3-1.3 5.5-3.6 7.6-2.2 2-4.9 3-7.9 2.8h-.1l7.4 8.2zm-12.5-13.9c1.4 1.6 3.2 2.5 5.4 2.6 2.2.1 4-.6 5.6-2 1.6-1.4 2.5-3.2 2.6-5.4.1-2.2-.6-4-2-5.6-1.4-1.6-3.2-2.5-5.4-2.6-2.2-.1-4 .6-5.6 2-1.6 1.4-2.5 3.3-2.6 5.4-.2 2.1.5 4 2 5.6zM733.4 591.6c2 2.3 2.8 5 2.6 8-.2 3-1.5 5.5-3.8 7.4-2.3 2-5 2.8-8 2.6-3-.2-5.5-1.5-7.4-3.8-2-2.3-2.8-5-2.6-8 .2-3 1.5-5.5 3.8-7.4 2.3-2 5-2.8 8-2.6 3 .2 5.5 1.4 7.4 3.8zm-13.4 1.1c-1.6 1.4-2.6 3.2-2.7 5.3-.2 2.1.4 4 1.8 5.7 1.4 1.6 3.2 2.6 5.3 2.7s4-.4 5.7-1.8c1.6-1.4 2.6-3.2 2.7-5.3.2-2.1-.4-4-1.8-5.7-1.4-1.6-3.2-2.6-5.3-2.7-2.1-.2-4 .4-5.7 1.8zM730.1 582.2c-.3-.3-.4-.7-.3-1.1 0-.4.2-.8.6-1 .3-.3.7-.4 1.1-.3.4 0 .8.2 1 .6l1.1 1.3c.3-3.1 1.7-5.6 4.1-7.4 1.2-1 2.4-1.6 3.8-2 .2-.1.5-.1.8-.1.4.1.8.3 1 .6.3.3.4.7.3 1.1 0 .4-.2.8-.6 1-.2.2-.4.3-.6.3-1 .3-1.9.8-2.7 1.4-1.7 1.4-2.7 3.1-2.9 5.2-.2 2.1.3 4.1 1.7 5.7l5.9 7.3c.3.3.4.7.3 1.1s-.2.8-.6 1c-.3.3-.7.4-1.1.3s-.8-.2-1-.6l-11.9-14.4zM764 577.4c.3-.3.7-.4 1.2-.3.4.1.8.3 1 .6.3.3.4.7.3 1.2-.1.4-.3.8-.6 1-4.1 3.2-7.8 2.7-10.9-1.4l-6.7-8.6-1.2 1c-.3.3-.7.4-1.2.3-.4-.1-.8-.3-1-.6-.3-.3-.4-.7-.3-1.2.1-.4.3-.8.6-1l1.2-1-4.8-6.2c-.3-.3-.4-.7-.3-1.2.1-.4.3-.8.6-1s.7-.4 1.2-.3c.4.1.8.3 1 .6l4.8 6.2 2.5-1.9c.3-.3.7-.4 1.2-.3.4.1.8.3 1 .6.3.3.4.7.3 1.2-.1.4-.3.8-.6 1l-2.5 1.9 6.7 8.6c1.9 2.4 4.1 2.7 6.5.8zM779.3 563.5c.3-.3.7-.3 1.2-.3.4.1.8.3 1 .6.3.3.4.7.3 1.2-.6 2.6-2 4.7-4.2 6.3-2.4 1.8-5.2 2.4-8.2 2-3-.5-5.4-1.9-7.2-4.4-1.8-2.4-2.4-5.2-2-8.2.5-3 1.9-5.4 4.4-7.2s5.2-2.4 8.2-2c3 .5 5.4 1.9 7.2 4.4.3.3.3.7.3 1.2-.1.4-.3.8-.6 1l-13.8 10.1c1.1 1 2.5 1.7 4.1 1.9 2.1.3 4.1-.1 5.8-1.4 1.6-1.2 2.6-2.6 3-4.5 0-.2.2-.5.5-.7zm-2.9-6.8c-1.1-1-2.5-1.7-4.1-1.9-2.1-.3-4.1.1-5.8 1.4s-2.8 3-3.1 5.1c-.3 1.6-.1 3.1.6 4.5l12.4-9.1zM777.3 546.5c-.2-.4-.3-.7-.2-1.2s.3-.8.7-1c.4-.2.7-.3 1.2-.2.4.1.8.3 1 .7l1 1.4c.6-3 2.1-5.4 4.6-7.1 1.3-.9 2.6-1.4 3.9-1.7.2-.1.5-.1.8 0 .4.1.8.3 1 .7.2.4.3.7.2 1.2s-.3.8-.7 1c-.2.1-.4.2-.7.3-1 .2-1.9.6-2.8 1.2-1.8 1.2-2.9 2.9-3.3 5s0 4.1 1.2 5.9l5.3 7.7c.2.4.3.7.2 1.2-.1.4-.3.8-.7 1-.4.2-.7.3-1.2.2-.4-.1-.8-.3-1-.7l-10.5-15.6zM814 511.3c-.2-.4-.3-.8-.2-1.2.1-.4.3-.7.7-1 .4-.2.8-.3 1.2-.2s.7.3 1 .7l10 16c1.6 2.6 2.1 5.3 1.4 8.3-.7 2.9-2.3 5.2-4.9 6.8-2.6 1.6-5.3 2.1-8.3 1.4-2.9-.7-5.2-2.3-6.8-4.9-1.6-2.6-2.1-5.3-1.4-8.3.7-2.9 2.3-5.2 4.9-6.8 2.6-1.6 5.3-2.1 8.3-1.4h.1l-6-9.4zm9.9 15.9c-1.1-1.8-2.8-3-4.9-3.5-2.1-.5-4.1-.2-5.9 1-1.8 1.1-3 2.8-3.5 4.9-.5 2.1-.2 4.1 1 5.9 1.1 1.8 2.8 3 4.9 3.5 2.1.5 4.1.2 5.9-1 1.8-1.1 3-2.8 3.5-4.9.5-2 .2-4-1-5.9zM846.9 520.4c.4-.2.8-.3 1.2-.2.4.1.7.4.9.7s.3.8.2 1.2c-.9 2.5-2.5 4.5-4.9 5.8-2.6 1.5-5.4 1.9-8.3 1.1-2.9-.8-5.1-2.5-6.6-5.1-1.5-2.6-1.9-5.4-1.1-8.3s2.5-5.1 5.1-6.6c2.6-1.5 5.4-1.9 8.3-1.1 2.9.8 5.1 2.5 6.6 5.1.2.4.3.8.2 1.2-.1.4-.4.7-.7.9l-14.8 8.5c1 1.2 2.3 1.9 3.8 2.4 2.1.6 4.1.3 5.9-.8 1.7-1 2.8-2.4 3.4-4.1.2-.3.5-.6.8-.7zm-2.2-7.1c-1-1.2-2.3-1.9-3.8-2.4-2.1-.6-4.1-.3-5.9.8-1.9 1.1-3.1 2.7-3.6 4.7-.4 1.6-.4 3.1.1 4.5l13.2-7.6zM854.6 509.6c-1.3.2-2.2.2-2.8 0-1.2-.4-2.2-1.1-2.8-2.2-.6-1.1-.7-2.4-.3-3.7.7-2.6 2.4-4.6 5.1-6 2.9-1.6 6-1.7 9.3-.5.3.1.5.3.7.7.2.4.2.8.1 1.2-.1.4-.4.7-.8.9-.4.2-.7.2-1.1.1-.4-.1-.6-.2-.8-.2-2.1-.6-4-.4-6 .6-1.9 1-3.1 2.4-3.6 4.2-.1.5 0 1 .2 1.4.3.5.8.7 1.4.6l10-1.8c1.3-.2 2.2-.2 2.8 0 1.2.4 2.2 1.1 2.8 2.2s.7 2.4.3 3.7c-.7 2.6-2.4 4.6-5.1 6-2.9 1.6-6 1.7-9.3.5-.3-.1-.5-.4-.7-.7-.2-.4-.2-.8-.1-1.2.1-.4.4-.7.8-.9.4-.2.7-.2 1.1-.1s.6.2.8.2c2.1.6 4 .4 6-.6 1.9-1 3.1-2.4 3.6-4.2.1-.5 0-1-.2-1.4-.3-.5-.8-.7-1.4-.6l-10 1.8zM875.9 487.8c-.2-.4-.2-.8-.1-1.2.1-.4.4-.7.8-.9.4-.2.8-.2 1.2-.1.4.1.7.4.9.8l.6 1.1c.9-2.5 2.6-4.4 5.1-5.6 2.5-1.2 5.1-1.4 7.8-.4 2.7.9 4.6 2.6 5.8 5.2l4.4 9.1c.2.4.2.8.1 1.2-.1.4-.4.7-.8.9s-.8.2-1.2.1c-.4-.1-.7-.4-.9-.8l-4.4-9.1c-.8-1.7-2.2-2.9-4-3.6-1.8-.6-3.6-.5-5.4.3s-2.9 2.2-3.6 4c-.6 1.8-.5 3.6.3 5.4l4.4 9.1c.2.4.2.8.1 1.2-.1.4-.4.7-.8.9-.4.2-.8.2-1.2.1-.4-.1-.7-.4-.9-.8l-8.2-16.9zM921.2 477.2c1.2 2.8 1.3 5.5.2 8.4-1.1 2.8-3 4.8-5.8 6.1-2.8 1.2-5.5 1.3-8.4.2-2.8-1.1-4.8-3-6.1-5.8-1.2-2.8-1.3-5.5-.2-8.4s3-4.8 5.8-6.1c2.8-1.2 5.5-1.3 8.4-.2 2.8 1.1 4.9 3 6.1 5.8zm-13.2-2.7c-2 .9-3.3 2.3-4.1 4.3-.8 2-.7 4 .2 6 .9 2 2.3 3.3 4.3 4.1 2 .8 4 .7 6-.2 2-.9 3.3-2.3 4.1-4.3.8-2 .7-4-.2-6-.9-2-2.3-3.3-4.3-4.1-2-.8-4-.7-6 .2zM946.5 476.9c.2.4.2.8 0 1.2-.2.4-.5.7-.8.8-.4.2-.8.2-1.2 0-.4-.2-.7-.4-.8-.8l-.5-1.2c-1.1 2.5-2.9 4.2-5.4 5.3-2.6 1.1-5.2 1-7.8 0-2.6-1.1-4.4-2.9-5.5-5.5l-3.8-9.4c-.2-.4-.2-.8 0-1.2.2-.4.5-.7.8-.8.4-.2.8-.2 1.2 0 .4.2.7.4.8.8l3.8 9.4c.7 1.8 2 3.1 3.8 3.8 1.8.8 3.6.8 5.4 0 1.8-.7 3.1-2 3.8-3.8.8-1.8.8-3.6 0-5.4l-3.8-9.4c-.2-.4-.2-.8 0-1.2.2-.4.5-.7.8-.8s.8-.2 1.2 0c.4.2.7.4.8.8l7.2 17.4zM960.3 472.9c-.2.4-.5.6-.9.8-.4.2-.8.1-1.2 0-.1 0-.2-.1-.4-.3L943 458.7c-.1-.1-.2-.3-.3-.5-.2-.4-.1-.8 0-1.2.2-.4.5-.7.9-.8.4-.2.8-.1 1.2 0 .1.1.3.2.4.3l12.3 12.2 1.3-17.3c0-.2.1-.4.1-.5.2-.4.5-.7.9-.8.4-.2.8-.1 1.2 0 .4.2.7.5.8.9.1.2.1.4.1.6l-1.5 20.8c0 .3-.1.4-.1.5zM986 458.7c.4-.1.8-.1 1.2.1.4.2.7.5.8.9s.1.8-.1 1.2c-1.4 2.3-3.3 3.9-5.9 4.8-2.9 1-5.7.8-8.4-.6-2.7-1.3-4.6-3.5-5.5-6.3-1-2.9-.8-5.7.6-8.4 1.3-2.7 3.5-4.6 6.3-5.5 2.9-1 5.7-.8 8.4.6 2.7 1.3 4.6 3.5 5.5 6.3.1.4.1.8-.1 1.2-.2.4-.5.7-.9.8l-16.2 5.5c.8 1.3 1.9 2.4 3.3 3.1 1.9 1 3.9 1.1 6 .4 1.9-.6 3.3-1.7 4.2-3.4.2-.3.4-.6.8-.7zm-.7-7.3c-.8-1.3-1.9-2.4-3.3-3.1-1.9-1-3.9-1.1-6-.4-2.1.7-3.6 2-4.5 3.9-.7 1.5-1 2.9-.8 4.5l14.6-4.9zM986.3 433c-.1-.4-.1-.8.1-1.2.2-.4.5-.6.9-.8.4-.1.8-.1 1.2.1.4.2.6.5.8.9l7.9 25.4 1.5-.5c.4-.1.8-.1 1.2.1.4.2.6.5.8.9.1.4.1.8-.1 1.2-.2.4-.5.6-.9.8l-3 .9c-.4.1-.8.1-1.2-.1-.4-.2-.6-.5-.8-.9l-8.4-26.8zM995.5 430.2c-.1-.4-.1-.8.1-1.2.2-.4.5-.6.9-.8.4-.1.8-.1 1.2.1.4.2.6.5.8.9l7.6 25.4 1.5-.4c.4-.1.8-.1 1.2.1.4.2.6.5.8.9.1.4.1.8-.1 1.2-.2.4-.5.6-.9.8l-3 .9c-.4.1-.8.1-1.2-.1-.4-.2-.6-.5-.8-.9l-8.1-26.9zM1027.8 446.3c.4-.1.8-.1 1.2.1.4.2.6.5.7.9.1.4.1.8-.1 1.2-1.5 2.2-3.5 3.7-6.2 4.4-2.9.8-5.7.5-8.3-1-2.6-1.5-4.3-3.7-5.1-6.6-.8-2.9-.5-5.7 1-8.3 1.5-2.6 3.7-4.3 6.6-5.1 2.9-.8 5.7-.5 8.3 1 2.6 1.5 4.3 3.7 5.1 6.6.1.4.1.8-.1 1.2s-.5.6-.9.7l-16.4 4.5c.7 1.4 1.7 2.5 3.1 3.3 1.9 1.1 3.9 1.3 5.9.7 1.9-.5 3.3-1.6 4.4-3.1.1-.2.4-.4.8-.5zm-.3-7.4c-.7-1.4-1.7-2.5-3.1-3.3-1.9-1.1-3.9-1.3-5.9-.7s-3.7 1.8-4.7 3.7c-.8 1.4-1.1 2.9-1 4.4l14.7-4.1zM1037.9 437.9c-1.3-.1-2.2-.4-2.7-.8-1.1-.7-1.8-1.6-2.1-2.9-.3-1.3-.1-2.5.6-3.6 1.4-2.3 3.5-3.8 6.5-4.5 3.2-.8 6.2-.2 9.1 1.8.3.2.4.5.5.8.1.4 0 .8-.2 1.2-.2.4-.5.6-1 .7-.4.1-.8.1-1.1-.2-.3-.2-.5-.3-.7-.4-1.8-1.1-3.8-1.4-5.9-.9-2.1.5-3.6 1.6-4.5 3.2-.2.4-.3.9-.1 1.4.2.6.6.9 1.2 1l10.1.8c1.3.2 2.2.4 2.7.8 1.1.7 1.8 1.6 2.1 2.9.3 1.3.1 2.5-.6 3.6-1.4 2.3-3.5 3.8-6.5 4.5-3.2.8-6.2.2-9.1-1.8-.3-.2-.4-.5-.5-.8-.1-.4 0-.8.2-1.2.2-.4.5-.6 1-.7.4-.1.8-.1 1.1.2.3.2.5.3.7.4 1.8 1.1 3.8 1.4 5.9.9 2.1-.5 3.6-1.6 4.5-3.2.2-.4.3-.9.1-1.4-.2-.6-.6-.9-1.2-1l-10.1-.8zM1080.7 409.3c-.1-.4 0-.8.2-1.2.2-.4.6-.6 1-.7s.8 0 1.2.2c.4.2.6.6.7 1l3.6 18.4c.6 3 0 5.7-1.7 8.2-1.7 2.5-4 4.1-7 4.6-3 .6-5.7 0-8.2-1.7s-4.1-4-4.6-7 0-5.7 1.7-8.2c1.7-2.5 4-4.1 7-4.6 3-.6 5.7 0 8.2 1.7 0 0 .1 0 .1.1l-2.2-10.8zm3.6 18.4c-.4-2.1-1.5-3.8-3.3-5-1.8-1.2-3.7-1.6-5.9-1.2s-3.8 1.5-5 3.3-1.6 3.7-1.2 5.9c.4 2.1 1.5 3.8 3.3 5 1.8 1.2 3.7 1.6 5.9 1.2 2.1-.4 3.8-1.5 5-3.3 1.2-1.8 1.6-3.7 1.2-5.9zM1108.2 429.4c.4-.1.8 0 1.2.3.4.3.6.6.6 1 .1.4 0 .8-.3 1.2-1.7 2.1-3.9 3.3-6.6 3.7-3 .5-5.7-.2-8.1-1.9s-3.9-4.1-4.4-7.1c-.5-3 .2-5.7 1.9-8.1s4.1-3.9 7.1-4.4 5.7.2 8.1 1.9 3.9 4.1 4.4 7.1c.1.4 0 .8-.3 1.2-.3.4-.6.6-1 .6l-16.8 2.7c.5 1.4 1.4 2.6 2.8 3.6 1.7 1.3 3.7 1.7 5.8 1.4 1.9-.3 3.5-1.2 4.7-2.6.2-.4.5-.5.9-.6zm.5-7.4c-.5-1.4-1.4-2.6-2.8-3.6-1.7-1.3-3.7-1.7-5.8-1.4-2.1.3-3.8 1.4-5.1 3.1-.9 1.3-1.4 2.7-1.5 4.3l15.2-2.4zM1124.8 402.5c-.1-.4.1-.8.3-1.1.3-.3.6-.5 1-.6.4-.1.8.1 1.1.3.3.3.5.6.6 1l3.2 26.3 1.5-.2c.4-.1.8.1 1.1.3.3.3.5.6.6 1 .1.4-.1.8-.3 1.1-.3.3-.6.5-1 .6l-3.1.4c-.4.1-.8-.1-1.1-.3-.3-.3-.5-.6-.6-1l-3.3-27.8zM1137.6 406.8c0 .3 0 .6-.2.9-.2.3-.5.4-.8.4-.3 0-.6 0-.9-.2-.3-.2-.4-.5-.4-.8l-1-5.6v-.2c0-.4.1-.8.3-1.1.3-.3.6-.5 1-.6s.8.1 1.1.3c.3.3.5.6.6 1v.2l.3 5.7zM1140.9 400.5c0-.4.1-.8.4-1.1.3-.3.6-.5 1.1-.6s.8.1 1.1.4c.3.3.5.6.6 1.1l1.8 18.7c.2 2.2 1.1 3.9 2.8 5.3 1.7 1.4 3.6 2 5.7 1.8 2.2-.2 3.9-1.1 5.3-2.8 1.4-1.7 2-3.6 1.8-5.7l-1.8-18.7c0-.4.1-.8.4-1.1.3-.3.6-.5 1.1-.6.4 0 .8.1 1.1.4.3.3.5.6.6 1.1l1.8 18.7c.3 3-.5 5.7-2.5 8s-4.4 3.6-7.4 3.9c-3 .3-5.7-.5-8-2.5-2.3-1.9-3.6-4.4-3.9-7.4l-2-18.9zM1167 407.5c0-.4.1-.8.4-1.1.3-.3.6-.5 1.1-.5.4 0 .8.1 1.1.4s.5.6.5 1.1l.1 1.3c1.8-2 4.1-3.1 6.8-3.3 2.8-.2 5.2.7 7.4 2.5 2.1 1.9 3.2 4.2 3.4 7l.6 10.1c0 .4-.1.8-.4 1.1-.3.3-.6.5-1.1.5-.4 0-.8-.1-1.1-.4-.3-.3-.5-.6-.5-1.1l-.6-10.1c-.1-1.9-.9-3.5-2.4-4.8-1.5-1.3-3.2-1.9-5.1-1.7-1.9.1-3.5.9-4.8 2.4-1.3 1.5-1.9 3.2-1.7 5.1l.6 10.1c0 .4-.1.8-.4 1.1-.3.3-.6.5-1.1.5-.4 0-.8-.1-1.1-.4-.3-.3-.5-.6-.5-1.1l-1.2-18.7zM1195.5 399.7c0 .5-.2 1-.5 1.4-.4.4-.8.6-1.4.6-.5 0-1-.2-1.4-.5-.4-.4-.6-.8-.6-1.4 0-.5.2-1 .5-1.4.4-.4.8-.6 1.4-.6.5 0 1 .2 1.4.5.4.4.6.8.6 1.4zm-3.2 6.4c0-.4.1-.8.4-1.1.3-.3.7-.5 1.1-.5.4 0 .8.1 1.1.4.3.3.5.7.5 1.1l.8 18.7c0 .4-.1.8-.4 1.1-.3.3-.7.5-1.1.5-.4 0-.8-.1-1.1-.4-.3-.3-.5-.7-.5-1.1l-.8-18.7zM1212 425.3c-.3.3-.6.4-1.1.5-.5 0-.8-.1-1.1-.4-.1-.1-.2-.2-.3-.4l-9-18.7c-.1-.2-.1-.4-.1-.6 0-.4.1-.8.4-1.1.3-.3.7-.5 1.1-.5.4 0 .8.1 1.1.4.1.1.2.2.3.4l7.5 15.6 6.9-15.8c.1-.2.2-.3.3-.4.3-.3.7-.5 1.1-.5.4 0 .8.1 1.1.4.3.3.5.7.5 1.1 0 .2 0 .4-.1.6l-8.3 19.1-.3.3zM1241 420.5c.4 0 .8.2 1.1.5.3.3.4.7.4 1.1 0 .4-.2.8-.5 1.1-2.1 1.7-4.4 2.5-7.2 2.5-3-.1-5.6-1.2-7.7-3.4-2.1-2.2-3.1-4.8-3-7.8.1-3 1.2-5.6 3.4-7.7 2.2-2.1 4.8-3.1 7.8-3 3 .1 5.6 1.2 7.7 3.4 2.1 2.2 3.1 4.8 3 7.8 0 .4-.2.8-.5 1.1s-.7.4-1.1.4l-17.1-.3c.3 1.5.9 2.8 2.1 4 1.5 1.6 3.3 2.4 5.5 2.4 2 0 3.6-.5 5.1-1.8.3-.2.6-.3 1-.3zm1.8-7.2c-.3-1.5-.9-2.8-2.1-4-1.5-1.6-3.3-2.4-5.5-2.4s-4 .7-5.6 2.2c-1.2 1.1-1.9 2.4-2.2 3.9l15.4.3zM1249.6 405.6c0-.4.2-.8.5-1.1.3-.3.7-.4 1.1-.4.4 0 .8.2 1.1.5.3.3.4.7.4 1.1l-.1 1.7c2.3-2.1 4.9-3.1 7.9-3 1.5.1 2.9.4 4.2.9.2.1.4.2.6.4.3.3.4.7.4 1.1 0 .4-.2.8-.5 1.1s-.7.4-1.1.4c-.2 0-.5-.1-.7-.2-.9-.4-1.9-.7-3-.7-2.2-.1-4 .6-5.6 2.1-1.6 1.5-2.4 3.3-2.5 5.4l-.4 9.4c0 .4-.2.8-.5 1.1-.3.3-.7.4-1.1.4-.4 0-.8-.2-1.1-.5s-.4-.7-.4-1.1l.8-18.6zM1271.9 415.9c-1.2-.5-2-1-2.4-1.5-.9-1-1.3-2.1-1.2-3.4.1-1.3.6-2.4 1.7-3.3 2-1.8 4.5-2.6 7.5-2.4 3.3.2 6 1.7 8.1 4.4.2.3.3.6.2.9 0 .4-.2.8-.5 1.1s-.7.4-1.1.4c-.4 0-.8-.2-1-.5-.2-.3-.4-.5-.5-.6-1.4-1.6-3.2-2.5-5.4-2.6-2.2-.1-3.9.4-5.3 1.7-.3.4-.5.8-.6 1.3 0 .6.3 1 .9 1.3l9.4 3.8c1.2.5 2 1 2.4 1.5.9 1 1.3 2.1 1.2 3.4-.1 1.3-.6 2.4-1.7 3.3-2 1.8-4.5 2.6-7.5 2.4-3.3-.2-6-1.7-8.1-4.4-.2-.3-.3-.6-.2-.9 0-.4.2-.8.5-1.1.3-.3.7-.4 1.1-.4.4 0 .8.2 1 .5.2.3.4.5.5.6 1.4 1.6 3.2 2.5 5.4 2.6 2.2.1 3.9-.4 5.3-1.7.3-.4.5-.8.6-1.3 0-.6-.3-1-.9-1.3l-9.4-3.8zM1318.4 427.6c-2.4 1.9-5.1 2.8-8.1 2.4-3-.3-5.5-1.7-7.3-4-1.9-2.4-2.7-5-2.4-8 .3-3 1.7-5.5 4-7.3 2.4-1.9 5-2.7 8-2.4 3 .3 5.5 1.7 7.3 4 1.9 2.4 2.7 5 2.4 8l-1 9.3c0 .4-.2.8-.6 1s-.7.4-1.1.3-.8-.2-1-.6c-.3-.3-.4-.7-.3-1.1l.1-1.6zm-6.1-16.2c-2.1-.2-4.1.3-5.7 1.7-1.7 1.4-2.6 3.1-2.9 5.2s.3 4.1 1.7 5.7c1.4 1.7 3.1 2.6 5.3 2.9 2.1.2 4.1-.3 5.7-1.7 1.7-1.4 2.6-3.1 2.9-5.3s-.3-4.1-1.7-5.7-3.2-2.6-5.3-2.8zM1344.3 432.8c-.1.4-.3.8-.6 1-.3.3-.7.4-1.2.3-.4-.1-.8-.3-1-.6s-.4-.7-.3-1.2l.2-1.3c-2.2 1.6-4.6 2.2-7.4 1.8-2.8-.4-5-1.7-6.7-3.9-1.7-2.2-2.3-4.7-2-7.5l1.4-10.1c.1-.4.3-.8.6-1 .3-.3.7-.4 1.2-.3.4.1.8.3 1 .6.3.3.4.7.3 1.2l-1.4 10.1c-.3 1.9.2 3.7 1.4 5.2s2.7 2.5 4.6 2.7c1.9.3 3.7-.2 5.2-1.4s2.5-2.7 2.7-4.6l1.4-10.1c.1-.4.3-.8.6-1 .3-.3.7-.4 1.2-.3s.8.3 1 .6c.3.3.4.7.3 1.2l-2.5 18.6zM1356.1 425.3l-5.5-9.4c-.2-.3-.3-.7-.2-1.1.1-.4.3-.8.6-1s.7-.3 1.2-.3c.4.1.8.3 1.1.7l5.2 9 7.9-6.8c.4-.3.8-.4 1.2-.3.4.1.8.3 1 .6.3.4.3.7.3 1.2-.1.4-.2.7-.5.9l-8.3 7.1 5.5 9.5c.2.3.2.6.1 1s-.3.8-.6 1c-.4.2-.7.3-1.2.3-.4-.1-.8-.3-1-.6l-5.3-9.1-8 6.8c-.3.3-.7.4-1.2.3-.4-.1-.8-.3-1-.6-.3-.4-.3-.7-.3-1.2.1-.4.2-.7.5-.9l8.5-7.1zM1397.4 439.1c.4.1.7.3 1 .7.2.4.3.8.2 1.2-.1.4-.3.8-.7 1-2.3 1.3-4.9 1.6-7.5 1.1-3-.6-5.2-2.2-6.9-4.8-1.6-2.5-2.1-5.3-1.5-8.2s2.2-5.2 4.8-6.9c2.5-1.6 5.3-2.1 8.2-1.5 3 .6 5.2 2.2 6.9 4.8 1.6 2.5 2.1 5.3 1.5 8.2-.1.4-.3.7-.7 1-.4.2-.8.3-1.2.2l-16.7-3.6c0 1.5.4 3 1.3 4.3 1.2 1.8 2.8 2.9 4.9 3.4 1.9.4 3.7.2 5.3-.7.4-.2.8-.3 1.1-.2zm3.2-6.7c0-1.5-.4-3-1.3-4.3-1.2-1.8-2.8-2.9-4.9-3.4-2.1-.5-4.1-.1-5.9 1.1-1.4.9-2.3 2-2.9 3.4l15 3.2zM1408.8 426.3c.1-.4.3-.7.7-1 .4-.2.8-.3 1.2-.2.4.1.7.3 1 .7.2.4.3.8.2 1.2l-.3 1.2c2.3-1.4 4.8-1.7 7.5-1.1 2.7.7 4.8 2.2 6.2 4.6 1.4 2.4 1.8 5 1.2 7.7l-2.4 9.9c-.1.4-.3.7-.7 1-.4.2-.8.3-1.2.2-.4-.1-.7-.3-1-.7-.2-.4-.3-.8-.2-1.2l2.4-9.9c.5-1.9.2-3.7-.8-5.3-1-1.7-2.4-2.7-4.3-3.2s-3.7-.2-5.3.8-2.7 2.4-3.2 4.3l-2.4 9.9c-.1.4-.3.7-.7 1-.4.2-.8.3-1.2.2-.4-.1-.7-.3-1-.7-.2-.4-.3-.8-.2-1.2l4.5-18.2zM1446.9 425c.4.1.7.4.9.7.2.4.3.8.1 1.2s-.4.7-.7.9c-.4.2-.8.3-1.2.1-4-1.1-6.6.3-7.7 4.4l-.3 1.1 4.5 1.3c.4.1.7.4.9.7.2.4.3.8.1 1.2-.1.4-.4.7-.7.9-.4.2-.8.3-1.2.1l-4.5-1.3-4.3 15.4c-.1.4-.4.7-.7.9-.4.2-.8.3-1.2.1-.4-.1-.7-.4-.9-.7-.2-.4-.3-.8-.1-1.2l4.3-15.4-1.5-.4c-.4-.1-.7-.4-.9-.7-.2-.4-.3-.8-.1-1.2.1-.4.4-.7.7-.9.4-.2.8-.3 1.2-.1l1.5.4.3-1.1c1.6-5.9 5.4-8.1 11.5-6.4zM1460.3 458.2c-2.7 1.5-5.5 1.7-8.4.9-2.9-.9-5-2.7-6.5-5.3-1.4-2.7-1.7-5.4-.8-8.3.9-2.9 2.7-5 5.3-6.5s5.4-1.7 8.3-.8c2.9.9 5 2.7 6.5 5.3 1.4 2.7 1.7 5.4.8 8.3l-2.7 9c-.1.4-.4.7-.8.9-.4.2-.8.2-1.2.1s-.7-.4-.9-.8-.2-.8-.1-1.2l.5-1.6zm-3-17.1c-2.1-.6-4.1-.4-6 .6-1.9 1-3.2 2.5-3.8 4.6-.6 2.1-.4 4.1.6 6 1 1.9 2.6 3.2 4.6 3.8 2.1.6 4.1.4 6-.6 1.9-1 3.2-2.5 3.8-4.6.6-2.1.4-4.1-.6-6-1-1.9-2.5-3.2-4.6-3.8zM1471.6 443.9c.1-.4.4-.7.8-.9.4-.2.8-.2 1.2-.1s.7.4.9.8.2.8.1 1.2l-.4 1.2c2.5-1.2 5-1.3 7.6-.4 2.6.9 4.6 2.6 5.8 5.1 1.2 2.5 1.4 5.1.5 7.8l-3.3 9.6c-.1.4-.4.7-.8.9-.4.2-.8.2-1.2.1-.4-.1-.7-.4-.9-.8-.2-.4-.2-.8-.1-1.2l3.3-9.6c.6-1.8.5-3.6-.3-5.4-.9-1.7-2.2-2.9-4-3.6-1.8-.6-3.6-.5-5.4.3-1.7.9-2.9 2.2-3.6 4l-3.3 9.6c-.1.4-.4.7-.8.9-.4.2-.8.2-1.2.1s-.7-.4-.9-.8-.2-.8-.1-1.2l6.1-17.6zM1498.4 471.6c.4.1.7.4.9.8.2.4.2.8 0 1.2-.1.4-.4.7-.8.9-.4.2-.8.2-1.2 0-4.9-1.8-6.4-5.2-4.6-10l3.8-10.3-1.5-.5c-.4-.1-.7-.4-.9-.8-.2-.4-.2-.8 0-1.2.1-.4.4-.7.8-.9.4-.2.8-.2 1.2 0l1.5.5 2.7-7.3c.1-.4.4-.7.8-.9.4-.2.8-.2 1.2 0 .4.1.7.4.9.8.2.4.2.8 0 1.2l-2.7 7.3 2.9 1.1c.4.1.7.4.9.8s.2.8 0 1.2c-.1.4-.4.7-.8.9s-.8.2-1.2 0l-3-1.1-3.8 10.3c-1 2.9-.1 4.9 2.9 6zM1509.1 467.3c-.9-.8-1.5-1.6-1.8-2.2-.5-1.2-.5-2.4-.1-3.6.5-1.2 1.3-2.1 2.6-2.6 2.4-1.1 5.1-1.1 7.9 0 3 1.2 5.2 3.5 6.4 6.7.1.3.1.6-.1 1s-.4.7-.8.9c-.4.2-.8.2-1.2 0-.4-.2-.7-.4-.8-.8-.1-.4-.2-.6-.3-.8-.9-2-2.3-3.4-4.3-4.2s-3.9-.8-5.6 0c-.4.2-.7.6-.9 1.1-.2.6 0 1.1.4 1.5l7.8 6.5c.9.8 1.5 1.6 1.8 2.2.5 1.2.5 2.4.1 3.6-.5 1.2-1.3 2.1-2.6 2.6-2.4 1.1-5.1 1.1-7.9 0-3-1.2-5.2-3.5-6.4-6.7-.1-.3-.1-.6.1-1s.4-.7.8-.9c.4-.2.8-.2 1.2 0s.7.4.8.8c.1.3.2.6.3.8.9 2 2.3 3.4 4.3 4.2 2 .8 3.9.8 5.6 0 .4-.2.7-.6.9-1.1.2-.6 0-1.1-.4-1.5l-7.8-6.5zM1560.5 468.7c.2-.4.5-.7.9-.8.4-.2.8-.1 1.2 0 .4.2.7.5.8.9.2.4.1.8 0 1.2l-7.7 17.1c-1.2 2.8-3.3 4.7-6.1 5.7-2.8 1.1-5.6 1-8.4-.3s-4.7-3.3-5.7-6.1c-1.1-2.8-1-5.6.2-8.4s3.3-4.7 6.1-5.7c2.8-1.1 5.6-1 8.4.2 2.8 1.2 4.7 3.3 5.7 6.1v.1l4.6-10zm-7.7 17.2c.9-2 .9-4 .2-6-.8-2-2.1-3.5-4.1-4.4-2-.9-4-.9-6-.2s-3.5 2.1-4.4 4.1c-.9 2-.9 4-.2 6s2.1 3.5 4.1 4.4c2 .9 4 .9 6 .2 2.1-.8 3.5-2.1 4.4-4.1zM1572.8 505.9c-.2.4-.5.6-.9.8s-.8.1-1.2-.1-.6-.5-.8-.9c-.1-.4-.1-.8.1-1.2l.6-1.1c-2.6.8-5.1.7-7.6-.5s-4.2-3.2-5.1-5.8c-.9-2.7-.8-5.2.5-7.8l4.5-9.1c.2-.4.5-.7.9-.8.4-.1.8-.1 1.2.1.4.2.7.5.8.9.1.4.1.8-.1 1.2l-4.5 9.1c-.9 1.7-1 3.5-.3 5.4.6 1.8 1.8 3.2 3.6 4 1.7.9 3.5 1 5.4.3 1.8-.6 3.2-1.8 4-3.6l4.5-9.1c.2-.4.5-.7.9-.8.4-.1.8-.1 1.2.1s.6.5.8.9c.1.4.1.8-.1 1.2l-8.4 16.8zM1588.4 514c-.2.4-.5.6-.9.7-.4.1-.8.1-1.2-.1-.4-.2-.6-.5-.7-.9-.1-.4-.1-.8.1-1.2l9.2-16.3c.2-.4.5-.6.9-.7s.8-.1 1.2.1c.4.2.6.5.7.9.1.4.1.8-.1 1.2l-.2.4c2-.4 3.9-.1 5.7 1 2.1 1.2 3.4 2.9 4 5.2.1.5.2 1 .3 1.4.4-.2.9-.4 1.4-.5 2.3-.6 4.5-.4 6.5.8s3.4 2.9 4 5.2c.6 2.3.4 4.5-.8 6.5l-5.7 10.2c-.2.4-.5.6-.9.7-.4.1-.8.1-1.2-.1-.4-.2-.6-.5-.7-.9-.1-.4-.1-.8.1-1.2l5.7-10.2c.7-1.3.9-2.7.5-4.1-.4-1.5-1.3-2.5-2.6-3.3-1.3-.7-2.7-.9-4.1-.5-1.5.4-2.5 1.3-3.3 2.6l-5.7 10.2c-.2.4-.5.6-.9.7-.4.1-.8.1-1.2-.1-.4-.2-.6-.5-.7-.9-.1-.4-.1-.8.1-1.2l5.7-10.2c.7-1.3.9-2.7.5-4.1-.4-1.5-1.3-2.5-2.6-3.3-1.3-.7-2.7-.9-4.1-.5-1.5.4-2.5 1.3-3.3 2.6l-5.7 9.9zM1639.2 532.5c-1.6 2.6-3.8 4.3-6.8 5s-5.7.3-8.3-1.3c-2.6-1.6-4.3-3.8-5-6.8-.7-2.9-.3-5.7 1.3-8.3 1.6-2.6 3.8-4.3 6.8-5 2.9-.7 5.7-.3 8.3 1.3 2.6 1.6 4.3 3.8 5 6.8s.3 5.7-1.3 8.3zm-5.3-12.4c-1.9-1.1-3.8-1.4-5.9-.9s-3.7 1.7-4.8 3.6c-1.1 1.9-1.4 3.8-.9 5.9.5 2.1 1.7 3.7 3.6 4.8 1.9 1.1 3.8 1.4 5.9.9 2.1-.5 3.7-1.7 4.8-3.6 1.1-1.9 1.4-3.8.9-5.9-.6-2.1-1.8-3.7-3.6-4.8zM1646.8 526.3c.2-.4.6-.6 1-.7.4-.1.8 0 1.2.2.4.2.6.6.7 1 .1.4 0 .8-.2 1.2l-.7 1.1c2.7-.5 5.1-.1 7.4 1.4 2.4 1.5 3.8 3.6 4.4 6.4s.1 5.3-1.4 7.6l-5.5 8.5c-.2.4-.6.6-1 .7-.4.1-.8 0-1.2-.2-.4-.2-.6-.6-.7-1-.1-.4 0-.8.2-1.2l5.5-8.5c1-1.6 1.4-3.4 1-5.3-.4-1.9-1.4-3.4-3.1-4.4s-3.4-1.4-5.3-1c-1.9.4-3.4 1.4-4.4 3.1l-5.5 8.5c-.2.4-.6.6-1 .7-.4.1-.8 0-1.2-.2-.4-.2-.6-.6-.7-1-.1-.4 0-.8.2-1.2l10.3-15.7zM1687.7 542.4c.2-.4.6-.6 1-.6.4-.1.8 0 1.2.3.4.2.6.6.6 1 .1.4 0 .8-.3 1.2l-10.7 15.4c-1.7 2.5-4.1 4-7 4.5-3 .5-5.7-.1-8.2-1.8-2.5-1.7-4-4.1-4.5-7-.5-3 .1-5.7 1.8-8.2 1.7-2.5 4.1-4 7-4.5s5.7.1 8.2 1.8c2.5 1.7 4 4.1 4.5 7v.1l6.4-9.2zm-10.7 15.4c1.2-1.8 1.7-3.7 1.3-5.8-.4-2.1-1.5-3.8-3.2-5-1.8-1.2-3.7-1.7-5.8-1.3-2.1.4-3.8 1.5-5 3.2-1.2 1.8-1.7 3.7-1.3 5.8s1.5 3.8 3.2 5 3.7 1.7 5.8 1.3c2-.3 3.7-1.4 5-3.2zM1692.4 576.2c.3.3.5.6.6 1 .1.4 0 .8-.3 1.2s-.6.5-1 .6c-2.7.2-5.1-.5-7.3-2.2-2.4-1.8-3.8-4.2-4.3-7.2-.4-3 .3-5.7 2.1-8.1 1.8-2.4 4.2-3.8 7.2-4.3 3-.4 5.7.3 8.1 2.1 2.4 1.8 3.8 4.2 4.3 7.2.4 3-.3 5.7-2.1 8.1-.3.3-.6.5-1 .6-.4.1-.8 0-1.2-.3l-13.6-10.2c-.7 1.4-.9 2.9-.7 4.5.3 2.1 1.3 3.8 3.1 5.1 1.6 1.2 3.3 1.7 5.1 1.5.4.1.7.2 1 .4zm5.6-4.8c.7-1.4.9-2.9.7-4.5-.3-2.1-1.3-3.8-3.1-5.1-1.7-1.3-3.7-1.8-5.8-1.5-1.6.2-3 .9-4.1 1.9l12.3 9.2zM1721.1 598.9c.3.3.5.6.6 1.1 0 .4-.1.8-.3 1.1-.3.3-.6.5-1.1.6-2.7.1-5.1-.7-7.2-2.5-2.3-1.9-3.7-4.4-3.9-7.4-.3-3 .5-5.7 2.4-8s4.4-3.7 7.4-3.9c3-.3 5.7.5 8 2.4s3.7 4.4 3.9 7.4c.3 3-.5 5.7-2.4 8-.3.3-.6.5-1.1.6-.4 0-.8-.1-1.1-.3l-13.2-10.8c-.7 1.3-1 2.8-.9 4.4.2 2.1 1.2 3.9 2.8 5.3 1.5 1.2 3.2 1.8 5.1 1.8.4-.2.7 0 1 .2zm5.8-4.5c.7-1.3 1-2.8.9-4.4-.2-2.1-1.2-3.9-2.8-5.3-1.7-1.4-3.6-1.9-5.7-1.7-1.6.2-3 .7-4.2 1.7l11.8 9.7zM1737.1 592.8c.3-.3.6-.5 1.1-.5.4 0 .8.1 1.1.4.3.3.5.6.5 1.1 0 .4-.1.8-.4 1.1l-.8 1c2.7-.1 5.1.7 7.1 2.5 2.1 1.8 3.2 4.2 3.4 7 .2 2.8-.7 5.2-2.5 7.3l-6.7 7.6c-.3.3-.6.5-1.1.5-.4 0-.8-.1-1.1-.4-.3-.3-.5-.6-.5-1.1 0-.4.1-.8.4-1.1l6.7-7.6c1.3-1.5 1.9-3.2 1.7-5.1-.1-1.9-.9-3.5-2.4-4.8-1.5-1.3-3.2-1.9-5.1-1.7-1.9.1-3.5.9-4.8 2.4l-6.7 7.6c-.3.3-.6.5-1.1.5-.4 0-.8-.1-1.1-.4-.3-.3-.5-.6-.5-1.1 0-.4.1-.8.4-1.1l12.4-14.1zM1751.4 628.5c.3.3.5.7.5 1.1s-.1.8-.4 1.1-.7.5-1.1.5c-.4 0-.8-.1-1.1-.4-3.8-3.5-4-7.2-.5-11l7.4-8.1-1.2-1.1c-.3-.3-.5-.7-.5-1.1 0-.4.1-.8.4-1.1.3-.3.7-.5 1.1-.5s.8.1 1.1.4l1.2 1.1 5.3-5.8c.3-.3.7-.5 1.1-.5.4 0 .8.1 1.1.4.3.3.5.7.5 1.1 0 .4-.1.8-.4 1.1l-5.3 5.8 2.3 2.1c.3.3.5.7.5 1.1 0 .4-.1.8-.4 1.1s-.7.5-1.1.5c-.4 0-.8-.1-1.1-.4l-2.3-2.1-7.4 8.1c-2.1 2.3-2 4.5.3 6.6zM1767.7 620.2c.3-.3.7-.5 1.1-.5.4 0 .8.1 1.1.4.3.3.5.7.5 1.1 0 .4-.1.8-.4 1.1l-13 13.7c-.3.3-.7.5-1.1.5-.4 0-.8-.1-1.1-.4-.3-.3-.5-.7-.5-1.1 0-.4.1-.8.4-1.1l13-13.7zm6.8-2.1c-.4.4-.8.6-1.4.6-.5 0-1-.2-1.4-.5-.4-.4-.6-.8-.6-1.4 0-.5.2-1 .5-1.4s.8-.6 1.4-.6c.5 0 1 .2 1.4.5.4.4.6.8.6 1.4.1.6-.1 1.1-.5 1.4zM1775.1 648.4c.3.3.5.7.5 1.1 0 .4-.1.8-.5 1.1s-.7.5-1.1.5c-2.7-.2-5-1.2-6.9-3.1-2.1-2.1-3.2-4.7-3.2-7.7s1-5.6 3.2-7.7c2.1-2.1 4.7-3.2 7.7-3.2s5.6 1 7.7 3.2 3.2 4.7 3.2 7.7-1 5.6-3.2 7.7c-.3.3-.7.5-1.1.5-.4 0-.8-.1-1.1-.5l-12.1-12c-.9 1.3-1.3 2.7-1.3 4.3 0 2.2.8 4 2.3 5.5 1.4 1.4 3 2.1 4.9 2.2.4 0 .7.1 1 .4zm6.2-3.9c.9-1.3 1.3-2.7 1.3-4.3 0-2.2-.8-4-2.3-5.5-1.5-1.5-3.4-2.3-5.5-2.3-1.6 0-3.1.4-4.3 1.3l10.8 10.8zM1791.5 643.7c.3-.3.7-.4 1.1-.4.4 0 .8.2 1.1.5s.4.7.4 1.1c0 .4-.2.8-.5 1.1l-1.2 1.2c3.1.1 5.7 1.2 7.8 3.4 1.1 1.1 1.8 2.3 2.3 3.6.1.2.1.5.2.7 0 .4-.2.8-.5 1.1-.3.3-.7.4-1.1.4-.4 0-.8-.2-1.1-.5-.2-.2-.3-.4-.4-.6-.4-.9-.9-1.8-1.7-2.6-1.5-1.6-3.3-2.4-5.5-2.4-2.1 0-4 .7-5.6 2.2l-6.8 6.5c-.3.3-.7.4-1.1.4-.4 0-.8-.2-1.1-.5s-.4-.7-.4-1.1c0-.4.2-.8.5-1.1l13.6-13z"/></svg>