<svg xmlns="http://www.w3.org/2000/svg" viewBox="929 -806.1 2453 2453"><g fill="#03709C"><path d="M1563.3-147l4-4.3c1.4-1.5 3.1-2.3 5.2-2.3s3.9.6 5.4 2.1c1.5 1.4 2.4 3.2 2.5 5.3.9-.4 2-.6 3.1-.6 2.5 0 4.7.8 6.5 2.5s2.8 3.8 3 6.3c.1 2.5-.7 4.6-2.3 6.4l-5.1 5.4c-.3.3-.6.5-1 .5s-.8-.1-1.1-.4l-20.1-18.7c-.3-.3-.5-.6-.5-1.1 0-.4.1-.8.4-1.1zm3.3 1l6.7 6.2 3-3.3c.8-.9 1.2-2 1.2-3.2-.1-1.2-.6-2.3-1.5-3.2s-2-1.3-3.3-1.2c-1.2 0-2.3.5-3.1 1.4l-3 3.3zm8.9 8.3l8.9 8.3 4-4.3c1.1-1.2 1.6-2.6 1.6-4.3-.1-1.7-.7-3.1-2-4.2s-2.7-1.7-4.3-1.7c-1.6 0-3 .7-4.2 1.9l-4 4.3zM1585.2-154.7c-.3-.3-.5-.6-.5-1.1 0-.4.1-.8.4-1.1.3-.3.6-.4 1.1-.4s.8.1 1.1.4l1.2 1.2c-.1-3 .9-5.5 2.9-7.5 1-1 2.1-1.8 3.3-2.3.2-.1.5-.1.7-.2.4 0 .8.2 1.1.5s.5.6.5 1.1c0 .4-.1.8-.4 1.1-.2.2-.4.3-.6.4-.9.4-1.7.9-2.4 1.7-1.4 1.5-2.1 3.2-2.1 5.3s.8 3.8 2.3 5.3l6.5 6.4c.3.3.5.6.5 1.1s-.1.8-.4 1.1-.6.4-1.1.4-.8-.1-1.1-.4l-13-13zM1597.7-176c.4.4.5.8.6 1.3.1.5-.2 1-.5 1.3-.4.4-.8.5-1.3.5s-1-.2-1.3-.6c-.4-.4-.5-.8-.6-1.3 0-.5.2-1 .5-1.3.3-.3.8-.5 1.3-.5.5.1.9.3 1.3.6zm1.9 6.7c-.3-.3-.4-.7-.4-1.1 0-.4.1-.8.4-1.1.3-.3.6-.4 1.1-.4.4 0 .8.2 1.1.5l12.8 13c.3.3.4.7.4 1.1 0 .4-.1.8-.4 1.1-.3.3-.6.4-1.1.4-.4 0-.8-.2-1.1-.5l-12.8-13zM1605.7-175.4c-.3-.3-.4-.7-.4-1.1 0-.4.2-.8.5-1 .3-.2.7-.4 1.1-.4.4 0 .8.2 1.1.5l.9.9c.1-2.6 1.1-4.8 3-6.6 1.9-1.8 4.2-2.7 7-2.6 2.7.1 5 1.2 6.9 3.1l6.8 7.2c.3.3.4.7.4 1.1 0 .4-.2.8-.5 1-.3.3-.7.4-1.1.4s-.8-.2-1.1-.5l-6.8-7.2c-1.3-1.4-2.9-2.1-4.8-2.2-1.9-.1-3.5.5-4.8 1.8-1.3 1.3-2 2.8-2.1 4.7-.1 1.9.6 3.5 1.9 4.9l6.8 7.2c.3.3.4.7.4 1.1 0 .4-.2.8-.5 1-.3.3-.7.4-1.1.4s-.8-.2-1.1-.5l-12.5-13.2zM1647.3-191c-.1 3-1.3 5.4-3.4 7.3-2.1 1.9-4.7 2.8-7.6 2.6-2.9-.2-5.3-1.4-7.3-3.6s-2.9-4.8-2.7-7.7c.1-2.9 1.3-5.3 3.4-7.2 2.1-1.9 4.7-2.8 7.6-2.6 2.9.2 5.3 1.4 7.3 3.6l7.1 8c1.5 1.7 2.2 3.6 2.1 5.9-.1 3.1-1.4 5.7-3.7 7.7-2.3 2-5 3-8.1 2.7-1.1-.1-2.2-.3-3.2-.7-.3-.1-.5-.2-.7-.4-.3-.3-.4-.7-.4-1.1 0-.4.2-.8.5-1 .3-.2.7-.4 1.1-.4.2 0 .4.1.5.1.7.3 1.5.4 2.3.5 2.3.2 4.3-.5 5.9-2 1.7-1.5 2.6-3.4 2.7-5.7-.1-1.6-.5-2.8-1.3-3.7l-2.1-2.3zm-15.6-6.3c-1.5 1.4-2.3 3.1-2.4 5.2-.1 2.1.6 3.9 2 5.5s3.1 2.4 5.2 2.6c2.1.1 3.9-.5 5.4-1.8 1.5-1.4 2.3-3.1 2.4-5.2.1-2.1-.6-3.9-2-5.5s-3.1-2.4-5.2-2.6c-2.1-.2-3.9.4-5.4 1.8zM1641.4-215.9c.3.4.5.9.5 1.4s-.2.9-.6 1.3-.8.5-1.4.4c-.5 0-1-.3-1.3-.7-.3-.4-.5-.9-.5-1.4s.2-.9.6-1.3c.4-.4.8-.5 1.4-.4.5.1.9.4 1.3.7zm1.4 6.9c-.3-.3-.4-.7-.4-1.1 0-.4.2-.8.5-1 .3-.2.7-.4 1.1-.3.4 0 .8.2 1 .5l11.9 13.9c.3.3.4.7.4 1.1 0 .4-.2.8-.5 1-.3.3-.7.4-1.1.3-.4 0-.8-.2-1-.5l-11.9-13.9zM1649.3-214.7c-.3-.3-.4-.7-.3-1.1 0-.4.2-.8.5-1 .3-.3.7-.4 1.1-.3.4 0 .8.2 1 .6l.8 1c.3-2.6 1.4-4.7 3.4-6.4 2.1-1.7 4.4-2.4 7.1-2.1 2.7.3 4.9 1.5 6.6 3.6l6.3 7.7c.3.3.4.7.3 1.1-.1.4-.2.8-.5 1-.3.3-.7.4-1.1.3-.4 0-.8-.2-1-.6l-6.3-7.7c-1.2-1.5-2.7-2.3-4.6-2.5s-3.5.3-4.9 1.4c-1.4 1.2-2.2 2.7-2.4 4.5-.2 1.9.4 3.5 1.6 5l6.3 7.7c.3.3.4.7.3 1.1s-.2.8-.5 1c-.3.3-.7.4-1.1.3-.4 0-.8-.2-1-.6l-11.6-14zM1691.9-227.3c-.3 3-1.6 5.3-3.9 7.1-2.3 1.7-4.9 2.4-7.7 2-2.9-.4-5.2-1.8-7-4.1-1.8-2.3-2.5-4.9-2.2-7.8.3-2.9 1.6-5.2 3.9-7 2.3-1.7 4.9-2.4 7.7-2 2.9.4 5.2 1.8 7 4.1l6.5 8.5c1.4 1.8 1.9 3.8 1.7 6-.4 3.1-1.8 5.6-4.2 7.5-2.4 1.9-5.2 2.6-8.3 2.1-1.1-.2-2.2-.5-3.2-.9-.3-.1-.5-.3-.7-.5-.3-.3-.4-.7-.3-1.1 0-.4.2-.7.6-1 .3-.2.7-.3 1.1-.3.2 0 .4.1.5.2.7.3 1.5.5 2.3.7 2.3.3 4.3-.2 6.1-1.6s2.8-3.2 3.1-5.5c0-1.6-.3-2.8-1-3.8l-2-2.6zm-15.1-7.4c-1.6 1.3-2.6 2.9-2.8 5s.3 3.9 1.6 5.6 3 2.7 5 3 3.9-.2 5.5-1.4c1.6-1.3 2.6-2.9 2.8-5 .2-2.1-.3-3.9-1.6-5.6-1.3-1.7-3-2.7-5-3s-3.9.2-5.5 1.4zM1697.5-252c-.2-.3-.3-.7-.3-1.1.1-.4.3-.7.6-1 .3-.2.7-.3 1.1-.2.4.1.7.3 1 .6l.7 1c.5-2.6 1.8-4.6 3.9-6.1 2.2-1.5 4.6-2 7.3-1.5s4.8 1.9 6.3 4.1l5.7 8.1c.2.3.3.7.3 1.1-.1.4-.3.7-.6 1-.3.2-.7.3-1.1.2s-.7-.3-1-.6l-5.7-8.1c-1.1-1.6-2.5-2.5-4.4-2.9-1.8-.4-3.5 0-5 1.1s-2.4 2.5-2.7 4.4c-.3 1.8.1 3.5 1.2 5.1l5.7 8.1c.2.3.3.7.3 1.1-.1.4-.3.7-.6 1-.3.2-.7.3-1.1.2-.4-.1-.7-.3-1-.6l-10.6-15zM1738.4-262.1c.3-.2.7-.3 1.1-.2.4.1.7.3 1 .7s.3.7.2 1.1c-.7 2.5-2.1 4.4-4.3 5.9-2.4 1.6-5 2-7.9 1.4-2.8-.6-5.1-2.2-6.7-4.6-1.6-2.5-2.1-5.1-1.6-8 .6-2.9 2-5.1 4.4-6.6 2.4-1.5 5-2 7.9-1.4 2.9.6 5.1 2.2 6.7 4.6.2.4.3.7.2 1.1-.1.4-.3.7-.6.9l-13.6 8.9c1 1.1 2.3 1.8 3.8 2.1 2 .5 3.9.1 5.6-1 1.6-1 2.6-2.4 3-4.1.3-.3.5-.6.8-.8zm-2.5-6.7c-1-1.1-2.3-1.8-3.8-2.1-2-.5-3.9-.1-5.6 1s-2.8 2.7-3.2 4.7c-.3 1.5-.2 3 .4 4.4l12.2-8zM1748-286.6c.1-.4.3-.7.7-.9.3-.2.7-.3 1.1-.2.3.1.5.2.7.4l11 9.5-3.4-14.4v-.5c.1-.4.3-.7.7-.9.3-.2.7-.3 1.1-.2.4.1.7.3.9.7.1.2.2.4.2.6l4.4 18.7v.6c-.1.4-.3.7-.7.9-.3.2-.7.3-1.1.2l-.6-.3-11.1-9.6 3.4 14.3v.6c-.1.4-.3.7-.7.9-.3.2-.7.3-1.1.2l-.6-.3-14.5-12.5c-.2-.1-.3-.3-.4-.4-.2-.4-.3-.7-.2-1.1.1-.4.3-.7.7-.9.3-.2.7-.3 1.1-.2.2.1.3.1.5.2l11.2 9.7-3.3-14.2c-.1-.3-.1-.6 0-.9zM1772.3-289c-1.2.2-2.1.2-2.7 0-1.2-.3-2.1-1.1-2.7-2.2-.6-1.1-.8-2.3-.4-3.5.6-2.5 2.2-4.5 4.7-5.9 2.7-1.5 5.7-1.7 8.8-.6.3.1.5.3.7.6.2.4.3.8.1 1.2-.1.4-.3.7-.7.9-.4.2-.7.2-1.1.1-.3-.1-.6-.2-.7-.2-2-.6-3.9-.4-5.7.6-1.8 1-2.9 2.4-3.3 4.1-.1.5 0 .9.3 1.4.3.5.8.7 1.4.6l9.5-1.8c1.2-.2 2.1-.2 2.7 0 1.2.3 2.1 1.1 2.7 2.2.6 1.1.8 2.3.4 3.5-.6 2.5-2.2 4.5-4.7 5.9-2.7 1.5-5.7 1.7-8.8.6-.3-.1-.5-.4-.7-.6-.2-.4-.3-.7-.1-1.2.1-.4.3-.7.7-.9.4-.2.7-.2 1.1-.1.3.1.6.2.7.2 2 .6 3.9.4 5.7-.6 1.8-1 2.9-2.4 3.3-4.1.1-.5 0-.9-.3-1.4-.3-.5-.8-.7-1.4-.6l-9.5 1.8zM1799.5-326c.4-.2.7-.2 1.1-.1s.7.4.9.8.2.8.1 1.2c-.1.4-.4.7-.7.9-3.5 1.8-4.4 4.5-2.5 8.1l.5 1 4-2c.4-.2.7-.2 1.1-.1.4.1.7.4.9.8.2.4.2.8.1 1.2-.1.4-.4.7-.7.9l-4 2 7.1 13.9c.2.4.2.8.1 1.2-.1.4-.4.7-.7.9-.3.2-.7.2-1.1.1-.4-.1-.7-.4-.9-.8l-7.1-13.9-1.3.7c-.4.2-.7.2-1.1.1s-.7-.4-.9-.8-.2-.8-.1-1.2c.1-.4.4-.7.7-.9l1.3-.7-.5-1c-2.8-5.6-1.6-9.6 3.7-12.3zM1808.1-318.4c-.2-.4-.2-.8-.1-1.2.1-.4.4-.7.7-.9.3-.2.7-.2 1.1-.1.4.1.7.4.9.8l.7 1.5c.9-2.8 2.7-4.9 5.3-6.1 1.3-.6 2.6-1 3.9-1 .2 0 .5 0 .7.1.4.2.7.4.9.8s.2.8.1 1.2c-.1.4-.4.7-.7.9-.2.1-.4.2-.7.1-1 0-1.9.3-2.9.7-1.8.9-3.1 2.3-3.8 4.3-.7 2-.5 3.9.4 5.8l4 8.2c.2.4.2.8.1 1.2-.1.4-.4.7-.7.9s-.7.2-1.1.1-.7-.4-.9-.8l-7.9-16.5zM1848.1-326.9c1.2 2.7 1.3 5.4.3 8.1s-2.8 4.7-5.4 5.9c-2.6 1.2-5.3 1.2-8 .2s-4.7-2.9-5.9-5.6c-1.2-2.7-1.3-5.4-.3-8.1s2.8-4.7 5.4-5.9 5.3-1.2 8-.2 4.7 2.9 5.9 5.6zm-12.6-2.7c-1.9.8-3.2 2.2-3.9 4.2-.7 1.9-.6 3.9.2 5.8s2.3 3.3 4.2 4c1.9.8 3.8.7 5.7-.1 1.9-.8 3.2-2.2 3.9-4.2.7-1.9.6-3.9-.2-5.8-.9-1.9-2.3-3.3-4.2-4-2-.8-3.9-.7-5.7.1zM1858-321.2c.2.4.2.8 0 1.2s-.4.7-.8.8c-.4.2-.8.1-1.1 0-.3-.1-.7-.4-.8-.8l-6.9-16.9c-.2-.4-.2-.8 0-1.2.2-.4.4-.7.8-.8.4-.2.8-.1 1.1 0 .4.2.7.4.8.8l.1.4c.9-1.7 2.2-3 4.1-3.7 2.1-.8 4.2-.8 6.3.1.4.2.9.4 1.3.7.1-.5.3-.9.4-1.3.9-2.1 2.3-3.6 4.4-4.4s4.2-.8 6.3.1c2.1.9 3.6 2.5 4.4 4.6l4.3 10.6c.2.4.2.8 0 1.2-.2.4-.4.7-.8.8-.4.2-.8.1-1.1 0-.4-.2-.7-.4-.8-.8l-4.3-10.6c-.6-1.4-1.5-2.3-2.8-2.9s-2.7-.6-4-.1-2.3 1.5-2.8 2.8c-.6 1.3-.5 2.7 0 4.1l4.3 10.6c.2.4.2.8 0 1.2s-.4.7-.8.8c-.4.2-.8.1-1.1 0-.4-.2-.7-.4-.8-.8l-4.3-10.6c-.6-1.4-1.5-2.3-2.8-2.9s-2.7-.6-4-.1-2.3 1.5-2.8 2.8c-.6 1.3-.5 2.7 0 4.1l4.2 10.2zM1913.8-344c-1.3 2.7-3.3 4.5-6 5.4-2.7.9-5.4.7-8-.6-2.6-1.3-4.4-3.4-5.3-6.1-1-2.8-.8-5.5.4-8.1s3.2-4.4 5.9-5.3 5.4-.7 8 .6c2.6 1.3 4.4 3.4 5.3 6.1l3 8.6c.1.4.1.8-.1 1.2s-.5.6-.8.8-.8.1-1.1-.1c-.4-.2-.6-.5-.8-.9l-.5-1.6zm-11.9-11.8c-1.9.7-3.4 1.9-4.2 3.8-.8 1.9-1 3.8-.3 5.8s2 3.5 3.8 4.4c1.8.9 3.7 1.1 5.7.4 1.9-.7 3.4-1.9 4.2-3.8.9-1.9 1-3.8.3-5.8s-2-3.5-3.8-4.4c-1.9-1-3.8-1.1-5.7-.4zM1935.1-352.8c.4-.1.8-.1 1.1.1.4.2.6.5.7.9.1.4.1.8-.1 1.2-1.3 2.2-3.2 3.7-5.7 4.5-2.7.8-5.4.6-7.9-.8-2.6-1.4-4.3-3.5-5.1-6.3-.9-2.8-.6-5.5.7-8.1 1.3-2.6 3.4-4.3 6.1-5.2 2.5-.8 4.9-.6 7.2.5.4.2.7.5.8 1 .1.4.1.8-.1 1.2s-.5.6-.9.7c-.3.1-.7.1-1 0-1.7-.8-3.4-.9-5.2-.4-2 .6-3.4 1.8-4.4 3.7-.9 1.8-1.1 3.8-.5 5.8s1.8 3.5 3.7 4.5c1.8 1 3.7 1.2 5.7.6 1.8-.5 3.1-1.6 4.1-3.2.2-.4.4-.6.8-.7zM1936.4-368.4c-.1-.4-.1-.8.1-1.2.2-.4.5-.6.9-.7s.8-.1 1.1.1c.4.2.6.5.7.9l.5 1.6c1.4-2.6 3.5-4.3 6.3-5.1 1.4-.4 2.7-.5 4-.3.2 0 .5.1.7.2.4.2.6.5.7.9s.1.8-.1 1.2c-.2.4-.5.6-.9.7-.2.1-.4.1-.7 0-.9-.1-1.9-.1-2.9.2-2 .6-3.5 1.7-4.5 3.6-1 1.8-1.2 3.7-.6 5.8l2.5 8.8c.1.4.1.8-.1 1.2-.2.4-.5.6-.9.7-.4.1-.8.1-1.1-.1-.4-.2-.6-.5-.7-.9l-5-17.6zM1977.2-369.8c.7 2.9.3 5.5-1.1 8.1-1.5 2.5-3.6 4.1-6.4 4.8s-5.4.3-7.9-1.2-4.1-3.7-4.8-6.6c-.7-2.9-.3-5.5 1.1-8.1 1.5-2.5 3.6-4.1 6.4-4.8s5.4-.3 7.9 1.2c2.5 1.6 4.1 3.8 4.8 6.6zm-11.9-4.8c-2 .5-3.5 1.6-4.6 3.4-1 1.8-1.3 3.7-.8 5.8s1.7 3.6 3.4 4.7 3.6 1.4 5.6.9 3.5-1.6 4.6-3.4 1.3-3.7.8-5.8c-.5-2-1.7-3.6-3.4-4.7s-3.6-1.4-5.6-.9zM1984.7-371.5c-1.2-.2-2.1-.5-2.6-.8-1-.7-1.7-1.6-2-2.9s-.1-2.4.6-3.5c1.3-2.2 3.4-3.6 6.2-4.2 3-.7 5.9 0 8.6 2 .2.2.4.5.5.8.1.4 0 .8-.2 1.1-.2.4-.5.6-.9.7s-.7 0-1-.2-.5-.4-.6-.4c-1.7-1.1-3.6-1.5-5.6-1-2 .4-3.5 1.4-4.4 3-.2.4-.3.9-.2 1.4.2.6.5.9 1.1 1l9.6 1.1c1.2.2 2.1.5 2.6.8 1 .7 1.7 1.6 2 2.9s.1 2.4-.6 3.5c-1.3 2.2-3.4 3.6-6.2 4.2-3 .7-5.9 0-8.6-2-.2-.2-.4-.5-.5-.8-.1-.4 0-.8.2-1.1.2-.4.5-.6.9-.7s.7 0 1 .2.5.4.6.4c1.7 1.1 3.6 1.5 5.6 1 2-.4 3.5-1.4 4.4-3 .2-.4.3-.9.2-1.4-.2-.6-.5-.9-1.1-1l-9.6-1.1zM2005-375.8c-1.2-.2-2-.5-2.6-.9-1-.7-1.7-1.7-1.9-2.9-.2-1.2 0-2.4.7-3.5 1.4-2.2 3.5-3.5 6.3-4.1 3.1-.6 5.9.2 8.6 2.3.2.2.4.5.4.8.1.4 0 .8-.2 1.1-.2.3-.5.6-.9.6-.4.1-.7 0-1-.2s-.5-.4-.6-.5c-1.7-1.2-3.6-1.6-5.6-1.2s-3.5 1.3-4.5 2.9c-.2.4-.3.9-.2 1.4.1.6.5.9 1.1 1l9.6 1.3c1.2.2 2 .5 2.6.9 1 .7 1.7 1.7 1.9 2.9s0 2.4-.7 3.5c-1.4 2.2-3.5 3.5-6.3 4.1-3.1.6-5.9-.2-8.6-2.3-.2-.2-.4-.5-.4-.8-.1-.4 0-.8.2-1.1s.5-.6.9-.6c.4-.1.7 0 1 .2s.5.4.6.5c1.7 1.2 3.6 1.6 5.6 1.2s3.5-1.3 4.5-2.9c.2-.4.3-.9.2-1.4-.1-.6-.5-.9-1.1-1l-9.6-1.3zM2045.2-374.9c.4-.1.8 0 1.1.3.3.3.5.6.6 1s0 .8-.3 1.1c-.2.3-.6.5-1 .6-4.9.7-7.7-1.4-8.5-6.4l-1.6-10.5-1.5.2c-.4.1-.8 0-1.1-.3s-.5-.6-.6-1 0-.8.3-1.1c.2-.3.6-.5 1-.6l1.5-.2-1.1-7.5c-.1-.4 0-.8.3-1.1.2-.3.6-.5 1-.6s.8 0 1.1.3c.3.3.5.6.6 1l1.1 7.5 3-.4c.4-.1.8 0 1.1.3.3.3.5.6.6 1s0 .8-.3 1.1c-.2.3-.6.5-1 .6l-3 .4 1.6 10.5c.4 3 2.1 4.2 5.1 3.8zM2047.2-401.4c-.1-.4 0-.8.3-1.1s.6-.5 1-.6.8.1 1.1.3c.3.3.5.6.6 1l1.3 10.3c1.6-2.1 3.7-3.2 6.3-3.6 2.6-.3 5 .3 7.1 2 2.1 1.7 3.3 3.9 3.7 6.6l1.2 9.8c.1.4 0 .8-.3 1.1-.3.3-.6.5-1 .6-.4.1-.8-.1-1.1-.3-.3-.3-.5-.6-.6-1l-1.2-9.8c-.2-1.9-1.1-3.4-2.5-4.6-1.5-1.2-3.1-1.6-4.9-1.4s-3.3 1.1-4.4 2.6c-1.1 1.5-1.6 3.2-1.3 5.1l1.2 9.8c.1.4 0 .8-.3 1.1-.3.3-.6.5-1 .6-.4.1-.8-.1-1.1-.3-.3-.3-.5-.6-.6-1l-3.5-27.2zM2089.2-382.1c.4 0 .8.1 1.1.3.3.2.5.6.5 1s-.1.8-.3 1.1c-1.7 1.9-3.9 2.9-6.5 3.2-2.9.3-5.4-.5-7.6-2.4s-3.5-4.3-3.7-7.2c-.3-2.9.5-5.5 2.3-7.8s4.2-3.5 7-3.8c2.9-.3 5.4.5 7.6 2.4 2.2 1.9 3.5 4.3 3.7 7.2 0 .4-.1.8-.3 1.1-.3.3-.6.5-1 .5l-16.1 1.5c.4 1.4 1.2 2.6 2.4 3.7 1.6 1.3 3.4 1.9 5.4 1.7 1.8-.2 3.4-.9 4.6-2.2.2-.2.5-.3.9-.3zm.9-7.2c-.4-1.4-1.2-2.6-2.4-3.7-1.6-1.3-3.4-1.9-5.4-1.7-2 .2-3.7 1.1-5 2.7-1 1.2-1.5 2.6-1.7 4l14.5-1.3zM2129.2-380.9c0 .4-.1.8-.4 1.1-.3.3-.6.5-1 .5s-.8-.1-1.1-.4-.5-.6-.5-1.1l-.1-1.2c-1.8 1.9-3.9 2.9-6.5 3.1-2.7.1-5-.7-6.9-2.6-2-1.8-3-4.1-3.2-6.9l-.5-9.9c0-.4.1-.8.4-1.1.3-.3.6-.5 1-.5s.8.1 1.1.4c.3.3.5.6.5 1.1l.5 9.9c.1 1.9.8 3.5 2.2 4.7s3 1.9 4.8 1.8 3.4-.8 4.6-2.2c1.2-1.4 1.8-3 1.7-4.9l-.5-9.9c0-.4.1-.8.4-1.1.3-.3.6-.5 1-.5s.8.1 1.1.4c.3.3.5.6.5 1.1l.9 18.2zM2132.6-399.3c0-.4.1-.8.4-1.1.3-.3.6-.5 1-.5s.8.1 1.1.4c.3.3.4.6.5 1.1v1.2c1.8-1.9 4-2.8 6.6-2.9 2.7 0 4.9.9 6.9 2.8 1.9 1.9 2.9 4.2 3 6.9l.2 9.9c0 .4-.1.8-.4 1.1s-.6.5-1 .5-.8-.1-1.1-.4c-.3-.3-.4-.6-.5-1.1l-.2-9.9c0-1.9-.7-3.5-2-4.8-1.3-1.3-2.9-2-4.8-1.9-1.8 0-3.4.7-4.7 2.1-1.3 1.4-1.9 3-1.9 4.9l.2 9.9c0 .4-.1.8-.4 1.1-.3.3-.6.5-1 .5s-.8-.1-1.1-.4c-.3-.3-.4-.6-.5-1.1l-.3-18.3zM2157.7-399.6c0-.4.2-.8.5-1.1.3-.3.6-.4 1.1-.4s.8.2 1 .5c.2.3.4.7.4 1.1l-.3 18.3c0 .4-.2.8-.5 1.1-.3.3-.6.4-1.1.4s-.8-.2-1-.5c-.2-.3-.4-.7-.4-1.1l.3-18.3zm3.5-6.1c0 .5-.2 1-.6 1.3-.4.3-.8.5-1.3.5s-.9-.2-1.3-.6c-.4-.4-.5-.8-.5-1.4s.2-1 .6-1.3c.4-.4.8-.5 1.3-.5s.9.2 1.3.6c.3.5.5.9.5 1.4zM2176.5-380c-.3.3-.6.4-1.1.4s-.8-.2-1-.5c-.1-.1-.2-.2-.2-.4l-7.8-18.6c-.1-.2-.1-.4-.1-.6 0-.4.2-.8.5-1.1.3-.3.7-.4 1.1-.4.4 0 .8.2 1 .5.1.1.2.2.3.4l6.4 15.5 7.2-15.1c.1-.2.2-.3.3-.4.3-.3.6-.4 1-.4s.8.2 1 .5c.3.3.4.7.4 1.1 0 .2 0 .4-.1.6l-8.7 18.2c-.1.1-.2.3-.2.3zM2205.1-383.5c.4 0 .7.2 1 .5.3.3.4.7.4 1.1s-.2.8-.5 1.1c-2 1.6-4.3 2.3-6.9 2.2-2.9-.2-5.3-1.3-7.2-3.5s-2.8-4.8-2.6-7.7c.2-2.9 1.3-5.4 3.5-7.4 2.1-2 4.6-2.9 7.5-2.7 2.9.2 5.3 1.3 7.2 3.5s2.8 4.8 2.6 7.7c0 .4-.2.8-.5 1-.3.3-.7.4-1.1.4l-16.2-.9c.2 1.5.8 2.8 1.8 4 1.4 1.6 3.1 2.4 5.1 2.5 1.9.1 3.5-.4 4.9-1.5.4-.2.7-.3 1-.3zm2-6.9c-.2-1.5-.8-2.8-1.8-4-1.4-1.6-3.1-2.4-5.1-2.5-2.1-.1-3.8.5-5.4 1.9-1.1 1.1-1.9 2.3-2.3 3.7l14.6.9zM2214.9-397.5c0-.4.2-.8.5-1 .3-.3.7-.4 1.1-.4s.7.2 1 .5.4.7.3 1.1l-.1 1.7c2.2-2 4.8-2.8 7.7-2.6 1.4.1 2.7.5 3.9 1.1.2.1.4.3.6.4.3.3.4.7.3 1.1 0 .4-.2.8-.5 1-.3.3-.7.4-1.1.4-.2 0-.4-.1-.6-.2-.8-.5-1.8-.7-2.8-.8-2-.2-3.9.4-5.4 1.8s-2.4 3.1-2.6 5.2l-.8 9.1c0 .4-.2.8-.5 1-.3.3-.7.4-1.1.4s-.7-.2-1-.5-.4-.7-.3-1.1l1.4-18.2zM2236.5-386.3c-1.1-.6-1.8-1.1-2.2-1.6-.8-1-1.1-2.1-1-3.3s.7-2.3 1.7-3.1c2-1.7 4.4-2.3 7.2-2 3.1.3 5.6 1.9 7.5 4.7.2.3.2.6.2.9 0 .4-.2.8-.6 1-.3.3-.7.4-1.1.3-.4 0-.7-.2-.9-.5-.2-.3-.4-.5-.5-.6-1.3-1.6-2.9-2.6-5-2.8-2-.2-3.7.3-5.1 1.4-.3.3-.5.8-.6 1.3 0 .6.2 1 .8 1.3l8.7 4.1c1.1.6 1.8 1.1 2.2 1.6.8 1 1.1 2.1 1 3.3-.1 1.2-.7 2.3-1.7 3.1-2 1.7-4.4 2.3-7.2 2-3.1-.3-5.6-1.9-7.5-4.7-.2-.3-.2-.6-.2-.9 0-.4.2-.8.6-1 .3-.3.7-.4 1.1-.3.4 0 .7.2.9.5s.4.5.5.6c1.3 1.6 2.9 2.6 5 2.8s3.7-.3 5.1-1.4c.3-.3.5-.8.6-1.3 0-.6-.2-1-.8-1.3l-8.7-4.1zM2268.7-376.8c.4.1.7.3 1 .6.2.3.3.7.3 1.1-.1.4-.2.8-.6 1-2.1 1.4-4.5 2-7.1 1.6-2.8-.4-5.1-1.8-6.8-4.1-1.7-2.3-2.4-5-2-7.9s1.8-5.3 4.1-7c2.3-1.8 4.9-2.5 7.7-2.1 2.8.4 5.1 1.8 6.8 4.1 1.7 2.3 2.4 5 2 7.9-.1.4-.3.8-.6 1-.3.3-.7.4-1.1.3l-16-2.2c.1 1.5.6 2.9 1.5 4.1 1.2 1.7 2.9 2.6 4.9 2.9 1.8.3 3.5-.1 5-1.1.2-.2.5-.2.9-.2zm2.5-6.7c-.1-1.5-.6-2.9-1.5-4.1-1.2-1.7-2.9-2.6-4.9-2.9s-3.9.2-5.5 1.5c-1.2 1-2.1 2.1-2.6 3.5l14.5 2zM2298.9-369.5c.4.1.7.3 1 .6.3.3.3.7.2 1.1s-.3.7-.6 1c-.3.2-.7.3-1.1.3-4.9-.9-6.8-3.8-5.9-8.8l1.9-10.5-1.5-.3c-.4-.1-.7-.3-1-.6-.3-.3-.3-.7-.2-1.1s.3-.7.6-1c.3-.2.7-.3 1.1-.3l1.5.3 1.4-7.5c.1-.4.3-.7.6-1 .3-.2.7-.3 1.1-.3.4.1.7.3 1 .6.2.3.3.7.2 1.1l-1.4 7.5 2.9.5c.4.1.7.3 1 .6.2.3.3.7.2 1.1s-.3.7-.6 1c-.3.2-.7.3-1.1.3l-2.9-.5-1.9 10.5c-.6 3.1.5 4.8 3.5 5.4zM2324.9-372c-.6 2.9-2.1 5.1-4.5 6.8-2.4 1.6-5 2.1-7.8 1.6-2.8-.6-5-2.1-6.6-4.6s-2-5.1-1.4-8c.6-2.9 2.1-5.1 4.5-6.8 2.4-1.6 5-2.1 7.8-1.6 2.8.6 5 2.1 6.6 4.6s2 5.1 1.4 8zm-8.6-9.6c-2-.4-3.9-.1-5.6 1.1-1.7 1.2-2.8 2.8-3.2 4.8s-.1 4 1 5.7c1.1 1.7 2.7 2.8 4.7 3.3 2 .4 3.9.1 5.6-1.1s2.8-2.8 3.2-4.8c.4-2.1.1-4-1-5.7s-2.7-2.9-4.7-3.3zM2344.1-369.6l14.3-5c.3-.1.5-.1.8 0 .4.1.7.3.9.7.2.4.3.7.2 1.2-.1.4-.3.7-.7.9-.1.1-.2.1-.2.1l-9.8 3.4 6 12.1c.2.4.2.7.1 1.1-.1.4-.3.7-.7.9-.4.2-.7.3-1.1.2-.4-.1-.7-.3-.9-.7l-6.3-12.6-3.5 1.2-1.9 7.3c-.1.4-.3.7-.7.9-.4.2-.7.3-1.1.2-.4-.1-.7-.3-.9-.7s-.3-.7-.2-1.2l6.8-26.6c.1-.4.3-.7.7-.9.4-.2.7-.3 1.1-.2.4.1.7.3.9.7.2.4.3.7.2 1.2l-4 15.8zM2365.7-371.2c.1-.4.3-.7.7-.9.4-.2.7-.3 1.1-.1.4.1.7.3.9.7.2.4.2.8.1 1.2l-4.9 17.6c-.1.4-.3.7-.7.9s-.7.3-1.1.1c-.4-.1-.7-.3-.9-.7s-.2-.8-.1-1.2l4.9-17.6zm4.8-4.9c-.1.5-.4.9-.9 1.1-.5.3-.9.3-1.4.2-.5-.1-.9-.4-1.1-.9-.3-.5-.3-.9-.2-1.4s.4-.9.9-1.1c.5-.3.9-.3 1.4-.2s.9.4 1.1.9c.3.4.4.9.2 1.4zM2393.7-372.5c.1-.4.4-.7.7-.9.4-.2.7-.2 1.1-.1.4.1.7.4.9.7.2.4.2.8.1 1.2l-5.3 17.5c-.9 2.8-2.6 4.9-5.1 6.3s-5.2 1.7-7.9.9c-2.7-.8-4.8-2.5-6.1-5.1s-1.6-5.3-.7-8.1c.9-2.8 2.6-4.9 5.1-6.3s5.2-1.7 7.9-.9c2.7.8 4.8 2.5 6.1 5.1v.1l3.2-10.4zm-5.3 17.5c.6-2 .4-3.9-.5-5.8-1-1.8-2.4-3.1-4.4-3.7s-3.9-.4-5.7.6-3 2.5-3.6 4.5c-.6 2-.4 3.9.5 5.8 1 1.8 2.4 3.1 4.4 3.7s3.9.4 5.7-.6c1.8-.9 3-2.4 3.6-4.5zM2398.5-351.7c-.9-.8-1.5-1.4-1.8-2-.5-1.1-.6-2.3-.2-3.5s1.2-2.1 2.4-2.7c2.3-1.2 4.8-1.3 7.5-.4 2.9 1 5.1 3 6.3 6.2.1.3.1.6 0 .9-.1.4-.4.7-.8.9-.4.2-.7.2-1.1.1s-.7-.4-.8-.7c-.1-.3-.3-.6-.3-.7-.9-1.9-2.3-3.1-4.3-3.8-1.9-.7-3.7-.6-5.3.3-.4.3-.7.6-.8 1.1-.2.6 0 1.1.5 1.4l7.7 5.9c.9.8 1.5 1.4 1.8 2 .5 1.1.6 2.3.2 3.5s-1.2 2.1-2.4 2.7c-2.3 1.2-4.8 1.3-7.5.4-3-1-5.1-3.1-6.3-6.2-.1-.3-.1-.6 0-.9.1-.4.4-.7.8-.9.4-.2.7-.2 1.1-.1s.7.4.8.7c.1.3.3.6.3.7.9 1.9 2.3 3.1 4.3 3.8 1.9.7 3.7.6 5.3-.3.4-.3.7-.6.8-1.1.2-.6 0-1.1-.5-1.4l-7.7-5.9zM2440.1-328.7c-2.7 1.2-5.4 1.3-8.1.3s-4.6-2.9-5.7-5.6-1.2-5.4-.1-8.1c1.1-2.7 2.9-4.7 5.6-5.9 2.6-1.2 5.3-1.3 8-.3s4.6 2.9 5.7 5.6 1.2 5.4.1 8.1l-3.3 8.5c-.2.4-.4.7-.8.8-.4.2-.8.2-1.1 0-.4-.1-.7-.4-.8-.8-.2-.4-.2-.8 0-1.2l.5-1.4zm-1.5-16.7c-1.9-.7-3.8-.7-5.7.2-1.9.9-3.2 2.3-4 4.2-.8 2-.7 3.9.1 5.8.8 1.9 2.2 3.2 4.1 4 1.9.8 3.8.7 5.7-.2 1.9-.9 3.2-2.3 4-4.2.8-2 .7-3.9-.1-5.8-.8-1.9-2.2-3.3-4.1-4zM2456.2-349.9c.2-.4.4-.7.8-.8.4-.2.8-.2 1.1 0 .4.2.6.4.8.8.2.4.2.8 0 1.2l-9.9 23.9 1.4.6c.4.2.6.4.8.8.2.4.2.8 0 1.2-.2.4-.4.7-.8.8-.4.2-.8.2-1.1 0l-2.7-1.1c-.4-.2-.6-.4-.8-.8s-.2-.8 0-1.2l10.4-25.4zM2465.5-346c.2-.4.4-.7.8-.8.4-.2.8-.2 1.1 0 .3.2.6.4.8.8.2.4.1.8 0 1.2L2458-321l1.4.6c.4.2.6.4.8.8.1.4.1.8 0 1.2s-.4.7-.8.8c-.4.2-.8.2-1.1 0l-2.7-1.2c-.4-.2-.6-.4-.8-.8-.1-.4-.1-.8 0-1.2l10.7-25.2zM2491.5-305.9c-2.8 1-5.5.9-8.1-.3-2.6-1.2-4.4-3.2-5.3-6-.9-2.8-.8-5.5.5-8.1 1.3-2.6 3.3-4.5 6-5.5s5.4-.9 8 .3c2.6 1.2 4.4 3.2 5.3 6 .9 2.8.8 5.5-.5 8.1l-3.9 8.3c-.2.4-.5.6-.9.8-.4.1-.8.1-1.1 0-.4-.2-.6-.5-.8-.9-.1-.4-.1-.8.1-1.2l.7-1.5zm-.3-16.8c-1.9-.9-3.8-1-5.7-.2-1.9.7-3.4 2-4.3 3.9s-1 3.8-.3 5.8 1.9 3.4 3.8 4.3 3.8 1 5.7.2c1.9-.7 3.4-2 4.3-3.9s1-3.8.3-5.8c-.6-2-1.9-3.5-3.8-4.3zM2505.1-317.8c.2-.4.5-.6.9-.8s.8-.1 1.1.1c.4.2.6.5.7.9.1.4.1.8-.1 1.2l-.8 1.5c2.8-1 5.5-.8 8.1.5 1.3.7 2.4 1.5 3.2 2.5.2.2.3.4.4.6.1.4.1.8-.1 1.2-.2.4-.5.6-.9.8-.4.1-.8.1-1.1-.1-.2-.1-.4-.2-.5-.4-.6-.7-1.4-1.3-2.3-1.8-1.8-.9-3.7-1.1-5.7-.4s-3.4 1.9-4.4 3.8l-4.1 8.1c-.2.4-.5.6-.9.8-.4.1-.8.1-1.1-.1-.4-.2-.6-.5-.7-.9-.1-.4-.1-.8.1-1.2l8.2-16.3zM2536-291.1c-1.4 2.6-3.5 4.3-6.3 5.2s-5.4.6-7.9-.8-4.2-3.5-5-6.3c-.8-2.8-.5-5.5.9-8.1s3.5-4.3 6.3-5.2c2.8-.9 5.4-.6 7.9.8s4.2 3.5 5 6.3c.8 2.8.5 5.5-.9 8.1zm-5.5-11.6c-1.8-1-3.7-1.2-5.7-.6s-3.5 1.8-4.5 3.7c-1 1.9-1.2 3.8-.7 5.8.6 2 1.7 3.5 3.5 4.5s3.7 1.2 5.7.6 3.5-1.8 4.5-3.7 1.2-3.8.7-5.8-1.7-3.6-3.5-4.5zM2551.6-271.5c-.2.4-.5.6-.9.7s-.8.1-1.1-.1c-.3-.2-.6-.5-.7-.9-.1-.4 0-.8.2-1.1l.6-1.1c-2.5.7-4.9.3-7.2-1s-3.8-3.3-4.4-6c-.6-2.7-.3-5.1 1.1-7.5l5-8.5c.2-.4.5-.6.9-.7.4-.1.8-.1 1.1.1.4.2.6.5.7.9s0 .8-.2 1.1l-5 8.5c-1 1.6-1.2 3.4-.8 5.2.5 1.8 1.5 3.2 3.1 4.1 1.6.9 3.3 1.1 5.1.7 1.8-.5 3.2-1.6 4.1-3.2l5-8.5c.2-.4.5-.6.9-.7.4-.1.8-.1 1.1.1.3.2.6.5.7.9.1.4 0 .8-.2 1.1l-9.1 15.9zM2564.5-285c.2-.4.5-.6.9-.7.4-.1.8 0 1.1.2s.6.5.7.9 0 .8-.2 1.1l-.7 1c2.5-.6 4.9-.2 7.1 1.2 2.3 1.4 3.7 3.4 4.2 6.1.6 2.6.1 5.1-1.3 7.4l-5.3 8.4c-.2.4-.5.6-.9.7s-.8 0-1.1-.2c-.3-.2-.6-.5-.7-.9-.1-.4 0-.8.2-1.1l5.3-8.4c1-1.6 1.3-3.3.9-5.1s-1.4-3.2-2.9-4.2c-1.6-1-3.3-1.2-5.1-.8s-3.2 1.5-4.2 3.1l-5.3 8.4c-.2.4-.5.6-.9.7-.4.1-.8 0-1.1-.2s-.6-.5-.7-.9 0-.8.2-1.1l9.8-15.6zM2604.4-270.2c.2-.3.6-.6 1-.7.4-.1.8 0 1.1.2.3.2.5.5.6 1 .1.4 0 .8-.2 1.1l-10.2 15.2c-1.6 2.4-3.9 4-6.7 4.6-2.8.6-5.5.1-7.8-1.5s-3.8-3.8-4.4-6.7c-.5-2.9 0-5.5 1.7-8s3.9-4 6.7-4.6 5.5-.1 7.8 1.5 3.8 3.8 4.4 6.7v.1l6-8.9zm-10.2 15.3c1.2-1.8 1.6-3.6 1.2-5.7-.4-2-1.4-3.6-3.1-4.8-1.7-1.1-3.6-1.5-5.6-1.1s-3.6 1.5-4.8 3.3c-1.2 1.8-1.6 3.6-1.2 5.7.4 2 1.4 3.6 3.1 4.8 1.7 1.1 3.6 1.5 5.6 1.1 2-.5 3.6-1.6 4.8-3.3zM2613.8-231.7c.3.2.5.6.6 1 .1.4 0 .8-.3 1.1-.2.3-.6.5-1 .6-.4.1-.8 0-1.1-.3-4-2.9-4.5-6.4-1.5-10.5l6.3-8.6-1.2-.9c-.3-.2-.5-.6-.6-1-.1-.4 0-.8.3-1.1.2-.3.6-.5 1-.6.4-.1.8 0 1.1.3l1.2.9 4.5-6.2c.2-.3.6-.5 1-.6s.8 0 1.1.3c.3.2.5.6.6 1 .1.4 0 .8-.3 1.1l-4.5 6.2 2.4 1.8c.3.2.5.6.6 1s0 .8-.3 1.1c-.2.3-.6.5-1 .6s-.8 0-1.1-.3l-2.4-1.8-6.3 8.6c-1.8 2.5-1.5 4.6.9 6.3zM2633.8-249.1c.3-.3.6-.5 1-.6s.8 0 1.1.3c.3.2.5.6.6 1 0 .4-.1.8-.3 1.1l-6.3 8.2c2.6-.3 4.9.3 7 1.9 2.1 1.6 3.3 3.8 3.6 6.5.3 2.7-.4 5.1-2 7.3l-6 7.9c-.3.3-.6.5-1 .6-.4.1-.8 0-1.1-.3-.3-.2-.5-.6-.6-1 0-.4.1-.8.3-1.1l6-7.9c1.2-1.5 1.6-3.2 1.4-5s-1.1-3.3-2.5-4.5c-1.5-1.1-3.1-1.6-5-1.3s-3.4 1.2-4.5 2.7l-6 7.9c-.3.3-.6.5-1 .6s-.8 0-1.1-.3c-.3-.2-.5-.6-.6-1s.1-.8.3-1.1l16.7-21.9zM2650.2-205.9c.3.3.5.6.5 1s-.1.8-.3 1.1-.6.5-1 .6c-2.6.1-4.9-.7-6.9-2.3-2.2-1.8-3.5-4.2-3.7-7.1-.3-2.9.6-5.5 2.4-7.8s4.2-3.6 7.1-3.9c2.9-.3 5.4.4 7.7 2.2 2.2 1.8 3.5 4.2 3.7 7.1.3 2.9-.6 5.5-2.4 7.8-.3.3-.6.5-1 .6-.4 0-.8-.1-1.1-.3l-12.5-10.3c-.7 1.3-1 2.7-.9 4.3.2 2.1 1.1 3.7 2.7 5 1.4 1.2 3.1 1.7 4.9 1.6.2.1.5.2.8.4zm5.6-4.4c.7-1.3 1-2.7.9-4.3-.2-2.1-1.1-3.8-2.7-5-1.6-1.3-3.4-1.8-5.5-1.6-1.5.2-2.9.7-4 1.7l11.3 9.2zM2685.6-196c.4 0 .8.1 1.1.4.3.3.5.6.5 1 0 .3-.1.5-.2.8l-6 13.3 12.9-7.4c.2-.1.3-.1.5-.1.4 0 .8.1 1.1.4.3.3.5.6.5 1s-.1.8-.4 1.1c-.1.2-.3.3-.5.4l-16.6 9.6c-.2.1-.4.2-.6.2-.4 0-.8-.1-1.1-.4-.3-.3-.5-.6-.5-1 0-.2 0-.5.1-.6l6-13.4-12.8 7.3c-.2.1-.4.2-.6.2-.4 0-.8-.1-1.1-.4-.3-.3-.5-.6-.5-1 0-.2 0-.5.1-.6l7.8-17.5c.1-.2.2-.4.3-.5.3-.3.6-.5 1-.5s.8.1 1.1.4c.3.3.5.6.5 1 0 .2 0 .4-.1.5l-6.1 13.5 12.6-7.3c.4-.3.7-.4 1-.4zM2707.3-161.5c-2 2.1-4.5 3.2-7.4 3.3-2.9.1-5.4-.9-7.5-2.9-2.1-2-3.1-4.5-3.1-7.4s1-5.4 3.1-7.5c2-2.1 4.5-3.2 7.4-3.3s5.4.9 7.5 2.9 3.1 4.5 3.1 7.4c-.1 2.9-1.1 5.4-3.1 7.5zm-2.2-12.7c-1.5-1.4-3.2-2.1-5.3-2.1-2.1.1-3.8.8-5.3 2.4-1.5 1.5-2.2 3.3-2.2 5.4s.7 3.8 2.2 5.3c1.5 1.4 3.2 2.1 5.3 2.1 2.1-.1 3.8-.8 5.3-2.4 1.5-1.5 2.2-3.3 2.2-5.4 0-2.1-.7-3.9-2.2-5.3zM2716.6-165c.3-.3.7-.4 1.1-.4s.8.1 1.1.4c.3.3.4.6.4 1.1 0 .4-.2.8-.5 1.1l-1.2 1.2c3 0 5.5 1 7.5 3.1 1 1 1.8 2.2 2.2 3.4.1.2.1.5.1.7 0 .4-.2.8-.5 1.1-.3.3-.7.4-1.1.4s-.8-.1-1.1-.4c-.2-.2-.3-.4-.3-.6-.3-.9-.9-1.7-1.6-2.5-1.4-1.5-3.2-2.2-5.3-2.2s-3.9.7-5.4 2.2l-6.5 6.4c-.3.3-.7.4-1.1.4s-.8-.1-1.1-.4c-.3-.3-.4-.6-.4-1.1 0-.4.2-.8.5-1.1l13.2-12.8zM2736.5-157.6c.3-.3.7-.4 1.1-.4.4 0 .8.2 1 .5.2.3.4.7.4 1.1 0 .4-.2.8-.5 1.1l-18.8 17.8 1 1.1c.3.3.4.7.4 1.1 0 .4-.2.8-.5 1.1-.3.3-.7.4-1.1.4s-.8-.2-1-.5l-2-2.2c-.3-.3-.4-.7-.4-1.1s.2-.8.5-1.1l19.9-18.9zM2755.6-137c.3-.3.7-.4 1.1-.4s.8.2 1 .5c.3.3.4.7.4 1.1 0 .4-.2.8-.5 1l-13.6 12.3c-2.2 2-4.7 2.9-7.6 2.8-2.9-.1-5.3-1.2-7.2-3.4-1.9-2.1-2.8-4.6-2.6-7.5.2-2.9 1.4-5.3 3.6-7.3s4.7-2.9 7.6-2.8c2.9.1 5.3 1.2 7.2 3.4s2.8 4.6 2.6 7.5v.1l8-7.3zm-13.6 12.3c1.6-1.4 2.4-3.2 2.5-5.2s-.5-3.9-1.9-5.4c-1.4-1.5-3.1-2.3-5.2-2.4-2.1-.1-3.9.6-5.5 2s-2.4 3.2-2.5 5.2c-.1 2.1.5 3.9 1.9 5.4s3.1 2.3 5.2 2.4c2.1.1 3.9-.6 5.5-2z"/></g></svg>