<svg id="Layer_2" data-name="Layer 2" xmlns="http://www.w3.org/2000/svg" viewBox="0 0 2453 2453"><defs><style>.cls-1{fill:#03709c;}</style></defs><title>SS_bottom slogan_TR</title><g id="TR"><path class="cls-1" d="M547.26 774.67l10-15.85a1.56 1.56 0 0 1 2.64 1.67L550.74 775l9.25 5.84 6.67-10.57a1.56 1.56 0 0 1 2.64 1.73l-6.67 10.57 9.25 5.84 9.18-14.53a1.56 1.56 0 0 1 2.64 1.67l-10 15.85a1.57 1.57 0 0 1-2.16.49l-23.78-15a1.57 1.57 0 0 1-.5-2.22z"/><path class="cls-1" d="M590 765.25a1.51 1.51 0 0 1-.26 1.16 1.47 1.47 0 0 1-1 .68 1.08 1.08 0 0 1-.45 0l-20.52-3.29a1.52 1.52 0 0 1-.57-.24 1.57 1.57 0 0 1-.43-2.17 1.56 1.56 0 0 1 1-.68 1.79 1.79 0 0 1 .5 0l17 2.76-9.06-14.71a1.57 1.57 0 0 1 1.06-2.31 1.51 1.51 0 0 1 1.17.23 1.53 1.53 0 0 1 .44.43l10.88 17.71a1.34 1.34 0 0 1 .24.43zM580.51 743.83a1.56 1.56 0 0 1 1.81-2.55l1.4 1a10.67 10.67 0 0 1 1.84-8.27 11 11 0 0 1 3.07-3 2 2 0 0 1 .71-.29 1.56 1.56 0 0 1 1.17.28 1.57 1.57 0 0 1-.15 2.65 7.74 7.74 0 0 0-2.24 2.15 7.8 7.8 0 0 0 1.88 10.91l7.65 5.42a1.56 1.56 0 0 1-1.81 2.55zM613.76 723.71a1.57 1.57 0 0 1 2.19-.31 1.55 1.55 0 0 1 .62 1 10.94 10.94 0 1 1-4.34-8 1.57 1.57 0 0 1 .31 2.19l-10.25 13.63a7.85 7.85 0 0 0 9.61-2.38 7.37 7.37 0 0 0 1.55-5.14 1.55 1.55 0 0 1 .31-.99zm-4.76-5.65a7.84 7.84 0 0 0-9.23 12.27zM606.91 708a1.56 1.56 0 0 1 2-2.44l1 .79a10.16 10.16 0 0 1 16.47-8.82l7.92 6.36a1.56 1.56 0 0 1-2 2.44l-7.94-6.33a7 7 0 0 0-8.8 11l7.92 6.36a1.56 1.56 0 0 1-2 2.44zM620.31 681.63a2 2 0 1 1-1.43-.44 1.88 1.88 0 0 1 1.43.44zm2.53 6.71a1.56 1.56 0 0 1 2-2.4l14.37 12a1.56 1.56 0 0 1-2 2.4zM628 682.12a1.56 1.56 0 0 1 2.06-2.35l1 .83a10.16 10.16 0 0 1 16.83-8.12l7.65 6.68a1.56 1.56 0 0 1-2.06 2.35l-7.65-6.68a7 7 0 0 0-9.26 10.59l7.65 6.68a1.56 1.56 0 0 1-2.06 2.35zM645 649a1.56 1.56 0 0 1 2.16-2.26l7.69 7.36a10.16 10.16 0 0 1 17.15-7.39l7.34 7a1.56 1.56 0 0 1-2.16 2.26l-7.34-7a7 7 0 0 0-9.72 10.16l7.34 7a1.56 1.56 0 0 1-2.16 2.26zM690.91 637.08a1.57 1.57 0 0 1 2.21 0 1.55 1.55 0 0 1 .46 1.11 10.94 10.94 0 1 1-3.1-8.59 1.57 1.57 0 0 1 0 2.21l-12.18 11.96a7.85 7.85 0 0 0 9.86-.92 7.37 7.37 0 0 0 2.3-4.85 1.55 1.55 0 0 1 .45-.92zm-3.85-6.29a7.84 7.84 0 0 0-11 10.75zM686.48 620.54a1.56 1.56 0 0 1 2.29-2.13l1.17 1.26a10.67 10.67 0 0 1 3.49-7.72 11 11 0 0 1 3.61-2.28 2 2 0 0 1 .75-.14 1.55 1.55 0 0 1 1.09.51 1.56 1.56 0 0 1-.69 2.56 7.76 7.76 0 0 0-2.63 1.64 7.8 7.8 0 0 0-.41 11l6.38 6.87a1.56 1.56 0 0 1-2.29 2.13zM716.49 603.16L721 588a1.53 1.53 0 0 1 .49-.72 1.56 1.56 0 0 1 2.57 1.3 2.61 2.61 0 0 1 0 .29L721 599.24l13.87 1.92a1.57 1.57 0 0 1 1 .55 1.57 1.57 0 0 1-.17 2.2 1.58 1.58 0 0 1-1.17.38l-14.48-2-1.14 3.71 5 5.9a1.56 1.56 0 0 1-2.38 2l-18.27-21.39a1.56 1.56 0 0 1 2.38-2zM727.85 576a2 2 0 1 1-1.31-.71 1.88 1.88 0 0 1 1.31.71zm20.45 3.59a10.94 10.94 0 1 1-7.35-4 10.54 10.54 0 0 1 7.35 4zm-13.15-9.47a2 2 0 1 1-1.31-.71 1.88 1.88 0 0 1 1.31.71zm-.27 10.25a7.8 7.8 0 1 0 5.74-1.69 7.53 7.53 0 0 0-5.74 1.69zM753.94 575.3a6.91 6.91 0 0 1-2.81.39 4.47 4.47 0 0 1-3.1-1.79 4.63 4.63 0 0 1-.89-3.57 9.82 9.82 0 0 1 4.12-6.73 10.87 10.87 0 0 1 9.06-1.95 1.3 1.3 0 0 1 .79.55 1.57 1.57 0 0 1-.3 2.19 1.36 1.36 0 0 1-1.07.3l-.81-.12a7.52 7.52 0 0 0-5.78 1.52 6.81 6.81 0 0 0-2.9 4.75 2 2 0 0 0 .44 1.36 1.34 1.34 0 0 0 1.52.42l9.58-3.27a6.92 6.92 0 0 1 2.81-.39 4.47 4.47 0 0 1 3.1 1.79 4.63 4.63 0 0 1 .89 3.57 9.82 9.82 0 0 1-4.12 6.73 10.83 10.83 0 0 1-9.07 1.95 1.54 1.54 0 0 1-.79-.55 1.57 1.57 0 0 1 .3-2.19 1.36 1.36 0 0 1 1.07-.3l.81.13a7.53 7.53 0 0 0 5.78-1.52 6.81 6.81 0 0 0 2.9-4.75 2 2 0 0 0-.44-1.36 1.34 1.34 0 0 0-1.52-.42zm8.83 5.63a1.56 1.56 0 0 1 2.79-.72 1.71 1.71 0 0 1 .19.32l.44 1.13a5.27 5.27 0 0 1 1.56-.18 3.8 3.8 0 0 1 3.53 4.67 4.91 4.91 0 0 1-1.92 2.94 4.72 4.72 0 0 1-2.12.89l-2.05.23a1.67 1.67 0 0 1-1.34-.63 1.57 1.57 0 0 1 .3-2.19 1.54 1.54 0 0 1 .81-.32l1.78-.17a1.62 1.62 0 0 0 .72-.3 2.18 2.18 0 0 0 .72-.88.78.78 0 0 0-.86-1.14 2.18 2.18 0 0 0-1 .46 1.57 1.57 0 0 1-2.19-.3 1.59 1.59 0 0 1-.24-.45l-1-2.59a1.62 1.62 0 0 1-.12-.77zM784.52 559.8a1.57 1.57 0 0 1 2.18.37 1.55 1.55 0 0 1 .28 1.17 10.95 10.95 0 1 1-1.72-9 1.57 1.57 0 0 1-.36 2.18l-13.9 9.93a7.85 7.85 0 0 0 9.88.63 7.37 7.37 0 0 0 3-4.44 1.56 1.56 0 0 1 .64-.84zm-2.82-6.8a7.84 7.84 0 0 0-12.5 8.91zM791.14 548.41a6.9 6.9 0 0 1-2.83.23 4.47 4.47 0 0 1-3-2 4.63 4.63 0 0 1-.68-3.61 9.82 9.82 0 0 1 4.5-6.47 10.86 10.86 0 0 1 9.16-1.41 1.3 1.3 0 0 1 .75.6 1.57 1.57 0 0 1-.43 2.17 1.36 1.36 0 0 1-1.09.23l-.8-.17a7.52 7.52 0 0 0-5.86 1.18 6.81 6.81 0 0 0-3.17 4.57 2 2 0 0 0 .36 1.38 1.34 1.34 0 0 0 1.49.51l9.76-2.7a6.9 6.9 0 0 1 2.83-.23 4.47 4.47 0 0 1 3 2 4.63 4.63 0 0 1 .68 3.61 9.82 9.82 0 0 1-4.5 6.47 10.83 10.83 0 0 1-9.16 1.41 1.54 1.54 0 0 1-.75-.6 1.57 1.57 0 0 1 .43-2.17 1.36 1.36 0 0 1 1.09-.24l.8.17a7.53 7.53 0 0 0 5.86-1.18 6.81 6.81 0 0 0 3.17-4.57 2 2 0 0 0-.36-1.38 1.34 1.34 0 0 0-1.49-.51zM801.1 523.16a2 2 0 1 1-1.23-.85 1.88 1.88 0 0 1 1.23.85zm.42 7.16a1.56 1.56 0 0 1 2.63-1.69l10.13 15.78a1.56 1.56 0 0 1-2.63 1.69zM808.29 525.92a1.56 1.56 0 0 1 2.67-1.63l.66 1.08a10.16 10.16 0 0 1 18.48-2.73l5.3 8.66a1.56 1.56 0 0 1-2.67 1.63l-5.3-8.66a7 7 0 0 0-12 7.34l5.3 8.66a1.56 1.56 0 0 1-2.67 1.63zM840.28 496a1.56 1.56 0 0 1 2.71-1.55l9.31 16.32a10.94 10.94 0 1 1-6.61-5.13h.11zm9.31 16.32a7.8 7.8 0 1 0 .75 5.93 7.53 7.53 0 0 0-.75-5.89zM872.76 506.32a1.57 1.57 0 0 1 2.11.65 1.55 1.55 0 0 1 .12 1.19 10.95 10.95 0 1 1-.51-9.12 1.57 1.57 0 0 1-.65 2.11l-15.08 8a7.85 7.85 0 0 0 9.71 1.94 7.37 7.37 0 0 0 3.59-4 1.55 1.55 0 0 1 .71-.77zm-1.89-7.13a7.84 7.84 0 0 0-13.58 7.17zM873.27 489.16a1.56 1.56 0 0 1 2.81-1.37l.56 1.14a10.16 10.16 0 0 1 18.66-1l4.46 9.13a1.56 1.56 0 0 1-2.81 1.37l-4.46-9.13a7 7 0 0 0-12.64 6.17l4.46 9.13a1.56 1.56 0 0 1-2.81 1.4zM920.05 487.92L906 474.39a1.57 1.57 0 0 1 .36-2.65 1.55 1.55 0 0 1 1.2 0 1.77 1.77 0 0 1 .57.39L920 483.5l-.24-16.44a1.65 1.65 0 0 1 .12-.69 1.49 1.49 0 0 1 .82-.85 1.56 1.56 0 0 1 2.18 1.54l.45 30.25a1.59 1.59 0 0 1-.11.67 1.56 1.56 0 0 1-2 .89 1.51 1.51 0 0 1-.86-.83 1.52 1.52 0 0 1-.13-.73zM947.28 472.62a1.57 1.57 0 0 1 2 .87 1.55 1.55 0 0 1 0 1.2 10.94 10.94 0 1 1 .47-9.12 1.57 1.57 0 0 1-.87 2l-15.84 6.31a7.85 7.85 0 0 0 9.44 3 7.37 7.37 0 0 0 4-3.59 1.55 1.55 0 0 1 .8-.67zm-1.12-7.29A7.84 7.84 0 0 0 931.9 471zM949.62 455.61a1.56 1.56 0 0 1 2.94-1.06l.43 1.19a10.16 10.16 0 0 1 18.65 1l3.46 9.55a1.56 1.56 0 0 1-2.94 1.06l-3.46-9.55a7 7 0 0 0-13.22 4.79l3.46 9.55a1.56 1.56 0 0 1-2.94 1.07zM974.76 440.09a2 2 0 1 1-1-1.12 1.88 1.88 0 0 1 1 1.12zm-1.33 7a1.56 1.56 0 0 1 3-1l6 17.76a1.56 1.56 0 0 1-3 1zM989.75 431.89a1.56 1.56 0 0 1 3-.89l3 10.2a10.16 10.16 0 0 1 18.56 2.11l2.9 9.73a1.56 1.56 0 0 1-3 .89l-2.9-9.73a7 7 0 0 0-13.48 4l2.9 9.73a1.56 1.56 0 0 1-3 .89zM1037.79 445.77a10.67 10.67 0 0 1-6.72 5.17 10.94 10.94 0 1 1 7.78-13.37l2.39 9.06a1.56 1.56 0 0 1-3 .8zm-11.5-13a7.8 7.8 0 1 0 5.93.8 7.53 7.53 0 0 0-5.93-.76zM1043.34 428.64l.06-.09a10.94 10.94 0 1 1-1.39 8.25l-4.2-18.31a1.56 1.56 0 0 1 3-.7zm11.08 13.36a7.8 7.8 0 1 0-5.9-1 7.53 7.53 0 0 0 5.9 1zM1084.22 433.5a1.57 1.57 0 0 1 1.83 1.23 1.55 1.55 0 0 1-.23 1.18A10.94 10.94 0 1 1 1088 427a1.57 1.57 0 0 1-1.23 1.83l-16.77 3.31a7.85 7.85 0 0 0 8.73 4.66 7.37 7.37 0 0 0 4.59-2.79 1.56 1.56 0 0 1 .9-.51zm.25-7.37a7.84 7.84 0 0 0-15.07 2.95zM1089.62 417.25a1.56 1.56 0 0 1 3.08-.51l.28 1.7a10.67 10.67 0 0 1 7.17-4.52 11 11 0 0 1 4.27.08 2 2 0 0 1 .7.3 1.55 1.55 0 0 1 .63 1 1.56 1.56 0 0 1-2 1.76 7.75 7.75 0 0 0-3.1-.08 7.8 7.8 0 0 0-6.43 9l1.54 9.25a1.56 1.56 0 0 1-3.08.51zM1107 404.94a1.56 1.56 0 0 1 3.09-.46l3.88 26.28 1.55-.23a1.56 1.56 0 0 1 .46 3.09l-3.09.46a1.57 1.57 0 0 1-1.77-1.32zM1136.59 425.54a1.57 1.57 0 0 1 1.74 1.36 1.56 1.56 0 0 1-.31 1.16 10.95 10.95 0 1 1 2.75-8.71 1.57 1.57 0 0 1-1.36 1.74l-16.92 2.11a7.85 7.85 0 0 0 8.39 5.25 7.37 7.37 0 0 0 4.77-2.47 1.55 1.55 0 0 1 .94-.44zm.76-7.34a7.84 7.84 0 0 0-15.23 1.9zM1143.13 409.7a1.56 1.56 0 0 1 3.11-.3l.16 1.71a10.67 10.67 0 0 1 7.46-4 11 11 0 0 1 4.25.38 2 2 0 0 1 .68.35 1.56 1.56 0 0 1 .55 1.07 1.56 1.56 0 0 1-2.1 1.61 7.76 7.76 0 0 0-3.09-.29 7.8 7.8 0 0 0-7 8.53l.9 9.33a1.56 1.56 0 0 1-3.11.3zM1166.6 401.33a2 2 0 1 1-.68-1.33 1.88 1.88 0 0 1 .68 1.33zm-3 6.5a1.56 1.56 0 0 1 3.12-.24l1.46 18.69a1.56 1.56 0 0 1-3.12.24zM1201.91 396.24a1.56 1.56 0 0 1 3.12-.13l.77 18.77a10.94 10.94 0 1 1-3.52-7.6l.08.08zm.77 18.77a7.8 7.8 0 1 0-2.06 5.62 7.53 7.53 0 0 0 2.06-5.63zM1229.47 423.92a1.56 1.56 0 0 1-3.12.05v-1.27a10.16 10.16 0 0 1-17.3-7l-.16-10.15a1.56 1.56 0 0 1 3.12-.05l.16 10.15a7 7 0 0 0 14.06-.23l-.23-10.2a1.56 1.56 0 0 1 3.12-.05zm-13.29-24.79a2 2 0 1 1-.6-1.37 1.88 1.88 0 0 1 .59 1.37zm9.37-.15a2 2 0 1 1-.6-1.37 1.88 1.88 0 0 1 .6 1.39zM1232.77 405.25a1.56 1.56 0 0 1 3.12.06v1.27a10.16 10.16 0 0 1 17 7.66l-.2 10.15a1.56 1.56 0 0 1-3.12-.06l.2-10.15a7 7 0 0 0-14.06-.27l-.2 10.15a1.56 1.56 0 0 1-3.12-.06zM1263.33 424.85l-6.62-18.35a1.52 1.52 0 0 1-.14-.73 1.57 1.57 0 0 1 1.64-1.49 1.56 1.56 0 0 1 1.09.5 1.79 1.79 0 0 1 .34.6l5.59 15.46 7.05-14.85a1.65 1.65 0 0 1 .42-.57 1.49 1.49 0 0 1 1.11-.4 1.56 1.56 0 0 1 1.27 2.35l-13 27.33a1.59 1.59 0 0 1-.4.55 1.52 1.52 0 0 1-1.13.41 1.57 1.57 0 0 1-1.48-1.64 1.52 1.52 0 0 1 .21-.71zM1296.17 425.33a10.67 10.67 0 0 1-8 2.66 10.94 10.94 0 1 1 11.76-10l-.73 9.35a1.56 1.56 0 0 1-3.2-.34zm-6.58-16a7.8 7.8 0 1 0 5.33 2.71 7.53 7.53 0 0 0-5.33-2.75zM1304.15 408.94a1.56 1.56 0 0 1 3.11.34l-.14 1.26a10.16 10.16 0 0 1 16.28 9.16l-1.11 10.1a1.56 1.56 0 0 1-3.11-.34l1.11-10.1a7 7 0 0 0-14-1.54l-1.11 10.1a1.56 1.56 0 0 1-3.11-.34zM1329.27 411.85a1.56 1.56 0 0 1 3.1.41l-2.44 18.59a1.56 1.56 0 0 1-3.1-.41zM1337.27 412.86a1.56 1.56 0 0 1 3.09.47l-.19 1.25a10.16 10.16 0 0 1 15.88 9.84l-1.54 10a1.56 1.56 0 0 1-3.09-.47l1.54-10a7 7 0 0 0-13.9-2.13l-1.54 10a1.56 1.56 0 0 1-3.09-.47zM1374.41 409.43a1.56 1.56 0 0 1 3.06.61l-2.09 10.44A10.16 10.16 0 0 1 1390.8 431l-2 10a1.56 1.56 0 0 1-3.06-.61l2-10a7 7 0 0 0-13.79-2.76l-2 10a1.56 1.56 0 0 1-3.06-.61zM1409 441.8a1.57 1.57 0 0 1 1.17 1.88 1.56 1.56 0 0 1-.69 1 10.95 10.95 0 1 1 5.59-7.22 1.57 1.57 0 0 1-1.88 1.17l-16.61-3.87a7.85 7.85 0 0 0 6.06 7.83 7.37 7.37 0 0 0 5.33-.66 1.55 1.55 0 0 1 1.03-.13zm3.25-6.62a7.84 7.84 0 0 0-15-3.49zM1420.62 429.19a1.56 1.56 0 0 1 3 .8l-.44 1.66a10.67 10.67 0 0 1 8.39-1.18 11 11 0 0 1 3.86 1.83 2 2 0 0 1 .52.56 1.55 1.55 0 0 1 .15 1.19 1.56 1.56 0 0 1-2.53.79 7.76 7.76 0 0 0-2.8-1.34 7.8 7.8 0 0 0-9.54 5.57l-2.39 9.07a1.56 1.56 0 0 1-3-.8zM1452.37 457.54l-1.86-19.42a1.56 1.56 0 0 1 .81-1.66 1.5 1.5 0 0 1 1.19-.11 1.55 1.55 0 0 1 .93.76 1.78 1.78 0 0 1 .18.67l1.57 16.37 10.52-12.64a1.65 1.65 0 0 1 .55-.44 1.49 1.49 0 0 1 1.18-.11 1.56 1.56 0 0 1 .65 2.59l-19.36 23.26a1.59 1.59 0 0 1-.52.43 1.56 1.56 0 0 1-2.12-.64 1.5 1.5 0 0 1-.11-1.19 1.53 1.53 0 0 1 .38-.64zM1484 466.15a10.67 10.67 0 0 1-8.45.57 10.94 10.94 0 1 1 13.89-6.81l-3 8.87a1.56 1.56 0 0 1-3-1zm-2.35-17.15a7.8 7.8 0 1 0 4.49 4 7.53 7.53 0 0 0-4.49-4zM1495.85 452.27a1.56 1.56 0 0 1 2.92 1.1l-.45 1.19a10.16 10.16 0 0 1 13.49 12.93l-3.59 9.5a1.56 1.56 0 0 1-2.92-1.1l3.59-9.5a7 7 0 0 0-13.15-5l-3.59 9.5a1.56 1.56 0 0 1-2.92-1.1zM1519.45 461.34a1.56 1.56 0 0 1 2.9 1.17l-7 17.39a1.56 1.56 0 0 1-2.9-1.17zM1527 464.32a1.56 1.56 0 0 1 2.87 1.23l-.5 1.17a10.16 10.16 0 0 1 12.92 13.49l-4 9.34a1.56 1.56 0 0 1-2.87-1.23l4-9.34a7 7 0 0 0-12.93-5.53l-4 9.34a1.56 1.56 0 0 1-2.87-1.23zM1569.84 473.11a1.56 1.56 0 0 1 2.83 1.32l-7.93 17a10.94 10.94 0 1 1 .36-8.36v.1zm-7.93 17a7.8 7.8 0 1 0-4.4 4 7.53 7.53 0 0 0 4.41-3.96zM1581 508.18a10.66 10.66 0 0 1-8.45-.6 10.94 10.94 0 1 1 14.7-4.83l-4.23 8.37a1.56 1.56 0 0 1-2.79-1.41zm0-17.33a7.8 7.8 0 1 0 3.9 4.53 7.53 7.53 0 0 0-3.9-4.53zM1594.55 496a1.56 1.56 0 0 1 2.74 1.5l-.61 1.11a10.16 10.16 0 0 1 11.58 14.66l-4.86 8.92a1.56 1.56 0 0 1-2.74-1.5l4.86-8.92a7 7 0 0 0-12.35-6.73l-4.86 8.92a1.56 1.56 0 0 1-2.74-1.5zM1623.53 534.56a1.49 1.49 0 0 1 1.17.18 1.57 1.57 0 0 1 .53 2.15 1.71 1.71 0 0 1-.23.3l-.89.83a5.27 5.27 0 0 1 .74 1.38 3.74 3.74 0 0 1-.35 3.21 3.7 3.7 0 0 1-2.69 1.79 4.91 4.91 0 0 1-3.44-.7 4.71 4.71 0 0 1-1.61-1.64l-1-1.82a1.67 1.67 0 0 1 .09-1.47 1.57 1.57 0 0 1 2.15-.53 1.54 1.54 0 0 1 .6.63l.82 1.59a1.62 1.62 0 0 0 .55.56 2.19 2.19 0 0 0 1.08.34.78.78 0 0 0 .74-1.22 2.18 2.18 0 0 0-.81-.8 1.57 1.57 0 0 1-.53-2.15 1.58 1.58 0 0 1 .33-.39l2-1.9a1.62 1.62 0 0 1 .75-.34zm9 .51a1.57 1.57 0 0 1 .53 2.15 1.63 1.63 0 0 1-1 .73 10.94 10.94 0 1 1 8.59-14.21 1.56 1.56 0 0 1-.16 1.32 1.57 1.57 0 0 1-2.15.53 1.52 1.52 0 0 1-.67-.82 7.81 7.81 0 1 0-6.11 10.07 1.53 1.53 0 0 1 1 .23zM1658.07 544.77a10.94 10.94 0 1 1 1.51-8.23 10.53 10.53 0 0 1-1.51 8.23zm-4.94-12.5a7.8 7.8 0 1 0 3.4 4.92 7.53 7.53 0 0 0-3.4-4.92zM1671.56 560.84a1.57 1.57 0 0 1 .4 2.17 1.62 1.62 0 0 1-1.06.67 10.94 10.94 0 1 1 9.43-13.66 1.56 1.56 0 0 1-.24 1.31 1.57 1.57 0 0 1-2.79-.46 7.81 7.81 0 1 0-6.71 9.68 1.53 1.53 0 0 1 .97.29zM1689.63 578.68a1.56 1.56 0 0 1-2.52-1.85l.75-1a10.16 10.16 0 0 1-9.52-16.08l6-8.19a1.56 1.56 0 0 1 2.52 1.85l-6 8.19a7 7 0 0 0 11.33 8.32l6-8.19a1.56 1.56 0 0 1 2.52 1.85zM1701.52 573.35l15.71 1.36a1.54 1.54 0 0 1 .81.33 1.57 1.57 0 0 1 .27 2.19 1.49 1.49 0 0 1-1 .59h-.29l-10.77-.93.89 14a1.57 1.57 0 0 1-.33 1.13 1.57 1.57 0 0 1-2.19.27 1.59 1.59 0 0 1-.6-1.07l-.92-14.59-3.83-.34-4.77 6.11a1.56 1.56 0 0 1-2.46-1.92l17.3-22.17a1.56 1.56 0 0 1 2.46 1.92zM1726.85 572.14a1.56 1.56 0 0 1 2.42 2l-16.76 20.61 1.21 1a1.56 1.56 0 0 1-2 2.42l-2.42-2a1.57 1.57 0 0 1-.23-2.2zM1731.69 610.58a10.67 10.67 0 0 1-8.08-2.56 10.94 10.94 0 1 1 15.42-1.24l-6.07 7.14a1.56 1.56 0 0 1-2.38-2zm4.07-16.84a7.8 7.8 0 1 0 2.73 5.32 7.53 7.53 0 0 0-2.73-5.33zM1747.73 602a1.56 1.56 0 0 1 2.32 2.09l-1.15 1.28a10.67 10.67 0 0 1 8 2.79 11 11 0 0 1 2.6 3.39 2 2 0 0 1 .2.74 1.55 1.55 0 0 1-.41 1.13 1.56 1.56 0 0 1-2.61-.46 7.74 7.74 0 0 0-1.87-2.47 7.8 7.8 0 0 0-11 .58l-6.27 7a1.56 1.56 0 0 1-2.32-2.09zM1763.75 640a10.67 10.67 0 0 1-7.92-3 10.94 10.94 0 1 1 15.46-.38l-6.47 6.79a1.56 1.56 0 0 1-2.26-2.16zm5-16.59a7.8 7.8 0 1 0 2.43 5.47 7.53 7.53 0 0 0-2.41-5.43zM1789.65 641.86a1.56 1.56 0 0 1 2.18 2.24l-13.43 13.09a1.56 1.56 0 0 1-2.18-2.24zm6.93-1.84a2 2 0 1 1 .58-1.37 1.88 1.88 0 0 1-.58 1.35zM1802 641.13a1.56 1.56 0 0 1 2.15 2.26l-19.24 18.31 1.08 1.13a1.56 1.56 0 0 1-2.26 2.15l-2.15-2.26a1.57 1.57 0 0 1 .05-2.21zM1802.22 677.19a1.57 1.57 0 0 1-.1 2.21 1.55 1.55 0 0 1-1.13.42 10.94 10.94 0 1 1 8.7-2.77 1.57 1.57 0 0 1-2.21-.1L1796 664.33a7.85 7.85 0 0 0 .54 9.88 7.37 7.37 0 0 0 4.76 2.48 1.56 1.56 0 0 1 .92.5zm6.43-3.61a7.84 7.84 0 0 0-10.33-11.35zM1813 692.88a1.56 1.56 0 0 1-2.37 2q-5.11-5.91.81-11l8.28-7.15-1-1.18a1.56 1.56 0 0 1 2.36-2l1 1.18 5.91-5.11a1.56 1.56 0 0 1 2 2.37l-5.91 5.11 2.06 2.38a1.56 1.56 0 0 1-2.37 2l-2.06-2.38-8.28 7.15q-3.43 3.08-.43 6.63zM1830.2 686.6a1.56 1.56 0 0 1 2 2.4l-14.39 12a1.56 1.56 0 0 1-2-2.4zm7.05-1.31a2 2 0 1 1 .69-1.33 1.88 1.88 0 0 1-.69 1.33zM1825.59 710.48l9.35-17.12a1.52 1.52 0 0 1 .45-.59 1.57 1.57 0 0 1 2.2.24 1.55 1.55 0 0 1 .35 1.15 1.79 1.79 0 0 1-.22.66l-7.88 14.43 15.8-4.56a1.65 1.65 0 0 1 .7-.06 1.49 1.49 0 0 1 1 .57 1.57 1.57 0 0 1-.24 2.2 1.53 1.53 0 0 1-.67.32l-29.07 8.4a1.6 1.6 0 0 1-.67.07 1.52 1.52 0 0 1-1.06-.58 1.56 1.56 0 0 1 .91-2.51zM1855 733.27a10.94 10.94 0 1 1 4.25-7.21 10.53 10.53 0 0 1-4.25 7.21zm-.35-13.44a7.8 7.8 0 1 0 1.5 5.79 7.53 7.53 0 0 0-1.5-5.78zM1864.51 730.47a1.56 1.56 0 0 1 1.81 2.55l-1.4 1a10.67 10.67 0 0 1 7.2 4.47 11 11 0 0 1 1.8 3.88 2 2 0 0 1 0 .76 1.55 1.55 0 0 1-.65 1 1.56 1.56 0 0 1-2.45-1 7.75 7.75 0 0 0-1.29-2.82 7.8 7.8 0 0 0-10.89-1.84l-7.64 5.43a1.56 1.56 0 0 1-1.81-2.55zM1871.3 773.37a1.56 1.56 0 0 1-1.74-2.6l1.05-.71a10.16 10.16 0 0 1-3.49-18.35l8.44-5.66a1.56 1.56 0 0 1 1.74 2.6l-8.44 5.66a7 7 0 0 0 7.84 11.69l8.44-5.66a1.56 1.56 0 0 1 1.74 2.6zM1883.38 789.58a1.56 1.56 0 0 1-2.65 1.66l-8.31-13.24a1.57 1.57 0 0 1 .49-2.15 1.53 1.53 0 0 1 1-.25l20.94 2.82-6.54-10.4a1.56 1.56 0 0 1 2.65-1.66l8.32 13.23a1.57 1.57 0 0 1-1.55 2.38l-20.87-2.82z"/></g></svg>