<svg xmlns="http://www.w3.org/2000/svg" viewBox="0 0 2453 2453"><title>SS_bottom slogan_ID</title><path fill="#03709C" d="M742.6 597L720 586.7l13.5 16.8c.3.3.4.7.3 1.1 0 .4-.2.8-.6 1.1-.3.3-.7.4-1.1.3-.4 0-.8-.2-1.1-.6l-17.7-21.9c-.3-.3-.4-.7-.3-1.2 0-.4.2-.8.6-1.1.5-.4 1-.5 1.6-.2l25.9 11.8L735 565c-.1-.6.1-1.1.6-1.5.3-.3.7-.4 1.2-.3.4 0 .8.2 1.1.6l17.7 21.9c.3.3.4.7.3 1.1 0 .4-.2.8-.6 1.1-.3.3-.7.4-1.1.3-.4 0-.8-.2-1.1-.6L739.6 571l5.4 24.4c.1.6-.1 1-.6 1.4-.5.5-1.1.5-1.8.2zM769.1 570.9c.3-.3.7-.4 1.2-.3.4.1.8.3 1 .6.3.3.4.7.3 1.2-.6 2.6-1.9 4.7-4.1 6.4-2.4 1.8-5.1 2.5-8.1 2.1-3-.4-5.4-1.8-7.2-4.3-1.8-2.4-2.5-5.1-2.1-8.1s1.8-5.4 4.3-7.2 5.1-2.5 8.1-2.1c3 .4 5.4 1.8 7.2 4.3.3.3.4.7.3 1.2-.1.4-.3.8-.6 1l-13.6 10.2c1.1 1 2.5 1.7 4.1 1.9 2.1.3 4.1-.2 5.8-1.5 1.6-1.2 2.5-2.7 2.9-4.5 0-.4.2-.7.5-.9zm-3-6.8c-1.1-1-2.5-1.7-4.1-1.9-2.1-.3-4.1.2-5.8 1.5-1.7 1.3-2.7 3-3 5.1-.2 1.6 0 3.1.7 4.5l12.2-9.2zM766.9 553.9c-.2-.4-.3-.7-.3-1.2.1-.4.3-.8.6-1s.7-.3 1.2-.3.8.3 1 .6l.7 1c.5-2.7 1.9-4.8 4.1-6.4 2.3-1.6 4.8-2.2 7.6-1.7 2.8.5 5 1.9 6.6 4.2l5.8 8.3c.2.4.3.7.3 1.2-.1.4-.3.8-.6 1s-.7.3-1.2.3c-.4-.1-.8-.3-1-.6l-5.8-8.3c-1.1-1.6-2.6-2.5-4.5-2.9-1.9-.3-3.7.1-5.3 1.2-1.6 1.1-2.5 2.6-2.9 4.5-.3 1.9.1 3.7 1.2 5.3l5.8 8.3c.2.4.3.7.3 1.2-.1.4-.3.8-.6 1-.4.2-.7.3-1.2.3-.4-.1-.8-.3-1-.6l-10.8-15.4zM803.1 551.7L787 540.8c-.2-.1-.4-.3-.5-.5-.2-.4-.3-.7-.2-1.2.1-.4.3-.8.7-1 .4-.2.7-.3 1.2-.2.2.1.5.2.6.3l13.6 9.1-3.1-16.1v-.7c.1-.4.3-.7.7-1 .4-.2.7-.3 1.2-.2.4.1.8.3 1 .7.1.2.2.4.3.7l5.7 29.6c0 .2.1.4 0 .7-.1.4-.3.8-.7 1-.4.2-.7.3-1.2.2-.4-.1-.8-.3-1-.7-.1-.2-.2-.4-.3-.7l-1.9-9.1zM829.9 532.5c-.7 3-2.3 5.3-4.9 6.9-2.6 1.6-5.3 2.1-8.3 1.4-2.9-.7-5.2-2.3-6.8-4.9-1.6-2.6-2.1-5.3-1.4-8.3.7-2.9 2.3-5.2 4.9-6.8 2.6-1.6 5.3-2.1 8.3-1.4 2.9.7 5.2 2.3 6.8 4.9l5 8c.2.4.3.8.2 1.2-.1.4-.3.7-.7 1-.4.2-.8.3-1.2.2-.4-.1-.7-.3-1-.7l-.9-1.5zm-14.9-9c-1.8 1.1-3 2.8-3.5 4.9-.5 2.1-.2 4.1 1 5.9 1.1 1.8 2.8 3 4.9 3.5 2.1.5 4.1.2 5.9-1s3-2.8 3.5-4.9c.5-2.1.2-4.1-1-5.9-1.1-1.8-2.8-3-4.9-3.5-2-.4-4-.1-5.9 1z"/><path fill="#03709C" d="M828.3 506.5c.3.5.3 1 .2 1.5s-.4.9-.9 1.2c-.5.3-1 .3-1.5.2-.5-.1-.9-.4-1.2-.9-.3-.5-.3-1-.2-1.5.1-.5.4-.9.9-1.2.5-.3 1-.3 1.5-.2.5.2.9.5 1.2.9zm10.5 24.7l-10.4-17.5c-.2-.4-.3-.8-.2-1.2.1-.4.3-.7.7-1s.8-.3 1.2-.2c.4.1.7.3 1 .7l10.4 17.5c1.3 2.2 1.7 4.6 1 7.1-.6 2.5-2.1 4.4-4.3 5.7-.4.2-.8.3-1.2.2-.4-.1-.7-.3-1-.7-.2-.4-.3-.8-.2-1.2.1-.4.3-.7.7-1 1.5-.9 2.4-2.2 2.9-3.8.5-1.5.3-3.1-.6-4.6zM835.5 502.3c.3.5.3 1 .2 1.5-.1.5-.4.9-.9 1.2-.5.3-1 .3-1.5.2-.5-.1-.9-.4-1.2-.9-.3-.5-.3-1-.2-1.5.1-.5.4-.9.9-1.2.5-.3 1-.3 1.5-.2.6.1.9.4 1.2.9zm.1 7.2c-.2-.4-.3-.8-.2-1.2.1-.4.4-.7.7-1s.8-.3 1.2-.2c.4.1.7.4 1 .7l9.4 16.3c.2.4.3.8.2 1.2-.1.4-.4.7-.7 1s-.8.3-1.2.2c-.4-.1-.7-.4-1-.7l-9.4-16.3zM848.9 510.4l7.5-13.9c.1-.3.4-.5.6-.6.4-.2.8-.2 1.2-.1.4.1.7.4.9.7.2.4.2.8.1 1.2 0 .1-.1.2-.1.3l-5.1 9.5 13.2 4.7c.4.1.7.4.9.8.2.4.2.8.1 1.2-.1.4-.4.7-.7.9-.4.2-.8.2-1.2.1l-13.8-5-1.8 3.4 3.7 6.8c.2.4.2.8.1 1.2-.1.4-.4.7-.8.9s-.8.2-1.2.1c-.4-.1-.7-.4-.9-.7l-13.5-24.7c-.2-.4-.2-.8-.1-1.2.1-.4.4-.7.7-.9.4-.2.8-.2 1.2-.1.4.1.7.4.9.7l8.1 14.7zM885.5 502.1c-1 2.9-2.8 5.1-5.5 6.5s-5.5 1.6-8.3.7c-2.9-.9-5-2.7-6.4-5.4-1.4-2.7-1.6-5.5-.7-8.3.9-2.9 2.7-5 5.4-6.4 2.7-1.4 5.5-1.6 8.3-.7s5 2.7 6.4 5.4l4.3 8.4c.2.4.2.8.1 1.2-.1.4-.4.7-.8.9s-.8.2-1.2.1c-.4-.1-.7-.4-.9-.8l-.7-1.6zm-13.9-10.2c-1.9 1-3.2 2.5-3.9 4.5-.7 2-.5 4 .5 6 1 1.9 2.5 3.2 4.5 3.9 2 .7 4 .5 6-.5 1.9-1 3.2-2.5 3.9-4.5s.5-4-.5-6c-1-1.9-2.5-3.2-4.5-3.9s-4.1-.5-6 .5zM883.8 484c-.2-.4-.2-.8-.1-1.2.1-.4.4-.7.8-.9.4-.2.8-.2 1.2-.1s.7.4.9.8l.5 1.1c1-2.5 2.7-4.4 5.2-5.6 2.5-1.2 5.1-1.3 7.8-.4s4.6 2.7 5.7 5.2l4.3 9.2c.2.4.2.8.1 1.2-.1.4-.4.7-.8.9s-.8.2-1.2.1c-.4-.1-.7-.4-.9-.8l-4.3-9.2c-.8-1.8-2.2-3-4-3.6-1.8-.7-3.6-.6-5.4.2s-3 2.2-3.6 4c-.7 1.8-.6 3.6.2 5.4l4.3 9.2c.2.4.2.8.1 1.2-.1.4-.4.7-.8.9-.4.2-.8.2-1.2.1-.4-.1-.7-.4-.9-.8l-7.9-16.9zM919.8 469.4v-.1c1.2-2.8 3.1-4.8 5.9-5.9 2.8-1.2 5.6-1.2 8.4 0 2.8 1.2 4.8 3.1 5.9 5.9 1.2 2.8 1.2 5.6 0 8.4-1.2 2.8-3.1 4.8-5.9 5.9-2.8 1.2-5.6 1.2-8.4 0-2.8-1.2-4.8-3.1-5.9-5.9l-7.2-17.4c-.2-.4-.2-.8 0-1.2.2-.4.4-.7.8-.8.4-.2.8-.2 1.2 0 .4.2.7.4.8.8l4.4 10.3zm13.2 11.3c2-.8 3.4-2.2 4.2-4.2.8-2 .8-4 0-6s-2.2-3.4-4.2-4.2-4-.8-6 0-3.4 2.2-4.2 4.2c-.8 2-.8 4 0 6s2.2 3.4 4.2 4.2c2 .9 4 .9 6 0zM961 467.4c.4-.2.8-.1 1.2 0 .4.2.7.5.8.9.2.4.1.8 0 1.2-1.3 2.4-3.2 4-5.7 5-2.8 1.1-5.6 1-8.4-.3-2.8-1.2-4.7-3.3-5.7-6.1-1.1-2.8-1-5.6.3-8.4 1.2-2.8 3.3-4.7 6.1-5.7 2.8-1.1 5.6-1 8.4.3 2.8 1.2 4.7 3.3 5.7 6.1.2.4.1.8 0 1.2-.2.4-.5.7-.9.8l-16 6c.8 1.3 1.9 2.3 3.4 3 2 .9 4 1 6 .2 1.8-.7 3.2-1.9 4.1-3.5 0-.3.3-.5.7-.7zm-1-7.3c-.8-1.3-1.9-2.3-3.4-3-2-.9-4-1-6-.2s-3.5 2.1-4.4 4.1c-.7 1.5-.9 3-.6 4.5l14.4-5.4zM963.5 450.4c-.1-.4-.1-.8.1-1.2.2-.4.5-.7.9-.8.4-.1.8-.1 1.2.1.4.2.7.5.8.9l.6 1.6c1.4-2.8 3.5-4.7 6.3-5.7 1.4-.5 2.9-.7 4.2-.6.3 0 .5.1.7.2.4.2.7.5.8.9.1.4.1.8-.1 1.2-.2.4-.5.7-.9.8-.2.1-.5.1-.7.1-1-.1-2 .1-3.1.4-2.1.7-3.6 2-4.5 4-.9 2-1.1 4-.3 6l3.1 8.9c.1.4.1.8-.1 1.2-.2.4-.5.7-.9.8-.4.1-.8.1-1.2-.1-.4-.2-.7-.5-.8-.9l-6.1-17.8zM984.4 436.9c.2.5.1 1-.1 1.5s-.6.8-1.1 1c-.5.2-1 .1-1.5-.1s-.8-.6-1-1.1c-.2-.5-.1-1 .1-1.5s.6-.8 1.1-1c.5-.2 1-.1 1.5.1.6.2.9.6 1 1.1zm-1.4 7c-.1-.4-.1-.8.1-1.2.2-.4.5-.6.9-.8.4-.1.8-.1 1.2.1.4.2.6.5.8.9l5.8 17.8c.1.4.1.8-.1 1.2-.2.4-.5.6-.9.8-.4.1-.8.1-1.2-.1-.4-.2-.6-.5-.8-.9l-5.8-17.8zM1006.2 454.7c.4-.1.8-.1 1.2.1.4.2.6.5.8.9s.1.8-.1 1.2c-.2.4-.5.6-.9.8-5 1.5-8.2-.2-9.8-5.2l-3.2-10.5-1.5.5c-.4.1-.8.1-1.2-.1-.4-.2-.6-.5-.8-.9-.1-.4-.1-.8.1-1.2.2-.4.5-.6.9-.8l1.5-.5-2.3-7.5c-.1-.4-.1-.8.1-1.2.2-.4.5-.6.9-.8.4-.1.8-.1 1.2.1.4.2.6.5.8.9l2.3 7.5 3-.9c.4-.1.8-.1 1.2.1.4.2.6.5.8.9s.1.8-.1 1.2c-.2.4-.5.6-.9.8l-3 .9 3.2 10.5c.8 3.1 2.8 4.1 5.8 3.2zM1027.4 448.5c-1.5 2.7-3.7 4.4-6.6 5.3-2.9.8-5.7.5-8.3-1-2.6-1.5-4.4-3.7-5.2-6.6s-.5-5.7 1-8.3c1.5-2.6 3.7-4.4 6.6-5.2 2.9-.8 5.7-.5 8.3 1 2.6 1.5 4.4 3.7 5.2 6.6l2.5 9c.1.4.1.8-.1 1.2-.2.4-.5.6-.9.7-.4.1-.8.1-1.2-.1-.4-.2-.6-.5-.7-.9l-.6-1.7zm-11.6-12.8c-2.1.6-3.7 1.8-4.7 3.7-1.1 1.9-1.3 3.9-.7 5.9.6 2.1 1.8 3.7 3.7 4.7 1.9 1.1 3.9 1.3 5.9.7 2.1-.6 3.7-1.8 4.7-3.7 1.1-1.9 1.3-3.9.7-5.9-.6-2.1-1.8-3.7-3.7-4.7-1.9-1.1-3.9-1.3-5.9-.7zM1049.7 435l-1.6 10.6c0 .2-.1.4-.2.6-.2.4-.6.6-1 .7-.4.1-.8 0-1.2-.2s-.6-.6-.7-1c-.1-.2-.1-.5 0-.7l4.5-29.8c0-.2.1-.5.3-.7.2-.4.6-.6 1-.7.4-.1.8 0 1.2.2.2.2.4.3.5.5l16.8 25 .3.6c.1.4 0 .8-.2 1.2-.2.4-.6.6-1 .7-.4.1-.8 0-1.2-.2-.2-.1-.3-.3-.5-.4l-6-8.9-11 2.5zm9.1-5.3l-6.8-10.1-1.8 12 8.6-1.9zM1068.7 421.2c-.1-.4 0-.8.2-1.2.2-.4.6-.6 1-.7.4-.1.8 0 1.2.2.4.2.6.6.7 1l.2 1.2c1.6-2.2 3.7-3.6 6.4-4.1 2.7-.5 5.3 0 7.6 1.6s3.8 3.7 4.3 6.5l1.9 10c.1.4 0 .8-.2 1.2-.2.4-.6.6-1 .7-.4.1-.8 0-1.2-.2-.4-.2-.6-.6-.7-1l-1.9-10c-.4-1.9-1.4-3.4-3-4.5s-3.4-1.4-5.3-1.1c-1.9.4-3.4 1.4-4.5 3s-1.4 3.4-1.1 5.3l1.9 10c.1.4 0 .8-.2 1.2-.2.4-.6.6-1 .7-.4.1-.8 0-1.2-.2-.4-.2-.6-.6-.7-1l-3.4-18.6zM1105.7 432c.4-.1.8 0 1.2.3.4.3.6.6.6 1 .1.4 0 .8-.3 1.2-.3.4-.6.6-1 .6-5.1.8-8.1-1.3-9-6.4l-1.8-10.8-1.5.3c-.4.1-.8 0-1.2-.3-.4-.3-.6-.6-.6-1-.1-.4 0-.8.3-1.2.3-.4.6-.6 1-.6l1.5-.3-1.3-7.7c-.1-.4 0-.8.3-1.2s.6-.6 1-.6c.4-.1.8 0 1.2.3s.6.6.6 1l1.3 7.7 3.1-.5c.4-.1.8 0 1.2.3s.6.6.6 1c.1.4 0 .8-.3 1.2s-.6.6-1 .6l-3.1.5 1.8 10.8c.6 3 2.4 4.3 5.4 3.8zM1127.7 428.7c-1.9 2.5-4.3 3.9-7.3 4.3-3 .4-5.7-.3-8.1-2.1-2.4-1.8-3.8-4.2-4.2-7.2-.4-3 .3-5.7 2.1-8.1 1.8-2.4 4.2-3.8 7.2-4.2 3-.4 5.7.3 8.1 2.1 2.4 1.8 3.8 4.2 4.2 7.2l1.3 9.3c.1.4 0 .8-.3 1.2-.3.3-.6.5-1 .6s-.8 0-1.2-.3c-.3-.3-.5-.6-.6-1l-.2-1.8zm-9.9-14.3c-2.1.3-3.9 1.3-5.2 3-1.3 1.7-1.8 3.6-1.5 5.8.3 2.1 1.3 3.9 3 5.2 1.7 1.3 3.6 1.8 5.8 1.5s3.9-1.3 5.2-3c1.3-1.7 1.8-3.6 1.5-5.8-.3-2.1-1.3-3.9-3-5.2-1.7-1.3-3.6-1.8-5.8-1.5zM1131.9 411.1c0-.4.1-.8.3-1.1.3-.3.6-.5 1-.6.4 0 .8.1 1.1.3.3.3.5.6.6 1l.2 1.7c1.9-2.4 4.4-3.8 7.4-4.1 1.5-.2 2.9-.1 4.2.3.2.1.5.2.7.3.3.3.5.6.6 1.1 0 .4-.1.8-.3 1.1-.3.3-.6.5-1 .6-.2 0-.5 0-.7-.1-1-.3-2-.4-3.1-.2-2.1.2-3.9 1.2-5.2 2.9-1.3 1.7-1.9 3.6-1.7 5.7l1 9.3c0 .4-.1.8-.3 1.1-.3.3-.6.5-1 .6-.4 0-.8-.1-1.1-.3-.3-.3-.5-.6-.6-1l-2.1-18.6zM1155.3 402.2c0 .5-.1 1-.5 1.4-.4.4-.8.7-1.3.7s-1-.1-1.4-.5c-.4-.3-.7-.8-.7-1.3s.1-1 .5-1.4.8-.7 1.3-.7 1 .1 1.4.5c.5.3.7.7.7 1.3zm-2.9 6.5c0-.4.1-.8.4-1.1.3-.3.6-.5 1.1-.6.4 0 .8.1 1.1.4.3.3.5.6.6 1.1l1.7 18.8c0 .4-.1.8-.4 1.1-.3.3-.6.5-1.1.6-.4 0-.8-.1-1.1-.4-.3-.3-.5-.6-.6-1.1l-1.7-18.8zM1164 415l12.6-9.5c.2-.2.5-.3.8-.3.4 0 .8.1 1.1.4.3.3.5.6.5 1.1 0 .4-.1.8-.4 1.1-.1.1-.1.2-.2.2l-8.6 6.5 10 9.8c.3.3.5.6.5 1.1 0 .4-.1.8-.4 1.1-.3.3-.6.5-1.1.5s-.8-.1-1.2-.4l-10.5-10.3-3.1 2.3.5 7.8c0 .4-.1.8-.4 1.1-.3.3-.6.5-1.1.5s-.8-.1-1.1-.4-.5-.6-.5-1.1l-2-28.1c0-.4.1-.8.4-1.1.3-.3.6-.5 1.1-.5.4 0 .8.1 1.1.4.3.3.5.6.5 1.1l1.5 16.7zM1186.8 415.7c-1.2-.4-2.1-.8-2.5-1.3-1-.9-1.5-1.9-1.5-3.2-.1-1.3.4-2.4 1.3-3.4 1.8-2 4.2-3.1 7.2-3.2 3.3-.1 6.1 1 8.6 3.5.2.2.3.5.3.9s-.1.8-.4 1.1c-.3.3-.7.5-1.1.5s-.8-.1-1.1-.4c-.3-.3-.5-.4-.6-.6-1.6-1.5-3.5-2.1-5.6-2-2.2.1-3.9.9-5.1 2.3-.3.4-.4.8-.4 1.4.1.6.4 1 1 1.2l9.7 2.7c1.2.4 2.1.8 2.5 1.3 1 .9 1.5 1.9 1.5 3.2.1 1.3-.4 2.4-1.3 3.4-1.8 2-4.2 3.1-7.2 3.2-3.3.1-6.1-1-8.6-3.5-.2-.3-.3-.6-.3-.9 0-.4.1-.8.4-1.1.3-.3.7-.5 1.1-.5.4 0 .8.1 1.1.4.3.3.5.4.6.6 1.6 1.5 3.5 2.1 5.6 2 2.2-.1 3.9-.9 5.1-2.3.3-.4.4-.8.4-1.4-.1-.6-.4-1-1-1.2l-9.7-2.7zM1222.6 422.2c-2.1 2.2-4.7 3.4-7.7 3.4-3 .1-5.6-1-7.8-3-2.2-2.1-3.3-4.6-3.4-7.7-.1-3 1-5.6 3-7.8 2.1-2.2 4.6-3.3 7.7-3.4 3-.1 5.6 1 7.8 3 2.2 2.1 3.3 4.6 3.4 7.7l.2 9.4c0 .4-.1.8-.4 1.1-.3.3-.7.5-1.1.5-.4 0-.8-.1-1.1-.4-.3-.3-.5-.7-.5-1.1l-.1-1.7zm-8.1-15.3c-2.2 0-4 .8-5.5 2.4-1.5 1.6-2.2 3.4-2.2 5.6 0 2.2.8 4 2.4 5.5 1.6 1.5 3.4 2.2 5.6 2.2 2.2 0 4-.8 5.5-2.4 1.5-1.6 2.2-3.4 2.2-5.6 0-2.2-.8-4-2.4-5.5-1.6-1.5-3.4-2.2-5.6-2.2zM1260.7 424.7c0 .4-.2.8-.5 1.1-.3.3-.7.4-1.1.4s-.8-.2-1.1-.5c-.3-.3-.4-.7-.4-1.1v-1.3c-2 1.8-4.4 2.7-7.1 2.6-2.8-.1-5.2-1.1-7.1-3.2-1.9-2-2.8-4.5-2.8-7.3l.3-10.2c0-.4.2-.8.5-1.1.3-.3.7-.4 1.1-.4.4 0 .8.2 1.1.5.3.3.4.7.4 1.1l-.3 10.2c-.1 1.9.6 3.6 1.9 5 1.3 1.4 3 2.1 4.9 2.2s3.6-.6 5-1.9c1.4-1.3 2.1-3 2.2-4.9l.3-10.2c0-.4.2-.8.5-1.1.3-.3.7-.4 1.1-.4.4 0 .8.2 1.1.5.3.3.4.7.4 1.1l-.4 18.9zM1264.8 406.1c0-.4.2-.8.5-1.1.3-.3.7-.4 1.1-.4s.8.2 1.1.5.4.7.4 1.1l-.1 1.3c2.1-1.8 4.5-2.6 7.2-2.4 2.8.2 5.1 1.3 7 3.4 1.9 2.1 2.7 4.5 2.5 7.3l-.6 10.1c0 .4-.2.8-.5 1.1-.3.3-.7.4-1.1.4s-.8-.2-1.1-.5c-.3-.3-.4-.7-.4-1.1l.6-10.1c.1-1.9-.5-3.6-1.8-5.1-1.3-1.5-2.9-2.2-4.8-2.4-1.9-.1-3.6.5-5.1 1.8-1.5 1.3-2.2 2.9-2.4 4.8l-.6 10.1c0 .4-.2.8-.5 1.1s-.7.4-1.1.4-.8-.2-1.1-.5-.4-.7-.4-1.1l1.2-18.7zM1297.9 425.7c.4 0 .8.2 1.1.6.3.3.4.7.4 1.1s-.2.8-.5 1.1c-.3.3-.7.4-1.1.4-5.2-.4-7.6-3.3-7.1-8.4l.9-10.9-1.6-.1c-.4 0-.8-.2-1.1-.5-.3-.3-.4-.7-.4-1.1 0-.4.2-.8.6-1.1.3-.3.7-.4 1.1-.4l1.6.1.7-7.8c0-.4.2-.8.6-1.1.3-.3.7-.4 1.1-.4.4 0 .8.2 1.1.5.3.3.4.7.4 1.1l-.7 7.8 3.1.3c.4 0 .8.2 1.1.6s.4.7.4 1.1c0 .4-.2.8-.6 1.1s-.7.4-1.1.4l-3.1-.3-.9 10.9c-.5 3 .9 4.7 4 5zM1322.4 429.8c0 .4-.2.8-.6 1s-.7.4-1.1.3-.8-.2-1-.6-.4-.7-.3-1.1l.1-1.3c-2.1 1.7-4.6 2.3-7.3 2-2.8-.3-5-1.6-6.8-3.7-1.7-2.2-2.5-4.7-2.2-7.4l1.1-10.1c0-.4.2-.8.6-1 .3-.3.7-.4 1.1-.3.4 0 .8.2 1 .6.3.3.4.7.3 1.1l-1.1 10.1c-.2 1.9.3 3.6 1.5 5.1 1.2 1.5 2.8 2.4 4.7 2.6s3.6-.3 5.1-1.5c1.5-1.2 2.4-2.8 2.6-4.7l1.1-10.1c0-.4.2-.8.6-1 .3-.3.7-.4 1.1-.3s.8.2 1 .6c.3.3.4.7.3 1.1l-1.8 18.6zM1330.1 419.3l14.3-6.7c.3-.1.6-.2.9-.1.4.1.8.3 1 .6.3.3.4.7.3 1.2s-.3.8-.6 1c-.1.1-.2.1-.2.2l-9.8 4.6 7.8 11.7c.2.3.3.7.3 1.1-.1.4-.3.8-.6 1s-.7.4-1.2.3-.8-.3-1.1-.6l-8.1-12.2-3.5 1.6-1.1 7.7c-.1.4-.3.8-.6 1-.3.3-.7.4-1.2.3-.4-.1-.8-.3-1-.6-.3-.3-.4-.7-.3-1.2l3.9-27.9c.1-.4.3-.8.6-1 .3-.3.7-.4 1.2-.3.4.1.8.3 1 .6.3.3.4.7.3 1.2l-2.3 16.5zM1377.1 436.8c-2.5 1.8-5.3 2.4-8.2 1.8s-5.3-2.1-7-4.5-2.3-5.2-1.7-8.2c.5-3 2.1-5.3 4.5-7 2.5-1.7 5.2-2.3 8.2-1.7s5.3 2.1 7 4.5c1.7 2.5 2.3 5.2 1.7 8.2l-1.7 9.2c-.1.4-.3.8-.6 1-.4.2-.7.3-1.2.3s-.8-.3-1-.6c-.2-.4-.3-.7-.2-1.2l.2-1.8zm-4.9-16.6c-2.1-.4-4.1 0-5.8 1.2-1.8 1.2-2.8 2.9-3.2 5-.4 2.1 0 4.1 1.2 5.8 1.2 1.8 2.9 2.8 5 3.2 2.1.4 4.1 0 5.8-1.2 1.8-1.2 2.8-2.9 3.2-5 .4-2.1 0-4.1-1.2-5.8-1.2-1.7-2.9-2.8-5-3.2zM1386.8 421.4c.1-.4.3-.7.7-1s.8-.3 1.2-.2c.4.1.7.3 1 .7.2.4.3.8.2 1.2l-.3 1.2c2.3-1.4 4.8-1.8 7.5-1.3 2.7.6 4.9 2.1 6.4 4.4 1.5 2.4 2 4.9 1.4 7.6l-2.2 9.9c-.1.4-.3.7-.7 1-.4.2-.8.3-1.2.2-.4-.1-.7-.3-1-.7s-.3-.8-.2-1.2l2.2-9.9c.4-1.9.1-3.7-.9-5.3s-2.5-2.7-4.4-3.1c-1.9-.4-3.7-.1-5.3.9-1.6 1-2.7 2.5-3.1 4.4l-2.2 9.9c-.1.4-.3.7-.7 1s-.8.3-1.2.2-.7-.3-1-.7-.3-.8-.2-1.2l4-18zM1424.1 447.8c-2.7 1.6-5.5 2-8.4 1.2-2.9-.8-5.2-2.4-6.7-5s-1.9-5.4-1.2-8.3c.8-2.9 2.4-5.2 5-6.7s5.4-1.9 8.3-1.2c2.9.8 5.2 2.4 6.7 5s1.9 5.4 1.2 8.3l-2.3 9.1c-.1.4-.3.7-.7 1-.4.2-.8.3-1.2.2-.4-.1-.7-.3-1-.7-.2-.4-.3-.8-.2-1.2l.5-1.7zm-3.7-17c-2.1-.5-4.1-.3-5.9.8-1.9 1.1-3.1 2.7-3.6 4.8-.5 2.1-.3 4.1.8 5.9 1.1 1.9 2.7 3.1 4.8 3.6 2.1.5 4.1.3 5.9-.8 1.9-1.1 3.1-2.7 3.6-4.8.5-2.1.3-4.1-.8-5.9-1.1-1.8-2.7-3-4.8-3.6zM1435.7 440.7l15-4.7c.3-.1.6-.1.9 0 .4.1.7.4.9.7.2.4.3.8.1 1.2-.1.4-.4.7-.7.9-.1.1-.2.1-.3.1l-10.3 3.2 6.1 12.6c.2.4.2.8.1 1.2-.1.4-.4.7-.7.9-.4.2-.8.3-1.2.1-.4-.1-.7-.4-1-.8l-6.4-13.1-3.7 1.1-2.1 7.4c-.1.4-.4.7-.7.9-.4.2-.8.3-1.2.1-.4-.1-.7-.4-.9-.7-.2-.4-.3-.8-.1-1.2l7.6-27c.1-.4.4-.7.7-.9.4-.2.8-.3 1.2-.1.4.1.7.4.9.7.2.4.3.8.1 1.2l-4.3 16.2zM1488.3 439.6c.1-.4.4-.7.8-.9.4-.2.8-.2 1.2-.1.4.1.7.4.9.8.2.4.2.8.1 1.2l-6 17.8c-1 2.9-2.8 5-5.5 6.3-2.7 1.3-5.5 1.5-8.4.6-2.9-1-5-2.8-6.3-5.5-1.3-2.7-1.5-5.5-.6-8.4 1-2.9 2.8-5 5.5-6.3 2.7-1.3 5.5-1.5 8.4-.6 2.9 1 5 2.8 6.3 5.5v.1l3.6-10.5zm-6 17.8c.7-2 .6-4-.4-6-1-1.9-2.5-3.2-4.5-3.9-2-.7-4-.6-6 .4-1.9 1-3.2 2.5-3.9 4.5-.7 2-.6 4 .4 6 1 1.9 2.5 3.2 4.5 3.9 2 .7 4 .6 6-.4 1.9-.9 3.2-2.4 3.9-4.5zM1492.9 451.3c.1-.4.4-.7.8-.9.4-.2.8-.2 1.2-.1.4.1.7.4.9.8.2.4.2.8.1 1.2l-6.4 17.6c-.1.4-.4.7-.8.9-.4.2-.8.2-1.2.1-.4-.1-.7-.4-.9-.8-.2-.4-.2-.8-.1-1.2l6.4-17.6zm5.4-4.7c-.2.5-.5.9-1 1.1-.5.2-1 .3-1.5.1-.5-.2-.9-.5-1.1-1-.2-.5-.3-1-.1-1.5.2-.5.5-.9 1-1.1.5-.2 1-.3 1.5-.1.5.2.9.5 1.1 1 .3.5.3 1 .1 1.5zM1511.7 468.4c-.9-.9-1.5-1.6-1.8-2.2-.5-1.2-.5-2.4-.1-3.6.5-1.2 1.3-2.1 2.6-2.6 2.5-1.1 5.1-1.1 7.9.1 3 1.2 5.1 3.5 6.3 6.8.1.3.1.6-.1 1s-.4.7-.8.9c-.4.2-.8.2-1.2 0-.4-.2-.7-.4-.8-.8-.1-.3-.2-.6-.3-.8-.8-2-2.3-3.4-4.3-4.2-2-.8-3.9-.8-5.6 0-.4.2-.7.6-.9 1.1-.2.6 0 1.1.4 1.5l7.7 6.5c.9.9 1.5 1.6 1.8 2.2.5 1.2.5 2.4.1 3.6-.5 1.2-1.3 2.1-2.6 2.6-2.5 1.1-5.1 1.1-7.9-.1-3-1.2-5.2-3.5-6.3-6.8-.1-.3-.1-.6.1-1s.4-.7.8-.9c.4-.2.8-.2 1.2 0 .4.2.7.4.8.8.1.4.2.6.3.8.8 2 2.3 3.4 4.3 4.2 2 .8 3.9.8 5.6 0 .4-.2.7-.6.9-1.1.2-.6 0-1.1-.4-1.5l-7.7-6.5zM1540.8 486.6c.4.2.7.5.8.9.2.4.2.8 0 1.2-.2.4-.5.7-.9.8-2.6.8-5.1.7-7.6-.4-2.8-1.2-4.7-3.2-5.8-6-1.1-2.8-1.1-5.6.1-8.4 1.2-2.8 3.2-4.7 6-5.8 2.8-1.1 5.6-1.1 8.4.1 2.8 1.2 4.7 3.2 5.8 6 1.1 2.8 1.1 5.6-.1 8.4-.2.4-.5.7-.9.8-.4.2-.8.2-1.2 0l-15.7-6.8c-.3 1.5-.2 3 .4 4.5.8 2 2.2 3.4 4.2 4.3 1.8.8 3.6.9 5.4.3.4-.1.8 0 1.1.1zm4.4-6c.3-1.5.2-3-.4-4.5-.8-2-2.2-3.4-4.2-4.3-2-.9-4-.9-6-.1-1.5.6-2.7 1.5-3.6 2.8l14.2 6.1zM1558.3 467.8c.2-.4.5-.7.9-.8.4-.1.8-.1 1.2 0 .4.2.7.5.8.9s.1.8 0 1.2l-11.2 24.1 1.4.7c.4.2.7.5.8.9.1.4.1.8 0 1.2-.2.4-.5.7-.9.8-.4.1-.8.1-1.2 0l-2.8-1.3c-.4-.2-.7-.5-.8-.9-.1-.4-.1-.8 0-1.2l11.8-25.6zM1573.2 506.1c-.2.4-.5.6-.9.8-.4.1-.8.1-1.2-.1-.4-.2-.6-.5-.8-.9-.1-.4-.1-.8.1-1.2l.6-1.1c-2.6.8-5.1.7-7.6-.5s-4.2-3.2-5.1-5.8c-.9-2.7-.8-5.2.5-7.8l4.5-9.1c.2-.4.5-.6.9-.8.4-.1.8-.1 1.2.1.4.2.6.5.8.9.1.4.1.8-.1 1.2l-4.5 9.1c-.9 1.7-1 3.5-.3 5.4.6 1.8 1.8 3.2 3.6 4s3.5 1 5.4.3c1.8-.6 3.2-1.8 4-3.6l4.5-9.1c.2-.4.5-.7.9-.8s.8-.1 1.2.1c.4.2.6.5.8.9.1.4.1.8-.1 1.2l-8.4 16.8zM1584.5 490.8c.2-.4.5-.6.9-.8s.8-.1 1.2.1c.4.2.6.5.8.9.1.4.1.8-.1 1.2l-.8 1.5c3-.9 5.8-.7 8.4.7 1.3.7 2.5 1.6 3.4 2.6.2.2.3.4.4.7.1.4.1.8-.1 1.2s-.5.6-.9.8c-.4.1-.8.1-1.2-.1-.2-.1-.4-.3-.5-.5-.6-.8-1.4-1.4-2.4-1.9-1.9-1-3.9-1.2-6-.5-2.1.6-3.6 1.9-4.6 3.8l-4.3 8.3c-.2.4-.5.6-.9.8-.4.1-.8.1-1.2-.1s-.6-.5-.8-.9c-.1-.4-.1-.8.1-1.2l8.6-16.6zM1610 526c-.2.4-.5.6-.9.7-.4.1-.8.1-1.2-.1-.4-.2-.6-.5-.7-.9s-.1-.8.1-1.2l.6-1.1c-2.6.7-5.1.4-7.5-1-2.4-1.4-4-3.4-4.8-6.1s-.5-5.3.9-7.7l5-8.9c.2-.4.5-.6.9-.7.4-.1.8-.1 1.2.1.4.2.6.5.7.9.1.4.1.8-.1 1.2l-5 8.9c-.9 1.7-1.2 3.5-.6 5.3.5 1.9 1.6 3.3 3.3 4.2 1.7.9 3.5 1.2 5.3.6 1.9-.5 3.3-1.6 4.2-3.3l5-8.9c.2-.4.5-.6.9-.7.4-.1.8-.1 1.2.1.4.2.6.5.7.9.1.4.1.8-.1 1.2L1610 526zM1627 503.3c.2-.4.5-.6 1-.7s.8 0 1.2.2c.4.2.6.5.7 1 .1.4 0 .8-.2 1.2l-5.5 9.1c2.6-.6 5.1-.2 7.5 1.2 2.4 1.4 3.9 3.5 4.6 6.2.7 2.7.3 5.3-1.1 7.7l-5.2 8.7c-.2.4-.5.6-1 .7-.4.1-.8 0-1.2-.2s-.6-.5-.7-1c-.1-.4 0-.8.2-1.2l5.2-8.7c1-1.7 1.3-3.4.8-5.3s-1.5-3.3-3.2-4.3c-1.7-1-3.4-1.3-5.3-.8s-3.3 1.5-4.3 3.2l-5.2 8.7c-.2.4-.5.6-1 .7-.4.1-.8 0-1.2-.2-.4-.2-.6-.5-.7-1-.1-.4 0-.8.2-1.2l14.4-24zM1673.5 532.6c.2-.4.6-.6 1-.7.4-.1.8 0 1.2.2.4.2.6.6.7 1s0 .8-.2 1.2l-10.4 15.7c-1.7 2.5-4 4.1-6.9 4.7-3 .6-5.7.1-8.2-1.6-2.5-1.7-4.1-4-4.7-6.9-.6-3-.1-5.7 1.6-8.2 1.7-2.5 4-4.1 6.9-4.7 3-.6 5.7-.1 8.2 1.6 2.5 1.7 4.1 4 4.7 6.9v.1l6.1-9.3zm-10.4 15.6c1.2-1.8 1.6-3.8 1.2-5.9-.4-2.1-1.5-3.8-3.3-5s-3.8-1.6-5.9-1.2-3.8 1.5-5 3.3-1.6 3.8-1.2 5.9c.4 2.1 1.5 3.8 3.3 5s3.8 1.6 5.9 1.2c2.2-.4 3.8-1.5 5-3.3zM1679.6 571.2c-.2.4-.6.6-1 .6-.4.1-.8 0-1.2-.3-.3-.2-.6-.6-.6-1-.1-.4 0-.8.3-1.2l.7-1c-2.7.4-5.1-.2-7.4-1.8-2.3-1.6-3.7-3.8-4.1-6.6-.5-2.8.1-5.3 1.7-7.6l5.9-8.3c.2-.4.6-.6 1-.6.4-.1.8 0 1.2.3.3.2.6.6.6 1 .1.4 0 .8-.3 1.2l-5.9 8.3c-1.1 1.6-1.5 3.3-1.2 5.2.3 1.9 1.3 3.4 2.9 4.6 1.6 1.1 3.3 1.5 5.2 1.2 1.9-.3 3.4-1.3 4.6-2.9l5.9-8.3c.2-.4.6-.6 1-.6.4-.1.8 0 1.2.3s.6.6.6 1c.1.4 0 .8-.3 1.2l-10.8 15.3zM1693.2 557.9c.3-.3.6-.5 1-.6.4-.1.8 0 1.2.3s.5.6.6 1c.1.4 0 .8-.3 1.2l-.8 1c2.7-.3 5.1.3 7.3 2s3.6 3.9 4 6.7c.4 2.8-.2 5.3-1.9 7.5l-6.1 8.1c-.3.3-.6.5-1 .6-.4.1-.8 0-1.2-.3s-.5-.6-.6-1c-.1-.4 0-.8.3-1.2l6.1-8.1c1.2-1.6 1.6-3.3 1.3-5.2-.3-1.9-1.2-3.5-2.7-4.6-1.6-1.2-3.3-1.6-5.2-1.3-1.9.3-3.5 1.2-4.6 2.7l-6.1 8.1c-.3.3-.6.5-1 .6-.4.1-.8 0-1.2-.3s-.5-.6-.6-1c-.1-.4 0-.8.3-1.2l11.2-15zM1713.3 573.5c.3-.3.6-.5 1-.6.4 0 .8.1 1.1.3.3.3.5.6.6 1 0 .4-.1.8-.3 1.1l-11.6 14.6c-.3.3-.6.5-1 .6-.4 0-.8-.1-1.1-.3-.3-.3-.5-.6-.6-1 0-.4.1-.8.3-1.1l11.6-14.6zm6.6-2.7c-.3.4-.8.7-1.3.7-.5.1-1-.1-1.4-.4-.4-.3-.7-.8-.7-1.3-.1-.5.1-1 .4-1.4.3-.4.8-.7 1.3-.7.5-.1 1 .1 1.4.4.4.3.7.8.7 1.3.1.5 0 .9-.4 1.4zM1723.3 603.4c-3.1.3-5.8-.5-8.1-2.4s-3.6-4.4-3.9-7.4c-.3-3 .5-5.7 2.5-8 1.9-2.3 4.4-3.6 7.4-3.9s5.7.5 8 2.5c2.3 1.9 3.6 4.4 3.9 7.4.3 3-.5 5.7-2.5 8l-6 7.2c-.3.3-.6.5-1.1.6-.4 0-.8-.1-1.1-.3-.3-.3-.5-.6-.6-1.1 0-.4.1-.8.3-1.1l1.2-1.5zm3.8-16.9c-1.7-1.4-3.6-2-5.7-1.8-2.1.2-3.9 1.1-5.3 2.8s-2 3.6-1.8 5.7c.2 2.1 1.1 3.9 2.8 5.3 1.7 1.4 3.6 2 5.7 1.8 2.1-.2 3.9-1.1 5.3-2.8s2-3.6 1.8-5.7c-.2-2.2-1.1-3.9-2.8-5.3z"/></svg>