<?xml version="1.0" encoding="UTF-8" standalone="no"?>
<svg
   xmlns:dc="http://purl.org/dc/elements/1.1/"
   xmlns:cc="http://creativecommons.org/ns#"
   xmlns:rdf="http://www.w3.org/1999/02/22-rdf-syntax-ns#"
   xmlns:svg="http://www.w3.org/2000/svg"
   xmlns="http://www.w3.org/2000/svg"
   xmlns:sodipodi="http://sodipodi.sourceforge.net/DTD/sodipodi-0.dtd"
   xmlns:inkscape="http://www.inkscape.org/namespaces/inkscape"
   viewBox="929 -806.1 2453 2453"
   id="svg2"
   version="1.1"
   inkscape:version="0.91 r13725"
   sodipodi:docname="earthscape-text-ar.svg">
  <metadata
     id="metadata12">
    <rdf:RDF>
      <cc:Work
         rdf:about="">
        <dc:format>image/svg+xml</dc:format>
        <dc:type
           rdf:resource="http://purl.org/dc/dcmitype/StillImage" />
        <dc:title></dc:title>
      </cc:Work>
    </rdf:RDF>
  </metadata>
  <defs
     id="defs10" />
  <sodipodi:namedview
     pagecolor="#ffffff"
     bordercolor="#666666"
     borderopacity="1"
     objecttolerance="10"
     gridtolerance="10"
     guidetolerance="10"
     inkscape:pageopacity="0"
     inkscape:pageshadow="2"
     inkscape:window-width="1680"
     inkscape:window-height="999"
     id="namedview8"
     showgrid="false"
     showguides="true"
     inkscape:guide-bbox="true"
     inkscape:zoom="1.2271424"
     inkscape:cx="831.98491"
     inkscape:cy="2002.787"
     inkscape:window-x="0"
     inkscape:window-y="25"
     inkscape:window-maximized="1"
     inkscape:current-layer="layer1">
    <sodipodi:guide
       position="1717.1424,1899.2287"
       orientation="0,1"
       id="guide4193" />
  </sodipodi:namedview>
  <g
     inkscape:groupmode="layer"
     id="layer1"
     inkscape:label="Layer 1"
     style="display:inline">
    <path
       style="color:#000000;font-style:normal;font-variant:normal;font-weight:normal;font-stretch:normal;font-size:medium;line-height:normal;font-family:sans-serif;text-indent:0;text-align:start;text-decoration:none;text-decoration-line:none;text-decoration-style:solid;text-decoration-color:#000000;letter-spacing:normal;word-spacing:normal;text-transform:none;direction:ltr;block-progression:tb;writing-mode:lr-tb;baseline-shift:baseline;text-anchor:start;white-space:normal;clip-rule:nonzero;display:inline;overflow:visible;visibility:visible;opacity:1;isolation:auto;mix-blend-mode:normal;color-interpolation:sRGB;color-interpolation-filters:linearRGB;solid-color:#000000;solid-opacity:1;fill:none;fill-opacity:1;fill-rule:evenodd;stroke:none;stroke-width:1.18820226px;stroke-linecap:butt;stroke-linejoin:miter;stroke-miterlimit:4;stroke-dasharray:none;stroke-dashoffset:0;stroke-opacity:1;color-rendering:auto;image-rendering:auto;shape-rendering:auto;text-rendering:auto;enable-background:accumulate"
       d="m 2155.2012,1146.2166 c -203.5434,0 -398.7509,-80.8583 -542.6778,-224.78517 -143.9268,-143.92688 -224.7851,-339.13242 -224.7851,-542.67578 0,-203.54335 80.8583,-398.750845 224.7851,-542.67773 143.9269,-143.92688 339.1344,-224.78518 542.6778,-224.78518 203.5433,0 398.7508,80.8583 542.6777,224.78518 143.9269,143.926885 224.7832,339.13438 224.7832,542.67773 0,203.54336 -80.8563,398.7489 -224.7832,542.67578 -143.9269,143.92687 -339.1344,224.78517 -542.6777,224.78517 z m 0,-1.1875 c 203.2287,0 398.1335,-80.7331 541.8379,-224.43751 143.7043,-143.70437 224.4355,-338.60726 224.4355,-541.83594 0,-203.22868 -80.7312,-398.133505 -224.4355,-541.83789 -143.7044,-143.70442 -338.6092,-224.43752 -541.8379,-224.43752 -203.2287,0 -398.1335,80.7331 -541.8379,224.43752 -143.7044,143.704385 -224.4356,338.60921 -224.4356,541.83789 0,203.22868 80.7312,398.13157 224.4356,541.83594 143.7044,143.70441 338.6092,224.43751 541.8379,224.43751 z"
       id="path3349"
       inkscape:connector-curvature="0" />
    <g
       transform="matrix(-0.72095971,0.69297698,-0.69297698,-0.72095971,3970.5866,-832.68234)"
       style="font-style:normal;font-weight:normal;font-size:40px;line-height:125%;font-family:sans-serif;letter-spacing:0px;word-spacing:0px;fill:#03709c;fill-opacity:1;stroke:none;stroke-width:1px;stroke-linecap:butt;stroke-linejoin:miter;stroke-opacity:1"
       id="text3341">
      <path
         d="m 1377.7657,409.45726 q -0.376,1.63961 -0.7345,3.66946 -0.2962,1.67513 -0.4507,5.20124 -0.065,1.60608 0.1935,4.74219 l -3.5902,0.16124 q -0.1996,-1.3987 -0.2849,-2.86119 -0.1419,-3.16087 0.3902,-6.54754 0.7885,-5.07955 2.5079,-9.45798 l 3.0048,-0.13495 q 0.5349,1.46184 1.6266,3.1333 2.0576,3.15304 3.4102,4.53906 2.6441,2.71613 3.2366,4.15584 1.7546,4.24196 1.8974,7.42234 l 0.1122,2.49749 -3.5901,0.16124 -0.088,-1.95116 q -0.1989,-4.42913 -1.7168,-6.88303 -1.2228,-1.97838 -3.3927,-4.14883 -1.7603,-1.75873 -2.5318,-3.69872 z m 13.7682,5.75524 -0.1314,-2.92674 2.9267,-0.13145 0.1315,2.92674 -2.9268,0.13145 z"
         style=""
         id="path4726" />
      <path
         d="m 1387.9262,432.34533 q 1.7803,1.38333 1.987,4.34488 l 0.1767,2.5329 -3.585,0.25017 -0.102,-1.46129 q -0.1346,-1.92891 -1.0517,-2.72638 -1.0213,-0.88809 -3.0866,-0.74397 l -22.8546,1.59479 -0.2501,-3.58503 22.8545,-1.59479 q 2.0653,-0.14412 2.9534,-1.16545 0.7975,-0.91711 0.6629,-2.84601 l -0.102,-1.46129 3.5851,-0.25017 0.1767,2.53291 q 0.2039,2.92258 -1.3643,4.57873 z"
         style=""
         id="path4728" />
      <path
         d="m 1380.5306,444.48049 q 4.0406,-0.42146 5.0449,-1.90082 0.9019,-1.33122 0.7742,-2.55505 l -0.1215,-1.16555 3.5743,-0.37284 0.2067,1.98144 q 0.235,2.2534 -1.0392,3.78056 -1.4502,1.72224 -2.6837,2.3222 2.8589,2.74557 4.3605,7.1644 1.6515,4.91377 2.0791,9.01263 0.3971,3.80747 -0.09,6.29327 -1.2954,6.59576 -6.4218,7.15012 -2.6787,0.29905 -4.5956,-0.75779 l -0.3728,-3.57436 q 1.9577,1.07221 4.5997,0.79664 2.4282,-0.25328 3.3184,-4.33249 0.4497,-2.08918 0.1438,-5.02248 -0.5657,-5.04668 -2.0191,-8.62614 -1.5299,-3.74823 -3.8966,-5.91675 -1.1297,-1.04076 -3.4414,-0.79963 -1.2044,0.12563 -2.214,0.80042 l -0.3729,-3.57436 q 1.4185,-0.52106 3.1668,-0.70342 z m 15.6008,17.02808 -0.304,-2.91388 2.9139,-0.30394 0.3039,2.91388 -2.9138,0.30394 z"
         style=""
         id="path4730" />
      <path
         d="m 1366.9829,502.40959 -0.549,-3.55157 30.0338,-4.64298 0.5491,3.55156 -30.0339,4.64299 z"
         style=""
         id="path4732" />
      <path
         d="m 1382.2026,508.36624 q 5.7694,-1.02293 10.4358,0.9069 1.8222,0.76789 3.4502,2.00661 4.1606,3.32866 4.6993,6.36721 0.3615,2.03852 0,3.58998 l -3.5386,0.62739 q 0.2881,-1.95531 -0,-3.58998 -0.3853,-2.17313 -3.7722,-4.27031 l -19.3683,13.15361 -0.6103,-3.44241 16.9902,-11.46248 q -0.9258,-0.41109 -2.0517,-0.60818 -2.7609,-0.24443 -6.2994,0.38297 l -13.1927,2.33909 -0.6274,-3.53857 13.885,-2.46183 z m -11.6576,21.62508 -0.6122,-1.43866 q -0.2346,0.91437 -0.8723,1.34482 -0.657,0.43386 -1.5224,0.5873 -1.8462,0.32734 -2.8641,-0.603 -1.0632,-0.96197 -1.3769,-2.73125 -0.2114,-1.19235 0.2459,-2.3049 l 1.9231,-0.34097 q -0.4641,1.07409 -0.2459,2.30489 0.2251,1.26927 0.6292,1.53482 0.7143,0.4486 1.2143,0.35995 1.4808,-0.26255 1.6795,-2.16236 0.08,-0.66873 -0.887,-2.87761 l 1.9615,-0.34779 2.6504,6.33379 -1.9231,0.34097 z"
         style=""
         id="path4734" />
      <path
         d="m 1392.8249,534.10796 q -0.1073,1.67875 -0.1345,3.73984 -0.023,1.70097 0.3921,5.20598 0.1945,1.59557 0.9539,4.64928 l -3.5174,0.73681 q -0.4221,-1.34835 -0.7416,-2.77807 -0.6487,-3.09685 -0.6684,-6.52501 -0.039,-5.14025 0.9534,-9.73827 l 2.9439,-0.61668 q 0.7631,1.35674 2.1096,2.83075 2.5381,2.78088 4.0961,3.9312 3.0467,2.25531 3.8631,3.58091 2.4143,3.90437 3.067,7.02033 l 0.5126,2.44689 -3.5174,0.73681 -0.4005,-1.91164 q -0.909,-4.33941 -2.8019,-6.5171 -1.5252,-1.75585 -4.0161,-3.54888 -2.0204,-1.45256 -3.0939,-3.24315 z m -9.3806,8.47038 -0.6007,-2.86746 2.8675,-0.60065 0.6007,2.86745 -2.8675,0.60066 z"
         style=""
         id="path4736" />
      <path
         d="m 1406.4462,554.68145 q 1.9789,1.08034 2.6572,3.97056 l 0.4016,1.71131 -3.4987,0.82112 -0.1562,-0.66551 q -0.4417,-1.88245 -1.4747,-2.52274 -1.1504,-0.71305 -3.166,-0.24001 l -4.1261,0.96838 -0.8212,-3.49869 4.1262,-0.96838 q 2.0156,-0.47303 2.7286,-1.62342 0.6403,-1.03299 0.1985,-2.91544 l -0.2454,-1.0458 3.4986,-0.82111 0.4909,2.0916 q 0.6694,2.85219 -0.6133,4.73813 z m 4.8221,0.37292 -0.6693,-2.85219 2.8521,-0.66938 0.6694,2.85219 -2.8522,0.66938 z"
         style=""
         id="path4738" />
      <path
         d="m 1404.4411,569.91423 -22.4458,5.64422 -0.8764,-3.48525 22.2185,-5.58706 q 2.0078,-0.50489 2.7026,-1.66642 0.6238,-1.043 0.1523,-2.91821 l -0.3573,-1.42062 3.4853,-0.8764 0.6192,2.4624 q 0.7335,2.917 -0.6281,4.87053 -1.4987,2.12898 -4.8703,2.97681 z"
         style=""
         id="path4740" />
      <path
         d="m 1410.9881,578.52339 q -1.1443,0.11033 -2.5007,0.48118 -2.3739,0.64897 -4.6631,2.34796 l -0.9477,-3.46653 q 1.9656,-1.54977 4.4524,-2.22965 1.5449,-0.42234 2.7542,-0.59096 6.8309,-0.93607 11.2499,3.74799 4.3076,4.57279 5.966,10.63923 l -3.4665,0.94771 q -1.5658,-5.72733 -5.0228,-8.89255 -3.7228,-3.39631 -7.8217,-2.98438 z"
         style=""
         id="path4742" />
      <path
         d="m 1421.4335,607.19412 q 2.4752,1.19655 3.3509,3.93081 1.2273,3.83169 0.06,6.46159 1.2741,0.90446 1.8937,2.8389 l 0.9533,2.97607 -3.4225,1.09622 -0.6911,-2.15765 q -0.3098,-0.96723 -1.217,-1.55852 -0.9317,-0.60394 -1.873,-0.40502 -3.4858,0.70634 -5.7781,-1.3281 -1.6017,-1.41481 -2.0842,-2.92145 -1.0486,-3.27367 -0.028,-5.46675 1.0775,-2.33448 4.5,-3.4307 2.6599,-0.85195 4.3365,-0.0354 z m 0.018,9.46917 q 0.9141,-1.5643 -0.033,-4.52177 -0.28,-0.87422 -0.728,-1.12039 -1.2956,-0.65146 -2.5791,-0.24038 -1.395,0.44683 -1.8635,1.41723 -0.5124,1.02549 0.012,2.66232 0.274,0.85562 1.1061,1.53251 0.8261,0.65829 2.7197,0.3594 0.7299,-0.0902 1.3661,-0.0889 z"
         style=""
         id="path4744" />
      <path
         d="m 1418.8704,632.61812 q 1.494,-1.44762 3.0816,-2.57604 1.3263,-0.93116 2.1005,-2.24555 0.8279,-1.39588 0.433,-2.49919 l -0.4937,-1.37914 3.3835,-1.21121 0.8557,2.39051 q 0.4674,1.30559 -0.1915,2.24676 2.0241,-0.66234 5.3131,0.007 4.4493,0.89668 7.2362,4.85708 1.135,1.60596 1.7406,3.2977 0.7636,2.13307 0.827,4.45454 0.1916,6.73578 -6.3364,9.07262 -3.218,1.15197 -6.1201,1.21586 l -1.2112,-3.38349 q 2.8417,-7.8e-4 6.1333,-1.17908 4.3397,-1.55351 3.9912,-5.59848 -0.1512,-1.81296 -0.6514,-3.21048 -0.5793,-1.6182 -1.4671,-2.93924 -2.1597,-3.25141 -6.8276,-3.13628 -2.0745,0.058 -4.134,0.79528 -3.3835,1.21121 -6.4515,4.40473 l -1.2112,-3.38349 z m 2.2419,13.15882 -0.9874,-2.75828 2.7583,-0.9874 0.9874,2.75828 -2.7583,0.9874 z"
         style=""
         id="path4746" />
      <path
         d="m 1443.2419,668.08435 q 2.567,0.98426 3.6695,3.63522 1.545,3.71496 0.6027,6.43369 1.3457,0.79416 2.1257,2.66967 l 1.2,2.8854 -3.3182,1.38003 -0.87,-2.09191 q -0.39,-0.93776 -1.3437,-1.45071 -0.9792,-0.52347 -1.9004,-0.24613 -3.4141,0.99685 -5.8693,-0.83769 -1.7149,-1.27517 -2.3225,-2.7359 -1.32,-3.17395 -0.4877,-5.44504 0.8775,-2.41679 4.1957,-3.79682 2.5789,-1.07253 4.3182,-0.39981 z m 0.8141,9.43413 q 0.7793,-1.63561 -0.4132,-4.50298 -0.3525,-0.84758 -0.8196,-1.05522 -1.3458,-0.54025 -2.5901,-0.0227 -1.3526,0.56252 -1.7378,1.56887 -0.4244,1.06493 0.2356,2.6519 0.345,0.82956 1.231,1.4341 0.8785,0.58652 2.7403,0.12951 0.7198,-0.15127 1.3538,-0.20344 z"
         style=""
         id="path4748" />
      <path
         d="m 1442.303,701.85026 q -1.152,-5.00964 -1.1795,-9.71347 l 2.7403,-1.23995 q 0.8792,0.9956 2.1966,1.96447 0.9854,-1.51775 1.3488,-2.32533 1.2802,-2.80877 0.3623,-4.83733 l -0.5314,-1.17443 3.2742,-1.48151 0.6924,1.53032 q 1.6828,3.71903 -0.2922,7.3138 -0.6388,1.14657 -1.8898,2.97745 1.3741,0.85744 2.3626,1.28909 3.463,1.54153 4.5473,2.65871 3.203,3.28843 4.5154,6.18892 l 1.0306,2.27768 -3.2742,1.4815 -0.8051,-1.77944 q -1.8277,-4.03932 -4.1476,-5.75508 -1.8695,-1.38362 -4.6897,-2.59429 -2.2871,-0.98023 -3.7232,-2.49566 0.2591,1.66212 0.6791,3.68013 0.3463,1.66551 1.5109,4.99733 0.5357,1.5155 1.9388,4.33209 l -3.2742,1.4815 q -0.7043,-1.22483 -1.326,-2.55136 -1.3043,-2.88269 -2.0664,-6.22514 z m -4.7844,4.5873 -1.2077,-2.66916 2.6691,-1.20775 1.2078,2.66916 -2.6692,1.20775 z"
         style=""
         id="path4750" />
      <path
         d="m 1462.6093,713.2641 q 2.1664,0.62435 3.4567,3.29801 l 0.7641,1.58308 -3.2366,1.56201 -0.2971,-0.61564 q -0.8404,-1.7414 -1.9879,-2.14183 -1.2779,-0.44593 -3.1424,0.45392 l -3.817,1.84216 -1.562,-3.23654 3.817,-1.84215 q 1.8645,-0.89986 2.3104,-2.17773 0.4005,-1.14748 -0.44,-2.88888 l -0.4669,-0.96744 3.2366,-1.56201 0.9338,1.93489 q 1.2734,2.63848 0.4313,4.75815 z m -16.5016,6.87962 -1.2734,-2.63848 2.6385,-1.27338 1.2734,2.63848 -2.6385,1.27338 z m 2.1223,4.39747 -1.2734,-2.63848 2.6385,-1.27338 1.2734,2.63848 -2.6385,1.27338 z"
         style=""
         id="path4752" />
      <path
         d="m 1468.1492,724.50028 q 2.1765,0.58844 3.5109,3.24039 l 1.1412,2.26812 -3.2103,1.61532 -0.6584,-1.30853 q -0.8691,-1.72726 -2.023,-2.10866 -1.2851,-0.42474 -3.1345,0.50583 l -20.4654,10.29766 -1.6153,-3.21027 20.4654,-10.29766 q 1.8494,-0.93056 2.2741,-2.21563 0.3814,-1.15395 -0.4877,-2.88121 l -0.6584,-1.30853 3.2103,-1.61532 1.1412,2.26812 q 1.3168,2.61706 0.5099,4.75037 z"
         style=""
         id="path4754" />
      <path
         d="m 1476.1481,738.06236 q 1.7134,1.37685 3.1578,3.03494 3.6579,4.23085 6.2133,8.8884 2.8482,5.23201 3.3548,7.73882 1.3271,6.60123 -3.1498,9.07978 -2.3536,1.3136 -4.5302,1.08202 l -1.7286,-3.15069 q 2.2202,0.22991 4.549,-1.04778 1.9692,-1.08039 1.3805,-5.27982 -0.2301,-1.67823 -3.0392,-6.79811 -2.1795,-3.97261 -5.7817,-8.34544 l -0.3315,-0.44188 q -0.143,0.83586 -0.6239,1.7458 -1.353,2.56906 -3.4249,3.70583 -0.5308,0.29124 -1.1848,0.56095 -2.8608,1.07948 -5.9113,-1.4351 -0.9387,-0.77708 -1.4272,-1.66749 -0.7704,-1.40411 -0.6752,-3.26084 0.1341,-3.12566 2.5335,-4.84309 0.596,-0.4161 1.1097,-0.69795 2.4658,-1.35284 5.0324,-0.97882 -0.067,-0.1635 -0.1332,-0.28336 l -2.4708,-4.50344 3.1507,-1.72863 2.5178,4.58905 q 0.9864,1.79795 1.4128,4.03685 z m -3.202,1.75682 q -2.0901,-1.17017 -4.1792,-0.024 -0.3424,0.18789 -0.7578,0.52717 -1.0842,0.90675 -1.2635,2.16356 -0.1087,0.81706 0.2671,1.502 0.2255,0.41096 0.6034,0.69372 1.0012,0.80966 2.2071,0.57131 0.3817,-0.0758 0.6899,-0.24486 0.9589,-0.52611 1.7039,-1.84822 0.8753,-1.57183 0.7291,-3.34067 z m -13.7865,10.48235 -1.4092,-2.5685 2.5685,-1.40921 1.4092,2.56849 -2.5685,1.40922 z"
         style=""
         id="path4756" />
      <path
         d="m 1475.4356,802.0227 -1.0989,-1.11215 q 0.1186,0.9365 -0.3158,1.57157 -0.4511,0.64531 -1.1992,1.10666 -1.5959,0.9842 -2.8849,0.49409 -1.3427,-0.50286 -2.2859,-2.03229 -0.6356,-1.0307 -0.6201,-2.23348 l 1.6624,-1.02521 q -0.036,1.16953 0.6202,2.23348 0.6766,1.0972 1.1501,1.19527 0.8293,0.15403 1.2615,-0.11252 1.2801,-0.78941 0.7652,-2.62889 -0.172,-0.65112 -1.8844,-2.34872 l 1.6957,-1.04571 4.7965,4.91268 -1.6624,1.02522 z m 1.6056,-2.94063 -1.8864,-3.05885 25.8672,-15.95229 1.8864,3.05886 -25.8672,15.95228 z"
         style=""
         id="path4758" />
      <path
         d="m 1492.0646,802.56366 -1.5738,-2.47105 2.471,-1.57384 1.5738,2.47106 -2.471,1.57383 z m 14.27,-10.82543 q 2.1722,0.28378 3.8195,2.87015 l 0.9443,1.48263 -3.0312,1.93057 -0.3672,-0.57658 q -1.0387,-1.63089 -2.2252,-1.89408 -1.3214,-0.29309 -3.0676,0.81909 l -3.5748,2.27681 -1.9305,-3.03116 3.5748,-2.27681 q 3.0805,-1.96205 5.8579,-1.60062 z"
         style=""
         id="path4760" />
      <path
         d="m 1505.6349,815.42642 q -1.9656,-4.74976 -2.7715,-9.38411 l 2.4972,-1.67655 q 1.032,0.83628 2.4915,1.57367 0.7205,-1.65995 0.9453,-2.51657 0.7974,-2.98195 -0.4437,-4.83054 l -0.7185,-1.07024 2.9837,-2.00315 0.9363,1.39455 q 2.2753,3.38908 0.9228,7.26123 -0.4402,1.23651 -1.3708,3.24925 1.4971,0.61809 2.5434,0.88012 3.6704,0.94689 4.9248,1.86913 3.7032,2.71273 5.4777,5.35589 l 1.3935,2.07561 -2.9837,2.00316 -1.0886,-1.62157 q -2.4713,-3.68097 -5.0432,-4.98895 -2.0728,-1.055 -5.0545,-1.78203 -2.4179,-0.58802 -4.085,-1.84477 0.5306,1.5963 1.279,3.51691 0.6173,1.58519 2.3174,4.6782 0.7792,1.40589 2.6293,3.9513 l -2.9837,2.00316 q -0.8974,-1.09133 -1.7301,-2.29662 -1.7636,-2.62694 -3.0686,-5.79708 z"
         style=""
         id="path4762" />
      <path
         d="m 1524.2492,828.29045 -18.8898,13.37327 -2.0765,-2.93311 18.6985,-13.23784 q 1.6897,-1.19626 1.9178,-2.53034 0.2048,-1.19795 -0.9124,-2.77609 l -0.8464,-1.19556 2.9331,-2.07652 1.4671,2.0723 q 1.7379,2.45488 1.1742,4.7684 -0.6282,2.52668 -3.4656,4.53549 z"
         style=""
         id="path4764" />
      <path
         d="m 1540.2751,840.76989 -2.7649,2.04255 q -0.6397,-0.66871 -1.9956,-1.68246 -1.1034,-0.83612 -2.2253,-1.27003 1.271,2.50926 0.6689,4.19244 -0.6259,1.74943 -1.9455,2.72428 -1.0211,0.75435 -2.4431,1.29486 -2.2018,0.89816 -4.3869,0.0112 -2.1072,-0.8473 -3.2445,-2.38682 -1.2766,-1.72803 -1.9755,-3.39719 l 2.9063,-2.147 q 0.6735,1.93071 1.5173,3.00715 0.6076,0.78957 1.5847,1.25759 1.8682,0.95104 3.616,-0.36447 1.8066,-1.33462 0.271,-5.05677 -0.4416,-1.05791 -1.3504,-1.79497 -1.134,-0.91057 -2.357,-1.41553 l 2.9063,-2.14699 q 1.987,0.71752 5.6229,3.00951 4.0947,2.58438 5.5953,4.12262 z"
         style=""
         id="path4766" />
      <path
         d="m 1532.0942,877.06517 -2.2384,-2.81156 23.7761,-18.92856 2.2383,2.81156 -23.776,18.92856 z"
         style=""
         id="path4768" />
      <path
         d="m 1555.0075,868.60028 q 2.6867,-2.20637 5.2896,-2.14513 2.3802,0.0671 4.2891,2.3916 l 1.6114,1.96221 -2.7773,2.28074 -0.9296,-1.13204 q -1.2271,-1.4943 -2.4367,-1.61303 -1.3469,-0.13223 -2.9469,1.18167 l -17.7051,14.53973 -2.2808,-2.77728 17.8863,-14.68847 z"
         style=""
         id="path4770" />
      <path
         d="m 1576.3713,882.71964 4.2008,4.88833 -2.7256,2.34224 -3.9462,-4.59207 q -1.884,-2.19234 -3.9973,-1.53506 -0.737,0.22126 -1.2703,0.67952 -1.0221,0.87834 -1.3123,2.5184 l -1.6829,9.42929 q -0.2671,1.51716 -1.4669,2.54825 -0.5185,0.44554 -1.1346,0.71748 -2.1426,1.04288 -4.1034,0.0497 l -14.0756,-7.08961 2.7552,-2.3677 11.2774,5.63142 q 1.3482,0.66984 2.208,0.47174 0.2393,-0.0512 0.6097,-0.36939 0.474,-0.40734 0.6275,-1.33754 l 3.0219,-17.61038 q 0.1051,-0.65686 -0.1713,-1.39797 -0.3103,-0.84064 -1.125,-1.78868 l -1.1202,-1.30355 2.7256,-2.34224 1.6803,1.95533 q 0.8274,0.96286 1.2102,2.12753 0.6742,2.07312 0.4869,3.08386 l -0.5428,2.96442 q 0.9487,-0.27448 1.5651,-0.36636 3.5053,-0.56583 6.3058,2.69305 z"
         style=""
         id="path4772" />
      <path
         d="m 1583.0136,895.60574 q -1.0984,0.99846 -1.712,1.97855 -0.8409,1.39787 -0.6701,2.45681 0.1957,1.40579 1.3597,1.93135 1.2994,0.58731 2.2795,0.0395 1.3073,-0.73963 1.2469,-2.37402 -0.039,-1.20477 -2.504,-4.03217 z m -2.3517,-2.58698 -3.2319,-3.55528 2.6593,-2.41733 2.5487,2.80376 0.9052,1.0248 q 2.583,-1.68817 6.1421,-1.51858 2.29,0.10912 4.3487,1.00914 3.7653,1.64502 8.5606,6.92013 l -2.6592,2.41733 q -4.7427,-5.2173 -7.5753,-6.12655 -3.5801,-1.17991 -6.5336,-0.13158 1.5069,1.74479 1.9969,2.48711 1.4793,2.32418 1.5279,3.62618 0.1063,2.7012 -1.7134,4.61931 -0.4217,0.43618 -1.3769,1.0405 -2.5948,1.64613 -5.991,0.0878 -1.1364,-0.52425 -1.9759,-1.47679 -1.1141,-1.28363 -1.3124,-2.92459 -0.4177,-3.13083 1.331,-5.3012 1.0288,-1.27831 2.3492,-2.5842 z"
         style=""
         id="path4774" />
      <path
         d="m 1591.8963,909.05 q 2.4248,-2.35312 6.2799,-3.37261 4.2574,-1.13775 8.5974,1.42741 1.6978,0.99234 2.786,2.11365 1.7954,1.85017 2.7594,3.88122 2.9757,6.03918 -2.0142,10.88144 -3.2938,3.19643 -5.0684,3.6394 l -2.5028,-2.57901 q 2.6849,-1.27187 5.0957,-3.61138 3.3219,-3.22364 1.3168,-6.74823 -0.9286,-1.62997 -2.1936,-2.9335 -1.0337,-1.06524 -2.2798,-1.78837 -3.368,-1.98427 -7.5134,-0.0299 -1.8361,0.85642 -3.1816,2.1622 -2.579,2.50274 -4.3033,6.95202 l -2.5027,-2.57902 q 0.7719,-3.57959 4.7246,-7.41531 z m 1.6261,19.56872 -2.0403,-2.10246 2.1025,-2.04028 2.0403,2.10246 -2.1025,2.04028 z"
         style=""
         id="path4776" />
      <path
         d="m 1635.7564,933.06171 -1.3484,-0.79133 q 0.356,0.8743 0.1,1.59988 -0.2695,0.73977 -0.8734,1.37835 -1.2883,1.3623 -2.66,1.22097 -1.427,-0.13978 -2.7325,-1.37442 -0.8798,-0.83204 -1.1749,-1.99817 l 1.342,-1.41906 q 0.2667,1.13929 1.1749,1.99817 0.9366,0.88572 1.4194,0.85843 0.8409,-0.0649 1.1899,-0.43388 1.0333,-1.09267 0.062,-2.7373 -0.3341,-0.58477 -2.4261,-1.78364 l 1.3688,-1.44744 5.9007,3.51038 -1.342,1.41906 z m -27.4557,26.61615 -2.611,-2.46928 20.8815,-22.0806 2.611,2.46928 -20.8815,22.0806 z"
         style=""
         id="path4778" />
      <path
         d="m 1629.7977,948.07834 q 2.3502,-2.56185 4.9359,-2.8668 2.3661,-0.26784 4.5825,1.76548 l 1.871,1.71643 -2.4294,2.6482 -1.0794,-0.99024 q -1.4249,-1.30713 -2.6391,-1.25481 -1.3522,0.0583 -2.7517,1.58386 l -15.4875,16.88231 -2.6482,-2.42941 15.6459,-17.05502 z"
         style=""
         id="path4780" />
      <path
         d="m 1650.2024,955.82467 q -1.9961,-0.40845 -2.4175,0.0792 -0.5344,0.64822 -0.01,1.44055 0.3264,0.48856 0.2589,1.46279 -0.1032,1.4338 -0.8822,2.33524 -0.8301,0.96056 -2.3648,1.18316 -2.3826,0.36747 -3.8027,-0.49837 -0.52,-0.29445 -1.1407,-0.83081 -1.729,-1.49415 -1.3034,-4.58541 0.6115,-4.53108 0.1386,-4.93974 l -0.5172,-0.44697 2.3498,-2.71911 0.5172,0.44697 q 1.6846,1.45584 1.1432,5.42792 -0.5111,3.81755 -0.1269,4.14959 0.532,0.45974 0.8303,0.56263 0.8821,0.32345 1.3291,-0.19377 0.613,-0.70934 -0,-1.93842 -0.6957,-1.37558 0.8308,-3.23156 1.2072,-1.48654 3.9753,-1.31436 3.1175,0.21596 6.735,2.54183 1.4685,0.95924 3.0054,2.28738 2.7782,2.40086 3.9836,4.5009 3.0145,5.26388 -0.3314,9.13566 -1.9539,2.261 -4.0342,2.78646 l -2.7191,-2.34978 q 2.1099,-0.49992 4.0638,-2.76092 1.4558,-1.68467 -0,-4.95724 -0.5794,-1.30097 -3.2247,-3.5869 -1.3447,-1.16211 -2.5848,-2.02722 -2.3934,-1.68115 -3.7015,-1.95971 z"
         style=""
         id="path4782" />
      <path
         d="m 1662.9735,1006.6779 -2.8234,-2.2235 18.8029,-23.87553 2.8234,2.22348 -18.8029,23.87555 z"
         style=""
         id="path4784" />
      <path
         d="m 1678.168,1000.657 q 3.5226,-4.6822 8.2518,-6.45248 1.8565,-0.68082 3.892,-0.88481 5.3131,-0.40222 7.7791,1.45303 1.6544,1.24466 2.4492,2.62475 l -2.1606,2.87181 q -1.1225,-1.62671 -2.4492,-2.62479 -1.7636,-1.32685 -5.671,-0.55144 l -5.1982,22.82823 -2.7937,-2.1019 4.6118,-19.96966 q -0.9575,0.3306 -1.9155,0.95417 -2.1861,1.70379 -4.3466,4.57559 l -8.0551,10.7067 -2.8718,-2.1606 8.4778,-11.2686 z m 6.2184,23.7672 -1.4287,-0.635 q 0.4519,0.8288 0.2789,1.5786 -0.1848,0.7653 -0.7132,1.4677 -1.1272,1.4983 -2.5061,1.5118 -1.4337,0.021 -2.8696,-1.0589 -0.9676,-0.728 -1.3917,-1.8537 l 1.1742,-1.5607 q 0.3929,1.1021 1.3918,1.8536 1.03,0.775 1.5067,0.6937 0.8284,-0.1589 1.1337,-0.5647 0.9041,-1.2018 -0.2459,-2.727 -0.3977,-0.5435 -2.6111,-1.5 l 1.1977,-1.5919 6.2575,2.8257 -1.1742,1.5608 z"
         style=""
         id="path4786" />
      <path
         d="m 1717.8515,1013.7977 -2.995,-2.0903 q -3.7958,-2.6493 -6.5661,-3.0823 -4.0346,-0.6009 -4.7787,0.4994 -1.477,2.1845 0.5048,4.0203 0.5367,0.4937 1.3055,1.0302 1.2812,0.8943 4.1406,0.9608 4.1763,0.057 8.3889,-1.3381 z m -1.9952,-5.775 9.2092,6.4275 4.2763,2.9847 -2.0568,2.9469 -4.2763,-2.9846 -15.3368,21.974 -2.9469,-2.0568 14.1518,-20.2763 q -7.0413,2.6834 -12.5684,1.1837 -1.8424,-0.4999 -2.9315,-1.26 -1.8739,-1.3079 -3.1196,-3.1062 -2.2077,-3.1843 0.4193,-6.9481 1.8891,-2.7067 6.0545,-2.3956 4.5767,0.3361 9.1252,3.5108 z"
         style=""
         id="path4788" />
      <path
         d="m 1727.8952,1034.1021 q -2.1484,-3.2558 -0.9475,-5.9689 0.4003,-0.9043 0.8467,-1.5925 0.7758,-1.1962 1.6407,-1.776 1.1873,-0.7897 2.3086,-1.2264 -0.4584,-0.693 -2.8672,-2.2554 l -2.081,-1.3497 1.9555,-3.0151 3.5559,2.3063 q 2.2285,1.4454 4.6542,4.3456 3.6373,1.0322 5.8658,2.4776 l 3.5559,2.3063 -1.9556,3.0151 -2.0811,-1.3498 q -2.4088,-1.5623 -3.2285,-1.6982 0.05,0.9637 -0.1784,2.608 -0.1448,0.977 -0.9525,2.2223 -0.4676,0.721 -1.1089,1.4226 -1.8967,2.0988 -5.8528,1.5582 -0.6404,-0.089 -1.7055,-0.7803 -1.0323,-0.6695 -1.4243,-1.2497 z m 3.3799,-1.7654 q 0.2458,0.1595 0.647,0.1869 1.2577,0.071 2.2143,-0.5426 0.3871,-0.2378 0.6953,-0.713 0.457,-0.7046 0.627,-1.8282 0.2147,-1.4437 -0.6657,-2.527 -1.2556,-0.3254 -2.5788,0.4226 -0.9411,0.5537 -1.43,1.3074 -0.255,0.3933 -0.3511,0.9363 -0.1758,1.0965 0.4075,2.243 0.2051,0.3658 0.4345,0.5146 z m -4.7015,9.9407 -2.458,-1.5942 1.5942,-2.4579 2.458,1.5942 -1.5942,2.4579 z"
         style=""
         id="path4790" />
      <path
         d="m 1749.4224,1038.6976 -12.1813,19.6796 -3.0557,-1.8914 12.0579,-19.4803 q 1.0896,-1.7604 0.7796,-3.0779 -0.2785,-1.183 -1.9226,-2.2007 l -1.2455,-0.7709 1.8914,-3.0558 2.159,1.3364 q 2.5575,1.583 2.9403,3.9333 0.4066,2.5716 -1.4231,5.5277 z"
         style=""
         id="path4792" />
      <path
         d="m 1763.1938,1040.2341 q -2.555,1.3599 -4.7863,5.1911 l -11.1073,19.0716 -3.1055,-1.8087 11.1073,-19.0716 q 3.116,-5.3501 6.1854,-6.8172 3.782,-1.798 8.8358,-0.3464 2.5958,0.7433 4.0304,1.5788 1.6034,0.9339 2.6192,2.0227 4.0239,4.423 1.3573,9.0404 -1.3396,2.3389 -3.3241,3.2625 l -3.1054,-1.8086 q 2.2274,-1.302 3.3578,-3.2429 1.2778,-2.1941 -0.9144,-4.8722 -0.5178,-0.6632 -1.7499,-1.3808 -1.3502,-0.7863 -3.524,-1.2839 -3.4577,-0.8158 -5.8763,0.4652 z"
         style=""
         id="path4794" />
      <path
         d="m 1794.4952,1068.032 q -1.0978,0.3758 -1.7915,1.7102 -0.5315,1.0225 0.1528,2.5008 0.312,0.7125 1.0836,1.0916 0.9101,0.4511 1.9816,0.084 1.0626,-0.3502 1.5393,-1.225 0.7207,-1.3864 0.1099,-2.5404 -0.468,-0.7935 -1.1958,-1.1719 -1.2477,-0.6486 -1.8799,-0.4489 z m 13.8898,-0.5501 -4.1765,-2.1711 q -1.4557,-0.7567 -4.2797,-1.7184 -1.4771,-0.5037 -3.3547,0.5675 -0.9696,0.5525 -1.68,1.2839 1.5873,-0.3856 3.2863,0.4535 2.2708,1.1365 3.001,3.0349 0.9145,2.3905 -0.2476,4.626 -0.4684,0.9012 -1.0034,1.5916 -1.7318,2.3576 -4.9529,2.2021 -1.676,-0.079 -2.993,-0.7635 -1.5597,-0.8107 -2.253,-2.2718 -1.0151,-2.1125 -0.8934,-4.2945 0.061,-1.091 1.322,-3.5172 1.8738,-3.6046 4.5137,-5.38 2.5076,-1.6902 5.0528,-1.3357 2.2403,0.3061 4.7531,1.6123 l 5.5628,2.8917 -1.6575,3.1887 z m -17.7652,15.3311 -2.5994,-1.3513 1.3512,-2.5994 2.5995,1.3513 -1.3513,2.5994 z"
         style=""
         id="path4796" />
      <path
         d="m 1829.4749,1066.1107 -2.6441,-1.2616 1.2616,-2.6441 2.6442,1.2616 -1.2617,2.6441 z m 4.4069,2.1027 -2.6441,-1.2616 1.2616,-2.6442 2.6441,1.2617 -1.2616,2.6441 z m -13.2427,0.5415 q -2.033,0.1336 -2.3106,0.7153 -0.344,0.7664 0.3751,1.3909 0.4439,0.3849 0.6363,1.3423 0.2794,1.4101 -0.2336,2.4854 -0.5467,1.1458 -1.968,1.7661 -2.2008,0.9841 -3.7993,0.5244 -0.5793,-0.1466 -1.3196,-0.4998 -2.0624,-0.9841 -2.469,-4.0779 -0.6078,-4.5316 -1.1719,-4.8007 l -0.617,-0.2944 1.5476,-3.2434 0.617,0.2943 q 2.0095,0.9589 2.5371,4.9328 0.516,3.8169 0.9744,4.0356 0.6346,0.3028 0.9494,0.3232 0.9362,0.079 1.2306,-0.5382 0.4037,-0.8461 -0.515,-1.8688 -1.0344,-1.1428 -0.053,-3.3362 0.7714,-1.7527 3.4866,-2.3183 3.0637,-0.6156 7.1673,0.6714 1.6698,0.5371 3.503,1.4118 3.314,1.5812 5.0316,3.288 4.2985,4.28 2.0949,8.8984 -1.2868,2.697 -3.1543,3.7536 l -3.2435,-1.5476 q 1.9028,-1.0398 3.1896,-3.7368 0.9588,-2.0095 -1.3113,-4.7806 -0.9027,-1.1016 -4.058,-2.6071 -1.6041,-0.7654 -3.0287,-1.272 -2.7527,-0.9888 -4.0879,-0.9117 z"
         style=""
         id="path4798" />
      <path
         d="m 1855.1772,1086.2728 q 2.5129,-1.115 5.1652,-0.016 3.7168,1.5406 4.9686,4.1314 1.5137,-0.3874 3.3902,0.3903 l 2.8868,1.1966 -1.376,3.3199 -2.093,-0.8675 q -0.9382,-0.3889 -1.9758,-0.079 -1.0631,0.3205 -1.5198,1.1672 -1.7144,3.1161 -4.7485,3.55 -2.1148,0.3074 -3.5763,-0.2984 -3.1755,-1.3162 -4.1892,-3.5124 -1.0846,-2.3312 0.2915,-5.651 1.0694,-2.5802 2.7763,-3.3315 z m 7.2364,6.1073 q -0.6026,-1.7086 -3.4714,-2.8977 -0.8481,-0.3515 -1.3255,-0.1688 -1.3346,0.5674 -1.8506,1.8124 -0.5609,1.3532 -0.1234,2.3379 0.4512,1.0539 2.039,1.712 0.83,0.344 1.8843,0.1467 1.0363,-0.2047 2.0323,-1.8427 0.403,-0.6152 0.8153,-1.0998 z"
         style=""
         id="path4800" />
      <path
         d="m 1878.3483,1110.8516 q -4.3524,-2.735 -7.6924,-6.0473 l 1.0656,-2.8127 q 1.3256,0.084 2.9426,-0.1592 -0.3735,-1.7706 -0.6862,-2.5992 -1.076,-2.8931 -3.1582,-3.6819 l -1.2054,-0.4567 1.2732,-3.3607 1.5708,0.5951 q 3.8172,1.4462 4.956,5.3865 0.3569,1.2631 0.7633,3.443 1.5786,-0.3627 2.5834,-0.7548 3.541,-1.3527 5.0977,-1.3269 4.59,0.068 7.5671,1.196 l 2.3378,0.8857 -1.2732,3.3607 -1.8265,-0.692 q -4.146,-1.5708 -7.0003,-1.1484 -2.3008,0.3397 -5.153,1.4731 -2.3119,0.9202 -4.3988,0.8606 1.3568,0.9944 3.0788,2.1272 1.421,0.9352 4.5979,2.473 1.4493,0.6953 4.4313,1.6998 l -1.2732,3.3606 q -1.3635,-0.3704 -2.7402,-0.8711 -2.9588,-1.121 -5.8581,-2.9504 z m -0.1505,6.6265 -2.7396,-1.0379 1.0379,-2.7397 2.7397,1.038 -1.038,2.7396 z"
         style=""
         id="path4802" />
      <path
         d="m 1900.7882,1104.6011 q 1.9752,-1.0871 4.7766,-0.1043 l 1.6587,0.582 -1.1898,3.3911 -0.645,-0.2263 q -1.8246,-0.6402 -2.92,-0.1137 -1.2199,0.5862 -1.9053,2.5398 l -1.4031,3.9992 -3.3911,-1.1897 1.4031,-3.9993 q 0.6854,-1.9536 0.099,-3.1735 -0.5264,-1.0954 -2.351,-1.7355 l -1.0137,-0.3556 1.1898,-3.3911 2.0273,0.7112 q 2.7645,0.9699 3.6643,3.0657 z m -6.8314,16.5216 -2.7644,-0.9699 0.9699,-2.7645 2.7644,0.9699 -0.9699,2.7645 z m 4.6075,1.6165 -2.7645,-0.9699 0.9699,-2.7645 2.7645,0.9699 -0.9699,2.7645 z"
         style=""
         id="path4804" />
      <path
         d="m 1912.644,1108.6488 q 1.9569,-1.1196 4.7741,-0.1832 l 2.4095,0.8008 -1.1335,3.4103 -1.3901,-0.462 q -1.8349,-0.6099 -2.9214,-0.065 -1.2101,0.6063 -1.8631,2.5709 l -7.226,21.7408 -3.4103,-1.1335 7.226,-21.7408 q 0.653,-1.9646 0.047,-3.1746 -0.5445,-1.0866 -2.3794,-1.6965 l -1.39,-0.462 1.1335,-3.4103 2.4094,0.8008 q 2.7802,0.9241 3.7146,3.0047 z"
         style=""
         id="path4806" />
      <path
         d="m 1927.8833,1112.6081 q 2.1855,-0.2343 4.379,-0.079 5.5775,0.4145 10.6753,1.9095 5.7108,1.6951 7.8392,3.113 5.6,3.7387 4.1787,8.6546 -0.7397,2.5919 -2.4449,3.9644 l -3.4485,-1.0113 q 1.7349,-1.4045 2.4824,-3.9534 0.632,-2.1553 -2.7494,-4.7142 -1.3477,-1.0262 -6.9515,-2.6696 -4.3481,-1.2751 -9.9864,-1.8295 l -0.5468,-0.079 q 0.4889,0.6929 0.7906,1.6769 0.8553,2.7747 0.1902,5.0425 -0.1704,0.581 -0.4432,1.2337 -1.2643,2.7841 -5.2,3.1564 -1.2134,0.1123 -2.188,-0.1735 -1.5368,-0.4507 -2.7801,-1.833 -2.1115,-2.3086 -1.6244,-5.2188 0.1284,-0.7154 0.2933,-1.2777 0.7915,-2.6988 2.8734,-4.2458 -0.1632,-0.068 -0.2944,-0.1066 l -4.9291,-1.4456 1.0113,-3.4485 5.0229,1.473 q 1.9679,0.5771 3.8504,1.8619 z m -1.0278,3.5048 q -2.3065,0.6466 -2.977,2.9331 -0.1099,0.3748 -0.1646,0.9084 -0.1279,1.4076 0.6324,2.4243 0.4998,0.6555 1.2495,0.8753 0.4498,0.1319 0.917,0.065 1.2807,-0.1333 1.9666,-1.1534 0.2169,-0.3231 0.3158,-0.6604 0.3078,-1.0496 -0.098,-2.5119 -0.4896,-1.7312 -1.8418,-2.8808 z m -2.3651,17.1567 -2.8113,-0.8245 0.8245,-2.8113 2.8113,0.8245 -0.8245,2.8113 z"
         style=""
         id="path4808" />
      <path
         d="m 1972.5297,1158.4134 -1.5634,-0.012 q 0.7451,0.5796 0.8857,1.3361 0.1361,0.7755 -0.068,1.6303 -0.4356,1.8237 -1.6946,2.3865 -1.306,0.5917 -3.0537,0.1742 -1.1778,-0.2813 -2.0159,-1.1442 l 0.4538,-1.8997 q 0.8001,0.8538 2.0159,1.1442 1.2538,0.2995 1.6584,0.035 0.6961,-0.4763 0.8141,-0.9702 0.3494,-1.4628 -1.3138,-2.4022 -0.5816,-0.3397 -2.9928,-0.3333 l 0.4629,-1.9377 6.8653,0.094 -0.4538,1.8997 z m -0.9386,-3.2162 -3.4954,-0.8349 7.0604,-29.5592 3.4954,0.835 -7.0604,29.5591 z"
         style=""
         id="path4810" />
      <path
         d="m 1984.6897,1147.0578 -2.8591,-0.6392 0.6392,-2.8591 2.8591,0.6392 -0.6392,2.8591 z m 2.4654,-17.7411 q 1.7388,-1.3324 4.7314,-0.6633 l 1.7154,0.3835 -0.7841,3.5072 -0.6671,-0.1492 q -1.887,-0.4219 -2.9132,0.2293 -1.1428,0.7252 -1.5945,2.7456 l -0.9247,4.1362 -3.5072,-0.7841 0.9247,-4.1362 q 0.7969,-3.5644 3.0193,-5.269 z"
         style=""
         id="path4812" />
      <path
         d="m 2003.3815,1146.5888 q -4.7451,-1.9767 -8.5875,-4.6902 l 0.5853,-2.9504 q 1.3213,-0.1361 2.8756,-0.6442 -0.6615,-1.6843 -1.107,-2.4497 -1.5402,-2.675 -3.7242,-3.1082 l -1.2645,-0.2508 0.6993,-3.5251 1.6476,0.3268 q 4.004,0.7942 5.7794,4.4916 0.5612,1.1866 1.3229,3.2691 1.4967,-0.6191 2.4228,-1.1721 3.2681,-1.9203 4.8075,-2.1526 4.538,-0.6928 7.6607,-0.073 l 2.4522,0.4865 -0.6992,3.525 -1.9158,-0.38 q -4.3489,-0.8626 -7.0939,0.027 -2.2128,0.716 -4.8379,2.3059 -2.1277,1.2903 -4.1957,1.5771 1.5027,0.756 3.3886,1.5881 1.5562,0.687 4.9439,1.6775 1.5443,0.4458 4.6515,0.9427 l -0.6992,3.525 q -1.406,-0.1395 -2.8466,-0.4053 -3.1036,-0.6157 -6.2658,-1.9398 z"
         style=""
         id="path4814" />
      <path
         d="m 2025.6469,1142.5599 -3.939,22.8069 -3.5413,-0.6116 3.899,-22.576 q 0.3524,-2.0401 -0.4278,-3.146 -0.7006,-0.9931 -2.606,-1.3222 l -1.4434,-0.2493 0.6116,-3.5413 2.502,0.4321 q 2.9639,0.5119 4.1978,2.5485 1.3387,2.233 0.7471,5.6589 z"
         style=""
         id="path4816" />
      <path
         d="m 2045.8072,1140.0859 -0.5164,3.3985 q -0.9252,-0.022 -2.6012,0.2171 -1.3717,0.1867 -2.4727,0.6713 2.6716,0.8801 3.4334,2.4973 0.7916,1.681 0.5451,3.303 -0.1908,1.2551 -0.8163,2.6417 -0.9255,2.1905 -3.0993,3.1048 -2.0906,0.8873 -3.983,0.5998 -2.124,-0.3228 -3.7973,-1.0117 l 0.5428,-3.5722 q 1.84,0.892 3.1975,1.0588 0.9878,0.1303 2.0102,-0.228 1.9946,-0.6451 2.3039,-2.8108 0.3375,-2.2206 -3.3778,-3.7729 -1.0595,-0.4376 -2.2235,-0.3181 -1.446,0.1556 -2.6687,0.6613 l 0.5429,-3.5723 q 1.9139,-0.8945 6.1071,-1.8378 4.7246,-1.06 6.8733,-1.0298 z"
         style=""
         id="path4818" />
      <path
         d="m 2065.6345,1171.5686 -3.5701,-0.4113 3.4781,-30.1909 3.5702,0.4113 -3.4782,30.1909 z"
         style=""
         id="path4820" />
      <path
         d="m 2075.8881,1149.398 q 0.3454,-3.4594 2.2322,-5.2534 1.7333,-1.6328 4.7263,-1.3339 l 2.5265,0.2523 -0.3571,3.5759 -1.4576,-0.1455 q -1.924,-0.1921 -2.8645,0.5776 -1.0474,0.8572 -1.2531,2.9173 l -2.2764,22.7968 -3.576,-0.3571 2.2997,-23.03 z"
         style=""
         id="path4822" />
      <path
         d="m 2094.315,1147.424 q 4.0624,-3.303 7.9954,-2.9916 l 2.2975,0.1819 -0.2836,3.5826 -1.8692,-0.148 q -2.0833,-0.165 -3.43,0.5121 -1.2042,0.61 -2.0432,1.3077 1.7576,1.8045 2.9429,3.6616 0.5239,0.8056 0.4546,1.6818 -0.048,0.6036 -0.3641,1.3818 -0.3963,1.0462 -2.5014,1.8984 -1.8022,0.7389 -4.1192,0.5555 -2.317,-0.1835 -3.9805,-1.1968 -1.9447,-1.1728 -2.1715,-2.2683 -0.1899,-0.8183 -0.1421,-1.4219 0.069,-0.8762 0.7136,-1.5893 1.6503,-1.7894 3.4824,-3.1529 -0.5558,-0.6514 -1.812,-1.6129 -1.126,-0.8729 -3.3067,-1.0455 l -1.8691,-0.148 0.2836,-3.5826 2.2975,0.1819 q 3.933,0.3114 7.4251,4.2125 z m -1.7147,7.7992 q 0.5734,0.1825 1.0796,0.2226 0.5062,0.04 1.1011,-0.05 0.9336,-0.1612 0.9829,-0.7842 0.045,-0.5647 -1.8143,-2.5731 -2.1518,1.6909 -2.1965,2.2555 -0.049,0.6231 0.8472,0.9292 z"
         style=""
         id="path4824" />
      <path
         d="m 2112.2015,1152.273 -1.3531,23.1049 -3.5876,-0.2101 1.3394,-22.8709 q 0.121,-2.0668 -0.7784,-3.0782 -0.8077,-0.9081 -2.738,-1.0211 l -1.4623,-0.086 0.2101,-3.5876 2.5347,0.1485 q 3.0027,0.1758 4.4574,2.0609 1.581,2.0687 1.3778,5.5393 z"
         style=""
         id="path4826" />
      <path
         d="m 2119.8459,1152.6598 q 0.1481,-3.4734 1.9298,-5.3719 1.6377,-1.7286 4.6428,-1.6005 l 2.5367,0.1082 -0.1531,3.5905 -1.4635,-0.062 q -1.9318,-0.082 -2.8271,0.7396 -0.9969,0.9153 -1.0851,2.9838 l -0.9761,22.8893 -3.5904,-0.1531 0.986,-23.1235 z"
         style=""
         id="path4828" />
      <path
         d="m 2143.2305,1149.4062 q -2.3682,-0.8615 -3.8523,-0.8872 -0.8593,-0.015 -1.2768,0.4076 -1.0543,1.0952 -1.074,2.2278 -0.01,0.4687 0.1023,0.8613 0.3803,1.7256 1.5267,2.0776 0.7771,0.2479 1.6754,0.2634 1.1522,0.02 1.6886,-0.4981 1.3509,-1.3049 1.3739,-2.6328 0.014,-0.7812 -0.1638,-1.8196 z m -8.5141,-2.4136 q 0.2977,-0.2683 0.5543,-0.4201 2.6243,-1.5172 4.0889,-1.4918 3.5347,0.061 6.2618,1.6322 0.9669,0.5637 2.4579,-0.9341 0.497,-0.4993 0.5238,-2.042 l 0.1236,-7.1278 3.9056,0.068 -0.1236,7.1278 q -0.058,3.3784 -2.4365,5.3297 -1.2879,1.052 -3.0455,1.0216 0.025,0.8208 0.011,1.602 -0.05,2.8901 -3.2584,5.413 -1.525,1.2042 -3.3216,1.1731 -1.406,-0.024 -3.0342,-0.7559 -3.2958,-1.444 -4.0163,-4.9531 -0.2703,-1.3135 -1.0365,-2.1863 -0.7272,-0.8721 -2.7776,-0.9077 l -1.4647,-0.025 0.062,-3.5932 2.5387,0.044 q 3.4175,0.059 3.9867,1.0263 z"
         style=""
         id="path4830" />
    </g>
  </g>
</svg>
