<svg xmlns="http://www.w3.org/2000/svg" height="31.2" width="164.3" viewBox="-204 395.2 164.3 31.2"><g stroke-miterlimit="10" fill="none" stroke="#fff" stroke-width="3"><path d="M-188.4 424.9c-7.7 0-14.1-6.3-14.1-14.1 0-7.7 6.3-14.1 14.1-14.1 7.7 0 14.1 6.3 14.1 14.1s-6.4 14.1-14.1 14.1zM-144 424.9c-7.7 0-14.1-6.3-14.1-14.1 0-7.7 6.3-14.1 14.1-14.1 7.7 0 14.1 6.3 14.1 14.1-.1 7.8-6.4 14.1-14.1 14.1zM-99.7 424.9c-7.7 0-14.1-6.3-14.1-14.1 0-7.7 6.3-14.1 14.1-14.1 7.7 0 14.1 6.3 14.1 14.1s-6.3 14.1-14.1 14.1zM-55.3 424.9c-7.7 0-14.1-6.3-14.1-14.1 0-7.7 6.3-14.1 14.1-14.1 7.7 0 14.1 6.3 14.1 14.1-.1 7.8-6.4 14.1-14.1 14.1z"/></g></svg>