<?xml version="1.0" standalone="no"?>
<!DOCTYPE svg PUBLIC "-//W3C//DTD SVG 20010904//EN"
 "http://www.w3.org/TR/2001/REC-SVG-20010904/DTD/svg10.dtd">
<svg version="1.0" xmlns="http://www.w3.org/2000/svg"
 width="192.000000pt" height="192.000000pt" viewBox="0 0 192.000000 192.000000"
 preserveAspectRatio="xMidYMid meet">
<metadata>
Created by potrace 1.11, written by Peter Selinger 2001-2013
</metadata>
<g transform="translate(0.000000,192.000000) scale(0.100000,-0.100000)"
fill="#000000" stroke="none">
<path d="M793 1906 c-204 -39 -383 -136 -524 -283 -120 -126 -203 -277 -246
-449 -24 -95 -24 -333 0 -428 46 -182 128 -328 261 -462 134 -133 279 -215
462 -261 103 -26 343 -23 445 5 184 50 340 142 462 272 122 129 201 274 244
446 24 95 24 333 0 428 -89 356 -354 625 -706 717 -99 27 -298 34 -398 15z
m799 -451 c20 -8 20 -11 -19 -150 -30 -109 -107 -275 -167 -359 -82 -114 -187
-199 -338 -271 l-71 -34 -2 -50 c-1 -32 -11 -64 -28 -94 -30 -51 -114 -129
-165 -153 -57 -27 -164 -54 -212 -54 l-45 1 80 42 c104 54 158 99 186 152 18
34 21 48 13 65 -9 22 -16 23 -96 21 -102 -3 -130 9 -181 71 -81 100 -94 170
-52 273 28 68 30 86 13 103 -40 40 -178 -17 -276 -114 -34 -34 -62 -61 -62
-59 0 1 14 33 32 70 38 82 133 187 200 221 57 29 142 32 194 8 l34 -16 72 64
c248 220 408 281 718 274 85 -2 163 -7 172 -11z"/>
<path d="M1124 1296 c-38 -17 -71 -57 -86 -107 -15 -52 1 -104 47 -149 30 -29
43 -34 92 -38 48 -3 64 0 92 20 48 32 72 68 78 116 7 53 -26 124 -71 152 -39
23 -105 26 -152 6z"/>
</g>
</svg>
