<svg xmlns="http://www.w3.org/2000/svg" viewBox="-195 318.8 205 205.1"><path opacity=".35" fill="#1F3749" d="M10 429c0 52.7-42.7 95.3-95.3 95.3h-.3c-52.7 0-95.3-42.7-95.3-95.3v-.3c0-52.7 42.7-95.3 95.3-95.3h.3c52.7 0 95.3 42.7 95.3 95.3v.3z"/><path fill="#72C800" d="M-5 413.3c0 52.5-42.5 95-95 95s-95-42.5-95-95 42.5-95 95-95 95 42.6 95 95z"/><circle fill="#FFF" cx="-99.8" cy="368.3" r="23.1"/><circle fill="#FFF" cx="-51.7" cy="440.7" r="17.5"/><circle fill="#FFF" cx="-100.2" cy="465" r="17.5"/><circle fill="#FFF" cx="-147.7" cy="440.7" r="17.5"/><path fill="#FFF" d="M-133.4 417.1c-.7 0-1.4-.2-2.1-.6-1.8-1.1-2.4-3.5-1.2-5.3l10.5-16.7c1.1-1.8 3.5-2.4 5.3-1.2 1.8 1.1 2.4 3.5 1.2 5.3l-10.5 16.7c-.7 1.2-2 1.8-3.2 1.8zM-66.5 417.1c-1.3 0-2.5-.6-3.3-1.8l-10.5-16.7c-1.1-1.8-.6-4.2 1.2-5.3 1.8-1.1 4.2-.6 5.3 1.2l10.5 16.7c1.1 1.8.6 4.2-1.2 5.3-.5.4-1.3.6-2 .6zM-100 439.2c-2.1 0-4-1.7-4-3.9v-31c0-2.1 1.9-3.9 4-3.9s4 1.7 4 3.9v31c0 2.2-1.8 3.9-4 3.9z"/></svg>