<svg xmlns="http://www.w3.org/2000/svg" viewBox="-1131 798.9 616.9 205.1"><path opacity=".35" fill="#1F3749" d="M-609.4 813c52.7 0 95.3 42.7 95.3 95.3v.3c0 52.7-42.7 95.3-95.3 95.3h-412.4c-52.7 0-95.3-42.7-95.3-95.3v-.3c0-52.7 42.7-95.3 95.3-95.3h412.4z"/><path fill="#72C800" d="M-1036.1 988c-52.5 0-95-42.5-95-95s42.5-95 95-95h412c52.5 0 95 42.5 95 95s-42.5 95-95 95h-412z"/><circle fill="#FFF" cx="-1035.9" cy="847.9" r="23.1"/><circle fill="#FFF" cx="-987.8" cy="920.4" r="17.5"/><circle fill="#FFF" cx="-1036.3" cy="944.6" r="17.5"/><circle fill="#FFF" cx="-1083.8" cy="920.4" r="17.5"/><path fill="#FFF" d="M-1069.5 896.7c-.7 0-1.4-.2-2.1-.6-1.8-1.1-2.4-3.5-1.2-5.3l10.5-16.7c1.1-1.8 3.5-2.4 5.3-1.2 1.8 1.1 2.4 3.5 1.2 5.3l-10.5 16.7c-.7 1.2-2 1.8-3.2 1.8zm66.9 0c-1.3 0-2.5-.6-3.3-1.8l-10.5-16.7c-1.1-1.8-.6-4.2 1.2-5.3s4.2-.6 5.3 1.2l10.5 16.7c1.1 1.8.6 4.2-1.2 5.3-.6.4-1.3.6-2 .6zm-33.5 22.1c-2.1 0-4-1.7-4-3.9v-31c0-2.1 1.9-3.9 4-3.9s4 1.7 4 3.9v31c0 2.2-1.8 3.9-4 3.9z"/></svg>