<svg xmlns="http://www.w3.org/2000/svg" viewBox="-1131 798.9 107.10006 205.9"><path d="M-1119.3 813.9c52.7 0 95.3 42.7 95.3 95.3v.3c0 52.7-42.7 95.3-95.3 95.3h-412.4c-52.7 0-95.3-42.7-95.3-95.3v-.3c0-52.7 42.7-95.3 95.3-95.3h412.4z" opacity=".35" fill="#1f3749"/><path d="M-1546 988.9c-52.5 0-95-42.5-95-95s42.5-95 95-95h412c52.5 0 95 42.5 95 95s-42.5 95-95 95h-412z" fill="#72c800"/><circle cx="-1545.8" cy="848.8" r="23.1" fill="#fff"/><circle cx="-1497.7" cy="921.3" r="17.5" fill="#fff"/><circle cx="-1546.2" cy="945.5" r="17.5" fill="#fff"/><circle cx="-1593.7" cy="921.3" r="17.5" fill="#fff"/><path d="M-1579.4 897.6c-.7 0-1.4-.2-2.1-.6-1.8-1.1-2.4-3.5-1.2-5.3l10.5-16.7c1.1-1.8 3.5-2.4 5.3-1.2 1.8 1.1 2.4 3.5 1.2 5.3l-10.5 16.7c-.7 1.2-2 1.8-3.2 1.8zm66.9 0c-1.3 0-2.5-.6-3.3-1.8l-10.5-16.7c-1.1-1.8-.6-4.2 1.2-5.3 1.8-1.1 4.2-.6 5.3 1.2l10.5 16.7c1.1 1.8.6 4.2-1.2 5.3-.6.4-1.3.6-2 .6zm-33.5 22.1c-2.1 0-4-1.7-4-3.9v-31c0-2.1 1.9-3.9 4-3.9s4 1.7 4 3.9v31c0 2.2-1.8 3.9-4 3.9z" fill="#fff"/></svg>