<svg xmlns="http://www.w3.org/2000/svg" viewBox="-1131 798.9 176.99999 205.89999"><path d="M-609.3 813.9c52.7 0 95.3 42.7 95.3 95.3v.3c0 52.7-42.7 95.3-95.3 95.3h-412.4c-52.7 0-95.3-42.7-95.3-95.3v-.3c0-52.7 42.7-95.3 95.3-95.3h412.4z" opacity=".35" fill="#1f3749"/><path d="M-1036 988.9c-52.5 0-95-42.5-95-95s42.5-95 95-95h412c52.5 0 95 42.5 95 95s-42.5 95-95 95h-412z" fill="#72c800"/><path d="M-1019.878 934.887c-1.2-3-2.5-6.2-5.1-8.1-3.6-2.7-8.8-2.3-12.8-.2-3.4 1.8-5.4 4.7-8.4 7-1.9 1.5-4 2.8-5.6 4.6-4.4 5-2.6 11.9.9 16.8 2.3 3.3 5.5 6.2 9.5 7 4.5.9 8.9-1.1 13-3.2 4.3-2.2 8.8-4.8 10.5-9.3 1.7-4.6-.2-9.9-2-14.6zm-19 20.7c-.1.5-.2 1-.4 1.4-.5 1.2-1.8 2.2-3 2.1h-.4c-.2 0-.3-.1-.5-.2.2.1.4.2.5.2h.4c1.8-.1 2-4.3 1.8-5.4-.5-2.3-1.9-5.1-4.3-5.9-1.7-.6-1.4 1-3.1 1.8-1.5.6-2.7.3-3.3-1.3-2.5-6.2 3.1-7.5 7.4-3.9 3.2 2.8 5.8 6.9 4.9 11.2zm1.2-12.7c-.9-.5-.9-2.1-1.1-2.9-.1-.6-.1-1.2.4-1.6.4-.3.8-.2 1.3-.1.9.1 1.7.2 2.6.4.3 0 .7.1 1 .3l.1.1c.4.4.5 1.1.2 1.6-.6 1.2-3 3.1-4.5 2.2zm6.5 15c-.7.3-1.3.6-2 .8.2 0 .4-.1.6-.1l-1.4.6v-.2c-.1-.1-.1-.3 0-.3.2-1.1 1.2-2.1 2.4-2.1.5 0 1.1.2 1 .7.1.3-.3.5-.6.6zm-1-25c-1.8.2-7.3-.5-5.1-3.9.6-1 1.8-1.4 3-1.6 2.1-.4 3.7 1.1 1.8 2.7 1 .3 2.3.4 3.3-.1 1.1-.5 1.8-1.9 1.1-2.8 1.1-.2 2.1.9 2 2-.1 1.1-.9 2-1.8 2.6-1.3.6-2.8.9-4.3 1.1zm6.9 15.2c.3.6.7 1.2.9 1.8.2.6.1 1.5-.4 1.8-.5.3-1.2.2-1.6-.1-.5-.4-.7-.9-.9-1.5-.9-3 1-7.9 4.5-8-2.4.9-3.4 3.9-2.5 6zm50.4-37.3c-19.6-19-47-30.9-47-30.9 14.5 13.5 24.4 36.2 27.3 42.3 5 10.6 14.5 10.9 19.4 6.9 5-4 7.1-11.8.3-18.3zm-1.7 15.4c-3.1 2.5-7.6 2-10.1-1.1s-2-7.6 1.1-10.1 7.6-2 10.1 1.1c2.4 3.1 1.9 7.6-1.1 10.1zm-54.8-87.1c-.1-.3-.3-.6-.4-.9-4.5-8.1-14.7-11.1-22.9-6.6-5.1 2.8-8.1 7.9-8.6 13.3-10.7 2.8-17.9 5.8-17.5 7.7.3 1.9 8.1 2.1 19.1 1 .1.3.3.6.5.9 4.5 8.1 14.7 11.1 22.9 6.6 5.1-2.8 8.2-7.9 8.6-13.3 10.8-2.8 17.9-5.8 17.6-7.7-.5-1.9-8.2-2.2-19.3-1zm-41.9 11c-.2-1.2 3.7-3.1 10-4.9-.1 2 .1 4.1.7 6.1-6.3.3-10.5 0-10.7-1.2zm53.1-9.7c.2 1.2-3.6 3-9.6 4.8-.1-2-.6-4-1.5-5.9 6.5-.5 10.9-.2 11.1 1.1zm-41.5 57.8c-.3.1-.8.1-1.5.2-1.3.2-3.1.5-5.2 1-1.1.2-2.2.5-3.4.8l-2.4.6c-2-3.9-6.3-6-10.6-5.3-1.1-2.7-2.2-5.3-3.2-7.6s-1.9-4.2-2.6-5.5c-.3-.7-.6-1.2-.8-1.5-.2-.3-.3-.5-.3-.5s0 .2.1.6c.1.4.2 1 .3 1.7.3 1.4.7 3.5 1.3 5.9.6 2.4 1.3 5.2 2.2 8.1-3.8 2-5.9 6.3-5.2 10.6-2 .8-3.8 1.6-5.5 2.4-2 .9-3.6 1.7-4.7 2.4-.6.3-1 .6-1.3.7-.3.2-.5.3-.5.3s.2 0 .5-.1.8-.1 1.5-.2c1.3-.2 3.1-.5 5.2-1 1.7-.4 3.7-.9 5.8-1.5 2 3.9 6.3 6 10.6 5.3.5 1.4 1.1 2.7 1.6 4 .6 1.3 1.1 2.6 1.6 3.7 1 2.3 1.9 4.2 2.6 5.5.3.7.6 1.2.8 1.5.2.3.3.5.3.5s0-.2-.1-.6c-.1-.4-.2-1-.3-1.7-.3-1.4-.7-3.5-1.3-5.9-.3-1.2-.6-2.5-1-3.9-.4-1.3-.7-2.7-1.2-4.2 3.8-2 5.9-6.3 5.2-10.6.8-.3 1.5-.6 2.2-.9 1.1-.5 2.2-1 3.2-1.4 2-.9 3.6-1.7 4.7-2.4.6-.3 1-.6 1.3-.7.3-.2.5-.3.5-.3h-.4zm22.4-7.2h-.2c-.2 0-.5-.1-.8-.1-.2 0-.4 0-.6-.1h-.4c-.1-.7-.6-1.2-1.3-1.3 0-.5-.1-.9-.1-1.3s-.1-.7-.1-1v-.4.4c0 .2-.1.6-.1 1s-.1.9-.1 1.3c-.7.1-1.2.7-1.3 1.3-.3 0-.7 0-1 .1-.3 0-.6.1-.8.1h-.3.3c.2 0 .5.1.8.1.3 0 .6.1 1 .1.1.7.6 1.2 1.3 1.3v.7c0 .2 0 .4.1.6 0 .4.1.7.1 1 0-.2.1-.6.1-1 0-.2 0-.4.1-.6v-.7c.7-.1 1.2-.7 1.3-1.3h.4c.2 0 .4 0 .6-.1.3 0 .6-.1.8-.1.1.1.2.1.2 0 .1.1.1.1 0 0 .1.1.1.1 0 0zm55-30.5c0 .1 0 .2-.1.3 0 .3-.1.7-.2 1.2 0 .2-.1.5-.1.8v.6c-1 .2-1.8.9-1.9 1.9-.7 0-1.4.1-1.9.1-.6.1-1.1.1-1.4.2-.2 0-.3 0-.4.1h-.1.1c.1 0 .2 0 .4.1.3 0 .8.1 1.4.2.6.1 1.2.1 1.9.1.2 1 .9 1.8 1.9 1.9 0 .5.1 1 .1 1.4.1.5.1.9.2 1.2 0 .1 0 .3.1.3 0-.1 0-.2.1-.3 0-.3.1-.7.2-1.2 0-.4.1-.9.1-1.4 1-.2 1.8-.9 1.9-1.9.3 0 .7 0 1-.1.3 0 .6 0 .9-.1.6-.1 1.1-.1 1.4-.2.2 0 .3 0 .4-.1-.1 0-.2 0-.4-.1-.3 0-.8-.1-1.4-.2-.3 0-.6-.1-.9-.1-.3 0-.7 0-1-.1-.2-1-.9-1.8-1.9-1.9v-.6c0-.3 0-.6-.1-.8-.1-.5-.1-.9-.2-1.2 0 .1 0 0-.1-.1v-.1s.1 0 0 .1z" fill="#fff"/></svg>