<?xml version="1.0" encoding="utf-8"?>
<!-- Generator: Adobe Illustrator 19.1.0, SVG Export Plug-In . SVG Version: 6.00 Build 0)  -->
<svg version="1.1" id="Layer_1" xmlns="http://www.w3.org/2000/svg" xmlns:xlink="http://www.w3.org/1999/xlink" x="0px" y="0px"
	 viewBox="-228 351.9 138 138" enable-background="new -228 351.9 138 138" xml:space="preserve">
<g id="Download_IMG_button">
	<path fill="#03709C" d="M-90,366.6c0-8.1-6.6-14.7-14.7-14.7h-108.6c-8.1,0-14.7,6.6-14.7,14.7v108.6c0,8.1,6.6,14.7,14.7,14.7
		h108.6c8.1,0,14.7-6.6,14.7-14.7C-90,475.2-90,366.6-90,366.6z"/>
	<path fill="#FFFFFF" d="M-121.6,424.6l-32.6,32.6c-2.7,2.7-7,2.7-9.7,0l-32.7-32.6c-4.3-4.3-1.3-11.8,4.9-11.8h65.2
		C-120.3,412.8-117.3,420.2-121.6,424.6z"/>
	<path fill="#FFFFFF" d="M-146.7,440.4h-24.8c-4.1,0-7.4-3.3-7.4-7.4v-61.7c0-4.1,3.3-7.4,7.4-7.4h24.8c4.1,0,7.4,3.3,7.4,7.4v61.6
		C-139.2,437.1-142.6,440.4-146.7,440.4z"/>
	<path fill="#FFFFFF" d="M-118.1,475.9h-82c-3.3,0-6-2.7-6-6v-2.7c0-3.3,2.7-6,6-6h82c3.3,0,6,2.7,6,6v2.7
		C-112.1,473.2-114.8,475.9-118.1,475.9z"/>
</g>
</svg>
