<svg id="Layer_1" xmlns="http://www.w3.org/2000/svg" viewBox="-1370 832 138 138"><style>.st0{fill:#03709C;} .st1{fill:none;} .st2{enable-background:new ;} .st3{fill:#FFFFFF;}</style><g id="Download_PDF_button"><path class="st0" d="M-1232 846.7c0-8.1-6.6-14.7-14.7-14.7h-108.6c-8.1 0-14.7 6.6-14.7 14.7v108.6c0 8.1 6.6 14.7 14.7 14.7h108.6c8.1 0 14.7-6.6 14.7-14.7V846.7z"/><path class="st1" d="M-1353.3 928.3h106.7V969h-106.7z"/><g class="st2"><path class="st3" d="M-1346.1 955.8v-29.3c0-.1 0-.2.1-.3.1-.1.2-.1.4-.2.2 0 .4-.1.5-.1h18.5c1.4 0 2.8.2 4 .7 1.3.5 2.4 1.1 3.4 2s1.8 2 2.3 3.4.9 3 .9 4.7c0 1.3-.1 2.5-.4 3.5s-.7 2-1.1 2.7c-.5.8-1.1 1.4-1.7 2-.7.6-1.4 1.1-2.1 1.5-.7.4-1.5.7-2.4.9-.9.3-1.7.4-2.4.6-.7.1-1.5.2-2.3.3h-4.1c-.1 2.3-.2 4.9-.2 7.7v2.5c0 .5-.3.8-.7.8h-12.1c-.5-.9-.6-2.1-.6-3.4zm12-15.4l.7 1c.6 0 1.1 0 1.7-.1s1.1-.2 1.6-.5 1-.5 1.3-.8c.4-.3.7-.8.9-1.3.2-.5.3-1.1.3-1.8 0-.5-.1-1-.2-1.4-.1-.4-.3-.7-.5-1-.2-.3-.5-.5-.8-.7-.3-.2-.6-.3-.9-.4-.3-.1-.7-.2-1.1-.2-.4-.1-.8-.1-1.1-.1h-1.1c-.6.2-.8 2.6-.8 7.3zM-1313.6 926.5c0-.2.1-.3.3-.4.2-.1.4-.2.8-.3.3-.1.7-.1 1-.2.3 0 .7-.1 1.2-.1h9.3c6.8 0 11.6 1.2 14.5 3.6l.8.7c.2.2.5.5.8.9.3.4.7.9 1.1 1.7.4.8.8 1.6 1.2 2.5.3.9.6 2 .9 3.3s.4 2.6.4 4c0 2.1-.3 4.1-.9 6s-1.3 3.5-2.3 4.8-2.1 2.5-3.5 3.5c-1.3 1-2.8 1.7-4.3 2.2-1.5.5-3.1.7-4.8.7H-1303.2c-3.6 0-6.8.1-9.7.2-.3-.7-.5-1.3-.5-1.9v-31.2zm12.5 25.3c.9 0 1.6-.1 2.3-.3.7-.2 1.3-.5 1.7-.8.5-.3.9-.7 1.2-1.2.4-.5.6-1 .8-1.5s.4-1.1.5-1.8c.1-.7.2-1.3.2-1.9 0-.6.1-1.3.1-2v-1.4c0-2.7-.5-4.7-1.6-6-1-1.3-2.8-2-5.4-2-.1.2-.2.4-.3.7s-.3.5-.3.7v2.8c-.1 9.6.1 14.6.8 14.7zM-1278.6 955.7v-29.4c0-.5 1.1-.7 3.3-.7h1.9c1.1 0 2.8 0 5-.1s3.9-.1 5-.1h8.1c.5 0 .9.1 1.1.3.2.2.3.6.3 1.2v7.7c-.8.1-1.7.1-2.6.1-.9 0-2 0-3.4.1h-5.5V937.8c3.2-.2 5.9-.4 8.2-.4.7 0 1.3.1 1.8.2s.8.3.8.5v7.3c0 .6-.1 1.1-.4 1.3-.2.2-.6.3-1.1.3H-1257.4c-2.9.2-5.5.3-7.9.4 0 .9 0 2.2.1 4 0 1.8.1 3.1.1 4v2.7c0 .4 0 .7-.1.8-.1.1-.3.2-.6.3h-12l-.3-.6s-.1-.4-.2-.5-.1-.4-.1-.7v-.6-.7c-.2-.1-.2-.3-.2-.4z"/></g><path class="st3" d="M-1275.2 882.4l-22.2 22.3c-1.8 1.8-4.8 1.8-6.6 0l-22.3-22.3c-3-3-.9-8 3.3-8h44.5c4.2 0 6.3 5.1 3.3 8z"/><path class="st3" d="M-1294.6 893.2h-12.3c-4.1 0-7.4-3.3-7.4-7.4v-37.4c0-4.1 3.3-7.4 7.4-7.4h12.3c4.1 0 7.4 3.3 7.4 7.4v37.4c0 4.1-3.3 7.4-7.4 7.4zM-1273.7 917.5h-54.1c-2.8 0-5-2.3-5-5 0-2.8 2.3-5 5-5h54.2c2.8 0 5 2.3 5 5s-2.3 5-5.1 5z"/></g></svg>