<svg xmlns="http://www.w3.org/2000/svg" viewBox="-1131 798.9 617 205.1"><path opacity=".35" fill="#1F3749" d="M-514 909.6c0 52.7-42.7 95.3-95.3 95.3h-412.4c-52.6 0-95.3-42.7-95.3-95.3v-.3c0-52.7 42.7-95.4 95.3-95.4h412.3c52.7 0 95.3 42.7 95.3 95.3v.4h.1z"/><path fill="#00A8DE" d="M-528 894.6c0 52.7-42.7 95.3-95.3 95.3h-412.4c-52.6 0-95.3-42.7-95.3-95.3v-.3c0-52.7 42.7-95.4 95.3-95.4h412.3c52.7 0 95.4 42.7 95.4 95.3v.4z"/><g fill="#FFF"><path d="M-1072.5 827.6l-24.7 106.6c-.8 3.4 1.3 6.8 4.7 7.6l87.3 20.2c3.4.8 6.8-1.3 7.6-4.7l24.7-106.6c.8-3.4-1.3-6.8-4.7-7.6l-87.3-20.3c-3.4-.8-6.8 1.4-7.6 4.8zm60.1 124.2l-70-16.2c-3.4-.8-5.5-4.2-4.7-7.6l20.9-90.4c.8-3.4 4.2-5.5 7.6-4.7l70 16.2c3.4.8 5.5 4.2 4.7 7.6l-20.9 90.4c-.8 3.3-4.2 5.4-7.6 4.7z"/><path d="M-1003.7 964.1c-.6 0-1.3-.1-1.9-.2l-87.3-20.2c-4.4-1-7.2-5.5-6.2-9.9l24.7-106.7c.9-3.8 4.2-6.4 8.1-6.4.6 0 1.3.1 1.9.2l87.3 20.2c4.4 1 7.2 5.5 6.2 9.9l-24.7 106.6c-.9 3.9-4.2 6.5-8.1 6.5zm-62.6-139.5c-2.1 0-3.8 1.4-4.3 3.4l-24.7 106.6c-.5 2.4.9 4.7 3.3 5.3l87.3 20.2c.3.1.7.1 1 .1 2.1 0 3.8-1.4 4.3-3.4l24.7-106.6c.5-2.4-.9-4.7-3.3-5.3l-87.3-20.2c-.3-.1-.7-.1-1-.1zm55.3 129.3c-.6 0-1.3-.1-1.9-.2l-70-16.2c-4.4-1-7.2-5.5-6.2-9.9l20.9-90.4c.9-3.8 4.2-6.4 8.1-6.4.6 0 1.3.1 1.9.2l70 16.2c4.4 1 7.2 5.5 6.2 9.9l-20.9 90.4c-.9 3.7-4.2 6.4-8.1 6.4zm-49-119.3c-2.1 0-3.8 1.4-4.3 3.4l-20.9 90.4c-.5 2.4.9 4.7 3.3 5.3l70 16.2c.3.1.7.1 1 .1 2.1 0 3.8-1.4 4.3-3.4l20.9-90.4c.5-2.4-.9-4.7-3.3-5.3l-70-16.2c-.4 0-.7-.1-1-.1z"/></g><g fill="#FFF"><path d="M-1022.3 896.1c1.6-5.6.2-11.8-4.3-15.9s-10.9-4.9-16.3-2.6c-5.6-4.2-10.4-7-13.5-7.9-2.2-.6-3.8-.3-4.9.9-2 2.2-.8 5.7 3.8 11.7 1.4 1.8 3.1 3.8 5 5.9-1.7 5.6-.2 11.9 4.3 15.9 4.5 4.1 10.9 4.9 16.3 2.6 5.6 4.2 10.4 7 13.5 7.9 2.2.6 3.8.3 4.9-.9 1-1 2.7-5.2-8.8-17.6zm-34.7-21.5c2.1.8 5.4 2.7 9.6 5.7-.5.5-1.1 1-1.6 1.5s-.9 1.1-1.3 1.7c-3.6-4-5.8-7.1-6.7-8.9zm29.5 29.5c.5-.5 1.1-1 1.6-1.5s.9-1.1 1.3-1.7c3.6 4 5.8 7.1 6.7 8.9-2.1-.8-5.4-2.7-9.6-5.7z"/><path d="M-1016.4 915.7c-.6 0-1.4-.1-2.1-.3-3-.8-7.8-3.6-13.5-7.8-2 .8-4 1.2-6.1 1.2-3.9 0-7.6-1.4-10.5-4-4.5-4-6.2-10.2-4.5-16.2-1.9-2-3.5-3.9-4.8-5.7-4.8-6.3-6-9.9-3.8-12.4 1.2-1.3 3-1.7 5.4-1 3 .8 7.8 3.6 13.5 7.8 2-.8 4-1.2 6.1-1.2 3.9 0 7.6 1.4 10.5 4 4.4 4 6.2 10.2 4.6 16.1 11.4 12.3 9.8 16.8 8.6 18.1-1 .9-2.1 1.4-3.4 1.4zm-15.5-9.2l.2.2c5.7 4.2 10.4 7 13.4 7.8.7.2 1.3.3 1.9.3 1.1 0 1.9-.3 2.5-1 .6-.6 2.8-4.4-8.8-17l-.2-.2.1-.3c1.6-5.7 0-11.6-4.2-15.4-2.7-2.4-6.2-3.7-9.8-3.7-2 0-4.1.4-6 1.2l-.3.1-.2-.2c-5.6-4.2-10.4-7-13.4-7.8-2-.5-3.5-.3-4.4.8-1.8 2-.6 5.3 3.9 11.1 1.4 1.8 3.1 3.7 5 5.8l.2.2-.1.3c-1.7 5.7-.1 11.6 4.2 15.5 2.7 2.4 6.2 3.7 9.8 3.7 2 0 4.1-.4 6-1.2l.2-.2zm15 4.4l-1.2-.4c-2.2-.8-5.7-2.9-9.7-5.8l-.5-.4.5-.4c.6-.5 1.1-1 1.5-1.5.4-.5.8-1 1.3-1.7l.4-.5.4.5c3.2 3.6 5.7 6.9 6.7 9l.6 1.2zm-9.8-6.6c3 2.1 5.7 3.8 7.7 4.7-.9-1.4-2.5-3.7-5.5-7.1-.3.5-.7.9-1 1.3-.4.3-.8.7-1.2 1.1zm-23.6-19.8l-.4-.5c-3.2-3.6-5.7-6.9-6.7-9l-.6-1.1 1.2.4c2.2.8 5.7 2.9 9.7 5.8l.5.4-.5.4c-.6.5-1.1 1-1.5 1.5s-.8 1-1.3 1.7l-.4.4zm-5.6-8.7c.9 1.4 2.5 3.7 5.5 7.1.3-.5.7-.9 1-1.3.3-.4.7-.8 1.2-1.2-3-1.9-5.7-3.6-7.7-4.6z"/></g><g fill="#FFF"><circle cx="-1019.5" cy="859.1" r="2.9"/><path d="M-1019.5 862.4c-1.9 0-3.4-1.5-3.4-3.4s1.5-3.4 3.4-3.4 3.4 1.5 3.4 3.4c-.1 1.9-1.6 3.4-3.4 3.4zm0-5.7c-1.3 0-2.4 1.1-2.4 2.4s1.1 2.4 2.4 2.4 2.4-1.1 2.4-2.4-1.1-2.4-2.4-2.4z"/></g><g fill="#FFF"><circle cx="-1000.5" cy="880.2" r="2"/><path d="M-1000.5 882.7c-1.4 0-2.5-1.1-2.5-2.5s1.1-2.5 2.5-2.5 2.5 1.1 2.5 2.5-1.1 2.5-2.5 2.5zm0-4c-.8 0-1.5.7-1.5 1.5s.7 1.5 1.5 1.5 1.5-.7 1.5-1.5-.6-1.5-1.5-1.5z"/></g><g fill="#FFF"><circle cx="-1051.6" cy="847.1" r="1.6"/><path d="M-1051.6 849.1c-1.1 0-2.1-.9-2.1-2.1 0-1.2.9-2.1 2.1-2.1 1.2 0 2.1.9 2.1 2.1 0 1.2-1 2.1-2.1 2.1zm0-3.1c-.6 0-1.1.5-1.1 1.1 0 .6.5 1.1 1.1 1.1s1.1-.5 1.1-1.1c0-.6-.5-1.1-1.1-1.1z"/></g><g fill="#FFF"><circle cx="-1066.2" cy="917.5" r="5.1"/><path d="M-1066.2 923.1c-3.1 0-5.6-2.5-5.6-5.6 0-3.1 2.5-5.6 5.6-5.6 3.1 0 5.6 2.5 5.6 5.6 0 3.1-2.5 5.6-5.6 5.6zm0-10.2c-2.6 0-4.6 2.1-4.6 4.6s2.1 4.6 4.6 4.6c2.6 0 4.6-2.1 4.6-4.6s-2.1-4.6-4.6-4.6z"/></g><g fill="#FFF"><circle cx="-1025.4" cy="929.1" r="1.7"/><path d="M-1025.4 931.3c-1.2 0-2.2-1-2.2-2.2s1-2.2 2.2-2.2c1.2 0 2.2 1 2.2 2.2.1 1.2-.9 2.2-2.2 2.2zm0-3.5c-.7 0-1.2.6-1.2 1.2s.6 1.2 1.2 1.2 1.2-.6 1.2-1.2-.5-1.2-1.2-1.2z"/></g><g fill="#FFF"><circle cx="-1016.7" cy="937.6" r="1"/><path d="M-1016.7 939.1c-.8 0-1.5-.7-1.5-1.5s.7-1.5 1.5-1.5 1.5.7 1.5 1.5-.6 1.5-1.5 1.5zm0-2c-.3 0-.5.2-.5.5s.2.5.5.5.5-.2.5-.5-.2-.5-.5-.5z"/></g></svg>