<svg xmlns="http://www.w3.org/2000/svg" viewBox="-1131 798.9 176 205.89997"><path d="M-610.3 813.9c52.7 0 95.3 42.7 95.3 95.3v.3c0 52.7-42.7 95.3-95.3 95.3h-411.4c-52.7 0-95.3-42.7-95.3-95.3v-.3c0-52.7 42.7-95.3 95.3-95.3h411.4z" opacity=".35" fill="#1f3749"/><path d="M-1036 988.9c-52.5 0-95-42.5-95-95s42.5-95 95-95h411c52.5 0 95 42.5 95 95s-42.5 95-95 95h-411z" fill="#c828bd"/><circle cx="-1071.8" cy="851.1" r="17.1" fill="#f7f4ed"/><path d="M-985.9 858.9h-49.5c-4.3 0-7.8-3.7-7.8-8s3.5-8 7.8-8h49.5c4.3 0 7.8 3.7 7.8 8s-3.5 8-7.8 8z" fill="#fff"/><circle cx="-1071.8" cy="895.8" r="17.1" fill="#f7f4ed"/><path d="M-985.9 903.9h-49.5c-4.3 0-7.8-4.2-7.8-8.5s3.5-8.5 7.8-8.5h49.5c4.3 0 7.8 4.2 7.8 8.5s-3.5 8.5-7.8 8.5z" fill="#fff"/><circle cx="-1071.8" cy="940.5" r="17.1" fill="#f7f4ed"/><path d="M-985.9 947.9h-49.5c-4.3 0-7.8-3.2-7.8-7.5s3.5-7.5 7.8-7.5h49.5c4.3 0 7.8 3.2 7.8 7.5s-3.5 7.5-7.8 7.5z" fill="#fff"/></svg>