<svg xmlns="http://www.w3.org/2000/svg" viewBox="-1131 798.9 617 205.1"><path opacity=".35" fill="#1F3749" d="M-610.3 814c52.7 0 95.3 42.7 95.3 95.3v.3c0 52.7-42.7 95.3-95.3 95.3h-411.4c-52.7 0-95.3-42.7-95.3-95.3v-.3c0-52.7 42.7-95.3 95.3-95.3h411.4z"/><path fill="#C828BD" d="M-1036 989c-52.5 0-95-42.5-95-95s42.5-95 95-95h411c52.5 0 95 42.5 95 95s-42.5 95-95 95h-411z"/><circle fill="#F7F4ED" cx="-1071.8" cy="851.2" r="17.1"/><path fill="#FFF" d="M-985.9 859h-49.5c-4.3 0-7.8-3.7-7.8-8s3.5-8 7.8-8h49.5c4.3 0 7.8 3.7 7.8 8s-3.5 8-7.8 8z"/><circle fill="#F7F4ED" cx="-1071.8" cy="895.9" r="17.1"/><path fill="#FFF" d="M-985.9 904h-49.5c-4.3 0-7.8-4.2-7.8-8.5s3.5-8.5 7.8-8.5h49.5c4.3 0 7.8 4.2 7.8 8.5s-3.5 8.5-7.8 8.5z"/><circle fill="#F7F4ED" cx="-1071.8" cy="940.6" r="17.1"/><path fill="#FFF" d="M-985.9 948h-49.5c-4.3 0-7.8-3.2-7.8-7.5s3.5-7.5 7.8-7.5h49.5c4.3 0 7.8 3.2 7.8 7.5s-3.5 7.5-7.8 7.5z"/></svg>