<svg xmlns="http://www.w3.org/2000/svg" viewBox="-195 318.8 205 205.1"><path opacity=".35" fill="#1F3749" d="M10 429.5c0 52.7-42.7 95.3-95.3 95.3h-.3c-52.7 0-95.4-42.7-95.4-95.3v-.3c0-52.7 42.7-95.4 95.3-95.4h.3c52.7 0 95.3 42.7 95.3 95.3l.1.4z"/><path fill="#C828BD" d="M-5 413.8c0 52.5-42.5 95-95 95s-95-42.5-95-95 42.5-95 95-95 95 42.5 95 95z"/><circle fill="#F7F4ED" cx="-135.8" cy="371.1" r="17.1"/><path fill="#FFF" d="M-49.9 378.8h-49.6c-4.3 0-7.8-3.7-7.8-8s3.5-8 7.8-8H-50c4.3 0 7.8 3.7 7.8 8s-3.4 8-7.7 8z"/><circle fill="#F7F4ED" cx="-135.8" cy="415.8" r="17.1"/><path fill="#FFF" d="M-49.9 423.8h-49.6c-4.3 0-7.8-4.2-7.8-8.5s3.5-8.5 7.8-8.5H-50c4.3 0 7.8 4.2 7.8 8.5s-3.4 8.5-7.7 8.5z"/><g><circle fill="#F7F4ED" cx="-135.8" cy="460.5" r="17.1"/><path fill="#FFF" d="M-49.9 467.8h-49.6c-4.3 0-7.8-3.2-7.8-7.5s3.5-7.5 7.8-7.5H-50c4.3 0 7.8 3.2 7.8 7.5s-3.4 7.5-7.7 7.5z"/></g></svg>