<svg xmlns="http://www.w3.org/2000/svg" viewBox="-108 237.2 379 367.7"><g opacity=".35"><path fill="#1F3749" d="M17.1 344.1c-1.1-.7-4.1 1.7-7.3 5.7l-4.8.3h-.1c-.1 0-.3.1-.5.4-.2-.1-.7-.5-.9-.5-.1-.1-.4.1-.6.4-.2.3-.2.6-.1.7l.8.5c-.1.3-.2.5-.1.5 0 0 0 .1.1.1l1.6 4.2c-2.9 4.8-4.3 8.9-3.2 9.7.2.1.3.1.6.1 2.5.1 6.5-1.1 9.8-3.5.8.3 1.6.4 2.4.4l1.8 2.6.5-.2.7 1 .4-.2.2 2.9.5-.4-.1-1.9.9 1.4 2.8-1.8-1-1.5 1.9.9.5-.4-2.7-1.3.4-.3-.7-1.1.4-.3-3-5c-.1 0-.9-.3-1.2-.4 2.2-4.5 1.8-9.5.2-12.7 0-.1-.1-.2-.2-.3zM6.2 354.8c-.2.3-.4.7-.6 1L4.5 353l.1-.5.1-.1h.1c.2.5.8 1.4 1.4 2.4zm9.9 4l.8.2-.3 1.6-1.6-.3c.3-.3.6-.7.9-1.1 0-.1.1-.2.2-.4zm-2.8 3.2c.1-.1.3-.2.4-.3l.3.5c-.3-.1-.5-.2-.7-.2zm-6.2-8.6l-.6.9-1.4-2.2c.2-.1.3-.2.4-.3.1-.1.1-.2.1-.3l2.4.7c-.4.4-.6.8-.9 1.2zm-1.6-2.3v-.2c.1-.1.4-.3.4-.3l3.5-.2c-.4.5-.7 1-1.1 1.5l-2.8-.8zm10 11l-1.1-1.1.4-.4 1.8.3-.2 1c-.4.1-.7.1-.9.2zm2.4.7l-1 .7-.6-.6c.5-.1 1.1-.3 1.6-.6v.5zm-.2-1.5c-.4.2-.7.4-1.1.5l.2-.8.9.2v.1zm-.1-.5l-.8-.1.3-1.5h.2l.3 1.6z"/><g fill="#1F3749"><path d="M91 439.4c-2.6 0-6 2.1-6 4.7v22c0 2.6 3.4 4.7 6 4.7s6-2.1 6-4.7v-22c0-2.7-3.4-4.7-6-4.7zM152.7 439.8H148v12h4.7c2.6 0 5.3-1.3 5.3-3.9v-3.6c0-2.6-2.8-4.5-5.3-4.5zM120.5 439.4c-2.6 0-4.5 2.1-4.5 4.7v22c0 2.6 1.9 4.7 4.5 4.7s4.5-2.1 4.5-4.7v-22c0-2.7-1.9-4.7-4.5-4.7z"/><path d="M90.5 333.5c-52.6 0-95.3 42.7-95.3 95.3s42.7 95.3 95.3 95.3 95.3-42.7 95.3-95.3-42.6-95.3-95.3-95.3zm54.5 53.4c0-1.6.6-4 2.2-4h12.3c1.7 0 2.9 1.4 2.9 3 0 1.7-1.3 3-2.9 3H150v11h8.2c1.7 0 2.9 1.9 2.9 3.5 0 1.7-1.3 3.5-2.9 3.5H150v12h9.4c1.7 0 2.9 1.4 2.9 3 0 1.7-1.3 3-2.9 3h-12.3c-1.6 0-2.2-1.2-2.2-2.9v-35.1h.1zm-27.7-23.6c.9 0 1.7.8 1.7 1.7s-.8 1.7-1.7 1.7-1.7-.8-1.7-1.7.8-1.7 1.7-1.7zM33 411.2l-9.8-10.1c-2.1-2.1-3.1-5-2.9-8 .2-2.9 1.7-5.6 4-7.4 2.3-1.8 5.4-2.5 8.3-1.9 2.9.6 5.4 2.4 6.9 5 .8 1.4.3 3.2-1.1 4-1.4.8-3.2.3-4-1.1-.7-1.1-1.7-1.8-2.9-2.1-1.3-.2-2.5.1-3.6.9-1 .7-1.7 1.9-1.7 3.2-.1 1.2.3 2.5 1.2 3.4l9.8 10.1c2.1 2.2 3.3 5.2 3 8.2-.2 3.1-1.8 5.8-4.2 7.7-2.5 1.8-5.5 2.5-8.5 2-3-.6-5.6-2.5-7.1-5.1-.9-1.4-.4-3.2 1-4 1.4-.8 3.2-.3 4 1.1.7 1.2 1.8 2 3.1 2.3 1.4.2 2.7-.1 3.8-.9 1.1-.8 1.7-2 1.8-3.4.4-1.6-.1-2.9-1.1-3.9zm8.3 55.3c-.3 3.2-1.9 6.1-4.4 8.1-2.6 1.9-5.8 2.7-9 2.1s-5.9-2.7-7.4-5.4c-.9-1.5-.4-3.4 1.1-4.3 1.5-.8 3.4-.3 4.3 1.2.7 1.2 1.9 2.1 3.3 2.4 1.4.3 2.8-.1 4-1 1.2-.8 1.8-2.1 1.9-3.6.1-1.4-.4-2.8-1.4-3.9l-10.3-10.6c-2.2-2.2-3.3-5.3-3-8.4s1.8-6 4.3-7.8c2.5-1.9 5.7-2.6 8.7-2s5.7 2.5 7.2 5.2c.8 1.5.3 3.4-1.2 4.3-1.5.8-3.4.3-4.2-1.2-.7-1.2-1.8-1.9-3.1-2.3-1.4-.3-2.7.1-3.8.9s-1.7 2-1.8 3.4c-.1 1.3.3 2.6 1.3 3.6l10.3 10.6c2.3 2.4 3.4 5.6 3.2 8.7zm-.9-99c-.6 0-1.1-.5-1.1-1.1s.5-1.1 1.1-1.1 1.1.5 1.1 1.1-.4 1.1-1.1 1.1zm15.2 140.2c-.9 0-1.7-.8-1.7-1.7 0-.9.8-1.7 1.7-1.7s1.7.8 1.7 1.7-.8 1.7-1.7 1.7zm14.3-36.2c-2.5 4.3-7.3 6.3-12.1 5-4.7-1.2-7.9-5.6-7.9-10.5v-22c0-4.9 3.1-9.2 7.9-10.5 4.8-1.3 9.7.8 12.1 5 .9 1.5.3 3.4-1.1 4.3-1.5.8-3.4.3-4.3-1.2-1-1.8-3.6-2.7-5.7-2.1-2 .5-3.9 2.4-3.9 4.5v22c0 2.1 1.9 3.9 3.9 4.5 2.1.5 4.4-.4 5.5-2.2.9-1.5 2.9-2 4.4-1.2 1.5 1 2.1 2.9 1.2 4.4zm2.1-73.8c0 5.7-4.1 10.2-9.8 10.2H55v14.3c0 1.7.1 2.9-1.5 2.9-1.7 0-1.5-1.3-1.5-2.9v-35.3c0-1.6 1.2-4 2.9-4h7.4c5.7 0 9.8 5.7 9.8 11.4l-.1 3.4zm14.4 110c-4.3 0-7.8-3.5-7.8-7.8s3.5-7.8 7.8-7.8 7.8 3.5 7.8 7.8c.1 4.3-3.4 7.8-7.8 7.8zM102 466c0 6-5.5 10.9-11.5 10.9S79 472 79 466v-22c0-6 5.5-10.9 11.5-10.9S102 438 102 444v22zm-.2-48.3c-1.6.4-3.2-.5-3.6-2 0 0-.1-.5-.4-1.3l-.7-2.1c-.2-.8-.5-1.4-.8-2.4l-4.5-16.6c-.2-.9-.5-1.9-.7-2.7-.2.7-.4 1.6-.6 2.4l-4.6 16.9c-1 4-1.8 6.1-1.8 6.1-.4 1.5-2 2.3-3.6 1.9-1.5-.4-2.5-2.1-2-3.7l9.8-35.6c.3-1.3 1.5-2.2 2.8-2.2s2.5.8 2.8 2.1l9.8 35.6c.6 1.6-.3 3.1-1.9 3.6zM133 466c0 6-5.5 10.9-11.5 10.9S110 472 110 466v-22c0-6 5.5-10.9 11.5-10.9S133 438 133 444v22zm-10.6-46.9c2 .5 4.1-.4 5.1-2.1.9-1.4 2.7-1.9 4.1-1.1 1.4.9 1.9 2.6 1.1 4-2.3 4-6.3 6-10.8 4.8-4.5-1.2-6.8-5.3-6.8-9.9v-20.9c0-4.7 2.3-8.8 6.8-9.9 4.5-1.2 8.9.7 11.2 4.8.9 1.4.2 3.2-1.2 4-1.4.8-3.3.3-4.1-1.1-1-1.7-3.2-2.6-5.2-2-1.9.5-3.5 2.3-3.5 4.2v20.9c-.1 2 1.4 3.8 3.3 4.3zm14.5-46.4c-3.7 0-6.7-3.3-6.7-7.3s3-7.3 6.7-7.3 6.7 3.3 6.7 7.3c0 4.1-3 7.3-6.7 7.3zm21.3 98c-.6 0-1.1-.5-1.1-1.1s.5-1.1 1.1-1.1 1.1.5 1.1 1.1c0 .6-.5 1.1-1.1 1.1zm-5.5-12.9H148v16c0 1.7-1.3 3.1-3 3.1s-3-1.4-3-3.1v-37.3c0-1.7 1.1-1.7 2.9-1.7h7.8c6 0 10.3 3.5 10.3 9.5v3.6c0 6-4.3 9.9-10.3 9.9z"/><path d="M62.2 388.8H55v14h7.2c2.5 0 2.8-2.7 2.8-5.2v-3.4c0-2.4-.3-5.4-2.8-5.4z"/></g><g opacity=".7"><path fill="#1F3749" d="M137.9 597.9h-2.3v-1.1h2.2l.1 1.1zm3.4 0v-1.1c.7 0 1.5 0 2.2-.1v1.1c-.7.1-1.4.1-2.2.1zm-9-.1c-.8 0-1.5-.1-2.3-.1l.1-1.1c.7 0 1.5.1 2.2.1v1.1zm14.7-.1l-.1-1.1c.7 0 1.5-.1 2.2-.2l.1 1.1c-.7.1-1.5.1-2.2.2zm-20.3-.3c-.8-.1-1.5-.1-2.2-.2l.1-1.1c.7.1 1.5.1 2.2.2l-.1 1.1zm25.9-.2l-.1-1.1c.7-.1 1.5-.2 2.2-.3l.1 1.1c-.7.1-1.5.2-2.2.3zm-31.5-.4c-.7-.1-1.5-.2-2.2-.3l.2-1.1c.7.1 1.5.2 2.2.3l-.2 1.1zm37.1-.3l-.2-1.1c.7-.1 1.5-.2 2.2-.3l.2 1.1c-.7.1-1.5.2-2.2.3zm-42.7-.5c-.7-.1-1.5-.3-2.2-.4l.2-1.1c.7.1 1.5.3 2.2.4l-.2 1.1zm48.2-.4l-.2-1.1c.7-.1 1.5-.3 2.2-.4l.2 1.1c-.7.1-1.4.2-2.2.4zm-53.7-.7c-.7-.2-1.5-.3-2.2-.5l.3-1.1c.7.2 1.5.3 2.2.5l-.3 1.1zm59.3-.5l-.3-1.1c.7-.2 1.5-.4 2.2-.5l.3 1.1c-.8.1-1.5.3-2.2.5zm-64.8-.9c-.7-.2-1.5-.4-2.2-.6l.3-1.1c.7.2 1.4.4 2.2.6l-.3 1.1zm70.2-.6l-.3-1.1 2.1-.6.3 1.1c-.6.2-1.4.4-2.1.6zm-75.6-.9c-.7-.2-1.4-.5-2.2-.7l.4-1.1c.7.2 1.4.5 2.1.7l-.3 1.1zm81-.7l-.4-1.1c.7-.2 1.4-.5 2.1-.7l.4 1.1c-.7.2-1.4.5-2.1.7zm-86.4-1.1c-.7-.3-1.4-.5-2.1-.8l.4-1.1c.7.3 1.4.5 2.1.8l-.4 1.1zm91.7-.8l-.4-1.1c.7-.3 1.4-.5 2.1-.8l.4 1c-.7.4-1.4.6-2.1.9zm-97-1.3l-2.1-.9.4-1 2.1.9-.4 1zm102.3-.8l-.4-1c.7-.3 1.4-.6 2-.9l.5 1c-.8.3-1.5.6-2.1.9zm-107.5-1.4c-.7-.3-1.4-.6-2-1l.5-1c.7.3 1.4.6 2 1l-.5 1zm112.6-.9l-.5-1c.7-.3 1.3-.6 2-1l.5 1c-.7.3-1.4.7-2 1zm-117.7-1.6c-.7-.3-1.3-.7-2-1l.5-1c.7.4 1.3.7 2 1l-.5 1zm122.7-1l-.5-1c.7-.4 1.3-.7 2-1.1l.5 1c-.7.4-1.3.8-2 1.1zm-127.6-1.7c-.7-.4-1.3-.8-2-1.1l.6-1c.6.4 1.3.8 1.9 1.1l-.5 1zm132.5-1l-.6-1c.6-.4 1.3-.8 1.9-1.1l.6 1c-.6.3-1.3.7-1.9 1.1zm-137.4-1.9c-.6-.4-1.3-.8-1.9-1.2l.6-.9c.6.4 1.3.8 1.9 1.2l-.6.9zm142.2-1.1l-.6-.9c.6-.4 1.2-.8 1.9-1.2l.6.9c-.7.4-1.3.8-1.9 1.2zm-146.9-2c-.6-.4-1.2-.9-1.9-1.3l.7-.9c.6.4 1.2.9 1.8 1.3l-.6.9zm151.5-1.1l-.7-.9c.6-.4 1.2-.9 1.8-1.3l.7.9c-.5.4-1.1.8-1.8 1.3zM59 571.4c-.6-.5-1.2-.9-1.8-1.4l.7-.9c.6.5 1.2.9 1.8 1.4l-.7.9zm160.7-1.2l-.7-.9c.6-.5 1.2-.9 1.8-1.4l.7.9c-.6.5-1.2.9-1.8 1.4zM54.6 568c-.6-.5-1.2-1-1.7-1.4l.7-.9c.6.5 1.1 1 1.7 1.4l-.7.9zm169.4-1.3l-.7-.9c.6-.5 1.1-1 1.7-1.5l.7.8c-.5.6-1.1 1.1-1.7 1.6zm-173.7-2.4c-.6-.5-1.1-1-1.7-1.5l.8-.8c.5.5 1.1 1 1.7 1.5l-.8.8zm178-1.4l-.8-.8c.5-.5 1.1-1 1.6-1.5l.8.8c-.5.5-1.1 1-1.6 1.5zm-182.2-2.5l-1.6-1.6.8-.8 1.6 1.6-.8.8zm186.2-1.4l-.8-.8c.5-.5 1-1.1 1.6-1.6l.8.8c-.5.5-1 1.1-1.6 1.6zm-190.1-2.6c-.5-.5-1-1.1-1.5-1.7l.8-.8c.5.6 1 1.1 1.5 1.6l-.8.9zm194-1.5l-.8-.8c.5-.6 1-1.1 1.5-1.7l.8.7c-.4.7-1 1.3-1.5 1.8zm-197.8-2.6c-.5-.6-1-1.1-1.5-1.7l.9-.7c.5.6 1 1.1 1.5 1.7l-.9.7zm201.6-1.6l-.9-.7c.5-.6 1-1.1 1.4-1.7l.9.7c-.5.5-1 1.1-1.4 1.7zm-205.2-2.8c-.5-.6-.9-1.2-1.4-1.8l.9-.7c.5.6.9 1.2 1.4 1.8l-.9.7zm208.7-1.6l-.9-.7c.5-.6.9-1.2 1.4-1.8l.9.7c-.5.6-.9 1.2-1.4 1.8zm-212.1-2.9c-.4-.6-.9-1.2-1.3-1.8l.9-.6c.4.6.9 1.2 1.3 1.8l-.9.6zm215.5-1.6l-.9-.6c.4-.6.9-1.2 1.3-1.8l.9.6c-.5.5-.9 1.1-1.3 1.8zm-218.7-3c-.4-.6-.8-1.3-1.2-1.9l.9-.6c.4.6.8 1.2 1.2 1.9l-.9.6zm221.8-1.7l-.9-.6c.4-.6.8-1.3 1.2-1.9l1 .6c-.5.6-.9 1.2-1.3 1.9zm-224.9-3c-.4-.6-.8-1.3-1.2-1.9l1-.6c.4.6.8 1.3 1.1 1.9l-.9.6zm227.9-1.8l-1-.6c.4-.6.7-1.3 1.1-1.9l1 .6c-.4.6-.7 1.2-1.1 1.9zm-230.7-3.1c-.4-.7-.7-1.3-1.1-2l1-.5c.3.7.7 1.3 1.1 2l-1 .5zm233.4-1.9l-1-.5c.3-.7.7-1.3 1-2l1 .5c-.3.7-.6 1.4-1 2zm-236-3.1c-.3-.7-.7-1.3-1-2l1-.5c.3.7.6 1.3 1 2l-1 .5zm238.6-1.9l-1-.5c.3-.7.6-1.4.9-2l1 .5c-.3.6-.6 1.3-.9 2zm-241-3.2l-.9-2.1 1-.4c.3.7.6 1.4.9 2l-1 .5zm243.3-2l-1-.4.9-2.1 1 .4-.9 2.1zm-245.4-3.2c-.3-.7-.5-1.4-.8-2.1l1.1-.4c.3.7.5 1.4.8 2.1l-1.1.4zm247.5-2l-1.1-.4c.3-.7.5-1.4.8-2.1l1.1.4c-.3.6-.6 1.3-.8 2.1zm-249.5-3.3c-.2-.7-.5-1.4-.7-2.1l1.1-.3c.2.7.5 1.4.7 2.1l-1.1.3zm251.3-2.1l-1.1-.3c.2-.7.5-1.4.7-2.1l1.1.3c-.2.7-.4 1.4-.7 2.1zm-253-3.2c-.2-.7-.4-1.4-.6-2.2l1.1-.3.6 2.1-1.1.4zm254.7-2.2l-1.1-.3c.2-.7.4-1.4.6-2.2l1.1.3c-.2.8-.4 1.5-.6 2.2zM10 497.8c-.2-.7-.4-1.5-.5-2.2l1.1-.3c.2.7.3 1.5.5 2.2l-1.1.3zm257.6-2.2l-1.1-.3c.2-.7.3-1.5.5-2.2l1.1.2c-.2.9-.4 1.6-.5 2.3zM8.7 492.3c-.2-.7-.3-1.5-.4-2.2l1.1-.2c.1.7.3 1.5.4 2.2l-1.1.2zm260-2.2l-1.1-.2c.1-.7.3-1.5.4-2.2l1.1.2c-.1.7-.2 1.5-.4 2.2zm-261-3.3c-.1-.7-.2-1.5-.3-2.2l1.1-.2c.1.7.2 1.5.3 2.2l-1.1.2zm262-2.2l-1.1-.2c.1-.7.2-1.5.3-2.2l1.1.1c-.1.8-.2 1.5-.3 2.3zM6.9 481.2c-.1-.7-.2-1.5-.2-2.2l1.1-.1c.1.7.2 1.5.2 2.2l-1.1.1zm263.4-2.2l-1.1-.1c.1-.7.1-1.5.2-2.2l1.1.1c0 .7-.1 1.4-.2 2.2zM6.4 475.6c-.1-.7-.1-1.5-.2-2.3l1.1-.1c0 .7.1 1.5.1 2.2l-1 .2zm264.4-2.3l-1.1-.1c0-.7.1-1.5.1-2.2h1.1c0 .8-.1 1.6-.1 2.3zM6.1 469.9c0-.7 0-1.5-.1-2.3h1.1c0 .7 0 1.5.1 2.2l-1.1.1zm264.9-2l-1.1.1v-2.1h1.1v2zm-1.1-3.6v-2.2h1.1v2.3l-1.1-.1zm-262.8 0H6V462h1.1c.1.8 0 1.6 0 2.3zm262.6-5.6c0-.7-.1-1.5-.1-2.2l1.1-.1c.1.7.1 1.5.1 2.3h-1.1zm-262.4 0l-1.1-.1c0-.8.1-1.5.1-2.3l1.1.1c0 .8-.1 1.6-.1 2.3zm262-5.5c-.1-.7-.1-1.5-.2-2.2l1.1-.1c.1.7.2 1.5.2 2.2l-1.1.1zm-261.6-.1l-1.1-.1c.1-.7.1-1.5.2-2.2l1.1.1c-.1.8-.1 1.5-.2 2.2zm261-5.5c-.1-.7-.2-1.5-.3-2.2l1.1-.2c.1.7.2 1.5.3 2.2l-1.1.2zm-260.4 0l-1.1-.2c.1-.7.2-1.5.3-2.2l1.1.2c-.1.7-.2 1.4-.3 2.2zm259.5-5.5c-.1-.7-.3-1.5-.4-2.2l1.1-.2c.1.7.3 1.5.4 2.2l-1.1.2zm-258.6 0l-1.1-.2c.1-.7.3-1.5.4-2.2l1.1.2c-.1.7-.3 1.4-.4 2.2zm257.5-5.5c-.2-.7-.3-1.5-.5-2.2l1.1-.3c.2.7.3 1.5.5 2.2l-1.1.3zm-256.4 0l-1.1-.2c.2-.7.3-1.5.5-2.2l1.1.3c-.2.6-.3 1.3-.5 2.1zm255.1-5.4c-.2-.7-.4-1.4-.6-2.2l1.1-.3c.2.7.4 1.4.6 2.2l-1.1.3zm-253.7-.1l-1.1-.3c.2-.7.4-1.5.6-2.2l1.1.3c-.3.8-.5 1.5-.6 2.2zm252.1-5.3c-.2-.7-.5-1.4-.7-2.1l1.1-.4c.2.7.5 1.4.7 2.1l-1.1.4zm-250.6 0l-1.1-.3c.2-.7.5-1.4.7-2.2l1.1.4c-.2.7-.5 1.4-.7 2.1zm248.8-5.3c-.3-.7-.5-1.4-.8-2.1l1-.4c.3.7.5 1.4.8 2.1l-1 .4zm-247 0l-1.1-.4c.3-.7.5-1.4.8-2.1l1 .4c-.2.7-.4 1.4-.7 2.1zm245-5.2l-.9-2.1 1-.4.9 2.1-1 .4zm-242.9-.1l-1-.4.9-2.1 1 .4c-.4.8-.7 1.4-.9 2.1zm240.7-5c-.3-.7-.6-1.3-1-2l1-.5c.3.7.6 1.4 1 2l-1 .5zm-238.5-.1l-1-.5c.3-.7.6-1.4 1-2l1 .5c-.3.6-.7 1.3-1 2zm236-4.9c-.3-.7-.7-1.3-1-2l1-.5c.4.7.7 1.3 1.1 2l-1.1.5zm-233.5-.1l-1-.5c.3-.7.7-1.3 1.1-2l1 .5c-.4.6-.8 1.3-1.1 2zm230.8-4.8c-.4-.6-.7-1.3-1.1-1.9l1-.6c.4.6.8 1.3 1.1 1.9l-1 .6zm-228.1-.2l-1-.6c.4-.7.8-1.3 1.1-2l1 .6c-.4.8-.8 1.4-1.1 2zm225.3-4.6c-.4-.6-.8-1.3-1.2-1.9l.9-.6c.4.6.8 1.3 1.2 1.9l-.9.6zm-222.4-.1l-1-.6c.4-.6.8-1.3 1.2-1.9l.9.6c-.3.6-.7 1.2-1.1 1.9zm219.3-4.6c-.4-.6-.9-1.2-1.3-1.8l.9-.7c.4.6.9 1.2 1.3 1.8l-.9.7zm-216.2-.1l-.9-.6c.4-.6.9-1.2 1.3-1.8l.9.7c-.5.5-.9 1.1-1.3 1.7zm212.9-4.4c-.4-.6-.9-1.2-1.4-1.8l.9-.7c.5.6.9 1.2 1.4 1.8l-.9.7zm-209.7-.2l-.9-.7c.5-.6.9-1.2 1.4-1.8l.9.7c-.4.7-.9 1.3-1.4 1.8zm206.2-4.2c-.5-.6-1-1.1-1.4-1.7l.9-.7c.5.6 1 1.1 1.4 1.7l-.9.7zm-202.7-.1l-.9-.7c.5-.6 1-1.2 1.5-1.7l.9.7c-.5.5-1 1.1-1.5 1.7zm199.1-4.1c-.5-.6-1-1.1-1.5-1.7l.8-.8c.5.6 1 1.1 1.5 1.7l-.8.8zm-195.4-.2l-.8-.8c.5-.6 1-1.1 1.5-1.7l.8.8c-.5.6-1 1.2-1.5 1.7zm191.6-3.9c-.5-.5-1-1.1-1.6-1.6l.8-.8 1.6 1.6-.8.8zm-187.8-.2l-.8-.8 1.6-1.6.8.8c-.5.6-1.1 1.1-1.6 1.6zm183.8-3.7c-.5-.5-1.1-1-1.6-1.5l.8-.8c.6.5 1.1 1 1.7 1.5l-.9.8zm-179.8-.2l-.8-.8c.5-.5 1.1-1 1.7-1.5l.8.8c-.6.5-1.1 1-1.7 1.5zm175.6-3.6c-.6-.5-1.1-1-1.7-1.4l.7-.9c.6.5 1.2 1 1.7 1.5l-.7.8zm-171.4-.1l-.7-.9c.6-.5 1.1-1 1.7-1.5l.7.9c-.6.5-1.2 1-1.7 1.5zm167.1-3.4c-.6-.5-1.2-.9-1.8-1.4l.7-.9c.6.5 1.2.9 1.8 1.4l-.7.9zm-162.8-.1l-.7-.9c.6-.5 1.2-.9 1.8-1.4l.7.9c-.6.4-1.2.9-1.8 1.4zm158.4-3.3c-.6-.4-1.2-.9-1.8-1.3l.6-.9c.6.4 1.2.9 1.8 1.3l-.6.9zm-154-.1l-.7-.9c.6-.4 1.2-.9 1.8-1.3l.6.9c-.5.4-1.1.8-1.7 1.3zm149.4-3.1c-.6-.4-1.2-.8-1.9-1.2l.6-.9c.6.4 1.3.8 1.9 1.2l-.6.9zm-144.8-.1l-.6-.9c.6-.4 1.3-.8 1.9-1.2l.6.9c-.6.4-1.2.8-1.9 1.2zm140-2.9c-.6-.4-1.3-.8-1.9-1.1l.6-1c.7.4 1.3.8 1.9 1.2l-.6.9zM71 352.7l-.6-1c.6-.4 1.3-.8 1.9-1.1l.6 1c-.7.4-1.3.7-1.9 1.1zm130.4-2.7c-.7-.4-1.3-.7-2-1.1l.5-1c.7.4 1.3.7 2 1.1l-.5 1zm-125.6 0l-.5-1c.7-.4 1.3-.7 2-1.1l.5 1c-.7.4-1.3.7-2 1.1zm120.6-2.6c-.7-.3-1.3-.7-2-1l.5-1c.7.3 1.4.6 2 1l-.5 1zm-115.6 0l-.5-1c.7-.3 1.3-.7 2-1l.5 1c-.7.3-1.4.7-2 1zm110.5-2.3l-2.1-.9.4-1 2.1.9-.4 1zm-105.5 0l-.5-1 2.1-.9.4 1c-.6.3-1.3.6-2 .9zm100.3-2.2c-.7-.3-1.4-.5-2.1-.8l.4-1.1c.7.3 1.4.5 2.1.8l-.4 1.1zm-95.1 0l-.4-1c.7-.3 1.4-.5 2.1-.8l.4 1.1c-.7.2-1.4.5-2.1.7zm5.2-1.9l-.4-1.1c.7-.2 1.4-.5 2.1-.7l.3 1.1c-.6.2-1.3.5-2 .7zm79.3-1.7c-.7-.2-1.4-.4-2.2-.6l.3-1.1c.7.2 1.5.4 2.2.6l-.3 1.1zm-74 0l-.3-1.1c.7-.2 1.4-.4 2.2-.6l.3 1.1c-.7.2-1.4.4-2.2.6zm68.6-1.4c-.7-.2-1.4-.4-2.2-.5l.3-1.1c.7.2 1.5.3 2.2.5l-.3 1.1zm-63.2 0l-.3-1.1c.7-.2 1.5-.4 2.2-.5l.2 1.1c-.6.1-1.3.3-2.1.5zm57.7-1.3c-.7-.1-1.5-.3-2.2-.4l.2-1.1c.7.1 1.5.3 2.2.4l-.2 1.1zm-52.2 0l-.2-1.1c.7-.1 1.5-.3 2.2-.4l.2 1.1c-.7.2-1.5.3-2.2.4zm46.7-.9c-.7-.1-1.5-.2-2.2-.3l.2-1.1c.7.1 1.5.2 2.2.3l-.2 1.1zm-41.2 0l-.2-1.1c.7-.1 1.5-.2 2.2-.3l.2 1.1c-.7 0-1.5.1-2.2.3zm35.7-.8c-.7-.1-1.5-.2-2.2-.2l.1-1.1c.7.1 1.5.2 2.2.2l-.1 1.1zm-30.1 0l-.1-1.1c.7-.1 1.5-.2 2.2-.2l.1 1.1c-.8 0-1.5.1-2.2.2zm24.5-.5c-.7-.1-1.5-.1-2.2-.1l.1-1.1c.8 0 1.5.1 2.3.1l-.2 1.1zm-19 0l-.1-1.1c.7-.1 1.5-.1 2.3-.1l.1 1.1c-.8 0-1.5 0-2.3.1zm13.4-.3h-2.2V333h2.3l-.1 1.1zm-7.8 0V333h2.3v1.1h-2.3z"/><path fill="#1F3749" d="M38.1 531.8h-2.3v-1.1H38l.1 1.1zm3.4 0v-1.1c.7 0 1.5 0 2.2-.1v1.1c-.7 0-1.4 0-2.2.1zm-9-.2c-.8 0-1.5-.1-2.3-.1l.1-1.1c.7 0 1.5.1 2.2.1v1.1zm14.7-.1l-.1-1.1c.7 0 1.5-.1 2.2-.2l.1 1.1c-.7.1-1.5.2-2.2.2zm-20.3-.2c-.8-.1-1.5-.1-2.2-.2l.1-1.1c.7.1 1.5.1 2.2.2l-.1 1.1zm25.9-.2l-.1-1.1c.7-.1 1.5-.2 2.2-.3l.1 1.1c-.7.1-1.5.2-2.2.3zm-31.5-.4c-.7-.1-1.5-.2-2.2-.3l.2-1.1c.7.1 1.5.2 2.2.3l-.2 1.1zm37.1-.4l-.2-1.1c.7-.1 1.5-.2 2.2-.3l.2 1.1c-.7.1-1.5.2-2.2.3zm-42.7-.5c-.7-.1-1.5-.3-2.2-.4l.2-1.1c.7.1 1.5.3 2.2.4l-.2 1.1zm48.2-.4l-.2-1.1c.7-.1 1.5-.3 2.2-.4l.2 1.1c-.7.1-1.4.2-2.2.4zm-53.7-.7c-.7-.2-1.5-.3-2.2-.5l.3-1.1c.7.2 1.5.3 2.2.5l-.3 1.1zm59.3-.5l-.3-1.1c.7-.2 1.5-.4 2.2-.5l.3 1.1c-.8.1-1.5.3-2.2.5zm-64.8-.8c-.7-.2-1.5-.4-2.2-.6l.3-1.1c.7.2 1.4.4 2.2.6l-.3 1.1zm70.2-.6l-.3-1.1 2.1-.6.3 1.1c-.6.2-1.4.4-2.1.6zm-75.6-1c-.7-.2-1.4-.5-2.2-.7l.4-1.1c.7.2 1.4.5 2.1.7l-.3 1.1zm81-.7l-.4-1.1c.7-.2 1.4-.5 2.1-.7l.4 1.1c-.7.3-1.4.5-2.1.7zM-6.1 524c-.7-.3-1.4-.5-2.1-.8l.4-1.1c.7.3 1.4.5 2.1.8l-.4 1.1zm91.7-.8l-.4-1.1c.7-.3 1.4-.5 2.1-.8l.4 1c-.7.4-1.4.7-2.1.9zm5.2-2.1l-.4-1c.7-.3 1.4-.6 2-.9l.5 1-2.1.9zm-107.4-1.4c-.7-.3-1.4-.6-2-1l.5-1c.7.3 1.4.6 2 1l-.5 1zm112.6-.9l-.5-1c.7-.3 1.3-.6 2-1l.5 1c-.7.4-1.4.7-2 1zm-117.7-1.5c-.7-.3-1.3-.7-2-1l.5-1c.7.4 1.3.7 2 1l-.5 1zm122.7-1l-.5-1c.7-.4 1.3-.7 2-1.1l.5 1c-.7.4-1.4.7-2 1.1zm-127.6-1.7c-.7-.4-1.3-.8-2-1.1l.6-1c.6.4 1.3.8 1.9 1.1l-.5 1zm132.5-1.1l-.6-1c.6-.4 1.3-.8 1.9-1.1l.6 1c-.6.4-1.3.7-1.9 1.1zm-137.4-1.8c-.6-.4-1.3-.8-1.9-1.2l.6-.9c.6.4 1.3.8 1.9 1.2l-.6.9zm142.2-1.1l-.6-.9c.6-.4 1.2-.8 1.9-1.2l.6.9c-.7.3-1.3.8-1.9 1.2zm-146.9-2c-.6-.4-1.2-.9-1.9-1.3l.7-.9c.6.4 1.2.9 1.8 1.3l-.6.9zm151.5-1.2l-.7-.9c.6-.4 1.2-.9 1.8-1.3l.7.9c-.5.4-1.1.9-1.8 1.3zm-156.1-2.1c-.6-.5-1.2-.9-1.8-1.4l.7-.9c.6.5 1.2.9 1.8 1.4l-.7.9zm160.7-1.3l-.7-.9c.6-.5 1.2-.9 1.8-1.4l.7.9c-.6.5-1.2 1-1.8 1.4zm-165.1-2.2c-.6-.5-1.2-1-1.7-1.4l.7-.9c.6.5 1.1 1 1.7 1.4l-.7.9zm169.4-1.3l-.7-.9c.6-.5 1.1-1 1.7-1.5l.7.8c-.5.6-1.1 1.1-1.7 1.6zm-173.7-2.4c-.6-.5-1.1-1-1.7-1.5l.8-.8c.5.5 1.1 1 1.7 1.5l-.8.8zm178-1.3l-.8-.8c.5-.5 1.1-1 1.6-1.5l.8.8c-.5.4-1.1 1-1.6 1.5zm-182.2-2.5l-1.6-1.6.8-.8 1.6 1.6-.8.8zm186.2-1.4l-.8-.8c.5-.5 1-1.1 1.6-1.6l.8.8-1.6 1.6zm-190.1-2.6c-.5-.5-1-1.1-1.5-1.7l.8-.8c.5.6 1 1.1 1.5 1.6l-.8.9zm194-1.5l-.8-.8c.5-.6 1-1.1 1.5-1.7l.8.7c-.5.7-1 1.2-1.5 1.8zm-197.8-2.7c-.5-.6-1-1.1-1.5-1.7l.9-.7c.5.6 1 1.1 1.5 1.7l-.9.7zm201.6-1.6l-.9-.7c.5-.6 1-1.1 1.4-1.7l.9.7c-.5.6-1 1.2-1.4 1.7zM-65 481.8c-.5-.6-.9-1.2-1.4-1.8l.9-.7c.5.6.9 1.2 1.4 1.8l-.9.7zm208.7-1.7l-.9-.7c.5-.6.9-1.2 1.4-1.8l.9.7c-.5.6-.9 1.2-1.4 1.8zm-212.1-2.8c-.4-.6-.9-1.2-1.3-1.8l.9-.6c.4.6.9 1.2 1.3 1.8l-.9.6zm215.5-1.7l-.9-.6c.4-.6.9-1.2 1.3-1.8l.9.6c-.5.6-.9 1.2-1.3 1.8zm-218.7-2.9c-.4-.6-.8-1.3-1.2-1.9l.9-.6c.4.6.8 1.2 1.2 1.9l-.9.6zm221.8-1.8l-.9-.6c.4-.6.8-1.3 1.2-1.9l1 .6c-.5.6-.9 1.3-1.3 1.9zm-224.9-3c-.4-.6-.8-1.3-1.2-1.9l1-.6c.4.6.8 1.3 1.1 1.9l-.9.6zm227.9-1.8l-1-.6c.4-.6.7-1.3 1.1-1.9l1 .6c-.4.6-.8 1.3-1.1 1.9zM-77.5 463c-.4-.7-.7-1.3-1.1-2l1-.5c.3.7.7 1.3 1.1 2l-1 .5zm233.4-1.8l-1-.5c.3-.7.7-1.3 1-2l1 .5c-.3.6-.6 1.3-1 2zm-236-3.2c-.3-.7-.7-1.3-1-2l1-.5c.3.7.6 1.3 1 2l-1 .5zm238.6-1.9l-1-.5c.3-.7.6-1.4.9-2l1 .5c-.3.6-.6 1.3-.9 2zm-241-3.1l-.9-2.1 1-.4c.3.7.6 1.4.9 2l-1 .5zm243.3-2l-1-.4.9-2.1 1 .4-.9 2.1zm-245.4-3.2c-.3-.7-.5-1.4-.8-2.1l1.1-.4c.3.7.5 1.4.8 2.1l-1.1.4zm247.5-2.1l-1.1-.4c.3-.7.5-1.4.8-2.1l1.1.4c-.3.7-.6 1.4-.8 2.1zm-249.5-3.2c-.2-.7-.5-1.4-.7-2.1l1.1-.3c.2.7.5 1.4.7 2.1l-1.1.3zm251.3-2.1l-1.1-.3c.2-.7.5-1.4.7-2.1l1.1.3c-.2.6-.4 1.3-.7 2.1zm-253-3.3c-.2-.7-.4-1.4-.6-2.2l1.1-.3c.2.7.4 1.4.6 2.2l-1.1.3zm254.7-2.2l-1.1-.3c.2-.7.4-1.4.6-2.2l1.1.3c-.2.8-.4 1.5-.6 2.2zm-256.2-3.2c-.2-.7-.4-1.5-.5-2.2l1.1-.3c.2.7.3 1.5.5 2.2l-1.1.3zm257.6-2.2l-1.1-.3c.2-.7.3-1.5.5-2.2l1.1.2c-.2.8-.4 1.5-.5 2.3zm-258.9-3.3c-.2-.7-.3-1.5-.4-2.2l1.1-.2c.1.7.3 1.5.4 2.2l-1.1.2zm260-2.2l-1.1-.2c.1-.7.3-1.5.4-2.2l1.1.2c-.1.7-.2 1.4-.4 2.2zm-261-3.4c-.1-.7-.2-1.5-.3-2.2l1.1-.2c.1.7.2 1.5.3 2.2l-1.1.2zm262-2.2l-1.1-.2c.1-.7.2-1.5.3-2.2l1.1.1c-.1.8-.2 1.5-.3 2.3zM-92.9 415c-.1-.7-.2-1.5-.2-2.2l1.1-.1c.1.7.2 1.5.2 2.2l-1.1.1zm263.4-2.2l-1.1-.1c.1-.7.1-1.5.2-2.2l1.1.1c0 .7-.1 1.4-.2 2.2zm-263.9-3.4c-.1-.7-.1-1.5-.2-2.3l1.1-.1c0 .7.1 1.5.1 2.2l-1 .2zm264.4-2.2l-1.1-.1c0-.7.1-1.5.1-2.2h1.1c0 .8-.1 1.5-.1 2.3zm-264.7-3.4c0-.7 0-1.5-.1-2.3h1.1c0 .7 0 1.5.1 2.2l-1.1.1zm264.9-2.5l-1.1-.1v-2.4h1.1v2.5zm-1.1-3.1V396h1.1v2.3l-1.1-.1zm-262.8 0h-1.1v-2.3h1.1c.1.8 0 1.5 0 2.3zm262.6-5.6c0-.7-.1-1.5-.1-2.2l1.1-.1c.1.7.1 1.5.1 2.3h-1.1zm-262.4 0l-1.1-.1c0-.8.1-1.5.1-2.3l1.1.1c0 .8-.1 1.5-.1 2.3zm262-5.6c-.1-.7-.1-1.5-.2-2.2l1.1-.1c.1.7.2 1.5.2 2.2l-1.1.1zm-261.6 0l-1.1-.1c.1-.7.1-1.5.2-2.2l1.1.1c-.1.7-.1 1.4-.2 2.2zm261-5.6c-.1-.7-.2-1.5-.3-2.2l1.1-.2c.1.7.2 1.5.3 2.2l-1.1.2zm-260.4 0l-1.1-.2c.1-.7.2-1.5.3-2.2l1.1.2c-.1.7-.2 1.5-.3 2.2zm259.5-5.5c-.1-.7-.3-1.5-.4-2.2l1.1-.2c.1.7.3 1.5.4 2.2l-1.1.2zm-258.6 0l-1.1-.2c.1-.7.3-1.5.4-2.2l1.1.2c-.1.7-.3 1.5-.4 2.2zm257.5-5.5c-.2-.7-.3-1.5-.5-2.2l1.1-.3c.2.7.3 1.5.5 2.2l-1.1.3zm-256.4 0l-1.1-.2c.2-.7.3-1.5.5-2.2l1.1.2c-.2.8-.3 1.5-.5 2.2zm255.1-5.4c-.2-.7-.4-1.4-.6-2.2l1.1-.3c.2.7.4 1.4.6 2.2l-1.1.3zm-253.8 0l-1.1-.3c.2-.7.4-1.5.6-2.2l1.1.3c-.2.7-.4 1.5-.6 2.2zm252.2-5.4c-.2-.7-.5-1.4-.7-2.1l1.1-.4c.2.7.5 1.4.7 2.1l-1.1.4zm-250.6 0l-1.1-.3c.2-.7.5-1.4.7-2.2l1.1.4c-.2.7-.5 1.4-.7 2.1zm248.8-5.3c-.3-.7-.5-1.4-.8-2.1l1-.4c.3.7.5 1.4.8 2.1l-1 .4zm-247 0l-1.1-.4c.3-.7.5-1.4.8-2.1l1 .4c-.2.7-.4 1.4-.7 2.1zm245-5.2l-.9-2.1 1-.4.9 2.1-1 .4zm-242.9 0l-1-.4.9-2.1 1 .4c-.4.7-.7 1.4-.9 2.1zM158 344c-.3-.7-.6-1.3-1-2l1-.5c.3.7.6 1.4 1 2l-1 .5zm-238.5-.1l-1-.5c.3-.7.6-1.4 1-2l1 .5c-.3.7-.7 1.4-1 2zm236-4.9c-.3-.7-.7-1.3-1-2l1-.5c.4.7.7 1.3 1.1 2l-1.1.5zm-233.5-.1l-1-.5c.3-.7.7-1.3 1.1-2l1 .5c-.4.7-.8 1.3-1.1 2zm230.8-4.8c-.4-.6-.7-1.3-1.1-1.9l1-.6c.4.6.8 1.3 1.1 1.9l-1 .6zm-228.1-.1l-1-.6c.4-.7.8-1.3 1.1-2l1 .6c-.4.7-.8 1.3-1.1 2zm225.3-4.7c-.4-.6-.8-1.3-1.2-1.9l.9-.6c.4.6.8 1.3 1.2 1.9l-.9.6zm-222.4-.1l-1-.6c.4-.6.8-1.3 1.2-1.9l.9.6c-.3.6-.7 1.3-1.1 1.9zm219.3-4.5c-.4-.6-.9-1.2-1.3-1.8l.9-.7c.4.6.9 1.2 1.3 1.8l-.9.7zm-216.2-.2l-.9-.6c.4-.6.9-1.2 1.3-1.8l.9.7c-.5.5-.9 1.1-1.3 1.7zm212.9-4.4c-.4-.6-.9-1.2-1.4-1.8l.9-.7c.5.6.9 1.2 1.4 1.8l-.9.7zm-209.7-.1l-.9-.7c.5-.6.9-1.2 1.4-1.8l.9.7c-.5.6-.9 1.2-1.4 1.8zm206.2-4.2c-.5-.6-1-1.1-1.4-1.7l.9-.7c.5.6 1 1.1 1.4 1.7l-.9.7zm-202.7-.2l-.9-.7c.5-.6 1-1.2 1.5-1.7l.9.7c-.5.6-1 1.1-1.5 1.7zm199.1-4.1c-.5-.6-1-1.1-1.5-1.7l.8-.8c.5.6 1 1.1 1.5 1.7l-.8.8zm-195.4-.1l-.8-.8c.5-.6 1-1.1 1.5-1.7l.8.8c-.5.6-1 1.1-1.5 1.7zm191.6-4c-.5-.5-1-1.1-1.6-1.6l.8-.8 1.6 1.6-.8.8zm-187.8-.1l-.8-.8 1.6-1.6.8.8-1.6 1.6zm183.8-3.8c-.5-.5-1.1-1-1.6-1.5l.8-.8c.6.5 1.1 1 1.7 1.5l-.9.8zm-179.8-.1l-.8-.8c.5-.5 1.1-1 1.7-1.5l.8.8c-.6.5-1.2 1-1.7 1.5zm175.6-3.6c-.6-.5-1.1-1-1.7-1.4l.7-.9c.6.5 1.2 1 1.7 1.5l-.7.8zm-171.4-.2l-.7-.9c.6-.5 1.1-1 1.7-1.5l.7.9c-.6.6-1.2 1.1-1.7 1.5zm167.1-3.4c-.6-.5-1.2-.9-1.8-1.4l.7-.9c.6.5 1.2.9 1.8 1.4l-.7.9zm-162.8-.1l-.7-.9c.6-.5 1.2-.9 1.8-1.4l.7.9c-.7.5-1.2.9-1.8 1.4zm158.4-3.3c-.6-.4-1.2-.9-1.8-1.3l.6-.9c.6.4 1.2.9 1.8 1.3l-.6.9zm-154-.1l-.7-.9c.6-.4 1.2-.9 1.8-1.3l.6.9c-.5.5-1.1.9-1.7 1.3zm149.4-3.1c-.6-.4-1.2-.8-1.9-1.2l.6-.9c.6.4 1.3.8 1.9 1.2l-.6.9zm-144.8-.1l-.6-.9c.6-.4 1.3-.8 1.9-1.2l.6.9c-.6.4-1.3.8-1.9 1.2zm140-2.8c-.6-.4-1.3-.8-1.9-1.1l.6-1c.7.4 1.3.8 1.9 1.2l-.6.9zm-135.2-.1l-.6-1c.6-.4 1.3-.8 1.9-1.1l.6 1c-.7.3-1.3.7-1.9 1.1zm130.4-2.7c-.7-.4-1.3-.7-2-1.1l.5-1c.7.4 1.3.7 2 1.1l-.5 1zm-125.6-.1l-.5-1c.7-.4 1.3-.7 2-1.1l.5 1c-.7.4-1.4.7-2 1.1zm120.6-2.5c-.7-.3-1.3-.7-2-1l.5-1c.7.3 1.4.6 2 1l-.5 1zm-115.6-.1l-.5-1c.7-.3 1.3-.7 2-1l.5 1c-.7.4-1.4.7-2 1zm110.5-2.3l-2.1-.9.4-1 2.1.9-.4 1zm-105.5 0l-.5-1 2.1-.9.4 1c-.6.3-1.3.6-2 .9zm100.3-2.1c-.7-.3-1.4-.5-2.1-.8l.4-1.1c.7.3 1.4.5 2.1.8l-.4 1.1zm-95.1 0l-.4-1c.7-.3 1.4-.5 2.1-.8l.4 1.1c-.8.1-1.4.4-2.1.7zm89.8-1.9c-.7-.2-1.4-.5-2.1-.7l.3-1.1c.7.2 1.4.5 2.2.7l-.4 1.1zm-84.6-.1l-.4-1.1c.7-.2 1.4-.5 2.1-.7l.3 1.1c-.6.3-1.3.5-2 .7zm79.3-1.6c-.7-.2-1.4-.4-2.2-.6l.3-1.1c.7.2 1.5.4 2.2.6l-.3 1.1zm-74 0l-.3-1.1c.7-.2 1.4-.4 2.2-.6l.3 1.1c-.7.1-1.4.4-2.2.6zm68.6-1.5c-.7-.2-1.4-.4-2.2-.5l.3-1.1c.7.2 1.5.3 2.2.5l-.3 1.1zm-63.2 0l-.3-1.1c.7-.2 1.5-.4 2.2-.5l.2 1.1c-.6.2-1.3.3-2.1.5zm57.7-1.2c-.7-.1-1.5-.3-2.2-.4l.2-1.1c.7.1 1.5.3 2.2.4l-.2 1.1zm-52.2 0l-.2-1.1c.7-.1 1.5-.3 2.2-.4l.2 1.1c-.7.1-1.5.2-2.2.4zm46.7-1c-.7-.1-1.5-.2-2.2-.3l.2-1.1c.7.1 1.5.2 2.2.3l-.2 1.1zm-41.2 0l-.2-1.1c.7-.1 1.5-.2 2.2-.3l.2 1.1c-.7.1-1.5.2-2.2.3zm35.7-.8c-.7-.1-1.5-.2-2.2-.2l.1-1.1c.8.1 1.5.2 2.2.2l-.1 1.1zm-30.1 0l-.1-1.1c.7-.1 1.5-.2 2.2-.2l.1 1.1c-.8.1-1.5.2-2.2.2zm24.5-.5c-.7-.1-1.5-.1-2.2-.1l.1-1.1c.8 0 1.5.1 2.3.1l-.2 1.1zm-19 0l-.1-1.1c.7-.1 1.5-.1 2.3-.1l.1 1.1c-.8 0-1.5.1-2.3.1zm13.4-.3h-2.2v-1.1h2.3l-.1 1.1zm-7.8 0v-1.1h2.3v1.1h-2.3z"/><path fill="#1F3749" d="M126 517.2h-2.3v-1.1h2.2l.1 1.1zm3.4 0v-1.1c.7 0 1.5 0 2.2-.1v1.1c-.7 0-1.5.1-2.2.1zm-9.1-.1c-.8 0-1.5-.1-2.3-.1l.1-1.1c.7 0 1.5.1 2.2.1v1.1zm14.7-.2l-.1-1.1c.7 0 1.5-.1 2.2-.2l.1 1.1c-.7.1-1.4.2-2.2.2zm-20.3-.2c-.8-.1-1.5-.1-2.2-.2l.1-1.1c.7.1 1.5.1 2.2.2l-.1 1.1zm25.9-.2l-.1-1.1c.7-.1 1.5-.2 2.2-.3l.1 1.1c-.7.1-1.4.2-2.2.3zm-31.5-.4c-.7-.1-1.5-.2-2.2-.3l.2-1.1c.7.1 1.5.2 2.2.3l-.2 1.1zm37.1-.3l-.2-1.1c.7-.1 1.5-.2 2.2-.3l.2 1.1c-.7 0-1.4.1-2.2.3zm-42.7-.6c-.7-.1-1.5-.3-2.2-.4l.2-1.1c.7.1 1.5.3 2.2.4l-.2 1.1zm48.3-.4l-.2-1.1c.7-.1 1.5-.3 2.2-.4l.2 1.1c-.7.1-1.5.3-2.2.4zm-53.8-.7c-.7-.2-1.5-.3-2.2-.5l.3-1.1c.7.2 1.5.3 2.2.5l-.3 1.1zm59.3-.5l-.3-1.1c.7-.2 1.5-.4 2.2-.5l.3 1.1c-.7.2-1.5.4-2.2.5zm-64.8-.8c-.7-.2-1.5-.4-2.2-.6l.3-1.1c.7.2 1.4.4 2.2.6l-.3 1.1zm70.3-.6l-.3-1.1 2.1-.6.3 1.1-2.1.6zm-75.7-1c-.7-.2-1.4-.5-2.2-.7l.4-1.1c.7.2 1.4.5 2.1.7l-.3 1.1zm81.1-.6l-.4-1.1c.7-.2 1.4-.5 2.1-.7l.4 1.1c-.7.2-1.4.4-2.1.7zm-86.5-1.2c-.7-.3-1.4-.5-2.1-.8l.4-1.1c.7.3 1.4.5 2.1.8l-.4 1.1zm91.8-.7l-.4-1.1c.7-.3 1.4-.5 2.1-.8l.4 1-2.1.9zm-97.1-1.3l-2.1-.9.4-1 2.1.9-.4 1zm102.3-.8l-.4-1c.7-.3 1.4-.6 2-.9l.5 1-2.1.9zm-107.4-1.4c-.7-.3-1.4-.6-2-1l.5-1c.7.3 1.4.6 2 1l-.5 1zm112.5-1l-.5-1c.7-.3 1.3-.6 2-1l.5 1c-.6.4-1.3.7-2 1zm-117.6-1.5c-.7-.3-1.3-.7-2-1l.5-1c.7.4 1.3.7 2 1l-.5 1zm122.6-1l-.5-1c.7-.4 1.3-.7 2-1.1l.5 1c-.7.4-1.3.7-2 1.1zM61.2 500c-.7-.4-1.3-.8-2-1.1l.6-1c.6.4 1.3.8 1.9 1.1l-.5 1zm132.5-1.1l-.6-1c.6-.4 1.3-.8 1.9-1.1l.6 1c-.6.4-1.2.8-1.9 1.1zm-137.4-1.8c-.6-.4-1.3-.8-1.9-1.2l.6-.9c.6.4 1.3.8 1.9 1.2l-.6.9zm142.2-1.1l-.6-.9c.6-.4 1.2-.8 1.9-1.2l.6.9c-.6.4-1.2.8-1.9 1.2zm-146.9-2c-.6-.4-1.2-.9-1.9-1.3l.7-.9c.6.4 1.2.9 1.8 1.3l-.6.9zm151.6-1.2l-.7-.9c.6-.4 1.2-.9 1.8-1.3l.7.9c-.6.4-1.2.9-1.8 1.3zM47 490.7c-.6-.5-1.2-.9-1.8-1.4l.7-.9c.6.5 1.2.9 1.8 1.4l-.7.9zm160.7-1.2l-.7-.9c.6-.5 1.2-.9 1.8-1.4l.7.9c-.6.4-1.2.9-1.8 1.4zm-165.1-2.3c-.6-.5-1.2-1-1.7-1.4l.7-.9c.6.5 1.1 1 1.7 1.4l-.7.9zm169.5-1.3l-.7-.9c.6-.5 1.1-1 1.7-1.5l.7.8c-.6.6-1.1 1.1-1.7 1.6zm-173.8-2.3c-.6-.5-1.1-1-1.7-1.5l.8-.8c.5.5 1.1 1 1.7 1.5l-.8.8zm178-1.4l-.8-.8c.5-.5 1.1-1 1.6-1.5l.8.8c-.5.5-1 1-1.6 1.5zm-182.1-2.5l-1.6-1.6.8-.8 1.6 1.6-.8.8zm186.2-1.4l-.8-.8c.5-.5 1-1.1 1.6-1.6l.8.8c-.6.5-1.1 1-1.6 1.6zm-190.2-2.6c-.5-.5-1-1.1-1.5-1.7l.8-.8c.5.6 1 1.1 1.5 1.6l-.8.9zm194.1-1.5l-.8-.8c.5-.6 1-1.1 1.5-1.7l.8.7c-.5.7-1 1.2-1.5 1.8zm-197.9-2.7c-.5-.6-1-1.1-1.5-1.7l.9-.7c.5.6 1 1.1 1.5 1.7l-.9.7zm-3.6-4.3c-.5-.6-.9-1.2-1.4-1.8l.9-.7c.5.6.9 1.2 1.4 1.8l-.9.7zm-3.4-4.5c-.4-.6-.9-1.2-1.3-1.8l.9-.6c.4.6.9 1.2 1.3 1.8l-.9.6zm-3.2-4.6c-.4-.6-.8-1.3-1.2-1.9l.9-.6c.4.6.8 1.2 1.2 1.9l-.9.6zm221.9-1.8l-.9-.6c.4-.6.8-1.3 1.2-1.9l1 .6c-.5.7-.9 1.3-1.3 1.9zm-224.9-3c-.4-.6-.8-1.3-1.2-1.9l1-.6c.4.6.8 1.3 1.1 1.9l-.9.6zm227.8-1.8l-1-.6c.4-.6.7-1.3 1.1-1.9l1 .6c-.3.6-.7 1.3-1.1 1.9zm-230.6-3c-.4-.7-.7-1.3-1.1-2l1-.5c.3.7.7 1.3 1.1 2l-1 .5zm233.4-1.9l-1-.5c.3-.7.7-1.3 1-2l1 .5c-.3.6-.7 1.3-1 2zm-236-3.1c-.3-.7-.7-1.3-1-2l1-.5c.3.7.6 1.3 1 2l-1 .5zm238.5-2l-1-.5c.3-.7.6-1.4.9-2l1 .5c-.3.7-.6 1.4-.9 2zM5.4 438.4l-.9-2.1 1-.4c.3.7.6 1.4.9 2l-1 .5zm243.2-2l-1-.4.9-2.1 1 .4-.9 2.1zM3.2 433.2c-.3-.7-.5-1.4-.8-2.1l1.1-.4c.3.7.5 1.4.8 2.1l-1.1.4zm247.5-2.1l-1.1-.4c.3-.7.5-1.4.8-2.1l1.1.4c-.3.7-.5 1.4-.8 2.1zM1.2 427.9c-.2-.7-.5-1.4-.7-2.1l1.1-.3c.2.7.5 1.4.7 2.1l-1.1.3zm251.4-2.1l-1.1-.3c.2-.7.5-1.4.7-2.1l1.1.3c-.3.6-.5 1.4-.7 2.1zM-.5 422.5c-.2-.7-.4-1.4-.6-2.2L0 420l.6 2.1-1.1.4zm254.7-2.1l-1.1-.3c.2-.7.4-1.4.6-2.2l1.1.3c-.2.7-.4 1.4-.6 2.2zM-2 417.1c-.2-.7-.4-1.5-.5-2.2l1.1-.3c.2.7.3 1.5.5 2.2l-1.1.3zm257.6-2.2l-1.1-.3c.2-.7.3-1.5.5-2.2l1.1.2c-.2.8-.3 1.6-.5 2.3zm-258.8-3.3c-.2-.7-.3-1.5-.4-2.2l1.1-.2c.1.7.3 1.5.4 2.2l-1.1.2zm260-2.2l-1.1-.2c.1-.7.3-1.5.4-2.2l1.1.2c-.2.7-.3 1.4-.4 2.2zm-261-3.4c-.1-.7-.2-1.5-.3-2.2l1.1-.2c.1.7.2 1.5.3 2.2l-1.1.2zm261.9-2.2l-1.1-.2c.1-.7.2-1.5.3-2.2l1.1.1c-.1.8-.2 1.6-.3 2.3zM-5 400.4c-.1-.7-.2-1.5-.2-2.2l1.1-.1c.1.7.2 1.5.2 2.2l-1.1.1zm263.4-2.2l-1.1-.1c.1-.7.1-1.5.2-2.2l1.1.1c-.1.7-.1 1.5-.2 2.2zm-264-3.4c-.1-.7-.1-1.5-.2-2.3l1.1-.1c0 .7.1 1.5.1 2.2l-1 .2zm264.4-2.2l-1.1-.1c0-.7.1-1.5.1-2.2h1.1c0 .8 0 1.5-.1 2.3zm-264.7-3.4c0-.7 0-1.5-.1-2.3h1.1c0 .7 0 1.5.1 2.2l-1.1.1zM259 387h-1.1v-2.2h1.1c.1 1 .1 1.5 0 2.2zm-1.1-3.4v-2.2h1.1v2.3l-1.1-.1zm-262.7 0h-1.1v-2.3h1.1v2.3zm262.6-5.6c0-.7-.1-1.5-.1-2.2l1.1-.1c.1.7.1 1.5.1 2.3h-1.1zm-262.5 0l-1.1-.1c0-.8.1-1.5.1-2.3l1.1.1c0 .8 0 1.5-.1 2.3zm262.1-5.6c-.1-.7-.1-1.5-.2-2.2l1.1-.1c.1.7.2 1.5.2 2.2l-1.1.1zm-261.7 0l-1.1-.1c.1-.7.1-1.5.2-2.2l1.1.1c0 .7-.1 1.5-.2 2.2zm261-5.5c-.1-.7-.2-1.5-.3-2.2l1.1-.2c.1.7.2 1.5.3 2.2l-1.1.2zm-260.3-.1l-1.1-.2c.1-.7.2-1.5.3-2.2l1.1.2c-.1.8-.2 1.5-.3 2.2zm259.5-5.5c-.1-.7-.3-1.5-.4-2.2l1.1-.2c.1.7.3 1.5.4 2.2l-1.1.2zm-258.7 0l-1.1-.2c.1-.7.3-1.5.4-2.2l1.1.2c-.1.8-.2 1.5-.4 2.2zm257.6-5.4c-.2-.7-.3-1.5-.5-2.2l1.1-.3c.2.7.3 1.5.5 2.2l-1.1.3zm-256.5-.1l-1.1-.2c.2-.7.3-1.5.5-2.2l1.1.3c-.1.7-.3 1.4-.5 2.1zm255.1-5.4c-.2-.7-.4-1.4-.6-2.2l1.1-.3c.2.7.4 1.4.6 2.2l-1.1.3zm-253.7 0l-1.1-.3c.2-.7.4-1.5.6-2.2l1.1.3c-.2.8-.4 1.5-.6 2.2zm252.2-5.3c-.2-.7-.5-1.4-.7-2.1l1.1-.4c.2.7.5 1.4.7 2.1l-1.1.4zM1.3 345l-1.1-.3c.2-.7.5-1.4.7-2.2l1.1.4c-.3.7-.5 1.4-.7 2.1zm248.8-5.2c-.3-.7-.5-1.4-.8-2.1l1-.4c.3.7.5 1.4.8 2.1l-1 .4zm-247-.1l-1.1-.4c.3-.7.5-1.4.8-2.1l1 .4c-.2.7-.5 1.4-.7 2.1zm244.9-5.2l-.9-2.1 1-.4.9 2.1-1 .4zm-242.9 0l-1-.4.9-2.1 1 .4-.9 2.1zm240.7-5.1c-.3-.7-.6-1.3-1-2l1-.5c.3.7.6 1.4 1 2l-1 .5zm-238.4 0l-1-.5c.3-.7.6-1.4 1-2l1 .5c-.4.6-.7 1.3-1 2zm235.9-5c-.3-.7-.7-1.3-1-2l1-.5c.4.7.7 1.3 1.1 2l-1.1.5zm-233.5-.1l-1-.5c.3-.7.7-1.3 1.1-2l1 .5c-.4.7-.7 1.4-1.1 2zm230.9-4.8c-.4-.6-.7-1.3-1.1-1.9l1-.6c.4.6.8 1.3 1.1 1.9l-1 .6zm-228.2-.1l-1-.6c.4-.7.8-1.3 1.1-2l1 .6c-.3.7-.7 1.4-1.1 2zm225.3-4.6c-.4-.6-.8-1.3-1.2-1.9l.9-.6c.4.6.8 1.3 1.2 1.9l-.9.6zm-222.4-.2l-1-.6c.4-.6.8-1.3 1.2-1.9l.9.6c-.3.7-.7 1.3-1.1 1.9zm219.3-4.5c-.4-.6-.9-1.2-1.3-1.8l.9-.7c.4.6.9 1.2 1.3 1.8l-.9.7zm-216.2-.2l-.9-.6c.4-.6.9-1.2 1.3-1.8l.9.7c-.4.5-.9 1.1-1.3 1.7zm213-4.3c-.4-.6-.9-1.2-1.4-1.8l.9-.7c.5.6.9 1.2 1.4 1.8l-.9.7zm-209.7-.2l-.9-.7c.5-.6.9-1.2 1.4-1.8l.9.7c-.5.6-1 1.2-1.4 1.8zm206.2-4.2c-.5-.6-1-1.1-1.4-1.7l.9-.7c.5.6 1 1.1 1.4 1.7l-.9.7zM25.3 301l-.9-.7c.5-.6 1-1.2 1.5-1.7l.9.7c-.6.6-1.1 1.1-1.5 1.7zm199-4.1c-.5-.6-1-1.1-1.5-1.7l.8-.8c.5.6 1 1.1 1.5 1.7l-.8.8zm-195.4-.1l-.8-.8c.5-.6 1-1.1 1.5-1.7l.8.8c-.5.6-1 1.1-1.5 1.7zm191.6-3.9c-.5-.5-1-1.1-1.6-1.6l.8-.8 1.6 1.6-.8.8zm-187.8-.2l-.8-.8 1.6-1.6.8.8c-.5.6-1 1.1-1.6 1.6zm183.8-3.8c-.5-.5-1.1-1-1.6-1.5l.8-.8c.6.5 1.1 1 1.7 1.5l-.9.8zm-179.8-.1l-.8-.8c.5-.5 1.1-1 1.7-1.5l.8.8c-.6.5-1.1 1-1.7 1.5zm175.7-3.6c-.6-.5-1.1-1-1.7-1.4l.7-.9c.6.5 1.2 1 1.7 1.5l-.7.8zm-171.5-.1l-.7-.9c.6-.5 1.1-1 1.7-1.5l.7.9c-.6.5-1.1 1-1.7 1.5zm167.2-3.5c-.6-.5-1.2-.9-1.8-1.4l.7-.9c.6.5 1.2.9 1.8 1.4l-.7.9zm-162.9-.1l-.7-.9c.6-.5 1.2-.9 1.8-1.4l.7.9c-.6.5-1.2.9-1.8 1.4zm158.4-3.2c-.6-.4-1.2-.9-1.8-1.3l.6-.9c.6.4 1.2.9 1.8 1.3l-.6.9zm-153.9-.2l-.7-.9c.6-.4 1.2-.9 1.8-1.3l.6.9c-.5.5-1.1.9-1.7 1.3zm149.3-3c-.6-.4-1.2-.8-1.9-1.2l.6-.9c.6.4 1.3.8 1.9 1.2l-.6.9zM54.3 275l-.6-.9c.6-.4 1.3-.8 1.9-1.2l.6.9c-.7.4-1.3.8-1.9 1.2zm140-2.9c-.6-.4-1.3-.8-1.9-1.1l.6-1c.7.4 1.3.8 1.9 1.2l-.6.9zM59 272l-.6-1c.6-.4 1.3-.8 1.9-1.1l.6 1c-.6.3-1.3.7-1.9 1.1zm130.4-2.7c-.7-.4-1.3-.7-2-1.1l.5-1c.7.4 1.3.7 2 1.1l-.5 1zm-125.6-.1l-.5-1c.7-.4 1.3-.7 2-1.1l.5 1c-.7.4-1.3.8-2 1.1zm120.6-2.5c-.7-.3-1.3-.7-2-1l.5-1c.7.3 1.4.6 2 1l-.5 1zm-115.6 0l-.5-1c.7-.3 1.3-.7 2-1l.5 1c-.7.3-1.3.6-2 1zm110.5-2.4l-2.1-.9.4-1 2.1.9-.4 1zm-105.5 0l-.5-1 2.1-.9.4 1c-.6.3-1.3.6-2 .9zm100.4-2.1c-.7-.3-1.4-.5-2.1-.8l.4-1.1c.7.3 1.4.5 2.1.8l-.4 1.1zm-95.2 0l-.4-1c.7-.3 1.4-.5 2.1-.8l.4 1.1c-.7.1-1.4.4-2.1.7zm89.9-1.9c-.7-.2-1.4-.5-2.1-.7l.3-1.1c.7.2 1.4.5 2.2.7l-.4 1.1zm-84.6 0l-.4-1.1c.7-.2 1.4-.5 2.1-.7l.3 1.1c-.6.2-1.3.4-2 .7zm79.2-1.7c-.7-.2-1.4-.4-2.2-.6l.3-1.1c.7.2 1.5.4 2.2.6l-.3 1.1zm-73.9 0l-.3-1.1c.7-.2 1.4-.4 2.2-.6l.3 1.1c-.8.2-1.5.4-2.2.6zm68.5-1.5c-.7-.2-1.4-.4-2.2-.5l.3-1.1c.7.2 1.5.3 2.2.5l-.3 1.1zm-63.1 0l-.3-1.1c.7-.2 1.5-.4 2.2-.5l.2 1.1c-.7.2-1.4.4-2.1.5zm57.7-1.2c-.7-.1-1.5-.3-2.2-.4l.2-1.1c.7.1 1.5.3 2.2.4l-.2 1.1zm-52.3 0l-.2-1.1c.7-.1 1.5-.3 2.2-.4l.2 1.1c-.7.1-1.4.3-2.2.4zm46.8-1c-.7-.1-1.5-.2-2.2-.3l.2-1.1c.7.1 1.5.2 2.2.3l-.2 1.1zm-41.2 0l-.2-1.1c.7-.1 1.5-.2 2.2-.3l.2 1.1c-.8.1-1.5.2-2.2.3zm35.6-.7c-.7-.1-1.5-.2-2.2-.2l.1-1.1c.7.1 1.5.2 2.2.2l-.1 1.1zm-30.1 0l-.1-1.1c.7-.1 1.5-.2 2.2-.2l.1 1.1c-.7 0-1.5.1-2.2.2zm24.6-.6c-.7-.1-1.5-.1-2.2-.1l.1-1.1c.8 0 1.5.1 2.3.1l-.2 1.1zm-19 0l-.1-1.1c.7-.1 1.5-.1 2.3-.1l.1 1.1c-.9 0-1.6.1-2.3.1zm13.4-.2h-2.2v-1.1h2.3l-.1 1.1zm-7.9 0v-1.1h2.3v1.1c-.8-.1-1.5-.1-2.3 0z"/><path fill="#1F3749" d="M49.7 596.5h-2.3v-1.1h2.2l.1 1.1zm3.4-.1v-1.1c.7 0 1.5 0 2.2-.1v1.1c-.7.1-1.4.1-2.2.1zm-9-.1c-.8 0-1.5-.1-2.3-.1l.1-1.1c.7 0 1.5.1 2.2.1v1.1zm14.7-.1l-.1-1.1c.7 0 1.5-.1 2.2-.2l.1 1.1c-.7.1-1.5.1-2.2.2zm-20.3-.3c-.8-.1-1.5-.1-2.2-.2l.1-1.1c.7.1 1.5.2 2.2.2l-.1 1.1zm25.9-.2l-.1-1.1c.7-.1 1.5-.2 2.2-.3l.1 1.1c-.7.2-1.5.2-2.2.3zm-31.5-.4c-.7-.1-1.5-.2-2.2-.3l.2-1.1c.7.1 1.5.2 2.2.3l-.2 1.1zM70 595l-.2-1.1c.7-.1 1.5-.2 2.2-.3l.2 1.1c-.7.1-1.5.2-2.2.3zm-42.7-.5c-.7-.1-1.5-.3-2.2-.4l.2-1.1c.7.1 1.5.3 2.2.4l-.2 1.1zm48.2-.4l-.2-1.1c.7-.1 1.5-.3 2.2-.4l.2 1.1c-.7.1-1.4.2-2.2.4zm-53.8-.7c-.7-.2-1.5-.3-2.2-.5l.3-1.1c.7.2 1.5.3 2.2.5l-.3 1.1zm59.3-.5l-.3-1.1c.7-.2 1.5-.4 2.2-.5l.3 1.1c-.7.1-1.4.3-2.2.5zm-64.7-.9c-.7-.2-1.5-.4-2.2-.6l.3-1.1c.7.2 1.4.4 2.2.6l-.3 1.1zm70.2-.6l-.3-1.1 2.1-.6.3 1.1-2.1.6zm-75.7-.9c-.7-.2-1.4-.5-2.2-.7l.4-1.1c.7.2 1.4.5 2.1.7l-.3 1.1zm81.1-.7l-.4-1.1c.7-.2 1.4-.5 2.1-.7l.4 1.1c-.7.2-1.4.5-2.1.7zm-86.4-1.1c-.7-.3-1.4-.5-2.1-.8l.4-1.1c.7.3 1.4.5 2.1.8l-.4 1.1zm91.7-.8l-.4-1.1c.7-.3 1.4-.5 2.1-.8l.4 1c-.7.4-1.4.6-2.1.9zm-97-1.2l-2.1-.9.4-1 2.1.9-.4 1zm102.2-.9l-.4-1c.7-.3 1.4-.6 2-.9l.5 1-2.1.9zM-5 584.4c-.7-.3-1.4-.6-2-1l.5-1c.7.3 1.3.6 2 1l-.5 1zm112.6-.9l-.5-1c.7-.3 1.3-.6 2-1l.5 1c-.7.3-1.4.7-2 1zm-117.7-1.6c-.7-.3-1.3-.7-2-1l.5-1c.7.4 1.3.7 2 1l-.5 1zm122.7-1l-.5-1c.7-.4 1.3-.7 2-1.1l.5 1c-.7.4-1.4.8-2 1.1zm-127.7-1.7c-.7-.4-1.3-.8-2-1.1l.6-1c.6.4 1.3.8 1.9 1.1l-.5 1zm132.6-1l-.6-1c.6-.4 1.3-.8 1.9-1.1l.6 1c-.6.3-1.3.7-1.9 1.1zm-137.4-1.9c-.6-.4-1.3-.8-1.9-1.2l.6-.9c.6.4 1.3.8 1.9 1.2l-.6.9zm142.2-1.1l-.6-.9c.6-.4 1.2-.8 1.9-1.2l.6.9c-.7.4-1.3.8-1.9 1.2zm-146.9-2c-.6-.4-1.2-.9-1.9-1.3l.7-.9c.6.4 1.2.9 1.8 1.3l-.6.9zm151.5-1.1l-.7-.9c.6-.4 1.2-.9 1.8-1.3l.7.9c-.5.4-1.2.8-1.8 1.3zM-29.2 570c-.6-.5-1.2-.9-1.8-1.4l.7-.9c.6.5 1.2.9 1.8 1.4l-.7.9zm160.7-1.3l-.7-.9c.6-.5 1.2-.9 1.8-1.4l.7.9c-.7.5-1.3.9-1.8 1.4zm-165.2-2.2c-.6-.5-1.2-1-1.7-1.4l.7-.9c.6.5 1.1 1 1.7 1.4l-.7.9zm169.5-1.3l-.7-.9c.6-.5 1.1-1 1.7-1.5l.7.8c-.5.6-1.1 1.1-1.7 1.6zm-173.7-2.4c-.6-.5-1.1-1-1.7-1.5l.8-.8c.5.5 1.1 1 1.7 1.5l-.8.8zm178-1.4l-.8-.8c.5-.5 1.1-1 1.6-1.5l.8.8c-.5.5-1.1 1-1.6 1.5zM-42.1 559l-1.6-1.6.8-.8 1.6 1.6-.8.8zm186.2-1.5l-.8-.8c.5-.5 1-1.1 1.6-1.6l.8.8c-.5.6-1 1.1-1.6 1.6zM-46 554.9c-.5-.5-1-1.1-1.5-1.7l.8-.8c.5.6 1 1.1 1.5 1.6l-.8.9zm194-1.5l-.8-.8c.5-.6 1-1.1 1.5-1.7l.8.7c-.5.7-1 1.3-1.5 1.8zm-197.8-2.6c-.5-.6-1-1.1-1.5-1.7l.9-.7c.5.6 1 1.1 1.5 1.7l-.9.7zm201.5-1.6l-.9-.7c.5-.6 1-1.1 1.4-1.7l.9.7c-.4.5-.9 1.1-1.4 1.7zm-205.1-2.8c-.5-.6-.9-1.2-1.4-1.8l.9-.7c.5.6.9 1.2 1.4 1.8l-.9.7zm208.7-1.6l-.9-.7c.5-.6.9-1.2 1.4-1.8l.9.7c-.5.6-1 1.2-1.4 1.8zm-212.1-2.9c-.4-.6-.9-1.2-1.3-1.8l.9-.6c.4.6.9 1.2 1.3 1.8l-.9.6zm215.4-1.6l-.9-.6c.4-.6.9-1.2 1.3-1.8l.9.6c-.4.5-.8 1.1-1.3 1.8zm-218.7-3c-.4-.6-.8-1.3-1.2-1.9l.9-.6c.4.6.8 1.2 1.2 1.9l-.9.6zm221.9-1.7l-.9-.6c.4-.6.8-1.3 1.2-1.9l1 .6c-.5.6-.9 1.2-1.3 1.9zm-224.9-3c-.4-.6-.8-1.3-1.2-1.9l1-.6c.4.6.8 1.3 1.1 1.9l-.9.6zm227.9-1.8l-1-.6c.4-.6.7-1.3 1.1-1.9l1 .6c-.4.6-.8 1.2-1.1 1.9zm-230.7-3.1c-.4-.7-.7-1.3-1.1-2l1-.5c.3.7.7 1.3 1.1 2l-1 .5zm233.4-1.9l-1-.5c.3-.7.7-1.3 1-2l1 .5c-.3.7-.6 1.4-1 2zm-236-3.1c-.3-.7-.7-1.3-1-2l1-.5c.3.7.6 1.3 1 2l-1 .5zm238.5-1.9l-1-.5c.3-.7.6-1.4.9-2l1 .5c-.2.6-.5 1.3-.9 2zm-240.9-3.2l-.9-2.1 1-.4c.3.7.6 1.4.9 2l-1 .5zm243.3-2l-1-.4.9-2.1 1 .4c-.4.7-.6 1.4-.9 2.1zm-245.5-3.2c-.3-.7-.5-1.4-.8-2.1l1.1-.4c.3.7.5 1.4.8 2.1l-1.1.4zm247.6-2l-1.1-.4c.3-.7.5-1.4.8-2.1l1.1.4c-.3.6-.6 1.4-.8 2.1zM-75 507.1c-.2-.7-.5-1.4-.7-2.1l1.1-.3c.2.7.5 1.4.7 2.1l-1.1.3zm251.3-2.1l-1.1-.3c.2-.7.5-1.4.7-2.1l1.1.3c-.2.7-.4 1.4-.7 2.1zm-253-3.2c-.2-.7-.4-1.4-.6-2.2l1.1-.3c.2.7.4 1.4.6 2.2l-1.1.3zm254.7-2.2l-1.1-.3c.2-.7.4-1.4.6-2.2l1.1.3c-.2.8-.4 1.5-.6 2.2zm-256.2-3.3c-.2-.7-.4-1.5-.5-2.2l1.1-.3c.2.7.3 1.5.5 2.2l-1.1.3zm257.6-2.2l-1.1-.3c.2-.7.3-1.5.5-2.2l1.1.2c-.2.9-.4 1.6-.5 2.3zm-258.9-3.3c-.2-.7-.3-1.5-.4-2.2l1.1-.2c.1.7.3 1.5.4 2.2l-1.1.2zm260-2.2l-1.1-.2c.1-.7.3-1.5.4-2.2l1.1.2c-.1.7-.2 1.5-.4 2.2zm-261-3.3c-.1-.7-.2-1.5-.3-2.2l1.1-.2c.1.7.2 1.5.3 2.2l-1.1.2zm261.9-2.2l-1.1-.2c.1-.7.2-1.5.3-2.2l1.1.1c0 .8-.1 1.5-.3 2.3zm-262.7-3.4c-.1-.7-.2-1.5-.2-2.2l1.1-.1c.1.7.2 1.5.2 2.2l-1.1.1zm263.4-2.2l-1.1-.1c.1-.7.1-1.5.2-2.2l1.1.1c0 .7-.1 1.4-.2 2.2zm-263.9-3.4c-.1-.7-.1-1.5-.2-2.3l1.1-.1c0 .7.1 1.5.1 2.2l-1 .2zm264.4-2.3l-1.1-.1c0-.7.1-1.5.1-2.2h1.1c0 .8-.1 1.6-.1 2.3zm-264.7-3.4c0-.7 0-1.5-.1-2.3h1.1c0 .7 0 1.5.1 2.2l-1.1.1zm264.9-2.3h-1.1v-2.3h1.1v2.3zm-1.1-3.3v-2.2h1.1v2.3l-1.1-.1zm-262.8 0h-1.1v-2.3h1.1v2.3zm262.6-5.6c0-.7-.1-1.5-.1-2.2l1.1-.1c.1.7.1 1.5.1 2.3h-1.1zm-262.4 0H-82c0-.8.1-1.5.1-2.3l1.1.1c0 .7-.1 1.5-.1 2.2zm262-5.5c-.1-.7-.1-1.5-.2-2.2l1.1-.1c.1.7.2 1.5.2 2.2l-1.1.1zm-261.6-.1l-1.1-.1c.1-.7.1-1.5.2-2.2l1.1.1c-.1.8-.1 1.5-.2 2.2zm261-5.5c-.1-.7-.2-1.5-.3-2.2l1.1-.2c.1.7.2 1.5.3 2.2l-1.1.2zm-260.4 0l-1.1-.2c.1-.7.2-1.5.3-2.2l1.1.2c-.1.7-.2 1.4-.3 2.2zm259.5-5.5c-.1-.7-.3-1.5-.4-2.2l1.1-.2c.1.7.3 1.5.4 2.2l-1.1.2zm-258.6 0l-1.1-.2c.1-.7.3-1.5.4-2.2l1.1.2c-.1.7-.3 1.4-.4 2.2zm257.5-5.5c-.2-.7-.3-1.5-.5-2.2l1.1-.3c.2.7.3 1.5.5 2.2l-1.1.3zm-256.4 0l-1.1-.2c.2-.7.3-1.5.5-2.2l1.1.3c-.2.6-.3 1.4-.5 2.1zm255.1-5.4c-.2-.7-.4-1.4-.6-2.2l1.1-.3c.2.7.4 1.4.6 2.2l-1.1.3zm-253.8 0l-1.1-.3c.2-.7.4-1.5.6-2.2l1.1.3c-.2.7-.4 1.4-.6 2.2zm252.2-5.4c-.2-.7-.5-1.4-.7-2.1l1.1-.4c.2.7.5 1.4.7 2.1l-1.1.4zm-250.6 0l-1.1-.3c.2-.7.5-1.4.7-2.2l1.1.4c-.2.7-.5 1.4-.7 2.1zm248.8-5.3c-.3-.7-.5-1.4-.8-2.1l1-.4c.3.7.5 1.4.8 2.1l-1 .4zm-247 0l-1.1-.4c.3-.7.5-1.4.8-2.1l1 .4c-.2.7-.4 1.4-.7 2.1zm245-5.2l-.9-2.1 1-.4.9 2.1-1 .4zm-243-.1l-1-.4.9-2.1 1 .4c-.3.8-.6 1.4-.9 2.1zm240.7-5c-.3-.7-.6-1.3-1-2l1-.5c.3.7.6 1.4 1 2l-1 .5zm-238.4-.1l-1-.5c.3-.7.6-1.4 1-2l1 .5c-.4.7-.7 1.3-1 2zm236-4.9c-.3-.7-.7-1.3-1-2l1-.5c.4.7.7 1.3 1.1 2l-1.1.5zm-233.5-.1l-1-.5c.3-.7.7-1.3 1.1-2l1 .5c-.4.6-.8 1.3-1.1 2zm230.8-4.8c-.4-.6-.7-1.3-1.1-1.9l1-.6c.4.6.8 1.3 1.1 1.9l-1 .6zm-228.1-.1l-1-.6c.4-.7.8-1.3 1.1-2l1 .6c-.4.7-.8 1.3-1.1 2zm225.2-4.7c-.4-.6-.8-1.3-1.2-1.9l.9-.6c.4.6.8 1.3 1.2 1.9l-.9.6zm-222.3-.1l-1-.6c.4-.6.8-1.3 1.2-1.9l.9.6c-.3.6-.7 1.2-1.1 1.9zm219.3-4.6c-.4-.6-.9-1.2-1.3-1.8l.9-.7c.4.6.9 1.2 1.3 1.8l-.9.7zm-216.3-.1l-.9-.6c.4-.6.9-1.2 1.3-1.8l.9.7c-.4.5-.8 1.1-1.3 1.7zm213-4.4c-.4-.6-.9-1.2-1.4-1.8l.9-.7c.5.6.9 1.2 1.4 1.8l-.9.7zm-209.7-.1l-.9-.7c.5-.6.9-1.2 1.4-1.8l.9.7c-.5.6-.9 1.2-1.4 1.8zm206.2-4.3c-.5-.6-1-1.1-1.4-1.7l.9-.7c.5.6 1 1.1 1.4 1.7l-.9.7zm-202.7-.1l-.9-.7c.5-.6 1-1.2 1.5-1.7l.9.7c-.5.5-1 1.1-1.5 1.7zm199.1-4.1c-.5-.6-1-1.1-1.5-1.7l.8-.8c.5.6 1 1.1 1.5 1.7l-.8.8zm-195.4-.2l-.8-.8c.5-.6 1-1.1 1.5-1.7l.8.8c-.5.6-1 1.2-1.5 1.7zm191.6-3.9c-.5-.5-1-1.1-1.6-1.6l.8-.8 1.6 1.6-.8.8zm-187.8-.1l-.8-.8 1.6-1.6.8.8c-.6.5-1.1 1-1.6 1.6zm183.8-3.8c-.5-.5-1.1-1-1.6-1.5l.8-.8c.6.5 1.1 1 1.7 1.5l-.9.8zm-179.8-.2l-.8-.8c.5-.5 1.1-1 1.7-1.5l.8.8c-.6.5-1.2 1-1.7 1.5zm175.6-3.6c-.6-.5-1.1-1-1.7-1.4l.7-.9c.6.5 1.2 1 1.7 1.5l-.7.8zm-171.4-.1l-.7-.9c.6-.5 1.1-1 1.7-1.5l.7.9c-.6.5-1.2 1-1.7 1.5zm167.1-3.4c-.6-.5-1.2-.9-1.8-1.4l.7-.9c.6.5 1.2.9 1.8 1.4l-.7.9zm-162.8-.1l-.7-.9c.6-.5 1.2-.9 1.8-1.4l.7.9c-.7.4-1.3.9-1.8 1.4zm158.3-3.3c-.6-.4-1.2-.9-1.8-1.3l.6-.9c.6.4 1.2.9 1.8 1.3l-.6.9zm-153.9-.1l-.7-.9c.6-.4 1.2-.9 1.8-1.3l.6.9c-.5.4-1.1.9-1.7 1.3zm149.3-3.1c-.6-.4-1.2-.8-1.9-1.2l.6-.9c.6.4 1.3.8 1.9 1.2l-.6.9zm-144.7-.1l-.6-.9c.6-.4 1.3-.8 1.9-1.2l.6.9c-.6.4-1.3.8-1.9 1.2zm140-2.9c-.6-.4-1.3-.8-1.9-1.1l.6-1c.7.4 1.3.8 1.9 1.2l-.6.9zm-135.3-.1l-.6-1c.6-.4 1.3-.8 1.9-1.1l.6 1c-.6.4-1.2.8-1.9 1.1zm130.4-2.7c-.7-.4-1.3-.7-2-1.1l.5-1c.7.4 1.3.7 2 1.1l-.5 1zm-125.5 0l-.5-1c.7-.4 1.3-.7 2-1.1l.5 1c-.7.4-1.4.7-2 1.1zm120.6-2.5c-.7-.3-1.3-.7-2-1l.5-1c.7.3 1.4.6 2 1l-.5 1zm-115.7-.1l-.5-1c.7-.3 1.3-.7 2-1l.5 1c-.6.4-1.3.7-2 1zm110.6-2.3l-2.1-.9.4-1 2.1.9-.4 1zm-105.5 0l-.5-1 2.1-.9.4 1c-.6.3-1.3.6-2 .9zm100.3-2.2c-.7-.3-1.4-.5-2.1-.8l.4-1.1c.7.3 1.4.5 2.1.8l-.4 1.1zm-95.2 0l-.4-1c.7-.3 1.4-.5 2.1-.8l.4 1.1c-.7.2-1.4.5-2.1.7zm89.9-1.9c-.7-.2-1.4-.5-2.1-.7l.3-1.1c.7.2 1.4.5 2.2.7l-.4 1.1zm-84.6 0l-.4-1.1c.7-.2 1.4-.5 2.1-.7l.3 1.1c-.6.2-1.3.5-2 .7zm79.3-1.7c-.7-.2-1.4-.4-2.2-.6l.3-1.1c.7.2 1.5.4 2.2.6l-.3 1.1zm-74 0l-.3-1.1c.7-.2 1.4-.4 2.2-.6l.3 1.1c-.7.2-1.5.4-2.2.6zm68.6-1.4c-.7-.2-1.4-.4-2.2-.5l.3-1.1c.7.2 1.5.3 2.2.5l-.3 1.1zm-63.2 0l-.3-1.1c.7-.2 1.5-.4 2.2-.5l.2 1.1c-.6.1-1.3.3-2.1.5zm57.7-1.2c-.7-.1-1.5-.3-2.2-.4l.2-1.1c.7.1 1.5.3 2.2.4l-.2 1.1zm-52.2 0l-.2-1.1c.7-.1 1.5-.3 2.2-.4l.2 1.1c-.7.1-1.5.2-2.2.4zm46.7-1c-.7-.1-1.5-.2-2.2-.3l.2-1.1c.7.1 1.5.2 2.2.3l-.2 1.1zm-41.2 0l-.2-1.1c.7-.1 1.5-.2 2.2-.3l.2 1.1c-.7 0-1.5.1-2.2.3zm35.7-.8c-.7-.1-1.5-.2-2.2-.2l.1-1.1c.8.1 1.5.2 2.2.2l-.1 1.1zm-30.2 0l-.1-1.1c.7-.1 1.5-.2 2.2-.2l.1 1.1c-.7 0-1.4.1-2.2.2zm24.6-.5c-.7-.1-1.5-.1-2.2-.1l.1-1.1c.8 0 1.5.1 2.3.1l-.2 1.1zm-19 0l-.1-1.1c.7-.1 1.5-.1 2.3-.1l.1 1.1c-.8 0-1.5 0-2.3.1zm13.4-.3H52v-1.1h2.3l-.1 1.1zm-7.8 0v-1.1h2.3v1.1h-2.3z"/></g><path fill="#1F3749" d="M-17.1 505.1c-9.9 0-18 8.1-18 18s8.1 18 18 18 18-8.1 18-18c0-10-8-18-18-18zm-11.8 26.3c-.5 0-1-.4-1-1 0-.5.4-1 1-1 .5 0 1 .4 1 1-.1.6-.5 1-1 1zm7.7-10.3c-.5 0-1-.4-1-1 0-.5.4-1 1-1 .5 0 1 .4 1 1-.1.6-.5 1-1 1zm11.2 13.5c-1.4 0-2.6-1.1-2.6-2.6 0-1.4 1.1-2.6 2.6-2.6 1.4 0 2.6 1.2 2.6 2.6 0 1.5-1.2 2.6-2.6 2.6zm-1.9-13.5c-2.5 0-4.5-2-4.5-4.5s2-4.5 4.5-4.5 4.5 2 4.5 4.5-2 4.5-4.5 4.5z"/><g fill="#1F3749"><circle cx="-82.9" cy="411.2" r="4.1"/><circle cx="207.9" cy="481.5" r="4.1"/><circle cx="115.6" cy="544.7" r="2.3"/><circle cx="91.9" cy="602.6" r="2.3"/><circle cx="-20.1" cy="308.8" r="1.9"/><circle cx="85.3" cy="276.3" r="1.5"/><circle cx="180.6" cy="368.3" r="3"/><circle cx="129.7" cy="555.4" r="9.3"/><circle cx="-75.1" cy="421.3" r="1.5"/></g><path fill="#1F3749" d="M-30.6 502.8l-1.3-2 .4-.3 1.2 2M-33.7 497.8l-2.4-4.1.6-.3 2.2 4.1M-37.7 490.6l-2-4.2.7-.4 1.9 4.3M-41.2 483.1l-1.7-4.3.9-.3 1.7 4.3M-44.1 475.5l-1.4-4.5 1-.3 1.4 4.5M-46.5 467.6l-1.1-4.5 1.2-.3 1.1 4.5M-48.4 459.6l-.8-4.6 1.4-.3.8 4.7M-49.7 451.4l-.5-4.6 1.6-.2.4 4.7M-50.4 443.2l-.2-4.6 1.8-.1v4.7M-50.6 435l.2-4.7 1.9.1-.3 4.7M-50.2 426.7l.4-4.6 2.1.2-.6 4.7M-49.3 418.5l.8-4.6 2.2.4-.9 4.6M-47.8 410.4l1.1-4.5 2.3.5-1.2 4.6M-45.7 402.4l1.4-4.4 2.3.7-1.4 4.4M-36.3 379.5l2.2-4.1 2.5 1.4-2.4 4M-32.2 372.3l2.6-3.9 2.4 1.6-2.6 3.9M-27.6 365.4l2.9-3.7 2.4 1.9-2.9 3.7M-22.5 358.9l3.1-3.5 2.4 2.1-3.1 3.5M-16.9 352.7l3.3-3.3 2.3 2.3-3.4 3.3M-11 346.9l3.6-3 2.2 2.5-3.6 3.1M-4.6 341.6l3.7-2.9 2.1 2.9-3.8 2.7M2 336.7s1-.7 1.9-1.3c1-.6 2-1.3 2-1.3l1.9 3.1-2 1.2-2 1.3-1.8-3zM9.1 332.2l4-2.3 1.9 3.3-4.1 2.2M16.4 328.2l4.2-2.1 1.7 3.6-4.3 2M23.9 324.7l4.4-1.8 1.4 3.8-4.3 1.7M31.7 321.7l4.5-1.4 1.2 4-4.5 1.4M39.7 319.3l4.5-1.2 1 4.3-4.5 1M47.8 317.4l4.6-.8.7 4.4-4.6.8M56 316.1l4.7-.5.4 4.6-4.6.4M64.4 315.4l4.6-.2.2 4.7-4.7.1M72.7 315.2l4.7.2-.2 4.7-4.7-.2M81 315.7l4.7.6-.5 4.5-4.7-.5M89.3 316.8l4.6.8-.8 4.5-4.6-.8M97.5 318.4l4.5 1.2-1 4.2-4.6-1.1M105.5 320.6l4.4 1.5-1.2 4-4.5-1.4M113.4 323.4l4.3 1.8-1.5 3.7-4.4-1.7M121 326.7l4.2 2.1-1.6 3.4-4.3-2M128.4 330.5l4 2.4-1.7 3-4.1-2.2M135.5 334.9l3.8 2.6-1.7 2.6-4-2.5M142.2 339.7l3.6 2.9-1.6 2.2-3.8-2.8M148.6 345l3.4 3.1-1.6 1.8-3.5-3M154.6 350.7l3.2 3.4-1.4 1.4-3.4-3.3M160.1 356.8l2.9 3.6-1 1-3.2-3.5M165.2 363.3l2.7 3.8-.8.6-2.9-3.7M169.8 370.2l1.3 2-.4.2-1.4-1.9"/><g><path fill="#1F3749" d="M220 486.2l-.9 2.1-.5-.2 1-2.1M217.5 491.5l-2.1 4.1-.6-.3 2.3-4.1M213.6 498.7l-2.4 4-.7-.5 2.5-3.9M209.2 505.6l-2.7 3.8-.8-.5 2.8-3.8M204.3 512.2l-2.9 3.7-.9-.8 3.1-3.5M199 518.5l-3.2 3.4-.9-.9 3.3-3.3M193.3 524.4l-3.5 3.2-.9-1.1 3.5-3.1M187.1 529.9l-3.6 2.9-1-1.2 3.7-2.9M180.6 535l-3.8 2.6-1-1.4 3.9-2.6M173.8 539.6l-4 2.4-1-1.7 4.1-2.3M166.6 543.7l-4.1 2.1-.9-1.8 4.2-2.1M159.2 547.4l-4.3 1.8-.8-2.1 4.3-1.7M151.6 550.5l-4.4 1.5-.8-2.2 4.5-1.5M143.7 553.1l-4.5 1.2-.6-2.4 4.5-1.1M135.7 555.1l-4.6.9-.4-2.5 4.6-.8M127.6 556.6l-4.6.6-.4-2.7 4.7-.5M119.4 557.6l-4.7.2-.2-2.8 4.7-.2M111.1 557.9h-4.7l.1-2.9 4.6.1M102.8 557.8l-4.7-.4.3-3 4.7.4M94.6 557l-4.7-.7.5-3.1 4.6.7M86.4 555.7l-4.6-1 .7-3.2 4.6 1M78.3 553.8l-4.5-1.3 1-3.3 4.4 1.4M70.3 551.4l-4.4-1.7 1.3-3.2 4.4 1.6M62.6 548.4s-1.1-.5-2.1-.9l-2.2-1 1.5-3.3s1 .5 2.1 1 2.1 1 2.1 1l-1.4 3.2zM55 544.9l-4.1-2.2 1.8-3.3 4.1 2.2M47.7 540.9l-4-2.4 2.1-3.3 4 2.5M40.7 536.5l-3.8-2.7 2.4-3.4 3.8 2.8M34 531.5l-3.6-2.9 2.7-3.3 3.6 3M27.6 526.1l-3.4-3.2 3.1-3.1 3.3 3.2M21.7 520.3l-3.2-3.4 3.3-3.1 3.2 3.5M16.1 514.1l-2.9-3.7 3.6-2.8 2.9 3.7M11 507.5l-2.6-3.9 3.8-2.6 2.6 3.9M6.4 500.5l-2.3-4 3.9-2.4 2.4 4M2.3 493.2l-2-4.2 4-2 2.1 4.2M-1.3 485.7l-1.7-4.3 4.1-1.8 1.8 4.4M-4.3 477.9l-1.5-4.4 4.2-1.4 1.5 4.4M-6.8 470l-1.1-4.6 4-1 1.3 4.5M-8.7 461.9l-.8-4.6 3.9-.8.9 4.6M-10 453.7l-.5-4.7 3.7-.4.6 4.6M-10.8 445.4l-.2-4.7 3.5-.2.3 4.7M-11 437.1l.2-4.7 3.1.1v4.6M-10.6 428.8l.5-4.6 2.8.2-.3 4.7M-9.6 420.6l.8-4.6 2.4.4-.6 4.6M-8 412.5l1.1-4.6 2 .5-.9 4.6M-5.9 404.5l1.5-4.4 1.4.4-1.2 4.5M-3.1 396.7l1.7-4.3.9.3-1.5 4.5M.2 389.1l1-2.1.4.2-.9 2.2"/></g><g><path fill="#1F3749" d="M79.5 288.1l2.3-.3v.5l-2.3.2M85.3 287.6l4.7-.1v.6l-4.7.1M93.5 287.5l4.7.2v.8l-4.7-.3M101.7 287.9l4.7.5-.1 1-4.7-.6M109.9 288.9l4.6.8-.2 1.1-4.6-.9M118 290.5l4.5 1.1-.3 1.2-4.5-1.2M125.9 292.6l4.5 1.4-.5 1.4-4.4-1.6M133.7 295.2l4.4 1.8-.6 1.4-4.3-1.8M141.4 298.4l4.2 2-.8 1.6-4.2-2.1M148.7 302.1l4.1 2.3-1 1.7-4-2.4M155.8 306.3l3.9 2.6-1.1 1.7-3.9-2.7M162.7 310.9l3.7 2.9-1.4 1.7-3.7-2.9M169.1 316.1l3.5 3.1-1.5 1.7-3.5-3.1M175.2 321.6l3.3 3.4-1.7 1.7-3.3-3.4M191.1 340.6l2.6 4-2.4 1.5-2.5-4M195.5 347.7l2.3 4.1-2.6 1.4-2.2-4.2M199.4 355l2 4.2-2.8 1.3-1.9-4.3M202.8 362.5l1.7 4.4-2.9 1.1-1.7-4.4M205.7 370.3l1.4 4.5-3.2.9-1.3-4.5M208 378.3l1.1 4.5-3.3.8-1-4.6M209.8 386.4l.8 4.6-3.5.6-.7-4.7M211 394.6s.1 1.2.2 2.3l.2 2.4-3.6.3s-.1-1.2-.2-2.3c-.1-1.2-.2-2.3-.2-2.3l3.6-.4zM211.7 402.9l.2 4.7-3.8.1-.1-4.7M211.9 411.2l-.2 4.7-4-.2.3-4.7M211.4 419.5l-.5 4.7-4-.5.5-4.6M210.4 427.8l-.8 4.6-4.2-.8.9-4.6M208.8 436l-1.1 4.5-4.2-1.1 1.2-4.5M206.7 444.1l-1.5 4.4-4.2-1.4 1.5-4.5M204 451.9l-1.8 4.4-4.2-1.8 1.8-4.3M200.7 459.6l-2 4.2-4.2-2 2.1-4.2M196.9 467.1l-2.3 4-4-2.3 2.3-4.1M192.6 474.2l-2.6 3.9-3.8-2.6 2.6-3.9M187.8 481l-2.9 3.7-3.5-2.8 2.8-3.7M182.6 487.5l-3.2 3.4-3.2-2.9 3-3.5M176.8 493.5l-3.3 3.3-3-3 3.4-3.3M170.7 499.2l-3.6 3-2.6-3 3.6-3.1M164.2 504.4l-3.8 2.7-2.2-3 3.7-2.8M157.4 509.1l-4 2.5-1.8-2.9 3.9-2.6M150.3 513.4l-4.2 2.1-1.5-2.7 4.1-2.3M142.8 517.1l-4.2 1.8-1.2-2.5 4.2-2M135.2 520.2l-4.4 1.6-.9-2.2 4.4-1.8M127.4 522.9l-4.6 1.2-.5-1.9 4.4-1.4M119.4 524.9l-4.6.9-.4-1.4 4.6-1.2M111.3 526.4l-4.7.6-.1-1 4.6-.8M103 527.3l-2.4.1v-.5l2.3-.3"/></g><circle fill="#1F3749" cx="90.6" cy="428.8" r=".1"/><path fill="#1F3749" d="M-33.7 377.1s-11.4 4.6-15 14.2c-1 2.8-1.7 5.5-2 8h-.2c-.4 0-.7 0-1 .1-.7.1-1.3.4-1.8.7-.5.3-1 .7-1.3 1.1-.7.8-1.2 1.6-1.5 2.5-.7 1.7-.9 3.4-.9 5.1 0 1.7.3 3.3.7 4.8 0-1.6.3-3.2.7-4.6.4-1.5 1.1-2.8 1.9-3.9.4-.5.9-1 1.4-1.2.2-.1.5-.2.6-.2h.5c.1 0 .2.1.2.1.1 0 .1.1.2.1.1.1.2.2.3.4 0 0 .1.1.1.2.1 1.8.5 3.3 1.1 4.6.7 1.5 5.6 3.4 7 2.8s2.7-1.5 4.1-2.9c.2 0 .3-.1.5-.1h.4s.3.1.4.3c.1.1.2.4.3.6.2.5.3 1.1.2 1.8-.1 1.4-.5 2.8-1.1 4.2s-1.5 2.7-2.5 3.9c1.4-.9 2.6-1.9 3.7-3.1s2.1-2.7 2.7-4.4c.3-.9.5-1.8.5-2.9 0-.5-.1-1.1-.3-1.7-.2-.6-.5-1.2-.9-1.7-.2-.3-.4-.5-.7-.7l-.1-.1c1.4-2.1 2.7-4.6 3.8-7.4 3.5-9.7-2-20.6-2-20.6zm-.9 14.4c-.8 2.2-3.3 3.3-5.4 2.5-2.2-.8-3.3-3.3-2.5-5.4.8-2.2 3.2-3.3 5.4-2.5 2.2.8 3.3 3.3 2.5 5.4zM186.9 320.9c-2.6-3.1-5.4-5.7-8.3-7.8.1-.1.1-.2.2-.3.3-.4.4-.8.6-1.3.3-.9.4-1.8.4-2.6s-.2-1.6-.4-2.3c-.5-1.4-1.2-2.5-2-3.5-1.6-2-3.5-3.4-5.5-4.5s-4.1-1.9-6.3-2.4c1.9 1.1 3.6 2.4 5.1 3.9s2.7 3.2 3.4 5c.3.9.5 1.7.5 2.5 0 .4-.1.7-.2.9-.1.2-.2.4-.4.5-.1 0-.2.1-.2.2-.1 0-.2.1-.2.1-.2.1-.4.1-.6.1h-.3c-2.2-1-4.4-1.6-6.3-1.8-2.2-.2-7.8 4.5-8.1 6.6-.2 2 0 4.3.7 6.9-.1.2-.2.4-.2.6 0 .1-.1.2-.1.2 0 .1-.1.1-.2.2s-.3.2-.6.3c-.3.1-.6.1-.9 0-.7-.1-1.6-.5-2.3-.9-1.6-1-3.1-2.5-4.3-4.2-1.2-1.7-2.3-3.6-3-5.7.1 2.2.5 4.4 1.3 6.6.8 2.2 1.8 4.3 3.5 6.2.8.9 1.8 1.8 3.1 2.5.6.3 1.4.6 2.2.8.8.2 1.7.2 2.6 0 .5-.1.9-.2 1.3-.4.1 0 .1 0 .2-.1 1.6 3.1 3.7 6.4 6.3 9.5 9.1 10.8 26 11.6 26 11.6s2.1-16.5-7-27.4zm-1.6 17.5c-2.4 2.1-6.1 1.8-8.2-.7-2.1-2.4-1.8-6.1.7-8.2 2.4-2.1 6.1-1.8 8.2.7s1.8 6.2-.7 8.2zM73 273c0-.2 0-.3-.1-.6 0-.2-.1-.4-.1-.6-.2-.8-.6-1.6-1-2.2-.9-1.3-2-2.3-3.1-3-2.3-1.5-4.6-2.2-6.7-2.7-2.1-.5-3.9-.7-5.4-.7-1.5-.1-2.7 0-3.5 0-.8.1-1.2.1-1.2.1s.4 0 1.2.1 1.9.2 3.4.4c1.4.3 3.2.6 5.1 1.3 1.9.6 4 1.5 5.9 3 .9.7 1.8 1.6 2.4 2.6.3.5.5 1.1.6 1.6 0 .1 0 .3.1.4v1.4c-.2 2.5-1.8 5-4 7-2.2 2.1-4.9 3.6-7.9 4.9-2.9 1.2-6.1 2.2-9.2 2.5-3.2.3-6.6.2-9.4-.6-1.4-.4-2.7-1.1-3.5-2-.8-.9-1-1.9-.6-2.9v-.1l.1-.2c.1-.2.2-.4.3-.5.1-.1.1-.2.2-.3l.3-.4c.3-.4.7-.8 1.2-1.1-.2.4-.3.9-.4 1.4v.8l.1.4.1.4c.4 1.3 1.2 2 2 2.5 1.6 1 3.3 1.3 5.1 1.4 1.7.1 3.5 0 5.2-.3.4-.1.9-.2 1.3-.3.5-.1.9-.2 1.4-.4.9-.3 1.8-.6 2.6-1 1.8-.8 3.4-1.7 5-3.1.8-.7 1.6-1.4 2.2-2.4.7-.9 1.2-2.1 1.3-3.5.1-.7 0-1.4-.2-2l-.1-.2-.1-.3-.1-.3c-.1-.3-.3-.7-.5-.9-.7-1.1-1.7-1.9-2.7-2.6-2-1.2-4.2-1.8-6.4-2-4.3-.5-8.7.1-12.7 1.4-4.1 1.2-8.1 3.1-11.3 5.9-1.6 1.4-3 3.1-4.1 5-1 1.9-1.6 4.1-1.5 6.3.1 2.2.9 4.3 2.2 5.9 1.3 1.7 2.8 2.9 4.4 3.8 3.2 1.9 6.5 2.9 9.6 3.4 6.2 1.1 11.4.8 15 .5 1.8-.1 3.2-.4 4.2-.5.9-.2 1.5-.3 1.5-.3s-.5 0-1.5.1c-1 0-2.4.1-4.2.1s-4-.1-6.4-.3c-2.5-.3-5.2-.6-8.2-1.3-2.9-.8-6-1.8-8.9-3.6-1.4-.9-2.7-2-3.6-3.3-1-1.4-1.5-3-1.6-4.6-.1-3.3 2-6.7 4.9-9.1s6.6-4.1 10.3-5.1c3.8-1.1 7.8-1.5 11.5-1 1.8.3 3.6.8 5 1.7 1.4.9 2.1 2.1 1.9 3.2-.1.7-.5 1.5-1.2 2.3v-.5-1c-.2-.7-.6-1.4-1.1-1.9s-1.1-.9-1.7-1.2c-2.4-1.1-5-1.2-7.7-1-1.3.1-2.8.4-4.2.7-1.5.4-2.9 1-4.2 1.7-1.4.7-2.8 1.5-4.1 2.6-.7.5-1.3 1.1-1.9 1.8l-.4.5-.4.7c-.2.2-.2.4-.3.6l-.1.3c-.1.2 0 .1-.1.1v.1l-.1.2c-.4 1-.5 2.1-.3 3.2s.8 2.1 1.4 2.9c1.4 1.6 3.2 2.5 4.9 3 3.6 1 7.1 1 10.6.7 3.6-.4 7-1.5 10.1-2.9 3.1-1.5 6.1-3.3 8.5-5.6 1.2-1.2 2.3-2.5 3.1-4s1.4-3.1 1.4-4.8c.4-.8.4-1.3.4-1.7z"/><g><g fill="#1F3749"><path d="M271 440.8c-1.1.6-2.6 1.4-4.5 2.3s-4.1 2-6.5 3.1c-1.2.5-2.4 1.1-3.7 1.7-1.3.6-2.6 1.1-3.9 1.6-2.7 1-5.6 1.6-8.2 2.2l-3.9.9c-1.2.3-2.4.5-3.5.7-2.2.4-4 .7-5.3.9-1.3.2-2.1.3-2.1.3-2.7.3-5.4 1.7-7.1 4.1-3.2 4.5-2.2 10.8 2.3 14 4.5 3.2 10.8 2.2 14-2.3 0 0 .4-.6 1.3-1.6.8-1 2-2.5 3.4-4.2.7-.9 1.5-1.7 2.4-2.7.8-1 1.7-1.9 2.7-2.9 1.9-2 3.8-4.2 6-6.1 1.1-.9 2.2-1.8 3.3-2.6l3.3-2.4c2.1-1.5 4.2-3 5.9-4.1 1.7-1.2 3.2-2.2 4.1-2.9 1.1-.6 1.7-.9 1.7-.9s-.6.3-1.7.9zm-35.6 23.9c.3.8.3 2.1-.3 3.1-.8 1.2-2.1 1.6-3.3 2.2-.9.5-1.4.4-2.1.2-1.3-.5-2.9-1-3.7-2.2-.4-.5-.2-1.2-.2-1.9 0-.9-.5-1.6-.4-2.5.1-.7.7-1.2 1-1.8s.1-1.4.7-2c.5-.5 1.2-.6 1.7-1.2.7-.9 1.8-2.1 2.7-1.2.3.3 2.7 1.6 3.5 1.8.8.2 1.1 1.4.6 2-.7.6-.6 2.6-.2 3.5z"/><path d="M230.5 459.8c-.5 1.1-.7.7-1.7.9.1.4.8 1.8 1.4 1.6.5-.2 1.5-1.7 1.4-2-.2-.2-1-.8-1.1-.5zM226.9 463.8c-.1 0-.3.1-.4.2.3-.4.6 1.4.6 1.5 0 .4 0 1.4.4 1.6.5.2.5-.8.8-1.8.4-.6-.7-1.5-1.4-1.5zM233.9 464.7c-.2-.1-.5 0-.7.1s-.4.2-.5.3c-.3.4-1 1.9-.5 2.3.4.3 1.4-.2 1.7-.6.3-.6-.3-.8-.3-1.2-.1-.4.2-.6.3-.9z"/></g></g><path fill="#1F3749" d="M258 375c.2-3.8-1.7-7.6-5.2-9.4s-7.7-1.1-10.6 1.3c-3.9-1.5-7.2-2.4-9.1-2.4-1.3 0-2.1.4-2.5 1.1-.7 1.4.5 3.3 4.1 6 1.1.8 2.4 1.7 3.8 2.6-.2 3.8 1.7 7.6 5.2 9.4 3.5 1.8 7.7 1.1 10.6-1.3 3.9 1.5 7.2 2.4 9.1 2.4 1.3 0 2.1-.4 2.5-1.1 1.2-2.3-3.3-5.8-7.9-8.6zm-25.2-8.2h.3c1.3 0 3.9.6 7.5 2-.3.5-.7 1-.9 1.5-.3.5-.5 1.1-.7 1.6-3.7-2.4-5.7-4.2-6.2-5.1zm30.7 15.6c-1.3 0-3.9-.6-7.5-2 .3-.5.7-1 .9-1.5.3-.5.5-1.1.7-1.6 3.6 2.4 5.6 4.2 6.2 5.1h-.3z"/></g><path fill="#03709C" d="M2.9 329.2c-1.1-.7-4.1 1.7-7.3 5.7l-4.8.3h-.1c-.1 0-.3.1-.5.4-.2-.1-.7-.5-.9-.5-.1-.1-.4.1-.6.4-.2.3-.2.6-.1.7l.8.5c-.1.3-.2.5-.1.5 0 0 0 .1.1.1l1.6 4.2c-2.9 4.8-4.3 8.9-3.2 9.7.2.1.3.1.6.1 2.5.1 6.5-1.1 9.8-3.5.8.3 1.6.4 2.4.4l1.8 2.6.5-.2.7 1 .4-.2.2 2.9.5-.4-.1-1.9.9 1.4 2.8-1.8-1-1.5 1.9.9.5-.4-2.7-1.4.4-.3-.7-1.1.4-.3-3-5c-.1 0-.9-.3-1.2-.4 2.2-4.5 1.8-9.5.2-12.7 0-.1-.1-.2-.2-.2zM-8 339.8c-.2.3-.4.7-.6 1l-1.1-2.8.1-.5.1-.1h.1c.2.5.8 1.4 1.4 2.4zm9.9 4.1l.8.2-.3 1.6-1.6-.3c.3-.3.6-.7.9-1.1 0-.2.1-.3.2-.4zM-.9 347c.1-.1.3-.2.4-.3l.3.5c-.2-.1-.5-.1-.7-.2zm-6.2-8.6l-.6.9-1.4-2.2c.2-.1.3-.2.4-.3.1-.1.1-.2.1-.3l2.4.7c-.4.4-.6.8-.9 1.2zm-1.6-2.2v-.2c.1-.1.4-.3.4-.3l3.5-.2c-.4.5-.7 1-1.1 1.5l-2.8-.8zm10 10.9L.2 346l.4-.4 1.8.3-.2 1c-.4.1-.6.2-.9.2zm2.5.8l-1 .7-.6-.6c.5-.1 1.1-.3 1.6-.6v.5zm-.3-1.6c-.4.2-.7.4-1.1.5l.2-.8.9.2v.1zm0-.5l-.8-.1.3-1.5h.2l.3 1.6z"/><circle fill="#03709C" cx="76.4" cy="413.8" r="95.3"/><g opacity=".7"><path fill="#8AA25E" d="M123.8 583h-2.3v-1.1h2.2l.1 1.1zm3.4 0v-1.1c.7 0 1.5 0 2.2-.1v1.1c-.7.1-1.5.1-2.2.1zm-9-.1c-.8 0-1.5-.1-2.3-.1l.1-1.1c.7 0 1.5.1 2.2.1v1.1zm14.6-.1l-.1-1.1c.7 0 1.5-.1 2.2-.2l.1 1.1c-.7.1-1.4.1-2.2.2zm-20.3-.3c-.8-.1-1.5-.1-2.2-.2l.1-1.1c.7.1 1.5.1 2.2.2l-.1 1.1zm25.9-.2l-.1-1.1c.7-.1 1.5-.2 2.2-.3l.1 1.1c-.7.1-1.4.2-2.2.3zm-31.5-.4c-.7-.1-1.5-.2-2.2-.3l.2-1.1c.7.1 1.5.2 2.2.3l-.2 1.1zm37.1-.3l-.2-1.1c.7-.1 1.5-.2 2.2-.3l.2 1.1c-.7.1-1.4.2-2.2.3zm-42.7-.6c-.7-.1-1.5-.3-2.2-.4l.2-1.1c.7.1 1.5.3 2.2.4l-.2 1.1zm48.3-.4l-.2-1.1c.7-.1 1.5-.3 2.2-.4l.2 1.1c-.7.1-1.5.3-2.2.4zm-53.8-.7c-.7-.2-1.5-.3-2.2-.5l.3-1.1c.7.2 1.5.3 2.2.5l-.3 1.1zm59.3-.5l-.3-1.1c.7-.2 1.5-.4 2.2-.5l.3 1.1c-.7.2-1.5.4-2.2.5zm-64.8-.8c-.7-.2-1.5-.4-2.2-.6l.3-1.1c.7.2 1.4.4 2.2.6l-.3 1.1zm70.3-.6l-.3-1.1 2.1-.6.3 1.1-2.1.6zm-75.7-.9c-.7-.2-1.4-.5-2.2-.7l.4-1.1c.7.2 1.4.5 2.1.7l-.3 1.1zm81.1-.7l-.4-1.1c.7-.2 1.4-.5 2.1-.7l.4 1.1c-.7.2-1.4.4-2.1.7zm-86.5-1.1c-.7-.3-1.4-.5-2.1-.8l.4-1.1c.7.3 1.4.5 2.1.8l-.4 1.1zm91.8-.8l-.4-1.1c.7-.3 1.4-.5 2.1-.8l.4 1-2.1.9zm-97.1-1.3l-2.1-.9.4-1 2.1.9-.4 1zm102.3-.8l-.4-1c.7-.3 1.4-.6 2-.9l.5 1-2.1.9zM69.1 571c-.7-.3-1.4-.6-2-1l.5-1c.7.3 1.4.6 2 1l-.5 1zm112.5-.9l-.5-1c.7-.3 1.3-.6 2-1l.5 1c-.6.3-1.3.6-2 1zM64 568.5c-.7-.3-1.3-.7-2-1l.5-1c.7.4 1.3.7 2 1l-.5 1zm122.6-1l-.5-1c.7-.4 1.3-.7 2-1.1l.5 1c-.6.4-1.3.8-2 1.1zM59 565.8c-.7-.4-1.3-.8-2-1.1l.6-1c.6.4 1.3.8 1.9 1.1l-.5 1zm132.6-1l-.6-1c.6-.4 1.3-.8 1.9-1.1l.6 1c-.7.3-1.3.7-1.9 1.1zm-137.5-1.9c-.6-.4-1.3-.8-1.9-1.2l.6-.9c.6.4 1.3.8 1.9 1.2l-.6.9zm142.2-1.1l-.6-.9c.6-.4 1.2-.8 1.9-1.2l.6.9c-.6.4-1.2.8-1.9 1.2zm-146.9-2c-.6-.4-1.2-.9-1.9-1.3l.7-.9c.6.4 1.2.9 1.8 1.3l-.6.9zm151.6-1.2l-.7-.9c.6-.4 1.2-.9 1.8-1.3l.7.9c-.6.5-1.2.9-1.8 1.3zm-156.2-2.1c-.6-.5-1.2-.9-1.8-1.4l.7-.9c.6.5 1.2.9 1.8 1.4l-.7.9zm160.7-1.2l-.7-.9c.6-.5 1.2-.9 1.8-1.4l.7.9c-.6.5-1.2.9-1.8 1.4zM40.4 553c-.6-.5-1.2-1-1.7-1.4l.7-.9c.6.5 1.1 1 1.7 1.4l-.7.9zm169.5-1.3l-.7-.9c.6-.5 1.1-1 1.7-1.5l.7.8c-.5.7-1.1 1.1-1.7 1.6zm-173.8-2.3c-.6-.5-1.1-1-1.7-1.5l.8-.8c.5.5 1.1 1 1.7 1.5l-.8.8zm178-1.4l-.8-.8c.5-.5 1.1-1 1.6-1.5l.8.8c-.5.5-1 1-1.6 1.5zM32 545.5l-1.6-1.6.8-.8 1.6 1.6-.8.8zm186.2-1.4l-.8-.8c.5-.5 1-1.1 1.6-1.6l.8.8-1.6 1.6zM28 541.5c-.5-.5-1-1.1-1.5-1.7l.8-.8c.5.6 1 1.1 1.5 1.6l-.8.9zm194.1-1.5l-.8-.8c.5-.6 1-1.1 1.5-1.7l.8.7c-.5.7-1 1.3-1.5 1.8zm-197.9-2.7c-.5-.6-1-1.1-1.5-1.7l.9-.7c.5.6 1 1.1 1.5 1.7l-.9.7zm201.6-1.5l-.9-.7c.5-.6 1-1.1 1.4-1.7l.9.7c-.4.5-.9 1.1-1.4 1.7zM20.6 533c-.5-.6-.9-1.2-1.4-1.8l.9-.7c.5.6.9 1.2 1.4 1.8l-.9.7zm208.8-1.6l-.9-.7c.5-.6.9-1.2 1.4-1.8l.9.7c-.5.6-1 1.2-1.4 1.8zm-212.2-2.9c-.4-.6-.9-1.2-1.3-1.8l.9-.6c.4.6.9 1.2 1.3 1.8l-.9.6zm215.5-1.7l-.9-.6c.4-.6.9-1.2 1.3-1.8l.9.6c-.4.6-.8 1.2-1.3 1.8zM14 523.9c-.4-.6-.8-1.3-1.2-1.9l.9-.6c.4.6.8 1.2 1.2 1.9l-.9.6zm221.9-1.8l-.9-.6c.4-.6.8-1.3 1.2-1.9l1 .6c-.5.7-.9 1.3-1.3 1.9zm-224.9-3c-.4-.6-.8-1.3-1.2-1.9l1-.6c.4.6.8 1.3 1.1 1.9l-.9.6zm227.8-1.8l-1-.6c.4-.6.7-1.3 1.1-1.9l1 .6c-.3.6-.7 1.3-1.1 1.9zm-230.7-3c-.4-.7-.7-1.3-1.1-2l1-.5c.3.7.7 1.3 1.1 2l-1 .5zm233.5-1.9l-1-.5c.3-.7.7-1.3 1-2l1 .5c-.3.7-.7 1.3-1 2zM5.5 509.3c-.3-.7-.7-1.3-1-2l1-.5c.3.7.6 1.3 1 2l-1 .5zm238.6-2l-1-.5c.3-.7.6-1.4.9-2l1 .5c-.2.7-.5 1.4-.9 2zm-241-3.1l-.9-2.1 1-.4c.3.7.6 1.4.9 2l-1 .5zm243.3-2l-1-.4.9-2.1 1 .4-.9 2.1zM1 499c-.3-.7-.5-1.4-.8-2.1l1.1-.4c.3.7.5 1.4.8 2.1L1 499zm247.5-2.1l-1.1-.4c.3-.7.5-1.4.8-2.1l1.1.4c-.2.7-.5 1.4-.8 2.1zM-1 493.7c-.2-.7-.5-1.4-.7-2.1l1.1-.3c.2.7.5 1.4.7 2.1l-1.1.3zm251.4-2.1l-1.1-.3c.2-.7.5-1.4.7-2.1l1.1.3c-.2.6-.5 1.4-.7 2.1zm-253.1-3.3c-.2-.7-.4-1.4-.6-2.2l1.1-.3c.2.7.4 1.4.6 2.2l-1.1.3zm254.7-2.1l-1.1-.3c.2-.7.4-1.4.6-2.2l1.1.3c-.2.7-.3 1.4-.6 2.2zm-256.2-3.3c-.2-.7-.4-1.5-.5-2.2l1.1-.3c.2.7.3 1.5.5 2.2l-1.1.3zm257.6-2.2l-1.1-.3c.2-.7.3-1.5.5-2.2l1.1.2c-.1.8-.3 1.6-.5 2.3zm-258.8-3.3c-.2-.7-.3-1.5-.4-2.2l1.1-.2c.1.7.3 1.5.4 2.2l-1.1.2zm260-2.2l-1.1-.2c.1-.7.3-1.5.4-2.2l1.1.2c-.1.7-.2 1.4-.4 2.2zm-261.1-3.4c-.1-.7-.2-1.5-.3-2.2l1.1-.2c.1.7.2 1.5.3 2.2l-1.1.2zm262-2.2l-1.1-.2c.1-.7.2-1.5.3-2.2l1.1.1c-.1.8-.2 1.6-.3 2.3zm-262.8-3.4c-.1-.7-.2-1.5-.2-2.2l1.1-.1c.1.7.2 1.5.2 2.2l-1.1.1zm263.5-2.2l-1.1-.1c.1-.7.1-1.5.2-2.2l1.1.1c0 .7-.1 1.5-.2 2.2zm-264-3.4c-.1-.7-.1-1.5-.2-2.3l1.1-.1c0 .7.1 1.5.1 2.2l-1 .2zm264.5-2.2l-1.1-.1c0-.7.1-1.5.1-2.2h1.1c0 .8-.1 1.5-.1 2.3zM-8.1 455c0-.7 0-1.5-.1-2.3h1.1c0 .7 0 1.5.1 2.2l-1.1.1zm265-2.1l-1.1.1v-2.2h1.1v2.1zm-1.1-3.5v-2.2h1.1v2.3l-1.1-.1zm-262.8 0h-1.1v-2.3H-7v2.3zm262.6-5.6c0-.7-.1-1.5-.1-2.2l1.1-.1c.1.7.1 1.5.1 2.3h-1.1zm-262.5 0l-1.1-.1c0-.8.1-1.5.1-2.3l1.1.1c0 .8 0 1.5-.1 2.3zm262.1-5.6c-.1-.7-.1-1.5-.2-2.2l1.1-.1c.1.7.2 1.5.2 2.2l-1.1.1zm-261.7 0l-1.1-.1c.1-.7.1-1.5.2-2.2l1.1.1c0 .7-.1 1.4-.2 2.2zm261.1-5.5c-.1-.7-.2-1.5-.3-2.2l1.1-.2c.1.7.2 1.5.3 2.2l-1.1.2zm-260.5-.1l-1.1-.2c.1-.7.2-1.5.3-2.2l1.1.2c0 .8-.2 1.5-.3 2.2zm259.6-5.5c-.1-.7-.3-1.5-.4-2.2l1.1-.2c.1.7.3 1.5.4 2.2l-1.1.2zm-258.7 0l-1.1-.2c.1-.7.3-1.5.4-2.2l1.1.2c-.1.7-.2 1.5-.4 2.2zm257.6-5.5c-.2-.7-.3-1.5-.5-2.2l1.1-.3c.2.7.3 1.5.5 2.2l-1.1.3zm-256.5 0l-1.1-.2c.2-.7.3-1.5.5-2.2l1.1.3c-.1.7-.3 1.4-.5 2.1zm255.2-5.4c-.2-.7-.4-1.4-.6-2.2l1.1-.3c.2.7.4 1.4.6 2.2l-1.1.3zm-253.8 0l-1.1-.3c.2-.7.4-1.5.6-2.2l1.1.3c-.2.8-.4 1.5-.6 2.2zm252.2-5.4c-.2-.7-.5-1.4-.7-2.1l1.1-.4c.2.7.5 1.4.7 2.1l-1.1.4zm-250.7 0l-1.1-.3c.2-.7.5-1.4.7-2.2l1.1.4c-.2.7-.4 1.4-.7 2.1zm248.9-5.3c-.3-.7-.5-1.4-.8-2.1l1-.4c.3.7.5 1.4.8 2.1l-1 .4zm-247.1 0l-1.1-.4c.3-.7.5-1.4.8-2.1l1 .4c-.1.7-.4 1.4-.7 2.1zm245.1-5.2l-.9-2.1 1-.4.9 2.1-1 .4zm-243 0l-1-.4.9-2.1 1 .4-.9 2.1zm240.7-5.1c-.3-.7-.6-1.3-1-2l1-.5c.3.7.6 1.4 1 2l-1 .5zm-238.5-.1l-1-.5c.3-.7.6-1.4 1-2l1 .5c-.3.7-.6 1.4-1 2zm236.1-4.9c-.3-.7-.7-1.3-1-2l1-.5c.4.7.7 1.3 1.1 2l-1.1.5zm-233.6-.1l-1-.5c.3-.7.7-1.3 1.1-2l1 .5c-.4.7-.7 1.3-1.1 2zm230.9-4.8c-.4-.6-.7-1.3-1.1-1.9l1-.6c.4.6.8 1.3 1.1 1.9l-1 .6zm-228.2-.1l-1-.6c.4-.7.8-1.3 1.1-2l1 .6c-.4.7-.7 1.3-1.1 2zm225.3-4.7c-.4-.6-.8-1.3-1.2-1.9l.9-.6c.4.6.8 1.3 1.2 1.9l-.9.6zm-222.4-.1l-1-.6c.4-.6.8-1.3 1.2-1.9l.9.6c-.3.6-.7 1.3-1.1 1.9zm219.4-4.5c-.4-.6-.9-1.2-1.3-1.8l.9-.7c.4.6.9 1.2 1.3 1.8l-.9.7zm-216.3-.2l-.9-.6c.4-.6.9-1.2 1.3-1.8l.9.7c-.5.5-.9 1.1-1.3 1.7zm213-4.4c-.4-.6-.9-1.2-1.4-1.8l.9-.7c.5.6.9 1.2 1.4 1.8l-.9.7zm-209.7-.1l-.9-.7c.5-.6.9-1.2 1.4-1.8l.9.7c-.5.6-1 1.2-1.4 1.8zm206.2-4.2c-.5-.6-1-1.1-1.4-1.7l.9-.7c.5.6 1 1.1 1.4 1.7l-.9.7zM23 366.8l-.9-.7c.5-.6 1-1.2 1.5-1.7l.9.7c-.5.5-1 1.1-1.5 1.7zm199.2-4.1c-.5-.6-1-1.1-1.5-1.7l.8-.8c.5.6 1 1.1 1.5 1.7l-.8.8zm-195.5-.1l-.8-.8c.5-.6 1-1.1 1.5-1.7l.8.8c-.5.6-1 1.1-1.5 1.7zm191.6-4c-.5-.5-1-1.1-1.6-1.6l.8-.8 1.6 1.6-.8.8zm-187.8-.1l-.8-.8 1.6-1.6.8.8-1.6 1.6zm183.9-3.8c-.5-.5-1.1-1-1.6-1.5l.8-.8c.6.5 1.1 1 1.7 1.5l-.9.8zm-179.9-.1l-.8-.8c.5-.5 1.1-1 1.7-1.5l.8.8c-.6.5-1.1 1-1.7 1.5zm175.7-3.6c-.6-.5-1.1-1-1.7-1.4l.7-.9c.6.5 1.2 1 1.7 1.5l-.7.8zm-171.5-.2l-.7-.9c.6-.5 1.1-1 1.7-1.5l.7.9c-.6.6-1.1 1-1.7 1.5zm167.2-3.4c-.6-.5-1.2-.9-1.8-1.4l.7-.9c.6.5 1.2.9 1.8 1.4l-.7.9zM43 347.3l-.7-.9c.6-.5 1.2-.9 1.8-1.4l.7.9c-.6.5-1.2.9-1.8 1.4zm158.4-3.3c-.6-.4-1.2-.9-1.8-1.3l.6-.9c.6.4 1.2.9 1.8 1.3l-.6.9zm-153.9-.1l-.7-.9c.6-.4 1.2-.9 1.8-1.3l.6.9c-.5.4-1.1.9-1.7 1.3zm149.3-3.1c-.6-.4-1.2-.8-1.9-1.2l.6-.9c.6.4 1.3.8 1.9 1.2l-.6.9zm-144.7-.1l-.6-.9c.6-.4 1.3-.8 1.9-1.2l.6.9c-.7.4-1.3.8-1.9 1.2zm140-2.9c-.6-.4-1.3-.8-1.9-1.1l.6-1c.7.4 1.3.8 1.9 1.2l-.6.9zm-135.3 0l-.6-1c.6-.4 1.3-.8 1.9-1.1l.6 1c-.6.3-1.3.7-1.9 1.1zm130.4-2.8c-.7-.4-1.3-.7-2-1.1l.5-1c.7.4 1.3.7 2 1.1l-.5 1zm-125.6 0l-.5-1c.7-.4 1.3-.7 2-1.1l.5 1c-.7.4-1.3.7-2 1.1zm120.6-2.5c-.7-.3-1.3-.7-2-1l.5-1c.7.3 1.4.6 2 1l-.5 1zm-115.6-.1l-.5-1c.7-.3 1.3-.7 2-1l.5 1c-.7.4-1.3.7-2 1zm110.6-2.3l-2.1-.9.4-1 2.1.9-.4 1zm-105.6 0l-.5-1 2.1-.9.4 1c-.6.3-1.3.6-2 .9zM172 328c-.7-.3-1.4-.5-2.1-.8l.4-1.1c.7.3 1.4.5 2.1.8l-.4 1.1zm-95.2-.1l-.4-1c.7-.3 1.4-.5 2.1-.8l.4 1.1c-.7.2-1.4.5-2.1.7zm5.3-1.9l-.4-1.1c.7-.2 1.4-.5 2.1-.7l.3 1.1c-.6.3-1.3.5-2 .7zm79.3-1.7c-.7-.2-1.4-.4-2.2-.6l.3-1.1c.7.2 1.5.4 2.2.6l-.3 1.1zm-74 0l-.3-1.1c.7-.2 1.4-.4 2.2-.6l.3 1.1c-.8.2-1.5.4-2.2.6zm68.6-1.4c-.7-.2-1.4-.4-2.2-.5l.3-1.1c.7.2 1.5.3 2.2.5l-.3 1.1zm-63.2 0l-.3-1.1c.7-.2 1.5-.4 2.2-.5l.2 1.1c-.7.1-1.4.3-2.1.5zm57.7-1.2c-.7-.1-1.5-.3-2.2-.4l.2-1.1c.7.1 1.5.3 2.2.4l-.2 1.1zm-52.3 0l-.2-1.1c.7-.1 1.5-.3 2.2-.4l.2 1.1c-.7.1-1.4.2-2.2.4zm46.8-1c-.7-.1-1.5-.2-2.2-.3l.2-1.1c.7.1 1.5.2 2.2.3l-.2 1.1zm-41.2 0l-.2-1.1c.7-.1 1.5-.2 2.2-.3l.2 1.1c-.8.1-1.5.2-2.2.3zm35.6-.8c-.7-.1-1.5-.2-2.2-.2l.1-1.1c.8.1 1.5.2 2.2.2l-.1 1.1zm-30.1 0l-.1-1.1c.7-.1 1.5-.2 2.2-.2l.1 1.1c-.7.1-1.5.1-2.2.2zm24.6-.5c-.7-.1-1.5-.1-2.2-.1l.1-1.1c.8 0 1.5.1 2.3.1l-.2 1.1zm-19 0l-.1-1.1c.7-.1 1.5-.1 2.3-.1l.1 1.1c-.8 0-1.6.1-2.3.1zm13.4-.3h-2.2V318h2.3l-.1 1.1zm-7.8 0V318h2.3v1.1h-2.3z"/><path fill="#1498C8" d="M24 516.9h-2.3v-1.1h2.2l.1 1.1zm3.4-.1v-1.1c.7 0 1.5 0 2.2-.1v1.1c-.7.1-1.5.1-2.2.1zm-9.1-.1c-.8 0-1.5-.1-2.3-.1l.1-1.1c.7 0 1.5.1 2.2.1v1.1zm14.7-.1l-.1-1.1c.7 0 1.5-.1 2.2-.2l.1 1.1c-.7.1-1.5.1-2.2.2zm-20.3-.3c-.8-.1-1.5-.1-2.2-.2l.1-1.1c.7.1 1.5.1 2.2.2l-.1 1.1zm25.9-.2l-.1-1.1c.7-.1 1.5-.2 2.2-.3l.1 1.1c-.7.2-1.4.2-2.2.3zm-31.5-.4c-.7-.1-1.5-.2-2.2-.3l.2-1.1c.7.1 1.5.2 2.2.3l-.2 1.1zm37.1-.3l-.2-1.1c.7-.1 1.5-.2 2.2-.3l.2 1.1c-.7.1-1.4.2-2.2.3zm-42.7-.5c-.7-.1-1.5-.3-2.2-.4l.2-1.1c.7.1 1.5.3 2.2.4l-.2 1.1zm48.3-.4l-.2-1.1c.7-.1 1.5-.3 2.2-.4l.2 1.1c-.8.1-1.5.2-2.2.4zm-53.8-.7c-.7-.2-1.5-.3-2.2-.5l.3-1.1c.7.2 1.5.3 2.2.5l-.3 1.1zm59.3-.5l-.3-1.1c.7-.2 1.5-.4 2.2-.5l.3 1.1c-.8.1-1.5.3-2.2.5zm-64.8-.9c-.7-.2-1.5-.4-2.2-.6l.3-1.1c.7.2 1.4.4 2.2.6l-.3 1.1zm70.2-.6l-.3-1.1 2.1-.6.3 1.1c-.6.2-1.3.4-2.1.6zm-75.6-.9c-.7-.2-1.4-.5-2.2-.7l.4-1.1c.7.2 1.4.5 2.1.7l-.3 1.1zm81-.7l-.4-1.1c.7-.2 1.4-.5 2.1-.7l.4 1.1c-.6.2-1.3.5-2.1.7zm-86.4-1.1c-.7-.3-1.4-.5-2.1-.8l.4-1.1c.7.3 1.4.5 2.1.8l-.4 1.1zm91.8-.8l-.4-1.1c.7-.3 1.4-.5 2.1-.8l.4 1c-.7.4-1.4.6-2.1.9zm5.2-2.1l-.4-1c.7-.3 1.4-.6 2-.9l.5 1-2.1.9zm-107.5-1.4c-.7-.3-1.4-.6-2-1l.5-1c.7.3 1.4.6 2 1l-.5 1zm112.6-.9l-.5-1c.7-.3 1.3-.6 2-1l.5 1c-.6.3-1.3.7-2 1zm-117.7-1.6c-.7-.3-1.3-.7-2-1l.5-1c.7.4 1.3.7 2 1l-.5 1zm122.7-1l-.5-1c.7-.4 1.3-.7 2-1.1l.5 1c-.7.4-1.3.8-2 1.1zm-127.6-1.7c-.7-.4-1.3-.8-2-1.1l.6-1c.6.4 1.3.8 1.9 1.1l-.5 1zm132.5-1l-.6-1c.6-.4 1.3-.8 1.9-1.1l.6 1c-.6.3-1.2.7-1.9 1.1zm-137.4-1.9c-.6-.4-1.3-.8-1.9-1.2l.6-.9c.6.4 1.3.8 1.9 1.2l-.6.9zm142.2-1.1l-.6-.9c.6-.4 1.2-.8 1.9-1.2l.6.9c-.6.4-1.2.8-1.9 1.2zm-146.9-2c-.6-.4-1.2-.9-1.9-1.3l.7-.9c.6.4 1.2.9 1.8 1.3l-.6.9zm151.6-1.1l-.7-.9c.6-.4 1.2-.9 1.8-1.3l.7.9c-.6.4-1.2.8-1.8 1.3zM-55 490.3c-.6-.5-1.2-.9-1.8-1.4l.7-.9c.6.5 1.2.9 1.8 1.4l-.7.9zm160.7-1.2l-.7-.9c.6-.5 1.2-.9 1.8-1.4l.7.9c-.6.5-1.2.9-1.8 1.4zm-165.1-2.2c-.6-.5-1.2-1-1.7-1.4l.7-.9c.6.5 1.1 1 1.7 1.4l-.7.9zm169.5-1.3l-.7-.9c.6-.5 1.1-1 1.7-1.5l.7.8c-.6.6-1.1 1.1-1.7 1.6zm-173.8-2.4c-.6-.5-1.1-1-1.7-1.5l.8-.8c.5.5 1.1 1 1.7 1.5l-.8.8zm178-1.4l-.8-.8c.5-.5 1.1-1 1.6-1.5l.8.8c-.5.5-1 1-1.6 1.5zm-182.2-2.5l-1.6-1.6.8-.8 1.6 1.6-.8.8zm186.3-1.4l-.8-.8c.5-.5 1-1.1 1.6-1.6l.8.8c-.6.5-1.1 1.1-1.6 1.6zm-190.2-2.6c-.5-.5-1-1.1-1.5-1.7l.8-.8c.5.6 1 1.1 1.5 1.6l-.8.9zm194.1-1.5l-.8-.8c.5-.6 1-1.1 1.5-1.7l.8.7c-.5.7-1 1.3-1.5 1.8zm-197.9-2.7c-.5-.6-1-1.1-1.5-1.7l.9-.7c.5.6 1 1.1 1.5 1.7l-.9.7zm201.6-1.5l-.9-.7c.5-.6 1-1.1 1.4-1.7l.9.7c-.4.5-.9 1.1-1.4 1.7zm-205.2-2.8c-.5-.6-.9-1.2-1.4-1.8l.9-.7c.5.6.9 1.2 1.4 1.8l-.9.7zm208.7-1.6l-.9-.7c.5-.6.9-1.2 1.4-1.8l.9.7c-.4.6-.9 1.2-1.4 1.8zm-212.1-2.9c-.4-.6-.9-1.2-1.3-1.8l.9-.6c.4.6.9 1.2 1.3 1.8l-.9.6zm215.5-1.6l-.9-.6c.4-.6.9-1.2 1.3-1.8l.9.6c-.4.5-.9 1.1-1.3 1.8zm-218.7-3c-.4-.6-.8-1.3-1.2-1.9l.9-.6c.4.6.8 1.2 1.2 1.9l-.9.6zm221.9-1.7l-.9-.6c.4-.6.8-1.3 1.2-1.9l1 .6c-.5.6-.9 1.2-1.3 1.9zm-225-3c-.4-.6-.8-1.3-1.2-1.9l1-.6c.4.6.8 1.3 1.1 1.9l-.9.6zm227.9-1.8l-1-.6c.4-.6.7-1.3 1.1-1.9l1 .6c-.3.5-.7 1.2-1.1 1.9zm-230.7-3.1c-.4-.7-.7-1.3-1.1-2l1-.5c.3.7.7 1.3 1.1 2l-1 .5zm233.5-1.9l-1-.5c.3-.7.7-1.3 1-2l1 .5c-.3.7-.7 1.3-1 2zm-236.1-3.1c-.3-.7-.7-1.3-1-2l1-.5c.3.7.6 1.3 1 2l-1 .5zm238.6-1.9l-1-.5c.3-.7.6-1.4.9-2l1 .5c-.3.6-.6 1.3-.9 2zm-241-3.2l-.9-2.1 1-.4c.3.7.6 1.4.9 2l-1 .5zm243.3-2l-1-.4.9-2.1 1 .4-.9 2.1zm-245.5-3.2c-.3-.7-.5-1.4-.8-2.1l1.1-.4c.3.7.5 1.4.8 2.1l-1.1.4zm247.6-2.1l-1.1-.4c.3-.7.5-1.4.8-2.1l1.1.4c-.3.7-.5 1.4-.8 2.1zm-249.5-3.2c-.2-.7-.5-1.4-.7-2.1l1.1-.3c.2.7.5 1.4.7 2.1l-1.1.3zm251.4-2.1l-1.1-.3c.2-.7.5-1.4.7-2.1l1.1.3c-.2.7-.5 1.4-.7 2.1zm-253.1-3.3c-.2-.7-.4-1.4-.6-2.2l1.1-.3c.2.7.4 1.4.6 2.2l-1.1.3zm254.7-2.1l-1.1-.3c.2-.7.4-1.4.6-2.2l1.1.3c-.2.7-.4 1.5-.6 2.2zm-256.2-3.3c-.2-.7-.4-1.5-.5-2.2l1.1-.3c.2.7.3 1.5.5 2.2l-1.1.3zm257.6-2.2l-1.1-.3c.2-.7.3-1.5.5-2.2l1.1.2c-.1.9-.3 1.6-.5 2.3zm-258.9-3.3c-.2-.7-.3-1.5-.4-2.2l1.1-.2c.1.7.3 1.5.4 2.2l-1.1.2zm260.1-2.2l-1.1-.2c.1-.7.3-1.5.4-2.2l1.1.2c-.1.7-.3 1.5-.4 2.2zm-261.1-3.3c-.1-.7-.2-1.5-.3-2.2l1.1-.2c.1.7.2 1.5.3 2.2l-1.1.2zm262-2.3l-1.1-.2c.1-.7.2-1.5.3-2.2l1.1.1c-.1.8-.2 1.6-.3 2.3zm-262.8-3.3c-.1-.7-.2-1.5-.2-2.2l1.1-.1c.1.7.2 1.5.2 2.2l-1.1.1zm263.5-2.3l-1.1-.1c.1-.7.1-1.5.2-2.2l1.1.1c-.1.7-.1 1.5-.2 2.2zm-264-3.4c-.1-.7-.1-1.5-.2-2.3l1.1-.1c0 .7.1 1.5.1 2.2l-1 .2zm264.4-2.2l-1.1-.1c0-.7.1-1.5.1-2.2h1.1c0 .8 0 1.6-.1 2.3zm-264.7-3.4c0-.7 0-1.5-.1-2.3h1.1c0 .7 0 1.5.1 2.2l-1.1.1zm265-2.5l-1.1-.1v-2.4h1.1v2.5zm-1.1-3.1V381h1.1v2.3l-1.1-.1zm-262.9 0h-1.1v-2.3h1.1v2.3zm262.7-5.6c0-.7-.1-1.5-.1-2.2l1.1-.1c.1.7.1 1.5.1 2.3h-1.1zm-262.5 0l-1.1-.1c0-.8.1-1.5.1-2.3l1.1.1c0 .8-.1 1.5-.1 2.3zm262.1-5.6c-.1-.7-.1-1.5-.2-2.2l1.1-.1c.1.7.2 1.5.2 2.2l-1.1.1zm-261.7 0l-1.1-.1c.1-.7.1-1.5.2-2.2l1.1.1c-.1.7-.1 1.5-.2 2.2zm261.1-5.5c-.1-.7-.2-1.5-.3-2.2l1.1-.2c.1.7.2 1.5.3 2.2l-1.1.2zm-260.5 0l-1.1-.2c.1-.7.2-1.5.3-2.2l1.1.2c-.1.7-.2 1.4-.3 2.2zm259.6-5.5c-.1-.7-.3-1.5-.4-2.2l1.1-.2c.1.7.3 1.5.4 2.2l-1.1.2zm-258.7-.1l-1.1-.2c.1-.7.3-1.5.4-2.2l1.1.2c-.1.8-.3 1.5-.4 2.2zm257.6-5.4c-.2-.7-.3-1.5-.5-2.2l1.1-.3c.2.7.3 1.5.5 2.2l-1.1.3zm-256.5-.1l-1.1-.2c.2-.7.3-1.5.5-2.2l1.1.3c-.2.7-.3 1.4-.5 2.1zm255.1-5.4c-.2-.7-.4-1.4-.6-2.2l1.1-.3c.2.7.4 1.4.6 2.2l-1.1.3zm-253.8 0l-1.1-.3c.2-.7.4-1.5.6-2.2l1.1.3c-.2.8-.4 1.5-.6 2.2zm252.3-5.3c-.2-.7-.5-1.4-.7-2.1l1.1-.4c.2.7.5 1.4.7 2.1l-1.1.4zm-250.7-.1l-1.1-.3c.2-.7.5-1.4.7-2.2l1.1.4c-.2.7-.5 1.4-.7 2.1zm248.9-5.2c-.3-.7-.5-1.4-.8-2.1l1-.4c.3.7.5 1.4.8 2.1l-1 .4zm-247.1-.1l-1-.4c.3-.7.5-1.4.8-2.1l1 .4c-.3.7-.5 1.4-.8 2.1zm245-5.1l-.9-2.1 1-.4.9 2.1-1 .4zm-242.9-.1l-1-.4.9-2.1 1 .4c-.4.7-.7 1.4-.9 2.1zm240.7-5.1c-.3-.7-.6-1.3-1-2l1-.5c.3.7.6 1.4 1 2l-1 .5zm-238.5 0l-1-.5c.3-.7.6-1.4 1-2l1 .5c-.4.6-.7 1.3-1 2zm236-5c-.3-.7-.7-1.3-1-2l1-.5c.4.7.7 1.3 1.1 2l-1.1.5zm-233.5-.1l-1-.5c.3-.7.7-1.3 1.1-2l1 .5c-.4.7-.8 1.4-1.1 2zm230.9-4.8c-.4-.6-.7-1.3-1.1-1.9l1-.6c.4.6.8 1.3 1.1 1.9l-1 .6zm-228.2-.1l-1-.6c.4-.7.8-1.3 1.1-2l1 .6c-.4.7-.8 1.4-1.1 2zm225.3-4.6c-.4-.6-.8-1.3-1.2-1.9l.9-.6c.4.6.8 1.3 1.2 1.9l-.9.6zm-222.4-.2l-1-.6c.4-.6.8-1.3 1.2-1.9l.9.6c-.3.6-.7 1.3-1.1 1.9zm219.3-4.5c-.4-.6-.9-1.2-1.3-1.8l.9-.7c.4.6.9 1.2 1.3 1.8l-.9.7zm-216.2-.2l-.9-.6c.4-.6.9-1.2 1.3-1.8l.9.7c-.5.5-.9 1.1-1.3 1.7zm213-4.3c-.4-.6-.9-1.2-1.4-1.8l.9-.7c.5.6.9 1.2 1.4 1.8l-.9.7zm-209.8-.2l-.9-.7c.5-.6.9-1.2 1.4-1.8l.9.7c-.5.6-.9 1.2-1.4 1.8zm206.3-4.2c-.5-.6-1-1.1-1.4-1.7l.9-.7c.5.6 1 1.1 1.4 1.7l-.9.7zm-202.8-.2l-.9-.7c.5-.6 1-1.2 1.5-1.7l.9.7c-.5.6-1 1.1-1.5 1.7zm199.1-4.1c-.5-.6-1-1.1-1.5-1.7l.8-.8c.5.6 1 1.1 1.5 1.7l-.8.8zm-195.4-.1l-.9-.8c.5-.6 1-1.1 1.5-1.7l.8.8c-.4.6-.9 1.1-1.4 1.7zm191.6-3.9c-.5-.5-1-1.1-1.6-1.6l.8-.8 1.6 1.6-.8.8zm-187.8-.2l-.8-.8 1.6-1.6.8.8-1.6 1.6zm183.8-3.8c-.5-.5-1.1-1-1.6-1.5l.8-.8c.6.5 1.1 1 1.7 1.5l-.9.8zm-179.8-.1l-.8-.8c.5-.5 1.1-1 1.7-1.5l.8.8c-.6.5-1.2 1-1.7 1.5zm175.7-3.6c-.6-.5-1.1-1-1.7-1.4l.7-.9c.6.5 1.2 1 1.7 1.5l-.7.8zm-171.5-.1l-.7-.9c.6-.5 1.1-1 1.7-1.5l.7.9c-.6.5-1.2 1-1.7 1.5zm167.2-3.5c-.6-.5-1.2-.9-1.8-1.4l.7-.9c.6.5 1.2.9 1.8 1.4l-.7.9zm-162.9-.1l-.7-.9c.6-.5 1.2-.9 1.8-1.4l.7.9c-.6.5-1.2.9-1.8 1.4zm158.4-3.3c-.6-.4-1.2-.9-1.8-1.3l.6-.9c.6.4 1.2.9 1.8 1.3l-.6.9zm-154-.1l-.6-.9c.6-.4 1.2-.9 1.8-1.3l.6.9c-.6.5-1.2.9-1.8 1.3zm149.4-3c-.6-.4-1.2-.8-1.9-1.2l.6-.9c.6.4 1.3.8 1.9 1.2l-.6.9zm-144.8-.1l-.6-.9c.6-.4 1.3-.8 1.9-1.2l.6.9c-.6.3-1.2.7-1.9 1.2zm140.1-2.9c-.6-.4-1.3-.8-1.9-1.1l.6-1c.7.4 1.3.8 1.9 1.2l-.6.9zm-135.3-.1l-.6-1c.6-.4 1.3-.8 1.9-1.1l.6 1c-.7.3-1.3.7-1.9 1.1zm130.4-2.7c-.7-.4-1.3-.7-2-1.1l.5-1c.7.4 1.3.7 2 1.1l-.5 1zm-125.6-.1l-.5-1c.7-.4 1.3-.7 2-1.1l.5 1c-.7.4-1.3.8-2 1.1zm120.6-2.5c-.7-.3-1.3-.7-2-1l.5-1c.7.3 1.4.6 2 1l-.5 1zm-115.6-.1l-.5-1c.7-.3 1.3-.7 2-1l.5 1c-.7.4-1.4.7-2 1zm110.5-2.3l-2.1-.9.4-1 2.1.9-.4 1zm-105.5 0l-.5-1 2.1-.9.4 1c-.6.3-1.3.6-2 .9zm100.3-2.1c-.7-.3-1.4-.5-2.1-.8l.4-1.1c.7.3 1.4.5 2.1.8l-.4 1.1zm-95.1 0l-.4-1c.7-.3 1.4-.5 2.1-.8l.4 1.1c-.7.1-1.4.4-2.1.7zm89.9-1.9c-.7-.2-1.4-.5-2.1-.7l.3-1.1c.7.2 1.4.5 2.2.7l-.4 1.1zm-84.7 0l-.4-1.1c.7-.2 1.4-.5 2.1-.7l.3 1.1c-.6.2-1.3.4-2 .7zm79.3-1.7c-.7-.2-1.4-.4-2.2-.6l.3-1.1c.7.2 1.5.4 2.2.6l-.3 1.1zm-73.9 0l-.3-1.1c.7-.2 1.4-.4 2.2-.6l.3 1.1c-.8.2-1.5.4-2.2.6zm68.5-1.5c-.7-.2-1.4-.4-2.2-.5l.3-1.1c.7.2 1.5.3 2.2.5l-.3 1.1zm-63.1 0l-.3-1.1c.7-.2 1.5-.4 2.2-.5l.2 1.1c-.7.2-1.4.3-2.1.5zm57.7-1.2c-.7-.1-1.5-.3-2.2-.4l.2-1.1c.7.1 1.5.3 2.2.4l-.2 1.1zm-52.3 0l-.2-1.1c.7-.1 1.5-.3 2.2-.4l.2 1.1c-.7.1-1.4.2-2.2.4zm46.8-1c-.7-.1-1.5-.2-2.2-.3l.2-1.1c.7.1 1.5.2 2.2.3l-.2 1.1zm-41.3 0l-.2-1.1c.7-.1 1.5-.2 2.2-.3l.2 1.1c-.7.1-1.4.2-2.2.3zm35.7-.8c-.7-.1-1.5-.2-2.2-.2l.1-1.1c.8.1 1.5.2 2.2.2l-.1 1.1zm-30.1 0l-.1-1.1c.7-.1 1.5-.2 2.2-.2l.1 1.1c-.7.1-1.5.2-2.2.2zm24.5-.5c-.7-.1-1.5-.1-2.2-.1l.1-1.1c.8 0 1.5.1 2.3.1l-.2 1.1zm-19 0l-.1-1.1c.7-.1 1.5-.1 2.3-.1l.1 1.1c-.8 0-1.5.1-2.3.1zm13.5-.2h-2.2v-1.1h2.3l-.1 1.1zm-7.9 0v-1.1h2.3v1.1c-.8-.1-1.5-.1-2.3 0z"/><path fill="#C69EC7" d="M111.8 502.3h-2.3v-1.1h2.2l.1 1.1zm3.4-.1v-1.1c.7 0 1.5 0 2.2-.1v1.1c-.7.1-1.4.1-2.2.1zm-9-.1c-.8 0-1.5-.1-2.3-.1l.1-1.1c.7 0 1.5.1 2.2.1v1.1zm14.6-.1l-.1-1.1c.7 0 1.5-.1 2.2-.2l.1 1.1c-.6.1-1.4.2-2.2.2zm-20.2-.2c-.8-.1-1.5-.1-2.2-.2l.1-1.1c.7.1 1.5.1 2.2.2l-.1 1.1zm25.9-.3l-.1-1.1c.7-.1 1.5-.2 2.2-.3l.1 1.1c-.7.2-1.5.3-2.2.3zm-31.5-.4c-.7-.1-1.5-.2-2.2-.3l.2-1.1c.7.1 1.5.2 2.2.3l-.2 1.1zm37.1-.3l-.2-1.1c.7-.1 1.5-.2 2.2-.3l.2 1.1c-.7.1-1.5.2-2.2.3zm-42.7-.5c-.7-.1-1.5-.3-2.2-.4l.2-1.1c.7.1 1.5.3 2.2.4l-.2 1.1zm48.2-.4l-.2-1.1c.7-.1 1.5-.3 2.2-.4l.2 1.1c-.7.1-1.4.2-2.2.4zm-53.8-.7c-.7-.2-1.5-.3-2.2-.5l.3-1.1c.7.2 1.5.3 2.2.5l-.3 1.1zm59.3-.5l-.3-1.1c.7-.2 1.5-.4 2.2-.5l.3 1.1c-.7.1-1.4.3-2.2.5zm-64.7-.8c-.7-.2-1.5-.4-2.2-.6l.3-1.1c.7.2 1.4.4 2.2.6l-.3 1.1zm70.2-.6l-.3-1.1 2.1-.6.3 1.1c-.6.2-1.4.4-2.1.6zm-75.7-1c-.7-.2-1.4-.5-2.2-.7l.4-1.1c.7.2 1.4.5 2.1.7l-.3 1.1zm81.1-.7l-.4-1.1c.7-.2 1.4-.5 2.1-.7l.4 1.1c-.7.2-1.4.5-2.1.7zm-86.4-1.1c-.7-.3-1.4-.5-2.1-.8l.4-1.1c.7.3 1.4.5 2.1.8l-.4 1.1zm91.7-.8l-.4-1.1c.7-.3 1.4-.5 2.1-.8l.4 1c-.7.4-1.4.7-2.1.9zm-97-1.2l-2.1-.9.4-1 2.1.9-.4 1zm102.2-.9l-.4-1c.7-.3 1.4-.6 2-.9l.5 1-2.1.9zm-107.4-1.4c-.7-.3-1.4-.6-2-1l.5-1c.7.3 1.4.6 2 1l-.5 1zm112.6-.9l-.5-1c.7-.3 1.3-.6 2-1l.5 1c-.7.3-1.4.7-2 1zM52 487.7c-.7-.3-1.3-.7-2-1l.5-1c.7.4 1.3.7 2 1l-.5 1zm122.7-.9l-.5-1c.7-.4 1.3-.7 2-1.1l.5 1c-.7.3-1.4.7-2 1.1zM47 485.1c-.7-.4-1.3-.8-2-1.1l.6-1c.6.4 1.3.8 1.9 1.1l-.5 1zm132.6-1.1l-.6-1c.6-.4 1.3-.8 1.9-1.1l.6 1c-.6.3-1.3.7-1.9 1.1zm-137.4-1.8c-.6-.4-1.3-.8-1.9-1.2l.6-.9c.6.4 1.3.8 1.9 1.2l-.6.9zm142.2-1.2l-.6-.9c.6-.4 1.2-.8 1.9-1.2l.6.9c-.7.4-1.3.8-1.9 1.2zm-147-1.9c-.6-.4-1.2-.9-1.9-1.3l.7-.9c.6.4 1.2.9 1.8 1.3l-.6.9zm151.6-1.2l-.7-.9c.6-.4 1.2-.9 1.8-1.3l.7.9c-.5.4-1.1.8-1.8 1.3zm-156.1-2.1c-.6-.5-1.2-.9-1.8-1.4l.7-.9c.6.5 1.2.9 1.8 1.4l-.7.9zm160.7-1.3l-.7-.9c.6-.5 1.2-.9 1.8-1.4l.7.9c-.6.5-1.2 1-1.8 1.4zm-165.2-2.2c-.6-.5-1.2-1-1.7-1.4l.7-.9c.6.5 1.1 1 1.7 1.4l-.7.9zm169.5-1.3l-.7-.9c.6-.5 1.1-1 1.7-1.5l.7.8c-.5.6-1.1 1.1-1.7 1.6zm-173.8-2.4c-.6-.5-1.1-1-1.7-1.5l.8-.8c.5.5 1.1 1 1.7 1.5l-.8.8zm178.1-1.4l-.8-.8c.5-.5 1.1-1 1.6-1.5l.8.8c-.5.5-1.1 1-1.6 1.5zM20 464.8l-1.6-1.6.8-.8 1.6 1.6-.8.8zm186.2-1.5l-.8-.8c.5-.5 1-1.1 1.6-1.6l.8.8c-.5.6-1 1.1-1.6 1.6zM16 460.7c-.5-.5-1-1.1-1.5-1.7l.8-.8c.5.6 1 1.1 1.5 1.6l-.8.9zm194.1-1.4l-.8-.8c.5-.6 1-1.1 1.5-1.7l.8.7c-.4.6-.9 1.2-1.5 1.8zm-197.8-2.7c-.5-.6-1-1.1-1.5-1.7l.9-.7c.5.6 1 1.1 1.5 1.7l-.9.7zm-3.6-4.4c-.5-.6-.9-1.2-1.4-1.8l.9-.7c.5.6.9 1.2 1.4 1.8l-.9.7zm-3.5-4.5c-.4-.6-.9-1.2-1.3-1.8l.9-.6c.4.6.9 1.2 1.3 1.8l-.9.6zM2 443.1c-.4-.6-.8-1.3-1.2-1.9l.9-.6c.4.6.8 1.2 1.2 1.9l-.9.6zm221.9-1.7l-.9-.6c.4-.6.8-1.3 1.2-1.9l1 .6c-.5.6-.9 1.3-1.3 1.9zm-224.9-3c-.4-.6-.8-1.3-1.2-1.9l1-.6c.4.6.8 1.3 1.1 1.9l-.9.6zm227.9-1.8l-1-.6c.4-.6.7-1.3 1.1-1.9l1 .6c-.4.6-.7 1.2-1.1 1.9zm-230.7-3.1c-.4-.7-.7-1.3-1.1-2l1-.5c.3.7.7 1.3 1.1 2l-1 .5zm233.4-1.9l-1-.5c.3-.7.7-1.3 1-2l1 .5c-.3.7-.6 1.4-1 2zm-236-3.1c-.3-.7-.7-1.3-1-2l1-.5c.3.7.6 1.3 1 2l-1 .5zm238.6-1.9l-1-.5c.3-.7.6-1.4.9-2l1 .5c-.3.6-.6 1.3-.9 2zm-241-3.2l-.9-2.1 1-.4c.3.7.6 1.4.9 2l-1 .5zm243.3-2l-1-.4.9-2.1 1 .4-.9 2.1zM-11 418.2c-.3-.7-.5-1.4-.8-2.1l1.1-.4c.3.7.5 1.4.8 2.1l-1.1.4zm247.6-2l-1.1-.4c.3-.7.5-1.4.8-2.1l1.1.4c-.3.6-.6 1.4-.8 2.1zm-249.5-3.3c-.2-.7-.5-1.4-.7-2.1l1.1-.3c.2.7.5 1.4.7 2.1l-1.1.3zm251.4-2.1l-1.1-.3c.2-.7.5-1.4.7-2.1l1.1.3c-.3.7-.5 1.4-.7 2.1zm-253.2-3.2c-.2-.7-.4-1.4-.6-2.2l1.1-.3c.2.7.4 1.4.6 2.2l-1.1.3zm254.8-2.2l-1.1-.3c.2-.7.4-1.4.6-2.2l1.1.3c-.2.8-.4 1.5-.6 2.2zm-256.3-3.3c-.2-.7-.4-1.5-.5-2.2l1.1-.3c.2.7.3 1.5.5 2.2l-1.1.3zm257.7-2.2l-1.1-.3c.2-.7.3-1.5.5-2.2l1.1.2c-.2.9-.3 1.6-.5 2.3zm-258.9-3.3c-.2-.7-.3-1.5-.4-2.2l1.1-.2c.1.7.3 1.5.4 2.2l-1.1.2zm260-2.2l-1.1-.2c.1-.7.3-1.5.4-2.2l1.1.2c-.1.7-.2 1.5-.4 2.2zm-261-3.3c-.1-.7-.2-1.5-.3-2.2l1.1-.2c.1.7.2 1.5.3 2.2l-1.1.2zm262-2.2l-1.1-.2c.1-.7.2-1.5.3-2.2l1.1.1c-.1.8-.2 1.5-.3 2.3zm-262.8-3.4c-.1-.7-.2-1.5-.2-2.2l1.1-.1c.1.7.2 1.5.2 2.2l-1.1.1zm263.5-2.2l-1.1-.1c.1-.7.1-1.5.2-2.2l1.1.1c-.1.7-.2 1.4-.2 2.2zm-264.1-3.4c-.1-.7-.1-1.5-.2-2.3l1.1-.1c0 .7.1 1.5.1 2.2l-1 .2zm264.5-2.3l-1.1-.1c0-.7.1-1.5.1-2.2h1.1c0 .8 0 1.6-.1 2.3zm-264.8-3.4c0-.7 0-1.5-.1-2.3h1.1c0 .7 0 1.5.1 2.2l-1.1.1zm265-2.2h-1.1v-2.2h1.1v2.2zm-1.1-3.4v-2.2h1.1v2.3l-1.1-.1zm-262.8 0h-1.1v-2.3h1.1v2.3zm262.6-5.6c0-.7-.1-1.5-.1-2.2l1.1-.1c.1.7.1 1.5.1 2.3h-1.1zm-262.5 0l-1.1-.1c0-.8.1-1.5.1-2.3l1.1.1c0 .8 0 1.6-.1 2.3zm262.2-5.5c-.1-.7-.1-1.5-.2-2.2l1.1-.1c.1.7.2 1.5.2 2.2l-1.1.1zm-261.8-.1l-1.1-.1c.1-.7.1-1.5.2-2.2l1.1.1c0 .7-.1 1.5-.2 2.2zm261.1-5.5c-.1-.7-.2-1.5-.3-2.2l1.1-.2c.1.7.2 1.5.3 2.2l-1.1.2zm-260.4 0l-1.1-.2c.1-.7.2-1.5.3-2.2l1.1.2c-.1.7-.2 1.4-.3 2.2zm259.5-5.5c-.1-.7-.3-1.5-.4-2.2l1.1-.2c.1.7.3 1.5.4 2.2l-1.1.2zm-258.6-.1l-1.1-.2c.1-.7.3-1.5.4-2.2l1.1.2c-.2.8-.3 1.5-.4 2.2zm257.5-5.4c-.2-.7-.3-1.5-.5-2.2l1.1-.3c.2.7.3 1.5.5 2.2l-1.1.3zm-256.4 0l-1.1-.2c.2-.7.3-1.5.5-2.2l1.1.3c-.2.6-.4 1.3-.5 2.1zm255.1-5.4c-.2-.7-.4-1.4-.6-2.2l1.1-.3c.2.7.4 1.4.6 2.2l-1.1.3zm-253.8-.1l-1.1-.3c.2-.7.4-1.5.6-2.2l1.1.3c-.2.8-.4 1.5-.6 2.2zm252.2-5.3c-.2-.7-.5-1.4-.7-2.1l1.1-.4c.2.7.5 1.4.7 2.1l-1.1.4zm-250.6 0l-1.1-.4c.2-.7.5-1.4.7-2.2l1.1.4c-.3.7-.5 1.4-.7 2.2zm248.8-5.3c-.3-.7-.5-1.4-.8-2.1l1-.4c.3.7.5 1.4.8 2.1l-1 .4zm-247-.1l-1.1-.4c.3-.7.5-1.4.8-2.1l1 .4c-.2.7-.5 1.4-.7 2.1zm245-5.1l-.9-2.1 1-.4.9 2.1-1 .4zm-243-.1l-1-.4.9-2.1 1 .4-.9 2.1zm240.8-5c-.3-.7-.6-1.3-1-2l1-.5c.3.7.6 1.4 1 2l-1 .5zm-238.5-.1l-1-.5c.3-.7.6-1.4 1-2l1 .5c-.4.6-.7 1.3-1 2zm236-4.9c-.3-.7-.7-1.3-1-2l1-.5c.4.7.7 1.3 1.1 2l-1.1.5zm-233.6-.2l-1-.5c.3-.7.7-1.3 1.1-2l1 .5c-.4.7-.7 1.4-1.1 2zm230.9-4.7c-.4-.6-.7-1.3-1.1-1.9l1-.6c.4.6.8 1.3 1.1 1.9l-1 .6zm-228.2-.2l-1-.6c.4-.7.8-1.3 1.1-2l1 .6c-.3.7-.7 1.4-1.1 2zm225.4-4.6c-.4-.6-.8-1.3-1.2-1.9l.9-.6c.4.6.8 1.3 1.2 1.9l-.9.6zm-222.5-.2l-1-.6c.4-.6.8-1.3 1.2-1.9l.9.6c-.3.7-.7 1.3-1.1 1.9zm219.4-4.5c-.4-.6-.9-1.2-1.3-1.8l.9-.7c.4.6.9 1.2 1.3 1.8l-.9.7zM4.3 295l-.9-.6c.4-.6.9-1.2 1.3-1.8l.9.7c-.4.4-.9 1-1.3 1.7zm213-4.4c-.4-.6-.9-1.2-1.4-1.8l.9-.7c.5.6.9 1.2 1.4 1.8l-.9.7zm-209.7-.2l-.9-.7c.5-.6.9-1.2 1.4-1.8l.9.7c-.5.6-.9 1.2-1.4 1.8zm206.3-4.2c-.5-.6-1-1.1-1.4-1.7l.9-.7c.5.6 1 1.1 1.4 1.7l-.9.7zM11.1 286l-.9-.7c.5-.6 1-1.2 1.5-1.7l.9.7c-.6.6-1 1.2-1.5 1.7zm199.1-4c-.5-.6-1-1.1-1.5-1.7l.8-.8c.5.6 1 1.1 1.5 1.7l-.8.8zm-195.5-.2l-.8-.8c.5-.6 1-1.1 1.5-1.7l.8.8c-.5.6-1 1.1-1.5 1.7zm191.7-3.9c-.5-.5-1-1.1-1.6-1.6l.8-.8 1.6 1.6-.8.8zm-187.8-.2l-.8-.8 1.6-1.6.8.8-1.6 1.6zm183.8-3.7c-.5-.5-1.1-1-1.6-1.5l.8-.8c.6.5 1.1 1 1.7 1.5l-.9.8zm-179.8-.2l-.8-.8c.5-.5 1.1-1 1.7-1.5l.8.8c-.6.5-1.2 1-1.7 1.5zm175.6-3.6c-.6-.5-1.1-1-1.7-1.4l.7-.9c.6.5 1.2 1 1.7 1.5l-.7.8zm-171.5-.1l-.7-.9c.6-.5 1.1-1 1.7-1.5l.7.9c-.5.5-1.1 1-1.7 1.5zm167.2-3.5c-.6-.5-1.2-.9-1.8-1.4l.7-.9c.6.5 1.2.9 1.8 1.4l-.7.9zM31 266.5l-.7-.9c.6-.5 1.2-.9 1.8-1.4l.7.9c-.6.5-1.2 1-1.8 1.4zm158.5-3.2c-.6-.4-1.2-.9-1.8-1.3l.6-.9c.6.4 1.2.9 1.8 1.3l-.6.9zm-154-.1l-.7-.9c.6-.4 1.2-.9 1.8-1.3l.6.9c-.5.4-1.1.8-1.7 1.3zm149.4-3.1c-.6-.4-1.2-.8-1.9-1.2l.6-.9c.6.4 1.3.8 1.9 1.2l-.6.9zM40.1 260l-.6-.9c.6-.4 1.3-.8 1.9-1.2l.6.9c-.7.4-1.3.8-1.9 1.2zm140-2.9c-.6-.4-1.3-.8-1.9-1.1l.6-1c.7.4 1.3.8 1.9 1.2l-.6.9zM44.8 257l-.6-1c.6-.4 1.3-.8 1.9-1.1l.6 1c-.6.3-1.2.7-1.9 1.1zm130.5-2.7c-.7-.4-1.3-.7-2-1.1l.5-1c.7.4 1.3.7 2 1.1l-.5 1zm-125.6-.1l-.5-1c.7-.4 1.3-.7 2-1.1l.5 1c-.7.4-1.4.8-2 1.1zm120.6-2.5c-.7-.3-1.3-.7-2-1l.5-1c.7.3 1.4.6 2 1l-.5 1zm-115.7 0l-.5-1c.7-.3 1.3-.7 2-1l.5 1c-.6.3-1.3.6-2 1zm110.6-2.4l-2.1-.9.4-1 2.1.9-.4 1zm-105.5 0l-.5-1 2.1-.9.4 1c-.7.3-1.3.6-2 .9zm100.3-2.1c-.7-.3-1.4-.5-2.1-.8l.4-1.1c.7.3 1.4.5 2.1.8l-.4 1.1zm-95.2 0l-.4-1c.7-.3 1.4-.5 2.1-.8l.4 1.1c-.7.2-1.4.4-2.1.7zm89.9-1.9c-.7-.2-1.4-.5-2.1-.7l.3-1.1c.7.2 1.4.5 2.2.7l-.4 1.1zm-84.6 0l-.4-1.1c.7-.2 1.4-.5 2.1-.7l.3 1.1c-.6.2-1.3.4-2 .7zm79.3-1.7c-.7-.2-1.4-.4-2.2-.6l.3-1.1c.7.2 1.5.4 2.2.6l-.3 1.1zm-74 0l-.3-1.1c.7-.2 1.4-.4 2.2-.6l.3 1.1c-.7.2-1.5.4-2.2.6zm68.6-1.5c-.7-.2-1.4-.4-2.2-.5l.3-1.1c.7.2 1.5.3 2.2.5l-.3 1.1zm-63.2 0l-.3-1.1c.7-.2 1.5-.4 2.2-.5l.2 1.1c-.6.2-1.4.4-2.1.5zm57.7-1.2c-.7-.1-1.5-.3-2.2-.4l.2-1.1c.7.1 1.5.3 2.2.4l-.2 1.1zm-52.2 0l-.2-1.1c.7-.1 1.5-.3 2.2-.4l.2 1.1c-.8.1-1.5.3-2.2.4zm46.7-1c-.7-.1-1.5-.2-2.2-.3l.2-1.1c.7.1 1.5.2 2.2.3l-.2 1.1zm-41.2 0l-.2-1.1c.7-.1 1.5-.2 2.2-.3l.2 1.1c-.7.1-1.5.2-2.2.3zm35.7-.7c-.7-.1-1.5-.2-2.2-.2l.1-1.1c.8.1 1.5.2 2.2.2l-.1 1.1zm-30.2 0l-.1-1.1c.7-.1 1.5-.2 2.2-.2l.1 1.1c-.7 0-1.4.1-2.2.2zm24.6-.5c-.7-.1-1.5-.1-2.2-.1l.1-1.1c.8 0 1.5.1 2.3.1l-.2 1.1zm-19 0l-.1-1.1c.7-.1 1.5-.1 2.3-.1l.1 1.1c-.8 0-1.6 0-2.3.1zm13.4-.3h-2.2v-1.1h2.3l-.1 1.1zm-7.8 0v-1.1h2.3v1.1c-.8-.1-1.6-.1-2.3 0z"/><path fill="#A27D5E" d="M35.6 581.5h-2.3v-1.1h2.2l.1 1.1zm3.3 0v-1.1c.7 0 1.5 0 2.2-.1v1.1c-.7.1-1.4.1-2.2.1zm-9-.1c-.8 0-1.5-.1-2.3-.1l.1-1.1c.7 0 1.5.1 2.2.1v1.1zm14.7-.1l-.1-1.1c.7 0 1.5-.1 2.2-.2l.1 1.1c-.7.1-1.5.1-2.2.2zm-20.3-.3c-.8-.1-1.5-.1-2.2-.2l.1-1.1c.7.1 1.5.2 2.2.2l-.1 1.1zm25.9-.2l-.1-1.1c.7-.1 1.5-.2 2.2-.3l.1 1.1c-.7.1-1.5.2-2.2.3zm-31.5-.4c-.7-.1-1.5-.2-2.2-.3l.2-1.1c.7.1 1.5.2 2.2.3l-.2 1.1zm37.1-.3l-.2-1.1c.7-.1 1.5-.2 2.2-.3l.2 1.1c-.7.1-1.5.2-2.2.3zm-42.7-.6c-.7-.1-1.5-.3-2.2-.4l.2-1.1c.7.1 1.5.3 2.2.4l-.2 1.1zm48.3-.4l-.2-1.1c.7-.1 1.5-.3 2.2-.4l.2 1.1c-.8.1-1.5.3-2.2.4zm-53.8-.6c-.7-.2-1.5-.3-2.2-.5l.3-1.1c.7.2 1.5.3 2.2.5l-.3 1.1zm59.3-.5l-.3-1.1c.7-.2 1.5-.4 2.2-.5l.3 1.1c-.8.1-1.5.3-2.2.5zm-64.8-.9c-.7-.2-1.5-.4-2.2-.6l.3-1.1c.7.2 1.4.4 2.2.6l-.3 1.1zm70.2-.6l-.3-1.1 2.1-.6.3 1.1c-.6.2-1.3.4-2.1.6zm-75.6-.9c-.7-.2-1.4-.5-2.2-.7l.4-1.1c.7.2 1.4.5 2.1.7l-.3 1.1zm81-.7l-.4-1.1c.7-.2 1.4-.5 2.1-.7l.4 1.1c-.6.2-1.4.4-2.1.7zm-86.4-1.1c-.7-.3-1.4-.5-2.1-.8l.4-1.1c.7.3 1.4.5 2.1.8l-.4 1.1zM83 573l-.4-1.1c.7-.3 1.4-.5 2.1-.8l.4 1c-.6.4-1.3.6-2.1.9zm-97-1.3l-2.1-.9.4-1 2.1.9-.4 1zm102.3-.8l-.4-1c.7-.3 1.4-.6 2-.9l.5 1c-.8.3-1.4.6-2.1.9zm-107.5-1.4c-.7-.3-1.4-.6-2-1l.5-1c.7.3 1.4.6 2 1l-.5 1zm112.6-.9l-.5-1c.7-.3 1.3-.6 2-1l.5 1c-.7.3-1.3.6-2 1zM-24.3 567c-.7-.3-1.3-.7-2-1l.5-1c.7.4 1.3.7 2 1l-.5 1zm122.7-1l-.5-1c.7-.4 1.3-.7 2-1.1l.5 1c-.7.4-1.3.8-2 1.1zm-127.6-1.7c-.7-.4-1.3-.8-2-1.1l.6-1c.6.4 1.3.8 1.9 1.1l-.5 1zm132.5-1l-.6-1c.6-.4 1.3-.8 1.9-1.1l.6 1c-.6.3-1.2.7-1.9 1.1zm-137.4-1.9c-.6-.4-1.3-.8-1.9-1.2l.6-.9c.6.4 1.3.8 1.9 1.2l-.6.9zm142.2-1.1l-.6-.9c.6-.4 1.2-.8 1.9-1.2l.6.9c-.6.4-1.3.8-1.9 1.2zm-146.9-2c-.6-.4-1.2-.9-1.9-1.3l.7-.9c.6.4 1.2.9 1.8 1.3l-.6.9zm151.6-1.2l-.7-.9c.6-.4 1.2-.9 1.8-1.3l.7.9c-.6.5-1.2.9-1.8 1.3zM-43.4 555c-.6-.5-1.2-.9-1.8-1.4l.7-.9c.6.5 1.2.9 1.8 1.4l-.7.9zm160.7-1.2l-.7-.9c.6-.5 1.2-.9 1.8-1.4l.7.9c-.6.5-1.2.9-1.8 1.4zm-165.2-2.3c-.6-.5-1.2-1-1.7-1.4l.7-.9c.6.5 1.1 1 1.7 1.4l-.7.9zm169.6-1.3l-.7-.9c.6-.5 1.1-1 1.7-1.5l.7.8c-.6.7-1.1 1.1-1.7 1.6zm-173.8-2.3c-.6-.5-1.1-1-1.7-1.5l.8-.8c.5.5 1.1 1 1.7 1.5l-.8.8zm178-1.4l-.8-.8c.5-.5 1.1-1 1.6-1.5l.8.8c-.5.5-1 1-1.6 1.5zM-56.3 544l-1.6-1.6.8-.8 1.6 1.6-.8.8zm186.3-1.4l-.8-.8c.5-.5 1-1.1 1.6-1.6l.8.8c-.6.5-1.1 1.1-1.6 1.6zM-60.2 540c-.5-.5-1-1.1-1.5-1.7l.8-.8c.5.6 1 1.1 1.5 1.6l-.8.9zm194.1-1.5l-.8-.8c.5-.6 1-1.1 1.5-1.7l.8.7c-.5.7-1 1.3-1.5 1.8zM-64 535.8c-.5-.6-1-1.1-1.5-1.7l.9-.7c.5.6 1 1.1 1.5 1.7l-.9.7zm201.6-1.5l-.9-.7c.5-.6 1-1.1 1.4-1.7l.9.7c-.4.5-.9 1.1-1.4 1.7zm-205.2-2.8c-.5-.6-.9-1.2-1.4-1.8l.9-.7c.5.6.9 1.2 1.4 1.8l-.9.7zm208.7-1.6l-.9-.7c.5-.6.9-1.2 1.4-1.8l.9.7c-.4.6-.9 1.2-1.4 1.8zM-71 527c-.4-.6-.9-1.2-1.3-1.8l.9-.6c.4.6.9 1.2 1.3 1.8l-.9.6zm215.5-1.7l-.9-.6c.4-.6.9-1.2 1.3-1.8l.9.6c-.4.6-.9 1.2-1.3 1.8zm-218.8-2.9c-.4-.6-.8-1.3-1.2-1.9l.9-.6c.4.6.8 1.2 1.2 1.9l-.9.6zm221.9-1.8l-.9-.6c.4-.6.8-1.3 1.2-1.9l1 .6c-.4.7-.8 1.3-1.3 1.9zm-224.9-3c-.4-.6-.8-1.3-1.2-1.9l1-.6c.4.6.8 1.3 1.1 1.9l-.9.6zm227.9-1.8l-1-.6c.4-.6.7-1.3 1.1-1.9l1 .6c-.3.6-.7 1.3-1.1 1.9zm-230.7-3c-.4-.7-.7-1.3-1.1-2l1-.5c.3.7.7 1.3 1.1 2l-1 .5zm233.5-1.9l-1-.5c.3-.7.7-1.3 1-2l1 .5c-.3.7-.7 1.3-1 2zm-236.1-3.1c-.3-.7-.7-1.3-1-2l1-.5c.3.7.6 1.3 1 2l-1 .5zm238.6-2l-1-.5c.3-.7.6-1.4.9-2l1 .5c-.3.7-.6 1.4-.9 2zm-241-3.1l-.9-2.1 1-.4c.3.7.6 1.4.9 2l-1 .5zm243.3-2l-1-.4.9-2.1 1 .4-.9 2.1zm-245.5-3.2c-.3-.7-.5-1.4-.8-2.1l1.1-.4c.3.7.5 1.4.8 2.1l-1.1.4zm247.6-2.1l-1.1-.4c.3-.7.5-1.4.8-2.1l1.1.4c-.3.7-.5 1.4-.8 2.1zm-249.5-3.2c-.2-.7-.5-1.4-.7-2.1l1.1-.3c.2.7.5 1.4.7 2.1l-1.1.3zm251.4-2.1l-1.1-.3c.2-.7.5-1.4.7-2.1l1.1.3c-.3.6-.5 1.4-.7 2.1zm-253.1-3.3c-.2-.7-.4-1.4-.6-2.2l1.1-.3c.2.7.4 1.4.6 2.2l-1.1.3zm254.7-2.1l-1.1-.3c.2-.7.4-1.4.6-2.2l1.1.3c-.2.7-.4 1.4-.6 2.2zm-256.2-3.3c-.2-.7-.4-1.5-.5-2.2l1.1-.3c.2.7.3 1.5.5 2.2l-1.1.3zm257.6-2.2l-1.1-.3c.2-.7.3-1.5.5-2.2l1.1.2c-.2.8-.3 1.6-.5 2.3zm-258.9-3.3c-.2-.7-.3-1.5-.4-2.2l1.1-.2c.1.7.3 1.5.4 2.2l-1.1.2zm260.1-2.2l-1.1-.2c.1-.7.3-1.5.4-2.2l1.1.2c-.2.7-.3 1.4-.4 2.2zm-261.1-3.4c-.1-.7-.2-1.5-.3-2.2l1.1-.2c.1.7.2 1.5.3 2.2l-1.1.2zm262-2.2l-1.1-.2c.1-.7.2-1.5.3-2.2l1.1.1c-.1.8-.2 1.6-.3 2.3zm-262.8-3.4c-.1-.7-.2-1.5-.2-2.2l1.1-.1c.1.7.2 1.5.2 2.2l-1.1.1zm263.5-2.2l-1.1-.1c.1-.7.1-1.5.2-2.2l1.1.1c-.1.7-.1 1.5-.2 2.2zm-264-3.4c-.1-.7-.1-1.5-.2-2.3l1.1-.1c0 .7.1 1.5.1 2.2l-1 .2zm264.4-2.2l-1.1-.1c0-.7.1-1.5.1-2.2h1.1c0 .8 0 1.5-.1 2.3zm-264.7-3.4c0-.7 0-1.5-.1-2.3h1.1c0 .7 0 1.5.1 2.2l-1.1.1zm265-2.3l-1.1-.1v-2.3h1.1v2.4zm-1.2-3.3v-2.2h1.1v2.3l-1.1-.1zm-262.8 0h-1.1v-2.3h1.1v2.3zm262.7-5.6c0-.7-.1-1.5-.1-2.2l1.1-.1c.1.7.1 1.5.1 2.3h-1.1zm-262.5 0l-1.1-.1c0-.8.1-1.5.1-2.3l1.1.1c0 .8-.1 1.5-.1 2.3zm262.1-5.6c-.1-.7-.1-1.5-.2-2.2l1.1-.1c.1.7.2 1.5.2 2.2l-1.1.1zm-261.7 0l-1.1-.1c.1-.7.1-1.5.2-2.2l1.1.1c-.1.7-.2 1.5-.2 2.2zm261-5.5c-.1-.7-.2-1.5-.3-2.2l1.1-.2c.1.7.2 1.5.3 2.2l-1.1.2zm-260.4-.1l-1.1-.2c.1-.7.2-1.5.3-2.2l1.1.2c-.1.8-.2 1.5-.3 2.2zm259.6-5.5c-.1-.7-.3-1.5-.4-2.2l1.1-.2c.1.7.3 1.5.4 2.2l-1.1.2zm-258.7 0l-1.1-.2c.1-.7.3-1.5.4-2.2l1.1.2c-.1.7-.3 1.5-.4 2.2zm257.6-5.5c-.2-.7-.3-1.5-.5-2.2l1.1-.3c.2.7.3 1.5.5 2.2l-1.1.3zm-256.5 0l-1.1-.2c.2-.7.3-1.5.5-2.2l1.1.3c-.2.7-.3 1.4-.5 2.1zm255.1-5.4c-.2-.7-.4-1.4-.6-2.2l1.1-.3c.2.7.4 1.4.6 2.2l-1.1.3zm-253.8 0l-1.1-.3c.2-.7.4-1.5.6-2.2l1.1.3c-.2.8-.4 1.5-.6 2.2zm252.3-5.4c-.2-.7-.5-1.4-.7-2.1l1.1-.4c.2.7.5 1.4.7 2.1l-1.1.4zm-250.7 0l-1.1-.3c.2-.7.5-1.4.7-2.2l1.1.4c-.2.7-.5 1.4-.7 2.1zm248.9-5.3c-.3-.7-.5-1.4-.8-2.1l1-.4c.3.7.5 1.4.8 2.1l-1 .4zm-247.1 0l-1.1-.4c.3-.7.5-1.4.8-2.1l1 .4c-.2.7-.4 1.4-.7 2.1zm245-5.2l-.9-2.1 1-.4.9 2.1-1 .4zm-243 0l-1-.4.9-2.1 1 .4-.9 2.1zm240.8-5.1c-.3-.7-.6-1.3-1-2l1-.5c.3.7.6 1.4 1 2l-1 .5zm-238.5-.1l-1-.5c.3-.7.6-1.4 1-2l1 .5c-.4.7-.7 1.4-1 2zm236-4.9c-.3-.7-.7-1.3-1-2l1-.5c.4.7.7 1.3 1.1 2l-1.1.5zm-233.5-.1l-1-.5c.3-.7.7-1.3 1.1-2l1 .5c-.4.7-.8 1.3-1.1 2zm230.9-4.8c-.4-.6-.7-1.3-1.1-1.9l1-.6c.4.6.8 1.3 1.1 1.9l-1 .6zm-228.2-.1l-1-.6c.4-.7.8-1.3 1.1-2l1 .6c-.4.7-.8 1.3-1.1 2zm225.3-4.7c-.4-.6-.8-1.3-1.2-1.9l.9-.6c.4.6.8 1.3 1.2 1.9l-.9.6zm-222.5-.1l-1-.6c.4-.6.8-1.3 1.2-1.9l.9.6c-.2.6-.7 1.3-1.1 1.9zm219.4-4.5c-.4-.6-.9-1.2-1.3-1.8l.9-.7c.4.6.9 1.2 1.3 1.8l-.9.7zm-216.3-.2l-.9-.6c.4-.6.9-1.2 1.3-1.8l.9.7c-.4.5-.8 1.1-1.3 1.7zm213-4.4c-.4-.6-.9-1.2-1.4-1.8l.9-.7c.5.6.9 1.2 1.4 1.8l-.9.7zm-209.7-.1l-.9-.7c.5-.6.9-1.2 1.4-1.8l.9.7c-.5.6-.9 1.2-1.4 1.8zm206.3-4.2c-.5-.6-1-1.1-1.4-1.7l.9-.7c.5.6 1 1.1 1.4 1.7l-.9.7zm-202.8-.2l-.9-.7c.5-.6 1-1.2 1.5-1.7l.9.7c-.5.6-1 1.1-1.5 1.7zm199.1-4.1c-.5-.6-1-1.1-1.5-1.7l.8-.8c.5.6 1 1.1 1.5 1.7l-.8.8zm-195.4-.1l-.8-.8c.5-.6 1-1.1 1.5-1.7l.8.8c-.5.6-1 1.1-1.5 1.7zm191.6-4c-.5-.5-1-1.1-1.6-1.6l.8-.8 1.6 1.6-.8.8zm-187.8-.1l-.8-.8 1.6-1.6.8.8c-.6.5-1.1 1.1-1.6 1.6zm183.8-3.8c-.5-.5-1.1-1-1.6-1.5l.8-.8c.6.5 1.1 1 1.7 1.5l-.9.8zm-179.8-.1l-.8-.8c.5-.5 1.1-1 1.7-1.5l.8.8c-.6.5-1.2 1-1.7 1.5zm175.7-3.6c-.6-.5-1.1-1-1.7-1.4l.7-.9c.6.5 1.2 1 1.7 1.5l-.7.8zm-171.5-.2l-.7-.9c.6-.5 1.1-1 1.7-1.5l.7.9c-.6.6-1.2 1.1-1.7 1.5zm167.1-3.4c-.6-.5-1.2-.9-1.8-1.4l.7-.9c.6.5 1.2.9 1.8 1.4l-.7.9zm-162.8-.1l-.7-.9c.6-.5 1.2-.9 1.8-1.4l.7.9c-.7.5-1.2.9-1.8 1.4zm158.4-3.3c-.6-.4-1.2-.9-1.8-1.3l.6-.9c.6.4 1.2.9 1.8 1.3l-.6.9zm-154-.1l-.7-.9c.6-.4 1.2-.9 1.8-1.3l.6.9c-.5.4-1.1.9-1.7 1.3zm149.4-3.1c-.6-.4-1.2-.8-1.9-1.2l.6-.9c.6.4 1.3.8 1.9 1.2l-.6.9zm-144.8-.1l-.6-.9c.6-.4 1.3-.8 1.9-1.2l.6.9c-.6.4-1.3.8-1.9 1.2zm140-2.9c-.6-.4-1.3-.8-1.9-1.1l.6-1c.7.4 1.3.8 1.9 1.2l-.6.9zm-135.3 0l-.6-1c.6-.4 1.3-.8 1.9-1.1l.6 1c-.6.3-1.2.7-1.9 1.1zM99 333.6c-.7-.4-1.3-.7-2-1.1l.5-1c.7.4 1.3.7 2 1.1l-.5 1zm-125.6-.1l-.5-1c.7-.4 1.3-.7 2-1.1l.5 1c-.7.4-1.4.7-2 1.1zM94 331c-.7-.3-1.3-.7-2-1l.5-1c.7.3 1.4.6 2 1l-.5 1zm-115.7-.1l-.5-1c.7-.3 1.3-.7 2-1l.5 1c-.6.4-1.3.7-2 1zm110.6-2.3l-2.1-.9.4-1 2.1.9-.4 1zm-105.5 0l-.5-1 2.1-.9.4 1c-.6.3-1.3.6-2 .9zm100.3-2.1c-.7-.3-1.4-.5-2.1-.8l.4-1.1c.7.3 1.4.5 2.1.8l-.4 1.1zm-95.1-.1l-.4-1c.7-.3 1.4-.5 2.1-.8l.4 1.1c-.7.2-1.4.5-2.1.7zm89.9-1.9c-.7-.2-1.4-.5-2.1-.7l.3-1.1c.7.2 1.4.5 2.2.7l-.4 1.1zm-84.7 0l-.4-1.1c.7-.2 1.4-.5 2.1-.7l.3 1.1c-.6.3-1.3.5-2 .7zm79.3-1.6c-.7-.2-1.4-.4-2.2-.6l.3-1.1c.7.2 1.5.4 2.2.6l-.3 1.1zm-74-.1l-.3-1.1c.7-.2 1.4-.4 2.2-.6l.3 1.1c-.7.2-1.4.4-2.2.6zm68.6-1.4c-.7-.2-1.4-.4-2.2-.5l.3-1.1c.7.2 1.5.3 2.2.5l-.3 1.1zm-63.1 0l-.3-1.1c.7-.2 1.5-.4 2.2-.5l.2 1.1c-.7.1-1.4.3-2.1.5zm57.7-1.2c-.7-.1-1.5-.3-2.2-.4l.2-1.1c.7.1 1.5.3 2.2.4l-.2 1.1zm-52.3 0l-.2-1.1c.7-.1 1.5-.3 2.2-.4l.2 1.1c-.7.1-1.5.2-2.2.4zm46.8-1c-.7-.1-1.5-.2-2.2-.3l.2-1.1c.7.1 1.5.2 2.2.3l-.2 1.1zm-41.3 0l-.2-1.1c.7-.1 1.5-.2 2.2-.3l.2 1.1c-.7.1-1.4.2-2.2.3zm35.7-.8c-.7-.1-1.5-.2-2.2-.2l.1-1.1c.8.1 1.5.2 2.2.2l-.1 1.1zm-30.1 0l-.1-1.1c.7-.1 1.5-.2 2.2-.2l.1 1.1c-.8.1-1.5.1-2.2.2zm24.5-.5c-.7-.1-1.5-.1-2.2-.1l.1-1.1c.8 0 1.5.1 2.3.1l-.2 1.1zm-19 0l-.1-1.1c.7-.1 1.5-.1 2.3-.1l.1 1.1c-.8 0-1.5.1-2.3.1zm13.4-.3h-2.2v-1.1h2.3l-.1 1.1zm-7.8 0v-1.1h2.3v1.1h-2.3z"/></g><path fill="#C828BD" d="M-31.3 490.1c-9.9 0-18 8.1-18 18s8.1 18 18 18 18-8.1 18-18-8-18-18-18zm-11.8 26.4c-.5 0-1-.4-1-1 0-.5.4-1 1-1 .5 0 1 .4 1 1-.1.5-.5 1-1 1zm7.7-10.3c-.5 0-1-.4-1-1 0-.5.4-1 1-1 .5 0 1 .4 1 1-.1.5-.5 1-1 1zm11.2 13.5c-1.4 0-2.6-1.2-2.6-2.6 0-1.4 1.1-2.6 2.6-2.6 1.4 0 2.6 1.2 2.6 2.6 0 1.4-1.2 2.6-2.6 2.6zm-1.9-13.5c-2.5 0-4.5-2-4.5-4.5s2-4.5 4.5-4.5 4.5 2 4.5 4.5-2 4.5-4.5 4.5z"/><g fill="#03709C"><circle cx="-97.1" cy="396.3" r="4.1"/><circle cx="193.8" cy="466.6" r="4.1"/><circle cx="101.4" cy="529.8" r="2.3"/><circle cx="77.7" cy="587.7" r="2.3"/><circle cx="-34.3" cy="293.8" r="1.9"/><circle cx="71.1" cy="261.3" r="1.5"/><circle cx="166.5" cy="353.3" r="3"/><circle cx="115.6" cy="540.5" r="9.3"/><circle cx="-89.3" cy="406.4" r="1.5"/></g><g fill="#FFF"><ellipse cx="122.7" cy="350.5" rx="6.7" ry="7.3"/><circle cx="103.2" cy="350" r="1.7"/><circle cx="72.3" cy="484.9" r="7.9"/><circle cx="144" cy="454.6" r="1.1"/><circle cx="26.3" cy="351.4" r="1.1"/><circle cx="41.4" cy="491.1" r="1.7"/></g><g fill="#FFF"><path d="M20.9 451.1c.1-1.4-.4-2.8-1.4-3.9L9.1 436.6c-2.2-2.2-3.3-5.3-3-8.4.3-3.1 1.8-6 4.3-7.8 2.5-1.9 5.7-2.6 8.7-2s5.7 2.5 7.2 5.2c.8 1.5.3 3.4-1.2 4.3-1.5.8-3.4.3-4.2-1.2-.7-1.2-1.8-1.9-3.1-2.3-1.4-.3-2.7.1-3.8.9-1.1.8-1.7 2-1.8 3.4-.1 1.3.3 2.6 1.3 3.6l10.3 10.6c2.3 2.3 3.4 5.5 3.2 8.7-.3 3.2-1.9 6.1-4.4 8.1-2.6 1.9-5.8 2.7-9 2.1-3.2-.6-5.9-2.7-7.4-5.4-.9-1.5-.4-3.4 1.1-4.3 1.5-.8 3.4-.3 4.3 1.2.7 1.2 1.9 2.1 3.3 2.4s2.8-.1 4-1c1.2-.8 1.9-2.1 2-3.6zM36 451.1v-22c0-4.9 3.1-9.3 7.8-10.5 4.8-1.3 9.6.8 12.1 5 .9 1.5.3 3.4-1.2 4.3-1.5.8-3.4.3-4.3-1.2-1-1.8-3-2.7-5.1-2.1-2 .5-3.3 2.4-3.3 4.5v22c0 2.1 1.3 3.9 3.3 4.5 2.1.5 4.1-.4 5.2-2.2.9-1.5 2.7-2 4.2-1.2 1.5.9 2 2.8 1.1 4.3-2.5 4.3-7.2 6.3-12 5-4.7-1.2-7.8-5.5-7.8-10.4zM65 451.1v-22c0-6 4.5-10.9 10.5-10.9S86 423.1 86 429.1v22c0 6-4.5 10.9-10.5 10.9S65 457.1 65 451.1zm6-22v22c0 2.6 1.9 4.7 4.5 4.7s4.5-2.1 4.5-4.7v-22c0-2.6-1.9-4.7-4.5-4.7s-4.5 2.1-4.5 4.7zM96 451.1v-22c0-6 4.5-10.9 10.5-10.9s10.5 4.9 10.5 10.9v22c0 6-4.5 10.9-10.5 10.9-6-.1-10.5-4.9-10.5-10.9zm6-22v22c0 2.6 1.9 4.7 4.5 4.7s4.5-2.1 4.5-4.7v-22c0-2.6-1.9-4.7-4.5-4.7s-4.5 2.1-4.5 4.7zM130.7 418.8h7.8c6 0 10.5 4.5 10.5 10.5v3.6c0 6-4.5 10.9-10.5 10.9H134v15c0 1.7-1.3 3.1-3 3.1s-3-1.4-3-3.1v-37.3c0-1.6 1-2.7 2.7-2.7zm7.8 6H134v13h4.5c2.6 0 4.5-2.3 4.5-4.9v-3.6c0-2.5-1.9-4.5-4.5-4.5z"/></g><path fill="#03709C" d="M-44.8 487.8l-1.3-1.9.4-.3 1.3 2M-47.9 482.9l-2.4-4.1.6-.3 2.2 4.1M-51.9 475.7l-2-4.3.7-.3 2 4.3M-55.4 468.2l-1.7-4.3.9-.4 1.7 4.4M-58.3 460.5l-1.4-4.4 1-.4 1.4 4.5M-60.7 452.7l-1.1-4.6 1.2-.3 1.1 4.6M-62.6 444.6l-.8-4.6 1.4-.2.8 4.6M-63.9 436.5l-.5-4.7 1.6-.1.4 4.6M-64.6 428.3l-.2-4.7h1.8v4.6M-64.8 420l.2-4.6h1.9l-.3 4.7M-64.4 411.8l.4-4.7 2.1.3-.6 4.6M-63.5 403.6l.8-4.6 2.2.4-.9 4.6M-62 395.5l1.1-4.6 2.3.6-1.2 4.5M-59.9 387.4l1.4-4.4 2.3.7-1.4 4.5M-50.5 364.5l2.3-4.1 2.4 1.4-2.3 4.1M-46.4 357.3l2.6-3.9 2.4 1.6-2.6 3.9M-41.7 350.5l2.8-3.8 2.4 1.9-2.9 3.7M-36.6 343.9l3-3.5 2.4 2.1-3.1 3.5M-31.1 337.8l3.3-3.4 2.3 2.4-3.4 3.2M-25.2 332l3.6-3.1 2.2 2.6-3.6 3M-18.8 326.6l3.7-2.8 2.1 2.8-3.8 2.8M-12.1 321.7s1-.7 1.9-1.3c1-.6 2-1.3 2-1.3l1.9 3.1-2 1.2-2 1.3-1.8-3zM-5.1 317.2l4.1-2.3 1.8 3.3-4.1 2.2M2.2 313.2l4.2-2 1.7 3.5-4.3 2M9.7 309.7l4.4-1.7 1.5 3.8-4.4 1.6M17.5 306.7l4.5-1.4 1.2 4-4.4 1.4M25.5 304.3l4.5-1.1 1 4.2-4.5 1.1M33.6 302.4l4.6-.8.8 4.4-4.6.8M41.9 301.1l4.6-.5.5 4.6-4.7.4M50.2 300.4l4.7-.2.1 4.7-4.7.1M58.5 300.3l4.7.2-.2 4.6-4.7-.2M66.9 300.7l4.6.6-.5 4.5-4.6-.5M75.1 301.8l4.6.8-.7 4.5-4.7-.8M83.3 303.4l4.5 1.2-1 4.2-4.6-1M91.4 305.7l4.4 1.4-1.3 4-4.5-1.4M99.2 308.4l4.3 1.8-1.4 3.7-4.4-1.7M106.8 311.7l4.2 2.1-1.6 3.4-4.2-2M114.2 315.5l4.1 2.4-1.8 3-4.1-2.2M121.3 319.9l3.8 2.6-1.7 2.6-3.9-2.4M128 324.7l3.7 2.9-1.7 2.2-3.8-2.7M134.4 330l3.5 3.2-1.6 1.7-3.6-3M140.4 335.7l3.2 3.4-1.4 1.4-3.4-3.3M146 341.8l2.9 3.6-1.1 1-3.2-3.5M151 348.3l2.7 3.8-.7.6-2.9-3.7M155.7 355.2l1.2 2-.4.2-1.3-1.9"/><g><path fill="#03709C" d="M205.9 471.2l-1 2.1-.4-.2 1-2.1M203.4 476.5l-2.2 4.2-.5-.3 2.2-4.1M199.5 483.7l-2.5 4-.7-.4 2.6-3.9M195.1 490.7l-2.7 3.8-.8-.6 2.8-3.7M190.2 497.3l-3 3.6-.8-.7 3-3.6M184.9 503.6l-3.2 3.4-1-.9 3.3-3.3M179.1 509.5l-3.4 3.2-1-1.1 3.5-3.1M173 515l-3.7 2.9-.9-1.2 3.7-2.9M166.5 520l-3.9 2.7-.9-1.4 3.8-2.6M159.6 524.6l-4 2.4-.9-1.6 4-2.3M152.5 528.8l-4.2 2.1-.9-1.8 4.2-2.1M145.1 532.4l-4.3 1.9-.9-2.1 4.4-1.7M137.4 535.5l-4.4 1.6-.7-2.2 4.4-1.5M129.6 538.1l-4.5 1.3-.7-2.4 4.6-1.2M121.6 540.2l-4.6.9-.5-2.5 4.6-.9M113.4 541.7l-4.6.6-.3-2.7 4.6-.5M105.2 542.6l-4.7.3-.1-2.8 4.7-.2M96.9 543h-4.6v-2.9l4.7.1M88.6 542.8l-4.6-.3.2-3.1 4.7.5M80.4 542.1l-4.6-.7.4-3.1 4.7.7M72.2 540.7l-4.6-.9.7-3.2 4.6 1M64.1 538.9l-4.5-1.3 1-3.3 4.5 1.4M56.2 536.4l-4.4-1.6 1.2-3.3 4.4 1.7M48.4 533.5s-1.1-.5-2.1-.9l-2.2-1 1.5-3.3s1 .5 2.1 1 2.1 1 2.1 1l-1.4 3.2zM40.9 530l-4.2-2.2 1.8-3.3 4.1 2.2M33.5 526l-3.9-2.4 2.1-3.4 3.9 2.5M26.5 521.5l-3.8-2.7 2.4-3.3 3.8 2.8M19.8 516.6l-3.6-3 2.7-3.2 3.6 3M13.5 511.2l-3.4-3.2 3-3.2 3.3 3.3M7.5 505.4l-3.2-3.5 3.4-3 3.1 3.5M1.9 499.1l-2.9-3.6 3.6-2.9 2.9 3.7M-3.2 492.5l-2.6-3.8L-2 486l2.7 3.9M-7.8 485.6l-2.3-4.1 4-2.3 2.3 4M-11.9 478.3l-2-4.2 4.1-2 2.1 4.1M-15.4 470.8l-1.8-4.4 4.1-1.7 1.8 4.3M-18.5 463l-1.4-4.5 4.1-1.4 1.5 4.5M-21 455l-1.1-4.5 4-1.1 1.3 4.5M-22.9 446.9l-.8-4.6 3.9-.7.9 4.6M-24.2 438.7l-.5-4.6 3.7-.5.6 4.6M-25 430.4l-.2-4.6 3.5-.2.3 4.6M-25.2 422.1l.2-4.6h3.1v4.7M-24.8 413.9l.5-4.7 2.8.2-.3 4.7M-23.8 405.6l.9-4.6 2.3.4-.6 4.6M-22.2 397.5l1.1-4.5 2 .4-.9 4.6M-20 389.6l1.4-4.5 1.4.4-1.2 4.5M-17.3 381.8l1.7-4.4.9.4-1.5 4.4M-14 374.1l1-2.1.4.2-.9 2.2"/></g><g><path fill="#03709C" d="M65.3 273.1l2.3-.2.1.5-2.4.1M71.2 272.6l4.6-.1v.6l-4.6.1M79.4 272.5l4.6.2v.8l-4.7-.3M87.6 272.9l4.6.5-.1 1-4.6-.6M95.7 273.9l4.6.8-.2 1.1-4.5-.9M103.8 275.5l4.6 1.1-.4 1.2-4.5-1.2M111.8 277.6l4.4 1.4-.4 1.4-4.4-1.5M119.6 280.2l4.3 1.8-.6 1.4-4.3-1.8M127.2 283.4l4.2 2-.8 1.6-4.1-2.1M134.6 287.1l4 2.3-.9 1.7-4-2.4M141.7 291.3l3.9 2.6-1.2 1.7-3.8-2.7M148.5 296l3.7 2.8-1.3 1.8-3.7-3M155 301.1l3.5 3.1-1.6 1.7-3.4-3.1M161.1 306.7l3.3 3.3-1.8 1.7-3.2-3.4M177 325.7l2.5 3.9-2.3 1.5-2.5-4M181.4 332.7l2.3 4.1-2.6 1.4-2.2-4.1M185.3 340l2 4.2-2.8 1.3-1.9-4.3M188.7 347.6l1.7 4.3-3 1.1-1.6-4.3M191.6 355.3l1.3 4.5-3.1 1-1.3-4.5M193.9 363.3l1.1 4.6-3.3.7-1.1-4.5M195.7 371.4l.7 4.6-3.4.6-.7-4.6M196.9 379.6s.1 1.2.2 2.3l.2 2.4-3.6.3s-.1-1.2-.2-2.3c-.1-1.2-.2-2.3-.2-2.3l3.6-.4zM197.6 387.9l.1 4.7-3.8.1V388M197.7 396.3l-.2 4.6-3.9-.2.3-4.6M197.3 404.6l-.5 4.6-4.1-.4.6-4.7M196.3 412.8l-.8 4.7-4.2-.8.9-4.6M194.7 421l-1.1 4.6-4.3-1.1 1.2-4.5M192.6 429.1l-1.5 4.4-4.3-1.4 1.5-4.4M189.8 437l-1.7 4.3-4.3-1.7 1.8-4.3M186.6 444.7l-2.1 4.2-4.1-2.1 2-4.2M182.8 452.1l-2.4 4.1-4-2.4 2.4-4M178.5 459.3l-2.7 3.8-3.7-2.5 2.6-3.9M173.7 466.1l-2.9 3.7-3.6-2.8 2.9-3.7M168.4 472.5l-3.1 3.5-3.3-2.9 3.1-3.5M162.7 478.6l-3.4 3.2-2.9-3 3.3-3.3M156.6 484.3l-3.6 3-2.6-3.1 3.5-3.1M150.1 489.5l-3.8 2.7-2.2-3 3.7-2.9M143.3 494.2l-4 2.5-1.9-3 3.9-2.5M136.1 498.4l-4.1 2.2-1.5-2.8 4-2.3M128.7 502.1l-4.3 1.9-1.1-2.5 4.2-2.1M121 505.3l-4.4 1.6-.8-2.3 4.3-1.7M113.2 507.9l-4.5 1.3-.6-1.9 4.5-1.5M105.2 510l-4.6.9-.3-1.4 4.5-1.2M97.1 511.4l-4.7.6-.1-.9 4.6-.9M88.8 512.3l-2.3.2-.1-.5 2.4-.3"/></g><circle fill="#FFF" cx="76.4" cy="413.8" r=".1"/><path fill="#03709C" d="M-47.9 362.1s-11.4 4.6-15 14.2c-1 2.8-1.7 5.5-2 8h-.2c-.4 0-.7 0-1 .1-.7.1-1.3.4-1.8.7-.5.3-1 .7-1.3 1.1-.7.8-1.2 1.6-1.5 2.5-.7 1.7-.9 3.4-.9 5.1s.3 3.3.7 4.8c0-1.6.3-3.2.7-4.6.4-1.5 1.1-2.8 1.9-3.9.4-.5.9-1 1.4-1.2.2-.1.5-.2.6-.2h.5c.1 0 .2.1.2.1.1 0 .1.1.2.1.1.1.2.2.3.4 0 0 .1.1.1.2.1 1.8.5 3.3 1.1 4.6.7 1.5 5.6 3.4 7 2.8 1.4-.6 2.7-1.5 4.1-2.9.2 0 .3-.1.5-.1h.4c.1 0 .3.1.4.3.1.1.2.4.3.6.2.5.3 1.1.2 1.8-.1 1.4-.5 2.8-1.1 4.2s-1.5 2.7-2.5 3.9c1.4-.9 2.6-1.9 3.7-3.1 1.1-1.2 2.1-2.7 2.7-4.4.3-.9.5-1.8.5-2.9 0-.5-.1-1.1-.3-1.7-.2-.6-.5-1.2-.9-1.7-.2-.3-.4-.5-.7-.7l-.1-.1c1.4-2.1 2.7-4.6 3.8-7.4 3.5-9.6-2-20.6-2-20.6zm-.9 14.5c-.8 2.2-3.3 3.3-5.4 2.5-2.2-.8-3.3-3.3-2.5-5.4.8-2.2 3.3-3.3 5.4-2.5 2.2.8 3.3 3.2 2.5 5.4zM172.8 305.9c-2.6-3.1-5.4-5.7-8.3-7.8.1-.1.1-.2.2-.3.3-.4.4-.8.6-1.3.3-.9.4-1.8.4-2.6s-.2-1.6-.4-2.3c-.5-1.4-1.2-2.5-2-3.5-1.6-2-3.5-3.4-5.5-4.5s-4.1-1.9-6.3-2.4c1.9 1.1 3.6 2.4 5.1 3.9s2.7 3.2 3.4 5c.3.9.5 1.7.5 2.5 0 .4-.1.7-.2.9s-.2.4-.4.5c-.1 0-.2.1-.2.2-.1 0-.2.1-.2.1-.2.1-.4.1-.6.1h-.3c-2.2-1-4.4-1.6-6.3-1.8-2.2-.2-7.8 4.5-8.1 6.6-.2 2 0 4.3.7 6.9-.1.2-.2.4-.2.6 0 .1-.1.2-.1.2 0 .1-.1.1-.2.2s-.3.2-.6.3-.6.1-.9 0c-.7-.1-1.6-.5-2.3-.9-1.6-1-3.1-2.5-4.3-4.2-1.2-1.7-2.3-3.6-3-5.7.1 2.2.5 4.4 1.3 6.6.8 2.2 1.8 4.3 3.5 6.2.8.9 1.8 1.8 3.1 2.5.6.3 1.4.6 2.2.8.8.2 1.7.2 2.6 0 .5-.1.9-.2 1.3-.4.1 0 .1 0 .2-.1 1.6 3.1 3.7 6.4 6.3 9.5 9.1 10.8 26 11.6 26 11.6s2.1-16.5-7-27.4zm-1.6 17.6c-2.4 2.1-6.1 1.8-8.2-.7-2.1-2.4-1.8-6.1.7-8.2 2.4-2.1 6.1-1.8 8.2.7 2 2.4 1.7 6.1-.7 8.2z"/><path fill="#72C800" d="M58.8 258c0-.2 0-.3-.1-.6 0-.2-.1-.4-.1-.6-.2-.8-.6-1.6-1-2.2-.9-1.3-2-2.3-3.1-3-2.3-1.5-4.6-2.2-6.7-2.7-2.1-.5-3.9-.7-5.4-.7-1.5-.1-2.7 0-3.5 0-.8.1-1.2.1-1.2.1s.4 0 1.2.1c.8.1 1.9.2 3.4.4 1.4.3 3.2.6 5.1 1.3 1.9.6 4 1.5 5.9 3 .9.7 1.8 1.6 2.4 2.6.3.5.5 1.1.6 1.6 0 .1 0 .3.1.4v1.4c-.2 2.5-1.8 5-4 7-2.2 2.1-4.9 3.6-7.9 4.9-2.9 1.2-6.1 2.2-9.2 2.5-3.2.3-6.6.2-9.4-.6-1.4-.4-2.7-1.1-3.5-2s-1-1.9-.6-2.9v-.1l.1-.2c.1-.2.2-.4.3-.5.1-.1.1-.2.2-.3l.3-.4c.3-.4.7-.8 1.2-1.1-.2.4-.3.9-.4 1.4v.8l.1.4.1.4c.4 1.3 1.2 2 2 2.5 1.6 1 3.3 1.3 5.1 1.4 1.7.1 3.5 0 5.2-.3.4-.1.9-.2 1.3-.3.5-.1.9-.2 1.4-.4.9-.3 1.8-.6 2.6-1 1.8-.8 3.4-1.7 5-3.1.8-.7 1.6-1.4 2.2-2.4.7-.9 1.2-2.1 1.3-3.5.1-.7 0-1.4-.2-2l-.1-.2-.1-.3-.1-.3c-.1-.3-.3-.7-.5-.9-.7-1.1-1.7-1.9-2.7-2.6-2-1.2-4.2-1.8-6.4-2-4.3-.5-8.7.1-12.7 1.4-4.1 1.2-8.1 3.1-11.3 5.9-1.6 1.4-3 3.1-4.1 5-1 1.9-1.6 4.1-1.5 6.3.1 2.2.9 4.3 2.2 5.9 1.3 1.7 2.8 2.9 4.4 3.8 3.2 1.9 6.5 2.9 9.6 3.4 6.2 1.1 11.4.8 15 .5 1.8-.1 3.2-.4 4.2-.5.9-.2 1.5-.3 1.5-.3s-.5 0-1.5.1c-1 0-2.4.1-4.2.1s-4-.1-6.4-.3c-2.5-.3-5.2-.6-8.2-1.3-2.9-.8-6-1.8-8.9-3.6-1.4-.9-2.7-2-3.6-3.3-1-1.4-1.5-3-1.6-4.6-.1-3.3 2-6.7 4.9-9.1 2.9-2.4 6.6-4.1 10.3-5.1 3.8-1.1 7.8-1.5 11.5-1 1.8.3 3.6.8 5 1.7s2.1 2.1 1.9 3.2c-.1.7-.5 1.5-1.2 2.3v-.5-1c-.2-.7-.6-1.4-1.1-1.9s-1.1-.9-1.7-1.2c-2.4-1.1-5-1.2-7.7-1-1.3.1-2.8.4-4.2.7-1.5.4-2.9 1-4.2 1.7-1.4.7-2.8 1.5-4.1 2.6-.7.5-1.3 1.1-1.9 1.8l-.4.5-.4.7c-.2.2-.2.4-.3.6l-.1.3c-.1.2 0 .1-.1.1v.1l-.1.2c-.4 1-.5 2.1-.3 3.2s.8 2.1 1.4 2.9c1.4 1.6 3.2 2.5 4.9 3 3.6 1 7.1 1 10.6.7 3.6-.4 7-1.5 10.1-2.9 3.1-1.5 6.1-3.3 8.5-5.6 1.2-1.2 2.3-2.5 3.1-4s1.4-3.1 1.4-4.8c.5-.8.5-1.3.4-1.7z"/><g><g fill="#00A8DE"><path d="M256.9 425.8c-1.1.6-2.6 1.4-4.5 2.3s-4.1 2-6.5 3.1c-1.2.5-2.4 1.1-3.7 1.7-1.3.6-2.6 1.1-3.9 1.6-2.7 1-5.6 1.6-8.2 2.2l-3.9.9c-1.2.3-2.4.5-3.5.7-2.2.4-4 .7-5.3.9-1.3.2-2.1.3-2.1.3-2.7.3-5.4 1.7-7.1 4.1-3.2 4.5-2.2 10.8 2.3 14 4.5 3.2 10.8 2.2 14-2.3 0 0 .4-.6 1.3-1.6.8-1 2-2.5 3.4-4.2.7-.9 1.5-1.7 2.4-2.7.8-1 1.7-1.9 2.7-2.9 1.9-2 3.8-4.2 6-6.1 1.1-.9 2.2-1.8 3.3-2.6l3.3-2.4c2.1-1.5 4.2-3 5.9-4.1 1.6-1.2 3.1-2.1 4.1-2.9 1.1-.6 1.7-.9 1.7-.9s-.6.4-1.7.9zm-35.6 24c.3.8.3 2.1-.3 3.1-.8 1.2-2.1 1.6-3.3 2.2-.9.5-1.4.4-2.1.2-1.3-.5-2.9-1-3.7-2.2-.4-.5-.2-1.2-.2-1.9 0-.9-.5-1.6-.4-2.5.1-.7.7-1.2 1-1.8s.1-1.4.7-2c.5-.5 1.2-.6 1.7-1.2.7-.9 1.8-2.1 2.7-1.2.3.3 2.7 1.6 3.5 1.8.8.2 1.1 1.4.6 2-.7.5-.6 2.5-.2 3.5z"/><path d="M216.4 444.9c-.5 1.1-.7.7-1.7.9.1.4.8 1.8 1.4 1.6.5-.2 1.5-1.7 1.4-2-.2-.3-1-.8-1.1-.5zM212.8 448.9c-.1 0-.3.1-.4.2.3-.4.6 1.4.6 1.5 0 .4 0 1.4.4 1.6.5.2.5-.8.8-1.8.3-.7-.7-1.6-1.4-1.5zM219.7 449.8c-.2-.1-.5 0-.7.1s-.4.2-.5.3c-.3.4-1 1.9-.5 2.3.4.3 1.4-.2 1.7-.6.3-.6-.3-.8-.3-1.2-.1-.4.3-.6.3-.9z"/></g></g><path fill="#03709C" d="M243.9 360c.2-3.8-1.7-7.6-5.2-9.4-3.5-1.8-7.7-1.1-10.6 1.3-3.9-1.5-7.2-2.4-9.1-2.4-1.3 0-2.1.4-2.5 1.1-.7 1.4.5 3.3 4.1 6 1.1.8 2.4 1.7 3.8 2.6-.2 3.8 1.7 7.6 5.2 9.4s7.7 1.1 10.6-1.3c3.9 1.5 7.2 2.4 9.1 2.4 1.3 0 2.1-.4 2.5-1.1 1.1-2.2-3.4-5.8-7.9-8.6zm-25.2-8.2h.3c1.3 0 3.9.6 7.5 2-.3.5-.7 1-.9 1.5-.3.5-.5 1.1-.7 1.6-3.7-2.4-5.7-4.2-6.2-5.1zm30.6 15.7c-1.3 0-3.9-.6-7.5-2 .3-.5.7-1 .9-1.5.3-.5.5-1.1.7-1.6 3.6 2.4 5.6 4.2 6.2 5.1h-.3z"/><g fill="#FFF"><path d="M20.2 399.9c.1-1.3-.4-2.7-1.3-3.7l-9.8-10.1c-2.1-2.1-3.1-5-2.9-8 .2-2.9 1.7-5.6 4-7.4 2.3-1.8 5.4-2.5 8.3-1.9s5.4 2.4 6.9 5c.8 1.4.3 3.2-1.1 4-1.4.8-3.2.3-4-1.1-.7-1.1-1.7-1.8-2.9-2.1-1.3-.2-2.5.1-3.6.9-1 .7-1.7 1.9-1.7 3.2-.1 1.2.3 2.5 1.2 3.4l9.8 10.1c2.1 2.2 3.3 5.2 3 8.2-.2 3.1-1.8 5.8-4.2 7.7-2.5 1.8-5.5 2.5-8.5 2-3-.6-5.6-2.5-7.1-5.1-.9-1.4-.4-3.3 1-4 1.4-.8 3.2-.3 4 1.1.7 1.2 1.8 2 3.1 2.3 1.4.2 2.7-.1 3.8-.9 1.2-1 1.8-2.2 2-3.6zM40.7 368.8h7.4c5.7 0 9.9 4.7 9.9 10.4v3.4c0 5.7-4.2 10.1-9.9 10.1H44v14.5c0 1.7-1.4 2.9-3 2.9-1.7 0-3-1.3-3-2.9v-35.3c0-1.6 1-3.1 2.7-3.1zm7.4 6H44v12h4.1c2.5 0 3.9-1.7 3.9-4.1v-3.4c0-2.5-1.5-4.5-3.9-4.5zM99 399.9V379c0-4.7 3.3-8.8 7.7-9.9 4.5-1.2 9.3.7 11.7 4.8.9 1.4.4 3.2-1 4-1.4.8-3.2.3-4-1.1-1-1.7-3.1-2.6-5-2-1.9.5-3.3 2.3-3.3 4.2v20.9c0 2 1.4 3.7 3.3 4.3 2 .5 4-.4 5-2.1.9-1.4 2.7-1.9 4.1-1.1 1.4.9 1.9 2.6 1.1 4-2.3 4-7.2 6-11.7 4.8-4.6-1.2-7.9-5.3-7.9-9.9zM133 368.8h12.3c1.7 0 2.9 1.4 2.9 3 0 1.7-1.3 3-2.9 3H136v11h8c1.7 0 2.9 1.4 2.9 3 0 1.7-1.3 3-2.9 3h-8v12h9.3c1.7 0 2.9 1.4 2.9 3 0 1.7-1.3 3-2.9 3H133c-1.6 0-3-1.2-3-2.8v-35.1c0-1.6 1.4-3.1 3-3.1zM89.7 399.1l-9.8-35.6c-.3-1.3-1.5-2.1-2.8-2.1s-2.5.9-2.8 2.1l-9.8 35.6c-.4 1.6.5 3.2 2 3.6 1.6.4 3.2-.7 3.6-2.2 0 0 .7-2.7 1.8-6.7l4.6-16.5c.2-.7.4-1.3.6-2 .2.8.5 1.5.7 2.4l4.5 16.1c.3 1 .5 2.1.8 2.9l.7 2.5c.2.8.4 1.3.4 1.3.4 1.5 2 2.5 3.6 2 1.4-.2 2.3-1.8 1.9-3.4z"/></g></svg>