<svg xmlns="http://www.w3.org/2000/svg" viewBox="0 0 155 155"><circle r="63.9" cy="83.8" cx="82.2" opacity=".35" fill="#1f3749"/><circle r="63.9" cy="70.4" cx="68.8" fill="#72c1de"/><ellipse ry="29.5" rx="42.1" cy="66" cx="68.9" fill="#fff"/><path d="M75.6 92.2l24 9.6c2 .8 4-1 3.4-3.1l-4.4-16.5-23 10z" fill="#fff"/><path d="M54.905 66.942c0 1.3-.5 2.5-1.4 3.4-.9.9-2 1.4-3.3 1.4-1.3 0-2.5-.5-3.4-1.4-.9-.9-1.4-2-1.4-3.4s.5-2.4 1.4-3.3c.9-.9 2-1.4 3.4-1.4 1.3 0 2.4.5 3.3 1.4 1 .9 1.4 2 1.4 3.3zm18.2 0c0 1.3-.5 2.5-1.4 3.4-.9.9-2 1.4-3.3 1.4-1.3 0-2.5-.5-3.4-1.4-.9-.9-1.4-2-1.4-3.4s.5-2.4 1.4-3.3c.9-.9 2-1.4 3.4-1.4 1.3 0 2.4.5 3.3 1.4.9.9 1.4 2 1.4 3.3zm18.1 0c0 1.3-.5 2.5-1.4 3.4-.9.9-2 1.4-3.3 1.4-1.3 0-2.5-.5-3.4-1.4-.9-.9-1.4-2-1.4-3.4s.5-2.4 1.4-3.3c.9-.9 2-1.4 3.4-1.4s2.4.5 3.3 1.4c1 .9 1.4 2 1.4 3.3z" fill="#72c1de"/></svg>