<svg xmlns="http://www.w3.org/2000/svg" viewBox="-1362 823 155 155"><circle opacity=".35" fill="#1F3749" cx="-1277.8" cy="907.2" r="63.9"/><circle fill="#72C1DE" cx="-1291.2" cy="893.8" r="63.9"/><path fill="#03709C" stroke="#006E91" stroke-miterlimit="10" d="M-1321.9 858.3c-.2-.3-.1 2.2.6 3.3 1.2 1.8 2.4 2.3 3 2.4 1.4.3 3.2.3 4.3.1 1.1-.2 3-.7 3.9-1.9.2-.2.7-.6.7-1.8 0-.9-.5-1.3-1.2-1.4s-2.9 0-4 .1-3.3.3-4.2.3-2.8-.7-3.1-1.1zM-1302.4 892.4c-.4-.2-7.9-5.3-8.9-6.1-.9-.7-3-2.1-4-2.8 4.1-4.1 6.8-7.3 7.2-7.8.7-.9 5.3-6.6 5.4-7 .2-.4.6-1.8.6-2.2s-1.3.1-3.1.3c-1.7.2-5.3 1.6-6.5 1.6-1.3 0-5.4.7-7.5.9-2.1.2-6.1.6-7.7.7-1.6.1-3-.1-3.9-.1 0 0-.1 1.2 0 1.6.2.4.8 1.5 1.7 1.9.9.4 2.5.7 3.2.6.7 0 2.1-.4 2.3-.6s.1-1.1.5-1.3c.3-.2 4.3-.3 5.8-.4s7.3-.9 8-.6c-.4.7-6.5 8.5-8.5 10.7-2 2.3-12.5 12-14.6 13.6-1.6 1.2-5.6 4.5-6.9 5.1.3.1 2.3.4 2.7.2 2.5-.9 7.2-4.8 8.7-6 4.4-3.5 8.5-7.2 11.8-10.5.4.3 3.7 4.3 4.6 5.2.9.9 4.5 4 5.3 4.6s3.8 2.8 4.1 2.3c.2-.4.1-3.7-.3-3.9z"/><path fill="#FFF" d="M-1280.2 920.2l12.5-32.2c.5-1.1 1.3-1.7 2.4-1.7 1.1 0 1.9.6 2.4 1.7l12.6 32.3c.1.3.2.6.2 1 0 .7-.2 1.3-.7 1.8s-1.1.7-1.8.7-1.3-.2-1.7-.7c-.2-.2-.4-.5-.6-.8l-4.3-11.1h-12l-4.4 11.1c-.1.3-.3.5-.6.8-.5.5-1.1.7-1.8.7s-1.3-.2-1.7-.7-.7-1.1-.7-1.8c0-.3.1-.7.2-1.1zm19-14l-4.1-10.5-4.1 10.5h8.2z"/><path fill="none" stroke="#FFF" stroke-width="5" stroke-linecap="round" stroke-miterlimit="10" d="M-1290.4 855.4c15.1.3 29.2 9.6 34.9 24.5"/><path fill="none" stroke="#006E91" stroke-width="5" stroke-linecap="round" stroke-miterlimit="10" d="M-1290.4 932.2c-15.7.3-30.6-9-36.6-24.5"/><path fill="#FFF" d="M-1290.7 862.6l-6.1-6.1c-.5-.5-.4-1.2 0-1.6l6-6.1c.7-.7 1.9-.2 1.9.8v12.2c.2 1-1 1.5-1.8.8z"/><path fill="#03709C" d="M-1289.1 925.8l6.1 6.1c.5.5.4 1.2 0 1.6l-6 6.1c-.7.7-1.9.2-1.9-.8v-12.2c-.1-1.1 1.1-1.6 1.8-.8z"/></svg>