<svg xmlns="http://www.w3.org/2000/svg" viewBox="-17 343.9 560 155"><path opacity=".35" fill="#1F3749" d="M536.6 428c0 35.3-28.6 63.9-63.9 63.9H66.6c-35.3 0-63.8-28.6-63.8-63.9s28.6-64.1 63.8-64.1h406.1c35.3 0 63.9 28.8 63.9 64.1z"/><path fill="#AADE66" d="M523.2 414.9c0 35.3-28.6 64-63.9 64H53.1c-35.2 0-63.7-28.8-63.7-64s28.4-64 63.6-64h406.3c35.3 0 63.9 28.7 63.9 64z"/><g><path fill="#FFF" d="M493.8 452.2l-5.6 4.5c-2.4 1.9-5.9 1.5-7.8-.9l-14.1-17.5c-1.9-2.4-1.5-5.9.9-7.8l5.6-4.5c2.4-1.9 5.9-1.5 7.8.9l14.1 17.5c1.9 2.4 1.5 5.9-.9 7.8z"/><path fill="#FFF" d="M491 454.5c-2.2 1.8-5.5 1.4-7.3-.8l-21.8-27.1c-1.8-2.2-1.4-5.5.8-7.3 2.2-1.8 5.5-1.4 7.3.8l21.8 27.1c1.8 2.2 1.5 5.5-.8 7.3z"/><circle fill="#FFF" cx="448" cy="400.7" r="29.5"/><circle fill="#AADE66" cx="448" cy="400.7" r="19.6"/><path fill="none" stroke="#FFF" stroke-width="2" stroke-linecap="round" stroke-miterlimit="10" d="M457.8 413c-6.8 5.4-16.6 4.3-22.1-2.4"/></g></svg>