<svg xmlns="http://www.w3.org/2000/svg" viewBox="0 0 155 155"><g><path opacity=".35" fill="#1F3749" d="M147.8 84c0 35.3-28.6 63.9-63.9 63.9h-.1C48.5 147.9 20 119.3 20 84s28.6-64.1 63.8-64.1h.1c35.3 0 63.9 28.8 63.9 64.1z"/><path fill="#AADE66" d="M134.4 70.9c0 35.3-28.6 64-63.9 64h-.2c-35.2 0-63.7-28.8-63.7-64s28.4-64 63.6-64h.3c35.3 0 63.9 28.7 63.9 64z"/><path fill="#FFF" d="M105 108.2l-5.6 4.5c-2.4 1.9-5.9 1.5-7.8-.9L77.5 94.3c-1.9-2.4-1.5-5.9.9-7.8L84 82c2.4-1.9 5.9-1.5 7.8.9l14.1 17.5c1.9 2.4 1.5 5.9-.9 7.8z"/><path fill="#FFF" d="M102.2 110.5c-2.2 1.8-5.5 1.4-7.3-.8L73.1 82.6c-1.8-2.2-1.4-5.5.8-7.3 2.2-1.8 5.5-1.4 7.3.8l21.8 27.1c1.8 2.2 1.5 5.5-.8 7.3z"/><circle fill="#FFF" cx="59.2" cy="56.7" r="29.5"/><circle fill="#AADE66" cx="59.2" cy="56.7" r="19.6"/><path fill="none" stroke="#FFF" stroke-width="2" stroke-linecap="round" stroke-miterlimit="10" d="M69 69c-6.8 5.4-16.6 4.3-22.1-2.4"/></g></svg>