<svg xmlns="http://www.w3.org/2000/svg" viewBox="-1397 858 85 85"><path fill="#E9A9E5" d="M-1327.5 942.8h-54c-8.5 0-15.3-6.8-15.3-15.3v-54c0-8.5 6.8-15.3 15.3-15.3h54.1c8.4 0 15.2 6.8 15.2 15.3v54.1c0 8.4-6.8 15.2-15.3 15.2z"/><path fill="#03709C" d="M-1354.5 869.9c-16.9 0-30.6 13.7-30.6 30.6 0 12.5 7.5 23.3 18.3 28-.1-2.1 0-4.7.5-7 .6-2.5 3.9-16.7 3.9-16.7s-1-2-1-4.8c0-4.5 2.6-7.9 5.9-7.9 2.8 0 4.1 2.1 4.1 4.6 0 2.8-1.8 7-2.7 10.9-.8 3.2 1.6 5.9 4.8 5.9 5.8 0 9.7-7.4 9.7-16.3 0-6.7-4.5-11.7-12.7-11.7-9.3 0-15.1 6.9-15.1 14.6 0 2.7.8 4.5 2 6 .6.7.6.9.4 1.7-.1.6-.5 1.9-.6 2.5-.2.8-.8 1.1-1.5.8-4.3-1.7-6.3-6.4-6.3-11.7 0-8.7 7.3-19.1 21.9-19.1 11.7 0 19.4 8.5 19.4 17.5 0 12-6.7 21-16.5 21-3.3 0-6.4-1.8-7.5-3.8 0 0-1.8 7-2.2 8.4-.6 2.4-1.9 4.7-3.1 6.6 2.7.8 5.7 1.3 8.7 1.3 16.9 0 30.6-13.7 30.6-30.6.2-17.1-13.5-30.8-30.4-30.8z"/></svg>