<svg xmlns="http://www.w3.org/2000/svg" viewBox="-1397 858 85 85"><path fill="#C7E999" d="M-1325.8 942.8h-57.4c-7.5 0-13.6-6.1-13.6-13.6v-57.4c0-7.5 6.1-13.6 13.6-13.6h57.4c7.5 0 13.6 6.1 13.6 13.6v57.4c0 7.5-6.1 13.6-13.6 13.6z"/><path fill="#03709C" d="M-1326.3 883c-2.1.9-4.3 1.5-6.6 1.8 2.4-1.4 4.2-3.7 5.1-6.4-2.2 1.3-4.7 2.3-7.3 2.8-2.1-2.3-5.1-3.7-8.4-3.7-6.4 0-11.6 5.2-11.6 11.6 0 .9.1 1.8.3 2.6-9.6-.5-18.1-5.1-23.8-12.1-1 1.7-1.6 3.7-1.6 5.8 0 4 2 7.6 5.1 9.6-1.9-.1-3.7-.6-5.2-1.4v.1c0 5.6 4 10.3 9.3 11.3-1 .3-2 .4-3 .4-.7 0-1.5-.1-2.2-.2 1.5 4.6 5.7 7.9 10.8 8-4 3.1-8.9 5-14.4 5-.9 0-1.9-.1-2.8-.2 5.1 3.3 11.2 5.2 17.7 5.2 21.2.2 32.9-17.4 32.9-32.7V889c2.2-1.6 4.1-3.7 5.7-6z"/></svg>